<?xml version="1.0" encoding="UTF-8"?>
<svg id="Layer_2" data-name="Layer 2" xmlns="http://www.w3.org/2000/svg" xmlns:xlink="http://www.w3.org/1999/xlink" viewBox="0 0 447.6 145.1">
  <defs>
    <style>
      .cls-1, .cls-2, .cls-3, .cls-4, .cls-5, .cls-6, .cls-7 {
        clip-rule: evenodd;
      }

      .cls-1, .cls-8 {
        fill: #e5e3e1;
      }

      .cls-9 {
        opacity: .17;
      }

      .cls-9, .cls-10, .cls-4, .cls-11, .cls-12 {
        fill: none;
      }

      .cls-9, .cls-10, .cls-11, .cls-12 {
        stroke-miterlimit: 10;
      }

      .cls-9, .cls-11 {
        stroke-width: .4px;
      }

      .cls-9, .cls-11, .cls-12 {
        stroke: #979797;
      }

      .cls-13 {
        fill: #a19898;
      }

      .cls-2, .cls-14, .cls-15 {
        fill: #635d68;
      }

      .cls-16, .cls-3, .cls-17 {
        fill: #bcb7bb;
      }

      .cls-16, .cls-18, .cls-8, .cls-19, .cls-20, .cls-15 {
        fill-rule: evenodd;
      }

      .cls-21 {
        fill: #8f8083;
      }

      .cls-18, .cls-22, .cls-6 {
        fill: #837e86;
      }

      .cls-10 {
        stroke: #999;
        stroke-width: 3.57px;
      }

      .cls-23 {
        fill: #cec3c1;
      }

      .cls-24 {
        fill: #a39897;
      }

      .cls-25 {
        clip-path: url(#clippath-11);
      }

      .cls-26 {
        clip-path: url(#clippath-16);
      }

      .cls-27 {
        clip-path: url(#clippath-18);
      }

      .cls-28 {
        clip-path: url(#clippath-10);
      }

      .cls-29 {
        clip-path: url(#clippath-13);
      }

      .cls-30 {
        clip-path: url(#clippath-14);
      }

      .cls-31 {
        clip-path: url(#clippath-12);
      }

      .cls-32 {
        clip-path: url(#clippath-1);
      }

      .cls-33 {
        clip-path: url(#clippath-3);
      }

      .cls-34 {
        clip-path: url(#clippath-4);
      }

      .cls-35 {
        clip-path: url(#clippath-2);
      }

      .cls-36 {
        clip-path: url(#clippath-7);
      }

      .cls-37 {
        clip-path: url(#clippath-6);
      }

      .cls-38 {
        clip-path: url(#clippath-9);
      }

      .cls-39 {
        clip-path: url(#clippath-8);
      }

      .cls-40 {
        clip-path: url(#clippath-5);
      }

      .cls-41 {
        fill: #b4a7a6;
      }

      .cls-42, .cls-19, .cls-7 {
        fill: #d9dadb;
      }

      .cls-43 {
        fill: #d1c7c6;
      }

      .cls-44, .cls-5, .cls-20 {
        fill: #4a4351;
      }

      .cls-11, .cls-12 {
        opacity: .17;
      }

      .cls-12 {
        stroke-width: .45px;
      }

      .cls-45 {
        clip-path: url(#clippath);
      }
    </style>
    <clipPath id="clippath">
      <path class="cls-1" d="M41.4,1.78C15.16,15.67,2.03,39.26,2.03,72.55s13.12,56.88,39.37,70.76h244.49l6.28-4.2,23.43,4.2h86.51c29.14-11.6,43.7-34.75,43.7-69.46s-14.57-58.73-43.7-72.07h-58.53l-10.52,2.61-5.12-2.61h-188.79l-3.81,4.67-10.9-4.67H41.4Z"/>
    </clipPath>
    <clipPath id="clippath-1">
      <polygon class="cls-3" points="60.68 1.78 68.22 14.7 125.68 14.7 123.76 1.78 60.68 1.78"/>
    </clipPath>
    <clipPath id="clippath-2">
      <polygon class="cls-4" points="123.76 1.78 127.53 14.7 137.67 16.65 134.67 5.47 123.76 1.78"/>
    </clipPath>
    <clipPath id="clippath-3">
      <polygon class="cls-4" points="138.48 1.78 144.34 14.7 320.71 14.7 327.19 1.78 138.48 1.78"/>
    </clipPath>
    <clipPath id="clippath-4">
      <polygon class="cls-4" points="327.19 1.78 320.71 14.7 325.14 17.32 332.31 3.84 327.19 1.78"/>
    </clipPath>
    <clipPath id="clippath-5">
      <path class="cls-3" d="M342.84,1.78l-5.86,12.91h59.49c5.37,0,9.55.87,12.53,2.62l7.31-8.68c-3.1-1.53-5.53-2.71-7.31-3.52-1.77-.81-4.31-1.92-7.61-3.33h-58.55Z"/>
    </clipPath>
    <clipPath id="clippath-6">
      <path class="cls-3" d="M60.68,1.78v12.9c-17.35,2.44-29.49,7.67-36.42,15.69-6.92,8.03-10.97,18.64-12.15,31.85l-10.2,5.45c-.71-8.04-.91-13.78-.6-17.21.87-9.41,4.69-17.24,7.76-23.43C13.82,17.47,24.37,9.05,40.7,1.78h19.98Z"/>
    </clipPath>
    <clipPath id="clippath-7">
      <path class="cls-4" d="M389.73,13.6c9.54.5,17.43,4.4,23.68,11.7,6.91,8.07,13.3,17.71,16.19,29.7,1.89,7.86,1.85,18.35.97,24.39-2.06,14.2-9.75,30.66-22.64,40.15-4.97,3.66-14.17,6.82-27.6,9.49h17.52c14.93-9.72,24.33-18.33,28.22-25.81.84-1.62,2.13-3.92,2.78-5.78,1.39-3.95,1.85-7.76,2.68-11.85,3.9-19.32,1.18-36.47-8.18-51.46-2.51-3.74-4.38-6.41-5.61-8.02-1.22-1.61-2.84-3.51-4.85-5.71l6.65-13.73-1.8-1.24-7.6,11.72c-2.61-1.46-4.65-2.39-6.12-2.79-1.47-.4-6.24-.65-14.3-.76Z"/>
    </clipPath>
    <clipPath id="clippath-8">
      <path class="cls-6" d="M2.74,91.26l11.32-5.78c1.32,6.73,4.09,13.33,8.3,19.8,4.21,6.47,9,11.46,14.37,14.98l-8.13,15.07c-8.99-8.12-14.93-14.65-17.82-19.56-2.89-4.92-5.57-13.09-8.04-24.5Z"/>
    </clipPath>
    <clipPath id="clippath-9">
      <path class="cls-2" d="M36.73,120.25l-8.13,15.07c2.89,2.18,5.24,3.8,7.04,4.86,1.8,1.06,3.68,1.92,5.65,2.59h244.43l-5.83-14.74H52.59c-3.67-.96-6.43-1.89-8.28-2.8-1.85-.91-4.37-2.57-7.57-4.98Z"/>
    </clipPath>
    <clipPath id="clippath-10">
      <polygon class="cls-5" points="279.89 128.03 288.46 124.9 292.01 138.9 285.72 142.77 279.89 128.03"/>
    </clipPath>
    <clipPath id="clippath-11">
      <polygon class="cls-6" points="288.46 124.9 292.01 138.9 317.17 142.77 313.01 127.6 288.46 124.9"/>
    </clipPath>
    <clipPath id="clippath-12">
      <polygon class="cls-2" points="312.66 127.66 316.82 142.82 401.64 142.82 406.07 141.12 397.42 127.66 312.66 127.66"/>
    </clipPath>
    <clipPath id="clippath-13">
      <path class="cls-6" d="M397.17,128.16l8.65,13.46c8.42-4.12,14.4-7.69,17.96-10.72,9.23-7.86,11.86-13.06,15.2-19.82,3.85-7.79,6.12-19.69,6.12-32.74,0-4.77-.78-11.37-2.35-19.81l-12.08,8.88c.3,13.91-.94,25.06-3.7,33.45-2.76,8.39-12.7,17.49-29.8,27.3Z"/>
    </clipPath>
    <clipPath id="clippath-14">
      <path class="cls-4" d="M421.48,30.88l7.8-9.57c3.2,4.15,5.4,7.35,6.6,9.57,1.2,2.23,2.5,5.51,3.89,9.86l-10.49,7.07c-.84-3.67-1.86-6.75-3.05-9.24-1.19-2.49-2.77-5.05-4.74-7.69Z"/>
    </clipPath>
    <clipPath id="clippath-16">
      <path class="cls-7" d="M417.46,10.65l-5.82,9.76c2.38,2.3,4.13,4.07,5.27,5.31,1.14,1.24,2.43,2.81,3.88,4.71l8.18-10.02c-2.44-2.68-4.31-4.58-5.62-5.69-1.31-1.11-3.27-2.46-5.89-4.07Z"/>
    </clipPath>
    <clipPath id="clippath-18">
      <path class="cls-4" d="M2.15,67.69v1.35l11.32-4.95c1.52-15.31,5.68-26.24,12.48-32.77,6.8-6.53,18.09-11.25,33.89-14.16h77.82l-10.13-2.47-3.77-12.9,1.92,12.9h-57.46l-7.54-12.9v12.9c-16.49,2.03-28.63,7.26-36.42,15.69-7.79,8.43-11.68,19.17-11.68,32.21l-10.44,5.1Z"/>
    </clipPath>
  </defs>
  <g id="Layer_9" data-name="Layer 9">
    <g>
      <g>
        <path class="cls-8" d="M41.4,1.78C15.16,15.67,2.03,39.26,2.03,72.55s13.12,56.88,39.37,70.76h244.49l6.28-4.2,23.43,4.2h86.51c29.14-11.6,43.7-34.75,43.7-69.46s-14.57-58.73-43.7-72.07h-58.53l-10.52,2.61-5.12-2.61h-188.79l-3.81,4.67-10.9-4.67H41.4Z"/>
        <g class="cls-45">
          <g>
            <polygon class="cls-16" points="60.68 1.78 68.22 14.7 125.68 14.7 123.76 1.78 60.68 1.78"/>
            <g class="cls-32">
              <rect class="cls-17" x="59.68" y=".68" width="67.01" height="15.13"/>
            </g>
          </g>
          <polygon class="cls-11" points="60.68 1.78 68.22 14.7 125.68 14.7 123.76 1.78 60.68 1.78"/>
          <g class="cls-35">
            <rect class="cls-24" x="122.76" y=".68" width="15.92" height="17.07"/>
          </g>
          <polygon class="cls-22" points="123.76 1.78 127.53 14.7 137.67 16.65 134.67 5.47 123.76 1.78"/>
          <g class="cls-33">
            <rect class="cls-41" x="137.47" y=".68" width="190.72" height="15.13"/>
          </g>
          <polygon class="cls-17" points="138.48 1.78 144.34 14.7 320.71 14.7 327.19 1.78 138.48 1.78"/>
          <g class="cls-34">
            <rect class="cls-13" x="319.7" y=".68" width="13.61" height="17.75"/>
          </g>
          <polygon class="cls-22" points="327.19 1.78 320.71 14.7 325.14 17.32 332.31 3.84 327.19 1.78"/>
          <g>
            <path class="cls-16" d="M342.84,1.78l-5.86,12.91h59.49c5.37,0,9.55.87,12.53,2.62l7.31-8.68c-3.1-1.53-5.53-2.71-7.31-3.52-1.77-.81-4.31-1.92-7.61-3.33h-58.55Z"/>
            <g class="cls-40">
              <rect class="cls-17" x="335.97" y=".68" width="81.35" height="17.75"/>
            </g>
          </g>
          <path class="cls-11" d="M342.84,1.78l-5.86,12.91h59.49c5.37,0,9.55.87,12.53,2.62l7.31-8.68c-3.1-1.53-5.53-2.71-7.31-3.52-1.77-.81-4.31-1.92-7.61-3.33h-58.55Z"/>
          <g>
            <path class="cls-16" d="M60.68,1.78v12.9c-17.35,2.44-29.49,7.67-36.42,15.69-6.92,8.03-10.97,18.64-12.15,31.85l-10.2,5.45c-.71-8.04-.91-13.78-.6-17.21.87-9.41,4.69-17.24,7.76-23.43C13.82,17.47,24.37,9.05,40.7,1.78h19.98Z"/>
            <g class="cls-37">
              <rect class="cls-17" y=".68" width="61.69" height="68.12"/>
            </g>
          </g>
          <path class="cls-11" d="M60.68,1.78v12.9c-17.35,2.44-29.49,7.67-36.42,15.69-6.92,8.03-10.97,18.64-12.15,31.85l-10.2,5.45c-.71-8.04-.91-13.78-.6-17.21.87-9.41,4.69-17.24,7.76-23.43C13.82,17.47,24.37,9.05,40.7,1.78h19.98Z"/>
          <g class="cls-36">
            <rect class="cls-23" x="379.29" y="3.93" width="57.21" height="126.59"/>
          </g>
          <g>
            <path class="cls-18" d="M2.74,91.26l11.32-5.78c1.32,6.73,4.09,13.33,8.3,19.8,4.21,6.47,9,11.46,14.37,14.98l-8.13,15.07c-8.99-8.12-14.93-14.65-17.82-19.56-2.89-4.92-5.57-13.09-8.04-24.5Z"/>
            <g class="cls-39">
              <rect class="cls-22" x="1.74" y="84.18" width="36.01" height="52.43"/>
            </g>
          </g>
          <g>
            <path class="cls-15" d="M36.73,120.25l-8.13,15.07c2.89,2.18,5.24,3.8,7.04,4.86,1.8,1.06,3.68,1.92,5.65,2.59h244.43l-5.83-14.74H52.59c-3.67-.96-6.43-1.89-8.28-2.8-1.85-.91-4.37-2.57-7.57-4.98Z"/>
            <g class="cls-38">
              <rect class="cls-14" x="27.6" y="118.96" width="259.13" height="25.1"/>
            </g>
          </g>
          <g>
            <polygon class="cls-20" points="279.89 128.03 288.46 124.9 292.01 138.9 285.72 142.77 279.89 128.03"/>
            <g class="cls-28">
              <rect class="cls-44" x="278.88" y="123.61" width="14.13" height="20.45"/>
            </g>
          </g>
          <g>
            <polygon class="cls-18" points="288.46 124.9 292.01 138.9 317.17 142.77 313.01 127.6 288.46 124.9"/>
            <g class="cls-25">
              <rect class="cls-22" x="287.45" y="123.61" width="30.73" height="20.45"/>
            </g>
          </g>
          <g>
            <polygon class="cls-15" points="312.66 127.66 316.82 142.82 401.64 142.82 406.07 141.12 397.42 127.66 312.66 127.66"/>
            <g class="cls-31">
              <rect class="cls-14" x="311.66" y="126.36" width="95.42" height="17.75"/>
            </g>
          </g>
          <g>
            <path class="cls-18" d="M397.17,128.16l8.65,13.46c8.42-4.12,14.4-7.69,17.96-10.72,9.23-7.86,11.86-13.06,15.2-19.82,3.85-7.79,6.12-19.69,6.12-32.74,0-4.77-.78-11.37-2.35-19.81l-12.08,8.88c.3,13.91-.94,25.06-3.7,33.45-2.76,8.39-12.7,17.49-29.8,27.3Z"/>
            <g class="cls-29">
              <rect class="cls-22" x="396.17" y="57.24" width="49.95" height="85.67"/>
            </g>
          </g>
          <path class="cls-12" d="M397.17,126.81l8.65,14.65c8.42-4.49,14.4-8.38,17.96-11.67,9.23-8.56,11.86-14.22,15.2-21.58,3.85-8.48,6.12-21.43,6.12-35.65,0-5.2-.78-12.39-2.35-21.56l-12.08,9.67c.3,15.14-.94,27.28-3.7,36.42-2.76,9.13-12.7,19.04-29.8,29.73Z"/>
          <g class="cls-30">
            <rect class="cls-21" x="420.6" y="20.27" width="20.03" height="28.56"/>
          </g>
          <path class="cls-17" d="M420.8,30.42l8.18-10.02c3.36,4.35,5.66,7.68,6.93,10.02,1.26,2.33,2.62,5.77,4.08,10.31l-11,7.4c-.88-3.84-1.95-7.06-3.2-9.67-1.25-2.61-2.91-5.29-4.98-8.05Z"/>
          <g>
            <path class="cls-19" d="M417.46,10.65l-5.82,9.76c2.38,2.3,4.13,4.07,5.27,5.31,1.14,1.24,2.43,2.81,3.88,4.71l8.18-10.02c-2.44-2.68-4.31-4.58-5.62-5.69-1.31-1.11-3.27-2.46-5.89-4.07Z"/>
            <g class="cls-26">
              <rect class="cls-42" x="410.73" y="9.57" width="19.17" height="21.92"/>
            </g>
          </g>
          <g class="cls-27">
            <rect class="cls-43" x="1.14" y=".68" width="137.53" height="69.47"/>
          </g>
          <path class="cls-9" d="M2.15,67.69v1.35l11.32-4.95c1.52-15.31,5.68-26.24,12.48-32.77,6.8-6.53,18.09-11.25,33.89-14.16h77.82l-10.13-2.47-3.77-12.9,1.92,12.9h-57.46l-7.54-12.9v12.9c-16.49,2.03-28.63,7.26-36.42,15.69-7.79,8.43-11.68,19.17-11.68,32.21l-10.44,5.1Z"/>
          <path id="Path" class="cls-16" d="M40.38,30.17c-2.27-.75-3.85-1.01-4.74-.79-.88.23-1.32,1.01-1.32,2.35.15,3.19.65,5.29,1.51,6.3s2.74,1.72,5.65,2.15c3.05.95,5.08,1.36,6.11,1.23,1.03-.13,1.93-.9,2.71-2.32-.64-2.56-1.54-4.36-2.7-5.4-1.16-1.04-3.57-2.21-7.23-3.51Z"/>
          <path id="Path-2" data-name="Path" class="cls-16" d="M34.57,54.98c-.27-1.62-.73-2.6-1.37-2.95-.64-.35-1.65-.18-3.02.53-3.22,1.77-5.15,3.15-5.79,4.13-.64.99-.51,2.38.39,4.16.42,2.13.94,3.44,1.54,3.92.6.48,1.81.56,3.63.23,2.34-1.7,3.78-3.13,4.32-4.3s.64-3.08.3-5.73Z"/>
          <path id="Path-3" data-name="Path" class="cls-16" d="M41.02,54.58c-1.15-.43-2-.25-2.55.53-.55.78-.96,2.38-1.23,4.8-.57,5.73-.71,9.33-.43,10.8.28,1.47,1.21,1.99,2.8,1.56,1.55.46,2.63.36,3.25-.29.61-.65,1.29-2.43,2.03-5.32.16-4.38.01-7.27-.44-8.68-.45-1.41-1.59-2.54-3.42-3.39Z"/>
          <path class="cls-14" d="M377.86,121.32c.3,1.09,1.75,4.84,1.77,5.12.07,1.17-1.43.83-1.08,1.73.21.52,5.02,2.02,5.86,1.66.28.28-.04.94-.03,1.11.02.26.08.62.06.86.61.23,1.16.56,1.82.59-.93-3.03,1.29-4.85,2.51-6.92.3-.5.35-.34.16-1.09-4.55,2.92-7.69,2.14-10.08-3.78l-3.36-7.46-11.79-6.41,9.81,7.47,4.35,7.12Z"/>
          <path class="cls-14" d="M51.05,113.91c-.39.39-1.84,7.38-2.16,8.54-.43,1.56-2.5,4.94-1.78,6.63-3.13.82-7.33,2.15-10.48,2.19-.39,0-1.41-.48-1.49-.48l.11-.23c1.86-1.3,3.38-4.69,4.96-6.14,1.33-1.22,3.09-.81,4.13-1.61,1.09-.84,5.7-8.34,6.18-9.91,4.32.4,8.6-1.56,12.84-5.06-3.76,4.5-7.9,6.28-12.32,6.07Z"/>
        </g>
      </g>
      <path class="cls-10" d="M41.4,1.78C15.16,15.67,2.03,39.26,2.03,72.55s13.12,56.88,39.37,70.76h244.49l6.28-4.2,23.43,4.2h86.51c29.14-11.6,43.7-34.75,43.7-69.46s-14.57-58.73-43.7-72.07h-58.53l-10.52,2.61-5.12-2.61h-188.79l-3.81,4.67-10.9-4.67H41.4Z"/>
    </g>
  </g>
</svg>