<?xml version="1.0" encoding="UTF-8"?>
<svg id="Layer_2" data-name="Layer 2" xmlns="http://www.w3.org/2000/svg" xmlns:xlink="http://www.w3.org/1999/xlink" viewBox="0 0 298.57 395">
  <defs>
    <style>
      .cls-1 {
        fill: #891210;
      }

      .cls-2 {
        fill: #b5ab95;
      }

      .cls-2, .cls-3, .cls-4, .cls-5, .cls-6, .cls-7, .cls-8, .cls-9, .cls-10, .cls-11, .cls-12, .cls-13 {
        stroke-miterlimit: 10;
      }

      .cls-2, .cls-5, .cls-12 {
        stroke: #b7b3ab;
        stroke-width: 1.34px;
      }

      .cls-3, .cls-4, .cls-6, .cls-7, .cls-12 {
        fill: none;
      }

      .cls-3, .cls-6, .cls-7, .cls-9, .cls-10, .cls-11, .cls-13 {
        stroke: #e5d4c1;
      }

      .cls-3, .cls-9 {
        stroke-width: 1.84px;
      }

      .cls-4, .cls-8 {
        stroke: #c6c6c6;
        stroke-width: 2.04px;
      }

      .cls-14 {
        fill: #8e663f;
      }

      .cls-5, .cls-15 {
        fill: #cdc5b0;
      }

      .cls-6, .cls-11 {
        stroke-width: 1.67px;
      }

      .cls-7, .cls-10 {
        stroke-width: 1.75px;
      }

      .cls-16 {
        fill: #ddd;
      }

      .cls-17 {
        clip-path: url(#clippath-1);
      }

      .cls-18 {
        clip-path: url(#clippath-3);
      }

      .cls-19 {
        clip-path: url(#clippath-4);
      }

      .cls-20 {
        clip-path: url(#clippath-2);
      }

      .cls-21 {
        clip-path: url(#clippath-6);
      }

      .cls-8, .cls-22 {
        fill: #f9f9f9;
      }

      .cls-23, .cls-24 {
        opacity: .2;
      }

      .cls-23, .cls-25 {
        fill: #7f5c36;
      }

      .cls-26, .cls-9, .cls-10, .cls-11, .cls-13 {
        fill: #f9ecdc;
      }

      .cls-27 {
        fill: #191918;
      }

      .cls-28 {
        opacity: .1;
      }

      .cls-28, .cls-24 {
        fill: #20164c;
      }

      .cls-29 {
        fill: #0c0812;
      }

      .cls-30 {
        fill: #b33c33;
      }

      .cls-13 {
        stroke-width: 2.01px;
      }

      .cls-31 {
        clip-path: url(#clippath);
      }
    </style>
    <clipPath id="clippath">
      <path class="cls-9" d="M196.51,276.18l-58.04-27.02c-20.01,38.45,11.62,78.5,10.18,108.98-9.67-1.94-17.17,12.09-36.15,2.63-1.91-.95-2.46,1.41-3.5,3.42-2.29,4.41-2.43,9.67.15,13.71,13.15,20.61,77.86,20.74,103.57,4.92,3.31-5.61-12.09-11.11-6.71-27.61,8.62-27.09-7.32-53.45-9.5-79.02Z"/>
    </clipPath>
    <clipPath id="clippath-1">
      <path class="cls-10" d="M94.31,176.04c-53.58,124.22-26.93,168.49,73.52,177.85,75.47-.52,147.41-49.17,56.01-191.04l-129.53,13.19Z"/>
    </clipPath>
    <clipPath id="clippath-2">
      <path class="cls-5" d="M57.47,243.74c61.26,42.63,179.43,34.87,233.58,10.72l-1.33,26.02c-15.19,32.62-21.82,57.04-45.15,77.61-33.38-69.09-138.25-57.17-149-16.04-33.26-21.74-31.36-40.25-41.84-76.88l3.74-21.42Z"/>
    </clipPath>
    <clipPath id="clippath-3">
      <path class="cls-11" d="M260.26,83.02c2.81,45.22-23.32,86.23-59.86,121.57-19.73,20.12-66.32,28.27-110-7.23-27.45-40.41-33.44-69.6-29.18-110.18C62.73,27.63,99.58-.84,177.12.91c8.9,1.35,29.52,3.11,38.63,8.82,8.51,5.33,20.32,19.52,26.9,27.98,9.28,11.94,16.84,31.69,17.61,45.3Z"/>
    </clipPath>
    <clipPath id="clippath-4">
      <circle class="cls-8" cx="124.36" cy="133.37" r="30.56"/>
    </clipPath>
    <clipPath id="clippath-6">
      <circle class="cls-8" cx="33.5" cy="131.41" r="32.48"/>
    </clipPath>
  </defs>
  <g id="mini-mini">
    <g>
      <g>
        <path class="cls-26" d="M196.51,276.18l-58.04-27.02c-20.01,38.45,11.62,78.5,10.18,108.98-9.67-1.94-17.17,12.09-36.15,2.63-1.91-.95-2.46,1.41-3.5,3.42-2.29,4.41-2.43,9.67.15,13.71,13.15,20.61,77.86,20.74,103.57,4.92,3.31-5.61-12.09-11.11-6.71-27.61,8.62-27.09-7.32-53.45-9.5-79.02Z"/>
        <g class="cls-31">
          <path class="cls-28" d="M118.44,339.95c35.22,29.13,90.19,25.84,114.56,13.76l-16.06-39.78c-14.49,10.31-71.39,2.43-115.29-2.98l16.8,29Z"/>
        </g>
        <path class="cls-3" d="M196.51,276.18l-58.04-27.02c-20.01,38.45,11.62,78.5,10.18,108.98-9.67-1.94-17.17,12.09-36.15,2.63-1.91-.95-2.46,1.41-3.5,3.42-2.29,4.41-2.43,9.67.15,13.71,13.15,20.61,77.86,20.74,103.57,4.92,3.31-5.61-12.09-11.11-6.71-27.61,8.62-27.09-7.32-53.45-9.5-79.02Z"/>
      </g>
      <g>
        <path class="cls-26" d="M94.31,176.04c-53.58,124.22-26.93,168.49,73.52,177.85,75.47-.52,147.41-49.17,56.01-191.04l-129.53,13.19Z"/>
        <g class="cls-17">
          <path class="cls-28" d="M95.58,343.29c30.81-34.2,89.67-42.81,142.2,4.4l4.4-24.82c-51.24-31.81-99.55-34.84-144.39-3.94l-2.2,24.36Z"/>
          <g>
            <path class="cls-15" d="M57.47,243.74c61.26,42.63,179.43,34.87,233.58,10.72l-1.33,26.02c-15.19,32.62-21.82,57.04-45.15,77.61-33.38-69.09-138.25-57.17-149-16.04-33.26-21.74-31.36-40.25-41.84-76.88l3.74-21.42Z"/>
            <g class="cls-20">
              <path class="cls-2" d="M296.64,270.96c-84.96,29.33-169.21,24.68-252.88-14.07l1.2-21.57c85.65,37.32,170.08,45.05,252.88,14.07l-1.2,21.57Z"/>
            </g>
            <path class="cls-12" d="M57.47,243.74c61.26,42.63,179.43,34.87,233.58,10.72l-1.33,26.02c-15.19,32.62-21.82,57.04-45.15,77.61-33.38-69.09-138.25-57.17-149-16.04-33.26-21.74-31.36-40.25-41.84-76.88l3.74-21.42Z"/>
          </g>
        </g>
        <path class="cls-7" d="M94.31,176.04c-53.58,124.22-26.93,168.49,73.52,177.85,75.47-.52,147.41-49.17,56.01-191.04l-129.53,13.19Z"/>
      </g>
      <g>
        <path class="cls-26" d="M260.26,83.02c2.81,45.22-23.32,86.23-59.86,121.57-19.73,20.12-66.32,28.27-110-7.23-27.45-40.41-33.44-69.6-29.18-110.18C62.73,27.63,99.58-.84,177.12.91c8.9,1.35,29.52,3.11,38.63,8.82,8.51,5.33,20.32,19.52,26.9,27.98,9.28,11.94,16.84,31.69,17.61,45.3Z"/>
        <g class="cls-18">
          <path class="cls-28" d="M255.44,44.78c1.47,71.68-45.67,145.99-86.54,158.61-36.01,11.12-83.66-5.64-142.26-37.16l90.67,68.66c117.02,17.33,166.97-77.64,138.13-190.11Z"/>
          <path class="cls-28" d="M172.87,135.09c23.47,3.3,29.28-8.5,43.8-25.23-3.15,25.44-20.24,47.88-43.8,68.92v-43.69Z"/>
          <circle class="cls-24" cx="124.12" cy="137.3" r="31.79"/>
          <g>
            <circle class="cls-22" cx="124.36" cy="133.37" r="30.56"/>
            <g class="cls-19">
              <ellipse class="cls-16" cx="121.94" cy="158.6" rx="25.74" ry="14.25"/>
              <circle class="cls-27" cx="108.31" cy="130.18" r="9.3"/>
            </g>
            <circle class="cls-4" cx="124.36" cy="133.37" r="30.56"/>
          </g>
          <g>
            <path class="cls-24" d="M96.67,83.09c-6.72,18.34,18.02,26.27,41.21,10l-41.21-10Z"/>
            <path class="cls-29" d="M95.98,87.43c1.59-19.38,16.72-17.19,45.39,6.59,1.58,1.31.36,3.49-1.95,3.48-10.97-.05-24.77-4.36-38-5.2-3.2-.2-5.65-2.33-5.44-4.87Z"/>
          </g>
          <path class="cls-24" d="M132.48,175.26c16.56-.95,26.38-9.62,28.28-27.33-5.57,15.22-15.35,23.77-28.28,27.33Z"/>
          <path class="cls-1" d="M80.07,188.81c-3.66,26.85,38.9,42.23,41.88-9.8-5.81,20.35-34.7,23.59-41.88,9.8Z"/>
          <path class="cls-25" d="M123.25,170.52c-.8,5.46.68,11.25,1.03,16.8.43,7.5,1.47,13.12,6.65,16.8-2.36-1.21-4.6-3.03-6.29-5.57-5.24-7.8-3.78-19.11-1.4-28.04h0Z"/>
          <g>
            <circle class="cls-22" cx="33.5" cy="131.41" r="32.48"/>
            <g class="cls-21">
              <ellipse class="cls-16" cx="43.11" cy="156.76" rx="33.51" ry="17.17" transform="translate(-51.58 24.6) rotate(-20.25)"/>
              <circle class="cls-27" cx="46.34" cy="122.15" r="10.81"/>
            </g>
            <circle class="cls-4" cx="33.5" cy="131.41" r="32.48"/>
          </g>
          <g>
            <path class="cls-24" d="M67.2,84.52c6.72,18.34-18.02,26.27-41.21,10l41.21-10Z"/>
            <path class="cls-29" d="M67.9,88.85c-1.59-19.38-16.72-17.19-45.39,6.59-1.58,1.31-.36,3.49,1.95,3.48,10.97-.05,24.77-4.36,38-5.2,3.2-.2,5.65-2.33,5.44-4.87Z"/>
          </g>
          <path class="cls-13" d="M178.43,119.61c9.93-17.82,26.09-38.36,43.71-48.15,1.85-1.03,3.93.81,2.95,2.68-4.63,8.81-5.15,17.42-6.17,26.56-2.86,25.65-23.87,50.21-46.95,38.57"/>
        </g>
        <path class="cls-6" d="M260.26,83.02c2.81,45.22-23.32,86.23-59.86,121.57-19.73,20.12-66.32,28.27-110-7.23-27.45-40.41-33.44-69.6-29.18-110.18C62.73,27.63,99.58-.84,177.12.91c8.9,1.35,29.52,3.11,38.63,8.82,8.51,5.33,20.32,19.52,26.9,27.98,9.28,11.94,16.84,31.69,17.61,45.3Z"/>
      </g>
      <path class="cls-30" d="M105.64,203.21c7.97,6.69,6.64,15.78,11.17,21.6,1.25,1.6,3.66,1.69,4.96.13,7.7-9.25,7.66-18.6-3.88-31.91-4.79-.51-8.13,3.19-12.38,7.7-.67.71-.62,1.85.13,2.48Z"/>
      <path class="cls-14" d="M69.16,102.81c1.83,3.02,3.4,6.25,4.54,9.62,1.38,5.8,1.63,11.93.48,17.82-1.76,9.39-6.93,17.58-11.55,25.68,0,0-.02-1.27-.02-1.27,4.26,7.18,10.7,14.17,19.59,9.57-9.39,8.58-17.22-.67-22.1-8.89,12.39-20.97,15.33-28.37,9.08-52.53h0Z"/>
      <path class="cls-23" d="M81.61,160.33c-3.28-4.41-10.42-9.36-16.43-11.38l-3.65,6.36c1.45,4.32,5.35,8.7,10.2,10.58,6.24,2.42,13.76-1.46,9.88-5.57Z"/>
      <path class="cls-28" d="M190.7,230.54c-21.48,15.63-30.88,34.27-24.56,56.82-16.17-6.09-32.17,31.38-14.79,41.33,19.35,6.68,45.13-32.1,28.77-39.93-8.39-21.37,1.73-37.7,22.38-47.34"/>
      <path class="cls-10" d="M194.04,226.07c-22.77,13.68-33.76,31.42-29.45,54.45-15.58-7.49-34.8,28.43-18.36,39.87,18.69,8.36,47.77-28.02,32.17-37.25-6.48-22.03,5.03-37.4,26.45-45.19"/>
    </g>
  </g>
</svg>