<?xml version="1.0" encoding="UTF-8"?>
<svg id="Layer_2" data-name="Layer 2" xmlns="http://www.w3.org/2000/svg" xmlns:xlink="http://www.w3.org/1999/xlink" viewBox="0 0 315.22 440.55">
  <defs>
    <style>
      .cls-1, .cls-2, .cls-3, .cls-4, .cls-5, .cls-6, .cls-7, .cls-8, .cls-9, .cls-10, .cls-11, .cls-12, .cls-13, .cls-14, .cls-15, .cls-16, .cls-17, .cls-18, .cls-19, .cls-20, .cls-21, .cls-22, .cls-23 {
        stroke-miterlimit: 10;
      }

      .cls-1, .cls-5, .cls-9, .cls-10, .cls-11, .cls-12, .cls-13, .cls-14, .cls-15, .cls-20, .cls-22 {
        fill: none;
      }

      .cls-1, .cls-23 {
        stroke: #a3697b;
        stroke-width: 1.89px;
      }

      .cls-2, .cls-22 {
        stroke: #c1859b;
        stroke-width: 2.11px;
      }

      .cls-2, .cls-23, .cls-24 {
        fill: #d48ca0;
      }

      .cls-3, .cls-4, .cls-25 {
        fill: #f9f9f9;
      }

      .cls-3, .cls-4, .cls-20 {
        stroke: #c6c6c6;
      }

      .cls-3, .cls-5, .cls-16 {
        stroke-width: 1.83px;
      }

      .cls-4, .cls-20 {
        stroke-width: 1.97px;
      }

      .cls-26, .cls-17, .cls-18, .cls-19 {
        fill: #fffdf5;
      }

      .cls-5, .cls-6, .cls-7, .cls-8, .cls-9, .cls-10, .cls-11, .cls-16 {
        stroke: #33271d;
      }

      .cls-27 {
        fill: #1c140e;
      }

      .cls-28 {
        fill: #ede8d6;
      }

      .cls-6, .cls-7, .cls-8, .cls-16, .cls-29, .cls-21 {
        fill: #3e3023;
      }

      .cls-6, .cls-9 {
        stroke-width: 1.81px;
      }

      .cls-7, .cls-11 {
        stroke-width: 1.67px;
      }

      .cls-8, .cls-10 {
        stroke-width: 1.66px;
      }

      .cls-30 {
        fill: #a3697b;
      }

      .cls-12 {
        stroke-width: 1.73px;
      }

      .cls-12, .cls-13, .cls-14, .cls-15, .cls-17, .cls-18, .cls-19 {
        stroke: #ede8d6;
      }

      .cls-13 {
        stroke-width: 1.71px;
      }

      .cls-31 {
        fill: #352a21;
      }

      .cls-14, .cls-18 {
        stroke-width: 1.1px;
      }

      .cls-15, .cls-17 {
        stroke-width: 1.12px;
      }

      .cls-32 {
        clip-path: url(#clippath-17);
      }

      .cls-33 {
        clip-path: url(#clippath-11);
      }

      .cls-34 {
        clip-path: url(#clippath-16);
      }

      .cls-35 {
        clip-path: url(#clippath-10);
      }

      .cls-36 {
        clip-path: url(#clippath-15);
      }

      .cls-37 {
        clip-path: url(#clippath-13);
      }

      .cls-38 {
        clip-path: url(#clippath-14);
      }

      .cls-39 {
        clip-path: url(#clippath-12);
      }

      .cls-40 {
        fill: #281e16;
      }

      .cls-41 {
        clip-path: url(#clippath-1);
      }

      .cls-42 {
        clip-path: url(#clippath-3);
      }

      .cls-43 {
        clip-path: url(#clippath-4);
      }

      .cls-44 {
        clip-path: url(#clippath-2);
      }

      .cls-45 {
        clip-path: url(#clippath-7);
      }

      .cls-46 {
        clip-path: url(#clippath-6);
      }

      .cls-47 {
        clip-path: url(#clippath-9);
      }

      .cls-48 {
        clip-path: url(#clippath-8);
      }

      .cls-49 {
        clip-path: url(#clippath-5);
      }

      .cls-50 {
        fill: #4c392a;
      }

      .cls-51 {
        fill: #191918;
      }

      .cls-52 {
        opacity: .2;
      }

      .cls-52, .cls-53 {
        fill: #20164c;
      }

      .cls-53 {
        opacity: .3;
      }

      .cls-19 {
        stroke-width: 1.41px;
      }

      .cls-54 {
        fill: #f3eeff;
        opacity: .15;
      }

      .cls-55 {
        fill: #0c0812;
      }

      .cls-56 {
        fill: #b33c33;
      }

      .cls-21 {
        stroke: #2d221a;
        stroke-width: 1.75px;
      }

      .cls-57 {
        fill: #e5ddc3;
      }

      .cls-58 {
        clip-path: url(#clippath);
      }
    </style>
    <clipPath id="clippath">
      <path class="cls-2" d="M82.68,380.04c-3.94,17.35-34.85,20.55-37.73,27.37,4.37,1.81,9.05,2.6,14.27,1.52-5.52,2.9-10.96,6.21-12.18,9.97,7.01.03,14.97-2.52,22.33-4.49-5.05,4.02-8.09,7.25-9.7,12.28,9.55-1.83,18.19-3.14,26.58-6.8-3.6,5.67-6.74,11.01-8.02,15.03-.24.76.47,1.5,1.33,1.37,7.83-1.15,13.61-4.92,19.68-9.84,12.37-13.15,23.91-24.54,31.32-27.12l4.88-19.3c-19.04-6.58-36.47-5.9-52.75,0Z"/>
    </clipPath>
    <clipPath id="clippath-1">
      <path class="cls-2" d="M237.1,377.17c3.94,17.35,34.85,20.55,37.73,27.37-4.37,1.81-9.05,2.6-14.27,1.52,5.52,2.9,10.96,6.21,12.18,9.97-7.01.03-14.97-2.52-22.33-4.49,5.05,4.02,8.09,7.25,9.7,12.28-9.55-1.83-18.19-3.14-26.58-6.8,3.6,5.67,6.74,11.01,8.02,15.03.24.76-.47,1.5-1.33,1.37-7.83-1.15-13.61-4.92-19.68-9.84-12.37-13.15-23.91-24.54-31.32-27.12l-4.88-19.3c19.04-6.58,36.47-5.9,52.75,0Z"/>
    </clipPath>
    <clipPath id="clippath-2">
      <path class="cls-16" d="M32.09,147.4c-12.06,45.06-6.87,93.4.94,127.68.58,2.55,4.8-21.46,5.65-18.98,6.39,18.62,8.25,33.48,12.42,42.32,6.29-18.87,14.15-11.27,21.39,2.71l176.78-10.45c7.86-4.3,16.2-77.71,18.45-64.55,1.62,9.49-.81,33.66-1.1,34.04,1.2-.53,32.28-20.54,6.54-75.34,5.47,7.54,15.64,29.24,20.97,34.56-6.43-42.17,9.75-113.3-36.76-170C229.22,6.9,150.87-8.41,111.2,6.91c8.52.97,16.5,2.03,20.16,3.8-14.47-.5-28.99,2.93-43.55,10.86C50.72,26.06,16.31,64.65,10.94,110.71c2.95-3.77,6.4-12.67,10.77-15.28-7.33,23.65-6.2,48.76-.5,66.78,3.72-5.17,8.1-14.35,10.88-14.81Z"/>
    </clipPath>
    <clipPath id="clippath-3">
      <path class="cls-6" d="M111.79,241.64l-.71,12.93c-29.43,7.15-34.67,13.02-49.56,24.1,8.53,15.16,9.03,18.73,9.52,28.25-1.11,33.86-29.69,22.28-11.27,54.3,4.87,5.56-4.05,7.45-.17,13.61,3.2,5.55,6.83,10.15,11.17,13.13,10.87-3.33,21.79.28,28.66-2.99,1.49,7.15,5.63,14.16,12.35,21.02,4.21.25,9.27-.58,14.99-2.25,2.19,2.42,4.61,4.26,7.35,5.24,17.24-1.16,30.25-5.04,35.35-14.04l5.19.62c64.49,20.59,40.2-16.3,65.09-15.55,13.91,2.34,30.56-27.69,23.91-38.17-1.35-19.68-16.7-25.97-16.62-36.97l8.84-41.26-43.7-8.55c-8.51-3.45-11.44-8.91-8.49-16.47l-91.92,3.04Z"/>
    </clipPath>
    <clipPath id="clippath-4">
      <path class="cls-17" d="M181.65,309.52c-1-5.51-6.99-6.23-12.05-8.12-1.15-.43.02-2.23,1.25-2.33,11.25-.86,22.12-1.79,31.65-1.65-5.5,5.21-12.54,9.17-20.85,12.1Z"/>
    </clipPath>
    <clipPath id="clippath-5">
      <path class="cls-7" d="M187.95,233.68c.93,5.98,2.75,9.14,7.94,9.1,20.88-4.31,39.48,3.68,61.33,13.57,3.11,1.41,5.17,4.46,5.12,7.82-.36,21.97-41.83,45.27-50.58,68.72-6.32,9.8-2.87,23.72-9.66,37.56,2.58-22.19-5.78-29.81,3.26-46.02-6.95,5.44-9.16,16.86-15.71,23.93.42-12.67,6.78-26.25,14.88-40.85-6,6.73-12.68,12.09-20.15,15.83.22,5.28-2.57,12.29-5.3,19.27,0-8.5-.74-18.5-1.32-25.36-.36-4.3,1.5-8.52,4.99-11.17,19.71-14.99,26.23-8.72,33.74-14.95,13.16-10.45,18.68-24.09,29.05-27.24-32.06,9.72-55.88.5-57.58-30.21Z"/>
    </clipPath>
    <clipPath id="clippath-6">
      <path class="cls-17" d="M189.41,297.11c-8.49,10.58-2.77,16.77,2.83,24.84l-13.97,29.79-3.51-32.5,4.13-19.39,10.52-2.74Z"/>
    </clipPath>
    <clipPath id="clippath-7">
      <path class="cls-17" d="M194.09,320.23c1.54,7.32,2.71,14.04,5.98,14.43-1.58,6.72-7.8,17.57-14.1,25.57-.8-12.85,2.64-27.35,8.12-40Z"/>
    </clipPath>
    <clipPath id="clippath-8">
      <path class="cls-17" d="M199.81,335.64c3.73,3.09,8.01,4.01,12.99,2.13,8.19,14.43-.36,28.51-12.36,42.52-3.11-17.33-5.04-33.67-.63-44.65Z"/>
    </clipPath>
    <clipPath id="clippath-9">
      <path class="cls-18" d="M104.62,289.07c9.18,3.87,18.03,7.89,24.64,12.98,11.51-2.5,12.94-16.52,26-13.91.34.07.58-.34.33-.58-7.97-7.67-23.84,3.09-50.96,1.5Z"/>
    </clipPath>
    <clipPath id="clippath-10">
      <path class="cls-8" d="M125.12,235.83c-6.3,15.04-25.71,3.54-35.29,6.69-7.54,4.53-16.06,4.95-20.24,11.39-20.6,9.6-26.02,20.95-14.02,30.31,25.22,23.72,58.56,42.04,62.23,91.01,4.56-13.52-.08-25.61,2.17-36,1.24-5.73-.63-11.3-2.95-18.28,8.58,8,14.43,18.7,16.79,32.83,2.06-11.26.83-23.35-8.66-41,5.57,4.14,9.1,9.4,13.39,15.06,2.09,6.65,5.62,11.81,7.56,16.22,1.25-9.92-5.34-23.4-14.23-40.06-1.01-1.9-2.45-3.58-4.23-4.86-12.46-8.96-26.75-13.81-41.9-16.74-7.15-3.33-11.39-8.23-14.05-13.99,27.57,5.04,59.46,1.56,53.43-32.58Z"/>
    </clipPath>
    <clipPath id="clippath-11">
      <path class="cls-18" d="M134.17,302.74c.7,10.02-1.94,14.15-4.17,16.38l16.53,35.11,4-22-16.36-29.48Z"/>
    </clipPath>
    <clipPath id="clippath-12">
      <path class="cls-18" d="M130.73,320.68c-2.16,3.17-4.86,6.13-8.24,8.81l12.06,39c4.14-17.25,5.39-33.81-3.83-47.81Z"/>
    </clipPath>
    <clipPath id="clippath-13">
      <path class="cls-18" d="M102.09,334.74c7.48.54,14.16-.8,19.6-5.04,2.47,3.86,2.69,9.74,1.54,16.85,4.19,10.17-2.23,23.93-7.08,37.15-2.5-16.87-6.44-33.38-14.07-48.96Z"/>
    </clipPath>
    <clipPath id="clippath-14">
      <path class="cls-23" d="M151.49,54.84c-19.87-18.33-23.13-13.47-15.96-3.52-19.59-2.56-32.04-1-40.64,2.79-.84.37-.84,1.58,0,1.94,3.34,1.43,5.82,2.17,6.64,3.73-11.65.19-21.17,4.21-28.66,11.89-2.6,2.66-4.35,6.06-5.02,9.75-3.18,17.54-12.38,40.31-12.08,59.04-.42,29.62,2.89,55.76,25.06,75.09l22.71,21.1c36.56,24.27,69.98,19.56,108.28-5.79,5.09-4.95,24.34-24.98,31.26-36.52,10.23-23.8,18.17-51.6,18.51-83.07-1.36-14.03-18.78-27.57-23.74-45.28-1.01-7.37-14.88-3.79-22.61-1.22-.16-3.1,1.07-6.08,3.31-8.99,1.47-1.91.69-4.72-1.51-5.66-16.06-6.9-31.11-5.7-41.91,4.06-.07-4.67,3.43-8.68,4.02-12.95.18-1.3-1-2.37-2.25-2.03-7.56,2.04-16.46,8.77-25.44,15.63Z"/>
    </clipPath>
    <clipPath id="clippath-15">
      <ellipse class="cls-4" cx="215.73" cy="152.96" rx="37.6" ry="39.98"/>
    </clipPath>
    <clipPath id="clippath-16">
      <ellipse class="cls-4" cx="102.48" cy="155.71" rx="39.98" ry="36.61" transform="translate(-83.16 172.61) rotate(-61.85)"/>
    </clipPath>
    <clipPath id="clippath-17">
      <path class="cls-56" d="M116.6,208.71c29.43,4.6,59.79,3.71,91.67-6.05,2.29,11.39,2.87,21.99,1.4,31.64-21.95,9.65-75.78,12.97-93.03,4.01-3.38-9.55,1.05-17.37-.03-29.6Z"/>
    </clipPath>
  </defs>
  <g id="mini-mini">
    <g>
      <g>
        <path class="cls-24" d="M82.68,380.04c-3.94,17.35-34.85,20.55-37.73,27.37,4.37,1.81,9.05,2.6,14.27,1.52-5.52,2.9-10.96,6.21-12.18,9.97,7.01.03,14.97-2.52,22.33-4.49-5.05,4.02-8.09,7.25-9.7,12.28,9.55-1.83,18.19-3.14,26.58-6.8-3.6,5.67-6.74,11.01-8.02,15.03-.24.76.47,1.5,1.33,1.37,7.83-1.15,13.61-4.92,19.68-9.84,12.37-13.15,23.91-24.54,31.32-27.12l4.88-19.3c-19.04-6.58-36.47-5.9-52.75,0Z"/>
        <g class="cls-58">
          <path class="cls-52" d="M52.96,394.77c42.17-6.22,65.57,11.47,60.03,31.51l52.46-43.33-75.27-25.35-37.23,37.16Z"/>
          <path class="cls-19" d="M81.84,423.03c5.37,4.09,11.74,3.64,22.52.74-7.42,11.67-16.5,16.49-29.75,16.04-.05-6.96,1.38-13.11,7.23-16.78Z"/>
          <path class="cls-19" d="M63.09,418.06c10.08-1.14,16.28.55,18.75,4.97l-26.84,8.91c-.22-5.56,2.08-10.32,8.09-13.87Z"/>
          <path class="cls-19" d="M56.05,409.91c1.12,3.66,3.61,6.27,7.04,8.16l-19.36,3.73c.24-6.4,4.11-10.51,12.32-11.88Z"/>
          <path class="cls-19" d="M57.18,397.38c-3.72,4.35-3.18,7.89-1.13,12.52l-15.42-.51c1.2-6.42,7.59-9.93,16.54-12.01Z"/>
        </g>
        <path class="cls-22" d="M82.68,380.04c-3.94,17.35-34.85,20.55-37.73,27.37,4.37,1.81,9.05,2.6,14.27,1.52-5.52,2.9-10.96,6.21-12.18,9.97,7.01.03,14.97-2.52,22.33-4.49-5.05,4.02-8.09,7.25-9.7,12.28,9.55-1.83,18.19-3.14,26.58-6.8-3.6,5.67-6.74,11.01-8.02,15.03-.24.76.47,1.5,1.33,1.37,7.83-1.15,13.61-4.92,19.68-9.84,12.37-13.15,23.91-24.54,31.32-27.12l4.88-19.3c-19.04-6.58-36.47-5.9-52.75,0Z"/>
      </g>
      <g>
        <path class="cls-24" d="M237.1,377.17c3.94,17.35,34.85,20.55,37.73,27.37-4.37,1.81-9.05,2.6-14.27,1.52,5.52,2.9,10.96,6.21,12.18,9.97-7.01.03-14.97-2.52-22.33-4.49,5.05,4.02,8.09,7.25,9.7,12.28-9.55-1.83-18.19-3.14-26.58-6.8,3.6,5.67,6.74,11.01,8.02,15.03.24.76-.47,1.5-1.33,1.37-7.83-1.15-13.61-4.92-19.68-9.84-12.37-13.15-23.91-24.54-31.32-27.12l-4.88-19.3c19.04-6.58,36.47-5.9,52.75,0Z"/>
        <g class="cls-41">
          <path class="cls-52" d="M266.82,391.89c-42.17-6.22-65.57,11.47-60.03,31.51l-52.46-43.33,75.27-25.35,37.23,37.16Z"/>
          <path class="cls-19" d="M237.95,420.15c-5.37,4.09-11.74,3.64-22.52.74,7.42,11.67,16.5,16.49,29.75,16.04.05-6.96-1.38-13.11-7.23-16.78Z"/>
          <path class="cls-19" d="M256.69,415.19c-10.08-1.14-16.28.55-18.75,4.97l26.84,8.91c.22-5.56-2.08-10.32-8.09-13.87Z"/>
          <path class="cls-19" d="M263.73,407.03c-1.12,3.66-3.61,6.27-7.04,8.16l19.36,3.73c-.24-6.4-4.11-10.51-12.32-11.88Z"/>
          <path class="cls-19" d="M262.61,394.51c3.72,4.35,3.18,7.89,1.13,12.52l15.42-.51c-1.2-6.42-7.59-9.93-16.54-12.01Z"/>
        </g>
        <path class="cls-22" d="M237.1,377.17c3.94,17.35,34.85,20.55,37.73,27.37-4.37,1.81-9.05,2.6-14.27,1.52,5.52,2.9,10.96,6.21,12.18,9.97-7.01.03-14.97-2.52-22.33-4.49,5.05,4.02,8.09,7.25,9.7,12.28-9.55-1.83-18.19-3.14-26.58-6.8,3.6,5.67,6.74,11.01,8.02,15.03.24.76-.47,1.5-1.33,1.37-7.83-1.15-13.61-4.92-19.68-9.84-12.37-13.15-23.91-24.54-31.32-27.12l-4.88-19.3c19.04-6.58,36.47-5.9,52.75,0Z"/>
      </g>
      <g>
        <path class="cls-29" d="M32.09,147.4c-12.06,45.06-6.87,93.4.94,127.68.58,2.55,4.8-21.46,5.65-18.98,6.39,18.62,8.25,33.48,12.42,42.32,6.29-18.87,14.15-11.27,21.39,2.71l176.78-10.45c7.86-4.3,16.2-77.71,18.45-64.55,1.62,9.49-.81,33.66-1.1,34.04,1.2-.53,32.28-20.54,6.54-75.34,5.47,7.54,15.64,29.24,20.97,34.56-6.43-42.17,9.75-113.3-36.76-170C229.22,6.9,150.87-8.41,111.2,6.91c8.52.97,16.5,2.03,20.16,3.8-14.47-.5-28.99,2.93-43.55,10.86C50.72,26.06,16.31,64.65,10.94,110.71c2.95-3.77,6.4-12.67,10.77-15.28-7.33,23.65-6.2,48.76-.5,66.78,3.72-5.17,8.1-14.35,10.88-14.81Z"/>
        <g class="cls-44">
          <path class="cls-40" d="M9.98,204.82c4.79-24.65,16.58-37.21,23.21-58.1-6.98,49.21,4.88,92.44,9.66,147.11-3.55-12.68-10.38,1.58-16.83-10.72-11.16-21.28-21.37-68.54-12.76-87.03"/>
          <path class="cls-31" d="M56.32,296.35c15.83-45.7,56.96-66.68,107.69-58.73l29.13.28c41.93-2.48,107.49,24.01,91.14,48.06,3.45,17.8,11.65,8.81-1.81,14.31H56.23l.09-3.93Z"/>
          <path class="cls-54" d="M13.84,116.02C26.05,75.3,51.47,44.41,92.53,17.48l-57.91,11.49L.19,99.17c-1.33,23.73,4.49,25.44,13.65,16.85Z"/>
          <path class="cls-54" d="M274.06,186.41c.5,62.25-5.05,80.79-26.27,104.55l43.13-34.15c5.72-26.26,1.93-37.91-16.85-70.41Z"/>
          <path class="cls-54" d="M214.43,0c102.16,35.52,123.41,116.55,78.41,233.21-7.41-104.98-28.04-186.86-78.41-233.21Z"/>
        </g>
        <path class="cls-5" d="M32.09,147.4c-12.06,45.06-6.87,93.4.94,127.68.58,2.55,4.8-21.46,5.65-18.98,6.39,18.62,8.25,33.48,12.42,42.32,6.29-18.87,14.15-11.27,21.39,2.71l176.78-10.45c7.86-4.3,16.2-77.71,18.45-64.55,1.62,9.49-.81,33.66-1.1,34.04,1.2-.53,32.28-20.54,6.54-75.34,5.47,7.54,15.64,29.24,20.97,34.56-6.43-42.17,9.75-113.3-36.76-170C229.22,6.9,150.87-8.41,111.2,6.91c8.52.97,16.5,2.03,20.16,3.8-14.47-.5-28.99,2.93-43.55,10.86C50.72,26.06,16.31,64.65,10.94,110.71c2.95-3.77,6.4-12.67,10.77-15.28-7.33,23.65-6.2,48.76-.5,66.78,3.72-5.17,8.1-14.35,10.88-14.81Z"/>
      </g>
      <g>
        <path class="cls-29" d="M111.79,241.64l-.71,12.93c-29.43,7.15-34.67,13.02-49.56,24.1,8.53,15.16,9.03,18.73,9.52,28.25-1.11,33.86-29.69,22.28-11.27,54.3,4.87,5.56-4.05,7.45-.17,13.61,3.2,5.55,6.83,10.15,11.17,13.13,10.87-3.33,21.79.28,28.66-2.99,1.49,7.15,5.63,14.16,12.35,21.02,4.21.25,9.27-.58,14.99-2.25,2.19,2.42,4.61,4.26,7.35,5.24,17.24-1.16,30.25-5.04,35.35-14.04l5.19.62c64.49,20.59,40.2-16.3,65.09-15.55,13.91,2.34,30.56-27.69,23.91-38.17-1.35-19.68-16.7-25.97-16.62-36.97l8.84-41.26-43.7-8.55c-8.51-3.45-11.44-8.91-8.49-16.47l-91.92,3.04Z"/>
        <g class="cls-42">
          <path class="cls-50" d="M114.76,279.93c6.41-12.56,24.61-8.44,29.98-12.56,7.56,4.49,16.17,6.17,27.72,0,4.02,2.29,9.23,5.09,20.84,1.31,2.65,4.18,10.81,6.82,12.26,12.54,3.49,1.93,8.98.59,10.75,3.18-7.69,25.52,13.27,32.67,20.74,49.6,10.05,22.78,7.12,48.5-43.53,58-16.67,3.13-34.4,2.78-50.9-.72-47.53-10.09-66.96-35.38-45.1-66.26,8.14-11.49,6.52-28.54,17.25-45.09Z"/>
          <path class="cls-29" d="M97.5,329.82c1.53,21,52.17,31.05,61.38-5.95-20.32,23.1-40.77,27.38-61.38,5.95Z"/>
          <path class="cls-29" d="M174.9,326.9c3.14,10.39,24.51,16.85,37.15,16.97,9.83.09,21.76-5.87,17.91-15.22,11.7,31.44-54.93,19.88-55.06-1.75Z"/>
          <path class="cls-40" d="M70.31,314.12c8.72,9.11-5.34,25.13-.81,32.62,31.11,54.21,55.18,29.47,65.74,64.97l-46.68,4.66-49.61-24.62v-58.11l31.36-19.52Z"/>
          <path class="cls-40" d="M217.27,391.2c29.57-14.43,39.48-36.58,24.4-68.54,10.71,31.73,1.02,53.84-24.4,68.54Z"/>
          <path class="cls-40" d="M248.64,331.77c11.23,21.51,5.18,36.46-8.88,48.25,12.85-14.64,15.85-30.72,8.88-48.25Z"/>
          <path class="cls-40" d="M258.01,342.06c5.09,6.95,2.8,16.71-2.4,27.58,2.34-10.14,3.6-19.61,2.4-27.58Z"/>
          <path class="cls-40" d="M78.27,339.44c-.51,21.46,9.34,39.35,43.56,48.85-26.48-8.86-39.51-26.8-43.56-48.85Z"/>
          <path class="cls-40" d="M72.33,369.64c26.52,19.06,51.24,30.93,77.76,25.44-25.64,3.21-50.74-9.34-77.76-25.44Z"/>
          <path class="cls-40" d="M83.9,351.58c-6.16-19.06,11.62-30.35,10.07-55.21,8.49,25.64-12.02,29.1-10.07,55.21Z"/>
          <path class="cls-29" d="M147,350.86c-.46,15.28,5.08,29.19,18.93,41.18-10.25-13.43-16.03-27.2-18.93-41.18Z"/>
          <path class="cls-29" d="M106.56,343.12c-.46,15.28,22.52,40.86,45.05,45.17-14-3.48-43.85-26.68-45.05-45.17Z"/>
          <path class="cls-29" d="M138.13,369.64c10.04,6.18,17.53,13.58,23.76,21.57l-23.76-21.57Z"/>
          <path class="cls-29" d="M92.8,344.5c7.41,23.44,21.67,39.42,46.56,43.8-22.18-6.09-36.7-21.96-46.56-43.8Z"/>
          <path class="cls-29" d="M170.47,376.73c4.87-10.7,6.13-22.32,4.43-34.67-1.03,12.24-2.48,23.83-4.43,34.67Z"/>
          <path class="cls-29" d="M177.35,377.81c5.16-6.76,7.66-17.18,6.03-33.31-.35,13.72-2.25,25-6.03,33.31Z"/>
          <path class="cls-29" d="M179.43,389.91c7.36-7.72,11.27-21.08,13.58-37.06-4.45,14.65-8.95,27.6-13.58,37.06Z"/>
          <path class="cls-29" d="M145.99,269.59c-3.37,15.12-.54,29.38,10.92,42.43-7.61-14.18-10.71-28.32-10.92-42.43Z"/>
          <path class="cls-29" d="M162.32,299.27c4.87-10.7,6.13-22.32,4.43-34.67-1.03,12.24-2.48,23.83-4.43,34.67Z"/>
          <path class="cls-29" d="M169.2,300.35c5.16-6.76,7.66-17.18,6.03-33.31-.35,13.72-2.25,25-6.03,33.31Z"/>
          <path class="cls-29" d="M171.28,312.45c7.36-7.72,11.27-21.08,13.58-37.06-4.45,14.65-8.95,27.6-13.58,37.06Z"/>
          <path class="cls-29" d="M187.72,389.91c18.09-11.08,24.6-20.01,26.7-36.06-6.24,15.76-11.46,24.92-26.7,36.06Z"/>
          <path class="cls-29" d="M208.53,380.42c14.89-10.35,23.42-22.36,26.02-35.92-5.53,13.8-14.24,25.76-26.02,35.92Z"/>
          <path class="cls-29" d="M194.7,389.91c18.91-4.39,33.57-10.79,39.85-21.15-9.37,10.2-23.57,16.51-39.85,21.15Z"/>
          <path class="cls-40" d="M191.69,244.47c6.93,11.88,18.48,18.28,38.54,18.14-18.7,2.15-31.41-3.5-38.54-18.14Z"/>
          <path class="cls-40" d="M187.14,247.05c2.52,9.39,7.42,17.21,19.01,20.66-9.53-3.26-14.66-11.51-19.01-20.66Z"/>
          <path class="cls-40" d="M123.66,244.64c-10.54,18.88-28.58,29.17-60.29,29.24,29.62,3.12,49.52-6,60.29-29.24Z"/>
          <path class="cls-40" d="M124.95,254.32c-7.71,13.02-10.62,28.02-26.26,34.88,11.61-7.26,15.46-22.56,26.26-34.88Z"/>
          <path class="cls-27" d="M210.31,262.97c20.54,6.73,42.52,11.57,67.88,11.94l-36.58,19.96c-13.77-4.65-23.63-16.31-31.3-31.91Z"/>
          <path class="cls-27" d="M109.76,269.21c-20.54,6.73-42.52,11.57-67.88,11.94.56,11.01,12.48,17.77,36.58,19.96,13.77-4.65,23.63-16.31,31.3-31.91Z"/>
        </g>
        <path class="cls-9" d="M111.79,241.64l-.71,12.93c-29.43,7.15-34.67,13.02-49.56,24.1,8.53,15.16,9.03,18.73,9.52,28.25-1.11,33.86-29.69,22.28-11.27,54.3,4.87,5.56-4.05,7.45-.17,13.61,3.2,5.55,6.83,10.15,11.17,13.13,10.87-3.33,21.79.28,28.66-2.99,1.49,7.15,5.63,14.16,12.35,21.02,4.21.25,9.27-.58,14.99-2.25,2.19,2.42,4.61,4.26,7.35,5.24,17.24-1.16,30.25-5.04,35.35-14.04l5.19.62c64.49,20.59,40.2-16.3,65.09-15.55,13.91,2.34,30.56-27.69,23.91-38.17-1.35-19.68-16.7-25.97-16.62-36.97l8.84-41.26-43.7-8.55c-8.51-3.45-11.44-8.91-8.49-16.47l-91.92,3.04Z"/>
      </g>
      <g>
        <g>
          <path class="cls-26" d="M181.65,309.52c-1-5.51-6.99-6.23-12.05-8.12-1.15-.43.02-2.23,1.25-2.33,11.25-.86,22.12-1.79,31.65-1.65-5.5,5.21-12.54,9.17-20.85,12.1Z"/>
          <g class="cls-43">
            <path class="cls-57" d="M173.95,306.36c10.41-3.46,12.65-8.64,13.07-14.2l27.66-3.05-24.65,28.92-16.07-11.67Z"/>
          </g>
          <path class="cls-15" d="M181.65,309.52c-1-5.51-6.99-6.23-12.05-8.12-1.15-.43.02-2.23,1.25-2.33,11.25-.86,22.12-1.79,31.65-1.65-5.5,5.21-12.54,9.17-20.85,12.1Z"/>
        </g>
        <g>
          <path class="cls-29" d="M187.95,233.68c.93,5.98,2.75,9.14,7.94,9.1,20.88-4.31,39.48,3.68,61.33,13.57,3.11,1.41,5.17,4.46,5.12,7.82-.36,21.97-41.83,45.27-50.58,68.72-6.32,9.8-2.87,23.72-9.66,37.56,2.58-22.19-5.78-29.81,3.26-46.02-6.95,5.44-9.16,16.86-15.71,23.93.42-12.67,6.78-26.25,14.88-40.85-6,6.73-12.68,12.09-20.15,15.83.22,5.28-2.57,12.29-5.3,19.27,0-8.5-.74-18.5-1.32-25.36-.36-4.3,1.5-8.52,4.99-11.17,19.71-14.99,26.23-8.72,33.74-14.95,13.16-10.45,18.68-24.09,29.05-27.24-32.06,9.72-55.88.5-57.58-30.21Z"/>
          <g class="cls-49">
            <g>
              <path class="cls-26" d="M189.41,297.11c-8.49,10.58-2.77,16.77,2.83,24.84l-13.97,29.79-3.51-32.5,4.13-19.39,10.52-2.74Z"/>
              <g class="cls-46">
                <path class="cls-57" d="M177.12,307.83c5.81,7.23,6.2,13.71,7.96,24.28l10.8-19.41-6.68-13.53-12.08,8.66Z"/>
              </g>
              <path class="cls-15" d="M189.41,297.11c-8.49,10.58-2.77,16.77,2.83,24.84l-13.97,29.79-3.51-32.5,4.13-19.39,10.52-2.74Z"/>
            </g>
            <g>
              <path class="cls-26" d="M194.09,320.23c1.54,7.32,2.71,14.04,5.98,14.43-1.58,6.72-7.8,17.57-14.1,25.57-.8-12.85,2.64-27.35,8.12-40Z"/>
              <g class="cls-45">
                <path class="cls-57" d="M191.38,328.95c3,4.18,4.44,9.22,5.19,14.65l4.42-14.16-4.48-8.17-5.13,7.68Z"/>
              </g>
              <path class="cls-15" d="M194.09,320.23c1.54,7.32,2.71,14.04,5.98,14.43-1.58,6.72-7.8,17.57-14.1,25.57-.8-12.85,2.64-27.35,8.12-40Z"/>
            </g>
            <g>
              <path class="cls-26" d="M199.81,335.64c3.73,3.09,8.01,4.01,12.99,2.13,8.19,14.43-.36,28.51-12.36,42.52-3.11-17.33-5.04-33.67-.63-44.65Z"/>
              <g class="cls-48">
                <path class="cls-57" d="M197.4,337.75c9.2,5.18,14.79,13.87,18.74,24.18,5.16-6.86,8.12-15.13,2.42-28.93l-18.87-1.61-2.3,6.37Z"/>
              </g>
              <path class="cls-15" d="M199.81,335.64c3.73,3.09,8.01,4.01,12.99,2.13,8.19,14.43-.36,28.51-12.36,42.52-3.11-17.33-5.04-33.67-.63-44.65Z"/>
            </g>
            <path class="cls-54" d="M195.54,235.82c21.72,20.92,55.05,15.49,60.36,27.8,3.52,8.15.91,18.35-8.85,28.08l28.61-24.34c-6.34-32.87-41.31-34.31-80.12-31.54Z"/>
            <path class="cls-54" d="M203.59,292.8c22.36,8.23,29.75-11.34,41.93-28.92l-41.93,28.92Z"/>
          </g>
          <path class="cls-11" d="M187.95,233.68c.93,5.98,2.75,9.14,7.94,9.1,20.88-4.31,39.48,3.68,61.33,13.57,3.11,1.41,5.17,4.46,5.12,7.82-.36,21.97-41.83,45.27-50.58,68.72-6.32,9.8-2.87,23.72-9.66,37.56,2.58-22.19-5.78-29.81,3.26-46.02-6.95,5.44-9.16,16.86-15.71,23.93.42-12.67,6.78-26.25,14.88-40.85-6,6.73-12.68,12.09-20.15,15.83.22,5.28-2.57,12.29-5.3,19.27,0-8.5-.74-18.5-1.32-25.36-.36-4.3,1.5-8.52,4.99-11.17,19.71-14.99,26.23-8.72,33.74-14.95,13.16-10.45,18.68-24.09,29.05-27.24-32.06,9.72-55.88.5-57.58-30.21Z"/>
        </g>
        <g>
          <path class="cls-12" d="M191.52,319.11c-2.3,1.58-4.68,2.99-7.14,4.23.22,5.28-2.57,12.29-5.3,19.27,0-8.5-.74-18.5-1.32-25.36-.36-4.3,1.5-8.52,4.99-11.17,1.15-.87,2.25-1.67,3.3-2.4"/>
          <path class="cls-12" d="M198.79,332.99c-2.81,5.18-5.18,11.07-9.15,15.36.25-7.39,2.51-15.09,5.97-23.12"/>
          <path class="cls-12" d="M209.8,336.74c-3.66,9.42-1.77,21.59-7.71,33.7,1.91-16.41-2.17-24.86-.76-34.7"/>
          <path class="cls-28" d="M208.94,336.63c.34-1.11,1.33-1.97,2.95-2.64l-1.81,4.26-1.14-1.62Z"/>
          <path class="cls-28" d="M190.65,318.7c.87-.78,2.18-1.01,3.91-.75-1.46,1.07-2.83,2.05-3.78,2.67l-.13-1.91Z"/>
          <path class="cls-28" d="M197.79,333.05c.42-1.08,1.47-1.69,3.13-2.23l-2.13,3.94-1.01-1.7Z"/>
          <path class="cls-28" d="M202.12,336.03c.33-1.11,0-2.21-.99-3.61-.3,1.3-.57,2.57-.71,3.77l1.71-.16Z"/>
          <path class="cls-28" d="M196.09,326.18c.61-.99.59-2.13,0-3.75-.63,1.18-1.23,2.34-1.69,3.46l1.69.29Z"/>
          <path class="cls-28" d="M186.21,304.56c1.03-.55,1.69-1.69,2.01-3.38l-3.87,2.63,1.85.75Z"/>
        </g>
      </g>
      <g>
        <g>
          <path class="cls-26" d="M104.62,289.07c9.18,3.87,18.03,7.89,24.64,12.98,11.51-2.5,12.94-16.52,26-13.91.34.07.58-.34.33-.58-7.97-7.67-23.84,3.09-50.96,1.5Z"/>
          <g class="cls-47">
            <path class="cls-57" d="M113.91,286.17c19.33,16.22,30.3-1.19,39.12,5.14l-25.35,17.38-25.15-16.1,11.39-6.41Z"/>
          </g>
          <path class="cls-14" d="M104.62,289.07c9.18,3.87,18.03,7.89,24.64,12.98,11.51-2.5,12.94-16.52,26-13.91.34.07.58-.34.33-.58-7.97-7.67-23.84,3.09-50.96,1.5Z"/>
        </g>
        <g>
          <path class="cls-29" d="M125.12,235.83c-6.3,15.04-25.71,3.54-35.29,6.69-7.54,4.53-16.06,4.95-20.24,11.39-20.6,9.6-26.02,20.95-14.02,30.31,25.22,23.72,58.56,42.04,62.23,91.01,4.56-13.52-.08-25.61,2.17-36,1.24-5.73-.63-11.3-2.95-18.28,8.58,8,14.43,18.7,16.79,32.83,2.06-11.26.83-23.35-8.66-41,5.57,4.14,9.1,9.4,13.39,15.06,2.09,6.65,5.62,11.81,7.56,16.22,1.25-9.92-5.34-23.4-14.23-40.06-1.01-1.9-2.45-3.58-4.23-4.86-12.46-8.96-26.75-13.81-41.9-16.74-7.15-3.33-11.39-8.23-14.05-13.99,27.57,5.04,59.46,1.56,53.43-32.58Z"/>
          <g class="cls-35">
            <g>
              <path class="cls-26" d="M134.17,302.74c.7,10.02-1.94,14.15-4.17,16.38l16.53,35.11,4-22-16.36-29.48Z"/>
              <g class="cls-33">
                <path class="cls-57" d="M146.18,314.87c-8.02-2.33-12.74,4.75-18.2,15.85l-2.65-7.85c2.21-19.9,7.21-29.44,16.96-21.28l3.9,13.29Z"/>
              </g>
              <path class="cls-14" d="M134.17,302.74c.7,10.02-1.94,14.15-4.17,16.38l16.53,35.11,4-22-16.36-29.48Z"/>
            </g>
            <g>
              <path class="cls-26" d="M130.73,320.68c-2.16,3.17-4.86,6.13-8.24,8.81l12.06,39c4.14-17.25,5.39-33.81-3.83-47.81Z"/>
              <g class="cls-39">
                <path class="cls-57" d="M141.62,315.06c-9.74,12.6-18.56,21.83-21.88,33.36l-3.16-11.48,22.67-31.96,2.37,10.08Z"/>
              </g>
              <path class="cls-14" d="M130.73,320.68c-2.16,3.17-4.86,6.13-8.24,8.81l12.06,39c4.14-17.25,5.39-33.81-3.83-47.81Z"/>
            </g>
            <g>
              <path class="cls-26" d="M102.09,334.74c7.48.54,14.16-.8,19.6-5.04,2.47,3.86,2.69,9.74,1.54,16.85,4.19,10.17-2.23,23.93-7.08,37.15-2.5-16.87-6.44-33.38-14.07-48.96Z"/>
              <g class="cls-37">
                <path class="cls-57" d="M142.17,322.9c-14.56,5.88-28.41,15.56-39.49,30.76l-9.04-12.78,41.44-29.13,7.09,11.14Z"/>
              </g>
              <path class="cls-14" d="M102.09,334.74c7.48.54,14.16-.8,19.6-5.04,2.47,3.86,2.69,9.74,1.54,16.85,4.19,10.17-2.23,23.93-7.08,37.15-2.5-16.87-6.44-33.38-14.07-48.96Z"/>
            </g>
            <path class="cls-54" d="M114.74,233.86c-7.02,14.44-40.5,16.77-52.9,31.1-1.83,2.12-2.96,4.45-3.49,7.18-1.94,9.99,8.5,16.66,14.15,28.99l-40.88-28.83,38.87-29.54,44.25-8.91Z"/>
            <path class="cls-54" d="M80.73,277.05c1.18,9.84,36,18.4,58.55,33.8l-7.18-14.6-51.37-19.2Z"/>
          </g>
          <path class="cls-10" d="M125.12,235.83c-6.3,15.04-25.71,3.54-35.29,6.69-7.54,4.53-16.06,4.95-20.24,11.39-20.6,9.6-26.02,20.95-14.02,30.31,25.22,23.72,58.56,42.04,62.23,91.01,4.56-13.52-.08-25.61,2.17-36,1.24-5.73-.63-11.3-2.95-18.28,8.58,8,14.43,18.7,16.79,32.83,2.06-11.26.83-23.35-8.66-41,5.57,4.14,9.1,9.4,13.39,15.06,2.09,6.65,5.62,11.81,7.56,16.22,1.25-9.92-5.34-23.4-14.23-40.06-1.01-1.9-2.45-3.58-4.23-4.86-12.46-8.96-26.75-13.81-41.9-16.74-7.15-3.33-11.39-8.23-14.05-13.99,27.57,5.04,59.46,1.56,53.43-32.58Z"/>
        </g>
        <g>
          <path class="cls-13" d="M130.7,317.87c2.77,3.05,5.16,6.43,7.84,9.97,2.09,6.65,5.62,11.81,7.56,16.22,1.14-9.06-4.25-21.08-11.96-35.78"/>
          <path class="cls-13" d="M123.62,328.38c5.01,6.88,8.5,15.25,10.19,25.4,1.68-9.14,1.18-18.83-4.15-31.61"/>
          <path class="cls-13" d="M105.34,334.62c6.58,10.95,11.23,24.02,12.47,40.61,4.56-13.52-.08-25.61,2.17-36,.57-2.66.48-5.28-.02-8.02"/>
          <path class="cls-28" d="M133.43,308.73c-.64-.96-.66-2.24-.13-3.84l2.12,4.06-1.99-.22Z"/>
          <path class="cls-28" d="M129.01,322.79c-.55-1.01-.41-2.01.27-3.56.67,1.47,1.24,2.81,1.67,3.92l-1.95-.36Z"/>
          <path class="cls-28" d="M131.78,317.8c-.71-1.17-1.79-1.32-3.45-1.41.77,1.08,1.58,1.82,2.39,2.72l1.06-1.32Z"/>
          <path class="cls-28" d="M119.1,331.37c-.34-1.09-.09-2.34.89-3.72.44,1.65.79,3.18.97,4.47l-1.86-.75Z"/>
          <path class="cls-28" d="M106.16,334.44c-.41-1.29-1.6-1.61-3.2-2.07.49,1.22,1.47,2.34,1.89,3.01l1.31-.94Z"/>
          <path class="cls-28" d="M124.34,327.95c-.72-1.16-1.55-1.35-3.2-1.43.78,1.07,1.34,1.85,2.15,2.75l1.05-1.32Z"/>
        </g>
      </g>
      <path class="cls-40" d="M45.83,92.87c-6.05,83.67-1.46,91.93,1.19,170.17,1.03-16.8,7.33-35.74,10.36-47.63,3.91,29.06,1.26,61.81,6.7,73.87-1.19-21.39,18.94-8.62,16.76-35.75,27.37,20.2,118.02,23.19,163.91-15.54,11.94-10.08,18.12-25.63,16.64-41.38l7.96-78.14c-.71-13.86-9.5-31.11-16.02-43.29-5.49-10.25-12.02-14.67-20.58-25.21C189.09-8.85,51.56,26.88,45.83,92.87Z"/>
      <g>
        <path class="cls-24" d="M151.49,54.84c-19.87-18.33-23.13-13.47-15.96-3.52-19.59-2.56-32.04-1-40.64,2.79-.84.37-.84,1.58,0,1.94,3.34,1.43,5.82,2.17,6.64,3.73-11.65.19-21.17,4.21-28.66,11.89-2.6,2.66-4.35,6.06-5.02,9.75-3.18,17.54-12.38,40.31-12.08,59.04-.42,29.62,2.89,55.76,25.06,75.09l22.71,21.1c36.56,24.27,69.98,19.56,108.28-5.79,5.09-4.95,24.34-24.98,31.26-36.52,10.23-23.8,18.17-51.6,18.51-83.07-1.36-14.03-18.78-27.57-23.74-45.28-1.01-7.37-14.88-3.79-22.61-1.22-.16-3.1,1.07-6.08,3.31-8.99,1.47-1.91.69-4.72-1.51-5.66-16.06-6.9-31.11-5.7-41.91,4.06-.07-4.67,3.43-8.68,4.02-12.95.18-1.3-1-2.37-2.25-2.03-7.56,2.04-16.46,8.77-25.44,15.63Z"/>
        <g class="cls-38">
          <path class="cls-52" d="M70.55,85.21c-1.16,1.69-2.54,4.01-3.82,5.91-.77,1.04-2.74,4.27-3.73,3.05-20.11-52.24,87.74-60.85,89.98-60.66,19.84-1.66,35.1-.71,48.29,2.7,36.55,9.52,41.7,35.57,41.72,36.07-.78,1.19,5.44,9.52,5.48,10.77.19,5.68-15.16.97-15.4-2.99l-.03-.04c-2.81-7.28-11.33-14.83-18.04-14.08-.3-.1-.03-.42.06-.63,1.04-1.52,2.35-3.75,1.61-4.88-.34-.55-1.28-.92-1.96-1.2-15.5-6.51-29.8-8.57-40.55.26-.21,0-.24-.36-.26-.48-.1-2.87,1.21-4.95,2.36-6.77,1.09-1.89-.63-2.55-2.17-1.97-6.92,2.18-12.93,8.06-21.03,14.35-.74.6-1.45.44-2.02-.31-3.69-4.39-6.08-6.93-9.54-9.75-9.67-7.75-12.4-1.94-7.77,5.16.46.85-.61.68-1.21.63-18.06-2.14-28.74.02-36.99,3.56-14.49,2.62-21.87,10.41-24.97,21.33Z"/>
        </g>
        <path class="cls-1" d="M151.49,54.84c-19.87-18.33-23.13-13.47-15.96-3.52-19.59-2.56-32.04-1-40.64,2.79-.84.37-.84,1.58,0,1.94,3.34,1.43,5.82,2.17,6.64,3.73-11.65.19-21.17,4.21-28.66,11.89-2.6,2.66-4.35,6.06-5.02,9.75-3.18,17.54-12.38,40.31-12.08,59.04-.42,29.62,2.89,55.76,25.06,75.09l22.71,21.1c36.56,24.27,69.98,19.56,108.28-5.79,5.09-4.95,24.34-24.98,31.26-36.52,10.23-23.8,18.17-51.6,18.51-83.07-1.36-14.03-18.78-27.57-23.74-45.28-1.01-7.37-14.88-3.79-22.61-1.22-.16-3.1,1.07-6.08,3.31-8.99,1.47-1.91.69-4.72-1.51-5.66-16.06-6.9-31.11-5.7-41.91,4.06-.07-4.67,3.43-8.68,4.02-12.95.18-1.3-1-2.37-2.25-2.03-7.56,2.04-16.46,8.77-25.44,15.63Z"/>
      </g>
      <g>
        <ellipse class="cls-52" cx="215.73" cy="158.45" rx="37.6" ry="39.98"/>
        <g>
          <ellipse class="cls-25" cx="215.73" cy="152.96" rx="37.6" ry="39.98"/>
          <g class="cls-36">
            <ellipse class="cls-51" cx="232.07" cy="138.35" rx="8.52" ry="9.49" transform="translate(-32.58 83.96) rotate(-19.19)"/>
            <path class="cls-53" d="M174.75,165.28l44.04,15.97,40.54-28.3c8.16,56-76.42,68.32-84.58,12.33Z"/>
          </g>
          <ellipse class="cls-20" cx="215.73" cy="152.96" rx="37.6" ry="39.98"/>
        </g>
      </g>
      <g>
        <ellipse class="cls-52" cx="102.48" cy="160.5" rx="39.98" ry="37.6" transform="translate(-68.02 245.32) rotate(-83.89)"/>
        <g>
          <ellipse class="cls-25" cx="102.48" cy="155.71" rx="39.98" ry="36.61" transform="translate(-83.16 172.61) rotate(-61.85)"/>
          <g class="cls-34">
            <path class="cls-53" d="M65.09,173.5l29.43,15.86,51.33-33c10.87,56.63-69.89,73.76-80.76,17.14Z"/>
            <ellipse class="cls-51" cx="94.78" cy="150.4" rx="9.13" ry="10.13"/>
          </g>
          <ellipse class="cls-20" cx="102.48" cy="155.71" rx="39.98" ry="36.61" transform="translate(-83.16 172.61) rotate(-61.85)"/>
        </g>
      </g>
      <path class="cls-53" d="M142.71,188.63c11.91-4.67,17.52-1.89,28.77-7.8l4.14,12.56c-8.13,9.42-31.08.67-32.91-4.77Z"/>
      <path class="cls-21" d="M84.17,248.52c7.58,16.76,12.18,32.85,13.44,47.39,1.66-11.55,3.12-23.43,3.07-36.55,2.61,15.22,3.45,27.46,4.07,37.66,1.56-9.65,3.06-28.66,5.15-46.04,11.18,18.97,3.95,59.6,3.02,90.61,4.72-28.85,8.59-58.13,9.8-88.75,8.71,17.94,12.27,37.94,11.81,59.56,2.65-19.19,1.51-47.46,3-58.41,9.36,6.02,11.38,36.04,13.94,53.76,1.04-19.33,1.58-37.61.14-53.01,4.64,7.16,7.74,16.05,10.24,24.69,1.31,8.31.02,19.48,2.32,28.33.86-12.49,2.18-20.58,3.93-29.5.76-3.88,2.47-9.67.74-13.22-2.29-4.71-2.81-5.93,1.09-12.77l7.72,9.67c5.2,12.7,6.3,26.14,6.58,39.74,3.8-13.46,2.33-28.57.78-46.09,7.1,15.57,13.12,32.05,18.61,48.99-.88-17.75-3.76-38.81-7.22-55.37,8.38,2.06,11.05,22.79,12.19,31.56,3.68-9.18,4.79-21.25,2.75-36.86,4.82,7.2,7.2,14.27,7.95,21.27,1.01-7.05.24-16.26-1.78-27,4.2,20.95,15.15,33.57,16.94,53.96.38-19.65,0-40.5-1.83-63.73,3.2,8.77,4.8,19.65,5.84,31.27.76-13.06.51-26.23-2.29-39.67,1.89,7.94,4.36,13.01,7.33,15.6-2.42-5-4.25-11.84-5.77-19.68-.94-4.89-5.06-8.45-10.03-8.88-8.06-.69-9.44-7.56-15.45-4.12-10.69-8.41-21.22-5.46-31.74-1.04-7.43.65-14.19,3.12-20.35,7.18-16.39-3.56-25.64-6.4-29.71-.44-9.08-11.06-31.18-6.37-40.56,12.42-7.08,7.6-9.61,16.57-5.69,27.48Z"/>
      <path class="cls-30" d="M161.74,151.28c1.49,3.38,2.89,6.78,4.26,10.21,2.27,7.06,8,24.3,10.38,31.59,0,0,.17.52.17.52-2.3,3.12-5.92,4.36-9.37,4.72-6.46.54-12.97-.92-18.85-3.8-2.04-1.34-4.54-2.64-5.59-5.13-.32-.86-.37-1.82-.13-2.66-.26,3.81,3.84,5,6.38,6.17,2.84,1.32,5.82,2.34,8.86,2.98,5.51,1.05,12.97,1.73,17.14-3.09,0,0-.15.91-.15.91-2.48-7.36-7.99-24.46-10.42-31.57-.94-3.6-1.85-7.21-2.67-10.85h0Z"/>
      <g>
        <path class="cls-56" d="M116.6,208.71c29.43,4.6,59.79,3.71,91.67-6.05,2.29,11.39,2.87,21.99,1.4,31.64-21.95,9.65-75.78,12.97-93.03,4.01-3.38-9.55,1.05-17.37-.03-29.6Z"/>
        <g class="cls-32">
          <path class="cls-3" d="M118.59,206.93c-.33,6.43.12,12.36,2.11,16.84,4.14,2.32,8.36,2.89,15.36,1.42,2.43-1.87,4.23-9.03,6.05-16.13l-23.52-2.13Z"/>
          <path class="cls-3" d="M140.15,206.74c1.22,9.89,5.11,14.03,12.66,18.46,8.7.12,12.29-5.55,14.37-15.36l-27.03-3.1Z"/>
          <path class="cls-3" d="M165.07,208.13c.97,8.3,2.46,15.16,5.56,17.53,4.15,2.38,8.76.3,15.69-3.64,2.09-4.92,3.46-10.07,2.17-16.05l-23.42,2.17Z"/>
          <path class="cls-3" d="M206.68,201.01c1.76,7.65,5.09,12.03,11.12,10.81,11.8-2.44,19.73-15.93,26.91-31.56-.59,19.44-5.17,32.97-13.39,41.51-3.45,3.59-8.46,5.31-13.35,4.4-4.52-.84-8.01-2.94-11.75-7.39l.46-17.76Z"/>
          <path class="cls-3" d="M118.72,209.45l1.17,12.95c-8.37,17.72-23.33,18.99-31.5,12.23-8.17-6.76-9.53-21.54-12.41-44.86,3.37,28.03,28.85,50.82,42.73,19.69Z"/>
          <path class="cls-3" d="M188.49,205.96c1.42,6.15,2.85,12.27,5.08,15.3.38.52.96.88,1.6.98,2.78.44,6.09-.87,9.94-3.98.92-.74,1.59-1.76,1.89-2.91.97-3.7,1.03-8.73.68-14.35l-19.19,4.96Z"/>
          <path class="cls-53" d="M107.52,238.61c39.76-8.4,94.2-11.75,115.86-1.98-46.67,19.54-85.51,20.71-115.86,1.98Z"/>
        </g>
      </g>
      <path class="cls-3" d="M208.46,208.77c2.44,7.85,6.54,9.13,12.6,8.08,11.86-2.1,18.37-12.33,26-27.75-1.14,19.41-6.11,32.8-14.57,41.11-3.55,3.49-8.61,5.07-13.47,4.02-4.5-.97-7.92-3.16-11.54-7.73l.97-17.74Z"/>
      <path class="cls-3" d="M117.12,210.51l3.01,12.08c-8.37,17.72-23.33,18.99-31.5,12.23-8.17-6.76-9.53-21.54-12.41-44.86,3.37,28.03,19,39.01,40.9,20.56Z"/>
      <path class="cls-30" d="M132.2,119.94c1.95,2.01,4.06,4.31,5.94,6.41.5.64,1.2,1.68,1.69,2.35,0,0,6.76,9.41,6.76,9.41l-1.18-.4,29.06-8.87-.76,1.19c-.08-.52-.28-1.3-.39-2.02-1.08-5.85,2.04-10.02,6.81-12.81-1.8,1.96-3.51,4.25-4.17,6.84-.11.56-.39,1.28-.48,1.83-.43,1.99-.03,3.9.37,5.88,0,0,.14.92.14.92l-.9.27-29.06,8.87-.73.22c-1.57-2.22-7.41-10.27-8.9-12.39-1.38-2.47-2.93-5.19-4.2-7.71h0Z"/>
      <path class="cls-30" d="M95.38,81.86c16.72-1.58,33.48-2.1,50.2-3.2,16.66-1.17,33.35-2.25,49.43-7.13-2.81,1.44-5.73,2.68-8.72,3.73-4.95,1.66-10.22,2.95-15.36,3.92-24.92,4.39-50.38,4.26-75.55,2.69h0Z"/>
      <path class="cls-30" d="M119.08,92.61c9.84-2.96,19.9-5.1,30.05-6.74,10.16-1.56,20.45-2.64,30.74-2.17-20.05,2.23-40.79,6.18-60.79,8.91h0Z"/>
      <path class="cls-30" d="M138.08,102.56c16.09-1.86,32.45-2.78,47.68-8.7-13.25,8.43-32.28,9.87-47.68,8.7h0Z"/>
      <path class="cls-30" d="M138.04,93.49c10.86-4.22,23.9-7.48,35.5-4.88-12.07-.61-23.78,2.47-35.5,4.88h0Z"/>
      <path class="cls-55" d="M137.36,120.05c-23.07-10.19-50.79-21.67-63.81-22.22-3.37,7.67-4.63,15.68-4.13,23.98.1,1.7,7.26,4.52,7.51,6.25,13.73,2.21,30.29,4.79,56.15,8.85l4.28-16.86Z"/>
      <path class="cls-55" d="M174.08,111.57c24.64-8.62,68.89-24.69,82.52-24.34,3.1,7.9-4.05,15.6-5.02,23.88-.2,1.69-7.99,3.67-8.34,5.37-15.06-1.56-38.74,6.31-61.08,11.35l-8.08-16.26Z"/>
    </g>
  </g>
</svg>