<?xml version="1.0" encoding="UTF-8"?>
<svg id="Layer_2" data-name="Layer 2" xmlns="http://www.w3.org/2000/svg" xmlns:xlink="http://www.w3.org/1999/xlink" viewBox="0 0 217.82 205.89">
  <defs>
    <style>
      .cls-1 {
        fill: #7f665e;
      }

      .cls-2, .cls-3, .cls-4 {
        fill: #bcb7bb;
      }

      .cls-2, .cls-5, .cls-6, .cls-7, .cls-8, .cls-9, .cls-10 {
        fill-rule: evenodd;
      }

      .cls-11 {
        fill: #bbb2b7;
      }

      .cls-3, .cls-12, .cls-13, .cls-14 {
        clip-rule: evenodd;
      }

      .cls-5, .cls-15, .cls-13 {
        fill: #837e86;
      }

      .cls-16 {
        opacity: .17;
        stroke: #979797;
        stroke-width: .78px;
      }

      .cls-16, .cls-12, .cls-9 {
        fill: none;
      }

      .cls-16, .cls-9 {
        stroke-miterlimit: 10;
      }

      .cls-17 {
        clip-path: url(#clippath-1);
      }

      .cls-18 {
        clip-path: url(#clippath-3);
      }

      .cls-19 {
        clip-path: url(#clippath-4);
      }

      .cls-20 {
        clip-path: url(#clippath-2);
      }

      .cls-21 {
        clip-path: url(#clippath-7);
      }

      .cls-22 {
        clip-path: url(#clippath-6);
      }

      .cls-23 {
        clip-path: url(#clippath-8);
      }

      .cls-24 {
        clip-path: url(#clippath-5);
      }

      .cls-25, .cls-8 {
        fill: #635d68;
      }

      .cls-6 {
        fill: #d9dadb;
      }

      .cls-7, .cls-14 {
        fill: #e5e1df;
      }

      .cls-26 {
        clip-path: url(#clippath);
      }

      .cls-9 {
        stroke: #999;
        stroke-width: 3px;
      }

      .cls-10 {
        fill: #d5cdcd;
        stroke: rgba(151, 151, 151, .17);
        stroke-width: .34px;
      }
    </style>
    <clipPath id="clippath">
      <path id="Path-2" data-name="Path" class="cls-14" d="M208.72,180.91V15.11c-.35-3.29-1.93-6.36-4.74-9.2-2.81-2.84-6.07-4.3-9.76-4.36H23.88c-3.72.45-6.81,1.9-9.28,4.36-2.47,2.46-4.34,5.52-5.62,9.2v171c1.42,4.99,3.3,8.76,5.62,11.3,2.32,2.54,5.42,4.21,9.28,5.01h142.82c26.19-.27,37.88-8.74,42.02-21.51Z"/>
    </clipPath>
    <clipPath id="clippath-1">
      <path class="cls-13" d="M74.46,27.86c-5.2,1.34-13.67,4.07-13.67,8.24v33.7l5.51,5.91-5.51,5.88c-.2,41.3-.2,65.42,0,72.37.1,3.58,7.53,8.16,11.6,11.83,2.91,2.63,7.13-.46,18.52-6.25.48-.24,1.34-1.19,2.59-2.83l21.04-14.15,1.46-3.97,7.56-.22c33.21-25.67,49.82-39.15,49.82-40.43,0-11.65-87-73.14-98.92-70.08Z"/>
    </clipPath>
    <clipPath id="clippath-2">
      <path class="cls-12" d="M74.81,167.13c0-.26-6.93-4.42-1.49-8.47,3.63-2.7,17.84-9.28,42.63-19.75,34.07-28.25,52.57-43.22,55.49-44.92.67-.39,2.15,3.88,2.15,4,0,.92-16.59,14.55-49.77,40.91h-7.87l-1.46,3.98-20.94,14.18-1.6,2.52c-11.43,5.99-17.15,8.5-17.15,7.53Z"/>
    </clipPath>
    <clipPath id="clippath-3">
      <path class="cls-3" d="M74.26,166.6c0-.34-2.71-4.21-4.21-21.08-.9-10.06-2.2-33.33-3.91-69.83,1.48-30.29,1.48-45.29,0-45-1.17.23-2.62.96-4.23,2.76-.28.32-.71.95-1.26,1.88l.14,34.44,5.35,5.91-5.35,5.87v72.27c.02.93.26,1.73.71,2.39,1.16,1.7,3.67,4.01,4.64,4.93,2.31,2.19,8.12,6.4,8.12,5.43Z"/>
    </clipPath>
    <clipPath id="clippath-4">
      <path class="cls-3" d="M92.54,59.58c-1.09.29-1.79.51-2.1.65-.31.14-.54.55-.68,1.22.13.84.25,1.42.38,1.73.13.31.87.7,2.25,1.16,1.6.37,2.59.52,2.96.43.37-.08.83-.74,1.39-1.97.15-1.84-.02-2.91-.52-3.22-.5-.31-1.72-.31-3.68,0Z"/>
    </clipPath>
    <clipPath id="clippath-5">
      <path class="cls-12" d="M80.43,54.77c-1.5,1.08-2.5,1.88-2.99,2.41-.49.53-.44,1.13.16,1.8.9.5,1.54.87,1.93,1.12.38.25,1.28.44,2.69.57,1.41.22,2.27.32,2.57.29.3-.03.6-.2.9-.52.41-.57.72-.95.92-1.13.21-.18.4-.47.58-.86-.36-2.69-.86-4.2-1.5-4.54-.64-.34-2.39-.05-5.25.86Z"/>
    </clipPath>
    <clipPath id="clippath-6">
      <path class="cls-3" d="M84.94,44.72c-.46,2.38-.55,4.14-.26,5.28.29,1.14,1.48,2.17,3.56,3.07,2.67,1.48,4.49,2.07,5.46,1.76.97-.31,1.64-1.69,2.01-4.14.41-2.27.41-3.88,0-4.84-.41-.96-1.54-1.99-3.39-3.09-2.15-.36-3.62-.44-4.42-.25-.8.2-1.79.93-2.96,2.21Z"/>
    </clipPath>
    <clipPath id="clippath-7">
      <path class="cls-12" d="M116.26,138.64l.3-6.6,6.62-4.36.05-1.22-6.58,3.42c-2.77-4.63-5.43-9.16-7.97-13.6-3.82-6.66-6.91-12.93-8.41-14.08-1-.76-6.43-4.97-16.27-12.6l-.08,1.78c8.78,6.67,13.86,10.64,15.24,11.9,1.38,1.26,4.26,5.91,8.62,13.94,4.33,8.4,6.64,13.07,6.93,13.99.3.93.37,3.64.21,8.15.3.08.52.08.68,0,.15-.08.37-.32.66-.71Z"/>
    </clipPath>
    <clipPath id="clippath-8">
      <path class="cls-12" d="M168.83,101.63c-.42-1.13-.64-1.87-.67-2.19-.03-.33.06-1.09.27-2.29l-1.25,1.19c-.85.54-2.78,1.39-5.76,2.55-2.99,1.15-6.62,2.48-10.9,3.98l-32.23,25.48,2.7-.79,30.25-24.04c5.04-1.86,8.62-3.03,10.74-3.49,2.12-.47,4.4-.59,6.85-.38Z"/>
    </clipPath>
  </defs>
  <g id="Layer_9" data-name="Layer 9">
    <g>
      <g>
        <path id="Path" class="cls-7" d="M208.72,180.91V15.11c-.35-3.29-1.93-6.36-4.74-9.2-2.81-2.84-6.07-4.3-9.76-4.36H23.88c-3.72.45-6.81,1.9-9.28,4.36-2.47,2.46-4.34,5.52-5.62,9.2v171c1.42,4.99,3.3,8.76,5.62,11.3,2.32,2.54,5.42,4.21,9.28,5.01h142.82c26.19-.27,37.88-8.74,42.02-21.51Z"/>
        <g class="cls-26">
          <path id="Path-3" data-name="Path" class="cls-5" d="M18.93,190.97l36.7.25s12.5-21.24,12.5-19.42-5.51,13.18-16.54,34.08h-28.42c-4.18-1.13-7.3-2.84-9.35-5.13-2.06-2.28-3.94-6.14-5.67-11.56V14.22c.77-3.5,2.66-6.64,5.67-9.42C16.82,2.03,19.94.55,23.17.35h4.71c-5.84,4.79-9.23,9.42-10.17,13.88-.95,4.46-1.42,12.9-1.42,25.32,7.05,2.68,10.91,4.74,11.59,6.17s-3.19,2.67-11.59,3.71l-.98,99.87c3.88,3.39,5.83,7.02,5.83,10.88,0,2.72-2.3,7.38-3.43,13.91-.32,1.84.91,12.55,1.23,16.88Z"/>
          <path id="Path-4" data-name="Path" class="cls-5" d="M63.71,190.5l-5.89,13.91h109.32c.89,4.38,43.96-10.11,42.37-20.84V13.8c-.5-3.7-2.09-6.83-4.78-9.36-2.69-2.54-5.97-4.02-9.84-4.44,5.69,4.89,8.53,9.05,8.53,12.47s.44,50.09,1.31,140c-.8,7.1-1.51,17.78-4.37,21.84-2.86,4.05-4.93,10.06-9.21,10.14-13.96.32-25.03.92-31.95,1.78-6.93.86-12.68,2.5-17.69,4.27H63.71Z"/>
          <path id="Path-5" data-name="Path" class="cls-6" d="M18.9,38.05c3.05-11.45,6.05-18.83,8.98-22.14,2.93-3.31,7.39-5.94,13.38-7.9h145.95l15.9,12.45c.92-4.98.92-8.6,0-10.86-.92-2.27-3.65-5.35-8.18-9.25H27.88c-5.99,5.24-9.38,9.13-10.17,11.67-.79,2.54-1.27,11.72-1.42,27.53,7.73,2.53,11.59,4.59,11.59,6.17s-3.86,2.82-11.59,3.71l-.98,99.87c4.31,3.91,6.25,7.54,5.83,10.88-.64,5.02-2.75,9.35-3.43,13.91-.45,3.03.78,13.74,1.23,16.88h3.85c-1.28-5.31-1.34-14.67-.61-18.17,1.49-6.31,3.56-9.78,3.29-12.62-.39-4.1-2.57-9.15-6.57-15.16V52.76c8.11-2.21,12.16-4.56,12.16-7.04s-4.05-5.04-12.16-7.68Z"/>
          <path id="Path-6" data-name="Path" class="cls-8" d="M65.9,177.22c.33.99.5,2.92.5,5.79s-.17,4.62-.5,5.26l-8.88,17.62h-5.42l14.3-28.66Z"/>
          <path id="Path-7" data-name="Path" class="cls-10" d="M185.36,182.56c5.1-1.26,8.66-3.34,10.7-6.24,2.04-2.9,3.86-8.51,5.48-16.83l-.98-53.42c-.45,25.19-1.95,44.21-4.51,57.06-2.55,12.85-6.12,19.33-10.7,19.43Z"/>
          <path class="cls-15" d="M39.49,41.77l.63,3.71c-2.83.99-13.5,3.3-14.1,3.71-2.52,1.7,1.34,5.01-1.25,5.56-1.49.31-14.65-9.64-15.67-12.36-1.15-.28-1.83,1.61-2.19,1.85-.55.37-1.41.8-1.88,1.24-1.75-1.2-3.58-2.09-5.01-3.71,8.11-2.49,7.12-11.14,8.78-17.61.4-1.57-.05-1.45,1.88-2.16,3.62,16.4,11.81,23.2,28.83,19.77Z"/>
          <path class="cls-4" d="M211.82,63.37l6,9.9-5.45,17.92c-12.71-5.01-26-12.18-39.51-20.23-5.34,8.39-24.22,16.02-40.1,23.83,19.36-12.15,39.68-24.61,38.42-29.94,18.86,8.94,38.9,19.98,40.64-1.48Z"/>
          <path class="cls-4" d="M96.52,177.54c-6.88,12.4-16.92,12.05-29.44,11.83l29.44-11.83Z"/>
        </g>
      </g>
      <path id="Path-8" data-name="Path" class="cls-9" d="M208.72,180.91V15.11c-.35-3.29-1.93-6.36-4.74-9.2-2.81-2.84-6.07-4.3-9.76-4.36H23.88c-3.72.45-6.81,1.9-9.28,4.36-2.47,2.46-4.34,5.52-5.62,9.2v171c1.42,4.99,3.3,8.76,5.62,11.3,2.32,2.54,5.42,4.21,9.28,5.01h142.82c26.19-.27,37.88-8.74,42.02-21.51Z"/>
    </g>
    <g>
      <g>
        <path class="cls-5" d="M74.46,27.86c-5.2,1.34-13.67,4.07-13.67,8.24v33.7l5.51,5.91-5.51,5.88c-.2,41.3-.2,65.42,0,72.37.1,3.58,7.53,8.16,11.6,11.83,2.91,2.63,7.13-.46,18.52-6.25.48-.24,1.34-1.19,2.59-2.83l21.04-14.15,1.46-3.97,7.56-.22c33.21-25.67,49.82-39.15,49.82-40.43,0-11.65-87-73.14-98.92-70.08Z"/>
        <g class="cls-17">
          <rect class="cls-15" x="59.65" y="24.06" width="114.68" height="144.55"/>
        </g>
      </g>
      <path class="cls-16" d="M74.46,27.86c-5.2,1.34-13.67,4.07-13.67,8.24v33.7l5.51,5.91-5.51,5.88c-.2,41.3-.2,65.42,0,72.37.1,3.58,7.53,8.16,11.6,11.83,2.91,2.63,7.13-.46,18.52-6.25.48-.24,1.34-1.19,2.59-2.83l21.04-14.15,1.46-3.98,7.56-.22c33.21-25.67,49.82-39.15,49.82-40.43,0-11.65-87-73.14-98.92-70.08Z"/>
      <g class="cls-20">
        <rect class="cls-1" x="66.94" y="92.87" width="107.6" height="75.73"/>
      </g>
      <path class="cls-25" d="M74.81,167.13c0-.26-6.93-4.42-1.49-8.47,3.63-2.7,17.84-9.28,42.63-19.75,34.07-28.25,52.57-43.22,55.49-44.92.67-.39,2.15,3.88,2.15,4,0,.92-16.59,14.55-49.77,40.91h-7.87l-1.46,3.98-20.94,14.18-1.6,2.52c-11.43,5.99-17.15,8.5-17.15,7.53Z"/>
      <g>
        <path class="cls-2" d="M74.26,166.6c0-.34-2.71-4.21-4.21-21.08-.9-10.06-2.2-33.33-3.91-69.83,1.48-30.29,1.48-45.29,0-45-1.17.23-2.62.96-4.23,2.76-.28.32-.71.95-1.26,1.88l.14,34.44,5.35,5.91-5.35,5.87v72.27c.02.93.26,1.73.71,2.39,1.16,1.7,3.67,4.01,4.64,4.93,2.31,2.19,8.12,6.4,8.12,5.43Z"/>
        <g class="cls-18">
          <rect class="cls-4" x="59.7" y="29.67" width="15.5" height="138.62"/>
        </g>
      </g>
      <g>
        <path class="cls-2" d="M92.54,59.58c-1.09.29-1.79.51-2.1.65-.31.14-.54.55-.68,1.22.13.84.25,1.42.38,1.73.13.31.87.7,2.25,1.16,1.6.37,2.59.52,2.96.43.37-.08.83-.74,1.39-1.97.15-1.84-.02-2.91-.52-3.22-.5-.31-1.72-.31-3.68,0Z"/>
        <g class="cls-19">
          <rect class="cls-4" x="88.82" y="58.53" width="9.01" height="7.05"/>
        </g>
      </g>
      <g class="cls-24">
        <rect class="cls-11" x="76.01" y="52.83" width="12.11" height="8.89"/>
      </g>
      <g>
        <path class="cls-2" d="M84.94,44.72c-.46,2.38-.55,4.14-.26,5.28.29,1.14,1.48,2.17,3.56,3.07,2.67,1.48,4.49,2.07,5.46,1.76.97-.31,1.64-1.69,2.01-4.14.41-2.27.41-3.88,0-4.84-.41-.96-1.54-1.99-3.39-3.09-2.15-.36-3.62-.44-4.42-.25-.8.2-1.79.93-2.96,2.21Z"/>
        <g class="cls-22">
          <rect class="cls-4" x="83.45" y="41.59" width="13.62" height="14.29"/>
        </g>
      </g>
      <g class="cls-21">
        <polygon class="cls-1" points="80.72 140.08 83.07 87.77 126.44 88.95 124.1 141.26 80.72 140.08"/>
      </g>
      <path class="cls-25" d="M116.26,138.64l.3-6.6,6.62-4.36.05-1.22-6.58,3.42c-2.77-4.63-5.43-9.16-7.97-13.6-3.82-6.66-6.91-12.93-8.41-14.08-1-.76-6.43-4.97-16.27-12.6l-.08,1.78c8.78,6.67,13.86,10.64,15.24,11.9,1.38,1.26,4.26,5.91,8.62,13.94,4.33,8.4,6.64,13.07,6.93,13.99.3.93.37,3.64.21,8.15.3.08.52.08.68,0s.37-.32.66-.71Z"/>
      <g class="cls-23">
        <polygon class="cls-1" points="172.8 130.86 117.66 133.86 114.31 96.62 169.45 93.62 172.8 130.86"/>
      </g>
      <path class="cls-25" d="M168.83,101.63c-.42-1.14-.64-1.87-.67-2.19-.03-.33.06-1.09.27-2.29l-1.25,1.19c-.85.54-2.78,1.39-5.76,2.55-2.99,1.15-6.62,2.48-10.9,3.98l-32.23,25.48,2.7-.79,30.25-24.04c5.04-1.86,8.62-3.03,10.74-3.49,2.12-.47,4.4-.59,6.85-.38Z"/>
    </g>
  </g>
</svg>