<?xml version="1.0" encoding="UTF-8"?>
<svg id="Layer_2" data-name="Layer 2" xmlns="http://www.w3.org/2000/svg" xmlns:xlink="http://www.w3.org/1999/xlink" viewBox="0 0 196.33 160.32">
  <defs>
    <style>
      .cls-1 {
        fill: none;
      }

      .cls-1, .cls-2, .cls-3, .cls-4, .cls-5, .cls-6 {
        fill-rule: evenodd;
      }

      .cls-1, .cls-7 {
        stroke: #635d68;
        stroke-width: 2.75px;
      }

      .cls-2 {
        fill: #bcb7bb;
      }

      .cls-3 {
        fill: #837e86;
      }

      .cls-8, .cls-5 {
        fill: #635d68;
      }

      .cls-4, .cls-7 {
        fill: #d9dadb;
      }

      .cls-9 {
        clip-path: url(#clippath);
      }

      .cls-7 {
        clip-rule: evenodd;
      }

      .cls-6 {
        fill: #d2cad0;
        stroke: rgba(151, 151, 151, .17);
        stroke-width: .26px;
      }
    </style>
    <clipPath id="clippath">
      <path class="cls-7" d="M100.73,3.02l-60.84-.19c-8.75,3.33-15.64,8.51-20.66,15.53-5.02,7.02-8.67,17.43-10.94,31.23v53.03c2.16,14.66,5.81,25.48,10.94,32.44,5.14,6.97,12.02,12.14,20.66,15.53h119.97c10.08-3.39,17.68-8.56,22.82-15.53,5.14-6.97,8.64-17.78,10.5-32.44v-53.03c-1.98-13.81-5.48-24.22-10.5-31.23-5.02-7.01-12.62-12.13-22.82-15.34h-59.13Z"/>
    </clipPath>
  </defs>
  <g id="Layer_9" data-name="Layer 9">
    <g>
      <path id="Path" class="cls-5" d="M100.73,12.74l-60.84-.19c-8.75,3.33-15.64,8.51-20.66,15.53-5.02,7.02-8.67,17.43-10.94,31.23v53.03c2.16,14.66,5.81,25.48,10.94,32.44,5.14,6.97,12.02,12.14,20.66,15.53h119.97c10.08-3.39,17.68-8.56,22.82-15.53,5.14-6.97,8.64-17.78,10.5-32.44v-53.03c-1.98-13.81-5.48-24.22-10.5-31.23-5.02-7.01-12.62-12.13-22.82-15.34h-59.13Z"/>
      <g>
        <path class="cls-4" d="M100.73,3.02l-60.84-.19c-8.75,3.33-15.64,8.51-20.66,15.53-5.02,7.02-8.67,17.43-10.94,31.23v53.03c2.16,14.66,5.81,25.48,10.94,32.44,5.14,6.97,12.02,12.14,20.66,15.53h119.97c10.08-3.39,17.68-8.56,22.82-15.53,5.14-6.97,8.64-17.78,10.5-32.44v-53.03c-1.98-13.81-5.48-24.22-10.5-31.23-5.02-7.01-12.62-12.13-22.82-15.34h-59.13Z"/>
        <g class="cls-9">
          <path id="Path-2" data-name="Path" class="cls-3" d="M191.78,92.69c0,3.74.04,6.13.13,7.19.09,1.05.47,3.47,1.13,7.23l-1.72-3.46c-1.08-1.5-3.36-3.69-6.85-6.57-3.49-2.88-7.7-6.13-12.64-9.76L129.36,14.66l3.06,1.81,39.91,68.6c5.85,4.58,9.95,7.33,12.29,8.25,2.34.92,4.72.71,7.15-.63Z"/>
          <path id="Path-3" data-name="Path" class="cls-3" d="M144.63,41.56c.2-.48.55-.48,1.04,0s2.24,2.61,5.23,6.39l-1.91-1.38c-.9-.56-2.35-1.27-4.36-2.15-2.01-.88-4.34-1.83-6.99-2.86l-41.43-28.1,1.44.44,39.08,26.55c3.26,1.35,5.34,2.09,6.24,2.21s1.45-.25,1.66-1.1Z"/>
          <path id="Path-4" data-name="Path" class="cls-3" d="M192.36,77.49c-3.47,25.51-8.44,42.75-14.92,51.73-6.48,8.98-19.02,17.05-37.62,24.2h19.26c10.21-3.89,20.91-8.17,25.69-14.87,4.87-6.81,9.23-17.84,11.54-34.74l-3.97-26.32Z"/>
          <path id="Path-5" data-name="Path" class="cls-2" d="M72.74,2.45L40.16,0c-5.18,1.71-7.93,3.6-10.04,4.69-8.8,4.5-12.16,12.79-14.95,16.29-3.24,4.07-5.09,14.58-10.04,34.44v15.32c6.12-26.87,13.75-43.94,22.88-51.22,9.14-7.28,24.05-12.96,44.73-17.06Z"/>
          <path id="Path-6" data-name="Path" class="cls-6" d="M143.45,134.02c.81-.77,1.99-1.32,3.53-1.65,1.55-.33,4.31-.63,8.28-.89,3.71.3,6.48.59,8.3.89s3.19.68,4.09,1.15c3.24-.29,5.48-.43,6.72-.43s2.36.14,3.36.43c-.88.83-1.79,1.47-2.72,1.92s-2.25.88-3.94,1.31c-7.31-.08-12.77-.3-16.37-.65-3.6-.36-7.35-1.05-11.26-2.07Z"/>
          <path id="Path-7" data-name="Path" class="cls-3" d="M143.45,133.94c2.81-.42,5.52-.63,8.12-.63,1.34,0,2.46.05,3.27.18,1.56.24,2.4.63,4.25.62.42,0,.9-.17,1.5-.17,1.36,0,3.49.17,8.21.17.44,0,3.42-.21,8.93-.62-.84.5-1.91.83-3.21.99-1.83.22-6.85.33-8.22.42-2.02.13-13.64.07-15.5-.42-1.82-.47-4.27-.65-7.36-.54Z"/>
          <path id="Path-8" data-name="Path" class="cls-5" d="M143.45,134.13c.72-.77,1.76-1.31,3.12-1.61.36-.08.84-.27,1.41-.37,1.83-.33,4.59-.61,7.16-.68,1.14-.03,2.25.18,3.23.24,1.66.1,4.34.32,6.4.81.78.18,1.74.55,2.88,1.09,3-.33,5.12-.49,6.36-.49s2.48.16,3.72.49c-.41.2-.83.32-1.25.37-.91.11-2.5.1-3.21.15-1.2.07-3.08.1-5.62.09-3.29,0-5.52-.02-6.71-.09-.94-.06-2.14.19-2.94.12-1.29-.1-2.21-.49-3.16-.64-1.26-.21-2.47-.17-3.66-.18-1.8,0-3.34.16-4.62.27-.88.08-1.92.22-3.12.43Z"/>
          <path class="cls-8" d="M30.83,109.67c-.86,1.98-5,8.31-5.05,8.89-.24,2.42,3.91,3.45,2.89,4.97-.58.88-13.87-1.55-16.14-3.3-.79.26.07,2.06.03,2.4-.06.53-.23,1.24-.2,1.78-1.68-.22-3.21-.16-5.01-.86,2.68-5.4-3.37-11.9-6.63-17.77-.79-1.43-.95-1.14-.39-2.52,12.38,11.59,21.04,13.59,27.8,3.69l9.51-12.04,32.59.05-27.2,4.53-12.2,10.16Z"/>
        </g>
        <path class="cls-1" d="M100.73,3.02l-60.84-.19c-8.75,3.33-15.64,8.51-20.66,15.53-5.02,7.02-8.67,17.43-10.94,31.23v53.03c2.16,14.66,5.81,25.48,10.94,32.44,5.14,6.97,12.02,12.14,20.66,15.53h119.97c10.08-3.39,17.68-8.56,22.82-15.53,5.14-6.97,8.64-17.78,10.5-32.44v-53.03c-1.98-13.81-5.48-24.22-10.5-31.23-5.02-7.01-12.62-12.13-22.82-15.34h-59.13Z"/>
      </g>
      <path id="Path-9" data-name="Path" class="cls-2" d="M40.2,38.82c1.97-2.52,3.21-4.51,3.73-5.96.52-1.46.21-3.21-.93-5.25-1.25-2.99-2.38-4.54-3.39-4.65-1.02-.11-2.49,1.16-4.43,3.8-1.85,2.42-2.92,4.28-3.22,5.58-.29,1.3-.04,3.04.78,5.2,1.55,1.45,2.73,2.25,3.53,2.41s2.11-.21,3.93-1.12Z"/>
      <path id="Path-10" data-name="Path" class="cls-2" d="M52.83,31.58c-1.99,2.55-3.13,4.61-3.42,6.16-.29,1.55.66,3.53,2.84,5.93,2.61,3.46,4.63,5.31,6.08,5.56,1.44.24,3.12-.98,5.02-3.68,1.85-2.46,2.79-4.39,2.82-5.79.03-1.41-.84-3.36-2.61-5.85-2.58-1.79-4.45-2.82-5.61-3.09-1.15-.27-2.86-.02-5.13.77Z"/>
      <path id="Path-11" data-name="Path" class="cls-2" d="M50.72,61.78c1.7-1.54,2.52-2.88,2.44-4.04-.08-1.15-1.77-2.94-5.07-5.37-4.11-3.36-7.07-5.31-8.89-5.85-1.81-.54-3.5.02-5.06,1.69-1.57,1.49-2.17,2.79-1.81,3.9.36,1.1,1.95,2.85,4.77,5.25,3.62,2.04,6.17,3.3,7.64,3.79,1.47.49,3.47.7,5.99.63Z"/>
    </g>
  </g>
</svg>