<?xml version="1.0" encoding="UTF-8"?>
<svg id="Layer_2" data-name="Layer 2" xmlns="http://www.w3.org/2000/svg" xmlns:xlink="http://www.w3.org/1999/xlink" viewBox="0 0 293.77 209.03">
  <defs>
    <style>
      .cls-1, .cls-2, .cls-3 {
        clip-rule: evenodd;
      }

      .cls-1, .cls-4 {
        fill: #e5e3e1;
      }

      .cls-5 {
        stroke-width: .21px;
      }

      .cls-5, .cls-6, .cls-7 {
        fill: #739d34;
      }

      .cls-5, .cls-6, .cls-7, .cls-8, .cls-9, .cls-10, .cls-11, .cls-12, .cls-13, .cls-14, .cls-4, .cls-15, .cls-16, .cls-17, .cls-18, .cls-19 {
        fill-rule: evenodd;
      }

      .cls-5, .cls-6, .cls-7, .cls-18, .cls-19 {
        stroke: rgba(151, 151, 151, .16);
      }

      .cls-6 {
        stroke-width: .23px;
      }

      .cls-7 {
        stroke-width: .28px;
      }

      .cls-8 {
        stroke: #999;
        stroke-width: 1.36px;
      }

      .cls-8, .cls-2, .cls-3, .cls-12, .cls-13 {
        stroke-miterlimit: 10;
      }

      .cls-8, .cls-12, .cls-13 {
        fill: none;
      }

      .cls-9, .cls-20 {
        fill: #bcb7bb;
      }

      .cls-2, .cls-3, .cls-12, .cls-13 {
        stroke: #749640;
      }

      .cls-2, .cls-3, .cls-17 {
        fill: #90b858;
      }

      .cls-2, .cls-12 {
        stroke-width: 1.12px;
      }

      .cls-10 {
        fill: #20164c;
        opacity: .2;
      }

      .cls-11 {
        fill: #837e86;
      }

      .cls-3, .cls-13 {
        stroke-width: 1.47px;
      }

      .cls-21 {
        clip-path: url(#clippath-1);
      }

      .cls-22 {
        clip-path: url(#clippath-2);
      }

      .cls-23, .cls-16 {
        fill: #635d68;
      }

      .cls-14 {
        fill: #6c8147;
        stroke: rgba(151, 151, 151, .17);
        stroke-width: .21px;
      }

      .cls-15 {
        fill: #d9dadb;
      }

      .cls-24 {
        clip-path: url(#clippath);
      }

      .cls-18 {
        stroke-width: .22px;
      }

      .cls-18, .cls-19 {
        fill: #4d611a;
      }

      .cls-19 {
        stroke-width: .29px;
      }
    </style>
    <clipPath id="clippath">
      <path id="Path-2" data-name="Path" class="cls-1" d="M8.29,18.83c-3.14,2.85-5.68,6.33-7.61,10.45v73.95c.62,5.43,2.67,9.58,6.14,12.43,3.47,2.85,9.09,5.75,16.87,8.69l73.64,1.4,7.39-3.72h18.15l9.06,3.72h17.43l4.52-2.7,3.13,1.97,98.85,1.58c7.58-1.35,13.45-4.27,17.6-8.77,4.15-4.5,6.23-9.36,6.23-14.59V23.1c-1.72-4.07-3.79-6.98-6.23-8.71-2.43-1.74-6.23-3.1-11.39-4.1H25.08c-8.06,2.84-13.65,5.69-16.79,8.54Z"/>
    </clipPath>
    <clipPath id="clippath-1">
      <path id="Path-21" data-name="Path" class="cls-3" d="M175.55,1.03c-4.86.58-6.65,2.35-8.63,4.39-1.32,1.36-2.08,3.23-2.27,5.6.27,2.73.72,4.61,1.35,5.64.63,1.03,1.8,1.78,3.49,2.25,7.83.19,13.31.19,16.42,0,6.63-.41,12.29-1.78,16.36-1.53,10.41.64,7.63,1.61,23.98,5.03,16.35,3.42,21.74,1.28,25.43,7.45,3.69,6.18,3.14,13.75,5.24,22.17,1.4,5.61,2.59,9.39,3.56,11.33,1.27.74,2.42,1.18,3.46,1.32,1.04.15,2.26.15,3.68,0,.19,4.71.75,7.78,1.7,9.22.94,1.44,2.92,2.25,5.94,2.43,3.45-.57,5.69-2.03,6.73-4.36,1.04-2.33,1.63-7.23,1.76-14.7,2.64.57,4.46.57,5.43,0,1.43-.84,2.46-.24,3.29-4.79,1.08-5.9.26-10.94,0-15.26-.34-5.81-.58-10.35-2.45-14.25-3.27-6.8-9.07-9.72-18.25-13.5-9.18-3.78-4.6-3.2-21.05-5.07-16.45-1.88-35.56-.16-37.94-1.67-1.58-1.01-4.69-1.58-9.34-1.71-15.37-.39-24.67-.39-27.91,0Z"/>
    </clipPath>
    <clipPath id="clippath-2">
      <path id="Path-34" data-name="Path" class="cls-2" d="M2.02,102.48c-.72,1.11-1.15,2.02-1.31,2.74-.16.72.28,2.12,1.31,4.23,3.13,2.86,5.88,4.76,8.25,5.7,2.37.94,5.84,1.4,10.4,1.37-1.56,3.14-1.95,5.4-1.16,6.79.79,1.39,3.18,2.48,7.19,3.25.09,15.1.78,25.83,2.08,32.2,1.3,6.37,3.46,9.64,6.48,9.82l2.19,5.74c-.28,14.2-.28,23.21,0,27.04.28,3.83,1.1,6.19,2.47,7.07,1.08.5,1.62-5.52,1.62-18.05s.5-29.47,1.51-50.79c.15-2.66.65-4.5,1.5-5.52.85-1.02,2.29-1.53,4.33-1.53-.59,9.39-.81,15.72-.66,19.01.15,3.29.75,5.34,1.8,6.17.86-.12,1.5-2.18,1.92-6.17.42-3.99.66-10.32.72-19.01,4.77.51,7.87.51,9.28,0,1.41-.51,2.47-2.01,3.17-4.5.67-2.14.17-3.72-1.52-4.74-1.25-.76-4.76-.37-8.19-1.03-1.18-.23-.62-2.07-5.38-2.32-4.76-.25-7.75.41-10.1-.8-2.36-1.21-1.06-1.79-2.47-4.98-1.41-3.18-5.92-1.24-8.67-2.18-1.44-.49-2.44-2.33-4.29-2.99-1.13-.4-3.35-.6-6.65-.57-1.76.07-3.52-.07-5.29-.42-1.77-.35-3.47-.94-5.11-1.78l-5.42-3.75Z"/>
    </clipPath>
  </defs>
  <g id="Layer_9" data-name="Layer 9">
    <g>
      <g>
        <g>
          <path id="Path" class="cls-4" d="M8.29,18.83c-3.14,2.85-5.68,6.33-7.61,10.45v73.95c.62,5.43,2.67,9.58,6.14,12.43,3.47,2.85,9.09,5.75,16.87,8.69l73.64,1.4,7.39-3.72h18.15l9.06,3.72h17.43l4.52-2.7,3.13,1.97,98.85,1.58c7.58-1.35,13.45-4.27,17.6-8.77,4.15-4.5,6.23-9.36,6.23-14.59V23.1c-1.72-4.07-3.79-6.98-6.23-8.71-2.43-1.74-6.23-3.1-11.39-4.1H25.08c-8.06,2.84-13.65,5.69-16.79,8.54Z"/>
          <g class="cls-24">
            <path id="Path-3" data-name="Path" class="cls-15" d="M260.01,10.29l-15.34,4.39-10.1,3.08h16.58c7.47.44,12.38,1.42,14.73,2.94,2.35,1.52,3.47,4.44,3.36,8.76l4.01,58.87,6.47,4.33V23.1c2.54-3.24.22-9.59-4.04-10.19,0-1.93-7.97-3.55-15.67-2.62Z"/>
            <path id="Path-4" data-name="Path" class="cls-11" d="M273.25,88.33l6.47,4.33v12.9c-.8,3.16-1.58,5.41-2.33,6.76-1.78,3.21-4.07,6.02-5.92,7.48-1.89,1.49-5.59,3.94-9.8,5.39-1.66.57-3.77,1.04-6.33,1.41l-24.38-.36,7.83-5.68c14.59-.42,23.11-1.75,25.56-3.99,4.83-4.41,7.8-13.82,8.9-28.24Z"/>
            <polygon id="Path-5" data-name="Path" class="cls-15" points="239.47 17.76 30.51 18.37 25.11 10.29 260.01 10.29 239.47 17.76"/>
            <path id="Path-6" data-name="Path" class="cls-15" d="M30.52,18.37c-5.04,2.08-8.69,4.06-10.96,5.96-2.27,1.9-3.88,4.83-4.84,8.79L.7,29.28c2.74-5.22,5.7-9.06,8.88-11.52,3.18-2.46,8.36-4.95,15.53-7.47l5.41,8.08Z"/>
            <polygon id="Path-7" data-name="Path" class="cls-9" points="14.72 33.12 14.72 104.01 .7 101.32 .7 29.28 14.72 33.12"/>
            <polygon id="Path-8" data-name="Path" class="cls-16" points="123.02 122.05 131.97 125.74 149.36 125.74 153.88 123.04 123.02 122.05"/>
            <polygon id="Path-9" data-name="Path" class="cls-16" points="153.88 123.04 157.01 125.02 253.07 126.59 246.73 120.4 153.88 123.04"/>
            <path id="Path-10" data-name="Path" class="cls-9" d="M279.72,23.1l-10.56,3.43c1.16,19.97,2.16,35.32,3.01,46.05.85,10.73.63,20.39-.68,28.98l8.23-4.55V23.1Z"/>
            <polygon id="Path-11" data-name="Path" class="cls-16" points="20.39 118.82 14.12 120.39 23.71 124.35 97.28 125.74 105.35 122.05 20.39 118.82"/>
            <path id="uuid-8a0c8a43-1e0a-482d-ba4f-7981bc253f0a" data-name="Path-2" class="cls-11" d="M14.72,104.01l-14.02-2.69c.01,2.22.14,3.88.39,4.99.47,2.11,1.53,4.6,2.26,5.85,1.31,2.24,4.9,4.99,10.77,8.23l6.27-1.57c-2.63-2.7-4.27-4.92-4.94-6.66-.67-1.74-.91-4.46-.74-8.15Z"/>
            <path id="Path-12" data-name="Path" class="cls-11" d="M278.28,44.08c.88,1.38,1.46,2.26,1.74,2.64.28.38.97,1.23,2.07,2.54l-1.36-1.08c-.7-.43-1.94-.98-3.72-1.65-1.78-.67-3.89-1.39-6.31-2.17l-30.63-22,1.4.32,28.86,20.79c2.94,1.03,4.89,1.58,5.84,1.65.96.07,1.66-.27,2.12-1.04Z"/>
            <path id="Path-13" data-name="Path" class="cls-9" d="M255.63,99.16c-1.02,1.01-1.6,1.86-1.74,2.53s.38,1.6,1.56,2.8c1.41,1.69,2.5,2.63,3.26,2.83.76.19,1.63-.25,2.61-1.33.95-.98,1.43-1.78,1.43-2.4,0-.62-.48-1.54-1.44-2.75-1.38-.95-2.38-1.52-2.99-1.71-.61-.19-1.51-.18-2.7.04Z"/>
            <path id="Path-14" data-name="Path" class="cls-9" d="M264.83,107.71c-.49-.75-.96-1.16-1.43-1.21-.47-.06-1.33.45-2.56,1.52-1.68,1.3-2.7,2.27-3.06,2.91-.36.64-.27,1.32.28,2.03.48.7.95,1.02,1.43.97.47-.05,1.3-.52,2.49-1.41,1.11-1.21,1.82-2.08,2.13-2.6s.56-1.25.72-2.21Z"/>
            <path id="Path-15" data-name="Path" class="cls-9" d="M255.38,113.22c1.06-1.66,1.63-2.95,1.69-3.89.06-.94-.69-2.04-2.26-3.3-1.92-1.86-3.35-2.81-4.28-2.85-.93-.04-1.9.81-2.9,2.54-.99,1.59-1.43,2.8-1.34,3.63.09.83.79,1.93,2.11,3.27,1.78.87,3.04,1.35,3.79,1.43.75.08,1.82-.2,3.19-.83Z"/>
            <path id="Path-16" data-name="Path" class="cls-9" d="M31.93,23.43c-1.56-.37-2.65-.48-3.26-.33-.61.14-.93.58-.94,1.31.06,1.74.37,2.88.95,3.41s1.86.89,3.87,1.06c2.09.46,3.49.64,4.2.55.71-.09,1.35-.53,1.91-1.32-.4-1.39-1-2.35-1.78-2.9-.78-.55-2.43-1.14-4.94-1.77Z"/>
            <path id="Path-17" data-name="Path" class="cls-9" d="M27.72,30.92c-.17-.69-.47-1.1-.91-1.24-.44-.14-1.14-.04-2.09.29-2.24.83-3.59,1.46-4.05,1.9-.46.44-.38,1.03.22,1.78.27.91.61,1.46,1.02,1.66.41.2,1.25.2,2.51.02,1.64-.78,2.65-1.42,3.04-1.94s.48-1.34.27-2.47Z"/>
            <path id="Path-18" data-name="Path" class="cls-9" d="M32.17,30.62c-.79-.16-1.38-.07-1.77.28-.39.35-.69,1.04-.91,2.09-.46,2.48-.6,4.03-.42,4.65s.81.83,1.91.62c1.06.17,1.81.1,2.25-.19.43-.29.92-1.07,1.46-2.33.16-1.89.09-3.13-.2-3.73-.29-.6-1.07-1.06-2.32-1.39Z"/>
            <path class="cls-23" d="M223.98,116.84c.32.73,1.86,3.26,1.88,3.45.07.79-1.52.56-1.14,1.17.22.35,5.33,1.36,6.21,1.12.3.19-.04.63-.03.75.02.17.08.42.06.58.65.16,1.23.38,1.93.4-.99-2.04,1.37-3.27,2.66-4.67.31-.34.37-.23.17-.74-4.83,1.97-8.16,1.45-10.69-2.55l-3.57-5.03-12.51-4.33,10.41,5.04,4.61,4.8Z"/>
            <path class="cls-20" d="M199.14,20.48c.77,5.02,7.17,8.47,14.28,7.7,7.12-.77,12.26-5.47,11.49-10.49l-24.79-.21-.98,3.01Z"/>
            <path class="cls-23" d="M68.31,108.8c-.48.31-2.28,5.83-2.68,6.74-.54,1.23-3.1,3.9-2.21,5.24-3.89.65-9.1,1.7-13.01,1.73-.48,0-1.75-.38-1.84-.38l.13-.18c2.31-1.03,4.2-3.7,6.16-4.85,1.65-.96,3.84-.64,5.13-1.27,1.36-.66,7.08-6.58,7.68-7.83,5.37.32,10.67-1.23,15.94-4-4.66,3.56-9.81,4.96-15.3,4.8Z"/>
            <path class="cls-20" d="M80.19,110.85c-2.07,6.14-7.44,7.01-14.1,8.19l14.1-8.19Z"/>
          </g>
        </g>
        <path id="Path-19" data-name="Path" class="cls-8" d="M8.29,18.83c-3.14,2.85-5.68,6.33-7.61,10.45v73.95c.62,5.43,2.67,9.58,6.14,12.43,3.47,2.85,9.09,5.75,16.87,8.69l73.64,1.4,7.39-3.72h18.15l9.06,3.72h17.43l4.52-2.7,3.13,1.97,98.85,1.58c7.58-1.35,13.45-4.27,17.6-8.77,4.15-4.5,6.23-9.36,6.23-14.59V23.1c-1.72-4.07-3.79-6.98-6.23-8.71-2.43-1.74-6.23-3.1-11.39-4.1H25.08c-8.06,2.84-13.65,5.69-16.79,8.54Z"/>
      </g>
      <g id="Hiasan-Bar-Start-Kiir-Copy">
        <g>
          <path id="Path-20" data-name="Path" class="cls-17" d="M175.55,1.03c-4.86.58-6.65,2.35-8.63,4.39-1.32,1.36-2.08,3.23-2.27,5.6.27,2.73.72,4.61,1.35,5.64.63,1.03,1.8,1.78,3.49,2.25,7.83.19,13.31.19,16.42,0,6.63-.41,12.29-1.78,16.36-1.53,10.41.64,7.63,1.61,23.98,5.03,16.35,3.42,21.74,1.28,25.43,7.45,3.69,6.18,3.14,13.75,5.24,22.17,1.4,5.61,2.59,9.39,3.56,11.33,1.27.74,2.42,1.18,3.46,1.32,1.04.15,2.26.15,3.68,0,.19,4.71.75,7.78,1.7,9.22.94,1.44,2.92,2.25,5.94,2.43,3.45-.57,5.69-2.03,6.73-4.36,1.04-2.33,1.63-7.23,1.76-14.7,2.64.57,4.46.57,5.43,0,1.43-.84,2.46-.24,3.29-4.79,1.08-5.9.26-10.94,0-15.26-.34-5.81-.58-10.35-2.45-14.25-3.27-6.8-9.07-9.72-18.25-13.5-9.18-3.78-4.6-3.2-21.05-5.07-16.45-1.88-35.56-.16-37.94-1.67-1.58-1.01-4.69-1.58-9.34-1.71-15.37-.39-24.67-.39-27.91,0Z"/>
          <g class="cls-21">
            <path id="Path-22" data-name="Path" class="cls-10" d="M169.7,15.63c-.97,1.29,3.14,2.26,12.33,2.94,13.78,1.01,15.29-1.67,21.41,0,4.7,1.29,10.78,4.22,14.94,4.22,7.78,0,21.75,3.1,23.28,5.1.44.57,3.39,3.15,4.76,8.8,1.25,5.16.82,13.08,3.49,20.34.85,2.29,2.7,4.52,5.57,6.69,2.52,1.17,4.38,1.91,5.56,2.22s2.18.31,2.97,0c.86,6.65,1.72,10.87,2.59,12.68.87,1.81,2.64,2.96,5.32,3.46,3.24.38,6.19-.25,8.84-1.87,2.65-1.62,4.55-8.86,5.71-21.72,1.52.03,2.61-.46,3.26-1.46.65-1,1.4-2.34,2.25-4.02-.85.96-1.77,1.5-2.76,1.65-.99.14-2.63-.04-4.92-.54-.15,7.51-.74,12.4-1.76,14.7-1.02,2.29-3.26,3.74-6.73,4.36-3.05-.32-5.11-1.29-6.17-2.92-1.06-1.62-1.55-4.53-1.47-8.73-3.06.47-5.17.25-6.33-.67-1.16-.91-2.19-3.16-3.09-6.74-2.42-14.63-4.6-23.77-6.52-27.41-1.93-3.64-6.75-5.47-14.46-5.48-8.33-1.42-15.37-2.93-21.1-4.54-5.74-1.6-10.82-2.4-15.27-2.4-3.45.26-5.88.46-7.29.61-3.04.32-5.26.75-7.64.86-4.03.19-9.62.15-16.75-.11Z"/>
            <path id="Path-23" data-name="Path" class="cls-19" d="M293.01,27.62c-2.79,6.26-9.28,3.26-12.9-.2,1.29,7.87,1.69,13.8,1.2,17.78-.42,3.36-3.07,7.71-7.03,6.31s-4.07-6.57-4.3-10.08c-.18,2.33-.11,5.59-.92,7.63-5.13,3.71-5.14-7.12-5.32-9.51-2.55,1.5-5.07.09-7.56-4.23-2.49-4.32-3.37-8.82-2.64-13.48-1.35,1.71-3.7,1.85-7.04.42-3.41-1.43-6.18-4.11-8.09-7.29-.17.4-.89.89-1.32,1.17-.74.48-1.6.54-2.45.52-2.6-.08-4.93-1.33-6.85-3.05-1.03,1.51-2.45,2.08-4.27,1.71-1.81-.38-3.41-1.57-4.81-3.59-1.75,1.46-3.57,2.09-5.46,1.89s-3.42-1.04-4.58-2.51h-12.61l-10.33,1.06c-3.26.29-5.63.15-7.1-.44-1.47-.58-2.78-1.42-3.94-2.49-4.06,4.78-7.44,5.15-11.6.6.82,7.64,5.37,9.02,12.33,8.71,5.26.07,10.56.05,15.74-1.01,7.89-1.3,15.2-.98,22.82,1.57,12.12,3.19,19.94,4.94,23.45,5.24,7.85.67,7.43.93,9.63,1.57,5.54,1.6,7.1,9.53,7.95,14.2.86,4.67,1.56,10.83,2.61,14.5.9,3.14,1.07,6.62,2.35,9.7,1.87,4.48,4.44,4.17,8.62,4.15-.04,4.79-.28,10.82,5.12,12.26,3.59.91,8.06-.59,9.6-4.29.97-2.32,1.57-7.68,1.81-16.09,3.87.98,6.44.75,7.73-.69,2.08-2.34,1.68-6.61,1.71-9.48.04-4.13-.13-8.25-.42-12.37-.11-1.61-.22-3.21-.4-4.81-.13-1.14-1.17-4.37-.74-5.35Z"/>
            <path id="Path-24" data-name="Path" class="cls-7" d="M291.88,24.43c-.79,1.68-2.09,2.77-3.92,3.27-2.74.74-6.96-1.48-6.96-.46,0,.66,1.68,2.2,3.52,3.14,1,.51,2.09.72,2.89.81,2.26.27,4.44-.83,5.16-2.11.48-.85.25-2.4-.69-4.65Z"/>
            <path id="Path-25" data-name="Path" class="cls-7" d="M280.63,47.85c-.52,1.1-2.18,1.43-4.96,1.01s-4.69-2.35-5.71-5.78c-.16,2.16.18,4.08,1.03,5.78.85,1.69,2.21,2.71,4.08,3.04,1.52.21,2.66.05,3.42-.47s1.47-1.71,2.14-3.58Z"/>
            <path id="Path-26" data-name="Path" class="cls-7" d="M269.71,44.05c-.89,2.93-1.78,4.3-2.67,4.1-.9-.2-1.75-1.14-2.55-2.84.06,2.66.65,4.14,1.76,4.46.64.18,2.25.11,2.65-.67.4-.78.67-2.46.82-5.05Z"/>
            <path id="Path-27" data-name="Path" class="cls-7" d="M239.04,15.91c1.91,2.45,4.21,4.15,6.91,5.08,2.7.94,5.24,1.3,7.62,1.1-.64.7-1.26,1.1-1.88,1.18-1.46.19-3.76-.33-5.74-1.18-3.25-1.39-5.55-3.45-6.91-6.18Z"/>
            <path id="Path-28" data-name="Path" class="cls-7" d="M238.06,15.2c-.48,1.31-1.75,1.84-3.81,1.59-2.06-.25-4-1.16-5.82-2.72,1.28.88,2.88,1.45,4.82,1.68,1.94.24,3.54.05,4.82-.56Z"/>
            <path id="Path-29" data-name="Path" class="cls-7" d="M227.48,13.99c-.58,1.48-1.76,2.03-3.54,1.65-1.79-.38-3.31-1.46-4.58-3.25,1.37,1.1,2.68,1.78,3.9,2.04,1.23.25,2.69.11,4.4-.44"/>
            <path id="Path-30" data-name="Path" class="cls-7" d="M218.42,12.1c-1.46,1.41-3.09,2.07-4.88,1.96-1.79-.1-3.43-.91-4.91-2.42,1.72.72,3.35,1.13,4.91,1.22,1.55.09,3.18-.16,4.88-.76Z"/>
            <path id="Path-31" data-name="Path" class="cls-7" d="M174.12,10.2c-1.15,1.67-2.47,2.64-3.95,2.92-.87.16-3.49.21-4.5-.42-.54-.34-1.14-1.21-1.81-2.62,1.6.87,3.31,1.26,5.13,1.19,1.82-.08,3.53-.43,5.13-1.06Z"/>
          </g>
          <path id="Path-32" data-name="Path" class="cls-13" d="M175.55,1.03c-4.86.58-6.65,2.35-8.63,4.39-1.32,1.36-2.08,3.23-2.27,5.6.27,2.73.72,4.61,1.35,5.64.63,1.03,1.8,1.78,3.49,2.25,7.83.19,13.31.19,16.42,0,6.63-.41,12.29-1.78,16.36-1.53,10.41.64,7.63,1.61,23.98,5.03,16.35,3.42,21.74,1.28,25.43,7.45,3.69,6.18,3.14,13.75,5.24,22.17,1.4,5.61,2.59,9.39,3.56,11.33,1.27.74,2.42,1.18,3.46,1.32,1.04.15,2.26.15,3.68,0,.19,4.71.75,7.78,1.7,9.22.94,1.44,2.92,2.25,5.94,2.43,3.45-.57,5.69-2.03,6.73-4.36,1.04-2.33,1.63-7.23,1.76-14.7,2.64.57,4.46.57,5.43,0,1.43-.84,2.46-.24,3.29-4.79,1.08-5.9.26-10.94,0-15.26-.34-5.81-.58-10.35-2.45-14.25-3.27-6.8-9.07-9.72-18.25-13.5-9.18-3.78-4.6-3.2-21.05-5.07-16.45-1.88-35.56-.16-37.94-1.67-1.58-1.01-4.69-1.58-9.34-1.71-15.37-.39-24.67-.39-27.91,0Z"/>
        </g>
      </g>
      <g id="Hiasa-Bar-Start-Bawah-Copy">
        <g>
          <path id="Path-33" data-name="Path" class="cls-17" d="M2.02,102.48c-.72,1.11-1.15,2.02-1.31,2.74-.16.72.28,2.12,1.31,4.23,3.13,2.86,5.88,4.76,8.25,5.7,2.37.94,5.84,1.4,10.4,1.37-1.56,3.14-1.95,5.4-1.16,6.79.79,1.39,3.18,2.48,7.19,3.25.09,15.1.78,25.83,2.08,32.2,1.3,6.37,3.46,9.64,6.48,9.82l2.19,5.74c-.28,14.2-.28,23.21,0,27.04.28,3.83,1.1,6.19,2.47,7.07,1.08.5,1.62-5.52,1.62-18.05s.5-29.47,1.51-50.79c.15-2.66.65-4.5,1.5-5.52.85-1.02,2.29-1.53,4.33-1.53-.59,9.39-.81,15.72-.66,19.01.15,3.29.75,5.34,1.8,6.17.86-.12,1.5-2.18,1.92-6.17.42-3.99.66-10.32.72-19.01,4.77.51,7.87.51,9.28,0,1.41-.51,2.47-2.01,3.17-4.5.67-2.14.17-3.72-1.52-4.74-1.25-.76-4.76-.37-8.19-1.03-1.18-.23-.62-2.07-5.38-2.32-4.76-.25-7.75.41-10.1-.8-2.36-1.21-1.06-1.79-2.47-4.98-1.41-3.18-5.92-1.24-8.67-2.18-1.44-.49-2.44-2.33-4.29-2.99-1.13-.4-3.35-.6-6.65-.57-1.76.07-3.52-.07-5.29-.42-1.77-.35-3.47-.94-5.11-1.78l-5.42-3.75Z"/>
          <g class="cls-22">
            <path id="Path-35" data-name="Path" class="cls-18" d="M4.82,106.99c.38.97.84,1.88,1.58,2.62,1.43,1.41,3.38,2.19,5.19,2.99,2.39,1.05,4.87,1.86,7.28,2.82.58.23,1.17.48,1.66.87-6.14.66-12.8-1.24-17.32-5.55-1.38-1.37-2.57-3.22-2.54-5.22.05-.99.75-1.85,1.19-2.72.39-.74,1.56.69,1.87,1.02.64.89.68,2.17,1.08,3.19Z"/>
            <path id="Path-36" data-name="Path" class="cls-18" d="M20.65,118.02c-.19.38,1.58,2.39,1.85,2.71,2.01,2.45,4.94,4.15,8.18,3.89.09,2.49.29,4.99.29,7.48.17,4.34.33,8.67.5,13.01.05,1.19.09,2.38.14,3.57.05,1.27.39,2.17.87,3.41.27.7.61,1.4,1.12,1.95.58.62,1.68,1.24,2.51.71.74-.48.79-1.6.79-2.39,0-2.05.22-4.28.66-6.67.34,1.66.58,3.06.73,4.2.15,1.14.25,2.35.29,3.61.05,13,.16,23.14.33,30.4.17,7.26.32,11.01.45,11.24.79,9.38,1.3,3.7,1.55-17.02.09-7.96.14-15.93.07-23.9-.05-6.05-.19-12.09-.41-18.14-.05-2.16-.39-4.33-.22-6.48.99-2.67,5.88.23,7.57.52,2.82.48,5.68.67,8.52.87.77.05,1.55.11,2.32.16,1.31.09,2.9-.02,4.12.39-.39.46-.91.82-1.41,1.2-.82.29-1.88.42-3.2.39-1.31-.03-3.17-.22-5.57-.58-.05,8.52-.28,14.84-.72,18.98-.43,4.14-1.07,6.19-1.91,6.16-1.02-.15-1.62-2.2-1.8-6.16-.18-3.96.04-10.29.66-18.98-1.37.02-2.38.22-3.03.58-1.87,1.05-2.42,3.17-2.63,5.14-.59,5.39-.55,10.86-.78,16.27-.45,10.78-.64,18.11-.71,23.58-.04,3.05-.04,6.56,0,9.38.18,14.33-.4,21.28-1.75,20.87-1.27-.58-2.09-3.49-2.47-8.72-.38-5.23-.38-13.69,0-25.38-.78-1.89-1.5-3.81-2.18-5.73-2.47-.64-3.82-2.02-4.79-4.37-1.74-4.23-2.63-8.82-2.9-13.38-.29-4.92-.55-11.98-.76-21.32-.03-.81-.01-1.84-.39-2.47-.48-.92-2.03-1.12-3.23-1.48-1.76-.39-3.18-1.57-3.93-3.21-.13-.87.29-2.3,1.27-4.27Z"/>
            <path id="Path-37" data-name="Path" class="cls-5" d="M20.93,117.3c-1.19,2.64,2.05,4.88,3.75,6.43,1.74,1.59,3.74.97,6.01.9-2.3-1.59-5.21-2.17-7.14-4.27-.92-.95-1.72-2.01-2.53-3.06-.02-.03-.07-.03-.09,0Z"/>
            <path id="Path-38" data-name="Path" class="cls-6" d="M31.91,150.46c.55,1.58,1.03,2.7,1.45,3.35.44.7.99,1.15,1.64,1.36.73.07,1.24-.07,1.53-.41.29-.34.48-1.04.57-2.09-.49.48-.89.78-1.19.91-.3.13-.6.13-.91,0-.25-.14-.59-.44-1.02-.9-.4-.43-1.05-1.18-1.96-2.26-.04-.05-.13-.01-.11.04Z"/>
            <path id="Path-39" data-name="Path" class="cls-14" d="M52.88,132.58c-1.36,1.01-2.25,1.86-2.68,2.56s-.71,1.76-.84,3.2c-.21,2.74-.31,4.78-.31,6.14s.1,2.89.31,4.61c.3,1.9.58,3.19.84,3.89s.68,1.23,1.26,1.62c.51-2.15.85-4.62,1.03-7.4.18-2.78.31-7.65.39-14.61Z"/>
          </g>
          <path id="Path-40" data-name="Path" class="cls-12" d="M2.02,102.48c-.72,1.11-1.15,2.02-1.31,2.74-.16.72.28,2.12,1.31,4.23,3.13,2.86,5.88,4.76,8.25,5.7,2.37.94,5.84,1.4,10.4,1.37-1.56,3.14-1.95,5.4-1.16,6.79.79,1.39,3.18,2.48,7.19,3.25.09,15.1.78,25.83,2.08,32.2,1.3,6.37,3.46,9.64,6.48,9.82l2.19,5.74c-.28,14.2-.28,23.21,0,27.04.28,3.83,1.1,6.19,2.47,7.07,1.08.5,1.62-5.52,1.62-18.05s.5-29.47,1.51-50.79c.15-2.66.65-4.5,1.5-5.52.85-1.02,2.29-1.53,4.33-1.53-.59,9.39-.81,15.72-.66,19.01.15,3.29.75,5.34,1.8,6.17.86-.12,1.5-2.18,1.92-6.17.42-3.99.66-10.32.72-19.01,4.77.51,7.87.51,9.28,0,1.41-.51,2.47-2.01,3.17-4.5.67-2.14.17-3.72-1.52-4.74-1.25-.76-4.76-.37-8.19-1.03-1.18-.23-.62-2.07-5.38-2.32-4.76-.25-7.75.41-10.1-.8-2.36-1.21-1.06-1.79-2.47-4.98-1.41-3.18-5.92-1.24-8.67-2.18-1.44-.49-2.44-2.33-4.29-2.99-1.13-.4-3.35-.6-6.65-.57-1.76.07-3.52-.07-5.29-.42-1.77-.35-3.47-.94-5.11-1.78l-5.42-3.75Z"/>
        </g>
      </g>
    </g>
  </g>
</svg>