<?xml version="1.0" encoding="UTF-8"?>
<svg id="Layer_2" data-name="Layer 2" xmlns="http://www.w3.org/2000/svg" xmlns:xlink="http://www.w3.org/1999/xlink" viewBox="0 0 310.84 434.59">
  <defs>
    <style>
      .cls-1, .cls-2, .cls-3, .cls-4, .cls-5, .cls-6, .cls-7, .cls-8, .cls-9 {
        fill: none;
      }

      .cls-10, .cls-2, .cls-3, .cls-4, .cls-11, .cls-12, .cls-5, .cls-13, .cls-14, .cls-15, .cls-6, .cls-7, .cls-8, .cls-16, .cls-9, .cls-17 {
        stroke-miterlimit: 10;
      }

      .cls-10, .cls-3, .cls-11, .cls-5, .cls-13, .cls-15, .cls-6, .cls-7, .cls-8, .cls-16 {
        stroke-width: 1.18px;
      }

      .cls-10, .cls-18 {
        fill: #f3c0bd;
      }

      .cls-10, .cls-7 {
        stroke: #dba4a2;
      }

      .cls-2, .cls-14 {
        stroke: #c6c6c6;
        stroke-width: 1.23px;
      }

      .cls-3, .cls-13 {
        stroke: #ee618b;
      }

      .cls-19, .cls-16 {
        fill: #d7818e;
      }

      .cls-4, .cls-12, .cls-9, .cls-17 {
        stroke-width: 1.84px;
      }

      .cls-4, .cls-17 {
        stroke: #fcc8b6;
      }

      .cls-11, .cls-8 {
        stroke: #e09da7;
      }

      .cls-11, .cls-20 {
        fill: #f4bdc3;
      }

      .cls-12, .cls-21 {
        fill: #1e0a0a;
      }

      .cls-12, .cls-9 {
        stroke: #260f0f;
      }

      .cls-5, .cls-16 {
        stroke: #af6875;
      }

      .cls-22 {
        fill: #c17e84;
      }

      .cls-23, .cls-13 {
        fill: #ee618b;
      }

      .cls-24, .cls-17 {
        fill: #ffe3d7;
      }

      .cls-14, .cls-25 {
        fill: #f9f9f9;
      }

      .cls-26 {
        clip-path: url(#clippath-17);
      }

      .cls-27 {
        clip-path: url(#clippath-11);
      }

      .cls-28 {
        clip-path: url(#clippath-16);
      }

      .cls-29 {
        clip-path: url(#clippath-18);
      }

      .cls-30 {
        clip-path: url(#clippath-10);
      }

      .cls-31 {
        clip-path: url(#clippath-15);
      }

      .cls-32 {
        clip-path: url(#clippath-13);
      }

      .cls-33 {
        clip-path: url(#clippath-14);
      }

      .cls-34 {
        clip-path: url(#clippath-12);
      }

      .cls-35 {
        fill: #ddd;
      }

      .cls-36 {
        clip-path: url(#clippath-1);
      }

      .cls-37 {
        clip-path: url(#clippath-3);
      }

      .cls-38 {
        clip-path: url(#clippath-4);
      }

      .cls-39 {
        clip-path: url(#clippath-2);
      }

      .cls-40 {
        clip-path: url(#clippath-7);
      }

      .cls-41 {
        clip-path: url(#clippath-6);
      }

      .cls-42 {
        clip-path: url(#clippath-9);
      }

      .cls-43 {
        clip-path: url(#clippath-8);
      }

      .cls-44 {
        clip-path: url(#clippath-5);
      }

      .cls-45 {
        fill: #e25550;
      }

      .cls-46 {
        fill: #e48f94;
      }

      .cls-15, .cls-6 {
        stroke: #8c2323;
      }

      .cls-15, .cls-47 {
        fill: #a4231e;
      }

      .cls-48 {
        fill: #191918;
      }

      .cls-49 {
        fill: #260f0f;
      }

      .cls-50, .cls-51, .cls-52 {
        fill: #20164c;
      }

      .cls-50, .cls-53 {
        opacity: .15;
      }

      .cls-51 {
        opacity: .2;
      }

      .cls-52 {
        opacity: .3;
      }

      .cls-54 {
        fill: #0c0812;
      }

      .cls-55 {
        fill: #b33c33;
      }

      .cls-53 {
        fill: #d7c5ff;
      }

      .cls-56 {
        fill: #8c2f2f;
      }

      .cls-57 {
        clip-path: url(#clippath);
      }
    </style>
    <clipPath id="clippath">
      <path class="cls-12" d="M138.83,30.62c-12.27-25.76,8.75-36.72,11.87-.78,9.01-29.27,22.43-19.2,13.44,2.5l-25.31-1.72Z"/>
    </clipPath>
    <clipPath id="clippath-1">
      <path class="cls-12" d="M26.81,137.46C46.29,19.61,187.2-14.17,251.67,84.86c7.17,11.01,11.82,23.46,13.94,36.42,12.47,76.37-6.6,120.79,1.05,142.3,14.28,33.04,36.85,33.12,42.32,79.37-16.25-45.15-34.06-14.92-55.93-70.62-.64,29.4,3.61,54.72,22.19,68.12-14.11-8.56-23.9-22.48-30.21-40.73.05,43.85,35.67,36.27,35.94,87.49-17.68-22.86-44.88-48.63-48.12-83.12-.44,15.99,4.91,34.62,13.45,54.71-21.73-27.03-34.15-44.42-28.72-66.68-7.92,20.75-6.64,38.01,12.14,56.35-43.53-12.11-59.34-41.58-53.54-84.58l-30,2.19c6.95,52.77-2.08,78.91-19.23,91.53,2.28-38.75-28.58-19.04-14.64-71.52-32.42,24.36,10.82,20.06-8.14,64.51-.7,29.53-40.08,32.13-19.4,76.87-33.8-72.91,13.79-50.67-9.95-111.14l14.56,50.2c-20.43-28.05-37.47-58.39-45.35-94.92-12.41,32.06-8.39,48.47,9.16,69.6-32.51-27.47-24.71-57.18-23.66-96.65,1.15-43.02-15.95-73.7-2.72-107.12Z"/>
    </clipPath>
    <clipPath id="clippath-2">
      <path class="cls-10" d="M122.42,347.29c-7.03,8.85-4.21,16.55,13.02,22.47,25.59,10.39-11.81,18.14,11.77,33.63l7.01-8.93c-13.83-6.9,16.35-9.76-6.09-23.4l-25.72-23.77Z"/>
    </clipPath>
    <clipPath id="clippath-3">
      <path class="cls-10" d="M187.05,373.42l8.27-2.55c12.57,11.77-1.38,18.47-19.45,21.3-12.41,1.46-17.33,4.38-15.65,8.45l-12.27,1.83c-4.01-4.15-2.8-10.16,14.4-14.26,21.73-4.67,37.03-7.82,24.71-14.77Z"/>
    </clipPath>
    <clipPath id="clippath-4">
      <path class="cls-10" d="M207.62,365.74c9.42,1.23,14.63,4.81,14.84,11.18l9.34-2.79c3.67-8.78-4.24-11.93-13.71-14.45l-10.47,6.06Z"/>
    </clipPath>
    <clipPath id="clippath-5">
      <path class="cls-10" d="M127.87,349.04c5.39,15.86-3.76,21.83-12.77,31.64-6.26,12.09,1.01,22.23,21.82,30.39,8.84,2.93,15.94-1.03,29.96,1.32l2.25-8.42c-10.83-10.09-20.64.74-32.22-4.57-11.28-6.07-11.17-16.37-.67-22.93,4.68-2.2,7.84-4.04,4.74-13.21l-13.12-14.22Z"/>
    </clipPath>
    <clipPath id="clippath-6">
      <path class="cls-10" d="M223.57,357.7c8.39-1.77,17.94,2.88,19.29,5.49,1.97,3.81-5.08,8.51-8.6,9.26-26.64,4.21-32.85,3.71-34.13,19.63-7.47,4.29-29.49-4.62-35.57,14.7-1.16,5.62-.47,11.15,5.45,15.58,7.83,4.79,9.68,8.45,4.63,10.78,7.44-1.83,8.93-5.31,2.97-11.97-5.33-7.57-3.96-14.11,8.36-18.95,7.7-2.64,15.01,4.88,24.73-.62,9.75-7.15-10.58-19.38,22.92-22.85,8.22-.75,26.63,5.28,32-13.81,2.92-10.65-16.68-17.54-29.31-18.89l-12.75,11.65Z"/>
    </clipPath>
    <clipPath id="clippath-7">
      <path class="cls-16" d="M136.59,332.88c-26.82-.4-38.92,12.01-38.46,26.51,1.37,11.16,14.12,18.81,27.05,14.34l5.76-9.64c-15.74,3.59-21.35-1.41-21.82-10.76-.07-1.33,1.08-2.57,2.95-3.18,18.37-5.91,24.43,28.4,55.82,28.04,25.71-.91,47.38-12.17,67.17-28.24,13.82-9.49,8.03-17.65-10.06-24.98-.65-.3-12.56-4.79-12.82-3.65,0,0-1.1,4.93-1.1,4.93,39.72,14.82-32.52,13.03-60.62,8-4.53-.81-9.18-1.32-13.88-1.39Z"/>
    </clipPath>
    <clipPath id="clippath-8">
      <path class="cls-13" d="M158.27,305.18c7.38-1.59,14.6,2.32,14.65,10.05-1.17,13.6,4.93,24.84-1.67,26.22-3.32,1.15-3.72-1.77-7.08-2.55-9.46-2.23-23.8-14.91-24.67-20.57-3.68-8.7-2.93-13.61,5.18-12.79,3.53.69,5.11-4.18,13.59-.37Z"/>
    </clipPath>
    <clipPath id="clippath-9">
      <path class="cls-15" d="M167.84,290.78c-14.08,1.87-19.91,16.05-9.26,25.07,20.77,15.23,26.56,31.39,39.1,29.67,6.95-.34,3.53-3.93,7.84-6.54,12.14-7.36,17.59-29.35,11.14-36.38-6.16-11.98-14.18-17.32-26.09-12.26-4.73,2.58-13.8-1.47-22.73.44Z"/>
    </clipPath>
    <clipPath id="clippath-10">
      <path class="cls-15" d="M142.05,299.65c10.97,1.15,16.48,8.83,9.14,18.11-14.52,15.81-17.47,31.81-27.24,30.73-5.36,0-3.07-3.66-6.62-5.99-9.99-6.59-16.21-27.72-11.91-34.87,3.62-11.95,9.28-17.53,18.87-13.18,3.87,2.29,10.54-2.89,17.76,5.2Z"/>
    </clipPath>
    <clipPath id="clippath-11">
      <path class="cls-1" d="M136.04,372.51c-2.6,4.67-9.19,7.44-14.71,6.19-5.53-1.25-7.9-6.04-5.3-10.71,2.6-4.67,9.19-7.44,14.71-6.19,5.53,1.25,7.9,6.04,5.3,10.71Z"/>
    </clipPath>
    <clipPath id="clippath-12">
      <path class="cls-11" d="M139.08,268.28c3.22,8.83-7.3,15.94,2.22,18.23,2.69,5.03-9.14,8.31-1.13,10.6-2.87,4.74-1.77,7.41,6.47,6.38,8.22-1.03,16.04-2.28,22.17-4.47,4.81-1.07,5.8-3.18,1.25-6.77,14.94-4.22-1.99-7.39,0-12.59,1.04-3.8-4.39-4.3-1.63-12.22l-29.35.84Z"/>
    </clipPath>
    <clipPath id="clippath-13">
      <path class="cls-17" d="M264.55,171.94c37.18-19.61,28.28,61.01-18.83,57.65l18.83-57.65Z"/>
    </clipPath>
    <clipPath id="clippath-14">
      <path class="cls-17" d="M52.6,175.27c-37.18-19.61-28.28,61.01,18.83,57.65l-18.83-57.65Z"/>
    </clipPath>
    <clipPath id="clippath-15">
      <path class="cls-17" d="M51.61,192.02c-13.06,63.09,16.49,88.94,91.2,81.95,42.86.47,76.95-7.91,95.85-31.64,15.14-18.83,20.14-40.93,24.3-71.4-21.54-37.78-47.39-72.49-82.23-101.65-19.77-16.55-49.26-14.13-65.96,5.51-31.28,36.78-53.22,75.66-63.16,117.24Z"/>
    </clipPath>
    <clipPath id="clippath-16">
      <ellipse class="cls-14" cx="202.23" cy="186.88" rx="28.38" ry="33.51" transform="translate(-67.87 240.39) rotate(-53.95)"/>
    </clipPath>
    <clipPath id="clippath-17">
      <ellipse class="cls-14" cx="102.18" cy="199.2" rx="33.51" ry="28.38" transform="translate(-105.78 116.29) rotate(-41.11)"/>
    </clipPath>
    <clipPath id="clippath-18">
      <path class="cls-55" d="M137.11,224.83c-.01,17.22,4.69,32.24,26.25,30.52,13.27-1.06,18.45-16.69,4.69-32.71-6.35,24.84-24.74,15.21-30.94,2.19Z"/>
    </clipPath>
  </defs>
  <g id="mini-mini">
    <g>
      <g>
        <path class="cls-21" d="M138.83,30.62c-12.27-25.76,8.75-36.72,11.87-.78,9.01-29.27,22.43-19.2,13.44,2.5l-25.31-1.72Z"/>
        <g class="cls-57">
          <ellipse class="cls-53" cx="138.21" cy="9.3" rx="11.41" ry="9.3"/>
          <ellipse class="cls-53" cx="164.35" cy="13.84" rx="9.01" ry="6.94"/>
        </g>
        <path class="cls-9" d="M138.83,30.62c-12.27-25.76,8.75-36.72,11.87-.78,9.01-29.27,22.43-19.2,13.44,2.5l-25.31-1.72Z"/>
      </g>
      <g>
        <path class="cls-21" d="M26.81,137.46C46.29,19.61,187.2-14.17,251.67,84.86c7.17,11.01,11.82,23.46,13.94,36.42,12.47,76.37-6.6,120.79,1.05,142.3,14.28,33.04,36.85,33.12,42.32,79.37-16.25-45.15-34.06-14.92-55.93-70.62-.64,29.4,3.61,54.72,22.19,68.12-14.11-8.56-23.9-22.48-30.21-40.73.05,43.85,35.67,36.27,35.94,87.49-17.68-22.86-44.88-48.63-48.12-83.12-.44,15.99,4.91,34.62,13.45,54.71-21.73-27.03-34.15-44.42-28.72-66.68-7.92,20.75-6.64,38.01,12.14,56.35-43.53-12.11-59.34-41.58-53.54-84.58l-30,2.19c6.95,52.77-2.08,78.91-19.23,91.53,2.28-38.75-28.58-19.04-14.64-71.52-32.42,24.36,10.82,20.06-8.14,64.51-.7,29.53-40.08,32.13-19.4,76.87-33.8-72.91,13.79-50.67-9.95-111.14l14.56,50.2c-20.43-28.05-37.47-58.39-45.35-94.92-12.41,32.06-8.39,48.47,9.16,69.6-32.51-27.47-24.71-57.18-23.66-96.65,1.15-43.02-15.95-73.7-2.72-107.12Z"/>
        <g class="cls-36">
          <path class="cls-53" d="M179.14,26.65c81.37,25.58,115.32,68.18,100.77,122.63-13.27-46.95-53.67-87.56-100.77-122.63Z"/>
          <path class="cls-53" d="M122.01,26.65C40.64,52.24,6.69,94.84,21.24,149.29c13.27-46.95,53.67-87.56,100.77-122.63Z"/>
        </g>
        <path class="cls-9" d="M26.81,137.46C46.29,19.61,187.2-14.17,251.67,84.86c7.17,11.01,11.82,23.46,13.94,36.42,12.47,76.37-6.6,120.79,1.05,142.3,14.28,33.04,36.85,33.12,42.32,79.37-16.25-45.15-34.06-14.92-55.93-70.62-.64,29.4,3.61,54.72,22.19,68.12-14.11-8.56-23.9-22.48-30.21-40.73.05,43.85,35.67,36.27,35.94,87.49-17.68-22.86-44.88-48.63-48.12-83.12-.44,15.99,4.91,34.62,13.45,54.71-21.73-27.03-34.15-44.42-28.72-66.68-7.92,20.75-6.64,38.01,12.14,56.35-43.53-12.11-59.34-41.58-53.54-84.58l-30,2.19c6.95,52.77-2.08,78.91-19.23,91.53,2.28-38.75-28.58-19.04-14.64-71.52-32.42,24.36,10.82,20.06-8.14,64.51-.7,29.53-40.08,32.13-19.4,76.87-33.8-72.91,13.79-50.67-9.95-111.14l14.56,50.2c-20.43-28.05-37.47-58.39-45.35-94.92-12.41,32.06-8.39,48.47,9.16,69.6-32.51-27.47-24.71-57.18-23.66-96.65,1.15-43.02-15.95-73.7-2.72-107.12Z"/>
      </g>
      <g>
        <path class="cls-18" d="M122.42,347.29c-7.03,8.85-4.21,16.55,13.02,22.47,25.59,10.39-11.81,18.14,11.77,33.63l7.01-8.93c-13.83-6.9,16.35-9.76-6.09-23.4l-25.72-23.77Z"/>
        <g class="cls-39">
          <path class="cls-50" d="M146.72,404.29c-13-8.54-8.88-15.19-5.57-20.53,3.13-5.06,5.21-8.4-5.68-12.84-8.85-3.05-14.47-6.75-16.7-10.99-2.12-4.04-1.2-8.59,2.73-13.54l4.39,1.41c-6.93,8.72-3.12,15.2,12,20.39l.15.06c14.39,5.84,10.83,11.59,7.69,16.66-3.22,5.2-6.27,10.11,4.53,17.2l-3.54,2.18Z"/>
        </g>
        <path class="cls-7" d="M122.42,347.29c-7.03,8.85-4.21,16.55,13.02,22.47,25.59,10.39-11.81,18.14,11.77,33.63l7.01-8.93c-13.83-6.9,16.35-9.76-6.09-23.4l-25.72-23.77Z"/>
      </g>
      <g>
        <path class="cls-18" d="M187.05,373.42l8.27-2.55c12.57,11.77-1.38,18.47-19.45,21.3-12.41,1.46-17.33,4.38-15.65,8.45l-12.27,1.83c-4.01-4.15-2.8-10.16,14.4-14.26,21.73-4.67,37.03-7.82,24.71-14.77Z"/>
        <g class="cls-37">
          <path class="cls-50" d="M193.81,369.28c18.03,23.91-43.21,16.74-39.28,34.11l15.89-.93,37.2-16.56c-.35-4.99-5.18-10.56-13.81-16.62Z"/>
        </g>
        <path class="cls-7" d="M187.05,373.42l8.27-2.55c12.57,11.77-1.38,18.47-19.45,21.3-12.41,1.46-17.33,4.38-15.65,8.45l-12.27,1.83c-4.01-4.15-2.8-10.16,14.4-14.26,21.73-4.67,37.03-7.82,24.71-14.77Z"/>
      </g>
      <g>
        <path class="cls-18" d="M207.62,365.74c9.42,1.23,14.63,4.81,14.84,11.18l9.34-2.79c3.67-8.78-4.24-11.93-13.71-14.45l-10.47,6.06Z"/>
        <g class="cls-38">
          <path class="cls-50" d="M218.08,359.68c9.99,5.76,11.43,11.5,4.37,17.24l17.31-2.67c-.28-11.95-6.28-18.07-21.69-14.57"/>
        </g>
        <path class="cls-7" d="M207.62,365.74c9.42,1.23,14.63,4.81,14.84,11.18l9.34-2.79c3.67-8.78-4.24-11.93-13.71-14.45l-10.47,6.06Z"/>
      </g>
      <g>
        <path class="cls-18" d="M127.87,349.04c5.39,15.86-3.76,21.83-12.77,31.64-6.26,12.09,1.01,22.23,21.82,30.39,8.84,2.93,15.94-1.03,29.96,1.32l2.25-8.42c-10.83-10.09-20.64.74-32.22-4.57-11.28-6.07-11.17-16.37-.67-22.93,4.68-2.2,7.84-4.04,4.74-13.21l-13.12-14.22Z"/>
        <g class="cls-44">
          <path class="cls-50" d="M119.62,374.98c-28.23,24.35,7.44,45.55,49.52,40.13,0-2.09,5.27-6.39,1.28-5.86-10.88,1.45-67.72,1.12-50.8-34.27Z"/>
        </g>
        <path class="cls-7" d="M127.87,349.04c5.39,15.86-3.76,21.83-12.77,31.64-6.26,12.09,1.01,22.23,21.82,30.39,8.84,2.93,15.94-1.03,29.96,1.32l2.25-8.42c-10.83-10.09-20.64.74-32.22-4.57-11.28-6.07-11.17-16.37-.67-22.93,4.68-2.2,7.84-4.04,4.74-13.21l-13.12-14.22Z"/>
      </g>
      <g>
        <path class="cls-18" d="M223.57,357.7c8.39-1.77,17.94,2.88,19.29,5.49,1.97,3.81-5.08,8.51-8.6,9.26-26.64,4.21-32.85,3.71-34.13,19.63-7.47,4.29-29.49-4.62-35.57,14.7-1.16,5.62-.47,11.15,5.45,15.58,7.83,4.79,9.68,8.45,4.63,10.78,7.44-1.83,8.93-5.31,2.97-11.97-5.33-7.57-3.96-14.11,8.36-18.95,7.7-2.64,15.01,4.88,24.73-.62,9.75-7.15-10.58-19.38,22.92-22.85,8.22-.75,26.63,5.28,32-13.81,2.92-10.65-16.68-17.54-29.31-18.89l-12.75,11.65Z"/>
        <g class="cls-41">
          <path class="cls-50" d="M174.45,434.59l-1.78-2.91c2.59-.64,4.14-1.46,4.72-2.5.88-1.56-.14-4-3.02-7.26l-.1-.13c-6.25-8.96-3.15-15.99,9.23-20.9l.13-.05c4.25-1.47,8.29-.53,11.86.3,4.31,1,7.72,1.79,12.06-.63,2.69-2.06,2.39-4.72,2.04-7.8-.66-5.81-1.48-13.04,22.02-15.5,1.99-.18,4.24-.05,6.62.1,9.01.55,19.22,1.17,23.07-12.64.79-2.89-.27-5.66-3.13-8.23-5.45-4.9-16.21-8.02-23.9-8.85l.82-3.07c8.95.96,20.79,4.46,27.08,10.12,3.64,3.27,4.97,6.83,3.96,10.57-4.64,16.65-19.49,15.75-28.36,15.21-2.08-.13-4.05-.25-5.41-.12-19.04,1.99-18.53,6.49-17.89,12.19.38,3.32.81,7.08-3.31,10.13l-.22.14c-6.59,3.76-12.68,2.34-17.13,1.31-3.4-.79-5.6-1.24-7.78-.51-10.17,4.05-12.5,9.43-7.32,16.9,3.66,4.16,4.71,7.27,3.3,9.77-1.09,1.94-3.56,3.36-7.55,4.35Z"/>
        </g>
        <path class="cls-7" d="M223.57,357.7c8.39-1.77,17.94,2.88,19.29,5.49,1.97,3.81-5.08,8.51-8.6,9.26-26.64,4.21-32.85,3.71-34.13,19.63-7.47,4.29-29.49-4.62-35.57,14.7-1.16,5.62-.47,11.15,5.45,15.58,7.83,4.79,9.68,8.45,4.63,10.78,7.44-1.83,8.93-5.31,2.97-11.97-5.33-7.57-3.96-14.11,8.36-18.95,7.7-2.64,15.01,4.88,24.73-.62,9.75-7.15-10.58-19.38,22.92-22.85,8.22-.75,26.63,5.28,32-13.81,2.92-10.65-16.68-17.54-29.31-18.89l-12.75,11.65Z"/>
      </g>
      <g>
        <path class="cls-19" d="M136.59,332.88c-26.82-.4-38.92,12.01-38.46,26.51,1.37,11.16,14.12,18.81,27.05,14.34l5.76-9.64c-15.74,3.59-21.35-1.41-21.82-10.76-.07-1.33,1.08-2.57,2.95-3.18,18.37-5.91,24.43,28.4,55.82,28.04,25.71-.91,47.38-12.17,67.17-28.24,13.82-9.49,8.03-17.65-10.06-24.98-.65-.3-12.56-4.79-12.82-3.65,0,0-1.1,4.93-1.1,4.93,39.72,14.82-32.52,13.03-60.62,8-4.53-.81-9.18-1.32-13.88-1.39Z"/>
        <g class="cls-40">
          <path class="cls-51" d="M227.47,323.7c52.43,14.79,29.59,35.21-8.5,46.74-49.56,15.01-73.43,13.69-89.69-11.99,40.01,31.21,145.81-24.87,98.19-34.76Z"/>
          <path class="cls-51" d="M109.12,353.34c-.84,14.5,8.38,18.46,21.2,18.65l3.38-10.52-24.58-8.13Z"/>
          <path class="cls-51" d="M104.85,373.93c-39.07-24.44-2.48-52.58,53.52-42.18-57.92-.81-68.82,26.7-53.52,42.18Z"/>
          <path class="cls-51" d="M211.24,325.57c23.73,7.47,21.77,15.02-7.81,12.25l7.81-12.25Z"/>
          <path class="cls-51" d="M156.75,343.14c13.19,1.91,27.29,1.93,42.1.41-14.83.13-28.91,0-42.1-.41Z"/>
          <path class="cls-51" d="M156.01,345.3c8.44,2.27,21.17,2.99,40.56,1.3-16.58.55-30.31.18-40.56-1.3Z"/>
          <path class="cls-51" d="M142.08,344.14c8.93,4.14,24.85,6.82,44.02,8.81-17.45-3.02-32.85-5.98-44.02-8.81Z"/>
          <path class="cls-51" d="M124.5,357.96c23.06,8.43,37.18,9.58,57.21,4.98-22,1.61-35.66,1.44-57.21-4.98Z"/>
        </g>
        <path class="cls-5" d="M136.59,332.88c-26.82-.4-38.92,12.01-38.46,26.51,1.37,11.16,14.12,18.81,27.05,14.34l5.76-9.64c-15.74,3.59-21.35-1.41-21.82-10.76-.07-1.33,1.08-2.57,2.95-3.18,18.37-5.91,24.43,28.4,55.82,28.04,25.71-.91,47.38-12.17,67.17-28.24,13.82-9.49,8.03-17.65-10.06-24.98-.65-.3-12.56-4.79-12.82-3.65,0,0-1.1,4.93-1.1,4.93,39.72,14.82-32.52,13.03-60.62,8-4.53-.81-9.18-1.32-13.88-1.39Z"/>
      </g>
      <g>
        <path class="cls-23" d="M158.27,305.18c7.38-1.59,14.6,2.32,14.65,10.05-1.17,13.6,4.93,24.84-1.67,26.22-3.32,1.15-3.72-1.77-7.08-2.55-9.46-2.23-23.8-14.91-24.67-20.57-3.68-8.7-2.93-13.61,5.18-12.79,3.53.69,5.11-4.18,13.59-.37Z"/>
        <g class="cls-43">
          <path class="cls-51" d="M146.02,330.31c3.76-2.08,7.15-4.28,7.08-7.6,8.99-.75,17.25,10.15,29.06,9.03l-5.76-29.5-47.12-1.36c-5.09,19.27,4.27,25.73,16.74,29.43Z"/>
          <path class="cls-51" d="M145.53,325.56c3.76-2.08,7.15-4.28,7.08-7.6,8.99-.75,17.25,10.15,29.06,9.03l-5.76-29.5-47.12-1.36c-5.09,19.27,4.27,25.73,16.74,29.43Z"/>
        </g>
        <path class="cls-3" d="M158.27,305.18c7.38-1.59,14.6,2.32,14.65,10.05-1.17,13.6,4.93,24.84-1.67,26.22-3.32,1.15-3.72-1.77-7.08-2.55-9.46-2.23-23.8-14.91-24.67-20.57-3.68-8.7-2.93-13.61,5.18-12.79,3.53.69,5.11-4.18,13.59-.37Z"/>
      </g>
      <g>
        <path class="cls-47" d="M167.84,290.78c-14.08,1.87-19.91,16.05-9.26,25.07,20.77,15.23,26.56,31.39,39.1,29.67,6.95-.34,3.53-3.93,7.84-6.54,12.14-7.36,17.59-29.35,11.14-36.38-6.16-11.98-14.18-17.32-26.09-12.26-4.73,2.58-13.8-1.47-22.73.44Z"/>
        <g class="cls-42">
          <path class="cls-53" d="M185.08,289.31c-13.73,17.73,11.46,20.17,27.1,32.04,1.8,1.37,6.67.75,6.83-.87,1.7-17.39-1.99-30.98-14.93-38.08l-18.99,6.92Z"/>
          <path class="cls-53" d="M187.44,285.76c-5.56,19.45,19.71,17.39,39.87,26.08,2.32,1,6.74-.44,6.19-2.03-5.86-17.02-15.28-29.45-30.77-34.01l-15.28,9.97Z"/>
          <path class="cls-51" d="M150.85,298.28c23.79,24.96,39.91,35.54,66.41,31.47l-10.98,26.8-39.92-20.08c-14.71-13.48-17.89-26.05-15.51-38.19Z"/>
        </g>
        <path class="cls-6" d="M167.84,290.78c-14.08,1.87-19.91,16.05-9.26,25.07,20.77,15.23,26.56,31.39,39.1,29.67,6.95-.34,3.53-3.93,7.84-6.54,12.14-7.36,17.59-29.35,11.14-36.38-6.16-11.98-14.18-17.32-26.09-12.26-4.73,2.58-13.8-1.47-22.73.44Z"/>
      </g>
      <g>
        <path class="cls-47" d="M142.05,299.65c10.97,1.15,16.48,8.83,9.14,18.11-14.52,15.81-17.47,31.81-27.24,30.73-5.36,0-3.07-3.66-6.62-5.99-9.99-6.59-16.21-27.72-11.91-34.87,3.62-11.95,9.28-17.53,18.87-13.18,3.87,2.29,10.54-2.89,17.76,5.2Z"/>
        <g class="cls-30">
          <path class="cls-53" d="M125.55,294.98c7.87,17.66-7.5,20.78-17.33,33.24-1.13,1.43-3.6.9-4.12-.71-5.76-17.64-5.3-31.56,10.09-39.07l11.36,6.54Z"/>
          <path class="cls-53" d="M120.67,287.11c7.87,17.66-7.5,20.78-17.33,33.24-1.13,1.43-3.6.9-4.12-.71-5.76-17.64-5.3-31.56,10.09-39.07l11.36,6.54Z"/>
          <path class="cls-51" d="M155.87,303.43c-16.06,24.07-29.14,32.16-48.41,31.99l10.99,24.2,28.99-20.3c8.23-10.6,11.23-22.52,8.42-35.89Z"/>
        </g>
        <path class="cls-6" d="M142.05,299.65c10.97,1.15,16.48,8.83,9.14,18.11-14.52,15.81-17.47,31.81-27.24,30.73-5.36,0-3.07-3.66-6.62-5.99-9.99-6.59-16.21-27.72-11.91-34.87,3.62-11.95,9.28-17.53,18.87-13.18,3.87,2.29,10.54-2.89,17.76,5.2Z"/>
      </g>
      <g class="cls-27">
        <path class="cls-10" d="M127.87,349.04c5.39,15.86-3.76,21.83-12.77,31.64-6.26,12.09,1.01,22.23,21.82,30.39,8.84,2.93,15.94-1.03,29.96,1.32l2.25-8.42c-10.83-10.09-20.64.74-32.22-4.57-11.28-6.07-11.17-16.37-.67-22.93,4.68-2.2,7.84-4.04,4.74-13.21l-13.12-14.22Z"/>
      </g>
      <g>
        <path class="cls-20" d="M139.08,268.28c3.22,8.83-7.3,15.94,2.22,18.23,2.69,5.03-9.14,8.31-1.13,10.6-2.87,4.74-1.77,7.41,6.47,6.38,8.22-1.03,16.04-2.28,22.17-4.47,4.81-1.07,5.8-3.18,1.25-6.77,14.94-4.22-1.99-7.39,0-12.59,1.04-3.8-4.39-4.3-1.63-12.22l-29.35.84Z"/>
        <g class="cls-34">
          <path class="cls-46" d="M148.14,264.56c1.42,9.71-7.66,18.62-.71,21.02,2.98,2.59-7.6,9.7-.14,10.9-3.48,2.85-2.93,6.08,1.28,9.68h-17.91s1.49-41.12,1.49-41.12l15.99-.48Z"/>
          <path class="cls-46" d="M163.15,264.32c-2.37,8.22,3.94,13.83,3.79,18.45,7.28,5.72,5.27,6.81-.85,8.37,3.77,4.64,4.36,8.84,1.6,12.57l12.96-7.49-1.41-16.38c-1.09-10.76-6.26-16.18-16.09-15.52Z"/>
          <path class="cls-22" d="M172.74,278.22c-4.01,4.27-10.89,6.79-18.66,8.77,10,.12,19.38-.24,26.68-2.23l-8.02-6.53Z"/>
          <path class="cls-22" d="M175.51,290.41c-3.33,1.64-8.53,2.3-14.3,2.64,7.14.75,13.89,1.25,19.32.86l-5.02-3.5Z"/>
          <path class="cls-22" d="M133.23,283.59c6.45,1.16,12.52,1.4,18.13.54-5.02,1.91-10.74,2.69-16.91,2.75l-1.22-3.29Z"/>
          <path class="cls-22" d="M131.17,292.08c6.21,1.61,11.8,4.54,17.52,4.07-5.32,1.55-12.53,1.45-18.67,1.07l1.15-5.14Z"/>
          <path class="cls-51" d="M182.63,280.14c-15.07-5.65-32.69-5.24-52.35,0v-13.71h52.35v13.71Z"/>
        </g>
        <path class="cls-8" d="M139.08,268.28c3.22,8.83-7.3,15.94,2.22,18.23,2.69,5.03-9.14,8.31-1.13,10.6-2.87,4.74-1.77,7.41,6.47,6.38,8.22-1.03,16.04-2.28,22.17-4.47,4.81-1.07,5.8-3.18,1.25-6.77,14.94-4.22-1.99-7.39,0-12.59,1.04-3.8-4.39-4.3-1.63-12.22l-29.35.84Z"/>
      </g>
      <g>
        <path class="cls-24" d="M264.55,171.94c37.18-19.61,28.28,61.01-18.83,57.65l18.83-57.65Z"/>
        <g class="cls-32">
          <path class="cls-51" d="M269.79,164.06c2.8,27.77.79,53.75-12.38,75.61l-21.87-5.62,21.14-64.16,13.1-5.82Z"/>
        </g>
        <path class="cls-4" d="M264.55,171.94c37.18-19.61,28.28,61.01-18.83,57.65l18.83-57.65Z"/>
      </g>
      <g>
        <path class="cls-24" d="M52.6,175.27c-37.18-19.61-28.28,61.01,18.83,57.65l-18.83-57.65Z"/>
        <g class="cls-33">
          <path class="cls-51" d="M43.55,166.98c-2.01,26.3-1.72,51.07,6.17,70.78l21.41,1.02-5.78-73.12-21.79,1.33Z"/>
        </g>
        <path class="cls-4" d="M52.6,175.27c-37.18-19.61-28.28,61.01,18.83,57.65l-18.83-57.65Z"/>
      </g>
      <g>
        <path class="cls-24" d="M51.61,192.02c-13.06,63.09,16.49,88.94,91.2,81.95,42.86.47,76.95-7.91,95.85-31.64,15.14-18.83,20.14-40.93,24.3-71.4-21.54-37.78-47.39-72.49-82.23-101.65-19.77-16.55-49.26-14.13-65.96,5.51-31.28,36.78-53.22,75.66-63.16,117.24Z"/>
        <g class="cls-31">
          <path class="cls-45" d="M243.21,255.99c-4.24,10.33-11.92,11.08-18.66,3.86-6.74-7.22-21.46-8-17.23-18.32,4.24-10.33,18.32-13.32,28.85-11.52,10.53,1.8,11.28,15.66,7.04,25.99Z"/>
          <ellipse class="cls-45" cx="78.17" cy="260.1" rx="21.75" ry="16.52" transform="translate(-39.03 15.09) rotate(-8.84)"/>
          <ellipse class="cls-51" cx="202.23" cy="192.24" rx="28.38" ry="33.51" transform="translate(-72.21 242.59) rotate(-53.95)"/>
          <ellipse class="cls-51" cx="102.47" cy="202.93" rx="33.03" ry="29.42" transform="translate(-99.81 99.18) rotate(-36.05)"/>
          <g>
            <ellipse class="cls-25" cx="202.23" cy="186.88" rx="28.38" ry="33.51" transform="translate(-67.87 240.39) rotate(-53.95)"/>
            <g class="cls-28">
              <ellipse class="cls-35" cx="203.02" cy="208.56" rx="18.44" ry="27.97" transform="translate(-19.35 396.36) rotate(-85.95)"/>
              <ellipse class="cls-48" cx="179.28" cy="174.53" rx="10.19" ry="8.91" transform="translate(-54.76 262.98) rotate(-64.93)"/>
            </g>
            <ellipse class="cls-2" cx="202.23" cy="186.88" rx="28.38" ry="33.51" transform="translate(-67.87 240.39) rotate(-53.95)"/>
          </g>
          <g>
            <ellipse class="cls-25" cx="102.18" cy="199.2" rx="33.51" ry="28.38" transform="translate(-105.78 116.29) rotate(-41.11)"/>
            <g class="cls-26">
              <path class="cls-35" d="M81.7,234.06c5.71,8.64,22.76,7.44,38.08-2.69,15.33-10.12,23.62-22.21,17.91-30.85-5.71-8.64-24.59-8.17-39.92,1.95-15.33,10.12-21.79,22.94-16.08,31.58Z"/>
              <ellipse class="cls-48" cx="116.07" cy="178.06" rx="10.19" ry="8.91" transform="translate(-91.62 132.85) rotate(-44.62)"/>
            </g>
            <ellipse class="cls-2" cx="102.18" cy="199.2" rx="33.51" ry="28.38" transform="translate(-105.78 116.29) rotate(-41.11)"/>
          </g>
          <path class="cls-56" d="M167.29,214.8c3.31,8.93,4.25,12.62,14.53,13.94-9.9,4.46-16.85-4.47-14.53-13.94h0Z"/>
          <path class="cls-51" d="M173.83,147.18c6.6-6.25,14.79-8.56,22.42-2.98-4.91,6.83-13.17,8.39-22.42,2.98Z"/>
          <path class="cls-51" d="M94.49,153.21c7.5-5.13,15.96-6.11,22.61.59-5.92,5.97-14.33,6.21-22.61-.59Z"/>
          <path class="cls-54" d="M171.2,142.07c-.65,4.28,1.56,7.78,6.07,6.76,3.97-4.55,9.03-7.71,18.98-4.63-7.02-8.05-13.43-9.73-19.6-8.01-2.86.8-5.03,3.1-5.46,5.88Z"/>
          <path class="cls-54" d="M119.15,146.94c1.39,3.99-.33,7.75-5.21,7.59-4.9-3.65-10.7-5.77-20.58-1.01,5.99-9,12.39-11.77,19.12-11.23,3.12.25,5.77,2.06,6.67,4.65Z"/>
          <g>
            <path class="cls-55" d="M137.11,224.83c-.01,17.22,4.69,32.24,26.25,30.52,13.27-1.06,18.45-16.69,4.69-32.71-6.35,24.84-24.74,15.21-30.94,2.19Z"/>
            <g class="cls-29">
              <path class="cls-52" d="M140.47,253.11c21.26,19.13,34.23,13.52,41.13-10.24-15.36-2.09-28.89,1.92-41.13,10.24Z"/>
            </g>
          </g>
          <path class="cls-51" d="M42.12,211.5c6.56-5.37,11.61-15.1,18.12-29.32l-.42,6.69c12.74-12.09,25.27-28.54,31.46-48.94-2.94,15.23-7.14,29.12-14.96,39.16,25.11-4.81,65.07-50.92,68.37-103.39.99,50.43,26.96,80.36,82.92,105.1-2.73-5.3-4.19-11-4.42-17.07,13.72,8.58,26.85,15.31,38.44,17.52l-2.81-17.67c-29.21-48.02-67.5-85.32-115.77-110.83-49.79,38.71-79.03,96.33-100.93,158.74Z"/>
        </g>
        <path class="cls-4" d="M51.61,192.02c-13.06,63.09,16.49,88.94,91.2,81.95,42.86.47,76.95-7.91,95.85-31.64,15.14-18.83,20.14-40.93,24.3-71.4-21.54-37.78-47.39-72.49-82.23-101.65-19.77-16.55-49.26-14.13-65.96,5.51-31.28,36.78-53.22,75.66-63.16,117.24Z"/>
      </g>
      <path class="cls-21" d="M44.31,201.08c6.27-5.62,12.52-13.86,18.75-28.75l-1.41,7.66c10.78-14.14,25.43-29.41,31.71-50.39-2.81,15.95-6.82,30.5-14.29,41.01,23.98-5.04,62.16-53.33,65.31-108.27.95,52.81,25.75,84.16,79.21,110.07-2.61-5.56-4-11.52-4.22-17.88,13.1,8.98,25.64,16.03,36.72,18.34,16.44,66.11-27.43,89.41-14.5,160.17-5.21-53.49,31.12-104.76,24.19-152.71-6.61-59.63-28.11-102.14-68-123.52-24.51-13.13-53.71-14.18-79.41-3.59-56.62,23.34-77.02,76.1-74.05,147.85Z"/>
      <path class="cls-49" d="M44.31,201.08c8.62-7.77,14.2-18.21,18.61-28.8,0,0,.52-1.25.52-1.25l-.24,1.33-1.37,7.66-.32-.14c6.05-7.96,12.56-15.56,18.19-23.79,5.65-8.2,10.43-17.06,13.25-26.61l.85.2c-1.24,7.2-2.78,14.37-4.96,21.36-2.2,6.98-5.07,13.83-9.31,19.89l-.56-.86c10.67-2.65,19.31-10.44,26.75-18.23,22.11-24.42,35.71-56.68,37.86-89.55,0,0,1.61.03,1.61.03.29,23.83,6.48,48.13,21.63,66.91,14.86,18.91,35.81,31.85,57.17,42.35,0,0-1.23,1.22-1.23,1.22-2.97-6.24-4.29-13.15-4.35-20.02,11.7,7.92,23.96,16.05,37.86,19.25,0,0,.54.12.54.12l.13.53c3.26,13.28,4.6,27.12,3.11,40.75-2.02,20.46-10.34,39.49-15.43,59.22-5.32,19.64-6.06,40.29-2.37,60.3,0,0-1.33.19-1.33.19-3.83-41.45,16.35-79.62,23.54-119.53,4.6-24.16-.21-48.89-5.87-72.49,2.15,7.87,3.85,15.85,5.21,23.9,1.28,8.06,2.48,16.13,3.01,24.29,1.15,49.23-29.61,94.11-24.53,143.71,0,0-1.33.19-1.33.19-2.43-13.42-3.25-27.21-1.65-40.81,2.82-27.19,16.34-51.96,19.1-79.12.7-6.71.76-13.48.2-20.2-.56-6.72-1.73-13.39-3.33-19.95l.67.64c-13.67-3.11-25.58-10.78-37.05-18.45,0,0,1.42-.78,1.42-.78.18,6.95,2.1,13.74,5.27,19.89,0,0-2.36-1.16-2.36-1.16-32.29-15.41-64.2-39.12-74.41-75.05-3.49-11.63-4.97-23.76-5.2-35.83l1.61.03c-2.19,33.24-16.07,65.73-38.55,90.31-7.67,7.94-16.42,15.76-27.45,18.45,0,0-1.39.31-1.39.31l.83-1.17c8.34-11.97,11.64-26.62,14.31-40.77,0,0,.85.2.85.2-2.94,9.63-7.84,18.53-13.58,26.71-5.87,8.43-12.62,16.15-18.87,24.26l.14-.74,1.44-7.65.28.08c-4.5,10.57-10.19,20.98-18.88,28.69h0Z"/>
      <path class="cls-12" d="M32.26,230.56c-41.27,89.09-36.59,137.45-15.66,170.4-26.56-67.91,8.66-73.95,15.57-115.81l.09-54.6Z"/>
      <path class="cls-53" d="M166.56,36.48c25.59,6.13,53.83,26.92,55.55,45.69.32,3.49,3.07,6.31,3.96,9.68-2.81-6.37-6.8-12.03-11.16-17.33-6.61-7.92-14.14-15.05-22.2-21.49-8.1-6.43-16.65-12.31-26.16-16.56h0Z"/>
      <path class="cls-53" d="M140.5,38.66c-37.94,9.64-79.59,43.35-81.83,74.19-.42,5.73-4.46,10.33-5.73,15.85,4.07-10.42,9.9-19.66,16.3-28.3,9.7-12.91,20.76-24.51,32.64-34.95,11.94-10.44,24.55-19.95,38.62-26.79h0Z"/>
      <path class="cls-53" d="M145.39,40.34c-26.58,20.94-42.06,40.86-39.64,59.15,7.24-17.51,21.8-37.73,39.64-59.15Z"/>
      <path class="cls-53" d="M158.25,38.66c30.43,22.3,54.04,44.27,45.93,64.06-4.85-15.36-24.22-39.03-45.93-64.06Z"/>
    </g>
  </g>
</svg>