<?xml version="1.0" encoding="UTF-8"?>
<svg id="Layer_2" data-name="Layer 2" xmlns="http://www.w3.org/2000/svg" viewBox="0 0 168 167.61">
  <defs>
    <style>
      .cls-1 {
        fill: #4b4b4b;
      }
    </style>
  </defs>
  <g id="Layer_9" data-name="Layer 9">
    <g>
      <path class="cls-1" d="M162.38,0c3.65,1.35,5.59,4.09,5.61,8.4.04,8.02-.01,15.53-.56,23.66l-51.3,51.35c-2.51,2.51-5.41,3.31-8.33,1.41-2.16-1.4-3.63-5.86-1.28-8.21l49.39-49.42.02-15.15-15.17.07L34.08,118.74l15,15.2,27.59-27.46c2.01-2,6.21-1.02,7.77.82,1.75,2.06,2.02,5.73-.07,7.82l-27.16,27.19,8.03,8.15c2.25,2.28,1.17,6.74-1.14,8.27-3.06,2.03-5.95.88-8.46-1.58l-18.54-18.13-25.53,25.63c-1.83,1.83-4.31,3.44-6.77,2.84-2.02-.49-3.67-3.08-4.8-5.44v-2.04s1.97-2.21,1.97-2.21l26.97-26.95-18.1-18.51c-2.47-2.53-3.63-5.4-1.59-8.47,1.54-2.33,5.98-3.4,8.28-1.13l8.14,8.02,28.63-28.63-41.14-.16c-2.99-.01-5.16-3.51-5.04-5.88.13-2.42,2.22-5.7,5.24-5.7l52.81-.06,19.12-19.3-55.27-.1c-3.28,0-5.79-1.98-6.29-5.13-.4-2.48,1.79-6.54,5.22-6.54h68.19s19.15-19.4,19.15-19.4l-110.68-.09c-2.58,0-4.54-3.1-5.6-5.05v-1.66c1.67-3.82,3.98-4.91,8.51-4.91l120.11-.04c3.25-3.51,5.67-5.76,8.82-8.11h24.93Z"/>
      <path class="cls-1" d="M136.45,152.67c-.02,4.1-1.84,6.83-5.4,7.12-3,.24-6.2-2.19-6.21-5.7l-.11-32.5-12.9,12.73c-2.37,2.34-5.9,2.91-8.37.72-2.81-2.49-2.45-6.27.22-8.96l21.44-21.52c1.34-1.34,3.54-3.19,5.04-3.26,2.25-.1,4.34,1.62,5.99,3.27l21.47,21.53c2.41,2.42,2.91,5.92.73,8.4-2.46,2.8-6.29,2.39-8.91-.19l-12.88-12.65-.12,31.01Z"/>
    </g>
  </g>
</svg>