<?xml version="1.0" encoding="UTF-8"?>
<svg id="Layer_2" data-name="Layer 2" xmlns="http://www.w3.org/2000/svg" viewBox="0 0 159.47 174.07">
  <defs>
    <style>
      .cls-1 {
        fill: #4b4b4b;
      }
    </style>
  </defs>
  <g id="Layer_9" data-name="Layer 9">
    <path class="cls-1" d="M157.21,116.18c-10.75-10.03-23.8-19.72-26.54-34.16-2.26-11.93,3.28-23.87,4.17-35.98.82-11.33-2.67-23-9.96-31.71C117.58,5.63,106.49.1,95.14,0c-12.2-.11-23.87,5.85-32.78,14.18-17.48,16.33-27.8,39.48-33,63.62-4.6-.53-9.31-.27-12.74.83-9.86,3.78-15.97,15.87-16.62,25.97.52,8.16,11.31,4.5,15.56,1.68l2.42-1.45c.79-.48,1.42-.7,2.26-.56,1.25.23,2.54.65,3.81,1.14l.11.04c.44.16.87.34,1.3.51.02,0,.03.02.05.02-.38,6.04-.49,11.99-.36,17.78.18,8.05.8,16.24,3.21,23.97,1.53,4.91,4.7,13.14,10.01,16.04,1.21.66,2.54,1.04,3.98,1.05,3.58,0,6.14-3.12,9.45-4.01,6.94-1.89,12.99,5.15,18.4,8.27,5.96,3.43,13.27,6.19,20.21,4.47,8.62-2.14,14.19-10.48,20.93-15.62,6.77-5.18,14.18-2.87,21.9-1.65,3.95.63,8.36.65,11.47-2.24,5.35-4.95,4.83-14.85,6.7-21.37,1.76-6.1,12.7-10.03,5.79-16.48ZM37.25,67.47s0,0-.02,0h.02ZM86.96,43.25c3.08-5.03,8.58-7.27,12.29-5s4.23,8.18,1.15,13.22c-3.08,5.04-8.58,7.27-12.29,5-3.71-2.26-4.22-8.18-1.15-13.22ZM60.21,43.92c-3.71-2.26-4.22-8.18-1.15-13.22,3.08-5.03,8.58-7.27,12.29-5,3.71,2.27,4.22,8.18,1.15,13.22-3.08,5.04-8.58,7.27-12.29,5ZM99.29,90.83c-3.64-.27-7.43-.15-10.98.55-5.32,1.11-9.43,5.16-12.27,9.62-2.42,3.82-4.09,8.15-4.97,12.59-.44,2.21-.85,5.02,2.02,5.37,4.43.71,8.79-1.8,12.67-3.76.87-.5,2.15-.8,3.14-.5,3.82,1.11,6.91,3.24,10.23,5.02-1.77-.66-3.49-1.43-5.22-2.15-1.72-.69-3.51-1.38-5.23-1.69-.84-.14-1.46.08-2.26.56l-2.41,1.45c-4.26,2.81-15.05,6.48-15.57-1.68.65-10.1,6.76-22.19,16.63-25.97,6.92-2.21,19.04-1.01,25.04,3.1-3.31-1.76-7.15-2.14-10.81-2.51Z"/>
  </g>
</svg>