<?xml version="1.0" encoding="UTF-8"?>
<svg id="Layer_2" data-name="Layer 2" xmlns="http://www.w3.org/2000/svg" xmlns:xlink="http://www.w3.org/1999/xlink" viewBox="0 0 137.64 69.41">
  <defs>
    <style>
      .cls-1 {
        fill: #846959;
      }

      .cls-2, .cls-3, .cls-4 {
        fill: none;
      }

      .cls-2, .cls-3, .cls-4, .cls-5, .cls-6, .cls-7 {
        stroke-miterlimit: 10;
      }

      .cls-2, .cls-7 {
        stroke: #e5e3e1;
        stroke-width: 1.29px;
      }

      .cls-8 {
        fill: #937461;
      }

      .cls-3, .cls-5 {
        stroke: #a58d79;
        stroke-width: .33px;
      }

      .cls-9 {
        fill: #d3bca8;
      }

      .cls-10 {
        fill: #ded2c5;
      }

      .cls-4, .cls-6 {
        stroke: #898989;
        stroke-width: .86px;
      }

      .cls-11, .cls-7 {
        fill: #e5e3e1;
      }

      .cls-12 {
        clip-path: url(#clippath-1);
      }

      .cls-13 {
        clip-path: url(#clippath-3);
      }

      .cls-14 {
        clip-path: url(#clippath-2);
      }

      .cls-15 {
        fill: #fff;
      }

      .cls-16 {
        fill: #635d68;
      }

      .cls-17 {
        fill: #dccec1;
      }

      .cls-18 {
        fill: #7e7b86;
      }

      .cls-19 {
        fill: #8d6f5e;
      }

      .cls-5, .cls-20 {
        fill: #bda793;
      }

      .cls-21 {
        fill: #20164c;
        opacity: .2;
      }

      .cls-22 {
        fill: #bab5bc;
      }

      .cls-6, .cls-23 {
        fill: #a5a5a3;
      }

      .cls-24 {
        fill: #46382f;
      }

      .cls-25 {
        fill: #574439;
      }

      .cls-26 {
        fill: #e9ddcf;
      }

      .cls-27 {
        fill: #675042;
      }

      .cls-28 {
        clip-path: url(#clippath);
      }
    </style>
    <clipPath id="clippath">
      <rect class="cls-6" x="25.77" y="11.76" width="111.22" height="40.93" rx="20.47" ry="20.47"/>
    </clipPath>
    <clipPath id="clippath-1">
      <rect class="cls-7" x="25.77" y="10.68" width="111.22" height="38.12" rx="18.79" ry="18.79"/>
    </clipPath>
    <clipPath id="clippath-2">
      <path class="cls-5" d="M11.34,2.95C10.26.03,35.42-.91,35.42,2.95c0,0,.07,1.26-.71,1.91-.79.5-.98,2.21-1.19,4.5,0,3.65.88,5.49,2.75,7.33,5.51,5.41,7.35,8.05,7.6,13.63-.12,6.8-1.33,12.8-3.74,17.91-2.51,5.22-4.78,10.64-7,12.85-4.25,2.83-16.77,2.28-19.92-.32-1.59-.8-4.77-7.87-7.45-14.28-1.5-3.41-2.62-7.99-3.2-14.28-.21-5.58,1.28-10.33,5.87-13.57,4.04-3.29,5.6-7.18,3.99-13.22-.96-.49-1.29-1.32-1.07-2.46Z"/>
    </clipPath>
    <clipPath id="clippath-3">
      <path class="cls-17" d="M33.34,2.34c0,1-4.63,2.34-10.14,2.34s-10.21-1.02-10.21-2.02,4.7-1.59,10.21-1.59,10.14.28,10.14,1.28Z"/>
    </clipPath>
  </defs>
  <g id="Layer_9" data-name="Layer 9">
    <g>
      <g>
        <rect class="cls-23" x="25.77" y="11.76" width="111.22" height="40.93" rx="20.47" ry="20.47"/>
        <g class="cls-28">
          <polygon class="cls-18" points="33.71 53.94 38.27 44.62 124.12 44.62 131.22 54 33.71 53.94"/>
        </g>
        <rect class="cls-4" x="25.77" y="11.76" width="111.22" height="40.93" rx="20.47" ry="20.47"/>
      </g>
      <g>
        <rect class="cls-11" x="25.77" y="10.68" width="111.22" height="38.12" rx="18.79" ry="18.79"/>
        <g class="cls-12">
          <rect class="cls-22" x="25.77" y="13.17" width="111.22" height="38.12" rx="18.79" ry="18.79"/>
        </g>
        <rect class="cls-2" x="25.77" y="10.68" width="111.22" height="38.12" rx="18.79" ry="18.79"/>
      </g>
      <path class="cls-16" d="M41.95,34.43c.2.36,1.07,4.87,1.22,5.65.2,1.05-.19,3.79.87,4.43-1.97,1.76-4.54,4.23-6.78,5.56-.27.16-1.16.32-1.22.35v-.17c.91-1.5.9-4.01,1.56-5.48.56-1.23,1.95-1.73,2.43-2.61.51-.92,1.38-7.01,1.22-8.08.14.09.67.3.7.35Z"/>
      <path class="cls-11" d="M50.99,16.24l.17,1.04c-.79.28-3.74.93-3.91,1.04-.7.48.37,1.41-.35,1.56-.41.09-4.06-2.71-4.35-3.48-.32-.08-.51.45-.61.52-.15.1-.39.23-.52.35-.48-.34-.99-.59-1.39-1.04,2.25-.7,1.98-3.13,2.43-4.95.11-.44-.01-.41.52-.61,1,4.62,3.28,6.53,8,5.56Z"/>
      <path class="cls-11" d="M50.27,37.8c-.03,5.19-3.28,6.81-7.31,8.89l7.31-8.89Z"/>
      <path class="cls-11" d="M134.91,21.75l1.93,3.9-2.56,6.58c-4.56-2.26-9.27-5.35-14.04-8.78-2.23,3-9.46,5.31-15.58,7.77,7.54-3.99,15.45-8.08,15.15-10.12,6.72,3.92,13.82,8.67,15.11.65Z"/>
    </g>
    <g>
      <g>
        <path class="cls-20" d="M11.34,2.95C10.26.03,35.42-.91,35.42,2.95c0,0,.07,1.26-.71,1.91-.79.5-.98,2.21-1.19,4.5,0,3.65.88,5.49,2.75,7.33,5.51,5.41,7.35,8.05,7.6,13.63-.12,6.8-1.33,12.8-3.74,17.91-2.51,5.22-4.78,10.64-7,12.85-4.25,2.83-16.77,2.28-19.92-.32-1.59-.8-4.77-7.87-7.45-14.28-1.5-3.41-2.62-7.99-3.2-14.28-.21-5.58,1.28-10.33,5.87-13.57,4.04-3.29,5.6-7.18,3.99-13.22-.96-.49-1.29-1.32-1.07-2.46Z"/>
        <g class="cls-14">
          <path class="cls-1" d="M37.05,60.33c-8.33,1.84-16.2,2.4-22.77-.64-3.77-4.9-7.3-13.78-6.3-13.78,12.04,1.58,9.74-8.7,19.84-12.58,3.69-5.78,1.43-14.24-3.98-19.86-2.46-2.55-6.61-5.91-9.32-5.71,1.19-.22,2.34-.31,3.2.48-.48-.85-1.29-1.55-2.4-2.12l3.65-.08,16.71.08,12.48,21.16-11.12,33.04Z"/>
          <path class="cls-9" d="M10.04,4.03c10.39.81,19.65.05,25.38-1.52l-6.84,3.31-18.53-1.19v-.6Z"/>
          <path class="cls-8" d="M10.52,4.67c9.55.79,18.05.05,23.3-1.47l-6.29,3.2-17.02-1.15v-.58Z"/>
          <path class="cls-27" d="M12.41,5.42c11.45.6,20.78.07,23.35-4.05,2.11,5.43,1.63,9.82-1.08,13.33.95,5.88,1.89,11.39,4.58,16.99,2.11,6.6-2.36,17.53-7,27.75-6.64,2.43-17.97.25-17.97.25,8.92-1.12,22.06-7.02,17.97-32.02C29.33,8.82,23.2,8.03,12.41,5.42Z"/>
          <path class="cls-25" d="M8.42,56.11c15.62,8.45,26.02,1.97,36.59-4l-11.92,17.3-23.74-4.52-.93-8.78Z"/>
          <path class="cls-10" d="M11.73,10.29l-3.82,6.04c1.37.28,2.47.98,3.13,2.35,0,0,5.21-2.26,4.81-6.62-1.03-1.92-2.51-2.09-4.12-1.77Z"/>
          <path class="cls-10" d="M6.64,17.14c1.8.61,3.38,1.34,3.31,2.94h0c-2.27.64-3.45,2.51-4.01,4.8l-1.99,5.68c-1.44.62-2.79.72-3.95-.21.3-5.45,2.54-9.84,6.64-13.22Z"/>
          <path class="cls-10" d="M0,32.14c1.45.58,2.8.82,3.96.37.35,3.12,1.75,6.76,3.33,10.48-.78,1.1-2.12,1.36-3.65,1.33l-3.65-12.18Z"/>
          <path class="cls-26" d="M15.74,16.72c.8-.99,1.45-2.07,1.72-3.34.16-.76.22-1.58.69-2.19.21-.28.71-.46.87-.15.05.1.04.23.03.34-.23,1.91-.63,3.81-1.2,5.65-.21.77-.4,1.55-.65,2.32-.43,1.32-1.12,2.55-1.73,3.78-1.16,2.29-2.57,4.36-4,6.49-1.31,1.98-2.48,2.95-4.71,1.49-.92-1.57.6-6.66.6-6.66,0,0,3.12-2.85,4.42-4.51,1.23-1.57,2.71-1.7,3.97-3.24Z"/>
          <path class="cls-21" d="M7.54,56.02c16.86,5.6,25.96-2.6,35.33-10.33l-8.72,19.12-24.17-.31-2.45-8.49Z"/>
        </g>
        <path class="cls-3" d="M11.34,2.95C10.26.03,35.42-.91,35.42,2.95c0,0,.07,1.26-.71,1.91-.79.5-.98,2.21-1.19,4.5,0,3.65.88,5.49,2.75,7.33,5.51,5.41,7.35,8.05,7.6,13.63-.12,6.8-1.33,12.8-3.74,17.91-2.51,5.22-4.78,10.64-7,12.85-4.25,2.83-16.77,2.28-19.92-.32-1.59-.8-4.77-7.87-7.45-14.28-1.5-3.41-2.62-7.99-3.2-14.28-.21-5.58,1.28-10.33,5.87-13.57,4.04-3.29,5.6-7.18,3.99-13.22-.96-.49-1.29-1.32-1.07-2.46Z"/>
      </g>
      <g>
        <path class="cls-17" d="M33.34,2.34c0,1-4.63,2.34-10.14,2.34s-10.21-1.02-10.21-2.02,4.7-1.59,10.21-1.59,10.14.28,10.14,1.28Z"/>
        <g class="cls-13">
          <path class="cls-19" d="M30.09.56c-9.23,1.16-6.47,3.28-.04,3.88l-18.09.84.49-5.27,17.64.56Z"/>
          <path class="cls-24" d="M19.95.82c-3.62,1.26-4.57,2.63.6,3.85l-14.9.67L6.14.06l13.81.76Z"/>
        </g>
      </g>
      <ellipse class="cls-20" cx="27.54" cy="1.63" rx="2.22" ry=".57"/>
    </g>
    <path class="cls-15" d="M30.3,37.94c-1.42-1.33-3.15-2.61-3.51-4.52-.3-1.58.43-3.16.55-4.76.11-1.5-.35-3.04-1.32-4.2-.96-1.15-2.43-1.88-3.93-1.9-1.62-.01-3.16.77-4.34,1.88-2.31,2.16-3.68,5.23-4.37,8.42-.61-.07-1.23-.04-1.69.11-1.31.5-2.11,2.1-2.2,3.44.07,1.08,1.5.6,2.06.22l.32-.19c.1-.06.19-.09.3-.07.17.03.34.09.5.15h.02c.06.03.12.05.17.07,0,0,0,0,0,0-.05.8-.06,1.59-.05,2.35.02,1.07.11,2.15.42,3.17.2.65.62,1.74,1.32,2.12.16.09.34.14.53.14.47,0,.81-.41,1.25-.53.92-.25,1.72.68,2.44,1.09.79.45,1.76.82,2.67.59,1.14-.28,1.88-1.39,2.77-2.07.9-.69,1.88-.38,2.9-.22.52.08,1.11.09,1.52-.3.71-.65.64-1.97.89-2.83.23-.81,1.68-1.33.77-2.18ZM14.42,31.49s0,0,0,0h0ZM21,28.28c.41-.67,1.13-.96,1.63-.66s.56,1.08.15,1.75c-.41.67-1.13.96-1.63.66-.49-.3-.56-1.08-.15-1.75ZM17.46,28.37c-.49-.3-.56-1.08-.15-1.75.41-.67,1.13-.96,1.63-.66.49.3.56,1.08.15,1.75-.41.67-1.14.96-1.63.66ZM22.63,34.58c-.48-.04-.98-.02-1.45.07-.7.15-1.25.68-1.62,1.27-.32.51-.54,1.08-.66,1.67-.06.29-.11.66.27.71.59.09,1.16-.24,1.68-.5.12-.07.28-.11.42-.07.51.15.91.43,1.35.66-.23-.09-.46-.19-.69-.28-.23-.09-.46-.18-.69-.22-.11-.02-.19.01-.3.07l-.32.19c-.56.37-1.99.86-2.06-.22.09-1.34.89-2.94,2.2-3.44.92-.29,2.52-.13,3.31.41-.44-.23-.95-.28-1.43-.33Z"/>
  </g>
</svg>