<?xml version="1.0" encoding="UTF-8"?>
<svg id="Layer_2" data-name="Layer 2" xmlns="http://www.w3.org/2000/svg" xmlns:xlink="http://www.w3.org/1999/xlink" viewBox="0 0 205.66 309.66">
  <defs>
    <style>
      .cls-1, .cls-2, .cls-3, .cls-4, .cls-5, .cls-6, .cls-7, .cls-8, .cls-9, .cls-10, .cls-11, .cls-12, .cls-13, .cls-14, .cls-15, .cls-16, .cls-17 {
        stroke-miterlimit: 10;
      }

      .cls-1, .cls-2, .cls-4, .cls-6, .cls-7, .cls-9, .cls-10, .cls-11 {
        fill: none;
      }

      .cls-1, .cls-3, .cls-4, .cls-5, .cls-7, .cls-8, .cls-11, .cls-13, .cls-17 {
        stroke-width: .91px;
      }

      .cls-1, .cls-8 {
        stroke: #c6c6c6;
      }

      .cls-2, .cls-12 {
        stroke: #4b4b4b;
        stroke-width: 5.64px;
      }

      .cls-3, .cls-4 {
        stroke: #c1859b;
      }

      .cls-3, .cls-13, .cls-18 {
        fill: #d48ca0;
      }

      .cls-19, .cls-14, .cls-16 {
        fill: #fffdf5;
      }

      .cls-20 {
        fill: #1c140e;
      }

      .cls-21 {
        opacity: .8;
      }

      .cls-21, .cls-22 {
        fill: #281e16;
      }

      .cls-23 {
        fill: #ede8d6;
      }

      .cls-5, .cls-7 {
        stroke: #33271d;
      }

      .cls-5, .cls-24, .cls-17 {
        fill: #3e3023;
      }

      .cls-25 {
        fill: #a3697b;
      }

      .cls-6, .cls-15 {
        stroke: #898989;
        stroke-width: 1.62px;
      }

      .cls-8, .cls-26 {
        fill: #f9f9f9;
      }

      .cls-27 {
        fill: #352a21;
      }

      .cls-9 {
        stroke-width: .94px;
      }

      .cls-9, .cls-10, .cls-14, .cls-16 {
        stroke: #ede8d6;
      }

      .cls-10, .cls-14 {
        stroke-width: .61px;
      }

      .cls-28 {
        clip-path: url(#clippath-17);
      }

      .cls-29 {
        clip-path: url(#clippath-19);
      }

      .cls-30 {
        clip-path: url(#clippath-11);
      }

      .cls-31 {
        clip-path: url(#clippath-16);
      }

      .cls-32 {
        clip-path: url(#clippath-18);
      }

      .cls-33 {
        clip-path: url(#clippath-10);
      }

      .cls-34 {
        clip-path: url(#clippath-15);
      }

      .cls-35 {
        clip-path: url(#clippath-13);
      }

      .cls-36 {
        clip-path: url(#clippath-14);
      }

      .cls-37 {
        clip-path: url(#clippath-12);
      }

      .cls-38 {
        clip-path: url(#clippath-20);
      }

      .cls-39 {
        clip-path: url(#clippath-21);
      }

      .cls-40 {
        clip-path: url(#clippath-22);
      }

      .cls-11, .cls-13 {
        stroke: #a3697b;
      }

      .cls-41 {
        clip-path: url(#clippath-1);
      }

      .cls-42 {
        clip-path: url(#clippath-3);
      }

      .cls-43 {
        clip-path: url(#clippath-4);
      }

      .cls-44 {
        clip-path: url(#clippath-2);
      }

      .cls-45 {
        clip-path: url(#clippath-7);
      }

      .cls-46 {
        clip-path: url(#clippath-6);
      }

      .cls-47 {
        clip-path: url(#clippath-9);
      }

      .cls-48 {
        clip-path: url(#clippath-8);
      }

      .cls-49 {
        clip-path: url(#clippath-5);
      }

      .cls-50 {
        fill: #4c392a;
      }

      .cls-51 {
        fill: #fff;
      }

      .cls-52 {
        fill: #191918;
      }

      .cls-53 {
        fill: #7e7b86;
      }

      .cls-54 {
        fill: #e5e1df;
      }

      .cls-12 {
        fill: #4b4b4b;
      }

      .cls-55 {
        fill: #f0ebff;
      }

      .cls-55, .cls-56 {
        opacity: .2;
      }

      .cls-56, .cls-57 {
        fill: #20164c;
      }

      .cls-57 {
        opacity: .3;
      }

      .cls-58 {
        fill: #bab5bc;
      }

      .cls-15, .cls-59 {
        fill: #a5a5a3;
      }

      .cls-16 {
        stroke-width: .69px;
      }

      .cls-60 {
        fill: #f3eeff;
        opacity: .15;
      }

      .cls-61 {
        fill: #0c0812;
      }

      .cls-62 {
        fill: #b33c33;
      }

      .cls-17 {
        stroke: #2d221a;
      }

      .cls-63 {
        fill: #e5ddc3;
      }

      .cls-64 {
        clip-path: url(#clippath);
      }
    </style>
    <clipPath id="clippath">
      <rect class="cls-15" x="7.88" y="42.77" width="190.65" height="262.38" rx="16.29" ry="16.29"/>
    </clipPath>
    <clipPath id="clippath-1">
      <rect class="cls-54" x="14.02" y="42.77" width="178.37" height="245.48" rx="15.25" ry="15.25"/>
    </clipPath>
    <clipPath id="clippath-2">
      <path class="cls-3" d="M133.7,273.35c7.35,1.25,14.21,2.86,17.49,7.12-4.47,1.61-6.68.24-8.52.18-6.69-1.3-8.77-4.02-8.97-7.3Z"/>
    </clipPath>
    <clipPath id="clippath-3">
      <path class="cls-3" d="M59.01,250.55c-1.62,7.8-14.29,9.24-15.47,12.3,1.79.81,3.71,1.17,5.85.68-2.26,1.3-4.49,2.79-4.99,4.48,2.87.01,6.14-1.13,9.16-2.02-2.07,1.81-3.32,3.26-3.98,5.52,3.92-.82,7.46-1.41,10.9-3.05-1.48,2.55-2.76,4.95-3.29,6.75-.1.34.19.67.54.62,3.21-.52,5.58-2.21,8.07-4.42,5.07-5.91,9.8-11.03,12.84-12.19l2-8.67c-7.81-2.96-14.95-2.65-21.63,0Z"/>
    </clipPath>
    <clipPath id="clippath-4">
      <path class="cls-3" d="M118.51,255.92c1.96,9.55-5.87,10.03-5.87,12.49-1.59,4.35,3.17,7.77,13.27,11.09,1.04.34,2.34.31,3.43.51s2.07.42,3.09.68c1.71.44,3.39,1,5.05,1.63,2.62,1,5.19,2.24,7.94,2.85,1.34.3,3.15.69,4.49.35-1.67-2.89-3.98-5.12-6.77-6.92-2.95-1.91-6.84-2.54-8.55-5.8-.45-.86-.91-1.73-1.09-2.68-.41-2.06.28-4.35,1.18-6.2.27-.55,2.73-5.56,3.01-5.52,0,0-19.17-2.48-19.17-2.48Z"/>
    </clipPath>
    <clipPath id="clippath-5">
      <path class="cls-5" d="M117.59,209.68c2.37,8.11,5.04,15.15,7.33,19.2.36-.98.24-1.78,1.15-1.84,3.3,7.25,2.46,11.94-1.76,15.2-1.55,5.66-5.45,10.66-9.57,15.6-.35,1.54-.62,3.81.58,4.69,1.88.15,3.38-1.05,4.03-2.53.17,1.72.74,2.78,2,2.69.95-.79,1.6-1.81,1.85-3.16.35,2.34,1.41,4.16,3.31,5.39.28-.7.65-1.32,1.31-1.69-.04,1.01.19,1.85,1.15,2.23,3.7-2.04,6.95-2.85,8.54.85.03-13.44,9.54-14.29,11.08-24.84,3.95-4.82,3.12-16.81,6.23-22.94-.99-6.09-3.24-11.7-6.54-16.91l-30.71,8.06Z"/>
    </clipPath>
    <clipPath id="clippath-6">
      <path class="cls-5" d="M83.57,205.45c-1.35,7.61-3.08,13.78-5.18,18.58-7.33,14.32-19.2,17.64-24.62,27.21-.52.92-.04,2.11.98,2.39,1.99.54,4.53.02,8.45-3.19-.46,1.51-.95,2.9-1.46,4.16,3.19-.94,5.61-2.38,7-4.46-1.93,2.9-2.83,5.4-2.69,7.52,3.23-2.85.65,3.69,6.39,2.23,1.33-2.1,2.72-4.09,4.93-4.7-2.85,5.53-1.79,8.12,3.39,7.62-.97-1.58-.47-3.67,1.85-6.39-1.05,3.39-1.31,6.02,2,5.23-1.32-5.87,3.13,1.22,7.16-3.16-.21-4.92-.82-9.7-.4-15.19.28-3.71,1.57-7.27,3.71-10.31,4.54-6.43,9.62-11.97,15.73-15.83-5.79-11.74-14.57-16.36-27.22-11.7Z"/>
    </clipPath>
    <clipPath id="clippath-7">
      <path class="cls-5" d="M41.82,73.78c-.79,24.63,4.66,34.6,5.76,49.02.1,1.29.38,2.57.8,3.8,3.17,9.24,1.31,10.48-.37,13.58,3.64-.78,7.26,2.53,10.85,9.47l105.6-5.54c7.37-4.03,10.75-10.12,10.62-18.01-5.34-9.7-9.89-20.92-13.62-33.73,2.87,1.57,5.52,5,8,9.87-8.36-23.71-1.35-52.72-24.44-80.86C131.06.28,100.77-3.55,81.08,4.05c4.23.48,8.19,1.01,10.01,1.89-7.18-.25-14.39,1.45-21.61,5.39-18.41,2.23-35.49,21.38-38.15,44.24,1.46-1.87,3.17-6.29,5.34-7.58-3.64,11.73-3.08,24.2-.25,33.14,1.84-2.57,4.02-7.12,5.4-7.35Z"/>
    </clipPath>
    <clipPath id="clippath-8">
      <path class="cls-5" d="M92.46,118.34l-.29,7.98c-12.01,4.41-21.97,9.66-28.05,16.5,3.48,9.35,8.32,15.16,14.17,18.32,4.98,20.64-14.58,11.22-7.06,30.97,1.99,3.43-1.65,4.59-.07,8.4,1.31,3.43,2.79,6.26,4.56,8.1,4.44-2.05,8.9.17,11.7-1.85.61,4.41,2.3,8.73,5.04,12.97,1.72.16,3.78-.36,6.12-1.39.9,1.49,1.88,2.63,3,3.23,7.04-.71,12.35-3.11,14.43-8.66l2.12.38c26.32,12.7,22.24-10.08,32.4-9.62,5.68,1.44,6.64-17.05,3.93-23.51-6.13-7.67-8.83-14.84-8.79-21.63l16.05-21.05-28.27-10.85c-3.47-2.13-4.67-5.49-3.46-10.16l-37.52,1.87Z"/>
    </clipPath>
    <clipPath id="clippath-9">
      <path class="cls-14" d="M120.56,158.99c-.12-3.06-3.25-3.91-5.8-5.33-.58-.32.18-1.21.84-1.17,6.05.39,11.91.72,16.97,1.53-3.32,2.4-7.37,4.01-12.01,4.96Z"/>
    </clipPath>
    <clipPath id="clippath-10">
      <path class="cls-14" d="M86.75,151.37c5.24,1.18,10.32,2.48,14.32,4.6,5.84-2.55,5.22-10.38,12.38-10.28.19,0,.27-.24.12-.35-4.97-3.39-12.31,4.13-26.82,6.03Z"/>
    </clipPath>
    <clipPath id="clippath-11">
      <path class="cls-5" d="M92.34,120.09c-1.85,8.89-13.26,4.57-18.01,7.27-3.54,3.25-8.01,4.35-9.58,8.31-9.95,7.37-11.7,14.14-4.43,18.05,15.68,10.42,35.13,17.06,41.91,43.53,1.08-7.88-2.57-14.03-2.41-19.95.09-3.27-1.45-6.13-3.37-9.72,5.33,3.51,9.48,8.77,12.12,16.28-.02-6.38-1.87-12.88-8.63-21.59,3.35,1.7,5.74,4.22,8.57,6.89,1.76,3.43,4.14,5.9,5.6,8.12-.32-5.57-5.14-12.28-11.48-20.51-.72-.94-1.65-1.71-2.72-2.23-7.48-3.64-15.52-4.83-23.82-4.89-4.11-1.09-6.84-3.35-8.81-6.23,15.08-.05,31.62-5.23,25.05-23.32Z"/>
    </clipPath>
    <clipPath id="clippath-12">
      <path class="cls-14" d="M103.73,155.84c1.36,5.42.37,7.96-.59,9.4l12.21,17.56-.06-12.47-11.56-14.49Z"/>
    </clipPath>
    <clipPath id="clippath-13">
      <path class="cls-14" d="M103.68,166.02c-.83,1.96-1.96,3.86-3.49,5.67l10.23,20.15c.49-9.88-.48-19.08-6.74-25.82Z"/>
    </clipPath>
    <clipPath id="clippath-14">
      <path class="cls-14" d="M89.92,176.66c4.01-.47,7.41-1.89,9.88-4.77,1.69,1.86,2.38,5.06,2.48,9.08,3.22,5.15,1.18,13.34-.08,21.09-2.99-8.99-6.7-17.64-12.28-25.4Z"/>
    </clipPath>
    <clipPath id="clippath-15">
      <path class="cls-13" d="M104.01,19.36c-9.65-8.75-11.23-6.43-7.75-1.68-9.51-1.22-15.56-.48-19.73,1.33-.41.18-.41.75,0,.93,1.62.68,2.83,1.03,3.22,1.78-5.66.09-10.28,2.01-13.91,5.68-1.26,1.27-2.11,2.89-2.44,4.65-1.54,8.37-2.16,17.06-2.01,26l8.31,38.02,9.47,14.09c21.47,5.16,43.81,4.45,67.2-3.23,3.32-4.17,5.7-10.39,7.73-17.4l-3.02-45.11c-3.32-3.16-6.58-10.23-8.99-18.68-.49-3.52-3.36-2.85-7.11-1.63-.08-1.48.52-2.9,1.61-4.29.71-.91.34-2.25-.73-2.7-7.8-3.29-15.1-2.72-20.35,1.94-.03-2.23,1.66-4.14,1.95-6.18.09-.62-.49-1.13-1.09-.97-3.67.98-7.99,4.19-12.35,7.46Z"/>
    </clipPath>
    <clipPath id="clippath-16">
      <ellipse class="cls-8" cx="136.34" cy="59" rx="17.35" ry="18.44"/>
    </clipPath>
    <clipPath id="clippath-17">
      <ellipse class="cls-8" cx="81.12" cy="62.53" rx="18.44" ry="16.89" transform="translate(-12.29 104.56) rotate(-61.85)"/>
    </clipPath>
    <clipPath id="clippath-18">
      <path class="cls-5" d="M129.62,118.34c.05,3.31.78,5.17,3.54,5.54,11.44-.73,20.74,5.02,31.62,12.06,1.55,1,2.42,2.81,2.14,4.64-1.84,11.89-25.67,21.35-32.09,33.39-4.1,4.83-3.31,12.64-7.97,19.63,3.04-11.83-.83-16.61,5.2-24.71-4.11,2.42-6.14,8.44-10.16,11.78,1.18-6.84,5.58-13.72,10.99-21.01-3.7,3.19-7.66,5.58-11.92,7.04-.28,2.88-2.29,6.47-4.27,10.04.64-4.61,1-10.09,1.2-13.86.13-2.36,1.44-4.5,3.5-5.67,11.62-6.62,14.62-2.72,19.08-5.52,7.79-4.66,11.76-11.63,17.51-12.55-17.8,2.81-29.78-4.01-28.38-20.79Z"/>
    </clipPath>
    <clipPath id="clippath-19">
      <path class="cls-14" d="M125.62,152.85c-5.32,5.08-2.74,8.88-.36,13.69l-9.68,15.09.58-17.9,3.66-10.2,5.81-.68Z"/>
    </clipPath>
    <clipPath id="clippath-20">
      <path class="cls-14" d="M126.38,165.75c.27,4.09.38,7.82,2.1,8.28-1.35,3.52-5.48,8.93-9.43,12.79.54-7.03,3.46-14.63,7.33-21.07Z"/>
    </clipPath>
    <clipPath id="clippath-21">
      <path class="cls-14" d="M128.27,174.55c1.75,1.96,3.96,2.79,6.75,2.15,3.27,8.45-2.33,15.43-9.78,22.11-.35-9.64-.15-18.65,3.02-24.26Z"/>
    </clipPath>
    <clipPath id="clippath-22">
      <path class="cls-62" d="M86.91,91.22c14.61,2.28,29.67,1.84,45.49-3,1.14,5.65,1.43,10.91.69,15.7-10.89,4.79-37.6,6.44-46.17,1.99-1.68-4.74.52-8.62-.02-14.69Z"/>
    </clipPath>
  </defs>
  <g id="Layer_9" data-name="Layer 9">
    <g>
      <g>
        <rect class="cls-59" x="7.88" y="42.77" width="190.65" height="262.38" rx="16.29" ry="16.29"/>
        <g class="cls-64">
          <polygon class="cls-53" points="0 309.66 17.39 277.06 181.59 277.06 205.66 309.66 0 309.66"/>
        </g>
        <rect class="cls-6" x="7.88" y="42.77" width="190.65" height="262.38" rx="16.29" ry="16.29"/>
      </g>
      <g>
        <rect class="cls-54" x="14.02" y="42.77" width="178.37" height="245.48" rx="15.25" ry="15.25"/>
        <g class="cls-41">
          <rect class="cls-58" x="20.38" y="48.26" width="178.37" height="245.48" rx="15.25" ry="15.25"/>
          <path class="cls-55" d="M198.53,135.55c0-76.37-190.65-76.37-190.65,0V35.73s190.65,0,190.65,0v99.83Z"/>
        </g>
      </g>
    </g>
    <g>
      <g>
        <path class="cls-18" d="M133.7,273.35c7.35,1.25,14.21,2.86,17.49,7.12-4.47,1.61-6.68.24-8.52.18-6.69-1.3-8.77-4.02-8.97-7.3Z"/>
        <g class="cls-44">
          <path class="cls-16" d="M140.64,272.76c2.28,3.3,2.48,7.21,2.28,11.22l12.27-2.37c-2.03-4.94-7.63-7.36-14.55-8.86Z"/>
        </g>
        <path class="cls-4" d="M133.7,273.35c7.35,1.25,14.21,2.86,17.49,7.12-4.47,1.61-6.68.24-8.52.18-6.69-1.3-8.77-4.02-8.97-7.3Z"/>
      </g>
      <g>
        <path class="cls-18" d="M59.01,250.55c-1.62,7.8-14.29,9.24-15.47,12.3,1.79.81,3.71,1.17,5.85.68-2.26,1.3-4.49,2.79-4.99,4.48,2.87.01,6.14-1.13,9.16-2.02-2.07,1.81-3.32,3.26-3.98,5.52,3.92-.82,7.46-1.41,10.9-3.05-1.48,2.55-2.76,4.95-3.29,6.75-.1.34.19.67.54.62,3.21-.52,5.58-2.21,8.07-4.42,5.07-5.91,9.8-11.03,12.84-12.19l2-8.67c-7.81-2.96-14.95-2.65-21.63,0Z"/>
        <g class="cls-42">
          <path class="cls-56" d="M46.82,257.17c17.29-2.8,26.89,5.16,24.62,14.16l21.51-19.47-30.87-11.39-15.27,16.7Z"/>
          <path class="cls-14" d="M58.67,269.87c2.2,1.84,4.81,1.64,9.24.33-3.04,5.24-6.77,7.41-12.2,7.21-.02-3.13.56-5.89,2.96-7.54Z"/>
          <path class="cls-14" d="M50.98,267.64c4.13-.51,6.68.25,7.69,2.23l-11.01,4c-.09-2.5.85-4.64,3.32-6.23Z"/>
          <path class="cls-14" d="M48.09,263.97c.46,1.65,1.48,2.82,2.89,3.67l-7.94,1.67c.1-2.88,1.69-4.72,5.05-5.34Z"/>
          <path class="cls-14" d="M48.55,258.34c-1.53,1.95-1.3,3.55-.46,5.63l-6.32-.23c.49-2.89,3.11-4.46,6.78-5.4Z"/>
        </g>
        <path class="cls-4" d="M59.01,250.55c-1.62,7.8-14.29,9.24-15.47,12.3,1.79.81,3.71,1.17,5.85.68-2.26,1.3-4.49,2.79-4.99,4.48,2.87.01,6.14-1.13,9.16-2.02-2.07,1.81-3.32,3.26-3.98,5.52,3.92-.82,7.46-1.41,10.9-3.05-1.48,2.55-2.76,4.95-3.29,6.75-.1.34.19.67.54.62,3.21-.52,5.58-2.21,8.07-4.42,5.07-5.91,9.8-11.03,12.84-12.19l2-8.67c-7.81-2.96-14.95-2.65-21.63,0Z"/>
      </g>
      <g>
        <path class="cls-18" d="M118.51,255.92c1.96,9.55-5.87,10.03-5.87,12.49-1.59,4.35,3.17,7.77,13.27,11.09,1.04.34,2.34.31,3.43.51s2.07.42,3.09.68c1.71.44,3.39,1,5.05,1.63,2.62,1,5.19,2.24,7.94,2.85,1.34.3,3.15.69,4.49.35-1.67-2.89-3.98-5.12-6.77-6.92-2.95-1.91-6.84-2.54-8.55-5.8-.45-.86-.91-1.73-1.09-2.68-.41-2.06.28-4.35,1.18-6.2.27-.55,2.73-5.56,3.01-5.52,0,0-19.17-2.48-19.17-2.48Z"/>
        <g class="cls-43">
          <path class="cls-56" d="M108.43,268.46c13.41-4.19,21.84-3.03,31.59,3.1l6.14-20.81-32.79-.7-4.94,18.41Z"/>
          <path class="cls-16" d="M135.02,282.97c4.4-2.32,6.52-5.32,7.42-8.68l13.49,10.39-8.15,5.39-12.76-7.1Z"/>
        </g>
        <path class="cls-4" d="M118.51,255.92c1.96,9.55-5.87,10.03-5.87,12.49-1.59,4.35,3.17,7.77,13.27,11.09,1.04.34,2.34.31,3.43.51s2.07.42,3.09.68c1.71.44,3.39,1,5.05,1.63,2.62,1,5.19,2.24,7.94,2.85,1.34.3,3.15.69,4.49.35-1.67-2.89-3.98-5.12-6.77-6.92-2.95-1.91-6.84-2.54-8.55-5.8-.45-.86-.91-1.73-1.09-2.68-.41-2.06.28-4.35,1.18-6.2.27-.55,2.73-5.56,3.01-5.52,0,0-19.17-2.48-19.17-2.48Z"/>
      </g>
      <g>
        <path class="cls-24" d="M117.59,209.68c2.37,8.11,5.04,15.15,7.33,19.2.36-.98.24-1.78,1.15-1.84,3.3,7.25,2.46,11.94-1.76,15.2-1.55,5.66-5.45,10.66-9.57,15.6-.35,1.54-.62,3.81.58,4.69,1.88.15,3.38-1.05,4.03-2.53.17,1.72.74,2.78,2,2.69.95-.79,1.6-1.81,1.85-3.16.35,2.34,1.41,4.16,3.31,5.39.28-.7.65-1.32,1.31-1.69-.04,1.01.19,1.85,1.15,2.23,3.7-2.04,6.95-2.85,8.54.85.03-13.44,9.54-14.29,11.08-24.84,3.95-4.82,3.12-16.81,6.23-22.94-.99-6.09-3.24-11.7-6.54-16.91l-30.71,8.06Z"/>
        <g class="cls-49">
          <g>
            <path class="cls-22" d="M139.66,227.26c-2.13,9.89-8.34,23.05-9.68,30.4,3.15-7.17,8.94-20.5,9.68-30.4Z"/>
            <path class="cls-22" d="M127.29,213.16c5.49,7.67,7.61,25.37,2.41,32.18,2.95-4.64,3.71-22.54-2.41-32.18Z"/>
            <path class="cls-22" d="M131.73,246.44c-3.1,4.26-5.18,9.13-6.77,14.31l6.77-14.31Z"/>
            <path class="cls-22" d="M142.01,232.56c.68-6.86-.2-13.99-2.35-21.33,1.04,7.49,1.84,14.62,2.35,21.33Z"/>
            <path class="cls-22" d="M144.89,232.67c1.26-4.5,1.03-11-1.54-20.64,1.49,8.33,2.07,15.31,1.54,20.64Z"/>
            <path class="cls-22" d="M128.85,231.64c-1.24-3.18-3.48-9.18-6.95-19.5,4,8.31,6.36,14.93,6.95,19.5Z"/>
            <path class="cls-22" d="M149.51,232.18c3.37-9.48,3.16-15.6-.68-24.76,2.26,9.8,2.99,15.79.68,24.76Z"/>
            <path class="cls-22" d="M114.79,264.59c3.94-5.65,8.72-11.58,14.24-17.78-4.72,6.99-8.44,13.37-10.08,18.47l-4.16-.69Z"/>
            <path class="cls-22" d="M132.3,267.29c.68-6.61,1.85-13.49,6.05-19.71-2.27,7.45-2.83,14.47-1.93,21.13l-4.12-1.42Z"/>
            <path class="cls-22" d="M143.35,241.23c.86,3.72-.34,7.48-2.4,11.31,1.35-4.03,2.31-7.97,2.4-11.31Z"/>
            <path class="cls-22" d="M147.16,239.83c2.03-5.25,2.01-13.65,1.03-23.5-.04,9.21-.3,17.41-1.03,23.5Z"/>
          </g>
          <path class="cls-21" d="M119.23,218.61c26.32,12.7,22.24-10.08,32.4-9.62l1.01-8.62-38.28,11.9,4.87,6.34Z"/>
        </g>
        <path class="cls-7" d="M117.59,209.68c2.37,8.11,5.04,15.15,7.33,19.2.36-.98.24-1.78,1.15-1.84,3.3,7.25,2.46,11.94-1.76,15.2-1.55,5.66-5.45,10.66-9.57,15.6-.35,1.54-.62,3.81.58,4.69,1.88.15,3.38-1.05,4.03-2.53.17,1.72.74,2.78,2,2.69.95-.79,1.6-1.81,1.85-3.16.35,2.34,1.41,4.16,3.31,5.39.28-.7.65-1.32,1.31-1.69-.04,1.01.19,1.85,1.15,2.23,3.7-2.04,6.95-2.85,8.54.85.03-13.44,9.54-14.29,11.08-24.84,3.95-4.82,3.12-16.81,6.23-22.94-.99-6.09-3.24-11.7-6.54-16.91l-30.71,8.06Z"/>
      </g>
      <g>
        <path class="cls-24" d="M83.57,205.45c-1.35,7.61-3.08,13.78-5.18,18.58-7.33,14.32-19.2,17.64-24.62,27.21-.52.92-.04,2.11.98,2.39,1.99.54,4.53.02,8.45-3.19-.46,1.51-.95,2.9-1.46,4.16,3.19-.94,5.61-2.38,7-4.46-1.93,2.9-2.83,5.4-2.69,7.52,3.23-2.85.65,3.69,6.39,2.23,1.33-2.1,2.72-4.09,4.93-4.7-2.85,5.53-1.79,8.12,3.39,7.62-.97-1.58-.47-3.67,1.85-6.39-1.05,3.39-1.31,6.02,2,5.23-1.32-5.87,3.13,1.22,7.16-3.16-.21-4.92-.82-9.7-.4-15.19.28-3.71,1.57-7.27,3.71-10.31,4.54-6.43,9.62-11.97,15.73-15.83-5.79-11.74-14.57-16.36-27.22-11.7Z"/>
        <g class="cls-46">
          <g>
            <path class="cls-22" d="M84.29,237.08c4.01-5.61,6.81-12.23,8.6-19.66-2.83,7.01-5.7,13.59-8.6,19.66Z"/>
            <path class="cls-22" d="M74.18,246.53c5.29-5.88,10.33-16.02,15-32.77-4.96,13.91-9.95,25.03-15,32.77Z"/>
            <path class="cls-22" d="M72.59,236.84c5.25-4.22,10.01-12.03,14-25.4-4.45,10.96-9.11,19.59-14,25.4Z"/>
            <path class="cls-22" d="M87.59,238.21c1.97-5.28,7.56-11.53,14.84-18.25-6.09,6.92-11.34,13.22-14.84,18.25Z"/>
            <path class="cls-22" d="M74.58,255.48c2.34-6.17,4.92-12.38,8.9-16.82-2.52,4.2-5.63,10.59-8.9,16.82Z"/>
            <path class="cls-22" d="M84.29,260.93c-.86-5.74-.2-12.46,2.59-20.55-2.45,8.27-2,15.4.4,21.76l-3-1.21Z"/>
            <path class="cls-22" d="M60.13,254.33c-.33-5.56,2.5-10.68,8.56-18.17l-19.56,14.09,1,4.62,6.16,2.08,3.85-2.62Z"/>
            <path class="cls-22" d="M64.19,251c4.49-2.52,7.88-6.74,10.38-12.33-3.15,5.12-6.63,9.15-10.38,12.33Z"/>
          </g>
          <path class="cls-21" d="M77.56,213.65c2.64-.03,5.05.37,6.8-.89.61,4.41,2.3,8.73,5.04,12.97,1.72.16,3.78-.36,6.12-1.39.9,1.49,1.88,2.63,3,3.23,1.26-.13,2.47-.31,3.61-.55l7.73-8.84-30.92-15.52-1.39,10.99Z"/>
        </g>
        <path class="cls-7" d="M83.57,205.45c-1.35,7.61-3.08,13.78-5.18,18.58-7.33,14.32-19.2,17.64-24.62,27.21-.52.92-.04,2.11.98,2.39,1.99.54,4.53.02,8.45-3.19-.46,1.51-.95,2.9-1.46,4.16,3.19-.94,5.61-2.38,7-4.46-1.93,2.9-2.83,5.4-2.69,7.52,3.23-2.85.65,3.69,6.39,2.23,1.33-2.1,2.72-4.09,4.93-4.7-2.85,5.53-1.79,8.12,3.39,7.62-.97-1.58-.47-3.67,1.85-6.39-1.05,3.39-1.31,6.02,2,5.23-1.32-5.87,3.13,1.22,7.16-3.16-.21-4.92-.82-9.7-.4-15.19.28-3.71,1.57-7.27,3.71-10.31,4.54-6.43,9.62-11.97,15.73-15.83-5.79-11.74-14.57-16.36-27.22-11.7Z"/>
      </g>
      <g>
        <path class="cls-24" d="M41.82,73.78c-.79,24.63,4.66,34.6,5.76,49.02.1,1.29.38,2.57.8,3.8,3.17,9.24,1.31,10.48-.37,13.58,3.64-.78,7.26,2.53,10.85,9.47l105.6-5.54c7.37-4.03,10.75-10.12,10.62-18.01-5.34-9.7-9.89-20.92-13.62-33.73,2.87,1.57,5.52,5,8,9.87-8.36-23.71-1.35-52.72-24.44-80.86C131.06.28,100.77-3.55,81.08,4.05c4.23.48,8.19,1.01,10.01,1.89-7.18-.25-14.39,1.45-21.61,5.39-18.41,2.23-35.49,21.38-38.15,44.24,1.46-1.87,3.17-6.29,5.34-7.58-3.64,11.73-3.08,24.2-.25,33.14,1.84-2.57,4.02-7.12,5.4-7.35Z"/>
        <g class="cls-45">
          <path class="cls-22" d="M40.19,78.11c2.37-12.23,8.52-20.74,11.82-31.11-3.46,24.42-7.8,45.95-5.43,73.08-4.82-17.19-11.5-31.83-4.76-46.31"/>
          <path class="cls-27" d="M53.85,147.69c7.86-22.68,28.26-33.09,53.44-29.14l14.45.14c20.81-1.23,53.34,11.91,45.23,23.85,1.71,8.83,5.78,4.37-.9,7.1H53.8l.04-1.95Z"/>
          <path class="cls-60" d="M32.76,58.2c6.06-20.21,18.68-35.54,39.05-48.9l-28.74,5.7-17.09,34.84c-.66,11.78,2.23,12.62,6.77,8.36Z"/>
          <path class="cls-60" d="M161.46,92.36c4.52,25.98,9.94,37.52,6.32,53.12l13.95-23.46-20.27-29.66Z"/>
        </g>
        <path class="cls-7" d="M41.82,73.78c-.79,24.63,4.66,34.6,5.76,49.02.1,1.29.38,2.57.8,3.8,3.17,9.24,1.31,10.48-.37,13.58,3.64-.78,7.26,2.53,10.85,9.47l105.6-5.54c7.37-4.03,10.75-10.12,10.62-18.01-5.34-9.7-9.89-20.92-13.62-33.73,2.87,1.57,5.52,5,8,9.87-8.36-23.71-1.35-52.72-24.44-80.86C131.06.28,100.77-3.55,81.08,4.05c4.23.48,8.19,1.01,10.01,1.89-7.18-.25-14.39,1.45-21.61,5.39-18.41,2.23-35.49,21.38-38.15,44.24,1.46-1.87,3.17-6.29,5.34-7.58-3.64,11.73-3.08,24.2-.25,33.14,1.84-2.57,4.02-7.12,5.4-7.35Z"/>
      </g>
      <g>
        <path class="cls-24" d="M92.46,118.34l-.29,7.98c-12.01,4.41-21.97,9.66-28.05,16.5,3.48,9.35,8.32,15.16,14.17,18.32,4.98,20.64-14.58,11.22-7.06,30.97,1.99,3.43-1.65,4.59-.07,8.4,1.31,3.43,2.79,6.26,4.56,8.1,4.44-2.05,8.9.17,11.7-1.85.61,4.41,2.3,8.73,5.04,12.97,1.72.16,3.78-.36,6.12-1.39.9,1.49,1.88,2.63,3,3.23,7.04-.71,12.35-3.11,14.43-8.66l2.12.38c26.32,12.7,22.24-10.08,32.4-9.62,5.68,1.44,6.64-17.05,3.93-23.51-6.13-7.67-8.83-14.84-8.79-21.63l16.05-21.05-28.27-10.85c-3.47-2.13-4.67-5.49-3.46-10.16l-37.52,1.87Z"/>
        <g class="cls-48">
          <path class="cls-50" d="M93.67,141.96c2.62-7.75,10.04-5.21,12.24-7.75,3.09,2.77,6.6,3.8,11.31,0,1.64,1.41,3.77,3.14,8.51.81,1.08,2.58,4.41,4.21,5,7.74,1.42,1.19,3.67.37,4.39,1.96-3.14,15.74,5.42,20.15,8.47,30.6,4.1,14.05,2.91,29.92-17.77,35.78-6.81,1.93-14.04,1.71-20.78-.45-19.4-6.22-27.33-21.83-18.41-40.87,3.32-7.09,2.66-17.61,7.04-27.81Z"/>
          <path class="cls-24" d="M86.62,172.74c.62,12.96,21.3,19.16,25.05-3.67-8.3,14.25-16.64,16.89-25.05,3.67Z"/>
          <path class="cls-24" d="M118.22,170.94c1.28,6.41,10.01,10.39,15.16,10.47,4.01.06,8.88-3.62,7.31-9.39,4.78,19.4-22.42,12.26-22.48-1.08Z"/>
          <path class="cls-22" d="M77.98,167.4c3.56,5.62-4.64,11.16-2.79,15.78,12.7,33.44,22.53,18.18,26.84,40.08l-19.06,2.87-20.25-15.19v-35.84l15.26-7.7Z"/>
          <path class="cls-22" d="M135.51,210.6c12.07-8.9,16.12-22.56,9.96-42.28,4.37,19.57.42,33.21-9.96,42.28Z"/>
          <path class="cls-22" d="M148.32,173.94c4.59,13.27,2.11,22.49-3.62,29.77,5.24-9.03,6.47-18.95,3.62-29.77Z"/>
          <path class="cls-22" d="M152.14,180.29c2.08,4.29,1.14,10.31-.98,17.01.96-6.25,1.47-12.1.98-17.01Z"/>
          <path class="cls-22" d="M78.77,178.67c-.21,13.24,3.81,24.27,17.78,30.13-10.81-5.47-16.13-16.53-17.78-30.13Z"/>
          <path class="cls-22" d="M76.35,197.3c10.83,11.76,20.92,19.08,31.74,15.69-10.47,1.98-20.71-5.76-31.74-15.69Z"/>
          <path class="cls-22" d="M81.07,186.16c-2.51-11.76,4.74-18.72,4.11-34.06,3.46,15.82-4.91,17.95-4.11,34.06Z"/>
          <path class="cls-24" d="M106.83,185.72c-.19,9.43,2.07,18,7.73,25.4-4.19-8.28-6.54-16.78-7.73-25.4Z"/>
          <path class="cls-24" d="M90.32,180.94c-.19,9.43,9.19,25.21,18.39,27.86-5.71-2.15-17.9-16.46-18.39-27.86Z"/>
          <path class="cls-24" d="M103.21,197.3c4.1,3.82,7.15,8.38,9.7,13.3l-9.7-13.3Z"/>
          <path class="cls-24" d="M84.7,181.79c3.03,14.46,8.85,24.32,19.01,27.02-9.05-3.76-14.98-13.55-19.01-27.02Z"/>
          <path class="cls-24" d="M116.41,201.67c1.99-6.6,2.5-13.77,1.81-21.38-.42,7.55-1.01,14.7-1.81,21.38Z"/>
          <path class="cls-24" d="M119.22,202.34c2.11-4.17,3.13-10.6,2.46-20.55-.14,8.46-.92,15.42-2.46,20.55Z"/>
          <path class="cls-24" d="M120.06,209.81c3-4.76,4.6-13,5.54-22.86-1.82,9.03-3.65,17.03-5.54,22.86Z"/>
          <path class="cls-24" d="M106.41,135.58c-1.38,9.33-.22,18.12,4.46,26.17-3.11-8.75-4.37-17.47-4.46-26.17Z"/>
          <path class="cls-24" d="M113.08,153.89c1.99-6.6,2.5-13.77,1.81-21.38-.42,7.55-1.01,14.7-1.81,21.38Z"/>
          <path class="cls-24" d="M115.89,154.56c2.11-4.17,3.13-10.6,2.46-20.55-.14,8.46-.92,15.42-2.46,20.55Z"/>
          <path class="cls-24" d="M116.74,162.02c3-4.76,4.6-13,5.54-22.86-1.82,9.03-3.65,17.03-5.54,22.86Z"/>
          <path class="cls-24" d="M123.45,209.81c7.39-6.83,10.04-12.35,10.9-22.24-2.55,9.72-4.68,15.37-10.9,22.24Z"/>
          <path class="cls-24" d="M131.94,203.95c6.08-6.38,9.56-13.79,10.62-22.16-2.26,8.51-5.81,15.89-10.62,22.16Z"/>
          <path class="cls-24" d="M126.3,209.81c7.72-2.71,13.7-6.66,16.27-13.05-3.83,6.29-9.62,10.19-16.27,13.05Z"/>
          <path class="cls-22" d="M125.07,120.09c2.83,7.33,7.54,11.28,15.73,11.19-7.63,1.33-12.82-2.16-15.73-11.19Z"/>
          <path class="cls-22" d="M123.21,121.68c1.03,5.79,3.03,10.62,7.76,12.75-3.89-2.01-5.99-7.1-7.76-12.75Z"/>
          <path class="cls-22" d="M97.3,120.19c-4.3,11.64-11.67,17.99-24.61,18.04,12.09,1.92,20.21-3.7,24.61-18.04Z"/>
          <path class="cls-22" d="M97.83,126.16c-3.15,8.03-4.34,17.29-10.72,21.52,4.74-4.48,6.31-13.91,10.72-21.52Z"/>
          <path class="cls-20" d="M132.67,131.5c8.39,4.15,17.36,7.13,27.71,7.37l-14.93,12.32c-5.62-2.87-9.65-10.06-12.78-19.68Z"/>
          <path class="cls-20" d="M91.63,135.35c-8.39,4.15-17.36,7.13-27.71,7.37.23,6.79,5.09,10.96,14.93,12.32,5.62-2.87,9.65-10.06,12.78-19.68Z"/>
        </g>
        <path class="cls-7" d="M92.46,118.34l-.29,7.98c-12.01,4.41-21.97,9.66-28.05,16.5,3.48,9.35,8.32,15.16,14.17,18.32,4.98,20.64-14.58,11.22-7.06,30.97,1.99,3.43-1.65,4.59-.07,8.4,1.31,3.43,2.79,6.26,4.56,8.1,4.44-2.05,8.9.17,11.7-1.85.61,4.41,2.3,8.73,5.04,12.97,1.72.16,3.78-.36,6.12-1.39.9,1.49,1.88,2.63,3,3.23,7.04-.71,12.35-3.11,14.43-8.66l2.12.38c26.32,12.7,22.24-10.08,32.4-9.62,5.68,1.44,6.64-17.05,3.93-23.51-6.13-7.67-8.83-14.84-8.79-21.63l16.05-21.05-28.27-10.85c-3.47-2.13-4.67-5.49-3.46-10.16l-37.52,1.87Z"/>
      </g>
      <g>
        <path class="cls-19" d="M120.56,158.99c-.12-3.06-3.25-3.91-5.8-5.33-.58-.32.18-1.21.84-1.17,6.05.39,11.91.72,16.97,1.53-3.32,2.4-7.37,4.01-12.01,4.96Z"/>
        <g class="cls-47">
          <path class="cls-63" d="M116.7,156.69c5.8-1.08,7.38-3.72,8.02-6.7l14.95.46-15.3,13.8-7.68-7.56Z"/>
        </g>
        <path class="cls-10" d="M120.56,158.99c-.12-3.06-3.25-3.91-5.8-5.33-.58-.32.18-1.21.84-1.17,6.05.39,11.91.72,16.97,1.53-3.32,2.4-7.37,4.01-12.01,4.96Z"/>
      </g>
      <g>
        <path class="cls-19" d="M86.75,151.37c5.24,1.18,10.32,2.48,14.32,4.6,5.84-2.55,5.22-10.38,12.38-10.28.19,0,.27-.24.12-.35-4.97-3.39-12.31,4.13-26.82,6.03Z"/>
        <g class="cls-33">
          <path class="cls-63" d="M91.38,148.83c11.83,6.91,15.91-3.75,21.2-1.18l-11.7,12.12-14.9-6.26,5.39-4.68Z"/>
        </g>
        <path class="cls-10" d="M86.75,151.37c5.24,1.18,10.32,2.48,14.32,4.6,5.84-2.55,5.22-10.38,12.38-10.28.19,0,.27-.24.12-.35-4.97-3.39-12.31,4.13-26.82,6.03Z"/>
      </g>
      <path class="cls-22" d="M55.29,39.58c-2.92,39.58-.71,43.49.57,80.51.5-7.95,3.55-16.91,5.01-22.53,1.89,13.75.61,29.24,3.24,34.95-.58-10.12,9.16-4.08,8.11-16.91,13.24,9.56,57.09,10.97,79.29-7.35,5.78-4.77,8.77-12.12,8.05-19.58l-3.41-35.4c-.34-6.56-2.1-12.98-5.26-18.74-2.66-4.85-5.93-9.7-10.07-14.68-21.12-27.84-82.77-11.48-85.54,19.74Z"/>
      <g>
        <path class="cls-24" d="M92.34,120.09c-1.85,8.89-13.26,4.57-18.01,7.27-3.54,3.25-8.01,4.35-9.58,8.31-9.95,7.37-11.7,14.14-4.43,18.05,15.68,10.42,35.13,17.06,41.91,43.53,1.08-7.88-2.57-14.03-2.41-19.95.09-3.27-1.45-6.13-3.37-9.72,5.33,3.51,9.48,8.77,12.12,16.28-.02-6.38-1.87-12.88-8.63-21.59,3.35,1.7,5.74,4.22,8.57,6.89,1.76,3.43,4.14,5.9,5.6,8.12-.32-5.57-5.14-12.28-11.48-20.51-.72-.94-1.65-1.71-2.72-2.23-7.48-3.64-15.52-4.83-23.82-4.89-4.11-1.09-6.84-3.35-8.81-6.23,15.08-.05,31.62-5.23,25.05-23.32Z"/>
        <g class="cls-30">
          <g>
            <path class="cls-19" d="M103.73,155.84c1.36,5.42.37,7.96-.59,9.4l12.21,17.56-.06-12.47-11.56-14.49Z"/>
            <g class="cls-37">
              <path class="cls-63" d="M111.28,161.26c-4.47-.46-6.27,3.91-8.07,10.55l-2.18-4.03c-.79-11.14.91-16.87,6.87-13.4l3.37,6.89Z"/>
            </g>
            <path class="cls-10" d="M103.73,155.84c1.36,5.42.37,7.96-.59,9.4l12.21,17.56-.06-12.47-11.56-14.49Z"/>
          </g>
          <g>
            <path class="cls-19" d="M103.68,166.02c-.83,1.96-1.96,3.86-3.49,5.67l10.23,20.15c.49-9.88-.48-19.08-6.74-25.82Z"/>
            <g class="cls-35">
              <path class="cls-63" d="M108.89,161.83c-3.91,7.9-7.67,13.87-8.29,20.52l-2.8-5.97,8.84-19.84,2.25,5.28Z"/>
            </g>
            <path class="cls-10" d="M103.68,166.02c-.83,1.96-1.96,3.86-3.49,5.67l10.23,20.15c.49-9.88-.48-19.08-6.74-25.82Z"/>
          </g>
          <g>
            <path class="cls-19" d="M89.92,176.66c4.01-.47,7.41-1.89,9.88-4.77,1.69,1.86,2.38,5.06,2.48,9.08,3.22,5.15,1.18,13.34-.08,21.09-2.99-8.99-6.7-17.64-12.28-25.4Z"/>
            <g class="cls-36">
              <path class="cls-63" d="M109.95,166.07c-7.12,4.71-13.5,11.44-17.86,20.9l-6.04-6.08,19.05-20.2,4.85,5.38Z"/>
            </g>
            <path class="cls-10" d="M89.92,176.66c4.01-.47,7.41-1.89,9.88-4.77,1.69,1.86,2.38,5.06,2.48,9.08,3.22,5.15,1.18,13.34-.08,21.09-2.99-8.99-6.7-17.64-12.28-25.4Z"/>
          </g>
          <path class="cls-60" d="M86.65,120.07c-2.29,8.63-19.78,13.33-24.92,22.46-.76,1.35-1.13,2.74-1.14,4.29-.04,5.67,6.14,8.26,10.35,14.45l-24.48-11.62,17.65-20.17,22.53-9.41Z"/>
          <path class="cls-60" d="M72.92,147.22c1.59,5.27,20.86,6.41,34.31,12.54l-5.24-7.27-29.07-5.27Z"/>
        </g>
        <path class="cls-7" d="M92.34,120.09c-1.85,8.89-13.26,4.57-18.01,7.27-3.54,3.25-8.01,4.35-9.58,8.31-9.95,7.37-11.7,14.14-4.43,18.05,15.68,10.42,35.13,17.06,41.91,43.53,1.08-7.88-2.57-14.03-2.41-19.95.09-3.27-1.45-6.13-3.37-9.72,5.33,3.51,9.48,8.77,12.12,16.28-.02-6.38-1.87-12.88-8.63-21.59,3.35,1.7,5.74,4.22,8.57,6.89,1.76,3.43,4.14,5.9,5.6,8.12-.32-5.57-5.14-12.28-11.48-20.51-.72-.94-1.65-1.71-2.72-2.23-7.48-3.64-15.52-4.83-23.82-4.89-4.11-1.09-6.84-3.35-8.81-6.23,15.08-.05,31.62-5.23,25.05-23.32Z"/>
      </g>
      <g>
        <path class="cls-18" d="M104.01,19.36c-9.65-8.75-11.23-6.43-7.75-1.68-9.51-1.22-15.56-.48-19.73,1.33-.41.18-.41.75,0,.93,1.62.68,2.83,1.03,3.22,1.78-5.66.09-10.28,2.01-13.91,5.68-1.26,1.27-2.11,2.89-2.44,4.65-1.54,8.37-2.16,17.06-2.01,26l8.31,38.02,9.47,14.09c21.47,5.16,43.81,4.45,67.2-3.23,3.32-4.17,5.7-10.39,7.73-17.4l-3.02-45.11c-3.32-3.16-6.58-10.23-8.99-18.68-.49-3.52-3.36-2.85-7.11-1.63-.08-1.48.52-2.9,1.61-4.29.71-.91.34-2.25-.73-2.7-7.8-3.29-15.1-2.72-20.35,1.94-.03-2.23,1.66-4.14,1.95-6.18.09-.62-.49-1.13-1.09-.97-3.67.98-7.99,4.19-12.35,7.46Z"/>
        <g class="cls-34">
          <path class="cls-56" d="M64.71,33.86c-.57.81-1.23,1.92-1.86,2.82-.37.5-1.33,2.04-1.81,1.46-9.76-24.93,42.6-29.04,43.69-28.95,9.64-.79,17.04-.34,23.45,1.29,17.75,4.55,18.36,16.83,18.37,17.07-.38.57-2.49,3.37-2.83,3.86-.03.03-.06.03-.09,0v-.02c-1.38-3.48-5.51-7.08-8.78-6.72-.15-.05-.01-.2.03-.3.5-.73,1.14-1.79.78-2.33-.17-.26-.62-.44-.95-.57-7.52-3.11-14.47-4.09-19.69.12-.1,0-.12-.17-.12-.23-.05-1.37.59-2.36,1.15-3.23.53-.9-.31-1.22-1.05-.94-3.36,1.04-6.28,3.85-10.21,6.85-.36.29-.7.21-.98-.15-1.79-2.1-2.95-3.31-4.63-4.66-4.69-3.7-6.02-.93-3.77,2.46.22.41-.3.32-.59.3-8.77-1.02-13.96.01-17.96,1.7-7.03,1.25-10.62,4.97-12.12,10.18Z"/>
        </g>
        <path class="cls-11" d="M104.01,19.36c-9.65-8.75-11.23-6.43-7.75-1.68-9.51-1.22-15.56-.48-19.73,1.33-.41.18-.41.75,0,.93,1.62.68,2.83,1.03,3.22,1.78-5.66.09-10.28,2.01-13.91,5.68-1.26,1.27-2.11,2.89-2.44,4.65-1.54,8.37-2.16,17.06-2.01,26l8.31,38.02,9.47,14.09c21.47,5.16,43.81,4.45,67.2-3.23,3.32-4.17,5.7-10.39,7.73-17.4l-3.02-45.11c-3.32-3.16-6.58-10.23-8.99-18.68-.49-3.52-3.36-2.85-7.11-1.63-.08-1.48.52-2.9,1.61-4.29.71-.91.34-2.25-.73-2.7-7.8-3.29-15.1-2.72-20.35,1.94-.03-2.23,1.66-4.14,1.95-6.18.09-.62-.49-1.13-1.09-.97-3.67.98-7.99,4.19-12.35,7.46Z"/>
      </g>
      <ellipse class="cls-56" cx="136.34" cy="61.53" rx="17.35" ry="18.44"/>
      <ellipse class="cls-56" cx="81.12" cy="64.75" rx="18.44" ry="17.35" transform="translate(8.11 138.51) rotate(-83.89)"/>
      <path class="cls-57" d="M102.55,82.39c6.54-2.32,9.62-.94,15.8-3.87l2.27,6.23c-4.46,4.68-17.07.33-18.08-2.36Z"/>
      <g>
        <ellipse class="cls-26" cx="136.34" cy="59" rx="17.35" ry="18.44"/>
        <g class="cls-31">
          <ellipse class="cls-52" cx="143.88" cy="52.26" rx="3.93" ry="4.38" transform="translate(-9.18 50.19) rotate(-19.19)"/>
          <path class="cls-57" d="M117.43,64.68l20.32,7.37,18.7-13.06c3.77,25.84-35.26,31.52-39.02,5.69Z"/>
        </g>
        <ellipse class="cls-1" cx="136.34" cy="59" rx="17.35" ry="18.44"/>
      </g>
      <g>
        <ellipse class="cls-26" cx="81.12" cy="62.53" rx="18.44" ry="16.89" transform="translate(-12.29 104.56) rotate(-61.85)"/>
        <g class="cls-28">
          <path class="cls-57" d="M63.87,70.74l13.58,7.32,23.68-15.22c5.01,26.13-32.25,34.03-37.26,7.91Z"/>
          <ellipse class="cls-52" cx="77.57" cy="60.08" rx="4.21" ry="4.68"/>
        </g>
        <ellipse class="cls-1" cx="81.12" cy="62.53" rx="18.44" ry="16.89" transform="translate(-12.29 104.56) rotate(-61.85)"/>
      </g>
      <g>
        <path class="cls-24" d="M129.62,118.34c.05,3.31.78,5.17,3.54,5.54,11.44-.73,20.74,5.02,31.62,12.06,1.55,1,2.42,2.81,2.14,4.64-1.84,11.89-25.67,21.35-32.09,33.39-4.1,4.83-3.31,12.64-7.97,19.63,3.04-11.83-.83-16.61,5.2-24.71-4.11,2.42-6.14,8.44-10.16,11.78,1.18-6.84,5.58-13.72,10.99-21.01-3.7,3.19-7.66,5.58-11.92,7.04-.28,2.88-2.29,6.47-4.27,10.04.64-4.61,1-10.09,1.2-13.86.13-2.36,1.44-4.5,3.5-5.67,11.62-6.62,14.62-2.72,19.08-5.52,7.79-4.66,11.76-11.63,17.51-12.55-17.8,2.81-29.78-4.01-28.38-20.79Z"/>
        <g class="cls-32">
          <g>
            <path class="cls-19" d="M125.62,152.85c-5.32,5.08-2.74,8.88-.36,13.69l-9.68,15.09.58-17.9,3.66-10.2,5.81-.68Z"/>
            <g class="cls-29">
              <path class="cls-63" d="M118.28,157.73c2.55,4.37,2.27,7.91,2.41,13.78l7.21-9.7-2.54-7.85-7.08,3.77Z"/>
            </g>
            <path class="cls-10" d="M125.62,152.85c-5.32,5.08-2.74,8.88-.36,13.69l-9.68,15.09.58-17.9,3.66-10.2,5.81-.68Z"/>
          </g>
          <g>
            <path class="cls-19" d="M126.38,165.75c.27,4.09.38,7.82,2.1,8.28-1.35,3.52-5.48,8.93-9.43,12.79.54-7.03,3.46-14.63,7.33-21.07Z"/>
            <g class="cls-38">
              <path class="cls-63" d="M124.28,170.27c1.28,2.49,1.67,5.34,1.66,8.34l3.42-7.34-1.77-4.77-3.31,3.77Z"/>
            </g>
            <path class="cls-10" d="M126.38,165.75c.27,4.09.38,7.82,2.1,8.28-1.35,3.52-5.48,8.93-9.43,12.79.54-7.03,3.46-14.63,7.33-21.07Z"/>
          </g>
          <g>
            <path class="cls-19" d="M128.27,174.55c1.75,1.96,3.96,2.79,6.75,2.15,3.27,8.45-2.33,15.43-9.78,22.11-.35-9.64-.15-18.65,3.02-24.26Z"/>
            <g class="cls-39">
              <path class="cls-63" d="M126.82,175.51c4.51,3.51,6.83,8.66,8.16,14.55,3.26-3.33,5.46-7.58,3.46-15.51l-9.92-2.32-1.7,3.28Z"/>
            </g>
            <path class="cls-10" d="M128.27,174.55c1.75,1.96,3.96,2.79,6.75,2.15,3.27,8.45-2.33,15.43-9.78,22.11-.35-9.64-.15-18.65,3.02-24.26Z"/>
          </g>
          <path class="cls-60" d="M133.5,120.09c9.99,13.01,28.14,12.62,30.04,19.7,1.26,4.69-.89,10.02-6.82,14.55l17.06-11.01c-.9-18.31-19.41-21.77-40.28-23.25Z"/>
          <path class="cls-60" d="M133.5,151.61c11.28,6.18,16.69-3.87,24.5-12.47l-24.5,12.47Z"/>
        </g>
        <path class="cls-7" d="M129.62,118.34c.05,3.31.78,5.17,3.54,5.54,11.44-.73,20.74,5.02,31.62,12.06,1.55,1,2.42,2.81,2.14,4.64-1.84,11.89-25.67,21.35-32.09,33.39-4.1,4.83-3.31,12.64-7.97,19.63,3.04-11.83-.83-16.61,5.2-24.71-4.11,2.42-6.14,8.44-10.16,11.78,1.18-6.84,5.58-13.72,10.99-21.01-3.7,3.19-7.66,5.58-11.92,7.04-.28,2.88-2.29,6.47-4.27,10.04.64-4.61,1-10.09,1.2-13.86.13-2.36,1.44-4.5,3.5-5.67,11.62-6.62,14.62-2.72,19.08-5.52,7.79-4.66,11.76-11.63,17.51-12.55-17.8,2.81-29.78-4.01-28.38-20.79Z"/>
      </g>
      <path class="cls-25" d="M113.01,63.86c.82,1.68,1.59,3.37,2.34,5.06,1.25,3.5,4.39,12.06,5.7,15.68l.09.26c-1.26,1.55-3.25,2.16-5.15,2.34-3.55.27-7.12-.46-10.35-1.88-1.12-.67-2.49-1.31-3.07-2.55-.17-.43-.2-.9-.07-1.32-.14,1.89,2.11,2.48,3.5,3.06,1.56.66,3.2,1.16,4.87,1.48,3.02.52,7.13.86,9.42-1.53,0,0-.08.45-.08.45-1.36-3.65-4.39-12.14-5.73-15.67-.52-1.78-1.01-3.58-1.47-5.38h0Z"/>
      <path class="cls-17" d="M73.87,111.54c3.93,8.69,6.31,17.02,6.97,24.55.86-5.98,1.62-12.14,1.59-18.93,1.35,7.89,1.79,14.23,2.11,19.51.81-5,1.59-14.85,2.67-23.86,5.79,9.83,2.05,30.88,1.56,46.95,2.45-14.95,4.45-30.12,5.08-45.98,4.51,9.29,6.36,19.66,6.12,30.86,1.37-9.94.78-24.59,1.55-30.26,4.85,3.12,5.9,18.67,7.22,27.85.54-10.01.82-19.49.07-27.47,2.4,3.71,4.01,8.32,5.31,12.79.68,4.31,0,10.09,1.2,14.68.45-6.47,1.13-10.66,2.03-15.29.39-2.01,1.28-5.01.38-6.85-1.19-2.44-1.46-3.07.56-6.61l4,5.01c2.69,6.58,3.26,13.54,3.41,20.59,1.97-6.97,1.21-14.8.4-23.88,3.68,8.07,6.8,16.61,9.64,25.38-.46-9.2-1.95-20.11-3.74-28.69,4.34,1.07,5.72,11.81,6.32,16.35,1.91-4.75,2.48-11.01,1.42-19.1,2.5,3.73,3.73,7.4,4.12,11.02.52-3.65.12-8.43-.92-13.99,2.17,10.85,7.85,17.4,8.77,27.96.19-10.18,0-20.98-.95-33.02,1.66,4.55,2.49,10.18,3.02,16.2.39-6.77.26-13.59-1.19-20.55.98,4.12,2.26,6.74,3.8,8.08-1.25-2.59-2.2-6.14-2.99-10.2-.49-2.54-2.62-4.38-5.19-4.6-4.18-.36-4.89-3.92-8.01-2.14-5.54-4.36-11-2.83-16.45-.54-3.85.34-7.35,1.62-10.54,3.72-8.49-1.84-13.28-3.32-15.39-.23-4.7-5.73-16.15-3.3-21.02,6.44-3.67,3.94-4.98,8.59-2.95,14.24Z"/>
      <path class="cls-25" d="M98.81,49.39c.82,1.01,1.71,2.17,2.5,3.23.21.32.51.85.71,1.19l2.85,4.75-.5-.2,12.24-4.47-.32.6c-.04-.26-.12-.66-.17-1.02-.45-2.95.86-5.05,2.87-6.46-.76.99-1.48,2.14-1.76,3.45-.05.28-.16.64-.2.92-.18,1-.01,1.97.16,2.97l.06.46-.38.14-12.24,4.47-.31.11c-.66-1.12-3.12-5.18-3.75-6.25-.58-1.25-1.23-2.62-1.77-3.89h0Z"/>
      <g>
        <path class="cls-62" d="M86.91,91.22c14.61,2.28,29.67,1.84,45.49-3,1.14,5.65,1.43,10.91.69,15.7-10.89,4.79-37.6,6.44-46.17,1.99-1.68-4.74.52-8.62-.02-14.69Z"/>
        <g class="cls-40">
          <path class="cls-8" d="M87.9,90.34c-.16,3.19.06,6.13,1.05,8.36,2.06,1.15,4.15,1.43,7.62.71,1.2-.93,2.1-4.48,3-8l-11.67-1.06Z"/>
          <path class="cls-8" d="M98.6,90.24c.61,4.91,2.54,6.96,6.28,9.16,4.32.06,6.1-2.76,7.13-7.62l-13.42-1.54Z"/>
          <path class="cls-8" d="M110.97,90.94c.48,4.12,1.22,7.53,2.76,8.7,2.06,1.18,4.35.15,7.79-1.81,1.04-2.44,1.72-5,1.08-7.97l-11.62,1.08Z"/>
          <path class="cls-8" d="M131.62,87.4c.87,3.79,2.53,5.97,5.52,5.36,5.85-1.21,9.79-7.91,13.35-15.66-.29,9.65-2.57,16.36-6.64,20.6-1.71,1.78-4.2,2.64-6.62,2.18-2.25-.42-3.98-1.46-5.83-3.67l.23-8.81Z"/>
          <path class="cls-8" d="M87.97,91.59l.58,6.43c-4.15,8.79-11.58,9.42-15.63,6.07-4.05-3.35-4.73-10.69-6.16-22.26,1.67,13.91,14.32,25.22,21.21,9.77Z"/>
          <path class="cls-8" d="M122.59,89.86c.7,3.05,1.41,6.09,2.52,7.59.19.26.48.44.8.49,1.38.22,3.02-.43,4.93-1.98.46-.37.79-.88.94-1.44.48-1.84.51-4.33.34-7.12l-9.53,2.46Z"/>
          <path class="cls-57" d="M82.41,106.06c19.73-4.17,46.75-5.83,57.5-.98-23.16,9.7-42.43,10.28-57.5.98Z"/>
        </g>
      </g>
      <path class="cls-8" d="M132.5,91.25c1.21,3.9,3.25,4.53,6.25,4.01,5.89-1.04,9.12-6.12,12.9-13.77-.57,9.63-3.03,16.28-7.23,20.4-1.76,1.73-4.27,2.51-6.68,1.99-2.23-.48-3.93-1.57-5.72-3.83l.48-8.8Z"/>
      <path class="cls-8" d="M87.17,92.12l1.49,5.99c-4.15,8.79-11.58,9.42-15.63,6.07-4.05-3.35-4.73-10.69-6.16-22.26,1.67,13.91,9.43,19.36,20.3,10.2Z"/>
      <path class="cls-61" d="M100.1,46.5c-8.57-6.32-18.91-13.55-24.01-14.62-1.72,3.46-2.64,7.21-2.87,11.21-.05.82,2.63,2.62,2.64,3.46,5.3,1.92,11.7,4.19,21.68,7.75l2.56-7.8Z"/>
      <path class="cls-61" d="M115.84,46.11c8.21-6.36,22.87-18.01,28.05-19.6,2.17,2.59.44,6.4,1.12,9.64.14.66-2.55,2.39-2.47,3.08-5.88,1.31-13.81,7.27-21.6,11.99l-5.1-5.11Z"/>
      <path class="cls-25" d="M81.89,28.01c7.16-.68,14.33-.91,21.48-1.38,7.13-.51,14.28-.97,21.16-3.08-1.2.62-2.45,1.16-3.73,1.61-2.12.72-4.38,1.28-6.57,1.69-10.66,1.9-21.56,1.84-32.34,1.16h0Z"/>
      <path class="cls-25" d="M92.03,32.65c4.21-1.28,8.52-2.2,12.86-2.91,4.35-.67,8.75-1.14,13.16-.94-8.58.96-17.46,2.67-26.02,3.85h0Z"/>
      <path class="cls-25" d="M100.16,36.95c6.89-.81,13.89-1.2,20.41-3.76-5.67,3.64-13.82,4.26-20.41,3.76h0Z"/>
      <path class="cls-25" d="M100.14,33.03c4.65-1.82,10.23-3.23,15.19-2.11-5.16-.27-10.18,1.07-15.19,2.11h0Z"/>
      <g>
        <path class="cls-9" d="M125.09,164.95c-1.34.68-2.71,1.26-4.12,1.75-.28,2.88-2.29,6.47-4.27,10.04.64-4.61,1-10.09,1.2-13.86.13-2.36,1.44-4.5,3.5-5.67.68-.38,1.32-.73,1.94-1.05"/>
        <path class="cls-9" d="M127.92,173.03c-1.88,2.6-3.59,5.61-6.03,7.63.69-3.99,2.47-7.99,4.91-12.08"/>
        <path class="cls-9" d="M133.5,175.91c-2.66,4.83-2.56,11.57-6.64,17.68,2.25-8.75.71-13.65,2.2-18.88"/>
        <path class="cls-23" d="M133.05,175.79c.26-.58.86-.97,1.77-1.2l-1.29,2.17-.48-.97Z"/>
        <path class="cls-23" d="M124.66,164.66c.52-.36,1.24-.38,2.14-.11-.86.47-1.66.9-2.21,1.16l.08-1.05Z"/>
        <path class="cls-23" d="M127.39,172.99c.31-.55.91-.81,1.83-.97l-1.43,1.97-.41-1Z"/>
        <path class="cls-23" d="M129.47,174.93c.26-.58.17-1.2-.26-2.04-.26.68-.5,1.35-.66,1.99l.92.05Z"/>
        <path class="cls-23" d="M127,169.13c.4-.49.47-1.11.28-2.03-.43.59-.83,1.18-1.16,1.75l.88.28Z"/>
        <path class="cls-23" d="M123.36,156.65c.59-.22,1.03-.79,1.33-1.68l-2.26,1.13.93.55Z"/>
      </g>
      <g>
        <path class="cls-9" d="M103.39,164.49c1.77,1.39,3.36,3,5.13,4.67,1.76,3.43,4.14,5.9,5.6,8.12-.29-5.08-4.33-11.12-9.86-18.39"/>
        <path class="cls-9" d="M100.68,170.98c3.33,3.26,6,7.49,7.9,12.88-.02-5.18-1.24-10.44-5.32-16.9"/>
        <path class="cls-9" d="M91.62,176.27c4.56,5.33,8.31,12.02,10.61,20.98,1.08-7.88-2.57-14.03-2.41-19.95.04-1.51-.27-2.94-.8-4.4"/>
        <path class="cls-23" d="M103.93,159.2c-.43-.46-.57-1.16-.45-2.09l1.52,2.01-1.08.08Z"/>
        <path class="cls-23" d="M102.98,167.36c-.39-.5-.41-1.06-.21-1.98.5.74.94,1.41,1.27,1.98h-1.07Z"/>
        <path class="cls-23" d="M103.96,164.34c-.49-.57-1.08-.54-1.96-.42.52.51,1.02.84,1.53,1.25l.43-.83Z"/>
        <path class="cls-23" d="M98.59,173.07c-.29-.56-.28-1.27.1-2.13.4.86.73,1.66.95,2.35l-1.06-.22Z"/>
        <path class="cls-23" d="M92.04,176.08c-.34-.67-1.01-.72-1.9-.81.38.62,1.01,1.13,1.29,1.46l.6-.65Z"/>
        <path class="cls-23" d="M101.02,170.66c-.5-.56-.95-.58-1.84-.45.52.51.89.88,1.41,1.29l.43-.83Z"/>
      </g>
    </g>
    <g>
      <g>
        <path class="cls-12" d="M50.08,276.67c-.1,0-.24.02-.45.05-.2.04-.42.07-.66.09-.24.02-.46.05-.66.07-.2.02-.35.02-.45,0-.19-.05-.34-.22-.43-.5-.1-.29-.17-.53-.22-.72-.38-2.08-.63-4.17-.75-6.29-.12-2.11-.14-4.23-.07-6.36s.21-4.25.41-6.38c.2-2.13.42-4.24.66-6.34.05-.29.16-.54.34-.75s.42-.3.73-.25c2.79.38,5.57.79,8.33,1.22,2.76.43,5.54.8,8.36,1.11.19.02.31.1.38.22.06.12.09.27.09.45s-.02.37-.07.57c-.05.2-.08.39-.11.55-.12.81-.23,1.62-.34,2.44-.11.81-.22,1.62-.34,2.44-.05.26-.22.38-.5.36-.29-.02-.56-.06-.83-.11-.22-.05-.58-.11-1.09-.18-.51-.07-1.11-.16-1.79-.27-.68-.11-1.39-.22-2.13-.32-.74-.11-1.45-.21-2.13-.3s-1.28-.18-1.79-.25c-.51-.07-.88-.12-1.09-.14-.24,2.1-.4,4.21-.47,6.32-.07,2.11-.09,4.22-.04,6.32.22,0,.62.02,1.22.05.6.04,1.24.07,1.92.09.68.02,1.32.04,1.92.05s1,.02,1.22.02c.05-.48.08-.94.11-1.4.02-.45.05-.92.07-1.4h-2.85c-.25,0-.41-.08-.48-.25-.07-.14-.1-.42-.09-.84s.03-.86.05-1.33c.02-.47.05-.9.09-1.31.03-.41.04-.69.02-.86-.02-.1-.02-.2,0-.32.02-.12.07-.2.14-.25.07-.07.19-.11.36-.13.17-.01.34-.02.52-.02s.35.01.52.03c.17.02.3.04.39.04.19.02.6.05,1.24.07s1.3.05,2.01.07c.7.02,1.37.05,2.01.07s1.04.03,1.24.03c.31.05.61.1.91.16.3.06.41.25.34.56-.07.29-.15.76-.23,1.43-.08.67-.17,1.44-.25,2.31-.08.87-.17,1.79-.27,2.74-.1.95-.18,1.86-.25,2.72-.07.86-.13,1.63-.18,2.31-.05.68-.08,1.16-.11,1.45,0,.12-.03.26-.09.41s-.14.26-.23.3c-.07.05-.22.07-.45.07h-.48c-2.22-.1-4.43-.18-6.63-.25-2.2-.07-4.39.02-6.59.29Z"/>
        <path class="cls-12" d="M88.62,276.52c-.21.05-.62.08-1.22.11-.6.02-1.24.04-1.92.05-.68.01-1.32.02-1.92.02s-1,.01-1.22.03c-.1,0-.17-.04-.22-.12-.05-.08-.08-.19-.11-.3v-.31c0-.15,0-.32.02-.5.01-.18.02-.35.02-.5v-.34c-2.08.34-4.14.66-6.2.97-2.05.31-4.12.6-6.2.86h-.27c-.11,0-.19-.02-.23-.07-.09-.09-.16-.27-.18-.52-.02-.25-.05-.44-.07-.56-.12-1.07-.19-2.15-.22-3.22-.02-1.08-.06-2.15-.11-3.22-.1-2.58-.2-5.15-.32-7.72-.12-2.57-.08-5.14.11-7.72.02-.22.03-.47.02-.75-.01-.29,0-.56.02-.82.02-.26.08-.5.16-.72s.23-.35.45-.4c.14-.05.29-.08.45-.09.15-.01.31-.04.48-.09,1-.24,2.02-.33,3.04-.29s2.04.06,3.04.03c.14-.02.29-.02.43.02.14.03.23.11.25.23v.79c-.05,1.58-.11,3.15-.2,4.71-.08,1.56-.15,3.14-.2,4.71-.02.17-.04.46-.05.88-.01.42-.02.9-.04,1.43s-.02,1.11-.03,1.72c-.01.61-.02,1.18-.04,1.72-.01.54-.03,1.01-.05,1.43-.02.42-.03.71-.03.88.19-.02.57-.08,1.13-.18.56-.09,1.16-.2,1.81-.3.64-.11,1.25-.2,1.81-.29.56-.08.94-.14,1.13-.16.05-2.89.05-5.75,0-8.58-.05-2.83-.07-5.68-.07-8.54,0-.31.18-.49.54-.54.22-.02.6-.05,1.15-.09.55-.03,1.13-.06,1.74-.07.61-.01,1.19-.02,1.74-.02s.93.02,1.15.07c.12.02.24.03.38.02.13-.01.24.03.34.13.12.1.16.28.13.55-.03.28-.05.5-.05.66-.05,2.75-.06,5.48-.03,8.2.02,2.72-.01,5.46-.11,8.2,0,.24,0,.69-.02,1.36-.01.67-.03,1.37-.05,2.11-.02.74-.03,1.45-.03,2.11s.02,1.12.07,1.36c.02.14.05.31.09.5.04.19.06.36.07.52s0,.29-.05.41c-.05.12-.14.19-.29.21Z"/>
        <path class="cls-12" d="M95.5,276.67c-.1,0-.24.02-.45.05-.2.04-.42.07-.66.09-.24.02-.46.05-.66.07-.2.02-.35.02-.45,0-.19-.05-.34-.22-.43-.5-.1-.29-.17-.53-.22-.72-.38-2.08-.63-4.17-.75-6.29-.12-2.11-.14-4.23-.07-6.36s.21-4.25.41-6.38c.2-2.13.42-4.24.66-6.34.05-.29.16-.54.34-.75s.42-.3.73-.25c2.79.38,5.57.79,8.33,1.22,2.76.43,5.54.8,8.36,1.11.19.02.31.1.38.22.06.12.09.27.09.45s-.02.37-.07.57c-.05.2-.08.39-.11.55-.12.81-.23,1.62-.34,2.44-.11.81-.22,1.62-.34,2.44-.05.26-.22.38-.5.36-.29-.02-.56-.06-.83-.11-.22-.05-.58-.11-1.09-.18-.51-.07-1.11-.16-1.79-.27-.68-.11-1.39-.22-2.13-.32-.74-.11-1.45-.21-2.13-.3s-1.28-.18-1.79-.25c-.51-.07-.88-.12-1.09-.14-.24,2.1-.4,4.21-.47,6.32-.07,2.11-.09,4.22-.04,6.32.22,0,.62.02,1.22.05.6.04,1.24.07,1.92.09.68.02,1.32.04,1.92.05s1,.02,1.22.02c.05-.48.08-.94.11-1.4.02-.45.05-.92.07-1.4h-2.85c-.25,0-.41-.08-.48-.25-.07-.14-.1-.42-.09-.84s.03-.86.05-1.33c.02-.47.05-.9.09-1.31.03-.41.04-.69.02-.86-.02-.1-.02-.2,0-.32.02-.12.07-.2.14-.25.07-.07.19-.11.36-.13.17-.01.34-.02.52-.02s.35.01.52.03c.17.02.3.04.39.04.19.02.6.05,1.24.07s1.3.05,2.01.07c.7.02,1.37.05,2.01.07s1.04.03,1.24.03c.31.05.61.1.91.16.3.06.41.25.34.56-.07.29-.15.76-.23,1.43-.08.67-.17,1.44-.25,2.31-.08.87-.17,1.79-.27,2.74-.1.95-.18,1.86-.25,2.72-.07.86-.13,1.63-.18,2.31-.05.68-.08,1.16-.11,1.45,0,.12-.03.26-.09.41s-.14.26-.23.3c-.07.05-.22.07-.45.07h-.48c-2.22-.1-4.43-.18-6.63-.25-2.2-.07-4.39.02-6.59.29Z"/>
        <path class="cls-12" d="M134.03,276.52c-.21.05-.62.08-1.22.11-.6.02-1.24.04-1.92.05-.68.01-1.32.02-1.92.02s-1,.01-1.22.03c-.1,0-.17-.04-.22-.12-.05-.08-.08-.19-.11-.3v-.31c0-.15,0-.32.02-.5.01-.18.02-.35.02-.5v-.34c-2.08.34-4.14.66-6.2.97-2.05.31-4.12.6-6.2.86h-.27c-.11,0-.19-.02-.23-.07-.09-.09-.16-.27-.18-.52-.02-.25-.05-.44-.07-.56-.12-1.07-.19-2.15-.22-3.22-.02-1.08-.06-2.15-.11-3.22-.1-2.58-.2-5.15-.32-7.72-.12-2.57-.08-5.14.11-7.72.02-.22.03-.47.02-.75-.01-.29,0-.56.02-.82.02-.26.08-.5.16-.72s.23-.35.45-.4c.14-.05.29-.08.45-.09.15-.01.31-.04.48-.09,1-.24,2.02-.33,3.04-.29s2.04.06,3.04.03c.14-.02.29-.02.43.02.14.03.23.11.25.23v.79c-.05,1.58-.11,3.15-.2,4.71-.08,1.56-.15,3.14-.2,4.71-.02.17-.04.46-.05.88-.01.42-.02.9-.04,1.43s-.02,1.11-.03,1.72c-.01.61-.02,1.18-.04,1.72-.01.54-.03,1.01-.05,1.43-.02.42-.03.71-.03.88.19-.02.57-.08,1.13-.18.56-.09,1.16-.2,1.81-.3.64-.11,1.25-.2,1.81-.29.56-.08.94-.14,1.13-.16.05-2.89.05-5.75,0-8.58-.05-2.83-.07-5.68-.07-8.54,0-.31.18-.49.54-.54.22-.02.6-.05,1.15-.09.55-.03,1.13-.06,1.74-.07.61-.01,1.19-.02,1.74-.02s.93.02,1.15.07c.12.02.24.03.38.02.13-.01.24.03.34.13.12.1.16.28.13.55-.03.28-.05.5-.05.66-.05,2.75-.06,5.48-.03,8.2.02,2.72-.01,5.46-.11,8.2,0,.24,0,.69-.02,1.36-.01.67-.03,1.37-.05,2.11-.02.74-.03,1.45-.03,2.11s.02,1.12.07,1.36c.02.14.05.31.09.5.04.19.06.36.07.52s0,.29-.05.41c-.05.12-.14.19-.29.21Z"/>
        <path class="cls-12" d="M141.84,276.95c-.52.05-1.04.08-1.56.11-.51.02-1.03.02-1.56,0-.19,0-.37-.02-.54-.05-.17-.03-.3-.11-.39-.23-.07-.1-.12-.27-.14-.54-.02-.26-.05-.45-.07-.57-.12-1.62-.14-3.23-.07-4.84.07-1.6.09-3.2.07-4.8,0-.29,0-.78-.02-1.49-.01-.7-.02-1.52-.04-2.43-.01-.92-.03-1.9-.05-2.94-.02-1.04-.04-2.02-.05-2.94-.01-.92-.02-1.73-.04-2.44-.01-.7-.02-1.2-.02-1.49,0-.24.16-.39.47-.45s.6-.11.86-.16c1.15-.26,2.29-.46,3.44-.59,1.15-.13,2.29-.3,3.44-.52.19-.05.42-.08.68-.09s.43.08.5.27c.81,1.86,1.67,3.69,2.58,5.48.95,1.94,1.92,3.85,2.9,5.75.98,1.9,1.96,3.8,2.94,5.71.02-1.07.11-2.12.25-3.15s.26-2.06.36-3.12c.12-1.15.22-2.29.29-3.44.07-1.15.13-2.29.18-3.44.05-.53.08-1.05.09-1.56.01-.51.04-1.05.09-1.59.02-.09.05-.27.09-.52.03-.25.08-.42.12-.52.05-.07.15-.13.31-.16.15-.04.29-.05.41-.05.48.05.94.1,1.4.14.45.05.92.08,1.4.11.38,0,.76-.01,1.13-.03s.75-.02,1.13,0c.38,0,.69.06.93.18.24.12.39.31.47.57.07.26.06.56-.03.9-.02.17-.08.5-.18,1-.09.5-.19,1.03-.29,1.59-.09.56-.18,1.09-.27,1.59s-.14.84-.16,1c-.05.38-.11,1.04-.2,1.97s-.19,2.01-.3,3.22c-.12,1.22-.24,2.51-.36,3.87s-.23,2.65-.34,3.87c-.11,1.22-.21,2.29-.3,3.22-.09.93-.17,1.59-.22,1.97-.05.19-.09.37-.14.54-.05.17-.13.31-.25.43-.17.14-.44.24-.81.29-.37.05-.77.07-1.2.07s-.85-.02-1.25-.05c-.41-.04-.72-.05-.93-.05-.41,0-.81.04-1.22.13-.41.08-.81.11-1.22.09-.19-.02-.37-.05-.54-.07-.17-.02-.32-.08-.47-.18-.22-.12-.41-.28-.57-.48s-.31-.41-.43-.63c-1.29-2.15-2.48-4.33-3.56-6.54-1.09-2.21-2.31-4.35-3.67-6.43,0,1.93.08,3.87.25,5.82.17,1.95.36,3.89.57,5.82,0,.07.02.21.05.41.04.2.07.42.09.66.02.24.05.47.07.68.02.22.03.36.03.43,0,.12-.02.23-.07.32-.05.1-.12.17-.22.22-.14.07-.39.12-.75.14-.36.02-.73.04-1.13.04s-.78,0-1.15-.02c-.37-.01-.64-.02-.81-.02Z"/>
      </g>
      <g>
        <path class="cls-2" d="M50.08,273.39c-.1,0-.24.02-.45.05-.2.04-.42.07-.66.09-.24.02-.46.05-.66.07-.2.02-.35.02-.45,0-.19-.05-.34-.22-.43-.5-.1-.29-.17-.53-.22-.72-.38-2.08-.63-4.17-.75-6.29-.12-2.11-.14-4.23-.07-6.36s.21-4.25.41-6.38c.2-2.13.42-4.24.66-6.34.05-.29.16-.54.34-.75s.42-.3.73-.25c2.79.38,5.57.79,8.33,1.22,2.76.43,5.54.8,8.36,1.11.19.02.31.1.38.22.06.12.09.27.09.45s-.02.37-.07.57c-.05.2-.08.39-.11.55-.12.81-.23,1.62-.34,2.44-.11.81-.22,1.62-.34,2.44-.05.26-.22.38-.5.36-.29-.02-.56-.06-.83-.11-.22-.05-.58-.11-1.09-.18-.51-.07-1.11-.16-1.79-.27-.68-.11-1.39-.22-2.13-.32-.74-.11-1.45-.21-2.13-.3s-1.28-.18-1.79-.25c-.51-.07-.88-.12-1.09-.14-.24,2.1-.4,4.21-.47,6.32-.07,2.11-.09,4.22-.04,6.32.22,0,.62.02,1.22.05.6.04,1.24.07,1.92.09.68.02,1.32.04,1.92.05s1,.02,1.22.02c.05-.48.08-.94.11-1.4.02-.45.05-.92.07-1.4h-2.85c-.25,0-.41-.08-.48-.25-.07-.14-.1-.42-.09-.84s.03-.86.05-1.33c.02-.47.05-.9.09-1.31.03-.41.04-.69.02-.86-.02-.1-.02-.2,0-.32.02-.12.07-.2.14-.25.07-.07.19-.11.36-.13.17-.01.34-.02.52-.02s.35.01.52.03c.17.02.3.04.39.04.19.02.6.05,1.24.07s1.3.05,2.01.07,1.37.05,2.01.07,1.04.03,1.24.03c.31.05.61.1.91.16.3.06.41.25.34.56-.07.29-.15.76-.23,1.43-.08.67-.17,1.44-.25,2.31-.08.87-.17,1.79-.27,2.74-.1.95-.18,1.86-.25,2.72-.07.86-.13,1.63-.18,2.31-.05.68-.08,1.16-.11,1.45,0,.12-.03.26-.09.41s-.14.26-.23.3c-.07.05-.22.07-.45.07h-.48c-2.22-.1-4.43-.18-6.63-.25-2.2-.07-4.39.02-6.59.29Z"/>
        <path class="cls-2" d="M88.62,273.24c-.21.05-.62.08-1.22.11-.6.02-1.24.04-1.92.05-.68.01-1.32.02-1.92.02s-1,.01-1.22.03c-.1,0-.17-.04-.22-.12-.05-.08-.08-.19-.11-.3v-.31c0-.15,0-.32.02-.5.01-.18.02-.35.02-.5v-.34c-2.08.34-4.14.66-6.2.97-2.05.31-4.12.6-6.2.86h-.27c-.11,0-.19-.02-.23-.07-.09-.09-.16-.27-.18-.52-.02-.25-.05-.44-.07-.56-.12-1.07-.19-2.15-.22-3.22-.02-1.08-.06-2.15-.11-3.22-.1-2.58-.2-5.15-.32-7.72-.12-2.57-.08-5.14.11-7.72.02-.22.03-.47.02-.75-.01-.29,0-.56.02-.82.02-.26.08-.5.16-.72s.23-.35.45-.4c.14-.05.29-.08.45-.09.15-.01.31-.04.48-.09,1-.24,2.02-.33,3.04-.29s2.04.06,3.04.03c.14-.02.29-.02.43.02.14.03.23.11.25.23v.79c-.05,1.58-.11,3.15-.2,4.71-.08,1.56-.15,3.14-.2,4.71-.02.17-.04.46-.05.88-.01.42-.02.9-.04,1.43s-.02,1.11-.03,1.72c-.01.61-.02,1.18-.04,1.72-.01.54-.03,1.01-.05,1.43-.02.42-.03.71-.03.88.19-.02.57-.08,1.13-.18.56-.09,1.16-.2,1.81-.3.64-.11,1.25-.2,1.81-.29.56-.08.94-.14,1.13-.16.05-2.89.05-5.75,0-8.58-.05-2.83-.07-5.68-.07-8.54,0-.31.18-.49.54-.54.22-.02.6-.05,1.15-.09.55-.03,1.13-.06,1.74-.07.61-.01,1.19-.02,1.74-.02s.93.02,1.15.07c.12.02.24.03.38.02.13-.01.24.03.34.13.12.1.16.28.13.55-.03.28-.05.5-.05.66-.05,2.75-.06,5.48-.03,8.2.02,2.72-.01,5.46-.11,8.2,0,.24,0,.69-.02,1.36-.01.67-.03,1.37-.05,2.11-.02.74-.03,1.45-.03,2.11s.02,1.12.07,1.36c.02.14.05.31.09.5.04.19.06.36.07.52s0,.29-.05.41c-.05.12-.14.19-.29.21Z"/>
        <path class="cls-2" d="M95.5,273.39c-.1,0-.24.02-.45.05-.2.04-.42.07-.66.09-.24.02-.46.05-.66.07-.2.02-.35.02-.45,0-.19-.05-.34-.22-.43-.5-.1-.29-.17-.53-.22-.72-.38-2.08-.63-4.17-.75-6.29-.12-2.11-.14-4.23-.07-6.36s.21-4.25.41-6.38c.2-2.13.42-4.24.66-6.34.05-.29.16-.54.34-.75s.42-.3.73-.25c2.79.38,5.57.79,8.33,1.22,2.76.43,5.54.8,8.36,1.11.19.02.31.1.38.22.06.12.09.27.09.45s-.02.37-.07.57c-.05.2-.08.39-.11.55-.12.81-.23,1.62-.34,2.44-.11.81-.22,1.62-.34,2.44-.05.26-.22.38-.5.36-.29-.02-.56-.06-.83-.11-.22-.05-.58-.11-1.09-.18-.51-.07-1.11-.16-1.79-.27-.68-.11-1.39-.22-2.13-.32-.74-.11-1.45-.21-2.13-.3s-1.28-.18-1.79-.25c-.51-.07-.88-.12-1.09-.14-.24,2.1-.4,4.21-.47,6.32-.07,2.11-.09,4.22-.04,6.32.22,0,.62.02,1.22.05.6.04,1.24.07,1.92.09.68.02,1.32.04,1.92.05s1,.02,1.22.02c.05-.48.08-.94.11-1.4.02-.45.05-.92.07-1.4h-2.85c-.25,0-.41-.08-.48-.25-.07-.14-.1-.42-.09-.84s.03-.86.05-1.33c.02-.47.05-.9.09-1.31.03-.41.04-.69.02-.86-.02-.1-.02-.2,0-.32.02-.12.07-.2.14-.25.07-.07.19-.11.36-.13.17-.01.34-.02.52-.02s.35.01.52.03c.17.02.3.04.39.04.19.02.6.05,1.24.07s1.3.05,2.01.07,1.37.05,2.01.07,1.04.03,1.24.03c.31.05.61.1.91.16.3.06.41.25.34.56-.07.29-.15.76-.23,1.43-.08.67-.17,1.44-.25,2.31-.08.87-.17,1.79-.27,2.74-.1.95-.18,1.86-.25,2.72-.07.86-.13,1.63-.18,2.31-.05.68-.08,1.16-.11,1.45,0,.12-.03.26-.09.41s-.14.26-.23.3c-.07.05-.22.07-.45.07h-.48c-2.22-.1-4.43-.18-6.63-.25-2.2-.07-4.39.02-6.59.29Z"/>
        <path class="cls-2" d="M134.03,273.24c-.21.05-.62.08-1.22.11-.6.02-1.24.04-1.92.05-.68.01-1.32.02-1.92.02s-1,.01-1.22.03c-.1,0-.17-.04-.22-.12-.05-.08-.08-.19-.11-.3v-.31c0-.15,0-.32.02-.5.01-.18.02-.35.02-.5v-.34c-2.08.34-4.14.66-6.2.97-2.05.31-4.12.6-6.2.86h-.27c-.11,0-.19-.02-.23-.07-.09-.09-.16-.27-.18-.52-.02-.25-.05-.44-.07-.56-.12-1.07-.19-2.15-.22-3.22-.02-1.08-.06-2.15-.11-3.22-.1-2.58-.2-5.15-.32-7.72-.12-2.57-.08-5.14.11-7.72.02-.22.03-.47.02-.75-.01-.29,0-.56.02-.82.02-.26.08-.5.16-.72s.23-.35.45-.4c.14-.05.29-.08.45-.09.15-.01.31-.04.48-.09,1-.24,2.02-.33,3.04-.29s2.04.06,3.04.03c.14-.02.29-.02.43.02.14.03.23.11.25.23v.79c-.05,1.58-.11,3.15-.2,4.71-.08,1.56-.15,3.14-.2,4.71-.02.17-.04.46-.05.88-.01.42-.02.9-.04,1.43s-.02,1.11-.03,1.72c-.01.61-.02,1.18-.04,1.72-.01.54-.03,1.01-.05,1.43-.02.42-.03.71-.03.88.19-.02.57-.08,1.13-.18.56-.09,1.16-.2,1.81-.3.64-.11,1.25-.2,1.81-.29.56-.08.94-.14,1.13-.16.05-2.89.05-5.75,0-8.58-.05-2.83-.07-5.68-.07-8.54,0-.31.18-.49.54-.54.22-.02.6-.05,1.15-.09.55-.03,1.13-.06,1.74-.07.61-.01,1.19-.02,1.74-.02s.93.02,1.15.07c.12.02.24.03.38.02.13-.01.24.03.34.13.12.1.16.28.13.55-.03.28-.05.5-.05.66-.05,2.75-.06,5.48-.03,8.2.02,2.72-.01,5.46-.11,8.2,0,.24,0,.69-.02,1.36-.01.67-.03,1.37-.05,2.11-.02.74-.03,1.45-.03,2.11s.02,1.12.07,1.36c.02.14.05.31.09.5.04.19.06.36.07.52s0,.29-.05.41c-.05.12-.14.19-.29.21Z"/>
        <path class="cls-2" d="M141.84,273.67c-.52.05-1.04.08-1.56.11-.51.02-1.03.02-1.56,0-.19,0-.37-.02-.54-.05-.17-.03-.3-.11-.39-.23-.07-.1-.12-.27-.14-.54-.02-.26-.05-.45-.07-.57-.12-1.62-.14-3.23-.07-4.84.07-1.6.09-3.2.07-4.8,0-.29,0-.78-.02-1.49-.01-.7-.02-1.52-.04-2.43-.01-.92-.03-1.9-.05-2.94-.02-1.04-.04-2.02-.05-2.94-.01-.92-.02-1.73-.04-2.44-.01-.7-.02-1.2-.02-1.49,0-.24.16-.39.47-.45s.6-.11.86-.16c1.15-.26,2.29-.46,3.44-.59,1.15-.13,2.29-.3,3.44-.52.19-.05.42-.08.68-.09s.43.08.5.27c.81,1.86,1.67,3.69,2.58,5.48.95,1.94,1.92,3.85,2.9,5.75.98,1.9,1.96,3.8,2.94,5.71.02-1.07.11-2.12.25-3.15s.26-2.06.36-3.12c.12-1.15.22-2.29.29-3.44.07-1.15.13-2.29.18-3.44.05-.53.08-1.05.09-1.56.01-.51.04-1.05.09-1.59.02-.09.05-.27.09-.52.03-.25.08-.42.12-.52.05-.07.15-.13.31-.16.15-.04.29-.05.41-.05.48.05.94.1,1.4.14.45.05.92.08,1.4.11.38,0,.76-.01,1.13-.03s.75-.02,1.13,0c.38,0,.69.06.93.18.24.12.39.31.47.57.07.26.06.56-.03.9-.02.17-.08.5-.18,1-.09.5-.19,1.03-.29,1.59-.09.56-.18,1.09-.27,1.59s-.14.84-.16,1c-.05.38-.11,1.04-.2,1.97s-.19,2.01-.3,3.22c-.12,1.22-.24,2.51-.36,3.87s-.23,2.65-.34,3.87c-.11,1.22-.21,2.29-.3,3.22-.09.93-.17,1.59-.22,1.97-.05.19-.09.37-.14.54-.05.17-.13.31-.25.43-.17.14-.44.24-.81.29-.37.05-.77.07-1.2.07s-.85-.02-1.25-.05c-.41-.04-.72-.05-.93-.05-.41,0-.81.04-1.22.13-.41.08-.81.11-1.22.09-.19-.02-.37-.05-.54-.07-.17-.02-.32-.08-.47-.18-.22-.12-.41-.28-.57-.48s-.31-.41-.43-.63c-1.29-2.15-2.48-4.33-3.56-6.54-1.09-2.21-2.31-4.35-3.67-6.43,0,1.93.08,3.87.25,5.82.17,1.95.36,3.89.57,5.82,0,.07.02.21.05.41.04.2.07.42.09.66.02.24.05.47.07.68.02.22.03.36.03.43,0,.12-.02.23-.07.32-.05.1-.12.17-.22.22-.14.07-.39.12-.75.14-.36.02-.73.04-1.13.04s-.78,0-1.15-.02c-.37-.01-.64-.02-.81-.02Z"/>
      </g>
      <g>
        <path class="cls-51" d="M50.13,273.39c-.1,0-.25.02-.45.05s-.43.07-.67.09c-.24.02-.46.05-.67.07-.2.02-.35.02-.45,0-.19-.05-.34-.22-.43-.51-.1-.29-.17-.53-.22-.72-.38-2.1-.64-4.22-.76-6.35-.12-2.13-.15-4.27-.07-6.42.07-2.15.21-4.29.41-6.44.21-2.15.43-4.28.67-6.4.05-.29.16-.54.34-.76.18-.22.43-.3.74-.25,2.82.39,5.62.8,8.41,1.23,2.79.43,5.6.81,8.45,1.12.19.02.32.1.38.22.06.12.09.27.09.45s-.02.37-.07.58-.08.39-.11.56c-.12.82-.23,1.64-.34,2.46s-.22,1.64-.34,2.46c-.05.27-.22.38-.51.36-.29-.02-.57-.06-.83-.11-.22-.05-.59-.11-1.1-.18-.52-.07-1.12-.16-1.81-.27s-1.41-.22-2.15-.33c-.75-.11-1.47-.21-2.15-.31s-1.29-.18-1.81-.25c-.52-.07-.89-.12-1.1-.15-.24,2.12-.4,4.25-.47,6.39-.07,2.13-.08,4.26-.03,6.39.22,0,.63.02,1.23.05s1.25.07,1.94.09,1.33.04,1.94.05,1.01.02,1.23.02c.05-.48.09-.95.11-1.41.02-.46.05-.93.07-1.41h-2.88c-.25,0-.42-.08-.49-.25-.07-.14-.1-.43-.09-.85.01-.42.03-.87.05-1.34s.05-.91.09-1.32c.03-.41.04-.7.02-.87-.02-.1-.02-.2,0-.33s.07-.2.15-.25c.07-.07.19-.12.36-.13.17-.01.34-.02.52-.02s.35.01.52.04c.17.02.3.03.4.03.19.02.61.05,1.25.07.64.02,1.31.05,2.03.07.71.02,1.39.05,2.02.07.64.02,1.06.03,1.25.03.31.05.62.1.92.16.3.06.42.25.34.56-.07.29-.15.77-.23,1.45-.09.67-.17,1.45-.25,2.33-.08.88-.17,1.8-.27,2.77s-.18,1.88-.25,2.75c-.07.87-.13,1.65-.18,2.33-.05.69-.09,1.17-.11,1.47,0,.12-.03.26-.09.42-.06.16-.14.26-.24.31-.07.05-.22.07-.45.07h-.49c-2.24-.1-4.47-.18-6.69-.25-2.22-.07-4.44.02-6.66.29Z"/>
        <path class="cls-51" d="M89.06,273.24c-.22.05-.63.08-1.23.11s-1.25.04-1.94.05-1.33.02-1.94.02-1.01.01-1.23.03c-.1,0-.17-.04-.22-.13-.05-.09-.09-.19-.11-.31v-.31c0-.16,0-.33.02-.51.01-.18.02-.35.02-.51v-.34c-2.1.34-4.18.66-6.26.98s-4.16.6-6.26.87h-.27c-.11,0-.19-.02-.23-.07-.1-.1-.16-.27-.18-.52-.02-.25-.05-.44-.07-.56-.12-1.08-.19-2.17-.22-3.26-.02-1.09-.06-2.17-.11-3.26-.1-2.61-.21-5.2-.33-7.8-.12-2.59-.09-5.19.11-7.8.02-.22.03-.47.02-.76-.01-.29,0-.57.02-.83s.08-.51.16-.72c.09-.22.24-.35.45-.4.15-.05.3-.08.45-.09.16-.01.32-.04.49-.09,1.01-.24,2.04-.34,3.08-.29,1.04.05,2.06.06,3.07.03.15-.02.29-.02.44.02.14.03.23.11.25.23v.8c-.05,1.59-.12,3.18-.2,4.76-.09,1.58-.15,3.17-.2,4.76-.02.17-.04.47-.05.89s-.02.9-.04,1.45c-.01.54-.02,1.12-.03,1.74-.01.61-.02,1.19-.04,1.74-.01.54-.03,1.02-.05,1.45-.02.42-.04.72-.04.89.19-.02.57-.08,1.14-.18s1.17-.2,1.83-.31c.65-.11,1.26-.2,1.83-.29.57-.08.95-.14,1.14-.16.05-2.92.05-5.81,0-8.66-.05-2.86-.07-5.73-.07-8.63,0-.31.18-.49.54-.54.22-.02.6-.05,1.16-.09.56-.03,1.14-.06,1.76-.07s1.2-.02,1.75-.02.94.02,1.16.07c.12.02.25.03.38.02.13-.01.25.03.34.13.12.1.16.28.13.56-.04.28-.05.5-.05.67-.05,2.77-.06,5.54-.04,8.28.02,2.75-.01,5.51-.11,8.28,0,.24,0,.7-.02,1.38-.01.67-.03,1.39-.05,2.13-.02.75-.04,1.46-.04,2.13s.02,1.13.07,1.37c.02.15.05.31.09.51.04.19.06.37.07.52s0,.3-.05.42-.14.19-.29.22Z"/>
        <path class="cls-51" d="M96,273.39c-.1,0-.25.02-.45.05s-.43.07-.67.09c-.24.02-.46.05-.67.07-.2.02-.35.02-.45,0-.19-.05-.34-.22-.43-.51-.1-.29-.17-.53-.22-.72-.38-2.1-.64-4.22-.76-6.35-.12-2.13-.15-4.27-.07-6.42.07-2.15.21-4.29.41-6.44.21-2.15.43-4.28.67-6.4.05-.29.16-.54.34-.76.18-.22.43-.3.74-.25,2.82.39,5.62.8,8.41,1.23,2.79.43,5.6.81,8.45,1.12.19.02.32.1.38.22.06.12.09.27.09.45s-.02.37-.07.58-.08.39-.11.56c-.12.82-.23,1.64-.34,2.46s-.22,1.64-.34,2.46c-.05.27-.22.38-.51.36-.29-.02-.57-.06-.83-.11-.22-.05-.59-.11-1.1-.18-.52-.07-1.12-.16-1.81-.27s-1.41-.22-2.15-.33c-.75-.11-1.47-.21-2.15-.31s-1.29-.18-1.81-.25c-.52-.07-.89-.12-1.1-.15-.24,2.12-.4,4.25-.47,6.39-.07,2.13-.08,4.26-.03,6.39.22,0,.63.02,1.23.05s1.25.07,1.94.09,1.33.04,1.94.05,1.01.02,1.23.02c.05-.48.09-.95.11-1.41.02-.46.05-.93.07-1.41h-2.88c-.25,0-.42-.08-.49-.25-.07-.14-.1-.43-.09-.85.01-.42.03-.87.05-1.34s.05-.91.09-1.32c.03-.41.04-.7.02-.87-.02-.1-.02-.2,0-.33s.07-.2.15-.25c.07-.07.19-.12.36-.13.17-.01.34-.02.52-.02s.35.01.52.04c.17.02.3.03.4.03.19.02.61.05,1.25.07.64.02,1.31.05,2.03.07.71.02,1.39.05,2.02.07.64.02,1.06.03,1.25.03.31.05.62.1.92.16.3.06.42.25.34.56-.07.29-.15.77-.23,1.45-.09.67-.17,1.45-.25,2.33-.08.88-.17,1.8-.27,2.77s-.18,1.88-.25,2.75c-.07.87-.13,1.65-.18,2.33-.05.69-.09,1.17-.11,1.47,0,.12-.03.26-.09.42-.06.16-.14.26-.24.31-.07.05-.22.07-.45.07h-.49c-2.24-.1-4.47-.18-6.69-.25-2.22-.07-4.44.02-6.66.29Z"/>
        <path class="cls-51" d="M134.93,273.24c-.22.05-.63.08-1.23.11s-1.25.04-1.94.05-1.33.02-1.94.02-1.01.01-1.23.03c-.1,0-.17-.04-.22-.13-.05-.09-.09-.19-.11-.31v-.31c0-.16,0-.33.02-.51.01-.18.02-.35.02-.51v-.34c-2.1.34-4.18.66-6.26.98s-4.16.6-6.26.87h-.27c-.11,0-.19-.02-.23-.07-.1-.1-.16-.27-.18-.52-.02-.25-.05-.44-.07-.56-.12-1.08-.19-2.17-.22-3.26-.02-1.09-.06-2.17-.11-3.26-.1-2.61-.21-5.2-.33-7.8-.12-2.59-.09-5.19.11-7.8.02-.22.03-.47.02-.76-.01-.29,0-.57.02-.83s.08-.51.16-.72c.09-.22.24-.35.45-.4.15-.05.3-.08.45-.09.16-.01.32-.04.49-.09,1.01-.24,2.04-.34,3.08-.29,1.04.05,2.06.06,3.07.03.15-.02.29-.02.44.02.14.03.23.11.25.23v.8c-.05,1.59-.12,3.18-.2,4.76-.09,1.58-.15,3.17-.2,4.76-.02.17-.04.47-.05.89s-.02.9-.04,1.45c-.01.54-.02,1.12-.03,1.74-.01.61-.02,1.19-.04,1.74-.01.54-.03,1.02-.05,1.45-.02.42-.04.72-.04.89.19-.02.57-.08,1.14-.18s1.17-.2,1.83-.31c.65-.11,1.26-.2,1.83-.29.57-.08.95-.14,1.14-.16.05-2.92.05-5.81,0-8.66-.05-2.86-.07-5.73-.07-8.63,0-.31.18-.49.54-.54.22-.02.6-.05,1.16-.09.56-.03,1.14-.06,1.76-.07s1.2-.02,1.75-.02.94.02,1.16.07c.12.02.25.03.38.02.13-.01.25.03.34.13.12.1.16.28.13.56-.04.28-.05.5-.05.67-.05,2.77-.06,5.54-.04,8.28.02,2.75-.01,5.51-.11,8.28,0,.24,0,.7-.02,1.38-.01.67-.03,1.39-.05,2.13-.02.75-.04,1.46-.04,2.13s.02,1.13.07,1.37c.02.15.05.31.09.51.04.19.06.37.07.52s0,.3-.05.42-.14.19-.29.22Z"/>
        <path class="cls-51" d="M142.82,273.68c-.53.05-1.06.09-1.57.11-.52.02-1.04.02-1.57,0-.19,0-.37-.02-.54-.05-.17-.03-.3-.11-.4-.23-.07-.1-.12-.28-.15-.54-.02-.27-.05-.46-.07-.58-.12-1.64-.14-3.27-.07-4.89.07-1.62.1-3.23.07-4.85,0-.29,0-.79-.02-1.5s-.02-1.53-.04-2.46-.03-1.92-.05-2.97-.04-2.04-.05-2.97-.02-1.75-.03-2.46c-.01-.71-.02-1.21-.02-1.5,0-.24.16-.39.47-.45.31-.06.6-.12.87-.16,1.16-.27,2.32-.47,3.47-.6,1.16-.13,2.32-.31,3.47-.52.19-.05.42-.08.69-.09.26-.01.43.08.51.27.82,1.88,1.69,3.73,2.61,5.53.96,1.95,1.94,3.89,2.93,5.81.99,1.92,1.98,3.84,2.97,5.77.02-1.08.11-2.15.25-3.18.15-1.04.27-2.08.36-3.15.12-1.16.22-2.32.29-3.47.07-1.16.13-2.32.18-3.47.05-.53.08-1.05.09-1.57s.04-1.05.09-1.61c.02-.1.05-.27.09-.52.04-.25.08-.43.13-.52.05-.07.15-.13.31-.16.16-.04.29-.05.42-.05.48.05.95.1,1.41.15.46.05.93.08,1.41.11.39,0,.77-.01,1.14-.04s.75-.02,1.14,0c.38,0,.7.06.94.18s.4.31.47.58c.07.27.06.57-.04.9-.02.17-.08.51-.18,1.01-.1.51-.19,1.04-.29,1.61s-.19,1.1-.27,1.61c-.09.51-.14.84-.16,1.01-.05.39-.12,1.05-.2,1.99s-.19,2.03-.31,3.26c-.12,1.23-.24,2.53-.36,3.91-.12,1.37-.23,2.68-.34,3.91-.11,1.23-.21,2.32-.31,3.26s-.17,1.61-.22,1.99c-.05.19-.1.37-.15.54-.05.17-.13.31-.25.43-.17.15-.44.24-.81.29-.37.05-.78.07-1.21.07s-.86-.02-1.27-.05c-.41-.04-.72-.05-.94-.05-.41,0-.82.04-1.23.13-.41.08-.82.11-1.23.09-.19-.02-.37-.05-.54-.07-.17-.02-.33-.09-.47-.18-.22-.12-.41-.28-.58-.49-.17-.2-.31-.42-.43-.63-1.3-2.17-2.5-4.37-3.6-6.6s-2.33-4.4-3.71-6.49c0,1.95.08,3.91.25,5.88.17,1.97.36,3.93.58,5.88,0,.07.02.21.05.42.04.2.07.43.09.67s.05.47.07.69.04.36.04.43c0,.12-.02.23-.07.33-.05.1-.12.17-.22.22-.14.07-.4.12-.76.14s-.74.04-1.14.04-.78,0-1.16-.02c-.37-.01-.65-.02-.81-.02Z"/>
      </g>
    </g>
  </g>
</svg>