<?xml version="1.0" encoding="UTF-8"?>
<svg id="Layer_2" data-name="Layer 2" xmlns="http://www.w3.org/2000/svg" xmlns:xlink="http://www.w3.org/1999/xlink" viewBox="0 0 544.95 124.46">
  <defs>
    <style>
      .cls-1, .cls-2 {
        fill: #e5e3e1;
      }

      .cls-1, .cls-3 {
        clip-rule: evenodd;
      }

      .cls-4 {
        fill: #bcb7bb;
      }

      .cls-4, .cls-5, .cls-2, .cls-6, .cls-7, .cls-8 {
        fill-rule: evenodd;
      }

      .cls-5, .cls-3 {
        fill: #837e86;
      }

      .cls-9 {
        clip-path: url(#clippath-1);
      }

      .cls-6 {
        fill: #d9dadb;
      }

      .cls-10 {
        clip-path: url(#clippath);
      }

      .cls-7 {
        fill: #635d68;
      }

      .cls-8 {
        fill: none;
        stroke: #999;
        stroke-miterlimit: 10;
        stroke-width: 2.75px;
      }
    </style>
    <clipPath id="clippath">
      <path class="cls-1" d="M17.72,9.15C6.78,15.11,1.38,33.13,1.38,61.86s.31,49.96,11.25,57.47c7.29,5.01,76.01,5.01,206.15,0l10.38-7.51,7.84,7.51h211.14l6.79-7.51,9.11,7.51c38.96,1.91,61.41-.59,67.35-7.51,5.94-6.92,10-23.57,12.18-49.96,0-30.08-4.06-47.65-12.18-52.7-8.12-5.06-83.06-6.32-224.82-3.78l-6.48,8.42-11.88-12.42C115.18,2.59,25.02,5.18,17.72,9.15Z"/>
    </clipPath>
    <clipPath id="clippath-1">
      <path class="cls-3" d="M58.66,48.65c-7.66,2.61-11.49,7.14-11.49,13.58s3.83,11.44,11.49,14.99h431.11c7.51-3.94,11.27-8.7,11.27-14.29s-2.82-10.34-8.45-14.29H58.66Z"/>
    </clipPath>
  </defs>
  <g id="Layer_9" data-name="Layer 9">
    <g>
      <g>
        <g>
          <path class="cls-2" d="M17.72,9.15C6.78,15.11,1.38,33.13,1.38,61.86s.31,49.96,11.25,57.47c7.29,5.01,76.01,5.01,206.15,0l10.38-7.51,7.84,7.51h211.14l6.79-7.51,9.11,7.51c38.96,1.91,61.41-.59,67.35-7.51,5.94-6.92,10-23.57,12.18-49.96,0-30.08-4.06-47.65-12.18-52.7-8.12-5.06-83.06-6.32-224.82-3.78l-6.48,8.42-11.88-12.42C115.18,2.59,25.02,5.18,17.72,9.15Z"/>
          <g class="cls-10">
            <path class="cls-6" d="M299.96,13.79h235.75c-1.93-2.81-2.52-4.74-1.8-5.47,2.85-2.88-34.51-7.77-37.07-5.71,0,0-126.7-.81-190.39,2.77l-6.48,8.42Z"/>
            <path class="cls-6" d="M288.08,1.38l11.88,12.41c-35.1.84-70.51.84-106.23,0-35.3-.83-94.14-1.57-176.53-2.23-.65,0-1.62-.01-2.92-.02,2.49-2.64,6.7-4.2,12.64-4.67C90.33,1.8,146.21,1.38,164.85,1.38h123.23Z"/>
            <path class="cls-5" d="M542.01,76.12l-6.06-17.84,7.59-3.87c.13,6.8.13,11.05,0,12.75-.13,1.7-.64,4.69-1.52,8.97Z"/>
            <path class="cls-7" d="M454.86,111.82l9.11,7.51c13.19.82,22.87,1.13,29.03.94,11.84-.36,26.6-2.53,30.91-3.7,7.69-2.09,12.56-9.11,14.61-21.06-10.92,8.77-17.75,13.69-20.48,14.76-2.73,1.07-23.79,1.59-63.19,1.54Z"/>
            <polygon class="cls-7" points="454.86 111.82 448.07 119.33 237.05 119.33 229.22 111.82 454.86 111.82"/>
            <path class="cls-7" d="M218.84,119.33l10.38-7.51-217.69,6.66c.49.84,1.29,1.43,2.42,1.77,5.98,1.77,19.16,2.66,37.08,2.83,19.13,0,51.93.09,98.53-1.12,13.62-.35,36.71-1.23,69.28-2.64Z"/>
            <path class="cls-5" d="M1.34,52.55c1.41,0,3.3,9.07,5.69,27.2l-5.36,6.98c-.21-9.28-.32-16.02-.32-20.22,0-3.82-.06-13.96,0-13.96Z"/>
            <g>
              <path class="cls-5" d="M58.66,48.65c-7.66,2.61-11.49,7.14-11.49,13.58s3.83,11.44,11.49,14.99h431.11c7.51-3.94,11.27-8.7,11.27-14.29s-2.82-10.34-8.45-14.29H58.66Z"/>
              <g class="cls-9">
                <path class="cls-7" d="M41.49,65.97c162.5-10.9,318.17-11.78,465.24,0-1.08-5.35-2.25-9.53-3.53-12.54-1.28-3.01-2.69-5.64-4.22-7.9H52.83c-3.51,2.83-5.97,5.46-7.38,7.9-1.41,2.43-2.73,6.61-3.97,12.54Z"/>
              </g>
            </g>
            <path class="cls-4" d="M535.95,58.5l-8.18,45.87,10.76-8.87c1.36-4.31,2.24-7.56,2.63-9.73s.68-5.4.85-9.69l-6.06-17.58Z"/>
            <path class="cls-4" d="M535.95,58.5l7.59-4.09c-.67-13.36-1.46-22.5-2.38-27.43-.2-1.1-1.79-6.49-3.54-10.47-.47-1.08-1.11-1.99-1.92-2.72h-4l4.25,44.71Z"/>
            <path class="cls-4" d="M7.03,79.77L1.34,52.03c.19-4.99.46-8.63.8-10.92,1.34-8.83,3.46-15.12,4.88-18.91,1.98-5.26,4.4-8.82,7.26-10.66.98-.97,2.12-1.77,3.41-2.39s3.26-1.32,5.91-2.08L7.03,79.77Z"/>
            <path class="cls-4" d="M7.03,79.77l-5.36,6.97c.44,10.09,1.27,17.1,2.51,21.05.51,1.64,1.75,4.37,4.71,8.11.44.55,1.32,1.41,2.64,2.59h3.44l-7.93-38.72Z"/>
          </g>
        </g>
        <path id="Path" class="cls-4" d="M38.13,18.65c-2.87.2-4.77.6-5.68,1.22-.91.61-1.11,1.61-.58,2.99,1.42,3.23,2.8,5.18,4.16,5.86s3.78.6,7.25-.2c3.83-.33,6.3-.78,7.41-1.35,1.12-.57,1.84-1.76,2.17-3.56-1.73-2.37-3.45-3.84-5.17-4.42-1.72-.58-4.91-.76-9.57-.53Z"/>
        <path id="Path-2" data-name="Path" class="cls-4" d="M36.79,35.05c-.8-1.2-1.62-1.8-2.46-1.81-.84-.01-1.92.56-3.26,1.73-3.11,2.82-4.88,4.76-5.31,5.84-.43,1.08.14,2.15,1.71,3.22,1.13,1.55,2.12,2.39,2.95,2.53.83.13,2.23-.32,4.19-1.37,2.14-2.38,3.34-4.16,3.59-5.34s-.22-2.77-1.42-4.78Z"/>
        <path id="Path-3" data-name="Path" class="cls-4" d="M43.99,31.97c-1.43.15-2.34.65-2.73,1.52-.39.87-.37,2.34.07,4.42,1.11,4.9,2.05,7.88,2.82,8.95s1.99,1.1,3.65.07c1.9-.29,3.1-.83,3.59-1.63.5-.79.72-2.53.67-5.19-1.16-3.62-2.22-5.91-3.16-6.86s-2.58-1.38-4.92-1.29Z"/>
        <path id="Path-4" data-name="Path" class="cls-4" d="M503.72,76.94c-1.78,1.89-2.78,3.45-3.02,4.7s.67,2.98,2.71,5.21c2.45,3.15,4.34,4.9,5.67,5.26,1.33.36,2.84-.46,4.53-2.48,1.65-1.82,2.48-3.31,2.48-4.47,0-1.16-.84-2.86-2.5-5.11-2.4-1.76-4.13-2.82-5.19-3.17-1.06-.35-2.62-.33-4.68.07Z"/>
        <path id="Path-5" data-name="Path" class="cls-4" d="M519.7,92.85c-.84-1.4-1.67-2.16-2.49-2.26-.82-.1-2.3.84-4.45,2.82-2.92,2.42-4.69,4.23-5.31,5.42-.63,1.2-.46,2.46.49,3.78.83,1.3,1.66,1.9,2.48,1.8.82-.1,2.26-.97,4.33-2.62,1.92-2.26,3.15-3.87,3.7-4.83s.97-2.33,1.26-4.11Z"/>
        <path id="Path-6" data-name="Path" class="cls-4" d="M503.27,103.1c1.85-3.08,2.83-5.49,2.94-7.24.11-1.75-1.2-3.8-3.93-6.15-3.34-3.46-5.82-5.23-7.44-5.31-1.62-.08-3.3,1.5-5.04,4.73-1.71,2.96-2.49,5.21-2.33,6.76.16,1.55,1.38,3.58,3.66,6.09,3.09,1.62,5.28,2.51,6.59,2.65,1.31.14,3.16-.37,5.54-1.54Z"/>
        <path id="Path-7" data-name="Path" class="cls-5" d="M4.54,79.03l21.01,6.83,12.78,9.82,3.89,1.26-9.79-8.85c15.25,2.33,30.17,4.66,44.78,6.98,21.91,3.49,42.47,7.2,46.39,7.1,2.61-.07,16.95-.35,43.02-.86l-5.66-1.84c-22.8.6-36.34.83-40.61.72-4.27-.12-19.59-2.38-45.97-6.78-27.56-4.81-42.84-7.55-45.85-8.23-3.01-.68-11.68-3.33-26.03-7.95l2.04,1.81Z"/>
        <path id="Path-8" data-name="Path" class="cls-5" d="M537.88,62.93c-.06-1.54,0-2.47.19-2.8s.97-.86,2.35-1.61l-3.66-.65c-2.3-.68-7.18-2.54-14.65-5.56-7.47-3.03-16.5-6.78-27.08-11.25l-90.53-21.42,6.57,2.95,85.07,19.99c12.54,5.18,21.33,9,26.35,11.45s10.16,5.41,15.4,8.89Z"/>
        <path id="Path-9" data-name="Path" class="cls-7" d="M450.56,113.36c.32.3.5.51.54.61s.07.38.07.83l.53-.65c.39-.35,1.29-1.01,2.71-1.99,1.42-.98,3.16-2.13,5.2-3.48l14.14-14.93-1.31.8-13.26,14.06c-2.41,1.62-4.13,2.71-5.17,3.28-1.04.57-2.19,1.06-3.46,1.47Z"/>
      </g>
      <path class="cls-8" d="M17.72,9.15C6.78,15.11,1.38,33.13,1.38,61.86s.31,49.96,11.25,57.47c7.29,5.01,76.01,5.01,206.15,0l10.38-7.51,7.84,7.51h211.14l6.79-7.51,9.11,7.51c38.96,1.91,61.41-.59,67.35-7.51,5.94-6.92,10-23.57,12.18-49.96,0-30.08-4.06-47.65-12.18-52.7-8.12-5.06-83.06-6.32-224.82-3.78l-6.48,8.42-11.88-12.42C115.18,2.59,25.02,5.18,17.72,9.15Z"/>
    </g>
  </g>
</svg>