<?xml version="1.0" encoding="UTF-8"?>
<svg id="Layer_2" data-name="Layer 2" xmlns="http://www.w3.org/2000/svg" xmlns:xlink="http://www.w3.org/1999/xlink" viewBox="0 0 469.8 150.71">
  <defs>
    <style>
      .cls-1, .cls-2, .cls-3, .cls-4, .cls-5, .cls-6, .cls-7 {
        clip-rule: evenodd;
      }

      .cls-1, .cls-8 {
        fill: #e5e3e1;
      }

      .cls-9 {
        opacity: .17;
      }

      .cls-9, .cls-10, .cls-4, .cls-11, .cls-12 {
        fill: none;
      }

      .cls-9, .cls-10, .cls-11, .cls-12 {
        stroke-miterlimit: 10;
      }

      .cls-9, .cls-11, .cls-12 {
        stroke: #979797;
      }

      .cls-9, .cls-12 {
        stroke-width: .42px;
      }

      .cls-13 {
        fill: #a19898;
      }

      .cls-2, .cls-14, .cls-15 {
        fill: #635d68;
      }

      .cls-16, .cls-3, .cls-17 {
        fill: #bcb7bb;
      }

      .cls-16, .cls-18, .cls-8, .cls-19, .cls-20, .cls-15 {
        fill-rule: evenodd;
      }

      .cls-21 {
        fill: #8f8083;
      }

      .cls-18, .cls-22, .cls-6 {
        fill: #837e86;
      }

      .cls-10 {
        stroke: #999;
        stroke-width: 3.73px;
      }

      .cls-23 {
        fill: #cec3c1;
      }

      .cls-24 {
        fill: #a39897;
      }

      .cls-25 {
        clip-path: url(#clippath-11);
      }

      .cls-26 {
        clip-path: url(#clippath-16);
      }

      .cls-27 {
        clip-path: url(#clippath-18);
      }

      .cls-28 {
        clip-path: url(#clippath-10);
      }

      .cls-29 {
        clip-path: url(#clippath-13);
      }

      .cls-30 {
        clip-path: url(#clippath-14);
      }

      .cls-31 {
        clip-path: url(#clippath-12);
      }

      .cls-32 {
        clip-path: url(#clippath-1);
      }

      .cls-33 {
        clip-path: url(#clippath-3);
      }

      .cls-34 {
        clip-path: url(#clippath-4);
      }

      .cls-35 {
        clip-path: url(#clippath-2);
      }

      .cls-36 {
        clip-path: url(#clippath-7);
      }

      .cls-37 {
        clip-path: url(#clippath-6);
      }

      .cls-38 {
        clip-path: url(#clippath-9);
      }

      .cls-39 {
        clip-path: url(#clippath-8);
      }

      .cls-40 {
        clip-path: url(#clippath-5);
      }

      .cls-41 {
        fill: #b4a7a6;
      }

      .cls-42, .cls-19, .cls-7 {
        fill: #d9dadb;
      }

      .cls-43 {
        fill: #d1c7c6;
      }

      .cls-44, .cls-5, .cls-20 {
        fill: #4a4351;
      }

      .cls-11 {
        stroke-width: .47px;
      }

      .cls-11, .cls-12 {
        opacity: .17;
      }

      .cls-45 {
        clip-path: url(#clippath);
      }
    </style>
    <clipPath id="clippath">
      <path class="cls-1" d="M43.45,1.86C15.91,16.28,2.13,40.78,2.13,75.36s13.77,59.07,41.32,73.49h256.62l6.59-4.37,24.6,4.37h90.8c30.58-12.05,45.87-36.09,45.87-72.14s-15.29-60.99-45.87-74.85h-61.44l-11.05,2.71-5.38-2.71h-198.16l-4,4.86-11.44-4.86H43.45Z"/>
    </clipPath>
    <clipPath id="clippath-1">
      <polygon class="cls-3" points="63.7 1.86 71.61 15.27 131.92 15.27 129.9 1.86 63.7 1.86"/>
    </clipPath>
    <clipPath id="clippath-2">
      <polygon class="cls-4" points="129.9 1.86 133.86 15.27 144.5 17.3 141.35 5.69 129.9 1.86"/>
    </clipPath>
    <clipPath id="clippath-3">
      <polygon class="cls-4" points="145.35 1.86 151.5 15.27 336.63 15.27 343.42 1.86 145.35 1.86"/>
    </clipPath>
    <clipPath id="clippath-4">
      <polygon class="cls-4" points="343.42 1.86 336.62 15.27 341.27 18 348.8 4 343.42 1.86"/>
    </clipPath>
    <clipPath id="clippath-5">
      <path class="cls-3" d="M359.85,1.86l-6.16,13.41h62.44c5.64,0,10.02.91,13.15,2.72l7.67-9.02c-3.25-1.59-5.81-2.81-7.67-3.66-1.86-.85-4.52-2-7.99-3.46h-61.46Z"/>
    </clipPath>
    <clipPath id="clippath-6">
      <path class="cls-3" d="M63.7,1.86v13.4c-18.21,2.53-30.96,7.96-38.22,16.3-7.27,8.34-11.52,19.36-12.75,33.08l-10.71,5.66c-.75-8.35-.96-14.31-.63-17.87.91-9.78,4.92-17.9,8.14-24.34C14.51,18.15,25.57,9.4,42.72,1.86h20.97Z"/>
    </clipPath>
    <clipPath id="clippath-7">
      <path class="cls-4" d="M409.07,14.14c10.01.52,18.29,4.57,24.85,12.15,7.26,8.38,13.96,18.4,17,30.85,1.99,8.17,1.94,19.06,1.02,25.34-2.17,14.75-10.24,31.84-23.76,41.69-5.22,3.8-14.88,7.09-28.97,9.86h18.39c15.67-10.1,25.54-19.04,29.62-26.81.88-1.69,2.24-4.07,2.92-6,1.46-4.1,1.95-8.06,2.81-12.31,4.1-20.07,1.24-37.88-8.58-53.44-2.64-3.88-4.6-6.66-5.88-8.33-1.28-1.67-2.98-3.65-5.09-5.93l6.98-14.26-1.89-1.28-7.98,12.17c-2.74-1.51-4.88-2.48-6.42-2.89-1.55-.42-6.55-.68-15.01-.79Z"/>
    </clipPath>
    <clipPath id="clippath-8">
      <path class="cls-6" d="M2.88,94.79l11.88-6.01c1.39,6.99,4.29,13.84,8.72,20.56,4.42,6.71,9.45,11.9,15.08,15.56l-8.53,15.65c-9.44-8.44-15.68-15.21-18.71-20.32-3.03-5.11-5.84-13.59-8.44-25.45Z"/>
    </clipPath>
    <clipPath id="clippath-9">
      <path class="cls-2" d="M38.55,124.9l-8.53,15.65c3.04,2.27,5.5,3.95,7.39,5.04,1.89,1.1,3.86,1.99,5.93,2.69h256.56l-6.12-15.3H55.2c-3.85-.99-6.75-1.96-8.69-2.91-1.94-.94-4.59-2.67-7.95-5.17Z"/>
    </clipPath>
    <clipPath id="clippath-10">
      <polygon class="cls-5" points="293.77 132.98 302.77 129.73 306.49 144.27 299.9 148.28 293.77 132.98"/>
    </clipPath>
    <clipPath id="clippath-11">
      <polygon class="cls-6" points="302.77 129.73 306.49 144.27 332.9 148.28 328.54 132.53 302.77 129.73"/>
    </clipPath>
    <clipPath id="clippath-12">
      <polygon class="cls-2" points="328.17 132.59 332.54 148.34 421.56 148.34 426.21 146.57 417.14 132.59 328.17 132.59"/>
    </clipPath>
    <clipPath id="clippath-13">
      <path class="cls-6" d="M416.88,133.11l9.08,13.97c8.84-4.28,15.12-7.99,18.85-11.14,9.69-8.17,12.45-13.56,15.96-20.58,4.04-8.09,6.43-20.44,6.43-34,0-4.96-.82-11.81-2.47-20.57l-12.68,9.22c.31,14.44-.98,26.02-3.88,34.74-2.9,8.71-13.32,18.16-31.28,28.35Z"/>
    </clipPath>
    <clipPath id="clippath-14">
      <path class="cls-4" d="M442.39,32.08l8.18-9.94c3.36,4.31,5.67,7.63,6.93,9.94,1.26,2.31,2.62,5.73,4.08,10.24l-11.01,7.34c-.88-3.81-1.95-7.01-3.2-9.6-1.25-2.59-2.91-5.25-4.98-7.99Z"/>
    </clipPath>
    <clipPath id="clippath-16">
      <path class="cls-7" d="M438.17,11.07l-6.11,10.13c2.49,2.38,4.34,4.22,5.53,5.51s2.55,2.92,4.08,4.89l8.58-10.4c-2.56-2.79-4.53-4.76-5.9-5.91-1.37-1.15-3.43-2.56-6.18-4.23Z"/>
    </clipPath>
    <clipPath id="clippath-18">
      <path class="cls-4" d="M2.26,70.31v1.4l11.88-5.15c1.6-15.9,5.96-27.25,13.09-34.03,7.13-6.78,18.99-11.68,35.58-14.7h81.69l-10.64-2.56-3.96-13.4,2.01,13.4h-60.31l-7.91-13.4v13.4c-17.31,2.11-30.05,7.54-38.22,16.3-8.17,8.76-12.26,19.91-12.26,33.45l-10.96,5.29Z"/>
    </clipPath>
  </defs>
  <g id="Layer_9" data-name="Layer 9">
    <g>
      <g>
        <path class="cls-8" d="M43.45,1.86C15.91,16.28,2.13,40.78,2.13,75.36s13.77,59.07,41.32,73.49h256.62l6.59-4.37,24.6,4.37h90.8c30.58-12.05,45.87-36.09,45.87-72.14s-15.29-60.99-45.87-74.85h-61.44l-11.05,2.71-5.38-2.71h-198.16l-4,4.86-11.44-4.86H43.45Z"/>
        <g class="cls-45">
          <g>
            <polygon class="cls-16" points="63.7 1.86 71.61 15.27 131.92 15.27 129.9 1.86 63.7 1.86"/>
            <g class="cls-32">
              <rect class="cls-17" x="62.64" y=".71" width="70.33" height="15.71"/>
            </g>
          </g>
          <polygon class="cls-12" points="63.7 1.86 71.61 15.27 131.92 15.27 129.9 1.86 63.7 1.86"/>
          <g class="cls-35">
            <rect class="cls-24" x="128.85" y=".71" width="16.71" height="17.73"/>
          </g>
          <polygon class="cls-22" points="129.9 1.86 133.86 15.27 144.5 17.3 141.35 5.69 129.9 1.86"/>
          <g class="cls-33">
            <rect class="cls-41" x="144.29" y=".71" width="200.18" height="15.71"/>
          </g>
          <polygon class="cls-17" points="145.35 1.86 151.5 15.27 336.63 15.27 343.42 1.86 145.35 1.86"/>
          <g class="cls-34">
            <rect class="cls-13" x="335.56" y=".71" width="14.29" height="18.43"/>
          </g>
          <polygon class="cls-22" points="343.42 1.86 336.62 15.27 341.27 18 348.8 4 343.42 1.86"/>
          <g>
            <path class="cls-16" d="M359.85,1.86l-6.16,13.41h62.44c5.64,0,10.02.91,13.15,2.72l7.67-9.02c-3.25-1.59-5.81-2.81-7.67-3.66-1.86-.85-4.52-2-7.99-3.46h-61.46Z"/>
            <g class="cls-40">
              <rect class="cls-17" x="352.63" y=".71" width="85.38" height="18.43"/>
            </g>
          </g>
          <path class="cls-12" d="M359.85,1.86l-6.16,13.41h62.44c5.64,0,10.02.91,13.15,2.72l7.67-9.02c-3.25-1.59-5.81-2.81-7.67-3.66-1.86-.85-4.52-2-7.99-3.46h-61.46Z"/>
          <g>
            <path class="cls-16" d="M63.7,1.86v13.4c-18.21,2.53-30.96,7.96-38.22,16.3-7.27,8.34-11.52,19.36-12.75,33.08l-10.71,5.66c-.75-8.35-.96-14.31-.63-17.87.91-9.78,4.92-17.9,8.14-24.34C14.51,18.15,25.57,9.4,42.72,1.86h20.97Z"/>
            <g class="cls-37">
              <rect class="cls-17" y=".71" width="64.75" height="70.74"/>
            </g>
          </g>
          <path class="cls-12" d="M63.7,1.86v13.4c-18.21,2.53-30.96,7.96-38.22,16.3-7.27,8.34-11.52,19.36-12.75,33.08l-10.71,5.66c-.75-8.35-.96-14.31-.63-17.87.91-9.78,4.92-17.9,8.14-24.34C14.51,18.15,25.57,9.4,42.72,1.86h20.97Z"/>
          <g class="cls-36">
            <rect class="cls-23" x="398.1" y="4.1" width="60.05" height="131.47"/>
          </g>
          <g>
            <path class="cls-18" d="M2.88,94.79l11.88-6.01c1.39,6.99,4.29,13.84,8.72,20.56,4.42,6.71,9.45,11.9,15.08,15.56l-8.53,15.65c-9.44-8.44-15.68-15.21-18.71-20.32-3.03-5.11-5.84-13.59-8.44-25.45Z"/>
            <g class="cls-39">
              <rect class="cls-22" x="1.82" y="87.44" width="37.79" height="54.45"/>
            </g>
          </g>
          <g>
            <path class="cls-15" d="M38.55,124.9l-8.53,15.65c3.04,2.27,5.5,3.95,7.39,5.04,1.89,1.1,3.86,1.99,5.93,2.69h256.56l-6.12-15.3H55.2c-3.85-.99-6.75-1.96-8.69-2.91-1.94-.94-4.59-2.67-7.95-5.17Z"/>
            <g class="cls-38">
              <rect class="cls-14" x="28.97" y="123.56" width="271.99" height="26.07"/>
            </g>
          </g>
          <g>
            <polygon class="cls-20" points="293.77 132.98 302.77 129.73 306.49 144.27 299.9 148.28 293.77 132.98"/>
            <g class="cls-28">
              <rect class="cls-44" x="292.72" y="128.39" width="14.83" height="21.23"/>
            </g>
          </g>
          <g>
            <polygon class="cls-18" points="302.77 129.73 306.49 144.27 332.9 148.28 328.54 132.53 302.77 129.73"/>
            <g class="cls-25">
              <rect class="cls-22" x="301.71" y="128.39" width="32.25" height="21.23"/>
            </g>
          </g>
          <g>
            <polygon class="cls-15" points="328.17 132.59 332.54 148.34 421.56 148.34 426.21 146.57 417.14 132.59 328.17 132.59"/>
            <g class="cls-31">
              <rect class="cls-14" x="327.12" y="131.25" width="100.15" height="18.43"/>
            </g>
          </g>
          <g>
            <path class="cls-18" d="M416.88,133.11l9.08,13.97c8.84-4.28,15.12-7.99,18.85-11.14,9.69-8.17,12.45-13.56,15.96-20.58,4.04-8.09,6.43-20.44,6.43-34,0-4.96-.82-11.81-2.47-20.57l-12.68,9.22c.31,14.44-.98,26.02-3.88,34.74-2.9,8.71-13.32,18.16-31.28,28.35Z"/>
            <g class="cls-29">
              <rect class="cls-22" x="415.82" y="59.46" width="52.42" height="88.97"/>
            </g>
          </g>
          <path class="cls-11" d="M416.88,131.71l9.08,15.22c8.84-4.66,15.12-8.7,18.85-12.13,9.69-8.89,12.45-14.77,15.96-22.41,4.04-8.8,6.43-22.26,6.43-37.02,0-5.4-.82-12.86-2.47-22.4l-12.68,10.04c.31,15.73-.98,28.34-3.88,37.82s-13.32,19.78-31.28,30.87Z"/>
          <g class="cls-30">
            <rect class="cls-21" x="441.47" y="21.07" width="21.03" height="29.66"/>
          </g>
          <path class="cls-17" d="M441.67,31.61l8.58-10.4c3.52,4.51,5.94,7.98,7.27,10.4,1.32,2.42,2.75,5.99,4.28,10.71l-11.55,7.68c-.93-3.99-2.05-7.33-3.36-10.04-1.31-2.71-3.05-5.49-5.22-8.36Z"/>
          <g>
            <path class="cls-19" d="M438.17,11.07l-6.11,10.13c2.49,2.38,4.34,4.22,5.53,5.51s2.55,2.92,4.08,4.89l8.58-10.4c-2.56-2.79-4.53-4.76-5.9-5.91-1.37-1.15-3.43-2.56-6.18-4.23Z"/>
            <g class="cls-26">
              <rect class="cls-42" x="431.1" y="9.95" width="20.12" height="22.77"/>
            </g>
          </g>
          <g class="cls-27">
            <rect class="cls-43" x="1.2" y=".71" width="144.35" height="72.14"/>
          </g>
          <path class="cls-9" d="M2.26,70.31v1.4l11.88-5.15c1.6-15.9,5.96-27.25,13.09-34.03,7.13-6.78,18.99-11.68,35.58-14.7h81.69l-10.63-2.56-3.96-13.4,2.01,13.4h-60.31l-7.91-13.4v13.4c-17.31,2.11-30.05,7.54-38.22,16.3-8.17,8.76-12.26,19.91-12.26,33.45l-10.96,5.29Z"/>
          <path id="Path" class="cls-16" d="M42.38,31.34c-2.39-.78-4.04-1.05-4.97-.82-.93.24-1.39,1.05-1.38,2.44.16,3.32.69,5.5,1.58,6.54s2.87,1.79,5.93,2.23c3.2.98,5.33,1.41,6.41,1.28,1.08-.13,2.03-.94,2.84-2.41-.67-2.66-1.62-4.53-2.83-5.61-1.22-1.08-3.75-2.3-7.59-3.65Z"/>
          <path id="Path-2" data-name="Path" class="cls-16" d="M36.29,57.11c-.28-1.68-.76-2.7-1.43-3.07-.67-.37-1.73-.18-3.17.56-3.38,1.84-5.41,3.27-6.08,4.29-.68,1.03-.54,2.47.4,4.32.45,2.21.98,3.57,1.62,4.07.63.5,1.9.58,3.81.23,2.46-1.76,3.97-3.25,4.54-4.47s.67-3.2.31-5.95Z"/>
          <path id="Path-3" data-name="Path" class="cls-16" d="M43.06,56.7c-1.2-.44-2.1-.26-2.68.55-.58.81-1.01,2.47-1.29,4.98-.6,5.95-.74,9.69-.45,11.21.3,1.53,1.27,2.07,2.94,1.62,1.63.48,2.76.38,3.41-.3.65-.68,1.35-2.52,2.13-5.53.17-4.55.01-7.55-.46-9.02s-1.67-2.64-3.59-3.52Z"/>
          <path class="cls-14" d="M396.61,126.01c.31,1.13,1.84,5.02,1.86,5.31.07,1.21-1.51.86-1.13,1.8.22.54,5.27,2.1,6.15,1.72.3.29-.04.98-.03,1.15.02.27.08.64.06.9.64.24,1.22.58,1.91.61-.98-3.14,1.36-5.04,2.63-7.19.31-.52.37-.35.17-1.13-4.78,3.04-8.08,2.22-10.58-3.92l-3.53-7.74-12.37-6.66,10.29,7.76,4.56,7.39Z"/>
          <path class="cls-14" d="M53.59,118.31c-.41.41-1.93,7.66-2.26,8.87-.45,1.62-2.62,5.13-1.87,6.89-3.29.85-7.69,2.23-11,2.27-.4,0-1.48-.49-1.56-.5l.11-.24c1.95-1.35,3.55-4.87,5.21-6.37,1.4-1.27,3.25-.84,4.34-1.67,1.15-.87,5.98-8.66,6.49-10.29,4.54.42,9.02-1.62,13.48-5.26-3.94,4.68-8.29,6.53-12.93,6.31Z"/>
        </g>
      </g>
      <path class="cls-10" d="M43.45,1.86C15.91,16.28,2.13,40.78,2.13,75.36s13.77,59.07,41.32,73.49h256.62l6.59-4.37,24.6,4.37h90.8c30.58-12.05,45.87-36.09,45.87-72.14s-15.29-60.99-45.87-74.85h-61.44l-11.05,2.71-5.38-2.71h-198.16l-4,4.86-11.44-4.86H43.45Z"/>
    </g>
  </g>
</svg>