<?xml version="1.0" encoding="UTF-8"?>
<svg id="Layer_2" data-name="Layer 2" xmlns="http://www.w3.org/2000/svg" xmlns:xlink="http://www.w3.org/1999/xlink" viewBox="0 0 566.61 941.37">
  <defs>
    <style>
      .cls-1 {
        fill: #891210;
      }

      .cls-2, .cls-3, .cls-4, .cls-5, .cls-6, .cls-7, .cls-8, .cls-9, .cls-10 {
        stroke-miterlimit: 10;
      }

      .cls-2, .cls-11 {
        fill: #f9f9f9;
      }

      .cls-2, .cls-6, .cls-7, .cls-8, .cls-9, .cls-10 {
        stroke-width: 3px;
      }

      .cls-2, .cls-10 {
        stroke: #c6c6c6;
      }

      .cls-3, .cls-4, .cls-5 {
        stroke: #b7b3ab;
        stroke-width: 2px;
      }

      .cls-3, .cls-12 {
        fill: #cdc5b0;
      }

      .cls-13 {
        fill: #353124;
      }

      .cls-14 {
        fill: #8e663f;
      }

      .cls-15, .cls-8 {
        fill: #4c4632;
      }

      .cls-4 {
        fill: #b5ab95;
      }

      .cls-16 {
        fill: #ddd;
      }

      .cls-17 {
        clip-path: url(#clippath-1);
      }

      .cls-18 {
        clip-path: url(#clippath-3);
      }

      .cls-19 {
        clip-path: url(#clippath-4);
      }

      .cls-20 {
        clip-path: url(#clippath-2);
      }

      .cls-21 {
        clip-path: url(#clippath-6);
      }

      .cls-22 {
        clip-path: url(#clippath-8);
      }

      .cls-23 {
        clip-path: url(#clippath-5);
      }

      .cls-24, .cls-25 {
        opacity: .2;
      }

      .cls-24, .cls-26 {
        fill: #7f5c36;
      }

      .cls-27, .cls-6 {
        fill: #f9ecdc;
      }

      .cls-28 {
        fill: #e25550;
      }

      .cls-5, .cls-7, .cls-9, .cls-10 {
        fill: none;
      }

      .cls-29 {
        fill: #191918;
      }

      .cls-6, .cls-9 {
        stroke: #e5d4c1;
      }

      .cls-30 {
        opacity: .1;
      }

      .cls-30, .cls-31, .cls-25 {
        fill: #20164c;
      }

      .cls-31, .cls-32 {
        opacity: .15;
      }

      .cls-7, .cls-8 {
        stroke: #3d3928;
      }

      .cls-32 {
        fill: #ffeac5;
      }

      .cls-33 {
        fill: #0c0812;
      }

      .cls-34 {
        fill: #b33c33;
      }

      .cls-35 {
        clip-path: url(#clippath);
      }
    </style>
    <clipPath id="clippath">
      <path class="cls-8" d="M170.59,649.22c19.73,34.38-83.87,81.58-138.15,182.67-12.5,17.64,56.99,118.05,124.33,75.48,35.96-3.48,30.2-7.75,42.06-30.06,17.58-34.98,20.96-88.67,9.16-162.32l-19.34-75.69-18.06,9.92Z"/>
    </clipPath>
    <clipPath id="clippath-1">
      <path class="cls-6" d="M141.33,200.05c-26.4-11.42-45.05-47.58-69.62-58.72-2.04-.93-4.02,1.4-2.79,3.28,35.01,53.42,16.04,112.89,91.24,121.08l-18.83-65.64Z"/>
    </clipPath>
    <clipPath id="clippath-2">
      <path class="cls-6" d="M436.48,632.71c4.49-30.28-4.83-38.67-7.25-66.4,13.53-82.12-21.84-161.32-88.61-172.11-4.29-4.95-4.78-15.72-3.61-29h-50.46l-3.39,16.33c-53.18-.35-95.35,24.55-124.66,78.87-10.93,9.76-26.09,35.69-29.34,43.46-6.67,19.75.68,29.77,33.36,55.4,13.01,12.69,24.75,24.82,19.56,42.93-3.94,22.71-17.48,24.29-22.9,36.06-7.95,16.08-3.31,34.28,25.44,11.77,4.28,59.14,44.91,108.37,98.59,154.05-2.8,24.25-8.14,41.05-12.59,64.88-9.14,19.22-14.1,30.82-12.59,34.73,14.84,12.98,33.84,13.01,54.57,7.63,3.99-8.19,4.41-16.57,0-25.19,2.16-11.28,9.72-24.39,31.67-42.36l27.86,10.11c10.49,37.21-12.07,37.37-10.43,47,18.76,11.63,38.5,11.77,51.33-4.08,16.5-20.38,27.92-49.54-30.85-117.85,18.79-19.2,32.24-51.03,36.13-105.39,13.06,20.07,66.28,21.58,18.19-40.83ZM200.76,552.83c-.84-10.27-16.22-19.52-20.85-29.5-1.11-2.4-.14-5.21,2.19-6.46,22.25-11.99,37.86-37.18,47.16-46.47l-28.5,82.43Z"/>
    </clipPath>
    <clipPath id="clippath-3">
      <path class="cls-6" d="M483.07,243.81c19.63-23.29,49.17-48.8,77.78-58.14,3-.98,5.53,2.3,3.56,4.76-9.29,11.6-12.51,24.07-16.61,37.18-11.5,36.79-49.28,66.8-79.8,43.17l15.07-26.97Z"/>
    </clipPath>
    <clipPath id="clippath-4">
      <path class="cls-6" d="M141.92,131.69c-26.04,87.97,5.02,158.69,76.11,217.31,39.97,23.82,155.49,42.7,209.58-4.13,53.42-67.04,83.78-130.04,75.5-197.36C472.24,38.75,391.68-11.57,277.57,4.4c-15.44,4.3-32.41,12.08-50.13,21.55-16.55,8.85-31.12,21.04-42.55,35.93-15.62,20.35-30.08,45.2-42.97,69.82Z"/>
    </clipPath>
    <clipPath id="clippath-5">
      <circle class="cls-2" cx="409.35" cy="175.85" r="45.05"/>
    </clipPath>
    <clipPath id="clippath-6">
      <circle class="cls-2" cx="251.94" cy="159.17" r="47.88"/>
    </clipPath>
    <clipPath id="clippath-8">
      <path class="cls-3" d="M206.46,531.64c-10.28,29.56-16.93,54.98-19.27,75.48,55.72-10.68,100.92,8.88,135.29,59.53,21.69-27.65,49.34-48.52,90.57-53.94l-11.19-70.73c-51.53,21.69-120,12.06-195.39-10.34Z"/>
    </clipPath>
  </defs>
  <g id="tuyul">
    <g>
      <g>
        <path class="cls-15" d="M170.59,649.22c19.73,34.38-83.87,81.58-138.15,182.67-12.5,17.64,56.99,118.05,124.33,75.48,35.96-3.48,30.2-7.75,42.06-30.06,17.58-34.98,20.96-88.67,9.16-162.32l-19.34-75.69-18.06,9.92Z"/>
        <g class="cls-35">
          <path class="cls-13" d="M144.94,683.82c33.66,23.21,62.04,72.29,88.48,130.77l-35.8-189.29-62.91,26.87,10.23,31.65Z"/>
          <path class="cls-13" d="M136.24,691.96c-76.76,126.6-58.95,204.96,42.71,243.73-87.81,17.54-153-3.53-178.95-91.59l136.24-152.14Z"/>
          <path class="cls-32" d="M79.85,882.12c-18.13-11-31.6-28.18-38.71-53.8-2.19-16.82,49.71-44.39,68.02-100.39.87,49.5-54.72,75.66-50,105.87,3.56,15.4,11.47,31.72,20.69,48.32Z"/>
          <path class="cls-32" d="M129.63,872.09c16.68.86,33.15,1.39,43.25-7.63,7.89-10.85,10.75-48.92,13.8-85.91-10.38,53.44-28.34,87.36-57.05,93.54Z"/>
          <path class="cls-32" d="M192.64,807.98c15.32,43.6,6.37,72.86-20.52,82.18,21.33-18.2,27.63-48.87,20.52-82.18Z"/>
          <path class="cls-32" d="M126.39,734.83c22.32-13.68,41.43-40.84,59.72-78.23-20.99,31.77-41.01,58.45-59.72,78.23Z"/>
          <path class="cls-32" d="M161.43,740.05c2.91-25.45,9.38-50.12,19.88-73.91-4.48,26.1-11.23,50.66-19.88,73.91Z"/>
          <path class="cls-32" d="M186.11,670.15c-7.55,31.13-8.86,71.98,3.14,91.53-4.16-27.6-4.03-61.63-3.14-91.53Z"/>
          <path class="cls-32" d="M192.85,699.4c.03,27.24,1.48,50.47,10.05,71.17l-10.05-71.17Z"/>
          <path class="cls-32" d="M156.25,757.86c6.09,28.93-9.76,55.79-33.3,81.92,13.84-25.53,25.92-52.21,33.3-81.92Z"/>
          <path class="cls-32" d="M108.71,844.86c-27.67-34.15-.75-79.41,47.38-128.99-20.63,86.84-37.41,138.74-47.38,128.99Z"/>
          <path class="cls-13" d="M122.95,868.36c34.52-.84,49.83-57.57,56.04-106.18-15.47,43.31-34.15,78.7-56.04,106.18Z"/>
        </g>
        <path class="cls-7" d="M170.59,649.22c19.73,34.38-83.87,81.58-138.15,182.67-12.5,17.64,56.99,118.05,124.33,75.48,35.96-3.48,30.2-7.75,42.06-30.06,17.58-34.98,20.96-88.67,9.16-162.32l-19.34-75.69-18.06,9.92Z"/>
      </g>
      <g>
        <path class="cls-27" d="M141.33,200.05c-26.4-11.42-45.05-47.58-69.62-58.72-2.04-.93-4.02,1.4-2.79,3.28,35.01,53.42,16.04,112.89,91.24,121.08l-18.83-65.64Z"/>
        <g class="cls-17">
          <path class="cls-31" d="M114.34,167.35c16.35,44.52,22.68,97.95,7.52,119.96l62.71-12.59-31.67-104.57-38.56-2.8Z"/>
        </g>
        <path class="cls-9" d="M141.33,200.05c-26.4-11.42-45.05-47.58-69.62-58.72-2.04-.93-4.02,1.4-2.79,3.28,35.01,53.42,16.04,112.89,91.24,121.08l-18.83-65.64Z"/>
      </g>
      <g>
        <path class="cls-27" d="M436.48,632.71c4.49-30.28-4.83-38.67-7.25-66.4,13.53-82.12-21.84-161.32-88.61-172.11-4.29-4.95-4.78-15.72-3.61-29h-50.46l-3.39,16.33c-53.18-.35-95.35,24.55-124.66,78.87-10.93,9.76-26.09,35.69-29.34,43.46-6.67,19.75.68,29.77,33.36,55.4,13.01,12.69,24.75,24.82,19.56,42.93-3.94,22.71-17.48,24.29-22.9,36.06-7.95,16.08-3.31,34.28,25.44,11.77,4.28,59.14,44.91,108.37,98.59,154.05-2.8,24.25-8.14,41.05-12.59,64.88-9.14,19.22-14.1,30.82-12.59,34.73,14.84,12.98,33.84,13.01,54.57,7.63,3.99-8.19,4.41-16.57,0-25.19,2.16-11.28,9.72-24.39,31.67-42.36l27.86,10.11c10.49,37.21-12.07,37.37-10.43,47,18.76,11.63,38.5,11.77,51.33-4.08,16.5-20.38,27.92-49.54-30.85-117.85,18.79-19.2,32.24-51.03,36.13-105.39,13.06,20.07,66.28,21.58,18.19-40.83ZM200.76,552.83c-.84-10.27-16.22-19.52-20.85-29.5-1.11-2.4-.14-5.21,2.19-6.46,22.25-11.99,37.86-37.18,47.16-46.47l-28.5,82.43Z"/>
        <g class="cls-20">
          <path class="cls-31" d="M220.2,483.11c13.79-14.13,22.45-39.76,28.62-70.98-8.78,27.72-18.13,52.4-28.62,70.98Z"/>
          <path class="cls-31" d="M387.14,446.99c26.37,97.28,44.4,177.51,31.21,235.93-3.38-65.5-16.36-132.46-31.21-235.93Z"/>
          <path class="cls-31" d="M313.19,411.96c-10.3,36.24-10.92,64.19-1.78,81.41-4.65-22.48-3.8-49.84,1.78-81.41Z"/>
          <path class="cls-31" d="M323.53,501.95c7.26,8.45,14.38,15.91,21.18,21.09,19.63,5.22,38.14,7.38,55.52,6.47-33.65,4.53-66.13,5.93-76.71-27.56Z"/>
          <path class="cls-31" d="M279.29,490.59c-2.01,6.71-6.41,17.84-17.24,21.37-18.3,5.97-37.54,5.93-60.81,12.91,27.86-1.43,58.78.22,70.58-8.33,6.14-9.13,8.52-14.81,7.46-25.95Z"/>
          <path class="cls-31" d="M430.22,568.09c-5.33.27-6.31-19.01-7.38-37.91,4.03,17.48,8.48,32.57,15.52,33.33l-8.14,4.58Z"/>
          <path class="cls-31" d="M180.32,523.95c-7.51-4.39,2.4-14.33,13.61-24.68l-13.61,24.68Z"/>
          <path class="cls-31" d="M269.94,793.48c24.78,19.76,51.61,38.42,78.61,51.48l-23.66,31.74c-5.82-25.64-28.66-43.18-61.25-56.1l6.3-27.12Z"/>
          <path class="cls-31" d="M314.2,655.04c16.33,25.42,22.4,52.14,21.37,79.76,18.85,15.14,37.09,32.6,54.95,51.52-.91-15.82-16.96-35.04-41.22-56.1-1.79-30.33-12.25-56.05-35.11-75.18Z"/>
          <path class="cls-31" d="M201.37,543.57c-25.13,36.62-22.32,70.67-17.01,117.54,3.09-44.93,5.79-78.01,17.01-117.54Z"/>
          <path class="cls-31" d="M368.14,851.32c8.38,2.49,16.94,4.22,25.95,4.01l-29.39,26.71,3.43-30.72Z"/>
          <path class="cls-31" d="M226.43,381.98c71.3-9.03,86.85-11.18,154.94,10.69l1.14-41.6-142.35,1.91-13.74,29Z"/>
          <path class="cls-31" d="M199.91,568.89c-11.3,29.56-9.45,27.15-12.02,47.64,61.27-10.68,102.54,16,140.32,66.66,17.94-34.91,45.14-53.38,84.22-65.04l-3.2-30.36c-81,20.69-145.39,2.74-209.32-18.89Z"/>
        </g>
        <path class="cls-9" d="M436.48,632.71c4.49-30.28-4.83-38.67-7.25-66.4,13.53-82.12-21.84-161.32-88.61-172.11-4.29-4.95-4.78-15.72-3.61-29h-50.46l-3.39,16.33c-53.18-.35-95.35,24.55-124.66,78.87-10.93,9.76-26.09,35.69-29.34,43.46-6.67,19.75.68,29.77,33.36,55.4,13.01,12.69,24.75,24.82,19.56,42.93-3.94,22.71-17.48,24.29-22.9,36.06-7.95,16.08-3.31,34.28,25.44,11.77,4.28,59.14,44.91,108.37,98.59,154.05-2.8,24.25-8.14,41.05-12.59,64.88-9.14,19.22-14.1,30.82-12.59,34.73,14.84,12.98,33.84,13.01,54.57,7.63,3.99-8.19,4.41-16.57,0-25.19,2.16-11.28,9.72-24.39,31.67-42.36l27.86,10.11c10.49,37.21-12.07,37.37-10.43,47,18.76,11.63,38.5,11.77,51.33-4.08,16.5-20.38,27.92-49.54-30.85-117.85,18.79-19.2,32.24-51.03,36.13-105.39,13.06,20.07,66.28,21.58,18.19-40.83ZM200.76,552.83c-.84-10.27-16.22-19.52-20.85-29.5-1.11-2.4-.14-5.21,2.19-6.46,22.25-11.99,37.86-37.18,47.16-46.47l-28.5,82.43Z"/>
      </g>
      <g>
        <path class="cls-27" d="M483.07,243.81c19.63-23.29,49.17-48.8,77.78-58.14,3-.98,5.53,2.3,3.56,4.76-9.29,11.6-12.51,24.07-16.61,37.18-11.5,36.79-49.28,66.8-79.8,43.17l15.07-26.97Z"/>
        <g class="cls-18">
          <path class="cls-31" d="M545.17,171.21c-35.46,47.8-57.83,93.93-63.1,137.89l-38.16-33.07,47.83-90.54,53.43-14.28Z"/>
        </g>
        <path class="cls-9" d="M483.07,243.81c19.63-23.29,49.17-48.8,77.78-58.14,3-.98,5.53,2.3,3.56,4.76-9.29,11.6-12.51,24.07-16.61,37.18-11.5,36.79-49.28,66.8-79.8,43.17l15.07-26.97Z"/>
      </g>
      <g>
        <path class="cls-27" d="M141.92,131.69c-26.04,87.97,5.02,158.69,76.11,217.31,39.97,23.82,155.49,42.7,209.58-4.13,53.42-67.04,83.78-130.04,75.5-197.36C472.24,38.75,391.68-11.57,277.57,4.4c-15.44,4.3-32.41,12.08-50.13,21.55-16.55,8.85-31.12,21.04-42.55,35.93-15.62,20.35-30.08,45.2-42.97,69.82Z"/>
        <g class="cls-19">
          <circle class="cls-25" cx="409" cy="181.65" r="46.86"/>
          <ellipse class="cls-25" cx="248.82" cy="164.7" rx="49.99" ry="47.94"/>
          <ellipse class="cls-28" cx="177.41" cy="273.91" rx="31.36" ry="35.41" transform="translate(-129.8 384.01) rotate(-76.78)"/>
          <g>
            <circle class="cls-11" cx="409.35" cy="175.85" r="45.05"/>
            <g class="cls-23">
              <ellipse class="cls-16" cx="405.79" cy="213.04" rx="37.95" ry="21"/>
              <circle class="cls-29" cx="388.04" cy="166.47" r="13.71"/>
            </g>
            <circle class="cls-10" cx="409.35" cy="175.85" r="45.05"/>
          </g>
          <g>
            <circle class="cls-11" cx="251.94" cy="159.17" r="47.88"/>
            <g class="cls-21">
              <ellipse class="cls-16" cx="266.11" cy="196.54" rx="49.4" ry="25.32" transform="translate(-51.57 104.23) rotate(-20.25)"/>
              <circle class="cls-29" cx="270.87" cy="145.52" r="15.94"/>
            </g>
            <circle class="cls-10" cx="251.94" cy="159.17" r="47.88"/>
          </g>
          <path class="cls-26" d="M365.86,237.68c-1.7,9.25,1.45,19.07,2.2,28.47.91,12.71,3.14,22.24,14.18,28.47-5.04-2.05-9.81-5.14-13.4-9.43-11.17-13.22-8.06-32.38-2.99-47.52h0Z"/>
          <path class="cls-26" d="M277.35,252.37c5.91,9.31,9.81,22.32,1.93,31.8-2.56,2.98-12.3,8.79-9.46,6.33,11.73-10.2,9.32-24.55,7.06-38.73l.47.61Z"/>
          <path class="cls-25" d="M406.48,237.45c27.96,2.93,46.75-8.87,54.76-37.97-13.47,23.93-32.17,35.56-54.76,37.97Z"/>
          <path class="cls-25" d="M242.89,220.24c-27.43,3.19-45.87-9.66-53.74-41.34,13.22,26.05,31.56,38.7,53.74,41.34Z"/>
          <path class="cls-25" d="M405.59,86.36c-9.67,21.36,15.44,33.96,42.28,17.12l-42.28-17.12Z"/>
          <path class="cls-25" d="M283.36,67.9c4.88,24.99-24.76,32.08-48.89,7.6l48.89-7.6Z"/>
          <path class="cls-33" d="M404.25,91.52c4.38-23.25,20.11-18.74,47.19,13.51,1.49,1.78-.1,4.26-2.55,3.97-11.62-1.39-25.64-8.3-39.56-10.93-3.37-.64-5.66-3.51-5.09-6.55Z"/>
          <path class="cls-33" d="M285.46,73.78c.7-24.38-16.77-23.51-52.4,2.62-1.96,1.44-.86,4.31,1.76,4.58,12.47,1.3,28.69-2.39,43.83-1.8,3.66.14,6.72-2.21,6.81-5.4Z"/>
          <path class="cls-1" d="M283.35,270.08c-8.73,54.61,71.49,77.55,80.57-25.4-17.47,59.15-68.31,64.35-80.57,25.4Z"/>
          <path class="cls-34" d="M323.7,311.95c13.51,11.34,11.25,26.73,18.92,36.61,2.11,2.72,6.21,2.86,8.41.22,13.05-15.68,12.98-31.52-6.58-54.07-8.11-.86-13.78,5.41-20.98,13.04-1.14,1.21-1.05,3.13.22,4.2Z"/>
          <path class="cls-30" d="M153.16,66.13c-27.35,122.12,5.12,222.03,68.06,266.12,55.45,38.85,139.8,36.25,247.29,14.37l-173.26,67.96C96.43,380.06,66.52,243.16,153.16,66.13Z"/>
          <path class="cls-28" d="M469.59,314.07c-10.57,14.79-23.03,13.11-31.02-.85-7.99-13.96-31.04-20.68-20.47-35.47,10.57-14.79,34-14.29,50.03-7.5,16.02,6.78,12.03,29.03,1.46,43.83Z"/>
          <path class="cls-24" d="M326.72,247.69c-5.61-2.88-11.83-2.3-18.43.38l-4.77,10.56c3.91,4.38,11.16,8.06,16.64,6.23,7.05-2.35,11.59-11.63,6.56-17.17Z"/>
          <path class="cls-14" d="M322.15,164.87c1.2,5.97,2.11,12.06,2.33,18.16-.29,10.13-1.44,20.41-3.59,30.29-3.39,15.94-9,31.29-15.69,46.05l-.31-1.69c5.32,5.13,12.55,9.58,18.9,3.5,3.84-3.09,6.73-9.24,2.95-13.5,4.65,3.48,3.11,10.46-.07,14.49-2.22,3.06-5.93,5.06-9.77,5-5.94-.26-11.52-4.27-15.51-8.21,6.82-14.91,13.18-30.26,16.58-46.27,2.07-9.78,3.34-19.73,3.45-29.72.4-5.79.75-12.28.74-18.1h0Z"/>
        </g>
        <path class="cls-9" d="M141.92,131.69c-26.04,87.97,5.02,158.69,76.11,217.31,39.97,23.82,155.49,42.7,209.58-4.13,53.42-67.04,83.78-130.04,75.5-197.36C472.24,38.75,391.68-11.57,277.57,4.4c-15.44,4.3-32.41,12.08-50.13,21.55-16.55,8.85-31.12,21.04-42.55,35.93-15.62,20.35-30.08,45.2-42.97,69.82Z"/>
      </g>
      <g>
        <path class="cls-12" d="M206.46,531.64c-10.28,29.56-16.93,54.98-19.27,75.48,55.72-10.68,100.92,8.88,135.29,59.53,21.69-27.65,49.34-48.52,90.57-53.94l-11.19-70.73c-51.53,21.69-120,12.06-195.39-10.34Z"/>
        <g class="cls-22">
          <path class="cls-4" d="M198.92,547.05c73.57,26.67,146.1,36.03,217.02,18.19l-4.2-33.37-207.99-14.72-4.83,29.89Z"/>
        </g>
        <path class="cls-5" d="M206.46,531.64c-10.28,29.56-16.93,54.98-19.27,75.48,55.72-10.68,100.92,8.88,135.29,59.53,21.69-27.65,49.34-48.52,90.57-53.94l-11.19-70.73c-51.53,21.69-120,12.06-195.39-10.34Z"/>
      </g>
    </g>
  </g>
</svg>