<?xml version="1.0" encoding="UTF-8"?>
<svg id="Layer_2" data-name="Layer 2" xmlns="http://www.w3.org/2000/svg" xmlns:xlink="http://www.w3.org/1999/xlink" viewBox="0 0 115.4 204.88">
  <defs>
    <style>
      .cls-1 {
        fill: #b5ab95;
      }

      .cls-1, .cls-2, .cls-3, .cls-4, .cls-5, .cls-6, .cls-7, .cls-8, .cls-9, .cls-10, .cls-11, .cls-12, .cls-13, .cls-14, .cls-15 {
        stroke-miterlimit: 10;
      }

      .cls-1, .cls-5, .cls-15 {
        stroke: #b7b3ab;
        stroke-width: .34px;
      }

      .cls-2, .cls-3, .cls-4, .cls-8, .cls-9, .cls-14, .cls-15 {
        fill: none;
      }

      .cls-2, .cls-6 {
        stroke: #c6c6c6;
      }

      .cls-2, .cls-6, .cls-7, .cls-8, .cls-11, .cls-14 {
        stroke-width: .51px;
      }

      .cls-16 {
        fill: #891210;
      }

      .cls-3, .cls-4, .cls-12, .cls-13 {
        stroke: #898989;
      }

      .cls-3, .cls-12 {
        stroke-width: .91px;
      }

      .cls-17 {
        fill: #353124;
      }

      .cls-4, .cls-13 {
        stroke-width: .49px;
      }

      .cls-5, .cls-18 {
        fill: #cdc5b0;
      }

      .cls-19 {
        fill: #8e663f;
      }

      .cls-6, .cls-20 {
        fill: #f9f9f9;
      }

      .cls-7, .cls-21 {
        fill: #4c4632;
      }

      .cls-7, .cls-14 {
        stroke: #3d3928;
      }

      .cls-22 {
        clip-path: url(#clippath-10);
      }

      .cls-23 {
        clip-path: url(#clippath-12);
      }

      .cls-8, .cls-11 {
        stroke: #e5d4c1;
      }

      .cls-24 {
        fill: #ddd;
      }

      .cls-25 {
        clip-path: url(#clippath-1);
      }

      .cls-26 {
        clip-path: url(#clippath-3);
      }

      .cls-27 {
        clip-path: url(#clippath-4);
      }

      .cls-28 {
        clip-path: url(#clippath-2);
      }

      .cls-29 {
        clip-path: url(#clippath-7);
      }

      .cls-30 {
        clip-path: url(#clippath-6);
      }

      .cls-31 {
        clip-path: url(#clippath-9);
      }

      .cls-32 {
        clip-path: url(#clippath-8);
      }

      .cls-33 {
        clip-path: url(#clippath-5);
      }

      .cls-34, .cls-35, .cls-36 {
        opacity: .2;
      }

      .cls-34, .cls-37 {
        fill: #7f5c36;
      }

      .cls-38, .cls-11 {
        fill: #f9ecdc;
      }

      .cls-9, .cls-10 {
        stroke: #4b4b4b;
        stroke-width: 3.15px;
      }

      .cls-39 {
        fill: #e25550;
      }

      .cls-10 {
        fill: #4b4b4b;
      }

      .cls-40 {
        fill: #fff;
      }

      .cls-41 {
        fill: #191918;
      }

      .cls-42 {
        fill: #7e7b86;
      }

      .cls-43 {
        fill: #e5e1df;
      }

      .cls-35 {
        fill: #f0ebff;
      }

      .cls-44 {
        opacity: .1;
      }

      .cls-44, .cls-45, .cls-36 {
        fill: #20164c;
      }

      .cls-45, .cls-46 {
        opacity: .15;
      }

      .cls-47 {
        fill: #bab5bc;
      }

      .cls-12, .cls-13, .cls-48 {
        fill: #a5a5a3;
      }

      .cls-46 {
        fill: #ffeac5;
      }

      .cls-49 {
        fill: #0c0812;
      }

      .cls-50 {
        fill: #b33c33;
      }

      .cls-51 {
        clip-path: url(#clippath);
      }
    </style>
    <clipPath id="clippath">
      <rect class="cls-12" x="4.4" y="19.84" width="106.48" height="146.54" rx="9.1" ry="9.1"/>
    </clipPath>
    <clipPath id="clippath-1">
      <rect class="cls-43" x="7.83" y="19.84" width="99.62" height="137.1" rx="8.51" ry="8.51"/>
    </clipPath>
    <clipPath id="clippath-2">
      <rect class="cls-13" x="4.93" y="160.59" width="106.48" height="43.54" rx="4.96" ry="4.96"/>
    </clipPath>
    <clipPath id="clippath-3">
      <rect class="cls-43" x="8.36" y="160.59" width="99.62" height="40.73" rx="4.64" ry="4.64"/>
    </clipPath>
    <clipPath id="clippath-4">
      <path class="cls-7" d="M37.04,109.7c3.33,5.81-14.17,13.79-23.34,30.87-2.11,2.98,9.63,19.95,21.01,12.75,6.08-.59,5.1-1.31,7.11-5.08,2.97-5.91,3.54-14.98,1.55-27.43l-3.27-12.79-3.05,1.68Z"/>
    </clipPath>
    <clipPath id="clippath-5">
      <path class="cls-11" d="M32.1,33.8c-4.46-1.93-7.61-8.04-11.76-9.92-.35-.16-.68.24-.47.55,5.92,9.03,2.71,19.07,15.42,20.46l-3.18-11.09Z"/>
    </clipPath>
    <clipPath id="clippath-6">
      <path class="cls-11" d="M81.97,106.91c.76-5.12-.82-6.53-1.23-11.22,2.29-13.88-3.69-27.26-14.97-29.08-.73-.84-.81-2.66-.61-4.9h-8.53l-.57,2.76c-8.99-.06-16.11,4.15-21.06,13.33-1.85,1.65-4.41,6.03-4.96,7.34-1.13,3.34.12,5.03,5.64,9.36,2.2,2.14,4.18,4.19,3.3,7.25-.67,3.84-2.95,4.1-3.87,6.09-1.34,2.72-.56,5.79,4.3,1.99.72,9.99,7.59,18.31,16.66,26.03-.47,4.1-1.38,6.94-2.13,10.96-1.55,3.25-2.38,5.21-2.13,5.87,2.51,2.19,5.72,2.2,9.22,1.29.67-1.38.75-2.8,0-4.26.36-1.91,1.64-4.12,5.35-7.16l4.71,1.71c1.77,6.29-2.04,6.31-1.76,7.94,3.17,1.97,6.5,1.99,8.67-.69,2.79-3.44,4.72-8.37-5.21-19.91,3.18-3.25,5.45-8.62,6.1-17.81,2.21,3.39,11.2,3.65,3.07-6.9ZM42.14,93.41c-.14-1.74-2.74-3.3-3.52-4.98-.19-.4-.02-.88.37-1.09,3.76-2.03,6.4-6.28,7.97-7.85l-4.82,13.93Z"/>
    </clipPath>
    <clipPath id="clippath-7">
      <path class="cls-11" d="M89.84,41.2c3.32-3.93,8.31-8.25,13.14-9.82.51-.17.93.39.6.8-1.57,1.96-2.11,4.07-2.81,6.28-1.94,6.22-8.33,11.29-13.48,7.29l2.55-4.56Z"/>
    </clipPath>
    <clipPath id="clippath-8">
      <path class="cls-11" d="M32.2,22.25c-4.4,14.86.85,26.81,12.86,36.72,6.75,4.02,26.27,7.21,35.41-.7,9.03-11.33,14.16-21.97,12.76-33.35C88.01,6.55,74.4-1.96,55.12.74c-2.61.73-5.48,2.04-8.47,3.64-2.8,1.49-5.26,3.55-7.19,6.07-2.64,3.44-5.08,7.64-7.26,11.8Z"/>
    </clipPath>
    <clipPath id="clippath-9">
      <circle class="cls-6" cx="77.38" cy="29.71" r="7.61"/>
    </clipPath>
    <clipPath id="clippath-10">
      <circle class="cls-6" cx="50.78" cy="26.89" r="8.09"/>
    </clipPath>
    <clipPath id="clippath-12">
      <path class="cls-5" d="M43.1,89.83c-1.74,5-2.86,9.29-3.26,12.75,9.42-1.8,17.05,1.5,22.86,10.06,3.67-4.67,8.34-8.2,15.3-9.11l-1.89-11.95c-8.71,3.67-20.28,2.04-33.01-1.75Z"/>
    </clipPath>
  </defs>
  <g id="Layer_9" data-name="Layer 9">
    <g>
      <g>
        <rect class="cls-48" x="4.4" y="19.84" width="106.48" height="146.54" rx="9.1" ry="9.1"/>
        <g class="cls-51">
          <polygon class="cls-42" points="0 168.9 9.71 150.69 101.42 150.69 114.87 168.9 0 168.9"/>
        </g>
        <rect class="cls-3" x="4.4" y="19.84" width="106.48" height="146.54" rx="9.1" ry="9.1"/>
      </g>
      <g>
        <rect class="cls-43" x="7.83" y="19.84" width="99.62" height="137.1" rx="8.51" ry="8.51"/>
        <g class="cls-25">
          <rect class="cls-47" x="11.38" y="22.91" width="99.62" height="137.1" rx="8.51" ry="8.51"/>
          <path class="cls-35" d="M110.88,71.66c0-42.65-106.48-42.65-106.48,0V15.9s106.48,0,106.48,0v55.76Z"/>
        </g>
      </g>
    </g>
    <g>
      <rect class="cls-48" x="4.93" y="160.59" width="106.48" height="43.54" rx="4.96" ry="4.96"/>
      <g class="cls-28">
        <polygon class="cls-42" points=".53 204.88 10.25 199.47 101.95 199.47 115.4 204.88 .53 204.88"/>
      </g>
      <rect class="cls-4" x="4.93" y="160.59" width="106.48" height="43.54" rx="4.96" ry="4.96"/>
    </g>
    <g>
      <rect class="cls-43" x="8.36" y="160.59" width="99.62" height="40.73" rx="4.64" ry="4.64"/>
      <g class="cls-26">
        <rect class="cls-47" x="11.92" y="161.5" width="99.62" height="40.73" rx="4.64" ry="4.64"/>
        <path class="cls-35" d="M111.42,175.99c0-12.67-106.48-12.67-106.48,0v-16.57s106.48,0,106.48,0v16.57Z"/>
      </g>
    </g>
    <g>
      <g>
        <path class="cls-21" d="M37.04,109.7c3.33,5.81-14.17,13.79-23.34,30.87-2.11,2.98,9.63,19.95,21.01,12.75,6.08-.59,5.1-1.31,7.11-5.08,2.97-5.91,3.54-14.98,1.55-27.43l-3.27-12.79-3.05,1.68Z"/>
        <g class="cls-27">
          <path class="cls-17" d="M32.71,115.55c5.69,3.92,10.48,12.21,14.95,22.1l-6.05-31.98-10.63,4.54,1.73,5.35Z"/>
          <path class="cls-17" d="M31.24,116.92c-12.97,21.39-9.96,34.63,7.22,41.18-14.84,2.96-25.85-.6-30.24-15.48l23.02-25.71Z"/>
          <path class="cls-46" d="M21.71,149.05c-3.06-1.86-5.34-4.76-6.54-9.09-.37-2.84,8.4-7.5,11.49-16.96.15,8.36-9.25,12.78-8.45,17.89.6,2.6,1.94,5.36,3.5,8.17Z"/>
          <path class="cls-46" d="M30.12,147.36c2.82.15,5.6.23,7.31-1.29,1.33-1.83,1.82-8.27,2.33-14.52-1.75,9.03-4.79,14.76-9.64,15.81Z"/>
          <path class="cls-46" d="M40.76,136.52c2.59,7.37,1.08,12.31-3.47,13.89,3.6-3.08,4.67-8.26,3.47-13.89Z"/>
          <path class="cls-46" d="M29.57,124.16c3.77-2.31,7-6.9,10.09-13.22-3.55,5.37-6.93,9.88-10.09,13.22Z"/>
          <path class="cls-46" d="M35.49,125.05c.49-4.3,1.58-8.47,3.36-12.49-.76,4.41-1.9,8.56-3.36,12.49Z"/>
          <path class="cls-46" d="M39.66,113.23c-1.28,5.26-1.5,12.16.53,15.47-.7-4.66-.68-10.41-.53-15.47Z"/>
          <path class="cls-46" d="M40.8,118.18c0,4.6.25,8.53,1.7,12.03l-1.7-12.03Z"/>
          <path class="cls-46" d="M34.62,128.05c1.03,4.89-1.65,9.43-5.63,13.84,2.34-4.31,4.38-8.82,5.63-13.84Z"/>
          <path class="cls-46" d="M26.58,142.76c-4.68-5.77-.13-13.42,8.01-21.79-3.49,14.67-6.32,23.44-8.01,21.79Z"/>
          <path class="cls-17" d="M28.99,146.73c5.83-.14,8.42-9.73,9.47-17.94-2.61,7.32-5.77,13.3-9.47,17.94Z"/>
        </g>
        <path class="cls-14" d="M37.04,109.7c3.33,5.81-14.17,13.79-23.34,30.87-2.11,2.98,9.63,19.95,21.01,12.75,6.08-.59,5.1-1.31,7.11-5.08,2.97-5.91,3.54-14.98,1.55-27.43l-3.27-12.79-3.05,1.68Z"/>
      </g>
      <g>
        <path class="cls-38" d="M32.1,33.8c-4.46-1.93-7.61-8.04-11.76-9.92-.35-.16-.68.24-.47.55,5.92,9.03,2.71,19.07,15.42,20.46l-3.18-11.09Z"/>
        <g class="cls-33">
          <path class="cls-45" d="M27.54,28.28c2.76,7.52,3.83,16.55,1.27,20.27l10.6-2.13-5.35-17.67-6.52-.47Z"/>
        </g>
        <path class="cls-8" d="M32.1,33.8c-4.46-1.93-7.61-8.04-11.76-9.92-.35-.16-.68.24-.47.55,5.92,9.03,2.71,19.07,15.42,20.46l-3.18-11.09Z"/>
      </g>
      <g>
        <path class="cls-38" d="M81.97,106.91c.76-5.12-.82-6.53-1.23-11.22,2.29-13.88-3.69-27.26-14.97-29.08-.73-.84-.81-2.66-.61-4.9h-8.53l-.57,2.76c-8.99-.06-16.11,4.15-21.06,13.33-1.85,1.65-4.41,6.03-4.96,7.34-1.13,3.34.12,5.03,5.64,9.36,2.2,2.14,4.18,4.19,3.3,7.25-.67,3.84-2.95,4.1-3.87,6.09-1.34,2.72-.56,5.79,4.3,1.99.72,9.99,7.59,18.31,16.66,26.03-.47,4.1-1.38,6.94-2.13,10.96-1.55,3.25-2.38,5.21-2.13,5.87,2.51,2.19,5.72,2.2,9.22,1.29.67-1.38.75-2.8,0-4.26.36-1.91,1.64-4.12,5.35-7.16l4.71,1.71c1.77,6.29-2.04,6.31-1.76,7.94,3.17,1.97,6.5,1.99,8.67-.69,2.79-3.44,4.72-8.37-5.21-19.91,3.18-3.25,5.45-8.62,6.1-17.81,2.21,3.39,11.2,3.65,3.07-6.9ZM42.14,93.41c-.14-1.74-2.74-3.3-3.52-4.98-.19-.4-.02-.88.37-1.09,3.76-2.03,6.4-6.28,7.97-7.85l-4.82,13.93Z"/>
        <g class="cls-30">
          <path class="cls-45" d="M45.42,81.63c2.33-2.39,3.79-6.72,4.84-11.99-1.48,4.68-3.06,8.85-4.84,11.99Z"/>
          <path class="cls-45" d="M73.63,75.53c4.46,16.44,7.5,29.99,5.27,39.86-.57-11.07-2.76-22.38-5.27-39.86Z"/>
          <path class="cls-45" d="M61.13,69.61c-1.74,6.12-1.84,10.85-.3,13.76-.79-3.8-.64-8.42.3-13.76Z"/>
          <path class="cls-45" d="M62.88,84.81c1.23,1.43,2.43,2.69,3.58,3.56,3.32.88,6.44,1.25,9.38,1.09-5.69.76-11.17,1-12.96-4.66Z"/>
          <path class="cls-45" d="M55.41,82.89c-.34,1.13-1.08,3.01-2.91,3.61-3.09,1.01-6.34,1-10.27,2.18,4.71-.24,9.93.04,11.93-1.41,1.04-1.54,1.44-2.5,1.26-4.38Z"/>
          <path class="cls-45" d="M80.91,95.99c-.9.05-1.07-3.21-1.25-6.41.68,2.95,1.43,5.5,2.62,5.63l-1.38.77Z"/>
          <path class="cls-45" d="M38.68,88.53c-1.27-.74.41-2.42,2.3-4.17l-2.3,4.17Z"/>
          <path class="cls-45" d="M53.83,134.07c4.19,3.34,8.72,6.49,13.28,8.7l-4,5.36c-.98-4.33-4.84-7.3-10.35-9.48l1.06-4.58Z"/>
          <path class="cls-45" d="M61.31,110.68c2.76,4.29,3.79,8.81,3.61,13.48,3.18,2.56,6.27,5.51,9.29,8.71-.15-2.67-2.87-5.92-6.96-9.48-.3-5.13-2.07-9.47-5.93-12.7Z"/>
          <path class="cls-45" d="M42.24,91.85c-4.25,6.19-3.77,11.94-2.87,19.86.52-7.59.98-13.18,2.87-19.86Z"/>
          <path class="cls-45" d="M70.42,143.85c1.42.42,2.86.71,4.38.68l-4.97,4.51.58-5.19Z"/>
          <path class="cls-45" d="M46.48,64.54c12.05-1.53,14.68-1.89,26.18,1.81l.19-7.03-24.05.32-2.32,4.9Z"/>
          <path class="cls-45" d="M41.99,96.12c-1.91,5-1.6,4.59-2.03,8.05,10.35-1.8,17.33,2.7,23.71,11.26,3.03-5.9,7.63-9.02,14.23-10.99l-.54-5.13c-13.69,3.5-24.57.46-35.37-3.19Z"/>
        </g>
        <path class="cls-8" d="M81.97,106.91c.76-5.12-.82-6.53-1.23-11.22,2.29-13.88-3.69-27.26-14.97-29.08-.73-.84-.81-2.66-.61-4.9h-8.53l-.57,2.76c-8.99-.06-16.11,4.15-21.06,13.33-1.85,1.65-4.41,6.03-4.96,7.34-1.13,3.34.12,5.03,5.64,9.36,2.2,2.14,4.18,4.19,3.3,7.25-.67,3.84-2.95,4.1-3.87,6.09-1.34,2.72-.56,5.79,4.3,1.99.72,9.99,7.59,18.31,16.66,26.03-.47,4.1-1.38,6.94-2.13,10.96-1.55,3.25-2.38,5.21-2.13,5.87,2.51,2.19,5.72,2.2,9.22,1.29.67-1.38.75-2.8,0-4.26.36-1.91,1.64-4.12,5.35-7.16l4.71,1.71c1.77,6.29-2.04,6.31-1.76,7.94,3.17,1.97,6.5,1.99,8.67-.69,2.79-3.44,4.72-8.37-5.21-19.91,3.18-3.25,5.45-8.62,6.1-17.81,2.21,3.39,11.2,3.65,3.07-6.9ZM42.14,93.41c-.14-1.74-2.74-3.3-3.52-4.98-.19-.4-.02-.88.37-1.09,3.76-2.03,6.4-6.28,7.97-7.85l-4.82,13.93Z"/>
      </g>
      <g>
        <path class="cls-38" d="M89.84,41.2c3.32-3.93,8.31-8.25,13.14-9.82.51-.17.93.39.6.8-1.57,1.96-2.11,4.07-2.81,6.28-1.94,6.22-8.33,11.29-13.48,7.29l2.55-4.56Z"/>
        <g class="cls-29">
          <path class="cls-45" d="M100.33,28.93c-5.99,8.08-9.77,15.87-10.66,23.3l-6.45-5.59,8.08-15.3,9.03-2.41Z"/>
        </g>
        <path class="cls-8" d="M89.84,41.2c3.32-3.93,8.31-8.25,13.14-9.82.51-.17.93.39.6.8-1.57,1.96-2.11,4.07-2.81,6.28-1.94,6.22-8.33,11.29-13.48,7.29l2.55-4.56Z"/>
      </g>
      <g>
        <path class="cls-38" d="M32.2,22.25c-4.4,14.86.85,26.81,12.86,36.72,6.75,4.02,26.27,7.21,35.41-.7,9.03-11.33,14.16-21.97,12.76-33.35C88.01,6.55,74.4-1.96,55.12.74c-2.61.73-5.48,2.04-8.47,3.64-2.8,1.49-5.26,3.55-7.19,6.07-2.64,3.44-5.08,7.64-7.26,11.8Z"/>
        <g class="cls-32">
          <circle class="cls-36" cx="77.32" cy="30.69" r="7.92"/>
          <ellipse class="cls-36" cx="50.26" cy="27.83" rx="8.45" ry="8.1"/>
          <ellipse class="cls-39" cx="38.19" cy="46.28" rx="5.3" ry="5.98" transform="translate(-15.6 72.88) rotate(-76.78)"/>
          <g>
            <circle class="cls-20" cx="77.38" cy="29.71" r="7.61"/>
            <g class="cls-31">
              <ellipse class="cls-24" cx="76.78" cy="36" rx="6.41" ry="3.55"/>
              <circle class="cls-41" cx="73.78" cy="28.13" r="2.32"/>
            </g>
            <circle class="cls-2" cx="77.38" cy="29.71" r="7.61"/>
          </g>
          <g>
            <circle class="cls-20" cx="50.78" cy="26.89" r="8.09"/>
            <g class="cls-22">
              <ellipse class="cls-24" cx="53.18" cy="33.21" rx="8.35" ry="4.28" transform="translate(-8.21 20.45) rotate(-20.25)"/>
              <circle class="cls-41" cx="53.98" cy="24.59" r="2.69"/>
            </g>
            <circle class="cls-2" cx="50.78" cy="26.89" r="8.09"/>
          </g>
          <path class="cls-37" d="M70.03,40.16c-.29,1.56.24,3.22.37,4.81.15,2.15.53,3.76,2.4,4.81-.85-.35-1.66-.87-2.26-1.59-1.89-2.23-1.36-5.47-.5-8.03h0Z"/>
          <path class="cls-37" d="M55.08,42.64c1,1.57,1.66,3.77.33,5.37-.43.5-2.08,1.49-1.6,1.07,1.98-1.72,1.58-4.15,1.19-6.55l.08.1Z"/>
          <path class="cls-36" d="M76.9,40.12c4.72.5,7.9-1.5,9.25-6.42-2.28,4.04-5.44,6.01-9.25,6.42Z"/>
          <path class="cls-36" d="M49.26,37.21c-4.64.54-7.75-1.63-9.08-6.98,2.23,4.4,5.33,6.54,9.08,6.98Z"/>
          <path class="cls-36" d="M76.75,14.59c-1.63,3.61,2.61,5.74,7.14,2.89l-7.14-2.89Z"/>
          <path class="cls-36" d="M56.09,11.47c.83,4.22-4.18,5.42-8.26,1.28l8.26-1.28Z"/>
          <path class="cls-49" d="M76.52,15.46c.74-3.93,3.4-3.17,7.97,2.28.25.3-.02.72-.43.67-1.96-.24-4.33-1.4-6.68-1.85-.57-.11-.96-.59-.86-1.11Z"/>
          <path class="cls-49" d="M56.45,12.47c.12-4.12-2.83-3.97-8.85.44-.33.24-.15.73.3.77,2.11.22,4.85-.4,7.41-.3.62.02,1.13-.37,1.15-.91Z"/>
          <path class="cls-16" d="M56.09,45.63c-1.48,9.23,12.08,13.1,13.61-4.29-2.95,9.99-11.54,10.87-13.61,4.29Z"/>
          <path class="cls-50" d="M62.91,52.71c2.28,1.92,1.9,4.52,3.2,6.19.36.46,1.05.48,1.42.04,2.2-2.65,2.19-5.33-1.11-9.14-1.37-.15-2.33.91-3.54,2.2-.19.2-.18.53.04.71Z"/>
          <path class="cls-44" d="M34.09,11.17c-4.62,20.63.86,37.52,11.5,44.97,9.37,6.56,23.62,6.13,41.78,2.43l-29.28,11.48c-33.59-5.83-38.65-28.97-24.01-58.88Z"/>
          <path class="cls-39" d="M87.56,53.07c-1.79,2.5-3.89,2.22-5.24-.14-1.35-2.36-5.24-3.49-3.46-5.99,1.79-2.5,5.75-2.41,8.45-1.27,2.71,1.15,2.03,4.91.25,7.41Z"/>
          <path class="cls-34" d="M63.42,41.85c-.95-.49-2-.39-3.11.06l-.81,1.78c.66.74,1.89,1.36,2.81,1.05,1.19-.4,1.96-1.96,1.11-2.9Z"/>
          <path class="cls-19" d="M62.65,27.86c.2,1.01.36,2.04.39,3.07-.05,1.71-.24,3.45-.61,5.12-.57,2.69-1.52,5.29-2.65,7.78l-.05-.28c.9.87,2.12,1.62,3.19.59.65-.52,1.14-1.56.5-2.28.79.59.52,1.77-.01,2.45-.38.52-1,.86-1.65.85-1-.04-1.95-.72-2.62-1.39,1.15-2.52,2.23-5.11,2.8-7.82.35-1.65.56-3.33.58-5.02.07-.98.13-2.08.13-3.06h0Z"/>
        </g>
        <path class="cls-8" d="M32.2,22.25c-4.4,14.86.85,26.81,12.86,36.72,6.75,4.02,26.27,7.21,35.41-.7,9.03-11.33,14.16-21.97,12.76-33.35C88.01,6.55,74.4-1.96,55.12.74c-2.61.73-5.48,2.04-8.47,3.64-2.8,1.49-5.26,3.55-7.19,6.07-2.64,3.44-5.08,7.64-7.26,11.8Z"/>
      </g>
      <g>
        <path class="cls-18" d="M43.1,89.83c-1.74,5-2.86,9.29-3.26,12.75,9.42-1.8,17.05,1.5,22.86,10.06,3.67-4.67,8.34-8.2,15.3-9.11l-1.89-11.95c-8.71,3.67-20.28,2.04-33.01-1.75Z"/>
        <g class="cls-23">
          <path class="cls-1" d="M41.83,92.43c12.43,4.51,24.69,6.09,36.67,3.07l-.71-5.64-35.14-2.49-.82,5.05Z"/>
        </g>
        <path class="cls-15" d="M43.1,89.83c-1.74,5-2.86,9.29-3.26,12.75,9.42-1.8,17.05,1.5,22.86,10.06,3.67-4.67,8.34-8.2,15.3-9.11l-1.89-11.95c-8.71,3.67-20.28,2.04-33.01-1.75Z"/>
      </g>
    </g>
    <g>
      <g>
        <path class="cls-9" d="M35.01,147.99c-.08,0-.16,0-.23,0s-.14-.02-.21-.05c-.07-.04-.13-.11-.18-.2-.03-.05-.04-.15-.05-.3,0-.15-.02-.3-.03-.45-.01-.15-.02-.3-.02-.44v-.31c-.01-.44-.02-.88-.02-1.31v-1.29c-.09-.19-.26-.51-.5-.96-.24-.45-.51-.97-.81-1.55-.3-.58-.62-1.19-.95-1.84-.33-.65-.65-1.26-.94-1.84-.29-.58-.55-1.1-.77-1.56s-.37-.79-.45-.99c-.03-.08-.04-.15-.04-.2.01-.07.06-.13.14-.18.09-.07.28-.18.57-.33s.59-.31.92-.47c.33-.16.64-.31.93-.45.29-.14.49-.24.6-.29.15-.07.3-.13.46-.18.16-.05.27,0,.34.14.44,1.08.85,2.16,1.24,3.24s.81,2.15,1.28,3.22c.39-1.13.78-2.25,1.19-3.36.41-1.11.84-2.21,1.31-3.32.04-.11.1-.23.17-.36.07-.13.16-.19.27-.18.47.05.93.12,1.38.2.45.08.91.17,1.36.28.11.03.22.05.34.08.12.03.23.06.32.11.09.05.16.1.2.17.04.07.04.15,0,.24-.09.21-.25.58-.48,1.11-.23.53-.49,1.13-.78,1.82-.29.69-.6,1.41-.93,2.18s-.64,1.49-.93,2.18c-.29.69-.55,1.3-.77,1.83s-.38.91-.47,1.12c0,.13,0,.39-.01.78s-.01.8-.02,1.24,0,.85,0,1.24,0,.65.02.78c.03.08.03.15,0,.22-.05.07-.15.1-.28.11-.13,0-.23,0-.3,0-.48,0-.96.01-1.44.04-.48.03-.95.05-1.42.08Z"/>
        <path class="cls-9" d="M54.82,147.63c-.12.03-.35.05-.68.06-.33.01-.69.02-1.07.03-.38,0-.74,0-1.07,0s-.56,0-.68.02c-.05,0-.09-.02-.12-.07-.03-.05-.05-.1-.06-.17v-.17c0-.09,0-.18.01-.28,0-.1,0-.19,0-.28v-.19c-1.16.19-2.31.37-3.46.54-1.15.17-2.3.33-3.46.48h-.15c-.06,0-.1-.01-.13-.04-.05-.05-.09-.15-.1-.29-.01-.14-.03-.24-.04-.31-.07-.6-.11-1.2-.12-1.8-.01-.6-.03-1.2-.06-1.8-.05-1.44-.11-2.88-.18-4.31-.07-1.43-.05-2.87.06-4.31.01-.12.02-.26,0-.42,0-.16,0-.31,0-.46.01-.15.04-.28.09-.4s.13-.19.25-.22c.08-.03.16-.04.25-.05.09,0,.18-.02.27-.05.56-.13,1.13-.19,1.7-.16s1.14.03,1.7.02c.08-.01.16,0,.24.01.08.02.13.06.14.13v.44c-.03.88-.06,1.76-.11,2.63-.05.87-.08,1.75-.11,2.63-.01.09-.02.26-.03.49,0,.23-.01.5-.02.8s-.01.62-.02.96c0,.34-.01.66-.02.96,0,.3-.02.57-.03.8-.01.23-.02.4-.02.49.11-.01.32-.05.63-.1.31-.05.65-.11,1.01-.17.36-.06.7-.11,1.01-.16.31-.05.52-.08.63-.09.03-1.61.03-3.21,0-4.79-.03-1.58-.04-3.17-.04-4.77,0-.17.1-.27.3-.3.12-.01.33-.03.64-.05.31-.02.63-.03.97-.04.34,0,.66,0,.97,0s.52.01.64.04c.07.01.14.02.21,0,.07,0,.14.02.19.07.07.05.09.16.07.31-.02.15-.03.28-.03.37-.03,1.53-.03,3.06-.02,4.58.01,1.52,0,3.05-.06,4.58,0,.13,0,.39,0,.76,0,.37-.02.77-.03,1.18-.01.41-.02.81-.02,1.18s.01.63.04.76c.01.08.03.17.05.28.02.11.03.2.04.29s0,.16-.03.23c-.03.07-.08.11-.16.12Z"/>
        <path class="cls-9" d="M61.02,147.99c-.08,0-.16,0-.23,0s-.14-.02-.21-.05c-.07-.04-.13-.11-.18-.2-.03-.05-.04-.15-.05-.3,0-.15-.02-.3-.03-.45-.01-.15-.02-.3-.02-.44v-.31c-.01-.44-.02-.88-.02-1.31v-1.29c-.09-.19-.26-.51-.5-.96-.24-.45-.51-.97-.81-1.55-.3-.58-.62-1.19-.95-1.84-.33-.65-.65-1.26-.94-1.84-.29-.58-.55-1.1-.77-1.56s-.37-.79-.45-.99c-.03-.08-.04-.15-.04-.2.01-.07.06-.13.14-.18.09-.07.28-.18.57-.33s.59-.31.92-.47c.33-.16.64-.31.93-.45.29-.14.49-.24.6-.29.15-.07.3-.13.46-.18.16-.05.27,0,.34.14.44,1.08.85,2.16,1.24,3.24s.81,2.15,1.28,3.22c.39-1.13.78-2.25,1.19-3.36.41-1.11.84-2.21,1.31-3.32.04-.11.1-.23.17-.36.07-.13.16-.19.27-.18.47.05.93.12,1.38.2.45.08.91.17,1.36.28.11.03.22.05.34.08.12.03.23.06.32.11.09.05.16.1.2.17.04.07.04.15,0,.24-.09.21-.25.58-.48,1.11-.23.53-.49,1.13-.78,1.82-.29.69-.6,1.41-.93,2.18s-.64,1.49-.93,2.18c-.29.69-.55,1.3-.77,1.83s-.38.91-.47,1.12c0,.13,0,.39-.01.78s-.01.8-.02,1.24,0,.85,0,1.24,0,.65.02.78c.03.08.03.15,0,.22-.05.07-.15.1-.28.11-.13,0-.23,0-.3,0-.48,0-.96.01-1.44.04-.48.03-.95.05-1.42.08Z"/>
        <path class="cls-9" d="M80.82,147.63c-.12.03-.35.05-.68.06-.33.01-.69.02-1.07.03-.38,0-.74,0-1.07,0s-.56,0-.68.02c-.05,0-.09-.02-.12-.07-.03-.05-.05-.1-.06-.17v-.17c0-.09,0-.18.01-.28,0-.1,0-.19,0-.28v-.19c-1.16.19-2.31.37-3.46.54-1.15.17-2.3.33-3.46.48h-.15c-.06,0-.1-.01-.13-.04-.05-.05-.09-.15-.1-.29-.01-.14-.03-.24-.04-.31-.07-.6-.11-1.2-.12-1.8-.01-.6-.03-1.2-.06-1.8-.05-1.44-.11-2.88-.18-4.31-.07-1.43-.05-2.87.06-4.31.01-.12.02-.26,0-.42,0-.16,0-.31,0-.46.01-.15.04-.28.09-.4s.13-.19.25-.22c.08-.03.16-.04.25-.05.09,0,.18-.02.27-.05.56-.13,1.13-.19,1.7-.16s1.14.03,1.7.02c.08-.01.16,0,.24.01.08.02.13.06.14.13v.44c-.03.88-.06,1.76-.11,2.63-.05.87-.08,1.75-.11,2.63-.01.09-.02.26-.03.49,0,.23-.01.5-.02.8s-.01.62-.02.96c0,.34-.01.66-.02.96,0,.3-.02.57-.03.8-.01.23-.02.4-.02.49.11-.01.32-.05.63-.1.31-.05.65-.11,1.01-.17.36-.06.7-.11,1.01-.16.31-.05.52-.08.63-.09.03-1.61.03-3.21,0-4.79-.03-1.58-.04-3.17-.04-4.77,0-.17.1-.27.3-.3.12-.01.33-.03.64-.05.31-.02.63-.03.97-.04.34,0,.66,0,.97,0s.52.01.64.04c.07.01.14.02.21,0,.07,0,.14.02.19.07.07.05.09.16.07.31-.02.15-.03.28-.03.37-.03,1.53-.03,3.06-.02,4.58.01,1.52,0,3.05-.06,4.58,0,.13,0,.39,0,.76,0,.37-.02.77-.03,1.18-.01.41-.02.81-.02,1.18s.01.63.04.76c.01.08.03.17.05.28.02.11.03.2.04.29s0,.16-.03.23c-.03.07-.08.11-.16.12Z"/>
        <path class="cls-9" d="M91.46,148.11c-.05.03-.13.05-.23.06-.1.01-.21.02-.32.02h-.59c-.57-.04-1.12-.1-1.64-.18-.88-.11-1.76-.18-2.63-.22-.87-.04-1.75-.11-2.63-.22-.11-.01-.21-.03-.31-.04-.1-.01-.2-.05-.29-.1-.19-.09-.28-.25-.28-.46.03-.83.06-1.65.11-2.47s.08-1.65.11-2.49c.03-.61.04-1.22.03-1.83,0-.61,0-1.22.03-1.83.03-.64.06-1.27.1-1.89s.08-1.24.12-1.87v-.41c0-.15,0-.3.02-.44.01-.14.05-.26.11-.36.06-.1.15-.16.27-.17.12-.01.33-.02.63-.02h.96c.34,0,.66,0,.97.02.31.01.52.03.64.04.11.01.25.04.43.08.18.04.3.1.37.18.04.08.05.22.02.43-.03.21-.05.35-.06.43-.04.36-.09.72-.14,1.07-.05.35-.1.71-.14,1.07-.08.72-.16,1.44-.24,2.15-.08.71-.17,1.43-.26,2.15-.01.11-.04.3-.07.59-.03.29-.07.59-.1.92s-.06.63-.08.92c-.02.29-.03.48-.03.59.11.01.29.02.56.02h3.13c.35,0,.66,0,.93,0s.45.02.56.03c.15.03.27.11.36.24.05.11.07.25.04.42-.03.47-.05.94-.07,1.41-.02.47-.05.94-.09,1.41-.01.13-.04.27-.08.41s-.11.25-.22.33Z"/>
      </g>
      <g>
        <path class="cls-10" d="M34.97,149.82c-.08,0-.16,0-.23,0s-.14-.02-.21-.05c-.07-.04-.13-.11-.18-.2-.03-.05-.04-.15-.05-.3,0-.15-.02-.3-.03-.45-.01-.15-.02-.3-.02-.44v-.31c-.01-.44-.02-.88-.02-1.31v-1.29c-.09-.19-.26-.51-.5-.96-.24-.45-.51-.97-.81-1.55-.3-.58-.62-1.19-.95-1.84-.33-.65-.65-1.26-.94-1.84-.29-.58-.55-1.1-.77-1.56s-.37-.79-.45-.99c-.03-.08-.04-.15-.04-.2.01-.07.06-.13.14-.18.09-.07.28-.18.57-.33s.59-.31.92-.47c.33-.16.64-.31.93-.45.29-.14.49-.24.6-.29.15-.07.3-.13.46-.18.16-.05.27,0,.34.14.44,1.08.85,2.16,1.24,3.24s.81,2.15,1.28,3.22c.39-1.13.78-2.25,1.19-3.36.41-1.11.84-2.21,1.31-3.32.04-.11.1-.23.17-.36.07-.13.16-.19.27-.18.47.05.93.12,1.38.2.45.08.91.17,1.36.28.11.03.22.05.34.08.12.03.23.06.32.11.09.05.16.1.2.17.04.07.04.15,0,.24-.09.21-.25.58-.48,1.11-.23.53-.49,1.13-.78,1.82-.29.69-.6,1.41-.93,2.18s-.64,1.49-.93,2.18c-.29.69-.55,1.3-.77,1.83s-.38.91-.47,1.12c0,.13,0,.39-.01.78s-.01.8-.02,1.24,0,.85,0,1.24,0,.65.02.78c.03.08.03.15,0,.22-.05.07-.15.1-.28.11-.13,0-.23,0-.3,0-.48,0-.96.01-1.44.04-.48.03-.95.05-1.42.08Z"/>
        <path class="cls-10" d="M54.78,149.46c-.12.03-.35.05-.68.06-.33.01-.69.02-1.07.03-.38,0-.74,0-1.07,0s-.56,0-.68.02c-.05,0-.09-.02-.12-.07-.03-.05-.05-.1-.06-.17v-.17c0-.09,0-.18.01-.28,0-.1,0-.19,0-.28v-.19c-1.16.19-2.31.37-3.46.54-1.15.17-2.3.33-3.46.48h-.15c-.06,0-.1-.01-.13-.04-.05-.05-.09-.15-.1-.29-.01-.14-.03-.24-.04-.31-.07-.6-.11-1.2-.12-1.8-.01-.6-.03-1.2-.06-1.8-.05-1.44-.11-2.88-.18-4.31-.07-1.43-.05-2.87.06-4.31.01-.12.02-.26,0-.42,0-.16,0-.31,0-.46.01-.15.04-.28.09-.4s.13-.19.25-.22c.08-.03.16-.04.25-.05.09,0,.18-.02.27-.05.56-.13,1.13-.19,1.7-.16s1.14.03,1.7.02c.08-.01.16,0,.24.01.08.02.13.06.14.13v.44c-.03.88-.06,1.76-.11,2.63-.05.87-.08,1.75-.11,2.63-.01.09-.02.26-.03.49,0,.23-.01.5-.02.8s-.01.62-.02.96c0,.34-.01.66-.02.96,0,.3-.02.57-.03.8-.01.23-.02.4-.02.49.11-.01.32-.05.63-.1.31-.05.65-.11,1.01-.17.36-.06.7-.11,1.01-.16.31-.05.52-.08.63-.09.03-1.61.03-3.21,0-4.79-.03-1.58-.04-3.17-.04-4.77,0-.17.1-.27.3-.3.12-.01.33-.03.64-.05.31-.02.63-.03.97-.04.34,0,.66,0,.97,0s.52.01.64.04c.07.01.14.02.21,0,.07,0,.14.02.19.07.07.05.09.16.07.31-.02.15-.03.28-.03.37-.03,1.53-.03,3.06-.02,4.58.01,1.52,0,3.05-.06,4.58,0,.13,0,.39,0,.76,0,.37-.02.77-.03,1.18-.01.41-.02.81-.02,1.18s.01.63.04.76c.01.08.03.17.05.28.02.11.03.2.04.29s0,.16-.03.23c-.03.07-.08.11-.16.12Z"/>
        <path class="cls-10" d="M60.98,149.82c-.08,0-.16,0-.23,0s-.14-.02-.21-.05c-.07-.04-.13-.11-.18-.2-.03-.05-.04-.15-.05-.3,0-.15-.02-.3-.03-.45-.01-.15-.02-.3-.02-.44v-.31c-.01-.44-.02-.88-.02-1.31v-1.29c-.09-.19-.26-.51-.5-.96-.24-.45-.51-.97-.81-1.55-.3-.58-.62-1.19-.95-1.84-.33-.65-.65-1.26-.94-1.84-.29-.58-.55-1.1-.77-1.56s-.37-.79-.45-.99c-.03-.08-.04-.15-.04-.2.01-.07.06-.13.14-.18.09-.07.28-.18.57-.33s.59-.31.92-.47c.33-.16.64-.31.93-.45.29-.14.49-.24.6-.29.15-.07.3-.13.46-.18.16-.05.27,0,.34.14.44,1.08.85,2.16,1.24,3.24s.81,2.15,1.28,3.22c.39-1.13.78-2.25,1.19-3.36.41-1.11.84-2.21,1.31-3.32.04-.11.1-.23.17-.36.07-.13.16-.19.27-.18.47.05.93.12,1.38.2.45.08.91.17,1.36.28.11.03.22.05.34.08.12.03.23.06.32.11.09.05.16.1.2.17.04.07.04.15,0,.24-.09.21-.25.58-.48,1.11-.23.53-.49,1.13-.78,1.82-.29.69-.6,1.41-.93,2.18s-.64,1.49-.93,2.18c-.29.69-.55,1.3-.77,1.83s-.38.91-.47,1.12c0,.13,0,.39-.01.78s-.01.8-.02,1.24,0,.85,0,1.24,0,.65.02.78c.03.08.03.15,0,.22-.05.07-.15.1-.28.11-.13,0-.23,0-.3,0-.48,0-.96.01-1.44.04-.48.03-.95.05-1.42.08Z"/>
        <path class="cls-10" d="M80.78,149.46c-.12.03-.35.05-.68.06-.33.01-.69.02-1.07.03-.38,0-.74,0-1.07,0s-.56,0-.68.02c-.05,0-.09-.02-.12-.07-.03-.05-.05-.1-.06-.17v-.17c0-.09,0-.18.01-.28,0-.1,0-.19,0-.28v-.19c-1.16.19-2.31.37-3.46.54-1.15.17-2.3.33-3.46.48h-.15c-.06,0-.1-.01-.13-.04-.05-.05-.09-.15-.1-.29-.01-.14-.03-.24-.04-.31-.07-.6-.11-1.2-.12-1.8-.01-.6-.03-1.2-.06-1.8-.05-1.44-.11-2.88-.18-4.31-.07-1.43-.05-2.87.06-4.31.01-.12.02-.26,0-.42,0-.16,0-.31,0-.46.01-.15.04-.28.09-.4s.13-.19.25-.22c.08-.03.16-.04.25-.05.09,0,.18-.02.27-.05.56-.13,1.13-.19,1.7-.16s1.14.03,1.7.02c.08-.01.16,0,.24.01.08.02.13.06.14.13v.44c-.03.88-.06,1.76-.11,2.63-.05.87-.08,1.75-.11,2.63-.01.09-.02.26-.03.49,0,.23-.01.5-.02.8s-.01.62-.02.96c0,.34-.01.66-.02.96,0,.3-.02.57-.03.8-.01.23-.02.4-.02.49.11-.01.32-.05.63-.1.31-.05.65-.11,1.01-.17.36-.06.7-.11,1.01-.16.31-.05.52-.08.63-.09.03-1.61.03-3.21,0-4.79-.03-1.58-.04-3.17-.04-4.77,0-.17.1-.27.3-.3.12-.01.33-.03.64-.05.31-.02.63-.03.97-.04.34,0,.66,0,.97,0s.52.01.64.04c.07.01.14.02.21,0,.07,0,.14.02.19.07.07.05.09.16.07.31-.02.15-.03.28-.03.37-.03,1.53-.03,3.06-.02,4.58.01,1.52,0,3.05-.06,4.58,0,.13,0,.39,0,.76,0,.37-.02.77-.03,1.18-.01.41-.02.81-.02,1.18s.01.63.04.76c.01.08.03.17.05.28.02.11.03.2.04.29s0,.16-.03.23c-.03.07-.08.11-.16.12Z"/>
        <path class="cls-10" d="M91.42,149.94c-.05.03-.13.05-.23.06-.1.01-.21.02-.32.02h-.59c-.57-.04-1.12-.1-1.64-.18-.88-.11-1.76-.18-2.63-.22-.87-.04-1.75-.11-2.63-.22-.11-.01-.21-.03-.31-.04-.1-.01-.2-.05-.29-.1-.19-.09-.28-.25-.28-.46.03-.83.06-1.65.11-2.47s.08-1.65.11-2.49c.03-.61.04-1.22.03-1.83,0-.61,0-1.22.03-1.83.03-.64.06-1.27.1-1.89s.08-1.24.12-1.87v-.41c0-.15,0-.3.02-.44.01-.14.05-.26.11-.36.06-.1.15-.16.27-.17.12-.01.33-.02.63-.02h.96c.34,0,.66,0,.97.02.31.01.52.03.64.04.11.01.25.04.43.08.18.04.3.1.37.18.04.08.05.22.02.43-.03.21-.05.35-.06.43-.04.36-.09.72-.14,1.07-.05.35-.1.71-.14,1.07-.08.72-.16,1.44-.24,2.15-.08.71-.17,1.43-.26,2.15-.01.11-.04.3-.07.59-.03.29-.07.59-.1.92s-.06.63-.08.92c-.02.29-.03.48-.03.59.11.01.29.02.56.02h3.13c.35,0,.66,0,.93,0s.45.02.56.03c.15.03.27.11.36.24.05.11.07.25.04.42-.03.47-.05.94-.07,1.41-.02.47-.05.94-.09,1.41-.01.13-.04.27-.08.41s-.11.25-.22.33Z"/>
      </g>
      <g>
        <path class="cls-40" d="M35.02,147.99c-.08,0-.16,0-.23,0s-.14-.02-.21-.05c-.07-.04-.13-.11-.18-.2-.03-.05-.04-.16-.05-.3,0-.15-.02-.3-.03-.45-.01-.16-.02-.3-.02-.45v-.31c-.01-.44-.02-.89-.02-1.32v-1.3c-.09-.19-.26-.51-.51-.97-.24-.46-.51-.98-.82-1.57-.3-.59-.62-1.21-.96-1.86-.34-.65-.65-1.27-.95-1.86s-.56-1.11-.78-1.58c-.22-.46-.37-.8-.46-1-.03-.08-.04-.15-.04-.2.01-.07.06-.13.14-.18.09-.07.29-.18.58-.33s.6-.31.93-.47c.33-.16.64-.31.94-.46.3-.14.5-.24.61-.29.15-.07.3-.13.46-.18.16-.05.28,0,.34.14.45,1.09.86,2.18,1.25,3.27.39,1.09.82,2.18,1.29,3.25.39-1.15.79-2.28,1.2-3.39s.85-2.24,1.32-3.35c.04-.11.1-.23.17-.36.07-.13.17-.2.27-.18.47.05.94.12,1.39.2.46.08.92.18,1.37.28.11.03.22.05.34.08s.23.06.32.11c.09.05.16.1.2.17.04.07.04.15,0,.24-.09.21-.26.59-.48,1.12-.23.53-.49,1.15-.79,1.84-.3.69-.61,1.43-.94,2.2s-.64,1.51-.94,2.2c-.3.69-.56,1.31-.78,1.85-.22.54-.38.92-.47,1.13,0,.13,0,.4-.01.79s-.01.81-.02,1.25c0,.44-.01.86-.01,1.25s0,.65.02.79c.03.08.03.15,0,.22-.05.07-.15.1-.28.11s-.24,0-.3,0c-.49,0-.97.01-1.46.04-.48.03-.96.05-1.43.08Z"/>
        <path class="cls-40" d="M55.03,147.63c-.12.03-.35.05-.69.06s-.7.02-1.08.03-.74.01-1.08.01-.57,0-.69.02c-.05,0-.09-.02-.12-.07-.03-.05-.05-.1-.06-.17v-.17c0-.09,0-.18,0-.28,0-.1,0-.19,0-.28v-.19c-1.17.19-2.34.37-3.5.55s-2.32.34-3.5.48h-.15c-.06,0-.1-.01-.13-.04-.05-.05-.09-.15-.1-.29-.01-.14-.03-.25-.04-.31-.07-.61-.11-1.21-.12-1.82-.01-.61-.03-1.21-.06-1.82-.05-1.46-.12-2.91-.18-4.35-.07-1.45-.05-2.9.06-4.35.01-.12.02-.26,0-.42,0-.16,0-.32,0-.46s.04-.28.09-.4c.05-.12.13-.2.25-.22.08-.03.17-.04.25-.05.09,0,.18-.02.27-.05.57-.13,1.14-.19,1.72-.16.58.03,1.15.03,1.72.02.08-.01.16,0,.24.01.08.02.13.06.14.13v.44c-.03.89-.06,1.78-.11,2.66-.05.88-.08,1.77-.11,2.66-.01.09-.02.26-.03.5s-.01.5-.02.81c0,.3-.01.63-.02.97,0,.34-.01.67-.02.97,0,.3-.02.57-.03.81-.01.24-.02.4-.02.5.11-.01.32-.05.64-.1s.66-.11,1.02-.17c.36-.06.7-.11,1.02-.16.32-.05.53-.08.64-.09.03-1.63.03-3.24,0-4.84-.03-1.6-.04-3.2-.04-4.82,0-.17.1-.28.3-.3.12-.01.34-.03.65-.05.31-.02.64-.03.98-.04s.67,0,.98,0,.53.01.65.04c.07.01.14.02.21,0,.07,0,.14.02.19.07.07.05.09.16.07.31-.02.16-.03.28-.03.37-.03,1.55-.03,3.09-.02,4.63.01,1.54,0,3.08-.06,4.63,0,.13,0,.39,0,.77,0,.38-.02.77-.03,1.19-.01.42-.02.82-.02,1.19s.01.63.04.77c.01.08.03.18.05.28.02.11.03.21.04.29s0,.17-.03.23-.08.11-.16.12Z"/>
        <path class="cls-40" d="M61.29,147.99c-.08,0-.16,0-.23,0s-.14-.02-.21-.05c-.07-.04-.13-.11-.18-.2-.03-.05-.04-.16-.05-.3,0-.15-.02-.3-.03-.45-.01-.16-.02-.3-.02-.45v-.31c-.01-.44-.02-.89-.02-1.32v-1.3c-.09-.19-.26-.51-.51-.97-.24-.46-.51-.98-.82-1.57-.3-.59-.62-1.21-.96-1.86-.34-.65-.65-1.27-.95-1.86s-.56-1.11-.78-1.58c-.22-.46-.37-.8-.46-1-.03-.08-.04-.15-.04-.2.01-.07.06-.13.14-.18.09-.07.29-.18.58-.33s.6-.31.93-.47c.33-.16.64-.31.94-.46.3-.14.5-.24.61-.29.15-.07.3-.13.46-.18.16-.05.28,0,.34.14.45,1.09.86,2.18,1.25,3.27.39,1.09.82,2.18,1.29,3.25.39-1.15.79-2.28,1.2-3.39s.85-2.24,1.32-3.35c.04-.11.1-.23.17-.36.07-.13.17-.2.27-.18.47.05.94.12,1.39.2.46.08.92.18,1.37.28.11.03.22.05.34.08s.23.06.32.11c.09.05.16.1.2.17.04.07.04.15,0,.24-.09.21-.26.59-.48,1.12-.23.53-.49,1.15-.79,1.84-.3.69-.61,1.43-.94,2.2s-.64,1.51-.94,2.2c-.3.69-.56,1.31-.78,1.85-.22.54-.38.92-.47,1.13,0,.13,0,.4-.01.79s-.01.81-.02,1.25c0,.44-.01.86-.01,1.25s0,.65.02.79c.03.08.03.15,0,.22-.05.07-.15.1-.28.11s-.24,0-.3,0c-.49,0-.97.01-1.46.04-.48.03-.96.05-1.43.08Z"/>
        <path class="cls-40" d="M81.29,147.63c-.12.03-.35.05-.69.06s-.7.02-1.08.03-.74.01-1.08.01-.57,0-.69.02c-.05,0-.09-.02-.12-.07-.03-.05-.05-.1-.06-.17v-.17c0-.09,0-.18,0-.28,0-.1,0-.19,0-.28v-.19c-1.17.19-2.34.37-3.5.55s-2.32.34-3.5.48h-.15c-.06,0-.1-.01-.13-.04-.05-.05-.09-.15-.1-.29-.01-.14-.03-.25-.04-.31-.07-.61-.11-1.21-.12-1.82-.01-.61-.03-1.21-.06-1.82-.05-1.46-.12-2.91-.18-4.35-.07-1.45-.05-2.9.06-4.35.01-.12.02-.26,0-.42,0-.16,0-.32,0-.46s.04-.28.09-.4c.05-.12.13-.2.25-.22.08-.03.17-.04.25-.05.09,0,.18-.02.27-.05.57-.13,1.14-.19,1.72-.16.58.03,1.15.03,1.72.02.08-.01.16,0,.24.01.08.02.13.06.14.13v.44c-.03.89-.06,1.78-.11,2.66-.05.88-.08,1.77-.11,2.66-.01.09-.02.26-.03.5s-.01.5-.02.81c0,.3-.01.63-.02.97,0,.34-.01.67-.02.97,0,.3-.02.57-.03.81-.01.24-.02.4-.02.5.11-.01.32-.05.64-.1s.66-.11,1.02-.17c.36-.06.7-.11,1.02-.16.32-.05.53-.08.64-.09.03-1.63.03-3.24,0-4.84-.03-1.6-.04-3.2-.04-4.82,0-.17.1-.28.3-.3.12-.01.34-.03.65-.05.31-.02.64-.03.98-.04s.67,0,.98,0,.53.01.65.04c.07.01.14.02.21,0,.07,0,.14.02.19.07.07.05.09.16.07.31-.02.16-.03.28-.03.37-.03,1.55-.03,3.09-.02,4.63.01,1.54,0,3.08-.06,4.63,0,.13,0,.39,0,.77,0,.38-.02.77-.03,1.19-.01.42-.02.82-.02,1.19s.01.63.04.77c.01.08.03.18.05.28.02.11.03.21.04.29s0,.17-.03.23-.08.11-.16.12Z"/>
        <path class="cls-40" d="M92.04,148.12c-.05.03-.13.05-.23.06-.1.01-.21.02-.32.02h-.6c-.58-.04-1.13-.1-1.66-.18-.89-.11-1.77-.18-2.66-.22-.88-.04-1.77-.12-2.66-.22-.11-.01-.21-.03-.31-.04-.1-.01-.2-.05-.29-.1-.19-.09-.28-.25-.28-.46.03-.83.06-1.67.11-2.5s.08-1.67.11-2.52c.03-.62.04-1.24.03-1.85s0-1.23.03-1.85c.03-.65.06-1.28.1-1.91.04-.63.08-1.26.12-1.89v-.41c0-.16,0-.3.02-.44.01-.14.05-.26.11-.36.06-.1.15-.16.27-.17.12-.01.33-.02.64-.02h.97c.34,0,.67,0,.98.02.31.01.53.03.65.04.11.01.25.04.43.08.18.04.31.1.37.18.04.08.05.23.02.43-.03.21-.05.35-.06.43-.04.36-.09.72-.14,1.08-.05.36-.1.72-.14,1.08-.08.73-.16,1.45-.24,2.17-.08.72-.17,1.45-.26,2.17-.01.11-.04.31-.07.6-.03.29-.07.6-.1.93-.03.33-.06.64-.08.93-.02.29-.03.49-.03.6.11.01.3.02.57.02h3.16c.36,0,.67,0,.94,0s.46.02.57.03c.15.03.27.11.36.24.05.11.07.25.04.42-.03.47-.05.95-.07,1.42-.02.48-.05.95-.09,1.42-.01.13-.04.27-.08.41s-.11.25-.22.33Z"/>
      </g>
    </g>
  </g>
</svg>