<?xml version="1.0" encoding="UTF-8"?>
<svg id="Layer_2" data-name="Layer 2" xmlns="http://www.w3.org/2000/svg" xmlns:xlink="http://www.w3.org/1999/xlink" viewBox="0 0 284.18 408.64">
  <defs>
    <style>
      .cls-1, .cls-2, .cls-3, .cls-4, .cls-5, .cls-6 {
        fill: none;
      }

      .cls-2, .cls-3, .cls-7, .cls-4, .cls-8, .cls-9, .cls-10, .cls-5, .cls-6, .cls-11, .cls-12 {
        stroke-miterlimit: 10;
      }

      .cls-2, .cls-9 {
        stroke: #c6c6c6;
        stroke-width: 1.68px;
      }

      .cls-13 {
        fill: #891210;
      }

      .cls-14, .cls-7 {
        fill: #2b211d;
      }

      .cls-3, .cls-11 {
        stroke: #fcc8b6;
        stroke-width: 1.84px;
      }

      .cls-7, .cls-4 {
        stroke: #339;
      }

      .cls-7, .cls-4, .cls-10, .cls-6, .cls-12 {
        stroke-width: 3px;
      }

      .cls-15 {
        fill: #3a1d17;
      }

      .cls-8 {
        stroke-width: 2.22px;
      }

      .cls-8, .cls-16, .cls-12 {
        fill: #339;
      }

      .cls-8, .cls-12 {
        stroke: #29297f;
      }

      .cls-17, .cls-10 {
        fill: #60372b;
      }

      .cls-9, .cls-18 {
        fill: #f9f9f9;
      }

      .cls-19 {
        fill: #8e663f;
      }

      .cls-20, .cls-11 {
        fill: #ffe3d7;
      }

      .cls-21 {
        clip-path: url(#clippath-11);
      }

      .cls-22 {
        clip-path: url(#clippath-10);
      }

      .cls-23 {
        clip-path: url(#clippath-15);
      }

      .cls-24 {
        clip-path: url(#clippath-13);
      }

      .cls-25 {
        clip-path: url(#clippath-14);
      }

      .cls-26 {
        clip-path: url(#clippath-12);
      }

      .cls-27 {
        clip-path: url(#clippath-1);
      }

      .cls-28 {
        clip-path: url(#clippath-3);
      }

      .cls-29 {
        clip-path: url(#clippath-4);
      }

      .cls-30 {
        clip-path: url(#clippath-2);
      }

      .cls-31 {
        clip-path: url(#clippath-7);
      }

      .cls-32 {
        clip-path: url(#clippath-6);
      }

      .cls-33 {
        clip-path: url(#clippath-9);
      }

      .cls-34 {
        clip-path: url(#clippath-8);
      }

      .cls-35 {
        clip-path: url(#clippath-5);
      }

      .cls-36 {
        fill: #7f5c36;
      }

      .cls-36, .cls-37 {
        opacity: .2;
      }

      .cls-38 {
        fill: #191918;
      }

      .cls-10, .cls-6 {
        stroke: #513029;
      }

      .cls-5 {
        stroke: #ba2a2a;
        stroke-linecap: round;
        stroke-width: 2.65px;
      }

      .cls-37, .cls-39 {
        fill: #20164c;
      }

      .cls-39 {
        opacity: .3;
      }

      .cls-40 {
        fill: #d7c5ff;
        opacity: .15;
      }

      .cls-41 {
        clip-path: url(#clippath);
      }
    </style>
    <clipPath id="clippath">
      <path class="cls-11" d="M209.63,212.2c28.94,43.43,60.7,61.52,47.36,23.16-39.11,8.69-32.81-14.1-25.71-34.6,6.87-15.27,29.61-3.37,41.13,8.14,13.16,22.3,12.66,43.37,7.34,63.81-2.25,8.63-11.25,13.77-19.79,11.2-12.3-3.7-22.63-11.21-35.73-22.12-13.13-6.86-19.42-21.73-14.61-49.6Z"/>
    </clipPath>
    <clipPath id="clippath-1">
      <path class="cls-11" d="M226.14,354.85c4.19,11.31,6.65,22.42,6.61,33.24l-19.2,15.36c-5.94,4.75-14.1,5.61-20.89,2.19l-28.86-14.5c-2.95-3.71-4.09-15.41-5.09-27.73l67.42-8.57Z"/>
    </clipPath>
    <clipPath id="clippath-2">
      <path class="cls-11" d="M72.35,350.89c-2.84,9.14-4.51,18.11-4.49,26.85l13.02,12.4c4.03,3.84,9.56,4.53,14.17,1.77l19.57-11.71c2-2.99,2.77-12.44,3.45-22.39l-45.72-6.92Z"/>
    </clipPath>
    <clipPath id="clippath-3">
      <path class="cls-11" d="M71.66,217.84c-39.54,17.79-56.11,43.87-49.18,78.45-12.12,24.31-7.33,37.27,12.92,39.86,7.25,5.85,27.22-.64,21.75-23.28,19.81-1.56,8.63-13.89-4.39-13.36-15.83-21.62-18.46-31.95,5.16-46.98l13.73-34.69Z"/>
    </clipPath>
    <clipPath id="clippath-4">
      <path class="cls-11" d="M233.95,131.81c37.18-19.61,28.28,61.01-18.83,57.65l18.83-57.65Z"/>
    </clipPath>
    <clipPath id="clippath-5">
      <path class="cls-7" d="M74.14,212.2c-55.9,116.73-46.89,157.86,60.3,159.95,3.2.06,9.54-16.14,9.54-16.14,0,0,7.87,16.27,11.58,16.22,71.64-.97,126.43-22.19,51.77-164.48l-133.19,4.44Z"/>
    </clipPath>
    <clipPath id="clippath-6">
      <ellipse class="cls-16" cx="141.1" cy="261.08" rx="115.89" ry="65.37"/>
    </clipPath>
    <clipPath id="clippath-7">
      <path class="cls-11" d="M112.37,245.66c25.41,46.28,38.09,44.55,57.36-1.6l-57.36,1.6Z"/>
    </clipPath>
    <clipPath id="clippath-8">
      <path class="cls-11" d="M39.43,133.56c-37.18-19.61-28.28,61.01,18.83,57.65l-18.83-57.65Z"/>
    </clipPath>
    <clipPath id="clippath-9">
      <path class="cls-11" d="M31.27,125c10.49,63.12,35.68,113.13,94.67,125.64,11.02,2.34,22.51,1.42,33.03-2.6,40.9-15.59,78.16-56.39,77.06-139.8C227.5,3.98,22.74,20.74,31.27,125Z"/>
    </clipPath>
    <clipPath id="clippath-10">
      <ellipse class="cls-9" cx="190.86" cy="152.7" rx="32.14" ry="34.17"/>
    </clipPath>
    <clipPath id="clippath-11">
      <ellipse class="cls-9" cx="94.05" cy="155.05" rx="34.17" ry="31.3" transform="translate(-87.03 164.83) rotate(-61.85)"/>
    </clipPath>
    <clipPath id="clippath-12">
      <path class="cls-13" d="M102.9,218.14l13.06,11.12c24.82-5.22,54.28-13.22,57.51-5.56l7.91-8.89c-5.15-30.96-81.33-21.9-78.47,3.34Z"/>
    </clipPath>
    <clipPath id="clippath-13">
      <path class="cls-10" d="M46.92,113.18c-.48,29.79,2.66,57.75,15.16,75.44-8.11-8.12-17.33-15.99-18.22-25.76l-2.04,9.16C5.12,108.59,28.85,30.04,115.35,17.49c-2.64-9.17-9.1-11.99-17.46-11.66-.48.02-.59-.67-.12-.79,23.82-6.41,44.29-5.83,54.39,16.4,6.18-5.57,12.94-9.27,21.53-7.12,2,.5,2.68,3.03,1.24,4.49-3.45,3.49-5.63,6.51-6.44,8.99,34.73,3.42,85.14,40.79,74.97,107.58l-14.12,39.53c4.24-29.18-12.04-44.46-4.58-60.14-17.53-6.69-31.47-21.66-43.71-40.54-.6-.93-2.04-.29-1.76.78l2.98,11.43c-21.33,4.21-36.14-10.52-47.29-35.87-2.61,19.56-12.35,32.41-28.27,39.43,3.76-5.87,6.45-11.9,6.86-18.26.07-1.08-1.25-1.63-1.97-.82-17.22,19.62-38.22,34.42-64.68,42.25Z"/>
    </clipPath>
    <clipPath id="clippath-14">
      <ellipse class="cls-1" cx="40.33" cy="314.36" rx="40.33" ry="34.22"/>
    </clipPath>
    <clipPath id="clippath-15">
      <path class="cls-11" d="M71.66,217.84c-39.54,17.79-56.11,43.87-49.18,78.45-12.12,24.31-7.33,37.27,12.92,39.86,7.25,5.85,27.22-.64,21.75-23.28,19.81-1.56,8.63-13.89-4.39-13.36-15.83-21.62-18.46-31.95,5.16-46.98l13.73-34.69Z"/>
    </clipPath>
  </defs>
  <g id="Layer_9" data-name="Layer 9">
    <g>
      <g>
        <path class="cls-20" d="M209.63,212.2c28.94,43.43,60.7,61.52,47.36,23.16-39.11,8.69-32.81-14.1-25.71-34.6,6.87-15.27,29.61-3.37,41.13,8.14,13.16,22.3,12.66,43.37,7.34,63.81-2.25,8.63-11.25,13.77-19.79,11.2-12.3-3.7-22.63-11.21-35.73-22.12-13.13-6.86-19.42-21.73-14.61-49.6Z"/>
        <g class="cls-41">
          <path class="cls-16" d="M244.78,241.47c5.9,16.65,2.08,30.7-7.95,43.11l-41.85-26.31.6-71.75c17.34,30.31,34.36,56.59,49.2,54.95Z"/>
          <path class="cls-37" d="M244.78,241.47c9.02-6.55,16.8-13.64,22.71-21.56-3.65,6.97-7.8,13.41-12.59,19.14l-10.12,2.42Z"/>
        </g>
        <path class="cls-3" d="M209.63,212.2c28.94,43.43,60.7,61.52,47.36,23.16-39.11,8.69-32.81-14.1-25.71-34.6,6.87-15.27,29.61-3.37,41.13,8.14,13.16,22.3,12.66,43.37,7.34,63.81-2.25,8.63-11.25,13.77-19.79,11.2-12.3-3.7-22.63-11.21-35.73-22.12-13.13-6.86-19.42-21.73-14.61-49.6Z"/>
      </g>
      <g>
        <path class="cls-20" d="M226.14,354.85c4.19,11.31,6.65,22.42,6.61,33.24l-19.2,15.36c-5.94,4.75-14.1,5.61-20.89,2.19l-28.86-14.5c-2.95-3.71-4.09-15.41-5.09-27.73l67.42-8.57Z"/>
        <g class="cls-27">
          <path class="cls-12" d="M238.6,378.51c-24.49,14.97-47.37,13.28-79.89,7.25l17.3,34.47,66.48-12.52-3.9-29.21Z"/>
        </g>
        <path class="cls-3" d="M226.14,354.85c4.19,11.31,6.65,22.42,6.61,33.24l-19.2,15.36c-5.94,4.75-14.1,5.61-20.89,2.19l-28.86-14.5c-2.95-3.71-4.09-15.41-5.09-27.73l67.42-8.57Z"/>
      </g>
      <g>
        <path class="cls-20" d="M72.35,350.89c-2.84,9.14-4.51,18.11-4.49,26.85l13.02,12.4c4.03,3.84,9.56,4.53,14.17,1.77l19.57-11.71c2-2.99,2.77-12.44,3.45-22.39l-45.72-6.92Z"/>
        <g class="cls-30">
          <path class="cls-8" d="M63.89,369.99c16.61,12.09,32.12,10.72,54.18,5.86l-11.73,27.84-45.09-10.11,2.64-23.59Z"/>
        </g>
        <path class="cls-3" d="M72.35,350.89c-2.84,9.14-4.51,18.11-4.49,26.85l13.02,12.4c4.03,3.84,9.56,4.53,14.17,1.77l19.57-11.71c2-2.99,2.77-12.44,3.45-22.39l-45.72-6.92Z"/>
      </g>
      <g>
        <path class="cls-20" d="M71.66,217.84c-39.54,17.79-56.11,43.87-49.18,78.45-12.12,24.31-7.33,37.27,12.92,39.86,7.25,5.85,27.22-.64,21.75-23.28,19.81-1.56,8.63-13.89-4.39-13.36-15.83-21.62-18.46-31.95,5.16-46.98l13.73-34.69Z"/>
        <g class="cls-28">
          <path class="cls-16" d="M34.47,233.07c-1.37,16.87,2.12,28.86,9.32,37.14l30.51-13.23,3.31-46.31-43.13,22.4Z"/>
        </g>
        <path class="cls-3" d="M71.66,217.84c-39.54,17.79-56.11,43.87-49.18,78.45-12.12,24.31-7.33,37.27,12.92,39.86,7.25,5.85,27.22-.64,21.75-23.28,19.81-1.56,8.63-13.89-4.39-13.36-15.83-21.62-18.46-31.95,5.16-46.98l13.73-34.69Z"/>
      </g>
      <g>
        <path class="cls-20" d="M233.95,131.81c37.18-19.61,28.28,61.01-18.83,57.65l18.83-57.65Z"/>
        <g class="cls-29">
          <path class="cls-37" d="M242.55,125.59c.27,27.91-4.08,53.6-19.17,74.18l-21.27-7.58,26.87-61.98,13.58-4.61Z"/>
        </g>
        <path class="cls-3" d="M233.95,131.81c37.18-19.61,28.28,61.01-18.83,57.65l18.83-57.65Z"/>
      </g>
      <g>
        <path class="cls-14" d="M74.14,212.2c-55.9,116.73-46.89,157.86,60.3,159.95,3.2.06,9.54-16.14,9.54-16.14,0,0,7.87,16.27,11.58,16.22,71.64-.97,126.43-22.19,51.77-164.48l-133.19,4.44Z"/>
        <g class="cls-35">
          <g>
            <ellipse class="cls-16" cx="141.1" cy="261.08" rx="115.89" ry="65.37"/>
            <g class="cls-32">
              <rect class="cls-37" x="10.79" y="174.9" width="261.54" height="171.13"/>
            </g>
          </g>
          <ellipse class="cls-16" cx="142.1" cy="249.37" rx="115.89" ry="65.37"/>
        </g>
        <path class="cls-4" d="M74.14,212.2c-55.9,116.73-46.89,157.86,60.3,159.95,3.2.06,9.54-16.14,9.54-16.14,0,0,7.87,16.27,11.58,16.22,71.64-.97,126.43-22.19,51.77-164.48l-133.19,4.44Z"/>
      </g>
      <g>
        <path class="cls-20" d="M112.37,245.66c25.41,46.28,38.09,44.55,57.36-1.6l-57.36,1.6Z"/>
        <g class="cls-31">
          <path class="cls-37" d="M112.37,261.79c26.53-7.31,50.53-8.15,57.36,7.45l13.38-45.7-85.63,7.06,14.89,31.19Z"/>
        </g>
        <path class="cls-3" d="M112.37,245.66c25.41,46.28,38.09,44.55,57.36-1.6l-57.36,1.6Z"/>
      </g>
      <g>
        <path class="cls-20" d="M39.43,133.56c-37.18-19.61-28.28,61.01,18.83,57.65l-18.83-57.65Z"/>
        <g class="cls-34">
          <path class="cls-37" d="M27.07,134.86c5,25.9,6.29,44.87,19.1,61.79l20.92-4.66-24.87-69.01-15.15,11.88Z"/>
        </g>
        <path class="cls-3" d="M39.43,133.56c-37.18-19.61-28.28,61.01,18.83,57.65l-18.83-57.65Z"/>
      </g>
      <g>
        <path class="cls-20" d="M31.27,125c10.49,63.12,35.68,113.13,94.67,125.64,11.02,2.34,22.51,1.42,33.03-2.6,40.9-15.59,78.16-56.39,77.06-139.8C227.5,3.98,22.74,20.74,31.27,125Z"/>
        <g class="cls-33">
          <path class="cls-37" d="M47.3,123.46c-.48,29.79,2.65,57.75,15.1,75.44-8.08-8.12-17.26-15.99-18.14-25.76l-2.03,9.16C5.69,118.87,29.31,40.33,115.44,27.78c-2.63-9.17-9.06-11.99-17.38-11.66-.48.02-.59-.67-.12-.79,23.72-6.41,44.1-5.83,54.15,16.4,6.15-5.57,12.89-9.27,21.44-7.12,1.99.5,2.67,3.03,1.23,4.49-3.43,3.49-5.61,6.51-6.41,8.99,34.58,3.42,84.78,40.79,74.64,107.58l-14.06,39.53c4.22-29.18-11.99-44.46-4.56-60.14-17.45-6.69-31.33-21.66-43.52-40.54-.6-.93-2.03-.29-1.75.78l2.97,11.43c-21.24,4.21-35.98-10.52-47.08-35.87-2.6,19.56-12.29,32.41-28.15,39.43,3.74-5.87,6.42-11.9,6.83-18.26.07-1.08-1.25-1.63-1.96-.82-17.15,19.62-38.06,34.42-64.4,42.25Z"/>
        </g>
        <path class="cls-3" d="M31.27,125c10.49,63.12,35.68,113.13,94.67,125.64,11.02,2.34,22.51,1.42,33.03-2.6,40.9-15.59,78.16-56.39,77.06-139.8C227.5,3.98,22.74,20.74,31.27,125Z"/>
      </g>
      <path class="cls-36" d="M128.65,181.44c9.98-3.91,14.68-1.59,24.11-6.53l3.47,10.53c-6.81,7.9-26.05.56-27.58-3.99Z"/>
      <path class="cls-19" d="M144.6,150.14c1.25,2.83,2.42,5.69,3.57,8.55,1.9,5.92,6.7,20.37,8.7,26.48,0,0,.14.43.14.43-1.93,2.61-4.96,3.65-7.85,3.96-5.41.45-10.87-.77-15.8-3.18-1.71-1.12-3.8-2.22-4.69-4.3-.27-.72-.31-1.52-.11-2.23-.22,3.19,3.22,4.19,5.35,5.17,2.38,1.11,4.88,1.96,7.42,2.5,4.62.88,10.87,1.45,14.37-2.59,0,0-.13.77-.13.77-3.83-5.38-9.12-18.61-9.67-25.24-.26-3.1-.61-7.27-1.3-10.32h0Z"/>
      <g>
        <ellipse class="cls-37" cx="190.86" cy="157.4" rx="32.14" ry="34.17"/>
        <g>
          <ellipse class="cls-18" cx="190.86" cy="152.7" rx="32.14" ry="34.17"/>
          <g class="cls-22">
            <ellipse class="cls-38" cx="204.83" cy="140.22" rx="7.28" ry="8.11" transform="translate(-34.71 75.11) rotate(-19.19)"/>
            <path class="cls-39" d="M155.83,163.23l37.65,13.66,34.65-24.19c6.98,47.87-65.33,58.41-72.3,10.54Z"/>
          </g>
          <ellipse class="cls-2" cx="190.86" cy="152.7" rx="32.14" ry="34.17"/>
        </g>
      </g>
      <g>
        <ellipse class="cls-37" cx="94.05" cy="159.15" rx="34.17" ry="32.14" transform="translate(-74.21 235.73) rotate(-83.89)"/>
        <g>
          <ellipse class="cls-18" cx="94.05" cy="155.05" rx="34.17" ry="31.3" transform="translate(-87.03 164.83) rotate(-61.85)"/>
          <g class="cls-21">
            <path class="cls-39" d="M62.08,170.26l25.16,13.56,43.88-28.21c9.29,48.41-59.75,63.06-69.04,14.65Z"/>
            <ellipse class="cls-38" cx="87.47" cy="150.51" rx="7.81" ry="8.66"/>
          </g>
          <ellipse class="cls-2" cx="94.05" cy="155.05" rx="34.17" ry="31.3" transform="translate(-87.03 164.83) rotate(-61.85)"/>
        </g>
      </g>
      <path class="cls-15" d="M124.17,123.96c-19.33-8.54-42.57-18.16-53.48-18.62-2.82,6.42-3.88,13.14-3.46,20.1.09,1.42,6.09,3.79,6.29,5.23,11.51,1.85,25.38,4.02,47.06,7.41l3.59-14.13Z"/>
      <path class="cls-15" d="M154.94,116.85c20.65-7.22,57.74-20.69,69.16-20.4,2.6,6.62-3.4,13.08-4.21,20.02-.17,1.42-6.69,3.07-6.99,4.5-12.62-1.31-32.47,5.29-51.19,9.51l-6.77-13.63Z"/>
      <g>
        <path class="cls-13" d="M102.9,218.14l13.06,11.12c24.82-5.22,54.28-13.22,57.51-5.56l7.91-8.89c-5.15-30.96-81.33-21.9-78.47,3.34Z"/>
        <g class="cls-26">
          <path class="cls-18" d="M98.82,210.55l18.32,10.49c-1.64-8.19,55.46-21.05,64.24-11.26v-9.35c-30.56-16.99-58.15-14.13-82.56,10.11Z"/>
        </g>
      </g>
      <g>
        <path class="cls-17" d="M46.92,113.18c-.48,29.79,2.66,57.75,15.16,75.44-8.11-8.12-17.33-15.99-18.22-25.76l-2.04,9.16C5.12,108.59,28.85,30.04,115.35,17.49c-2.64-9.17-9.1-11.99-17.46-11.66-.48.02-.59-.67-.12-.79,23.82-6.41,44.29-5.83,54.39,16.4,6.18-5.57,12.94-9.27,21.53-7.12,2,.5,2.68,3.03,1.24,4.49-3.45,3.49-5.63,6.51-6.44,8.99,34.73,3.42,85.14,40.79,74.97,107.58l-14.12,39.53c4.24-29.18-12.04-44.46-4.58-60.14-17.53-6.69-31.47-21.66-43.71-40.54-.6-.93-2.04-.29-1.76.78l2.98,11.43c-21.33,4.21-36.14-10.52-47.29-35.87-2.61,19.56-12.35,32.41-28.27,39.43,3.76-5.87,6.45-11.9,6.86-18.26.07-1.08-1.25-1.63-1.97-.82-17.22,19.62-38.22,34.42-64.68,42.25Z"/>
        <g class="cls-24">
          <path class="cls-40" d="M165.04,29.38c25.67,6.15,54.01,27.01,55.74,45.85.32,3.5,3.08,6.34,3.98,9.71-2.82-6.39-6.82-12.07-11.2-17.39-6.64-7.94-14.18-15.11-22.27-21.56-8.13-6.45-16.71-12.35-26.25-16.62h0Z"/>
          <path class="cls-40" d="M118.87,23.11c-38.07,9.68-79.86,43.49-82.11,74.44-.42,5.74-4.48,10.36-5.75,15.91,4.09-10.46,9.94-19.73,16.36-28.4,9.73-12.95,20.84-24.6,32.75-35.07,11.98-10.47,24.64-20.02,38.75-26.88h0Z"/>
          <path class="cls-40" d="M123.13,25.59c-26.67,21.01-42.2,41-39.77,59.35,7.27-17.57,21.87-37.85,39.77-59.35Z"/>
          <path class="cls-40" d="M149.01,27.37c30.53,22.38,54.22,44.42,46.09,64.28-4.87-15.41-24.3-39.17-46.09-64.28Z"/>
        </g>
        <path class="cls-6" d="M46.92,113.18c-.48,29.79,2.66,57.75,15.16,75.44-8.11-8.12-17.33-15.99-18.22-25.76l-2.04,9.16C5.12,108.59,28.85,30.04,115.35,17.49c-2.64-9.17-9.1-11.99-17.46-11.66-.48.02-.59-.67-.12-.79,23.82-6.41,44.29-5.83,54.39,16.4,6.18-5.57,12.94-9.27,21.53-7.12,2,.5,2.68,3.03,1.24,4.49-3.45,3.49-5.63,6.51-6.44,8.99,34.73,3.42,85.14,40.79,74.97,107.58l-14.12,39.53c4.24-29.18-12.04-44.46-4.58-60.14-17.53-6.69-31.47-21.66-43.71-40.54-.6-.93-2.04-.29-1.76.78l2.98,11.43c-21.33,4.21-36.14-10.52-47.29-35.87-2.61,19.56-12.35,32.41-28.27,39.43,3.76-5.87,6.45-11.9,6.86-18.26.07-1.08-1.25-1.63-1.97-.82-17.22,19.62-38.22,34.42-64.68,42.25Z"/>
      </g>
      <g class="cls-25">
        <g>
          <path class="cls-20" d="M71.66,217.84c-39.54,17.79-56.11,43.87-49.18,78.45-12.12,24.31-7.33,37.27,12.92,39.86,7.25,5.85,27.22-.64,21.75-23.28,19.81-1.56,8.63-13.89-4.39-13.36-15.83-21.62-18.46-31.95,5.16-46.98l13.73-34.69Z"/>
          <g class="cls-23">
            <path class="cls-16" d="M34.47,233.07c-1.37,16.87,2.12,28.86,9.32,37.14l30.51-13.23,3.31-46.31-43.13,22.4Z"/>
          </g>
          <path class="cls-3" d="M71.66,217.84c-39.54,17.79-56.11,43.87-49.18,78.45-12.12,24.31-7.33,37.27,12.92,39.86,7.25,5.85,27.22-.64,21.75-23.28,19.81-1.56,8.63-13.89-4.39-13.36-15.83-21.62-18.46-31.95,5.16-46.98l13.73-34.69Z"/>
        </g>
      </g>
      <g>
        <path class="cls-5" d="M196.08,78.93c9.8,6.18,16.11,3.97,18.94-6.63"/>
        <path class="cls-5" d="M225.91,95.99c-10.35-5.13-12-11.8-4.93-20.03"/>
        <path class="cls-5" d="M197.89,89.49c10.55-4.68,16.49-1.56,17.84,9.35"/>
      </g>
    </g>
  </g>
</svg>