<?xml version="1.0" encoding="UTF-8"?>
<svg id="Layer_2" data-name="Layer 2" xmlns="http://www.w3.org/2000/svg" viewBox="0 0 194.64 159.23">
  <defs>
    <style>
      .cls-1 {
        fill: #4b4b4b;
      }
    </style>
  </defs>
  <g id="Layer_9" data-name="Layer 9">
    <g>
      <path class="cls-1" d="M122.42,148.84l11.2-13.46c-.63-.41-1.25-.83-1.87-1.25-12.84-8.45-22.56-20.54-33.58-31.04-21.53-20.5-44.5-43.27-64.87-64.82-.45-.48-.43-1.24.05-1.69.41-.39,1.02-.43,1.47-.14,24.86,16.11,51.46,34.6,75.51,52.05,6.15,4.5,12.66,8.58,18.99,12.87,7.02,4.69,13.35,10.14,19.21,16.1l11.18-13.43,20.75,55.2-58.04-10.39Z"/>
      <path class="cls-1" d="M151.85,89.31l3.29-12.75c-.55-.07-1.11-.15-1.67-.24-11.44-1.62-21.94-6.71-32.8-10.3-21.23-7.01-44.15-15.11-64.93-23.2-.46-.18-.69-.71-.5-1.17.15-.39.55-.61.95-.56,22.07,2.96,46.09,6.97,68.05,11.09,5.63,1.09,11.36,1.77,17.04,2.65,6.28.93,12.34,2.6,18.24,4.77l3.28-12.73,31.84,30.85-42.79,11.59Z"/>
      <path class="cls-1" d="M90.61,123.05l-.9,31.84-26.9-17.06,8.35-4.44c-.23-.33-.45-.67-.68-1.01-4.7-6.84-7.08-14.88-10.45-22.38-6.58-14.66-13.41-30.73-19.2-45.67-.12-.34.04-.71.38-.84.28-.11.59,0,.76.23,9.14,13.14,18.66,27.82,27.12,41.46,2.16,3.51,4.58,6.88,6.87,10.32,2.55,3.78,4.6,7.8,6.32,11.98l8.33-4.43Z"/>
      <path class="cls-1" d="M61.86,123.72C27.75,123.72,0,95.97,0,61.86S27.75,0,61.86,0s61.86,27.75,61.86,61.86-27.75,61.86-61.86,61.86ZM61.86,12c-27.49,0-49.86,22.37-49.86,49.86s22.37,49.86,49.86,49.86,49.86-22.37,49.86-49.86S89.35,12,61.86,12Z"/>
    </g>
  </g>
</svg>