<?xml version="1.0" encoding="UTF-8"?>
<svg id="Layer_2" data-name="Layer 2" xmlns="http://www.w3.org/2000/svg" xmlns:xlink="http://www.w3.org/1999/xlink" viewBox="0 0 205.66 323.22">
  <defs>
    <style>
      .cls-1, .cls-2, .cls-3, .cls-4, .cls-5, .cls-6, .cls-7, .cls-8, .cls-9, .cls-10 {
        stroke-miterlimit: 10;
      }

      .cls-1, .cls-2, .cls-4, .cls-6, .cls-9 {
        fill: none;
      }

      .cls-1, .cls-3, .cls-5, .cls-6, .cls-9, .cls-10 {
        stroke-width: .88px;
      }

      .cls-1, .cls-5 {
        stroke: #c6c6c6;
      }

      .cls-2, .cls-7 {
        stroke: #4b4b4b;
        stroke-width: 5.64px;
      }

      .cls-3, .cls-11 {
        fill: #e5e1df;
      }

      .cls-3, .cls-9 {
        stroke: #c9c5c3;
      }

      .cls-4, .cls-8 {
        stroke: #898989;
        stroke-width: 1.62px;
      }

      .cls-5, .cls-12 {
        fill: #f9f9f9;
      }

      .cls-13, .cls-10 {
        fill: #f8fbfe;
      }

      .cls-14 {
        clip-path: url(#clippath-11);
      }

      .cls-15 {
        clip-path: url(#clippath-10);
      }

      .cls-16 {
        clip-path: url(#clippath-13);
      }

      .cls-17 {
        clip-path: url(#clippath-12);
      }

      .cls-18 {
        clip-path: url(#clippath-1);
      }

      .cls-19 {
        clip-path: url(#clippath-3);
      }

      .cls-20 {
        clip-path: url(#clippath-4);
      }

      .cls-21 {
        clip-path: url(#clippath-2);
      }

      .cls-22 {
        clip-path: url(#clippath-7);
      }

      .cls-23 {
        clip-path: url(#clippath-6);
      }

      .cls-24 {
        clip-path: url(#clippath-9);
      }

      .cls-25 {
        clip-path: url(#clippath-8);
      }

      .cls-26 {
        clip-path: url(#clippath-5);
      }

      .cls-27 {
        fill: #fff;
      }

      .cls-28 {
        fill: #191918;
      }

      .cls-6, .cls-10 {
        stroke: #d1d1d1;
      }

      .cls-29 {
        fill: #7e7b86;
      }

      .cls-7 {
        fill: #4b4b4b;
      }

      .cls-30 {
        fill: #f0ebff;
      }

      .cls-30, .cls-31, .cls-32 {
        opacity: .2;
      }

      .cls-33, .cls-34, .cls-35, .cls-36, .cls-31, .cls-37 {
        fill: #20164c;
      }

      .cls-33, .cls-38 {
        opacity: .15;
      }

      .cls-34 {
        opacity: .05;
      }

      .cls-35 {
        opacity: .4;
      }

      .cls-36 {
        opacity: .25;
      }

      .cls-37 {
        opacity: .3;
      }

      .cls-39 {
        fill: #bab5bc;
      }

      .cls-8, .cls-40 {
        fill: #a5a5a3;
      }

      .cls-41 {
        fill: #0c0812;
      }

      .cls-42 {
        fill: #b33c33;
      }

      .cls-38, .cls-32 {
        fill: #d7c5ff;
      }

      .cls-43 {
        clip-path: url(#clippath);
      }
    </style>
    <clipPath id="clippath">
      <rect class="cls-8" x="7.88" y="56.34" width="190.65" height="262.38" rx="16.29" ry="16.29"/>
    </clipPath>
    <clipPath id="clippath-1">
      <rect class="cls-11" x="14.02" y="56.34" width="178.37" height="245.48" rx="15.25" ry="15.25"/>
    </clipPath>
    <clipPath id="clippath-2">
      <path class="cls-10" d="M129.41,258.82c6.17,4.76,11.44,9.46,16.32,13.69,1.05.91,1.58,2.3,1.38,3.68-.49,3.43-3.19,7.55-2.11,12.44-7.6-9.98-14.87-19.96-15.59-29.81Z"/>
    </clipPath>
    <clipPath id="clippath-3">
      <path class="cls-10" d="M99,254.73c-2.89,7.5-11.63,11.7-17.57,16.5-1.21.98-1.72,2.58-1.33,4.09,1.28,4.92,3.17,8.36,5.56,10.56,9.04-9.15,15.94-18.88,13.34-31.15Z"/>
    </clipPath>
    <clipPath id="clippath-4">
      <path class="cls-10" d="M99,254.73c-3.93,17.42-12.09,11.6-14.39,32.73.9,2.62,2.15,3.78,4.51,4.27l-.85,2.04c-.29.69.06,1.47.77,1.72,8.34,2.94,16.5,3.93,24.3.85.85,1.15,2.77,1.11,4.54.52,1.71-.56,4.29,2.73,11.1-1.34,3.67,3.14,10.13,2.87,20.1-1.7,1.34-2.41-10.6-14.99-19.68-34.99,4.28-12.47-34.61-19.11-30.41-4.09Z"/>
    </clipPath>
    <clipPath id="clippath-5">
      <path class="cls-10" d="M89.42,203.65c.64,11.79-4.26,21.47-1.83,29.9,2.03,7.53,7.63,12.65,11.41,21.18-.72-6.6,26.44-5.12,30.41,4.09,4.34-5.39,14.31-2.71,11.35-14.53-.88-3.49,12.78-13.4,12.42-18.37-.2-4.48-3.33-11.67-7.07-19.42-13.92-9.65-32.27-10.87-56.68-2.84Z"/>
    </clipPath>
    <clipPath id="clippath-6">
      <path class="cls-3" d="M94.51,139.5c-23.88-2.75-46.6-26.84-46.6-46.38,0-22.83,19.62-39.98,45.41-39.98s53.06,15.94,46.69,50.16c-1.56,8.42-.76,17.63-5.81,21.85l-17.88,15.26c-7.05,3.18-12.7,3.19-16.95,0l-4.87-.91Z"/>
    </clipPath>
    <clipPath id="clippath-7">
      <path class="cls-42" d="M92.82,119.5c9.53,22.68,24.16,18.12,20.8-6.88-3.39,12.67-13.06,13.98-20.8,6.88Z"/>
    </clipPath>
    <clipPath id="clippath-8">
      <ellipse class="cls-5" cx="119.55" cy="86.87" rx="12.03" ry="15.59" transform="translate(-20.62 133.68) rotate(-54.47)"/>
    </clipPath>
    <clipPath id="clippath-9">
      <ellipse class="cls-5" cx="75.36" cy="100.08" rx="15.59" ry="12.03" transform="translate(-47.99 122.01) rotate(-63.1)"/>
    </clipPath>
    <clipPath id="clippath-10">
      <path class="cls-10" d="M99.6,142.01c-2.32,2.04-4.94,2.08-7.86,5.15-1.79.61-3.51.88-5.5.82-1.52-.04-2.99.62-3.98,1.78-3.58,4.2-6.16,8.68-7.48,13.48-.48,1.76-.39,3.63.27,5.33,4.06,10.41,1.42,19.48,5.55,32,.63,1.92,2.11,3.45,4.01,4.15,4.36,1.6,10.23,2.35,15.64,5.66,1.74-.7,2.68-2.05,3.25-3.27,3.43,1.75,7.17,3.17,11.36,4.14,1.89-.19,3.62-1.41,5.2-3.53.2-.27.58-.27.81-.04.36.36.82.58,1.4.65,1.95-.82,2.66-2.43,4.64-2.24,3.92,1.74,7.54,1.84,10.42,3.33,10.73,5.57,20.12-8.36,16.86-19.07-3.04-11.69-10.13-25.77-12.28-41.53-.63-2.13-4.6-4.19-8.27-6.97-1.99-1.51-4.45-2.28-6.94-2.12-3.14.2-5.76.88-7.88,2.04-.46.25-1.02.19-1.4-.16-.4-.37-.76-.77-1.1-1.2-5,2.66-10.6,3.12-16.72,1.6Z"/>
    </clipPath>
    <clipPath id="clippath-11">
      <path class="cls-10" d="M62.67,49.5c-5.33-1.28-7.31,1.09-9.43-.9-1.2-2.2,4.63-2.39.67-6.06-8.64-.12-11.54,2.01-14.59.9-2.62-.9-2.65-4.29-1.67-10-1.64-.4-3.74-11.42-2.27-10.91,3.35,1.18,8.83.28,9.99-6.03,2.27-1.03,6.99,2.13,10.64,1.24,10.33-4.74,16.27-14.26,19.59-13.21,4.32,1,7.5,7.63,10.21,8.31,3.48.84,3.82-3.53,7.7-3.37,5.3.46,13.12,3.12,16.87,9.93.49.89.37,1.99-.3,2.74-.37.41-.79.81-1.14,1.14,11.29,4.42,13.53,8.28,4.15,11.41,1.79,2.48,2.3,4.74,1.98,6.31-.09.46-.49.79-.96.81-2.64.14-3.57.51-5.07,1.51l-46.4,6.17Z"/>
    </clipPath>
    <clipPath id="clippath-12">
      <path class="cls-10" d="M59.1,75.6c-.83.67-1.59,1.42-2.28,2.22-6.6,7.7-7.15,14.15-.69,25.97,6.46,9.37,11.11,14.44,12.72,22.71,3.4,4.95,21.55,6.81,30.53,13.91-3.84,1.16-8.92.9-14.55,0-11.04-2.63-25.42-7.82-34.68-14.95-1.92-2.77-8.28-14.69-11.31-24.25-1.97-6.23-2.25-13.63-.43-21.29.77-3.24,2.5-6.15,4.87-8.48,5.65-5.54,10.05-17.28,22.29-27.21,14.85-9.54,34.64-7.65,60.86,4.24,10.47,7.67,12.18,15.33,17.26,23.37.83,1.32,1.37,2.81,1.57,4.36,1.29,10.21,1.51,17.29,4.65,24.11-2.1,16.66-16.05,29.03-33.56,40.1-.49-8.54,15-8.69,18.53-31.22.47-3.02.54-6.09.26-9.13-.64-10.08-1.36-19.57-2.46-26.41-6.46-5.8-13.09-10.34-19.91-13.47-7.22-2.01-14.72-2.82-22.45-2.69-9.5,1.56-19.81,8.83-31.2,18.11Z"/>
    </clipPath>
    <clipPath id="clippath-13">
      <path class="cls-10" d="M99.38,140.41c-1.06,5.31,14.52,5.92,16.95,0-3.53-2.74-6.62,4.22-16.95,0Z"/>
    </clipPath>
  </defs>
  <g id="Layer_9" data-name="Layer 9">
    <g>
      <g>
        <rect class="cls-40" x="7.88" y="56.34" width="190.65" height="262.38" rx="16.29" ry="16.29"/>
        <g class="cls-43">
          <polygon class="cls-29" points="0 323.22 17.39 290.62 181.59 290.62 205.66 323.22 0 323.22"/>
        </g>
        <rect class="cls-4" x="7.88" y="56.34" width="190.65" height="262.38" rx="16.29" ry="16.29"/>
      </g>
      <g>
        <rect class="cls-11" x="14.02" y="56.34" width="178.37" height="245.48" rx="15.25" ry="15.25"/>
        <g class="cls-18">
          <rect class="cls-39" x="20.38" y="61.83" width="178.37" height="245.48" rx="15.25" ry="15.25"/>
          <path class="cls-30" d="M198.53,149.12c0-76.37-190.65-76.37-190.65,0V49.29s190.65,0,190.65,0v99.83Z"/>
        </g>
      </g>
    </g>
    <g>
      <g>
        <path class="cls-13" d="M129.41,258.82c6.17,4.76,11.44,9.46,16.32,13.69,1.05.91,1.58,2.3,1.38,3.68-.49,3.43-3.19,7.55-2.11,12.44-7.6-9.98-14.87-19.96-15.59-29.81Z"/>
        <g class="cls-21">
          <path class="cls-36" d="M127.26,253.9c5.71,12.92,13.62,23.36,25.12,29.72l-7.12,9.41c-12.14-12.54-19.76-25.45-18-39.14Z"/>
        </g>
        <path class="cls-6" d="M129.41,258.82c6.17,4.76,11.44,9.46,16.32,13.69,1.05.91,1.58,2.3,1.38,3.68-.49,3.43-3.19,7.55-2.11,12.44-7.6-9.98-14.87-19.96-15.59-29.81Z"/>
      </g>
      <g>
        <path class="cls-13" d="M99,254.73c-2.89,7.5-11.63,11.7-17.57,16.5-1.21.98-1.72,2.58-1.33,4.09,1.28,4.92,3.17,8.36,5.56,10.56,9.04-9.15,15.94-18.88,13.34-31.15Z"/>
        <g class="cls-19">
          <path class="cls-36" d="M104.04,251.02c-7.91,17.3-21.58,18.4-24.53,33.66l3.55,3.96c13.07-11.56,21.67-23.84,20.98-37.63Z"/>
        </g>
        <path class="cls-6" d="M99,254.73c-2.89,7.5-11.63,11.7-17.57,16.5-1.21.98-1.72,2.58-1.33,4.09,1.28,4.92,3.17,8.36,5.56,10.56,9.04-9.15,15.94-18.88,13.34-31.15Z"/>
      </g>
      <g>
        <path class="cls-13" d="M99,254.73c-3.93,17.42-12.09,11.6-14.39,32.73.9,2.62,2.15,3.78,4.51,4.27l-.85,2.04c-.29.69.06,1.47.77,1.72,8.34,2.94,16.5,3.93,24.3.85.85,1.15,2.77,1.11,4.54.52,1.71-.56,4.29,2.73,11.1-1.34,3.67,3.14,10.13,2.87,20.1-1.7,1.34-2.41-10.6-14.99-19.68-34.99,4.28-12.47-34.61-19.11-30.41-4.09Z"/>
        <g class="cls-20">
          <path class="cls-33" d="M135.49,285.87c-8.15-8.25-13.68-17.95-15.44-29.74,4.94,18.19,17.33,21.55,15.44,29.74Z"/>
          <path class="cls-33" d="M129.58,282.23c-13.43-7.47-25.51-17.94-23.55-24.58,4.52,8,11.91,16.68,23.55,24.58Z"/>
          <path class="cls-34" d="M97.39,262.83c4.04,9.33,8.91,20.37,13.05,18.42-5.3-5.8-9.82-11.88-13.05-18.42Z"/>
          <path class="cls-33" d="M98.88,248.14c-.32,4.61,1.09,9.56,4.17,15.31-2.23-1.58-4.33-4.43-6.38-7.83l2.2-7.47Z"/>
          <path class="cls-33" d="M130.36,296.81c-4.28-2.97-8.25-7.71-11.96-13.56-.44,5.45,1.06,10.18,2.82,16.09l9.14-2.53Z"/>
          <path class="cls-33" d="M113.56,297.83c-.8-3.49-.08-9.09.89-16.59-2.88,7.75-5.47,13.86-6.26,18.41l5.37-1.81Z"/>
          <path class="cls-33" d="M88.75,293.19c2.3-4.64,5.3-10.12,8.78-14.04-5.43,3.45-8.6,8.43-12.04,12.06l3.26,1.98Z"/>
          <path class="cls-33" d="M94.1,257.45c14.37-4.91,28.56-2.18,42.65,5.28l3.59-7.07c-16.8-10.25-33-13.73-48.04-4.38l1.8,6.17Z"/>
          <path class="cls-33" d="M95.45,256.51c13.99-5.9,28.34-4.16,42.92,2.31l3.09-7.3c-17.47-9.06-33.87-11.41-48.23-1.04l2.22,6.03Z"/>
        </g>
        <path class="cls-6" d="M99,254.73c-3.93,17.42-12.09,11.6-14.39,32.73.9,2.62,2.15,3.78,4.51,4.27l-.85,2.04c-.29.69.06,1.47.77,1.72,8.34,2.94,16.5,3.93,24.3.85.85,1.15,2.77,1.11,4.54.52,1.71-.56,4.29,2.73,11.1-1.34,3.67,3.14,10.13,2.87,20.1-1.7,1.34-2.41-10.6-14.99-19.68-34.99,4.28-12.47-34.61-19.11-30.41-4.09Z"/>
      </g>
      <g>
        <path class="cls-13" d="M89.42,203.65c.64,11.79-4.26,21.47-1.83,29.9,2.03,7.53,7.63,12.65,11.41,21.18-.72-6.6,26.44-5.12,30.41,4.09,4.34-5.39,14.31-2.71,11.35-14.53-.88-3.49,12.78-13.4,12.42-18.37-.2-4.48-3.33-11.67-7.07-19.42-13.92-9.65-32.27-10.87-56.68-2.84Z"/>
        <g class="cls-26">
          <path class="cls-33" d="M99.55,250.98c9.41-10.91,15.46-23.41,16.66-38.16-4.6,22.97-19.69,28.17-16.66,38.16Z"/>
          <path class="cls-33" d="M109.33,241.67c16.61-9.26,30.66-22.09,27.86-30.42-5.22,10.52-13.62,21.43-27.86,30.42Z"/>
          <path class="cls-34" d="M127.66,229.99c7.63-3.62,12.98-9.24,15.04-17.74-3.46,7.01-8.66,12.78-15.04,17.74Z"/>
          <path class="cls-33" d="M106.11,251.96c27.44-10.11,38.98-21.4,37.43-30.83-7.69,14.4-21.14,23.83-37.43,30.83Z"/>
          <path class="cls-34" d="M117.9,254.73c8.11-2.75,16.32-5.49,17.96-9.24,2.1-2.35,4.79-6.83,7.52-11.45-2.39,5.19-5.3,10.98-5.1,13.13-4.35,2.97-12.39,5.26-20.38,7.56Z"/>
          <path class="cls-33" d="M94.55,216.64c5.29,8.35,6.53,17.64,4.26,27.73-.28-9.76-1.5-19.1-4.26-27.73Z"/>
          <path class="cls-33" d="M83.66,223.26c10.57,10.29,12.45,24.03,17.21,37.15l-18.22-27.39,1.01-9.77Z"/>
          <path class="cls-33" d="M80.51,208.84c.63,1.92,2.11,3.45,4.01,4.15,4.36,1.6,10.23,2.35,15.64,5.66,1.74-.7,2.68-2.05,3.25-3.27,3.43,1.75,7.17,3.17,11.36,4.14,1.89-.19,3.62-1.41,5.2-3.53.2-.27.58-.27.81-.04.36.36.82.58,1.4.65,1.95-.82,2.66-2.43,4.64-2.24,3.92,1.74,7.54,1.84,10.42,3.33,6.7,3.48,12.89-.65,15.79-6.86l4.85-11.73-81.49-2.24,4.14,12Z"/>
          <path class="cls-33" d="M80.74,203.45c.63,1.92,2.11,3.45,4.01,4.15,4.36,1.6,10.23,2.35,15.64,5.66,1.74-.7,2.68-2.05,3.25-3.27,3.43,1.75,7.17,3.17,11.36,4.14,1.89-.19,3.62-1.41,5.2-3.53.2-.27.58-.27.81-.04.36.36.82.58,1.4.65,1.95-.82,2.66-2.43,4.64-2.24,3.92,1.74,7.54,1.84,10.42,3.33,6.7,3.48,12.89-.65,15.79-6.86l4.85-11.73-81.49-2.24,4.14,12Z"/>
          <path class="cls-38" d="M149.59,213.79c1.91,11.99-2.78,18.49-8.43,28.69,7.08-5.48,13.78-10.98,15.8-16.86l-7.37-11.82Z"/>
          <path class="cls-38" d="M88.55,208.85c-.46,18.54,3.28,31.71,7.23,42.03l-13.13-17.86,5.9-24.17Z"/>
        </g>
        <path class="cls-6" d="M89.42,203.65c.64,11.79-4.26,21.47-1.83,29.9,2.03,7.53,7.63,12.65,11.41,21.18-.72-6.6,26.44-5.12,30.41,4.09,4.34-5.39,14.31-2.71,11.35-14.53-.88-3.49,12.78-13.4,12.42-18.37-.2-4.48-3.33-11.67-7.07-19.42-13.92-9.65-32.27-10.87-56.68-2.84Z"/>
      </g>
      <g>
        <path class="cls-11" d="M94.51,139.5c-23.88-2.75-46.6-26.84-46.6-46.38,0-22.83,19.62-39.98,45.41-39.98s53.06,15.94,46.69,50.16c-1.56,8.42-.76,17.63-5.81,21.85l-17.88,15.26c-7.05,3.18-12.7,3.19-16.95,0l-4.87-.91Z"/>
        <g class="cls-23">
          <path class="cls-31" d="M58.28,108.81c-6.71-11.81-6.14-18.26.72-25.95.72-.81,1.51-1.55,2.37-2.22,11.83-9.27,22.54-16.53,32.4-18.1,8.03-.13,15.82.69,23.32,2.69,7.08,3.13,13.96,7.67,20.67,13.46.71,4.22,1.26,9.45,1.74,15.2v-26.07l-22.86-12.82-26.85-1.87-28.41,11.18-13.47,21.83c-2.11,9.04,5.01,15.62,10.35,22.67Z"/>
          <path class="cls-31" d="M105.06,69.94c8.33,3.96,12.96,3.13,15.07-.94-6.23-3.59-11.12-2.85-15.07.94Z"/>
          <path class="cls-31" d="M66.51,81.19c9.21.45,13.17-2.1,13.55-6.68-7.13-.92-11.36,1.65-13.55,6.68Z"/>
          <g>
            <path class="cls-42" d="M92.82,119.5c9.53,22.68,24.16,18.12,20.8-6.88-3.39,12.67-13.06,13.98-20.8,6.88Z"/>
            <g class="cls-22">
              <ellipse class="cls-37" cx="106.25" cy="132.31" rx="4.88" ry="11.39" transform="translate(-50.69 196.83) rotate(-73.58)"/>
            </g>
          </g>
          <path class="cls-41" d="M107.77,65.2c-1.71,1.14-2.44,2.83-2.74,4.75,7.42-1.22,12.49-1.55,19.7,1.37.3.12.54-.26.31-.48-3.37-3.25-7.15-4.37-13.84-6.39-1.15-.35-2.42.09-3.43.76Z"/>
          <path class="cls-41" d="M77.27,70.21c2.04.29,3.07,2.99,2.72,4.49-7.19,2.2-10.48,3.72-15.64,9.53-.21.24-.6,0-.49-.29,1.58-4.41,2.45-6.97,7.75-11.53.95-.82,4.61-2.35,5.67-2.2Z"/>
          <ellipse class="cls-35" cx="118.97" cy="88.96" rx="12.72" ry="16.3" transform="translate(-22.56 134.08) rotate(-54.47)"/>
          <ellipse class="cls-35" cx="74.49" cy="101.79" rx="16.3" ry="12.72" transform="translate(-49.87 122.87) rotate(-63.42)"/>
          <g>
            <ellipse class="cls-12" cx="119.55" cy="86.87" rx="12.03" ry="15.59" transform="translate(-20.62 133.68) rotate(-54.47)"/>
            <g class="cls-25">
              <ellipse class="cls-28" cx="127.8" cy="81.22" rx="4.65" ry="5.49" transform="translate(20.23 187.79) rotate(-77.17)"/>
              <path class="cls-31" d="M115.21,95.8c6.84,4.76,12.59,4.28,16.54-5.01-4.76,7.21-10.35,8.31-16.54,5.01Z"/>
            </g>
            <ellipse class="cls-1" cx="119.55" cy="86.87" rx="12.03" ry="15.59" transform="translate(-20.62 133.68) rotate(-54.47)"/>
          </g>
          <g>
            <ellipse class="cls-12" cx="75.36" cy="100.08" rx="15.59" ry="12.03" transform="translate(-47.99 122.01) rotate(-63.1)"/>
            <g class="cls-24">
              <ellipse class="cls-28" cx="66.31" cy="96.53" rx="5.19" ry="6.03" transform="translate(-37.47 150.79) rotate(-83.12)"/>
              <path class="cls-31" d="M83.58,106.23c-3.85,7.39-9.18,9.63-16.98,3.21,7.56,4.19,13.02,2.57,16.98-3.21Z"/>
            </g>
            <ellipse class="cls-1" cx="75.36" cy="100.08" rx="15.59" ry="12.03" transform="translate(-47.99 122.01) rotate(-63.1)"/>
          </g>
          <g>
            <ellipse class="cls-31" cx="106.25" cy="108.07" rx="2.1" ry="1.85"/>
            <ellipse class="cls-27" cx="106.09" cy="107.25" rx="2.1" ry="1.85"/>
          </g>
          <g>
            <ellipse class="cls-31" cx="98.09" cy="109.92" rx="2.18" ry="2.39"/>
            <ellipse class="cls-27" cx="98.09" cy="109.19" rx="2.18" ry="2.39"/>
          </g>
          <path class="cls-33" d="M62.58,117.04c15.02,13.47,36.42,14.59,46.94,25.76l-11.61,3.12c-19.69-1.08-34.45-9.16-35.33-28.88Z"/>
        </g>
        <path class="cls-9" d="M94.51,139.5c-23.88-2.75-46.6-26.84-46.6-46.38,0-22.83,19.62-39.98,45.41-39.98s53.06,15.94,46.69,50.16c-1.56,8.42-.76,17.63-5.81,21.85l-17.88,15.26c-7.05,3.18-12.7,3.19-16.95,0l-4.87-.91Z"/>
      </g>
      <g>
        <path class="cls-13" d="M99.6,142.01c-2.32,2.04-4.94,2.08-7.86,5.15-1.79.61-3.51.88-5.5.82-1.52-.04-2.99.62-3.98,1.78-3.58,4.2-6.16,8.68-7.48,13.48-.48,1.76-.39,3.63.27,5.33,4.06,10.41,1.42,19.48,5.55,32,.63,1.92,2.11,3.45,4.01,4.15,4.36,1.6,10.23,2.35,15.64,5.66,1.74-.7,2.68-2.05,3.25-3.27,3.43,1.75,7.17,3.17,11.36,4.14,1.89-.19,3.62-1.41,5.2-3.53.2-.27.58-.27.81-.04.36.36.82.58,1.4.65,1.95-.82,2.66-2.43,4.64-2.24,3.92,1.74,7.54,1.84,10.42,3.33,10.73,5.57,20.12-8.36,16.86-19.07-3.04-11.69-10.13-25.77-12.28-41.53-.63-2.13-4.6-4.19-8.27-6.97-1.99-1.51-4.45-2.28-6.94-2.12-3.14.2-5.76.88-7.88,2.04-.46.25-1.02.19-1.4-.16-.4-.37-.76-.77-1.1-1.2-5,2.66-10.6,3.12-16.72,1.6Z"/>
        <g class="cls-15">
          <path class="cls-33" d="M120.48,143.9c2.91.91,6.5,1.13,8.78,2.44l10.53,23-12.31-20.92c-1.32-1.66-4.82-2.7-7-4.53Z"/>
          <path class="cls-33" d="M75.05,158.21c1.03,6.32,11.99,30.86,16.69,34.53-3.95-1.68-16.21-20.8-18.29-28.72l1.6-5.82Z"/>
          <path class="cls-33" d="M109.8,147.55c1.65-.04,3.29.06,4.86,1.66,4.3,9.61,8.02,22.26,12.54,35.54-6.2-12.23-11.82-24.13-13.81-33.9-.14-1.95-1.85-2.65-3.6-3.31Z"/>
          <path class="cls-34" d="M119.8,164.33c6.96,12.62,13.86,23.63,20.55,28.41-5.49-6.45-12.92-17.2-20.55-28.41Z"/>
          <path class="cls-34" d="M136.64,169.83c5.29,8.28,7.45,15.9,7.75,23.12-1.77-7.52-4.41-15.24-7.75-23.12Z"/>
          <path class="cls-33" d="M120.87,207.68c-9.41,2.67-11.28-5.88-15.29-19.2-.15,6.91-.31,13.7-.71,16.48.2,1.07-1.07,2.86-2.47,4.71l10.61,4.27,7.85-6.26Z"/>
          <path class="cls-33" d="M105.59,185.81c2.55-.56,2.83-8.21-.07-19.61l.07,19.61Z"/>
          <path class="cls-33" d="M99.3,197.85c-.05-18.42-.52-39.82,1.67-41.93-.23,16.65-.68,31.53-1.67,41.93Z"/>
          <path class="cls-33" d="M105.21,145.67c-2.14,2.69-4.45,4.88-6.73,6.29-3.77,11.78-5.31,20.75-4.05,26.19,1.29-8.15,4.2-16.71,5.55-25.52,2.2-1.36,3.8-3.98,5.24-6.96Z"/>
          <path class="cls-33" d="M87.63,146.52c5.67-5.14,11.81-6.59,18.41-4.33-8.99,5.17-14.91,6.34-18.41,4.33Z"/>
          <path class="cls-33" d="M111.2,140.98c2.5,2.23,5.31,2.61,8.57.2l-1.83-3.65-6.73,3.44Z"/>
          <path class="cls-33" d="M77.33,178.16c6.89,25.01,23.47,26.32,28.13,33.09l-13.02,1.8-15.56-7.48.45-27.4Z"/>
          <path class="cls-33" d="M131.55,208.23c20.29,1.33,20.12-13.42,18.26-35.93,5.48,10,8.04,20.92,9.28,32.26l-10.18,10.03-17.36-6.36Z"/>
          <path class="cls-32" d="M68.92,171.66c13.35-21.91,53.34-30.73,78.7-19.93l-12.42-17.66-55.08,10.21-11.2,27.38Z"/>
          <path class="cls-38" d="M116.89,191.19c1.39-10.9-3.48-25.17-4.24-36.47,5.15,14.87,9.57,28.69,17.81,43.63-8.98-10.7-9.14-13.91-13.57-7.16Z"/>
          <path class="cls-38" d="M95.41,156.02c-5.94,11.83-10.57,23.1-2.29,28.79-2.09-7.68-.22-18.02,2.29-28.79Z"/>
          <path class="cls-33" d="M126.46,207.88c-2.38-2.54-3.32-7.72-4.12-13.17,2.78,5.86,6.02,11.15,10.48,14.89l-6.36-1.72Z"/>
        </g>
        <path class="cls-6" d="M99.6,142.01c-2.32,2.04-4.94,2.08-7.86,5.15-1.79.61-3.51.88-5.5.82-1.52-.04-2.99.62-3.98,1.78-3.58,4.2-6.16,8.68-7.48,13.48-.48,1.76-.39,3.63.27,5.33,4.06,10.41,1.42,19.48,5.55,32,.63,1.92,2.11,3.45,4.01,4.15,4.36,1.6,10.23,2.35,15.64,5.66,1.74-.7,2.68-2.05,3.25-3.27,3.43,1.75,7.17,3.17,11.36,4.14,1.89-.19,3.62-1.41,5.2-3.53.2-.27.58-.27.81-.04.36.36.82.58,1.4.65,1.95-.82,2.66-2.43,4.64-2.24,3.92,1.74,7.54,1.84,10.42,3.33,10.73,5.57,20.12-8.36,16.86-19.07-3.04-11.69-10.13-25.77-12.28-41.53-.63-2.13-4.6-4.19-8.27-6.97-1.99-1.51-4.45-2.28-6.94-2.12-3.14.2-5.76.88-7.88,2.04-.46.25-1.02.19-1.4-.16-.4-.37-.76-.77-1.1-1.2-5,2.66-10.6,3.12-16.72,1.6Z"/>
      </g>
      <g>
        <path class="cls-13" d="M62.67,49.5c-5.33-1.28-7.31,1.09-9.43-.9-1.2-2.2,4.63-2.39.67-6.06-8.64-.12-11.54,2.01-14.59.9-2.62-.9-2.65-4.29-1.67-10-1.64-.4-3.74-11.42-2.27-10.91,3.35,1.18,8.83.28,9.99-6.03,2.27-1.03,6.99,2.13,10.64,1.24,10.33-4.74,16.27-14.26,19.59-13.21,4.32,1,7.5,7.63,10.21,8.31,3.48.84,3.82-3.53,7.7-3.37,5.3.46,13.12,3.12,16.87,9.93.49.89.37,1.99-.3,2.74-.37.41-.79.81-1.14,1.14,11.29,4.42,13.53,8.28,4.15,11.41,1.79,2.48,2.3,4.74,1.98,6.31-.09.46-.49.79-.96.81-2.64.14-3.57.51-5.07,1.51l-46.4,6.17Z"/>
        <g class="cls-14">
          <path class="cls-33" d="M79.51,40.97c-6.12.03-11.83.77-16.84,2.69-4.35-1.78-8.01-2.09-10.78-.45-3.07,9.82,5.32,9.33,13.29,5.95l14.32-8.2Z"/>
          <path class="cls-33" d="M32.98,29.58c7.65-1.73,24.28,4.55,26.25,8.2-5.59-2.61-20.7-7.3-25.8-3.32l-.45-4.88Z"/>
          <path class="cls-33" d="M51.76,16.64c7.47,4.22,12.59,8.67,17.54,14.87-3.35-6.92-7.85-13.54-12.12-19.16l-5.41,4.29Z"/>
          <path class="cls-33" d="M76.8,2.21c6.28,8.43,7.44,18.65,5.91,31.09,2.38-9.52,5.16-16.64,5.07-23.84l-10.98-7.25Z"/>
          <path class="cls-37" d="M101.92,37.34c.33-5.85,4.21-12.42,10.59-17.7l6.46,4.08c-8,1.24-13.13,6.27-17.05,13.62Z"/>
          <path class="cls-37" d="M100.87,41.16c3.9-4.26,8.54-6.34,14.72-6.92l1.74,9.84c-3.75-1.4-9.94-2.2-16.46-2.92Z"/>
          <path class="cls-38" d="M118.76,37.49c-.84-2.1-4.21-4.38-9.81-6.81.35-.36.78-.8,1.14-1.26.67-.84.79-2.06.3-3.04-3.75-7.56-11.57-10.51-16.87-11.02-3.88-.18-4.22,4.67-7.7,3.74-2.71-.75-5.89-8.11-10.21-9.22-3.33-1.16-9.27,9.41-19.59,14.67-3.65.99-8.37-2.52-10.64-1.38-1.17,7.01-6.65,8.01-9.99,6.7-.82-.32-3.6,2.64-2.89,6.03l-1.45-14.46,13.84-9.72L74.11,0l39.59,15.26,10.4,15.81-5.34,6.42Z"/>
        </g>
        <path class="cls-6" d="M62.67,49.5c-5.33-1.28-7.31,1.09-9.43-.9-1.2-2.2,4.63-2.39.67-6.06-8.64-.12-11.54,2.01-14.59.9-2.62-.9-2.65-4.29-1.67-10-1.64-.4-3.74-11.42-2.27-10.91,3.35,1.18,8.83.28,9.99-6.03,2.27-1.03,6.99,2.13,10.64,1.24,10.33-4.74,16.27-14.26,19.59-13.21,4.32,1,7.5,7.63,10.21,8.31,3.48.84,3.82-3.53,7.7-3.37,5.3.46,13.12,3.12,16.87,9.93.49.89.37,1.99-.3,2.74-.37.41-.79.81-1.14,1.14,11.29,4.42,13.53,8.28,4.15,11.41,1.79,2.48,2.3,4.74,1.98,6.31-.09.46-.49.79-.96.81-2.64.14-3.57.51-5.07,1.51l-46.4,6.17Z"/>
      </g>
      <g>
        <path class="cls-13" d="M59.1,75.6c-.83.67-1.59,1.42-2.28,2.22-6.6,7.7-7.15,14.15-.69,25.97,6.46,9.37,11.11,14.44,12.72,22.71,3.4,4.95,21.55,6.81,30.53,13.91-3.84,1.16-8.92.9-14.55,0-11.04-2.63-25.42-7.82-34.68-14.95-1.92-2.77-8.28-14.69-11.31-24.25-1.97-6.23-2.25-13.63-.43-21.29.77-3.24,2.5-6.15,4.87-8.48,5.65-5.54,10.05-17.28,22.29-27.21,14.85-9.54,34.64-7.65,60.86,4.24,10.47,7.67,12.18,15.33,17.26,23.37.83,1.32,1.37,2.81,1.57,4.36,1.29,10.21,1.51,17.29,4.65,24.11-2.1,16.66-16.05,29.03-33.56,40.1-.49-8.54,15-8.69,18.53-31.22.47-3.02.54-6.09.26-9.13-.64-10.08-1.36-19.57-2.46-26.41-6.46-5.8-13.09-10.34-19.91-13.47-7.22-2.01-14.72-2.82-22.45-2.69-9.5,1.56-19.81,8.83-31.2,18.11Z"/>
        <g class="cls-17">
          <path class="cls-33" d="M65.7,126.5c-5.53-.79-10.54-8.75-14.97-24.81,5.57,10.8,10.65,19.46,14.97,24.81Z"/>
          <path class="cls-33" d="M46.6,121.2c-3.11-3.9-5.6-10.83-7.36-21.29-1.11-14.44,6.03-23.8,13.06-33.23-6.4,10.99-11.8,21.98-10.27,32.94.91,8.82,2.69,15.85,4.57,21.58Z"/>
          <path class="cls-33" d="M152.06,100.05c-3.88-13.35-8.83-26.22-13.72-31.43-7.5-7.06-18.55-13.21-30.53-19.12,11.78,4.22,23.01,8.7,29.63,15.38,4.34,3.51,9.64,10.38,14.97,17.36l-.35,17.81Z"/>
          <path class="cls-33" d="M142.33,110.53c1.34-3.69,2.11-7.24,1.6-10.48-1.88-3.5-1.8-12.99-2.02-21.55,1.78,9.2,3.56,18.48,5.69,21.63-1.1,5.05-3.02,8.12-5.26,10.4Z"/>
          <path class="cls-33" d="M117.29,129.85c5.33-.21,16.53-7.3,22.87-16.18-1.85,5.86-9.25,12.61-13.54,15.09,5.63-1.35,11.54-5.61,17.56-11.12l-27.34,26.49-3.49-8.19,3.93-6.09Z"/>
          <path class="cls-33" d="M97.58,136.83c-3.98,1.57-13.35-1.4-22.34-4.07,5.24,2.27,11.22,5.23,14.03,5.19-4.1,1.37-9.77.54-15.84-.85l16.4,6.24,12.84-1.89-5.09-4.62Z"/>
          <path class="cls-33" d="M132.65,73.66c5.69,17.1,6.72,30.68.06,38.44l-.06-38.44Z"/>
          <path class="cls-38" d="M151.61,84.63c-5,24.28-22.15,40-40.16,55.11l3.22,4.88,38.88-27.22-1.95-32.78Z"/>
          <path class="cls-38" d="M40.13,109c16.87,18.75,39.69,23.85,62.94,27.99l-.23,5.91-47.38-4.18c-8.57-7.91-12.78-18.33-15.33-29.72Z"/>
          <path class="cls-38" d="M44.9,63.16c32.79-24.83,58.39-24.51,83.95-12.78-6.82-7.94-15.69-15.32-40.18-18.43l-31.43,6.19-12.35,25.01Z"/>
        </g>
        <path class="cls-6" d="M59.1,75.6c-.83.67-1.59,1.42-2.28,2.22-6.6,7.7-7.15,14.15-.69,25.97,6.46,9.37,11.11,14.44,12.72,22.71,3.4,4.95,21.55,6.81,30.53,13.91-3.84,1.16-8.92.9-14.55,0-11.04-2.63-25.42-7.82-34.68-14.95-1.92-2.77-8.28-14.69-11.31-24.25-1.97-6.23-2.25-13.63-.43-21.29.77-3.24,2.5-6.15,4.87-8.48,5.65-5.54,10.05-17.28,22.29-27.21,14.85-9.54,34.64-7.65,60.86,4.24,10.47,7.67,12.18,15.33,17.26,23.37.83,1.32,1.37,2.81,1.57,4.36,1.29,10.21,1.51,17.29,4.65,24.11-2.1,16.66-16.05,29.03-33.56,40.1-.49-8.54,15-8.69,18.53-31.22.47-3.02.54-6.09.26-9.13-.64-10.08-1.36-19.57-2.46-26.41-6.46-5.8-13.09-10.34-19.91-13.47-7.22-2.01-14.72-2.82-22.45-2.69-9.5,1.56-19.81,8.83-31.2,18.11Z"/>
      </g>
      <g>
        <path class="cls-13" d="M99.38,140.41c-1.06,5.31,14.52,5.92,16.95,0-3.53-2.74-6.62,4.22-16.95,0Z"/>
        <g class="cls-16">
          <rect class="cls-36" x="97.65" y="137.09" width="21.33" height="10.18"/>
        </g>
        <path class="cls-6" d="M99.38,140.41c-1.06,5.31,14.52,5.92,16.95,0-3.53-2.74-6.62,4.22-16.95,0Z"/>
      </g>
    </g>
    <g>
      <g>
        <path class="cls-7" d="M71.4,290.4s-.08.01-.11.04c-.02.02-.06.03-.11.03-.14.02-.23-.05-.27-.22-.03-.17-.05-.33-.05-.5-.24-3.84-.46-7.67-.66-11.48-.2-3.81-.34-7.63-.41-11.48v-1.66c0-.2.01-.34.03-.41,0-.17.05-.3.14-.39.1-.1.2-.15.32-.16.12-.01.24-.03.36-.05,2.75-.31,5.49-.59,8.24-.82,2.75-.24,5.49-.47,8.24-.68.26-.02.53-.04.79-.04s.5.07.72.22c.12.07.2.19.25.34s.07.3.07.45v5.62c0,1.36.02,2.71.07,4.05.05,1.34.11,2.69.18,4.05,0,.26-.05.58-.14.95-.1.37-.26.62-.5.73-.1.05-.24.08-.45.09s-.42.02-.66.02h-1.11c-.19.02-.52.04-.99.05-.47.01-1.01.04-1.63.07-.62.04-1.28.07-1.97.09-.69.02-1.35.05-1.97.09-.62.04-1.16.07-1.63.09-.47.02-.79.03-.98.03.05.98.08,1.95.11,2.9.02.96.05,1.92.07,2.9v.9c0,.43,0,.88.02,1.34s.03.91.05,1.33.06.71.11.88c.09.31-.02.49-.34.54-.32.05-.64.07-.95.07h-.91c-.47,0-.96,0-1.49.02-.53.01-1.03.02-1.51.02h-.93ZM77.1,268.77c.02.79.04,1.58.05,2.36.01.79.04,1.58.09,2.36.19-.02.56-.05,1.11-.09.55-.04,1.14-.08,1.77-.13.63-.05,1.22-.09,1.77-.13.55-.03.92-.05,1.11-.05,0-.14-.01-.45-.04-.91s-.05-.96-.07-1.49c-.02-.52-.05-1.02-.07-1.49-.02-.47-.03-.77-.03-.91-.19,0-.56.02-1.09.05-.54.04-1.12.08-1.74.14-.62.06-1.21.12-1.76.18s-.92.09-1.11.09Z"/>
        <path class="cls-7" d="M109.51,290.47c-.12.02-.33.04-.63.04s-.62,0-.97-.02c-.35-.01-.67-.02-.97-.04-.3-.01-.51-.02-.63-.02-.48-.05-.96-.08-1.45-.09-.49-.01-.97-.04-1.45-.09-.62-.05-1.25-.14-1.88-.27-.63-.13-1.26-.22-1.88-.27-1.05-.07-2.09-.14-3.13-.22s-2.06-.24-3.06-.5c-.29-.07-.57-.16-.86-.25-.29-.09-.53-.26-.72-.5-.07-.07-.13-.19-.16-.36-.04-.17-.07-.34-.11-.54-.03-.19-.06-.38-.09-.55-.02-.18-.03-.32-.03-.41-.12-1.43-.19-2.86-.22-4.28-.02-1.42-.04-2.85-.04-4.28v-3.58c-.05-1.1-.09-2.19-.12-3.26-.04-1.08-.03-2.16.02-3.26,0-.31.02-.65.05-1,.03-.36.18-.63.45-.82.19-.14.52-.28.98-.41s.96-.25,1.49-.36c.52-.11,1.03-.19,1.52-.25.49-.06.85-.11,1.09-.16,1.38-.24,2.78-.38,4.17-.41,1.4-.04,2.79-.15,4.17-.34.1-.02.29-.05.59-.09.3-.04.61-.08.93-.13.32-.05.63-.09.93-.14.3-.05.5-.07.59-.07.12,0,.27,0,.47-.02.19-.01.38-.01.57,0,.19.01.36.04.52.09.15.05.27.12.34.22.1.12.17.33.22.63.05.3.08.61.11.95.02.34.04.66.05.97.01.31.02.54.02.68,0,.24,0,.63.02,1.16.01.54.03,1.16.05,1.88.02.72.04,1.47.05,2.26.01.79.02,1.54.04,2.26.01.72.02,1.35.03,1.9.01.55.02.93.02,1.15,0,.19-.01.54-.03,1.04-.02.5-.05,1.08-.07,1.72-.02.65-.05,1.33-.07,2.06-.02.73-.05,1.41-.07,2.06-.02.65-.05,1.22-.07,1.72-.02.5-.03.85-.03,1.04,0,.26,0,.56.02.9.01.34,0,.66-.02.99-.02.32-.1.6-.22.84-.12.24-.3.39-.54.47ZM98.12,283.45c.19.05.56.11,1.11.2s1.13.16,1.74.23,1.19.14,1.74.2.93.1,1.15.13c-.05-.26-.08-.51-.09-.73-.01-.23-.04-.46-.09-.7-.02-.22-.05-.57-.09-1.07-.03-.5-.07-1.07-.09-1.7-.02-.63-.05-1.31-.07-2.02-.02-.72-.04-1.4-.05-2.04-.01-.65-.02-1.22-.03-1.72-.01-.5-.02-.86-.02-1.08-.02-.52-.03-1.04-.02-1.56s.02-1.04.02-1.59c0-.05-.02-.05-.05-.02-.04.04-.08.05-.13.05-.17.02-.5.08-1,.16-.5.08-1.04.17-1.61.27-.57.09-1.11.19-1.61.27-.5.08-.84.14-1,.16,0,1.43,0,2.85-.02,4.26s0,2.83.05,4.26c.02.69.04,1.37.05,2.02.01.66.05,1.33.12,2.02Z"/>
        <path class="cls-7" d="M129.32,290.83c-.12.07-.25.1-.39.09s-.27-.03-.39-.05c-2.32-.48-4.65-.81-6.99-1-2.34-.19-4.69-.44-7.06-.75-.19-.02-.36-.11-.5-.25s-.24-.31-.29-.5c-.02-.1-.05-.29-.07-.57s-.04-.58-.05-.9c-.01-.31-.02-.61-.04-.9s-.02-.48-.02-.57c-.12-2.08-.19-4.14-.22-6.2-.02-2.05-.05-4.13-.07-6.23-.05-1.81-.05-3.64,0-5.48v-.45c0-.2,0-.41.02-.63.01-.21.04-.42.07-.63.04-.2.08-.34.13-.41.09-.14.22-.24.38-.29.16-.05.32-.1.48-.14,1.1-.26,2.21-.47,3.33-.61s2.25-.26,3.39-.34c1.13-.08,2.27-.17,3.42-.25,1.15-.08,2.28-.2,3.4-.34.14-.02.31-.05.48-.09.18-.04.35-.06.52-.07.17-.01.3,0,.41.05.11.05.18.14.23.29.43,1.65.72,3.32.86,5.01.02.14.03.38.02.72-.01.33-.05.56-.13.68-.1.14-.23.24-.41.29-.18.05-.35.09-.52.14-.24.05-.71.11-1.41.18s-1.45.14-2.24.2-1.54.11-2.24.16c-.7.05-1.18.08-1.41.11-.07,0-.18.01-.32.04s-.3.04-.47.05c-.17.01-.32.03-.45.07-.13.03-.23.08-.3.12-.14.1-.23.24-.27.45-.03.2-.07.4-.09.59,0,.17.01.51.03,1.04.02.53.05,1.08.09,1.67.03.59.07,1.14.11,1.66.04.53.05.87.05,1.04v2.04c0,.43,0,.84.02,1.22.01.38.04.65.09.79.05.17.21.3.48.39.27.1.48.17.63.22.74.22,1.49.38,2.24.48.75.11,1.52.2,2.29.27.78.07,1.55.14,2.31.21s1.53.18,2.29.32c.22.05.33.17.36.38.02.2,0,.41-.07.63-.07.17-.17.51-.31,1.04-.13.53-.26,1.08-.38,1.67-.12.59-.24,1.15-.36,1.68-.12.54-.2.89-.25,1.06-.1.31-.24.51-.43.61Z"/>
        <path class="cls-7" d="M140.17,290.54c-.88.07-1.77.08-2.65.04-.88-.05-1.77-.07-2.65-.07-.12,0-.23-.01-.34-.04-.11-.02-.21-.08-.3-.18-.14-.14-.22-.35-.22-.61-.26-2.84-.49-5.68-.7-8.51-.2-2.83-.38-5.68-.52-8.54-.05-1.43-.1-2.87-.14-4.3-.05-1.43-.07-2.87-.07-4.3,0-.22.13-.33.39-.36.26-.02.5-.05.72-.07.31-.02.81-.08,1.5-.16s1.43-.16,2.2-.22c.78-.06,1.52-.1,2.22-.13.7-.02,1.2,0,1.49.07.24.07.36.26.36.57-.22,4.35-.4,8.67-.55,12.97-.16,4.3-.22,8.62-.2,12.97.02.19-.01.38-.11.55-.1.18-.24.28-.43.3Z"/>
      </g>
      <g>
        <path class="cls-2" d="M71.55,287.12s-.08.01-.11.04c-.02.02-.06.03-.11.03-.14.02-.23-.05-.27-.22-.03-.17-.05-.33-.05-.5-.24-3.84-.46-7.67-.66-11.48-.2-3.81-.34-7.63-.41-11.48v-1.66c0-.2.01-.34.03-.41,0-.17.05-.3.14-.39.1-.1.2-.15.32-.16.12-.01.24-.03.36-.05,2.75-.31,5.49-.59,8.24-.82,2.75-.24,5.49-.47,8.24-.68.26-.02.53-.04.79-.04s.5.07.72.22c.12.07.2.19.25.34s.07.3.07.45v5.62c0,1.36.02,2.71.07,4.05.05,1.34.11,2.69.18,4.05,0,.26-.05.58-.14.95-.09.37-.26.62-.5.73-.1.05-.24.08-.45.09-.2.01-.42.02-.66.02h-1.11c-.19.02-.52.04-.99.05-.47.01-1.01.04-1.63.07-.62.04-1.28.07-1.97.09-.69.02-1.35.05-1.97.09-.62.04-1.16.07-1.63.09-.47.02-.79.03-.98.03.05.98.08,1.95.11,2.9.02.96.05,1.92.07,2.9v.9c0,.43,0,.88.02,1.34s.03.91.05,1.33.06.71.11.88c.09.31-.02.49-.34.54-.32.05-.64.07-.95.07h-.91c-.47,0-.96,0-1.49.02-.53.01-1.03.02-1.51.02h-.93ZM77.24,265.49c.02.79.04,1.58.05,2.36s.04,1.58.09,2.36c.19-.02.56-.05,1.11-.09.55-.04,1.14-.08,1.77-.13.63-.05,1.22-.09,1.77-.13.55-.03.92-.05,1.11-.05,0-.14-.01-.45-.04-.91s-.05-.96-.07-1.49c-.02-.52-.05-1.02-.07-1.49s-.03-.77-.03-.91c-.19,0-.56.02-1.09.05-.54.04-1.12.08-1.74.14-.62.06-1.2.12-1.75.18-.55.06-.92.09-1.11.09Z"/>
        <path class="cls-2" d="M109.8,287.19c-.12.02-.33.04-.63.04s-.62,0-.97-.02c-.35-.01-.67-.02-.97-.04-.3-.01-.51-.02-.63-.02-.48-.05-.96-.08-1.45-.09-.49-.01-.97-.04-1.45-.09-.62-.05-1.25-.14-1.88-.27-.63-.13-1.26-.22-1.88-.27-1.05-.07-2.09-.14-3.13-.22-1.04-.07-2.06-.24-3.06-.5-.29-.07-.57-.16-.86-.25-.29-.09-.53-.26-.72-.5-.07-.07-.13-.19-.16-.36-.04-.17-.07-.34-.11-.54-.03-.19-.06-.38-.09-.55-.02-.18-.03-.32-.03-.41-.12-1.43-.19-2.86-.22-4.28-.02-1.42-.04-2.85-.04-4.28v-3.58c-.05-1.1-.09-2.19-.12-3.26-.04-1.08-.03-2.16.02-3.26,0-.31.02-.65.05-1,.03-.36.18-.63.45-.82.19-.14.52-.28.98-.41s.96-.25,1.49-.36c.52-.11,1.03-.19,1.52-.25.49-.06.85-.11,1.09-.16,1.38-.24,2.78-.38,4.17-.41,1.4-.04,2.79-.15,4.17-.34.1-.02.29-.05.59-.09.3-.04.61-.08.93-.13.32-.05.63-.09.93-.14.3-.05.5-.07.59-.07.12,0,.27,0,.47-.02.19-.01.38-.01.57,0,.19.01.37.04.52.09.16.05.27.12.34.22.1.12.17.33.22.63.05.3.08.61.11.95.02.34.04.66.05.97.01.31.02.54.02.68,0,.24,0,.63.02,1.16.01.54.03,1.16.05,1.88.02.72.04,1.47.05,2.26.01.79.02,1.54.04,2.26.01.72.02,1.35.03,1.9.01.55.02.93.02,1.15,0,.19-.01.54-.03,1.04-.02.5-.05,1.08-.07,1.72-.02.65-.05,1.33-.07,2.06-.02.73-.05,1.41-.07,2.06-.02.65-.05,1.22-.07,1.72-.02.5-.04.85-.04,1.04,0,.26,0,.56.02.9.01.34,0,.66-.02.99-.02.32-.09.6-.21.84-.12.24-.3.39-.54.47ZM98.41,280.17c.19.05.56.11,1.11.2s1.13.16,1.74.23,1.19.14,1.74.2.93.1,1.15.13c-.05-.26-.08-.51-.09-.73-.01-.23-.04-.46-.09-.7-.02-.22-.05-.57-.09-1.07-.03-.5-.07-1.07-.09-1.7-.02-.63-.05-1.31-.07-2.02-.02-.72-.04-1.4-.05-2.04-.01-.65-.02-1.22-.03-1.72-.01-.5-.02-.86-.02-1.08-.02-.52-.03-1.04-.02-1.56s.02-1.04.02-1.59c0-.05-.02-.05-.05-.02-.04.04-.08.05-.13.05-.17.02-.5.08-1,.16-.5.08-1.04.17-1.61.27-.57.09-1.11.19-1.61.27-.5.08-.84.14-1,.16,0,1.43,0,2.85-.02,4.26-.01,1.41,0,2.83.05,4.26.02.69.04,1.37.05,2.02.01.66.05,1.33.12,2.02Z"/>
        <path class="cls-2" d="M129.89,287.55c-.12.07-.25.1-.39.09s-.27-.03-.39-.05c-2.32-.48-4.65-.81-6.99-1-2.34-.19-4.69-.44-7.06-.75-.19-.02-.36-.11-.5-.25s-.24-.31-.29-.5c-.02-.1-.05-.29-.07-.57s-.04-.58-.05-.9c-.01-.31-.02-.61-.03-.9s-.02-.48-.02-.57c-.12-2.08-.19-4.14-.22-6.2-.02-2.05-.05-4.13-.07-6.23-.05-1.81-.05-3.64,0-5.48v-.45c0-.2,0-.41.02-.63.01-.21.04-.42.07-.63.04-.2.08-.34.13-.41.09-.14.22-.24.38-.29.16-.05.32-.1.48-.14,1.1-.26,2.21-.47,3.33-.61s2.25-.26,3.39-.34,2.27-.17,3.42-.25c1.15-.08,2.28-.2,3.4-.34.14-.02.31-.05.48-.09.18-.04.35-.06.52-.07.17-.01.3,0,.41.05.11.05.18.14.23.29.43,1.65.72,3.32.86,5.01.02.14.03.38.02.72-.01.33-.05.56-.13.68-.1.14-.23.24-.41.29-.18.05-.35.09-.52.14-.24.05-.71.11-1.41.18s-1.45.14-2.24.2-1.54.11-2.24.16c-.7.05-1.18.08-1.42.11-.07,0-.18.01-.32.04s-.3.04-.47.05c-.17.01-.32.03-.45.07-.13.03-.23.08-.3.12-.14.1-.23.24-.27.45-.03.2-.07.4-.09.59,0,.17.01.51.03,1.04.02.53.05,1.08.09,1.67.03.59.07,1.14.11,1.66.03.53.05.87.05,1.04v2.04c0,.43,0,.84.02,1.22.01.38.04.65.09.79.05.17.21.3.48.39.27.1.48.17.63.22.74.22,1.49.38,2.24.48.75.11,1.52.2,2.29.27s1.55.14,2.31.21c.76.07,1.53.18,2.29.32.22.05.33.17.36.38.02.2,0,.41-.07.63-.07.17-.17.51-.31,1.04-.13.53-.26,1.08-.38,1.67-.12.59-.24,1.15-.36,1.68-.12.54-.2.89-.25,1.06-.1.31-.24.51-.43.61Z"/>
        <path class="cls-2" d="M140.85,287.26c-.88.07-1.77.08-2.65.04-.88-.05-1.77-.07-2.65-.07-.12,0-.23-.01-.34-.04-.11-.02-.21-.08-.3-.18-.14-.14-.22-.35-.22-.61-.26-2.84-.5-5.68-.7-8.51-.2-2.83-.38-5.68-.52-8.54-.05-1.43-.09-2.87-.14-4.3-.05-1.43-.07-2.87-.07-4.3,0-.22.13-.33.4-.36.26-.02.5-.05.72-.07.31-.02.81-.08,1.5-.16s1.43-.16,2.2-.22c.77-.06,1.52-.1,2.22-.13.7-.02,1.2,0,1.49.07.24.07.36.26.36.57-.22,4.35-.4,8.67-.56,12.97-.16,4.3-.22,8.62-.2,12.97.02.19-.01.38-.11.55-.1.18-.24.28-.43.3Z"/>
      </g>
      <g>
        <path class="cls-27" d="M71.57,287.12s-.08.01-.11.04c-.02.02-.06.03-.11.03-.15.02-.23-.05-.27-.22s-.05-.34-.05-.51c-.24-3.88-.47-7.75-.67-11.59-.2-3.85-.34-7.71-.42-11.59v-1.68c0-.2.01-.34.04-.42,0-.17.05-.3.15-.4.1-.1.2-.15.33-.16s.24-.03.36-.05c2.77-.31,5.55-.59,8.32-.83,2.77-.24,5.55-.47,8.32-.69.27-.02.53-.04.8-.04s.51.07.72.22c.12.07.2.19.25.34.05.16.07.31.07.45v5.68c0,1.37.02,2.74.07,4.09.05,1.35.11,2.71.18,4.09,0,.27-.05.59-.14.96-.1.37-.27.62-.51.74-.1.05-.25.08-.45.09-.2.01-.43.02-.67.02h-1.12c-.19.02-.52.04-.99.05s-1.02.03-1.65.07c-.63.04-1.29.07-1.99.09s-1.36.05-1.99.09c-.63.03-1.18.07-1.65.09-.47.02-.8.04-.99.04.05.99.09,1.97.11,2.93.02.97.05,1.94.07,2.93v.9c0,.43,0,.89.02,1.36s.03.92.05,1.34c.02.42.06.72.11.89.1.31-.02.49-.34.54-.33.05-.65.07-.96.07h-.92c-.47,0-.97,0-1.5.02s-1.04.02-1.52.02h-.94ZM77.33,265.27c.02.8.04,1.59.05,2.39.01.8.04,1.59.09,2.39.19-.02.57-.05,1.12-.09.55-.03,1.15-.08,1.79-.13.64-.05,1.24-.09,1.79-.13.55-.03.93-.05,1.12-.05,0-.14-.01-.45-.04-.92s-.05-.97-.07-1.5c-.02-.53-.05-1.03-.07-1.5-.02-.47-.03-.78-.03-.92-.19,0-.56.02-1.1.05-.54.04-1.13.08-1.76.15-.63.06-1.22.12-1.77.18-.55.06-.93.09-1.12.09Z"/>
        <path class="cls-27" d="M110.21,287.2c-.12.02-.33.04-.63.04s-.63,0-.98-.02c-.35-.01-.67-.02-.98-.04-.3-.01-.51-.02-.63-.02-.48-.05-.97-.08-1.47-.09-.49-.01-.98-.04-1.47-.09-.63-.05-1.26-.14-1.9-.27-.64-.13-1.27-.22-1.9-.27-1.06-.07-2.12-.15-3.16-.22-1.05-.07-2.08-.24-3.09-.51-.29-.07-.58-.16-.87-.25-.29-.1-.53-.27-.72-.51-.07-.07-.13-.19-.16-.36-.03-.17-.07-.35-.11-.54-.03-.19-.07-.38-.09-.56-.02-.18-.04-.32-.04-.41-.12-1.45-.19-2.89-.22-4.32-.02-1.44-.04-2.88-.04-4.32v-3.62c-.05-1.11-.09-2.21-.13-3.29-.04-1.09-.03-2.18.02-3.29,0-.31.02-.65.05-1.01.04-.36.19-.64.45-.83.19-.15.52-.28.99-.42s.97-.25,1.5-.36,1.04-.19,1.54-.25c.49-.06.86-.11,1.1-.16,1.4-.24,2.8-.38,4.21-.42,1.41-.04,2.82-.15,4.21-.34.1-.02.3-.05.6-.09.3-.04.62-.08.94-.13.33-.05.64-.1.94-.15.3-.05.5-.07.6-.07.12,0,.28,0,.47-.02s.39-.01.58,0,.37.04.52.09c.16.05.27.12.34.22.1.12.17.33.22.63.05.3.08.62.11.96s.04.66.05.98c.01.31.02.54.02.69,0,.24,0,.63.02,1.17s.03,1.18.05,1.9c.02.72.04,1.48.05,2.28s.02,1.56.03,2.28c.01.72.02,1.36.04,1.92s.02.94.02,1.16c0,.19-.01.54-.04,1.05-.02.51-.05,1.09-.07,1.74-.02.65-.05,1.34-.07,2.08s-.05,1.43-.07,2.08c-.02.65-.05,1.23-.07,1.74-.02.51-.03.86-.03,1.05,0,.27,0,.57.02.9s0,.67-.02.99c-.02.33-.1.61-.22.85-.12.24-.3.4-.54.47ZM98.71,280.11c.19.05.56.12,1.12.2.55.08,1.14.16,1.75.23.62.07,1.2.14,1.76.2.55.06.94.1,1.16.13-.05-.26-.08-.51-.09-.74s-.04-.46-.09-.7c-.02-.22-.05-.58-.09-1.09s-.07-1.08-.09-1.72c-.02-.64-.05-1.32-.07-2.04-.02-.72-.04-1.41-.05-2.06-.01-.65-.02-1.23-.04-1.74-.01-.51-.02-.87-.02-1.09-.02-.53-.03-1.05-.02-1.57.01-.52.02-1.05.02-1.61,0-.05-.02-.05-.05-.02-.04.04-.08.05-.13.05-.17.02-.51.08-1.01.16-.51.09-1.05.17-1.63.27-.58.1-1.12.19-1.63.27-.51.09-.84.14-1.01.16,0,1.45,0,2.88-.02,4.3s0,2.86.05,4.3c.02.7.04,1.38.05,2.04s.05,1.34.13,2.04Z"/>
        <path class="cls-27" d="M130.51,287.56c-.12.07-.25.1-.4.09-.15-.01-.28-.03-.4-.05-2.34-.48-4.69-.82-7.06-1.01-2.36-.19-4.74-.45-7.13-.76-.19-.02-.36-.11-.51-.25s-.24-.31-.29-.51c-.02-.09-.05-.29-.07-.58-.02-.29-.04-.59-.05-.9-.01-.31-.02-.62-.04-.9-.01-.29-.02-.48-.02-.58-.12-2.1-.19-4.18-.22-6.26-.02-2.07-.05-4.17-.07-6.29-.05-1.83-.05-3.68,0-5.53v-.45c0-.2,0-.42.02-.63.01-.22.03-.43.07-.63s.08-.34.13-.42c.1-.15.22-.24.38-.29.16-.05.32-.1.49-.14,1.11-.27,2.23-.47,3.36-.62s2.27-.26,3.42-.34c1.15-.08,2.3-.17,3.46-.25,1.16-.09,2.3-.2,3.44-.34.15-.02.31-.05.49-.09.18-.03.36-.06.52-.07.17-.01.31,0,.42.05s.19.15.24.29c.43,1.66.72,3.35.87,5.07.02.15.03.39.02.72-.01.34-.05.57-.13.69-.1.15-.23.24-.42.29-.18.05-.35.1-.52.14-.24.05-.72.11-1.43.18-.71.07-1.47.14-2.26.2-.8.06-1.55.11-2.26.16-.71.05-1.19.08-1.43.11-.07,0-.18.01-.33.03-.15.02-.3.04-.47.05-.17.01-.32.04-.45.07-.13.03-.24.08-.31.13-.15.1-.24.25-.27.45-.04.2-.07.4-.09.6,0,.17.01.52.04,1.05.02.53.05,1.09.09,1.68.04.59.07,1.15.11,1.68.04.53.05.88.05,1.05v2.06c0,.43,0,.84.02,1.23.01.39.04.65.09.8.05.17.21.3.49.4.28.1.49.17.63.22.75.22,1.5.38,2.26.49.76.11,1.53.2,2.32.27.78.07,1.56.15,2.33.22.77.07,1.54.18,2.32.33.22.05.34.17.36.38.02.21,0,.42-.07.63-.07.17-.17.52-.31,1.05-.13.53-.26,1.09-.38,1.68s-.24,1.16-.36,1.7-.2.9-.25,1.07c-.1.31-.24.52-.44.62Z"/>
        <path class="cls-27" d="M141.58,287.27c-.89.07-1.78.08-2.68.03-.89-.05-1.79-.07-2.68-.07-.12,0-.23-.01-.34-.04s-.21-.08-.31-.18c-.15-.15-.22-.35-.22-.62-.27-2.87-.5-5.73-.71-8.59-.2-2.86-.38-5.73-.52-8.63-.05-1.45-.1-2.89-.15-4.34-.05-1.45-.07-2.9-.07-4.34,0-.22.13-.34.4-.36.26-.02.51-.05.72-.07.31-.02.82-.08,1.52-.16.7-.08,1.44-.16,2.23-.22.78-.06,1.53-.1,2.24-.13.71-.02,1.21,0,1.5.07.24.07.36.27.36.58-.22,4.39-.4,8.75-.56,13.1-.16,4.34-.22,8.71-.2,13.1.02.19-.01.38-.11.56-.1.18-.24.28-.44.31Z"/>
      </g>
    </g>
  </g>
</svg>