<?xml version="1.0" encoding="UTF-8"?>
<svg id="Layer_2" data-name="Layer 2" xmlns="http://www.w3.org/2000/svg" xmlns:xlink="http://www.w3.org/1999/xlink" viewBox="0 0 116.85 211.17">
  <defs>
    <style>
      .cls-1, .cls-2, .cls-3, .cls-4, .cls-5, .cls-6, .cls-7, .cls-8, .cls-9, .cls-10, .cls-11, .cls-12, .cls-13, .cls-14, .cls-15, .cls-16, .cls-17, .cls-18, .cls-19 {
        stroke-miterlimit: 10;
      }

      .cls-1, .cls-2, .cls-3, .cls-4, .cls-9, .cls-10, .cls-13, .cls-16, .cls-19 {
        stroke-width: .51px;
      }

      .cls-1, .cls-3, .cls-7, .cls-8, .cls-9, .cls-11, .cls-12, .cls-13, .cls-14 {
        fill: none;
      }

      .cls-1, .cls-10 {
        stroke: #c6c6c6;
      }

      .cls-20, .cls-5, .cls-6 {
        fill: #fffdf5;
      }

      .cls-2, .cls-3 {
        stroke: #c1859b;
      }

      .cls-2, .cls-16, .cls-21 {
        fill: #d48ca0;
      }

      .cls-22 {
        fill: #1c140e;
      }

      .cls-23 {
        opacity: .8;
      }

      .cls-23, .cls-24 {
        fill: #281e16;
      }

      .cls-25 {
        fill: #ede8d6;
      }

      .cls-4, .cls-9 {
        stroke: #33271d;
      }

      .cls-4, .cls-26, .cls-19 {
        fill: #3e3023;
      }

      .cls-27 {
        fill: #a3697b;
      }

      .cls-5 {
        stroke-width: .38px;
      }

      .cls-5, .cls-6, .cls-11, .cls-12 {
        stroke: #ede8d6;
      }

      .cls-6, .cls-12 {
        stroke-width: .34px;
      }

      .cls-7, .cls-8, .cls-17, .cls-18 {
        stroke: #898989;
      }

      .cls-7, .cls-17 {
        stroke-width: .91px;
      }

      .cls-8, .cls-18 {
        stroke-width: .49px;
      }

      .cls-10, .cls-28 {
        fill: #f9f9f9;
      }

      .cls-29 {
        fill: #352a21;
      }

      .cls-11 {
        stroke-width: .52px;
      }

      .cls-30 {
        clip-path: url(#clippath-17);
      }

      .cls-31 {
        clip-path: url(#clippath-19);
      }

      .cls-32 {
        clip-path: url(#clippath-11);
      }

      .cls-33 {
        clip-path: url(#clippath-16);
      }

      .cls-34 {
        clip-path: url(#clippath-18);
      }

      .cls-35 {
        clip-path: url(#clippath-10);
      }

      .cls-36 {
        clip-path: url(#clippath-15);
      }

      .cls-37 {
        clip-path: url(#clippath-13);
      }

      .cls-38 {
        clip-path: url(#clippath-14);
      }

      .cls-39 {
        clip-path: url(#clippath-12);
      }

      .cls-40 {
        clip-path: url(#clippath-20);
      }

      .cls-41 {
        clip-path: url(#clippath-21);
      }

      .cls-42 {
        clip-path: url(#clippath-22);
      }

      .cls-43 {
        clip-path: url(#clippath-23);
      }

      .cls-44 {
        clip-path: url(#clippath-24);
      }

      .cls-13, .cls-16 {
        stroke: #a3697b;
      }

      .cls-45 {
        clip-path: url(#clippath-1);
      }

      .cls-46 {
        clip-path: url(#clippath-3);
      }

      .cls-47 {
        clip-path: url(#clippath-4);
      }

      .cls-48 {
        clip-path: url(#clippath-2);
      }

      .cls-49 {
        clip-path: url(#clippath-7);
      }

      .cls-50 {
        clip-path: url(#clippath-6);
      }

      .cls-51 {
        clip-path: url(#clippath-9);
      }

      .cls-52 {
        clip-path: url(#clippath-8);
      }

      .cls-53 {
        clip-path: url(#clippath-5);
      }

      .cls-14, .cls-15 {
        stroke: #4b4b4b;
        stroke-width: 3.15px;
      }

      .cls-54 {
        fill: #4c392a;
      }

      .cls-15 {
        fill: #4b4b4b;
      }

      .cls-55 {
        fill: #fff;
      }

      .cls-56 {
        fill: #191918;
      }

      .cls-57 {
        fill: #7e7b86;
      }

      .cls-58 {
        fill: #e5e1df;
      }

      .cls-59 {
        fill: #f0ebff;
      }

      .cls-59, .cls-60 {
        opacity: .2;
      }

      .cls-60, .cls-61 {
        fill: #20164c;
      }

      .cls-61 {
        opacity: .3;
      }

      .cls-62 {
        fill: #bab5bc;
      }

      .cls-63 {
        fill: #f3eeff;
        opacity: .15;
      }

      .cls-17, .cls-18, .cls-64 {
        fill: #a5a5a3;
      }

      .cls-65 {
        fill: #0c0812;
      }

      .cls-66 {
        fill: #b33c33;
      }

      .cls-19 {
        stroke: #2d221a;
      }

      .cls-67 {
        fill: #e5ddc3;
      }

      .cls-68 {
        clip-path: url(#clippath);
      }
    </style>
    <clipPath id="clippath">
      <rect class="cls-17" x="4.4" y="23.89" width="106.48" height="146.54" rx="9.1" ry="9.1"/>
    </clipPath>
    <clipPath id="clippath-1">
      <rect class="cls-58" x="7.83" y="23.89" width="99.62" height="137.1" rx="8.51" ry="8.51"/>
    </clipPath>
    <clipPath id="clippath-2">
      <rect class="cls-18" x="6.39" y="166.88" width="106.48" height="43.54" rx="4.96" ry="4.96"/>
    </clipPath>
    <clipPath id="clippath-3">
      <rect class="cls-58" x="9.82" y="166.88" width="99.62" height="40.73" rx="4.64" ry="4.64"/>
    </clipPath>
    <clipPath id="clippath-4">
      <path class="cls-2" d="M74.67,152.67c4.1.7,7.93,1.6,9.77,3.98-2.5.9-3.73.13-4.76.1-3.73-.73-4.9-2.24-5.01-4.08Z"/>
    </clipPath>
    <clipPath id="clippath-5">
      <path class="cls-2" d="M32.96,139.94c-.9,4.36-7.98,5.16-8.64,6.87,1,.46,2.07.65,3.27.38-1.26.73-2.51,1.56-2.79,2.5,1.61,0,3.43-.63,5.11-1.13-1.16,1.01-1.85,1.82-2.22,3.08,2.19-.46,4.17-.79,6.09-1.71-.83,1.42-1.54,2.76-1.84,3.77-.06.19.11.38.3.34,1.79-.29,3.12-1.24,4.51-2.47,2.83-3.3,5.48-6.16,7.17-6.81l1.12-4.84c-4.36-1.65-8.35-1.48-12.08,0Z"/>
    </clipPath>
    <clipPath id="clippath-6">
      <path class="cls-2" d="M66.19,142.94c1.1,5.33-3.28,5.6-3.28,6.97-.89,2.43,1.77,4.34,7.41,6.19.58.19,1.31.17,1.91.29s1.16.23,1.73.38c.96.25,1.9.56,2.82.91,1.47.56,2.9,1.25,4.43,1.59.75.17,1.76.38,2.51.2-.93-1.61-2.22-2.86-3.78-3.87-1.65-1.07-3.82-1.42-4.78-3.24-.25-.48-.51-.97-.61-1.5-.23-1.15.16-2.43.66-3.46.15-.31,1.53-3.11,1.68-3.09l-10.71-1.38Z"/>
    </clipPath>
    <clipPath id="clippath-7">
      <path class="cls-4" d="M65.67,117.11c1.32,4.53,2.82,8.46,4.09,10.72.2-.55.13-.99.64-1.03,1.84,4.05,1.37,6.67-.98,8.49-.86,3.16-3.04,5.96-5.34,8.71-.19.86-.34,2.13.33,2.62,1.05.08,1.89-.59,2.25-1.42.1.96.41,1.55,1.12,1.5.53-.44.89-1.01,1.03-1.76.19,1.31.79,2.33,1.85,3.01.16-.39.36-.74.73-.95-.02.56.1,1.04.64,1.25,2.07-1.14,3.88-1.59,4.77.47.01-7.51,5.33-7.98,6.19-13.87,2.21-2.69,1.74-9.39,3.48-12.81-.55-3.4-1.81-6.54-3.65-9.44l-17.15,4.5Z"/>
    </clipPath>
    <clipPath id="clippath-8">
      <path class="cls-4" d="M46.67,114.74c-.75,4.25-1.72,7.7-2.89,10.37-4.1,8-10.72,9.85-13.75,15.19-.29.51-.02,1.18.55,1.33,1.11.3,2.53.01,4.72-1.78-.26.84-.53,1.62-.82,2.32,1.78-.53,3.13-1.33,3.91-2.49-1.08,1.62-1.58,3.02-1.5,4.2,1.8-1.59.36,2.06,3.57,1.25.74-1.18,1.52-2.28,2.75-2.62-1.59,3.09-1,4.54,1.89,4.26-.54-.88-.26-2.05,1.03-3.57-.59,1.89-.73,3.36,1.12,2.92-.74-3.28,1.75.68,4-1.76-.12-2.75-.46-5.42-.23-8.48.16-2.07.87-4.06,2.07-5.76,2.54-3.59,5.37-6.69,8.78-8.84-3.24-6.56-8.14-9.14-15.2-6.53Z"/>
    </clipPath>
    <clipPath id="clippath-9">
      <path class="cls-4" d="M23.36,41.2c-.44,13.75,2.6,19.32,3.22,27.38.06.72.21,1.44.44,2.12,1.77,5.16.73,5.85-.21,7.58,2.03-.44,4.05,1.41,6.06,5.29l58.98-3.1c4.11-2.25,6-5.65,5.93-10.06-2.98-5.42-5.52-11.68-7.61-18.84,1.6.88,3.09,2.79,4.47,5.51-4.67-13.24-.76-29.44-13.65-45.16C73.2.16,56.28-1.98,45.29,2.26c2.36.27,4.57.56,5.59,1.05-4.01-.14-8.03.81-12.07,3.01-10.28,1.25-19.82,11.94-21.31,24.71.82-1.04,1.77-3.51,2.98-4.23-2.03,6.55-1.72,13.52-.14,18.51,1.03-1.43,2.25-3.98,3.02-4.11Z"/>
    </clipPath>
    <clipPath id="clippath-10">
      <path class="cls-4" d="M51.64,66.1l-.16,4.46c-6.71,2.46-12.27,5.4-15.67,9.21,1.94,5.22,4.65,8.46,7.91,10.23,2.78,11.52-8.14,6.27-3.94,17.3,1.11,1.92-.92,2.57-.04,4.69.73,1.91,1.56,3.5,2.55,4.52,2.48-1.15,4.97.1,6.53-1.03.34,2.46,1.28,4.88,2.82,7.24.96.09,2.11-.2,3.42-.77.5.83,1.05,1.47,1.68,1.81,3.93-.4,6.9-1.74,8.06-4.84l1.18.21c14.7,7.09,12.42-5.63,18.1-5.37,3.17.81,3.71-9.52,2.19-13.13-3.42-4.28-4.93-8.29-4.91-12.08l8.97-11.76-15.79-6.06c-1.94-1.19-2.61-3.07-1.93-5.67l-20.96,1.05Z"/>
    </clipPath>
    <clipPath id="clippath-11">
      <path class="cls-6" d="M67.34,88.8c-.07-1.71-1.82-2.19-3.24-2.98-.32-.18.1-.67.47-.65,3.38.22,6.65.4,9.48.85-1.85,1.34-4.11,2.24-6.71,2.77Z"/>
    </clipPath>
    <clipPath id="clippath-12">
      <path class="cls-6" d="M48.45,84.54c2.93.66,5.76,1.39,8,2.57,3.26-1.42,2.91-5.8,6.92-5.74.11,0,.15-.14.07-.2-2.78-1.89-6.87,2.31-14.98,3.37Z"/>
    </clipPath>
    <clipPath id="clippath-13">
      <path class="cls-4" d="M51.57,67.07c-1.03,4.97-7.4,2.55-10.06,4.06-1.98,1.82-4.47,2.43-5.35,4.64-5.56,4.12-6.53,7.9-2.47,10.08,8.76,5.82,19.62,9.53,23.41,24.31.6-4.4-1.43-7.84-1.34-11.14.05-1.82-.81-3.42-1.88-5.43,2.98,1.96,5.29,4.9,6.77,9.09-.01-3.57-1.04-7.2-4.82-12.06,1.87.95,3.21,2.36,4.79,3.85.98,1.92,2.31,3.3,3.13,4.54-.18-3.11-2.87-6.86-6.41-11.45-.4-.52-.92-.96-1.52-1.25-4.18-2.03-8.67-2.7-13.31-2.73-2.3-.61-3.82-1.87-4.92-3.48,8.42-.03,17.66-2.92,13.99-13.03Z"/>
    </clipPath>
    <clipPath id="clippath-14">
      <path class="cls-6" d="M57.94,87.04c.76,3.03.21,4.44-.33,5.25l6.82,9.81-.03-6.96-6.46-8.09Z"/>
    </clipPath>
    <clipPath id="clippath-15">
      <path class="cls-6" d="M57.91,92.73c-.46,1.09-1.1,2.15-1.95,3.17l5.71,11.25c.27-5.52-.27-10.66-3.77-14.42Z"/>
    </clipPath>
    <clipPath id="clippath-16">
      <path class="cls-6" d="M50.22,98.67c2.24-.26,4.14-1.06,5.52-2.66.94,1.04,1.33,2.83,1.38,5.07,1.8,2.88.66,7.45-.04,11.78-1.67-5.02-3.74-9.85-6.86-14.19Z"/>
    </clipPath>
    <clipPath id="clippath-17">
      <path class="cls-16" d="M58.09,10.81c-5.39-4.89-6.27-3.59-4.33-.94-5.31-.68-8.69-.27-11.02.74-.23.1-.23.42,0,.52.91.38,1.58.58,1.8,1-3.16.05-5.74,1.12-7.77,3.17-.7.71-1.18,1.62-1.36,2.6-.86,4.68-1.2,9.53-1.12,14.52l4.64,21.24,5.29,7.87c11.99,2.88,24.47,2.49,37.53-1.81,1.85-2.33,3.18-5.8,4.32-9.72l-1.69-25.2c-1.85-1.77-3.68-5.71-5.02-10.44-.27-1.97-1.87-1.59-3.97-.91-.04-.83.29-1.62.9-2.4.4-.51.19-1.26-.41-1.51-4.36-1.84-8.44-1.52-11.36,1.08-.02-1.24.93-2.31,1.09-3.45.05-.35-.27-.63-.61-.54-2.05.55-4.46,2.34-6.9,4.17Z"/>
    </clipPath>
    <clipPath id="clippath-18">
      <ellipse class="cls-10" cx="76.15" cy="32.95" rx="9.69" ry="10.3"/>
    </clipPath>
    <clipPath id="clippath-19">
      <ellipse class="cls-10" cx="45.31" cy="34.93" rx="10.3" ry="9.43" transform="translate(-6.86 58.4) rotate(-61.85)"/>
    </clipPath>
    <clipPath id="clippath-20">
      <path class="cls-4" d="M72.39,66.1c.03,1.85.44,2.89,1.98,3.1,6.39-.41,11.58,2.8,17.66,6.73.87.56,1.35,1.57,1.19,2.59-1.03,6.64-14.34,11.92-17.92,18.65-2.29,2.7-1.85,7.06-4.45,10.96,1.7-6.61-.47-9.28,2.9-13.8-2.3,1.35-3.43,4.71-5.67,6.58.66-3.82,3.12-7.66,6.14-11.74-2.07,1.78-4.28,3.12-6.66,3.93-.16,1.61-1.28,3.61-2.39,5.61.36-2.58.56-5.64.67-7.74.07-1.32.8-2.52,1.95-3.17,6.49-3.7,8.16-1.52,10.66-3.08,4.35-2.6,6.57-6.5,9.78-7.01-9.94,1.57-16.63-2.24-15.85-11.61Z"/>
    </clipPath>
    <clipPath id="clippath-21">
      <path class="cls-6" d="M70.16,85.37c-2.97,2.84-1.53,4.96-.2,7.64l-5.41,8.43.32-9.99,2.04-5.7,3.24-.38Z"/>
    </clipPath>
    <clipPath id="clippath-22">
      <path class="cls-6" d="M70.58,92.57c.15,2.28.21,4.37,1.17,4.63-.75,1.97-3.06,4.99-5.27,7.14.3-3.93,1.94-8.17,4.09-11.77Z"/>
    </clipPath>
    <clipPath id="clippath-23">
      <path class="cls-6" d="M71.64,97.49c.98,1.1,2.21,1.56,3.77,1.2,1.83,4.72-1.3,8.62-5.46,12.35-.2-5.38-.08-10.41,1.69-13.55Z"/>
    </clipPath>
    <clipPath id="clippath-24">
      <path class="cls-66" d="M48.54,50.95c8.16,1.27,16.57,1.03,25.41-1.68.64,3.16.8,6.09.39,8.77-6.08,2.68-21,3.59-25.78,1.11-.94-2.65.29-4.81,0-8.2Z"/>
    </clipPath>
  </defs>
  <g id="Layer_9" data-name="Layer 9">
    <g>
      <g>
        <rect class="cls-64" x="4.4" y="23.89" width="106.48" height="146.54" rx="9.1" ry="9.1"/>
        <g class="cls-68">
          <polygon class="cls-57" points="0 172.95 9.71 154.74 101.42 154.74 114.87 172.95 0 172.95"/>
        </g>
        <rect class="cls-7" x="4.4" y="23.89" width="106.48" height="146.54" rx="9.1" ry="9.1"/>
      </g>
      <g>
        <rect class="cls-58" x="7.83" y="23.89" width="99.62" height="137.1" rx="8.51" ry="8.51"/>
        <g class="cls-45">
          <rect class="cls-62" x="11.38" y="26.96" width="99.62" height="137.1" rx="8.51" ry="8.51"/>
          <path class="cls-59" d="M110.88,75.71c0-42.65-106.48-42.65-106.48,0V19.95s106.48,0,106.48,0v55.76Z"/>
        </g>
      </g>
    </g>
    <g>
      <rect class="cls-64" x="6.39" y="166.88" width="106.48" height="43.54" rx="4.96" ry="4.96"/>
      <g class="cls-48">
        <polygon class="cls-57" points="1.98 211.17 11.7 205.76 103.41 205.76 116.85 211.17 1.98 211.17"/>
      </g>
      <rect class="cls-8" x="6.39" y="166.88" width="106.48" height="43.54" rx="4.96" ry="4.96"/>
    </g>
    <g>
      <rect class="cls-58" x="9.82" y="166.88" width="99.62" height="40.73" rx="4.64" ry="4.64"/>
      <g class="cls-46">
        <rect class="cls-62" x="13.37" y="167.79" width="99.62" height="40.73" rx="4.64" ry="4.64"/>
        <path class="cls-59" d="M112.87,182.28c0-12.67-106.48-12.67-106.48,0v-16.57s106.48,0,106.48,0v16.57Z"/>
      </g>
    </g>
    <g>
      <g>
        <path class="cls-21" d="M74.67,152.67c4.1.7,7.93,1.6,9.77,3.98-2.5.9-3.73.13-4.76.1-3.73-.73-4.9-2.24-5.01-4.08Z"/>
        <g class="cls-47">
          <path class="cls-5" d="M78.55,152.34c1.28,1.84,1.38,4.02,1.27,6.27l6.86-1.32c-1.13-2.76-4.26-4.11-8.13-4.95Z"/>
        </g>
        <path class="cls-3" d="M74.67,152.67c4.1.7,7.93,1.6,9.77,3.98-2.5.9-3.73.13-4.76.1-3.73-.73-4.9-2.24-5.01-4.08Z"/>
      </g>
      <g>
        <path class="cls-21" d="M32.96,139.94c-.9,4.36-7.98,5.16-8.64,6.87,1,.46,2.07.65,3.27.38-1.26.73-2.51,1.56-2.79,2.5,1.61,0,3.43-.63,5.11-1.13-1.16,1.01-1.85,1.82-2.22,3.08,2.19-.46,4.17-.79,6.09-1.71-.83,1.42-1.54,2.76-1.84,3.77-.06.19.11.38.3.34,1.79-.29,3.12-1.24,4.51-2.47,2.83-3.3,5.48-6.16,7.17-6.81l1.12-4.84c-4.36-1.65-8.35-1.48-12.08,0Z"/>
        <g class="cls-53">
          <path class="cls-60" d="M26.15,143.63c9.66-1.56,15.02,2.88,13.75,7.91l12.02-10.88-17.24-6.36-8.53,9.33Z"/>
          <path class="cls-6" d="M32.77,150.73c1.23,1.03,2.69.91,5.16.19-1.7,2.93-3.78,4.14-6.81,4.03-.01-1.75.32-3.29,1.66-4.21Z"/>
          <path class="cls-6" d="M28.47,149.48c2.31-.29,3.73.14,4.29,1.25l-6.15,2.24c-.05-1.4.48-2.59,1.85-3.48Z"/>
          <path class="cls-6" d="M26.86,147.43c.26.92.83,1.57,1.61,2.05l-4.43.94c.06-1.61.94-2.64,2.82-2.98Z"/>
          <path class="cls-6" d="M27.12,144.29c-.85,1.09-.73,1.98-.26,3.14l-3.53-.13c.28-1.61,1.74-2.49,3.79-3.01Z"/>
        </g>
        <path class="cls-3" d="M32.96,139.94c-.9,4.36-7.98,5.16-8.64,6.87,1,.46,2.07.65,3.27.38-1.26.73-2.51,1.56-2.79,2.5,1.61,0,3.43-.63,5.11-1.13-1.16,1.01-1.85,1.82-2.22,3.08,2.19-.46,4.17-.79,6.09-1.71-.83,1.42-1.54,2.76-1.84,3.77-.06.19.11.38.3.34,1.79-.29,3.12-1.24,4.51-2.47,2.83-3.3,5.48-6.16,7.17-6.81l1.12-4.84c-4.36-1.65-8.35-1.48-12.08,0Z"/>
      </g>
      <g>
        <path class="cls-21" d="M66.19,142.94c1.1,5.33-3.28,5.6-3.28,6.97-.89,2.43,1.77,4.34,7.41,6.19.58.19,1.31.17,1.91.29s1.16.23,1.73.38c.96.25,1.9.56,2.82.91,1.47.56,2.9,1.25,4.43,1.59.75.17,1.76.38,2.51.2-.93-1.61-2.22-2.86-3.78-3.87-1.65-1.07-3.82-1.42-4.78-3.24-.25-.48-.51-.97-.61-1.5-.23-1.15.16-2.43.66-3.46.15-.31,1.53-3.11,1.68-3.09l-10.71-1.38Z"/>
        <g class="cls-50">
          <path class="cls-60" d="M60.56,149.94c7.49-2.34,12.2-1.69,17.65,1.73l3.43-11.62-18.31-.39-2.76,10.28Z"/>
          <path class="cls-5" d="M75.41,158.04c2.46-1.29,3.64-2.97,4.14-4.85l7.54,5.8-4.55,3.01-7.12-3.97Z"/>
        </g>
        <path class="cls-3" d="M66.19,142.94c1.1,5.33-3.28,5.6-3.28,6.97-.89,2.43,1.77,4.34,7.41,6.19.58.19,1.31.17,1.91.29s1.16.23,1.73.38c.96.25,1.9.56,2.82.91,1.47.56,2.9,1.25,4.43,1.59.75.17,1.76.38,2.51.2-.93-1.61-2.22-2.86-3.78-3.87-1.65-1.07-3.82-1.42-4.78-3.24-.25-.48-.51-.97-.61-1.5-.23-1.15.16-2.43.66-3.46.15-.31,1.53-3.11,1.68-3.09l-10.71-1.38Z"/>
      </g>
      <g>
        <path class="cls-26" d="M65.67,117.11c1.32,4.53,2.82,8.46,4.09,10.72.2-.55.13-.99.64-1.03,1.84,4.05,1.37,6.67-.98,8.49-.86,3.16-3.04,5.96-5.34,8.71-.19.86-.34,2.13.33,2.62,1.05.08,1.89-.59,2.25-1.42.1.96.41,1.55,1.12,1.5.53-.44.89-1.01,1.03-1.76.19,1.31.79,2.33,1.85,3.01.16-.39.36-.74.73-.95-.02.56.1,1.04.64,1.25,2.07-1.14,3.88-1.59,4.77.47.01-7.51,5.33-7.98,6.19-13.87,2.21-2.69,1.74-9.39,3.48-12.81-.55-3.4-1.81-6.54-3.65-9.44l-17.15,4.5Z"/>
        <g class="cls-49">
          <g>
            <path class="cls-24" d="M78,126.93c-1.19,5.53-4.66,12.87-5.41,16.98,1.76-4.01,4.99-11.45,5.41-16.98Z"/>
            <path class="cls-24" d="M71.09,119.05c3.06,4.28,4.25,14.17,1.35,17.97,1.65-2.59,2.07-12.59-1.35-17.97Z"/>
            <path class="cls-24" d="M73.57,137.64c-1.73,2.38-2.89,5.1-3.78,7.99l3.78-7.99Z"/>
            <path class="cls-24" d="M79.31,129.89c.38-3.83-.11-7.81-1.31-11.91.58,4.18,1.03,8.16,1.31,11.91Z"/>
            <path class="cls-24" d="M80.92,129.95c.71-2.51.57-6.15-.86-11.53.83,4.65,1.16,8.55.86,11.53Z"/>
            <path class="cls-24" d="M71.97,129.37c-.69-1.77-1.94-5.13-3.88-10.89,2.23,4.64,3.55,8.34,3.88,10.89Z"/>
            <path class="cls-24" d="M83.5,129.67c1.88-5.3,1.76-8.71-.38-13.83,1.26,5.47,1.67,8.82.38,13.83Z"/>
            <path class="cls-24" d="M64.11,147.78c2.2-3.15,4.87-6.47,7.95-9.93-2.63,3.9-4.71,7.47-5.63,10.32l-2.32-.39Z"/>
            <path class="cls-24" d="M73.89,149.28c.38-3.69,1.03-7.54,3.38-11.01-1.27,4.16-1.58,8.08-1.08,11.8l-2.3-.79Z"/>
            <path class="cls-24" d="M80.06,134.73c.48,2.08-.19,4.18-1.34,6.32.75-2.25,1.29-4.45,1.34-6.32Z"/>
            <path class="cls-24" d="M82.19,133.95c1.13-2.93,1.12-7.62.58-13.12-.02,5.15-.17,9.72-.58,13.12Z"/>
          </g>
          <path class="cls-23" d="M66.59,122.09c14.7,7.09,12.42-5.63,18.1-5.37l.56-4.81-21.38,6.65,2.72,3.54Z"/>
        </g>
        <path class="cls-9" d="M65.67,117.11c1.32,4.53,2.82,8.46,4.09,10.72.2-.55.13-.99.64-1.03,1.84,4.05,1.37,6.67-.98,8.49-.86,3.16-3.04,5.96-5.34,8.71-.19.86-.34,2.13.33,2.62,1.05.08,1.89-.59,2.25-1.42.1.96.41,1.55,1.12,1.5.53-.44.89-1.01,1.03-1.76.19,1.31.79,2.33,1.85,3.01.16-.39.36-.74.73-.95-.02.56.1,1.04.64,1.25,2.07-1.14,3.88-1.59,4.77.47.01-7.51,5.33-7.98,6.19-13.87,2.21-2.69,1.74-9.39,3.48-12.81-.55-3.4-1.81-6.54-3.65-9.44l-17.15,4.5Z"/>
      </g>
      <g>
        <path class="cls-26" d="M46.67,114.74c-.75,4.25-1.72,7.7-2.89,10.37-4.1,8-10.72,9.85-13.75,15.19-.29.51-.02,1.18.55,1.33,1.11.3,2.53.01,4.72-1.78-.26.84-.53,1.62-.82,2.32,1.78-.53,3.13-1.33,3.91-2.49-1.08,1.62-1.58,3.02-1.5,4.2,1.8-1.59.36,2.06,3.57,1.25.74-1.18,1.52-2.28,2.75-2.62-1.59,3.09-1,4.54,1.89,4.26-.54-.88-.26-2.05,1.03-3.57-.59,1.89-.73,3.36,1.12,2.92-.74-3.28,1.75.68,4-1.76-.12-2.75-.46-5.42-.23-8.48.16-2.07.87-4.06,2.07-5.76,2.54-3.59,5.37-6.69,8.78-8.84-3.24-6.56-8.14-9.14-15.2-6.53Z"/>
        <g class="cls-52">
          <g>
            <path class="cls-24" d="M47.07,132.41c2.24-3.13,3.8-6.83,4.81-10.98-1.58,3.92-3.18,7.59-4.81,10.98Z"/>
            <path class="cls-24" d="M41.43,137.69c2.95-3.29,5.77-8.95,8.38-18.31-2.77,7.77-5.56,13.98-8.38,18.31Z"/>
            <path class="cls-24" d="M40.54,132.28c2.93-2.36,5.59-6.72,7.82-14.18-2.49,6.12-5.09,10.94-7.82,14.18Z"/>
            <path class="cls-24" d="M48.92,133.04c1.1-2.95,4.22-6.44,8.29-10.19-3.4,3.86-6.33,7.38-8.29,10.19Z"/>
            <path class="cls-24" d="M41.65,142.69c1.31-3.44,2.75-6.91,4.97-9.39-1.41,2.34-3.14,5.92-4.97,9.39Z"/>
            <path class="cls-24" d="M47.07,145.73c-.48-3.2-.11-6.96,1.45-11.48-1.37,4.62-1.12,8.6.23,12.16l-1.67-.68Z"/>
            <path class="cls-24" d="M33.58,142.05c-.19-3.11,1.4-5.97,4.78-10.15l-10.93,7.87.56,2.58,3.44,1.16,2.15-1.46Z"/>
            <path class="cls-24" d="M35.85,140.19c2.51-1.41,4.4-3.76,5.8-6.89-1.76,2.86-3.7,5.11-5.8,6.89Z"/>
          </g>
          <path class="cls-23" d="M43.32,119.33c1.48-.02,2.82.21,3.8-.5.34,2.46,1.28,4.88,2.82,7.24.96.09,2.11-.2,3.42-.77.5.83,1.05,1.47,1.68,1.81.7-.07,1.38-.17,2.02-.31l4.32-4.94-17.27-8.67-.78,6.14Z"/>
        </g>
        <path class="cls-9" d="M46.67,114.74c-.75,4.25-1.72,7.7-2.89,10.37-4.1,8-10.72,9.85-13.75,15.19-.29.51-.02,1.18.55,1.33,1.11.3,2.53.01,4.72-1.78-.26.84-.53,1.62-.82,2.32,1.78-.53,3.13-1.33,3.91-2.49-1.08,1.62-1.58,3.02-1.5,4.2,1.8-1.59.36,2.06,3.57,1.25.74-1.18,1.52-2.28,2.75-2.62-1.59,3.09-1,4.54,1.89,4.26-.54-.88-.26-2.05,1.03-3.57-.59,1.89-.73,3.36,1.12,2.92-.74-3.28,1.75.68,4-1.76-.12-2.75-.46-5.42-.23-8.48.16-2.07.87-4.06,2.07-5.76,2.54-3.59,5.37-6.69,8.78-8.84-3.24-6.56-8.14-9.14-15.2-6.53Z"/>
      </g>
      <g>
        <path class="cls-26" d="M23.36,41.2c-.44,13.75,2.6,19.32,3.22,27.38.06.72.21,1.44.44,2.12,1.77,5.16.73,5.85-.21,7.58,2.03-.44,4.05,1.41,6.06,5.29l58.98-3.1c4.11-2.25,6-5.65,5.93-10.06-2.98-5.42-5.52-11.68-7.61-18.84,1.6.88,3.09,2.79,4.47,5.51-4.67-13.24-.76-29.44-13.65-45.16C73.2.16,56.28-1.98,45.29,2.26c2.36.27,4.57.56,5.59,1.05-4.01-.14-8.03.81-12.07,3.01-10.28,1.25-19.82,11.94-21.31,24.71.82-1.04,1.77-3.51,2.98-4.23-2.03,6.55-1.72,13.52-.14,18.51,1.03-1.43,2.25-3.98,3.02-4.11Z"/>
        <g class="cls-51">
          <path class="cls-24" d="M22.45,43.63c1.33-6.83,4.76-11.59,6.6-17.37-1.93,13.64-4.36,25.67-3.03,40.82-2.69-9.6-6.42-17.78-2.66-25.86"/>
          <path class="cls-29" d="M30.07,82.49c4.39-12.67,15.79-18.48,29.85-16.28l8.07.08c11.62-.69,29.79,6.65,25.26,13.32.96,4.93,3.23,2.44-.5,3.97H30.05l.02-1.09Z"/>
          <path class="cls-63" d="M18.3,32.51c3.38-11.28,10.43-19.85,21.81-27.31l-16.05,3.18-9.54,19.46c-.37,6.58,1.25,7.05,3.78,4.67Z"/>
          <path class="cls-63" d="M90.18,51.58c2.52,14.51,5.55,20.95,3.53,29.67l7.79-13.1-11.32-16.57Z"/>
        </g>
        <path class="cls-9" d="M23.36,41.2c-.44,13.75,2.6,19.32,3.22,27.38.06.72.21,1.44.44,2.12,1.77,5.16.73,5.85-.21,7.58,2.03-.44,4.05,1.41,6.06,5.29l58.98-3.1c4.11-2.25,6-5.65,5.93-10.06-2.98-5.42-5.52-11.68-7.61-18.84,1.6.88,3.09,2.79,4.47,5.51-4.67-13.24-.76-29.44-13.65-45.16C73.2.16,56.28-1.98,45.29,2.26c2.36.27,4.57.56,5.59,1.05-4.01-.14-8.03.81-12.07,3.01-10.28,1.25-19.82,11.94-21.31,24.71.82-1.04,1.77-3.51,2.98-4.23-2.03,6.55-1.72,13.52-.14,18.51,1.03-1.43,2.25-3.98,3.02-4.11Z"/>
      </g>
      <g>
        <path class="cls-26" d="M51.64,66.1l-.16,4.46c-6.71,2.46-12.27,5.4-15.67,9.21,1.94,5.22,4.65,8.46,7.91,10.23,2.78,11.52-8.14,6.27-3.94,17.3,1.11,1.92-.92,2.57-.04,4.69.73,1.91,1.56,3.5,2.55,4.52,2.48-1.15,4.97.1,6.53-1.03.34,2.46,1.28,4.88,2.82,7.24.96.09,2.11-.2,3.42-.77.5.83,1.05,1.47,1.68,1.81,3.93-.4,6.9-1.74,8.06-4.84l1.18.21c14.7,7.09,12.42-5.63,18.1-5.37,3.17.81,3.71-9.52,2.19-13.13-3.42-4.28-4.93-8.29-4.91-12.08l8.97-11.76-15.79-6.06c-1.94-1.19-2.61-3.07-1.93-5.67l-20.96,1.05Z"/>
        <g class="cls-35">
          <path class="cls-54" d="M52.31,79.29c1.46-4.33,5.61-2.91,6.84-4.33,1.72,1.55,3.69,2.12,6.32,0,.92.79,2.1,1.75,4.75.45.61,1.44,2.46,2.35,2.79,4.32.8.67,2.05.2,2.45,1.1-1.75,8.79,3.03,11.26,4.73,17.09,2.29,7.85,1.62,16.71-9.92,19.98-3.8,1.08-7.84.96-11.6-.25-10.84-3.47-15.27-12.19-10.28-22.83,1.85-3.96,1.49-9.83,3.93-15.53Z"/>
          <path class="cls-26" d="M48.38,96.48c.35,7.24,11.89,10.7,13.99-2.05-4.63,7.96-9.29,9.43-13.99,2.05Z"/>
          <path class="cls-26" d="M66.03,95.47c.72,3.58,5.59,5.81,8.47,5.85,2.24.03,4.96-2.02,4.08-5.24,2.67,10.83-12.52,6.85-12.55-.6Z"/>
          <path class="cls-24" d="M43.55,93.49c1.99,3.14-2.59,6.23-1.56,8.81,7.09,18.68,12.58,10.15,14.99,22.38l-10.64,1.6-11.31-8.48v-20.02l8.52-4.3Z"/>
          <path class="cls-24" d="M75.68,117.62c6.74-4.97,9-12.6,5.56-23.62,2.44,10.93.23,18.55-5.56,23.62Z"/>
          <path class="cls-24" d="M82.84,97.15c2.56,7.41,1.18,12.56-2.02,16.62,2.93-5.05,3.61-10.58,2.02-16.62Z"/>
          <path class="cls-24" d="M84.97,100.69c1.16,2.39.64,5.76-.55,9.5.53-3.49.82-6.76.55-9.5Z"/>
          <path class="cls-24" d="M43.99,99.79c-.12,7.39,2.13,13.56,9.93,16.83-6.04-3.05-9.01-9.23-9.93-16.83Z"/>
          <path class="cls-24" d="M42.64,110.19c6.05,6.57,11.68,10.66,17.73,8.77-5.85,1.11-11.57-3.22-17.73-8.77Z"/>
          <path class="cls-24" d="M45.28,103.97c-1.4-6.57,2.65-10.46,2.29-19.02,1.93,8.83-2.74,10.03-2.29,19.02Z"/>
          <path class="cls-26" d="M59.66,103.72c-.1,5.27,1.16,10.06,4.32,14.19-2.34-4.63-3.65-9.37-4.32-14.19Z"/>
          <path class="cls-26" d="M50.45,101.06c-.1,5.27,5.14,14.08,10.27,15.56-3.19-1.2-10-9.19-10.27-15.56Z"/>
          <path class="cls-26" d="M57.64,110.19c2.29,2.13,4,4.68,5.42,7.43l-5.42-7.43Z"/>
          <path class="cls-26" d="M47.31,101.53c1.69,8.08,4.94,13.58,10.62,15.09-5.06-2.1-8.37-7.57-10.62-15.09Z"/>
          <path class="cls-26" d="M65.02,112.64c1.11-3.69,1.4-7.69,1.01-11.94-.23,4.22-.57,8.21-1.01,11.94Z"/>
          <path class="cls-26" d="M66.58,113.01c1.18-2.33,1.75-5.92,1.38-11.48-.08,4.73-.51,8.61-1.38,11.48Z"/>
          <path class="cls-26" d="M67.06,117.18c1.68-2.66,2.57-7.26,3.1-12.77-1.01,5.05-2.04,9.51-3.1,12.77Z"/>
          <path class="cls-26" d="M59.43,75.72c-.77,5.21-.12,10.12,2.49,14.62-1.73-4.89-2.44-9.76-2.49-14.62Z"/>
          <path class="cls-26" d="M63.16,85.95c1.11-3.69,1.4-7.69,1.01-11.94-.23,4.22-.57,8.21-1.01,11.94Z"/>
          <path class="cls-26" d="M64.73,86.32c1.18-2.33,1.75-5.92,1.38-11.48-.08,4.73-.51,8.61-1.38,11.48Z"/>
          <path class="cls-26" d="M65.2,90.49c1.68-2.66,2.57-7.26,3.1-12.77-1.01,5.05-2.04,9.51-3.1,12.77Z"/>
          <path class="cls-26" d="M68.95,117.18c4.13-3.82,5.61-6.9,6.09-12.42-1.42,5.43-2.61,8.59-6.09,12.42Z"/>
          <path class="cls-26" d="M73.69,113.91c3.39-3.56,5.34-7.7,5.93-12.38-1.26,4.76-3.25,8.87-5.93,12.38Z"/>
          <path class="cls-26" d="M70.54,117.18c4.31-1.51,7.65-3.72,9.08-7.29-2.14,3.52-5.37,5.69-9.08,7.29Z"/>
          <path class="cls-24" d="M69.85,67.07c1.58,4.09,4.21,6.3,8.79,6.25-4.26.74-7.16-1.21-8.79-6.25Z"/>
          <path class="cls-24" d="M68.81,67.96c.57,3.23,1.69,5.93,4.33,7.12-2.17-1.12-3.34-3.97-4.33-7.12Z"/>
          <path class="cls-24" d="M54.34,67.13c-2.4,6.5-6.52,10.05-13.75,10.07,6.75,1.07,11.29-2.07,13.75-10.07Z"/>
          <path class="cls-24" d="M54.64,70.46c-1.76,4.49-2.42,9.65-5.99,12.02,2.65-2.5,3.52-7.77,5.99-12.02Z"/>
          <path class="cls-22" d="M74.1,73.44c4.68,2.32,9.69,3.98,15.48,4.11l-8.34,6.88c-3.14-1.6-5.39-5.62-7.14-10.99Z"/>
          <path class="cls-22" d="M51.17,75.59c-4.68,2.32-9.69,3.98-15.48,4.11.13,3.79,2.85,6.12,8.34,6.88,3.14-1.6,5.39-5.62,7.14-10.99Z"/>
        </g>
        <path class="cls-9" d="M51.64,66.1l-.16,4.46c-6.71,2.46-12.27,5.4-15.67,9.21,1.94,5.22,4.65,8.46,7.91,10.23,2.78,11.52-8.14,6.27-3.94,17.3,1.11,1.92-.92,2.57-.04,4.69.73,1.91,1.56,3.5,2.55,4.52,2.48-1.15,4.97.1,6.53-1.03.34,2.46,1.28,4.88,2.82,7.24.96.09,2.11-.2,3.42-.77.5.83,1.05,1.47,1.68,1.81,3.93-.4,6.9-1.74,8.06-4.84l1.18.21c14.7,7.09,12.42-5.63,18.1-5.37,3.17.81,3.71-9.52,2.19-13.13-3.42-4.28-4.93-8.29-4.91-12.08l8.97-11.76-15.79-6.06c-1.94-1.19-2.61-3.07-1.93-5.67l-20.96,1.05Z"/>
      </g>
      <g>
        <path class="cls-20" d="M67.34,88.8c-.07-1.71-1.82-2.19-3.24-2.98-.32-.18.1-.67.47-.65,3.38.22,6.65.4,9.48.85-1.85,1.34-4.11,2.24-6.71,2.77Z"/>
        <g class="cls-32">
          <path class="cls-67" d="M65.18,87.51c3.24-.6,4.12-2.07,4.48-3.74l8.35.26-8.54,7.71-4.29-4.22Z"/>
        </g>
        <path class="cls-12" d="M67.34,88.8c-.07-1.71-1.82-2.19-3.24-2.98-.32-.18.1-.67.47-.65,3.38.22,6.65.4,9.48.85-1.85,1.34-4.11,2.24-6.71,2.77Z"/>
      </g>
      <g>
        <path class="cls-20" d="M48.45,84.54c2.93.66,5.76,1.39,8,2.57,3.26-1.42,2.91-5.8,6.92-5.74.11,0,.15-.14.07-.2-2.78-1.89-6.87,2.31-14.98,3.37Z"/>
        <g class="cls-39">
          <path class="cls-67" d="M51.04,83.12c6.61,3.86,8.89-2.1,11.84-.66l-6.53,6.77-8.32-3.49,3.01-2.61Z"/>
        </g>
        <path class="cls-12" d="M48.45,84.54c2.93.66,5.76,1.39,8,2.57,3.26-1.42,2.91-5.8,6.92-5.74.11,0,.15-.14.07-.2-2.78-1.89-6.87,2.31-14.98,3.37Z"/>
      </g>
      <path class="cls-24" d="M30.88,22.1c-1.63,22.11-.4,24.29.32,44.97.28-4.44,1.98-9.44,2.8-12.58,1.06,7.68.34,16.33,1.81,19.52-.32-5.65,5.12-2.28,4.53-9.45,7.39,5.34,31.89,6.13,44.29-4.11,3.23-2.66,4.9-6.77,4.5-10.94l-1.9-19.77c-.19-3.66-1.17-7.25-2.94-10.47-1.48-2.71-3.31-5.42-5.63-8.2-11.79-15.55-46.23-6.41-47.77,11.03Z"/>
      <g>
        <path class="cls-26" d="M51.57,67.07c-1.03,4.97-7.4,2.55-10.06,4.06-1.98,1.82-4.47,2.43-5.35,4.64-5.56,4.12-6.53,7.9-2.47,10.08,8.76,5.82,19.62,9.53,23.41,24.31.6-4.4-1.43-7.84-1.34-11.14.05-1.82-.81-3.42-1.88-5.43,2.98,1.96,5.29,4.9,6.77,9.09-.01-3.57-1.04-7.2-4.82-12.06,1.87.95,3.21,2.36,4.79,3.85.98,1.92,2.31,3.3,3.13,4.54-.18-3.11-2.87-6.86-6.41-11.45-.4-.52-.92-.96-1.52-1.25-4.18-2.03-8.67-2.7-13.31-2.73-2.3-.61-3.82-1.87-4.92-3.48,8.42-.03,17.66-2.92,13.99-13.03Z"/>
        <g class="cls-37">
          <g>
            <path class="cls-20" d="M57.94,87.04c.76,3.03.21,4.44-.33,5.25l6.82,9.81-.03-6.96-6.46-8.09Z"/>
            <g class="cls-38">
              <path class="cls-67" d="M62.15,90.07c-2.5-.26-3.5,2.18-4.5,5.89l-1.22-2.25c-.44-6.22.51-9.42,3.84-7.48l1.88,3.85Z"/>
            </g>
            <path class="cls-12" d="M57.94,87.04c.76,3.03.21,4.44-.33,5.25l6.82,9.81-.03-6.96-6.46-8.09Z"/>
          </g>
          <g>
            <path class="cls-20" d="M57.91,92.73c-.46,1.09-1.1,2.15-1.95,3.17l5.71,11.25c.27-5.52-.27-10.66-3.77-14.42Z"/>
            <g class="cls-36">
              <path class="cls-67" d="M60.82,90.39c-2.18,4.41-4.28,7.75-4.63,11.46l-1.57-3.33,4.94-11.08,1.26,2.95Z"/>
            </g>
            <path class="cls-12" d="M57.91,92.73c-.46,1.09-1.1,2.15-1.95,3.17l5.71,11.25c.27-5.52-.27-10.66-3.77-14.42Z"/>
          </g>
          <g>
            <path class="cls-20" d="M50.22,98.67c2.24-.26,4.14-1.06,5.52-2.66.94,1.04,1.33,2.83,1.38,5.07,1.8,2.88.66,7.45-.04,11.78-1.67-5.02-3.74-9.85-6.86-14.19Z"/>
            <g class="cls-33">
              <path class="cls-67" d="M61.41,92.75c-3.98,2.63-7.54,6.39-9.97,11.67l-3.37-3.4,10.64-11.28,2.71,3.01Z"/>
            </g>
            <path class="cls-12" d="M50.22,98.67c2.24-.26,4.14-1.06,5.52-2.66.94,1.04,1.33,2.83,1.38,5.07,1.8,2.88.66,7.45-.04,11.78-1.67-5.02-3.74-9.85-6.86-14.19Z"/>
          </g>
          <path class="cls-63" d="M48.4,67.06c-1.28,4.82-11.04,7.45-13.92,12.54-.42.75-.63,1.53-.64,2.4-.02,3.17,3.43,4.62,5.78,8.07l-13.67-6.49,9.86-11.26,12.59-5.26Z"/>
          <path class="cls-63" d="M40.73,82.22c.89,2.94,11.65,3.58,19.16,7l-2.93-4.06-16.24-2.95Z"/>
        </g>
        <path class="cls-9" d="M51.57,67.07c-1.03,4.97-7.4,2.55-10.06,4.06-1.98,1.82-4.47,2.43-5.35,4.64-5.56,4.12-6.53,7.9-2.47,10.08,8.76,5.82,19.62,9.53,23.41,24.31.6-4.4-1.43-7.84-1.34-11.14.05-1.82-.81-3.42-1.88-5.43,2.98,1.96,5.29,4.9,6.77,9.09-.01-3.57-1.04-7.2-4.82-12.06,1.87.95,3.21,2.36,4.79,3.85.98,1.92,2.31,3.3,3.13,4.54-.18-3.11-2.87-6.86-6.41-11.45-.4-.52-.92-.96-1.52-1.25-4.18-2.03-8.67-2.7-13.31-2.73-2.3-.61-3.82-1.87-4.92-3.48,8.42-.03,17.66-2.92,13.99-13.03Z"/>
      </g>
      <g>
        <path class="cls-21" d="M58.09,10.81c-5.39-4.89-6.27-3.59-4.33-.94-5.31-.68-8.69-.27-11.02.74-.23.1-.23.42,0,.52.91.38,1.58.58,1.8,1-3.16.05-5.74,1.12-7.77,3.17-.7.71-1.18,1.62-1.36,2.6-.86,4.68-1.2,9.53-1.12,14.52l4.64,21.24,5.29,7.87c11.99,2.88,24.47,2.49,37.53-1.81,1.85-2.33,3.18-5.8,4.32-9.72l-1.69-25.2c-1.85-1.77-3.68-5.71-5.02-10.44-.27-1.97-1.87-1.59-3.97-.91-.04-.83.29-1.62.9-2.4.4-.51.19-1.26-.41-1.51-4.36-1.84-8.44-1.52-11.36,1.08-.02-1.24.93-2.31,1.09-3.45.05-.35-.27-.63-.61-.54-2.05.55-4.46,2.34-6.9,4.17Z"/>
        <g class="cls-30">
          <path class="cls-60" d="M36.14,18.91c-.32.45-.69,1.07-1.04,1.57-.21.28-.74,1.14-1.01.81C28.64,7.37,57.89,5.07,58.5,5.12c5.38-.44,9.52-.19,13.09.72,9.91,2.54,10.25,9.4,10.26,9.53-.21.32-1.39,1.88-1.58,2.16-.02.02-.03.01-.05,0h0c-.76-1.95-3.07-3.96-4.89-3.76-.08-.03,0-.11.02-.17.28-.41.64-1,.44-1.3-.09-.15-.35-.25-.53-.32-4.2-1.74-8.08-2.28-11,.07-.06,0-.07-.1-.07-.13-.03-.77.33-1.32.64-1.8.29-.5-.17-.68-.59-.52-1.88.58-3.51,2.15-5.7,3.82-.2.16-.39.12-.55-.08-1-1.17-1.65-1.85-2.59-2.6-2.62-2.07-3.36-.52-2.11,1.38.12.23-.17.18-.33.17-4.9-.57-7.79,0-10.03.95-3.93.7-5.93,2.78-6.77,5.69Z"/>
        </g>
        <path class="cls-13" d="M58.09,10.81c-5.39-4.89-6.27-3.59-4.33-.94-5.31-.68-8.69-.27-11.02.74-.23.1-.23.42,0,.52.91.38,1.58.58,1.8,1-3.16.05-5.74,1.12-7.77,3.17-.7.71-1.18,1.62-1.36,2.6-.86,4.68-1.2,9.53-1.12,14.52l4.64,21.24,5.29,7.87c11.99,2.88,24.47,2.49,37.53-1.81,1.85-2.33,3.18-5.8,4.32-9.72l-1.69-25.2c-1.85-1.77-3.68-5.71-5.02-10.44-.27-1.97-1.87-1.59-3.97-.91-.04-.83.29-1.62.9-2.4.4-.51.19-1.26-.41-1.51-4.36-1.84-8.44-1.52-11.36,1.08-.02-1.24.93-2.31,1.09-3.45.05-.35-.27-.63-.61-.54-2.05.55-4.46,2.34-6.9,4.17Z"/>
      </g>
      <ellipse class="cls-60" cx="76.15" cy="34.37" rx="9.69" ry="10.3"/>
      <ellipse class="cls-60" cx="45.31" cy="36.16" rx="10.3" ry="9.69" transform="translate(4.53 77.36) rotate(-83.89)"/>
      <path class="cls-61" d="M57.28,46.02c3.65-1.29,5.37-.52,8.83-2.16l1.27,3.48c-2.49,2.61-9.54.19-10.1-1.32Z"/>
      <g>
        <ellipse class="cls-28" cx="76.15" cy="32.95" rx="9.69" ry="10.3"/>
        <g class="cls-34">
          <ellipse class="cls-56" cx="80.36" cy="29.19" rx="2.2" ry="2.45" transform="translate(-5.13 28.03) rotate(-19.19)"/>
          <path class="cls-61" d="M65.59,36.13l11.35,4.12,10.45-7.29c2.1,14.43-19.69,17.61-21.8,3.18Z"/>
        </g>
        <ellipse class="cls-1" cx="76.15" cy="32.95" rx="9.69" ry="10.3"/>
      </g>
      <g>
        <ellipse class="cls-28" cx="45.31" cy="34.93" rx="10.3" ry="9.43" transform="translate(-6.86 58.4) rotate(-61.85)"/>
        <g class="cls-31">
          <path class="cls-61" d="M35.67,39.51l7.58,4.09,13.23-8.5c2.8,14.59-18.01,19.01-20.81,4.42Z"/>
          <ellipse class="cls-56" cx="43.32" cy="33.56" rx="2.35" ry="2.61"/>
        </g>
        <ellipse class="cls-1" cx="45.31" cy="34.93" rx="10.3" ry="9.43" transform="translate(-6.86 58.4) rotate(-61.85)"/>
      </g>
      <g>
        <path class="cls-26" d="M72.39,66.1c.03,1.85.44,2.89,1.98,3.1,6.39-.41,11.58,2.8,17.66,6.73.87.56,1.35,1.57,1.19,2.59-1.03,6.64-14.34,11.92-17.92,18.65-2.29,2.7-1.85,7.06-4.45,10.96,1.7-6.61-.47-9.28,2.9-13.8-2.3,1.35-3.43,4.71-5.67,6.58.66-3.82,3.12-7.66,6.14-11.74-2.07,1.78-4.28,3.12-6.66,3.93-.16,1.61-1.28,3.61-2.39,5.61.36-2.58.56-5.64.67-7.74.07-1.32.8-2.52,1.95-3.17,6.49-3.7,8.16-1.52,10.66-3.08,4.35-2.6,6.57-6.5,9.78-7.01-9.94,1.57-16.63-2.24-15.85-11.61Z"/>
        <g class="cls-40">
          <g>
            <path class="cls-20" d="M70.16,85.37c-2.97,2.84-1.53,4.96-.2,7.64l-5.41,8.43.32-9.99,2.04-5.7,3.24-.38Z"/>
            <g class="cls-41">
              <path class="cls-67" d="M66.06,88.09c1.42,2.44,1.27,4.42,1.35,7.69l4.03-5.42-1.42-4.38-3.95,2.11Z"/>
            </g>
            <path class="cls-12" d="M70.16,85.37c-2.97,2.84-1.53,4.96-.2,7.64l-5.41,8.43.32-9.99,2.04-5.7,3.24-.38Z"/>
          </g>
          <g>
            <path class="cls-20" d="M70.58,92.57c.15,2.28.21,4.37,1.17,4.63-.75,1.97-3.06,4.99-5.27,7.14.3-3.93,1.94-8.17,4.09-11.77Z"/>
            <g class="cls-42">
              <path class="cls-67" d="M69.41,95.1c.72,1.39.93,2.98.93,4.66l1.91-4.1-.99-2.67-1.85,2.11Z"/>
            </g>
            <path class="cls-12" d="M70.58,92.57c.15,2.28.21,4.37,1.17,4.63-.75,1.97-3.06,4.99-5.27,7.14.3-3.93,1.94-8.17,4.09-11.77Z"/>
          </g>
          <g>
            <path class="cls-20" d="M71.64,97.49c.98,1.1,2.21,1.56,3.77,1.2,1.83,4.72-1.3,8.62-5.46,12.35-.2-5.38-.08-10.41,1.69-13.55Z"/>
            <g class="cls-43">
              <path class="cls-67" d="M70.83,98.02c2.52,1.96,3.81,4.84,4.56,8.12,1.82-1.86,3.05-4.24,1.93-8.66l-5.54-1.3-.95,1.83Z"/>
            </g>
            <path class="cls-12" d="M71.64,97.49c.98,1.1,2.21,1.56,3.77,1.2,1.83,4.72-1.3,8.62-5.46,12.35-.2-5.38-.08-10.41,1.69-13.55Z"/>
          </g>
          <path class="cls-63" d="M74.56,67.07c5.58,7.27,15.71,7.05,16.78,11.01.7,2.62-.5,5.6-3.81,8.12l9.53-6.15c-.5-10.23-10.84-12.16-22.49-12.98Z"/>
          <path class="cls-63" d="M74.56,84.67c6.3,3.45,9.32-2.16,13.68-6.96l-13.68,6.96Z"/>
        </g>
        <path class="cls-9" d="M72.39,66.1c.03,1.85.44,2.89,1.98,3.1,6.39-.41,11.58,2.8,17.66,6.73.87.56,1.35,1.57,1.19,2.59-1.03,6.64-14.34,11.92-17.92,18.65-2.29,2.7-1.85,7.06-4.45,10.96,1.7-6.61-.47-9.28,2.9-13.8-2.3,1.35-3.43,4.71-5.67,6.58.66-3.82,3.12-7.66,6.14-11.74-2.07,1.78-4.28,3.12-6.66,3.93-.16,1.61-1.28,3.61-2.39,5.61.36-2.58.56-5.64.67-7.74.07-1.32.8-2.52,1.95-3.17,6.49-3.7,8.16-1.52,10.66-3.08,4.35-2.6,6.57-6.5,9.78-7.01-9.94,1.57-16.63-2.24-15.85-11.61Z"/>
      </g>
      <path class="cls-27" d="M63.12,35.67c.46.94.89,1.88,1.31,2.83.7,1.96,2.45,6.74,3.19,8.76l.05.14c-.71.86-1.81,1.21-2.87,1.31-1.98.15-3.98-.26-5.78-1.05-.63-.37-1.39-.73-1.72-1.42-.1-.24-.11-.5-.04-.74-.08,1.06,1.18,1.39,1.96,1.71.87.37,1.78.65,2.72.83,1.69.29,3.98.48,5.26-.86,0,0-.05.25-.05.25-.76-2.04-2.45-6.78-3.2-8.75-.29-1-.57-2-.82-3.01h0Z"/>
      <path class="cls-19" d="M41.26,62.3c2.19,4.85,3.52,9.51,3.89,13.71.48-3.34.9-6.78.89-10.58.76,4.41,1,7.95,1.18,10.9.45-2.79.89-8.29,1.49-13.32,3.24,5.49,1.14,17.25.87,26.22,1.37-8.35,2.49-16.82,2.84-25.68,2.52,5.19,3.55,10.98,3.42,17.24.77-5.55.44-13.73.87-16.9,2.71,1.74,3.29,10.43,4.03,15.56.3-5.59.46-10.88.04-15.34,1.34,2.07,2.24,4.65,2.96,7.14.38,2.41,0,5.64.67,8.2.25-3.62.63-5.95,1.14-8.54.22-1.12.72-2.8.21-3.83-.66-1.36-.81-1.72.32-3.69l2.23,2.8c1.5,3.67,1.82,7.56,1.9,11.5,1.1-3.89.67-8.27.23-13.34,2.05,4.51,3.8,9.27,5.38,14.18-.26-5.14-1.09-11.23-2.09-16.02,2.43.6,3.2,6.59,3.53,9.13,1.07-2.66,1.39-6.15.79-10.67,1.39,2.08,2.08,4.13,2.3,6.15.29-2.04.07-4.71-.52-7.81,1.21,6.06,4.38,9.72,4.9,15.62.11-5.69,0-11.72-.53-18.44.92,2.54,1.39,5.69,1.69,9.05.22-3.78.15-7.59-.66-11.48.55,2.3,1.26,3.76,2.12,4.51-.7-1.45-1.23-3.43-1.67-5.7-.27-1.42-1.46-2.45-2.9-2.57-2.33-.2-2.73-2.19-4.47-1.19-3.09-2.43-6.14-1.58-9.19-.3-2.15.19-4.1.9-5.89,2.08-4.74-1.03-7.42-1.85-8.6-.13-2.63-3.2-9.02-1.84-11.74,3.59-2.05,2.2-2.78,4.8-1.65,7.95Z"/>
      <path class="cls-27" d="M55.18,27.59c.46.57.96,1.21,1.4,1.81.12.18.28.47.4.66,0,0,1.59,2.65,1.59,2.65l-.28-.11,6.84-2.5-.18.34c-.02-.15-.07-.37-.09-.57-.25-1.65.48-2.82,1.6-3.61-.42.55-.83,1.2-.98,1.93-.03.16-.09.36-.11.51-.1.56,0,1.1.09,1.66l.03.26-.21.08-6.84,2.5-.17.06c-.37-.62-1.74-2.89-2.09-3.49-.32-.7-.69-1.46-.99-2.17h0Z"/>
      <g>
        <path class="cls-66" d="M48.54,50.95c8.16,1.27,16.57,1.03,25.41-1.68.64,3.16.8,6.09.39,8.77-6.08,2.68-21,3.59-25.78,1.11-.94-2.65.29-4.81,0-8.2Z"/>
        <g class="cls-44">
          <path class="cls-10" d="M49.1,50.46c-.09,1.78.03,3.42.59,4.67,1.15.64,2.32.8,4.26.39.67-.52,1.17-2.5,1.68-4.47l-6.52-.59Z"/>
          <path class="cls-10" d="M55.07,50.4c.34,2.74,1.42,3.89,3.51,5.12,2.41.03,3.41-1.54,3.98-4.26l-7.49-.86Z"/>
          <path class="cls-10" d="M61.98,50.79c.27,2.3.68,4.2,1.54,4.86,1.15.66,2.43.08,4.35-1.01.58-1.36.96-2.79.6-4.45l-6.49.6Z"/>
          <path class="cls-10" d="M73.51,48.81c.49,2.12,1.41,3.33,3.08,2.99,3.27-.68,5.47-4.42,7.46-8.75-.16,5.39-1.43,9.14-3.71,11.5-.96.99-2.34,1.47-3.7,1.22-1.25-.23-2.22-.81-3.26-2.05l.13-4.92Z"/>
          <path class="cls-10" d="M49.13,51.15l.33,3.59c-2.32,4.91-6.47,5.26-8.73,3.39-2.26-1.87-2.64-5.97-3.44-12.43.93,7.77,8,14.09,11.84,5.46Z"/>
          <path class="cls-10" d="M68.47,50.19c.39,1.71.79,3.4,1.41,4.24.11.14.27.24.44.27.77.12,1.69-.24,2.76-1.1.26-.21.44-.49.52-.81.27-1.03.29-2.42.19-3.98l-5.32,1.38Z"/>
          <path class="cls-61" d="M46.03,59.24c11.02-2.33,26.11-3.26,32.11-.55-12.94,5.42-23.7,5.74-32.11.55Z"/>
        </g>
      </g>
      <path class="cls-10" d="M74,50.97c.68,2.18,1.81,2.53,3.49,2.24,3.29-.58,5.09-3.42,7.21-7.69-.32,5.38-1.69,9.09-4.04,11.39-.98.97-2.39,1.4-3.73,1.11-1.25-.27-2.2-.88-3.2-2.14l.27-4.92Z"/>
      <path class="cls-10" d="M48.69,51.45l.83,3.35c-2.32,4.91-6.47,5.26-8.73,3.39s-2.64-5.97-3.44-12.43c.93,7.77,5.27,10.81,11.34,5.7Z"/>
      <path class="cls-65" d="M55.91,25.97c-4.79-3.53-10.56-7.57-13.41-8.17-.96,1.93-1.47,4.03-1.6,6.26-.03.46,1.47,1.46,1.47,1.93,2.96,1.07,6.53,2.34,12.11,4.33l1.43-4.35Z"/>
      <path class="cls-65" d="M64.7,25.75c4.58-3.55,12.77-10.06,15.67-10.94,1.21,1.45.25,3.57.63,5.38.08.37-1.42,1.34-1.38,1.72-3.28.73-7.71,4.06-12.07,6.7l-2.85-2.86Z"/>
      <path class="cls-27" d="M45.73,15.64c4-.38,8-.51,12-.77,3.98-.28,7.97-.54,11.82-1.72-.67.35-1.37.65-2.09.9-1.18.4-2.44.71-3.67.95-5.96,1.06-12.04,1.03-18.06.65h0Z"/>
      <path class="cls-27" d="M51.4,18.23c2.35-.71,4.76-1.23,7.18-1.63,2.43-.38,4.89-.64,7.35-.52-4.79.54-9.75,1.49-14.53,2.15h0Z"/>
      <path class="cls-27" d="M55.94,20.64c3.85-.45,7.76-.67,11.4-2.1-3.17,2.03-7.72,2.38-11.4,2.1h0Z"/>
      <path class="cls-27" d="M55.93,18.45c2.59-1.02,5.71-1.8,8.48-1.18-2.88-.15-5.68.6-8.48,1.18h0Z"/>
      <g>
        <path class="cls-11" d="M69.87,92.12c-.75.38-1.52.71-2.3.98-.16,1.61-1.28,3.61-2.39,5.61.36-2.58.56-5.64.67-7.74.07-1.32.8-2.52,1.95-3.17.38-.21.74-.41,1.08-.59"/>
        <path class="cls-11" d="M71.45,96.64c-1.05,1.45-2.01,3.13-3.37,4.26.38-2.23,1.38-4.46,2.74-6.75"/>
        <path class="cls-11" d="M74.56,98.25c-1.48,2.7-1.43,6.46-3.71,9.88,1.26-4.89.4-7.62,1.23-10.54"/>
        <path class="cls-25" d="M74.31,98.18c.15-.32.48-.54.99-.67l-.72,1.21-.27-.54Z"/>
        <path class="cls-25" d="M69.62,91.96c.29-.2.69-.21,1.19-.06-.48.26-.93.5-1.24.65l.04-.58Z"/>
        <path class="cls-25" d="M71.15,96.61c.17-.31.51-.45,1.02-.54l-.8,1.1-.23-.56Z"/>
        <path class="cls-25" d="M72.31,97.7c.14-.32.09-.67-.14-1.14-.14.38-.28.76-.37,1.11l.51.03Z"/>
        <path class="cls-25" d="M70.93,94.46c.22-.27.26-.62.16-1.14-.24.33-.46.66-.65.98l.49.16Z"/>
        <path class="cls-25" d="M68.9,87.49c.33-.12.57-.44.74-.94l-1.26.63.52.31Z"/>
      </g>
      <g>
        <path class="cls-11" d="M57.74,91.87c.99.78,1.88,1.67,2.87,2.61.98,1.92,2.31,3.3,3.13,4.54-.16-2.84-2.42-6.21-5.51-10.27"/>
        <path class="cls-11" d="M56.23,95.49c1.86,1.82,3.35,4.18,4.41,7.19,0-2.9-.69-5.83-2.97-9.44"/>
        <path class="cls-11" d="M51.17,98.45c2.55,2.98,4.64,6.71,5.92,11.72.6-4.4-1.43-7.84-1.34-11.14.02-.85-.15-1.64-.45-2.46"/>
        <path class="cls-25" d="M58.05,88.91c-.24-.26-.32-.65-.25-1.17l.85,1.12-.6.05Z"/>
        <path class="cls-25" d="M57.52,93.47c-.22-.28-.23-.59-.12-1.11.28.41.52.79.71,1.11h-.6Z"/>
        <path class="cls-25" d="M58.06,91.79c-.27-.32-.6-.3-1.1-.23.29.29.57.47.86.7l.24-.46Z"/>
        <path class="cls-25" d="M55.06,96.66c-.16-.31-.15-.71.06-1.19.22.48.41.93.53,1.31l-.59-.12Z"/>
        <path class="cls-25" d="M51.41,98.34c-.19-.37-.56-.4-1.06-.45.21.35.56.63.72.81l.34-.36Z"/>
        <path class="cls-25" d="M56.42,95.32c-.28-.31-.53-.32-1.03-.25.29.28.5.49.79.72l.24-.47Z"/>
      </g>
    </g>
    <g>
      <g>
        <path class="cls-15" d="M27.97,154.52c-.05,0-.14.01-.25.03-.11.02-.24.04-.37.05-.13.01-.26.03-.37.04-.11.01-.2.01-.25,0-.11-.03-.19-.12-.24-.28-.05-.16-.09-.29-.12-.4-.21-1.16-.35-2.33-.42-3.51-.07-1.18-.08-2.36-.04-3.55s.12-2.37.23-3.56c.11-1.19.24-2.37.37-3.54.03-.16.09-.3.19-.42s.24-.17.41-.14c1.56.21,3.11.44,4.65.68,1.54.24,3.1.45,4.67.62.11.01.18.05.21.12.03.07.05.15.05.25s-.01.21-.04.32c-.03.11-.05.22-.06.31-.07.45-.13.91-.19,1.36-.06.45-.12.91-.19,1.36-.03.15-.12.21-.28.2-.16-.01-.31-.03-.46-.06-.12-.03-.32-.06-.61-.1-.29-.04-.62-.09-1-.15-.38-.06-.78-.12-1.19-.18-.41-.06-.81-.12-1.19-.17s-.71-.1-1-.14c-.29-.04-.49-.07-.61-.08-.13,1.17-.22,2.35-.26,3.53-.04,1.18-.05,2.36-.02,3.53.12,0,.35.01.68.03.33.02.69.04,1.07.05.38.01.74.02,1.07.03s.56,0,.68,0c.03-.27.05-.53.06-.78.01-.25.03-.51.04-.78h-1.59c-.14,0-.23-.05-.27-.14-.04-.08-.06-.24-.05-.47s.02-.48.03-.74c.01-.26.03-.5.05-.73.02-.23.02-.39,0-.48-.01-.05-.01-.11,0-.18.01-.07.04-.11.08-.14.04-.04.11-.06.2-.07.09,0,.19,0,.29,0s.2,0,.29.02c.09.01.17.02.22.02.11.01.34.03.69.04s.73.03,1.12.04.77.03,1.12.04.58.02.69.02c.17.03.34.06.51.09.17.03.23.14.19.31-.04.16-.08.43-.13.8-.05.37-.09.8-.14,1.29-.05.49-.1,1-.15,1.53-.05.53-.1,1.04-.14,1.52-.04.48-.07.91-.1,1.29-.03.38-.05.65-.06.81,0,.07-.02.14-.05.23s-.08.14-.13.17c-.04.03-.12.04-.25.04h-.27c-1.24-.05-2.47-.1-3.7-.14-1.23-.04-2.45.01-3.68.16Z"/>
        <path class="cls-15" d="M49.49,154.44c-.12.03-.35.05-.68.06-.33.01-.69.02-1.07.03-.38,0-.74,0-1.07,0s-.56,0-.68.02c-.05,0-.09-.02-.12-.07-.03-.05-.05-.1-.06-.17v-.17c0-.09,0-.18.01-.28,0-.1,0-.19,0-.28v-.19c-1.16.19-2.31.37-3.46.54-1.15.17-2.3.33-3.46.48h-.15c-.06,0-.1-.01-.13-.04-.05-.05-.09-.15-.1-.29-.01-.14-.03-.24-.04-.31-.07-.6-.11-1.2-.12-1.8-.01-.6-.03-1.2-.06-1.8-.05-1.44-.11-2.88-.18-4.31-.07-1.43-.05-2.87.06-4.31.01-.12.02-.26,0-.42,0-.16,0-.31,0-.46.01-.15.04-.28.09-.4s.13-.19.25-.22c.08-.03.16-.04.25-.05.09,0,.18-.02.27-.05.56-.13,1.13-.19,1.7-.16s1.14.03,1.7.02c.08-.01.16,0,.24.01.08.02.13.06.14.13v.44c-.03.88-.06,1.76-.11,2.63-.05.87-.08,1.75-.11,2.63-.01.09-.02.26-.03.49,0,.23-.01.5-.02.8s-.01.62-.02.96c0,.34-.01.66-.02.96,0,.3-.02.57-.03.8-.01.23-.02.4-.02.49.11-.01.32-.05.63-.1.31-.05.65-.11,1.01-.17.36-.06.7-.11,1.01-.16.31-.05.52-.08.63-.09.03-1.61.03-3.21,0-4.79-.03-1.58-.04-3.17-.04-4.77,0-.17.1-.27.3-.3.12-.01.33-.03.64-.05.31-.02.63-.03.97-.04.34,0,.66,0,.97,0s.52.01.64.04c.07.01.14.02.21,0,.07,0,.14.02.19.07.07.05.09.16.07.31-.02.15-.03.28-.03.37-.03,1.53-.03,3.06-.02,4.58.01,1.52,0,3.05-.06,4.58,0,.13,0,.39,0,.76,0,.37-.02.77-.03,1.18-.01.41-.02.81-.02,1.18s.01.63.04.76c.01.08.03.17.05.28.02.11.03.2.04.29s0,.16-.03.23c-.03.07-.08.11-.16.12Z"/>
        <path class="cls-15" d="M53.34,154.52c-.05,0-.14.01-.25.03-.11.02-.24.04-.37.05-.13.01-.26.03-.37.04-.11.01-.2.01-.25,0-.11-.03-.19-.12-.24-.28-.05-.16-.09-.29-.12-.4-.21-1.16-.35-2.33-.42-3.51-.07-1.18-.08-2.36-.04-3.55s.12-2.37.23-3.56c.11-1.19.24-2.37.37-3.54.03-.16.09-.3.19-.42s.24-.17.41-.14c1.56.21,3.11.44,4.65.68,1.54.24,3.1.45,4.67.62.11.01.18.05.21.12.03.07.05.15.05.25s-.01.21-.04.32c-.03.11-.05.22-.06.31-.07.45-.13.91-.19,1.36-.06.45-.12.91-.19,1.36-.03.15-.12.21-.28.2-.16-.01-.31-.03-.46-.06-.12-.03-.32-.06-.61-.1-.29-.04-.62-.09-1-.15-.38-.06-.78-.12-1.19-.18-.41-.06-.81-.12-1.19-.17s-.71-.1-1-.14c-.29-.04-.49-.07-.61-.08-.13,1.17-.22,2.35-.26,3.53-.04,1.18-.05,2.36-.02,3.53.12,0,.35.01.68.03.33.02.69.04,1.07.05.38.01.74.02,1.07.03s.56,0,.68,0c.03-.27.05-.53.06-.78.01-.25.03-.51.04-.78h-1.59c-.14,0-.23-.05-.27-.14-.04-.08-.06-.24-.05-.47s.02-.48.03-.74c.01-.26.03-.5.05-.73.02-.23.02-.39,0-.48-.01-.05-.01-.11,0-.18.01-.07.04-.11.08-.14.04-.04.11-.06.2-.07.09,0,.19,0,.29,0s.2,0,.29.02c.09.01.17.02.22.02.11.01.34.03.69.04s.73.03,1.12.04.77.03,1.12.04.58.02.69.02c.17.03.34.06.51.09.17.03.23.14.19.31-.04.16-.08.43-.13.8-.05.37-.09.8-.14,1.29-.05.49-.1,1-.15,1.53-.05.53-.1,1.04-.14,1.52-.04.48-.07.91-.1,1.29-.03.38-.05.65-.06.81,0,.07-.02.14-.05.23s-.08.14-.13.17c-.04.03-.12.04-.25.04h-.27c-1.24-.05-2.47-.1-3.7-.14-1.23-.04-2.45.01-3.68.16Z"/>
        <path class="cls-15" d="M74.86,154.44c-.12.03-.35.05-.68.06-.33.01-.69.02-1.07.03-.38,0-.74,0-1.07,0s-.56,0-.68.02c-.05,0-.09-.02-.12-.07-.03-.05-.05-.1-.06-.17v-.17c0-.09,0-.18.01-.28,0-.1,0-.19,0-.28v-.19c-1.16.19-2.31.37-3.46.54-1.15.17-2.3.33-3.46.48h-.15c-.06,0-.1-.01-.13-.04-.05-.05-.09-.15-.1-.29-.01-.14-.03-.24-.04-.31-.07-.6-.11-1.2-.12-1.8-.01-.6-.03-1.2-.06-1.8-.05-1.44-.11-2.88-.18-4.31-.07-1.43-.05-2.87.06-4.31.01-.12.02-.26,0-.42,0-.16,0-.31,0-.46.01-.15.04-.28.09-.4s.13-.19.25-.22c.08-.03.16-.04.25-.05.09,0,.18-.02.27-.05.56-.13,1.13-.19,1.7-.16s1.14.03,1.7.02c.08-.01.16,0,.24.01.08.02.13.06.14.13v.44c-.03.88-.06,1.76-.11,2.63-.05.87-.08,1.75-.11,2.63-.01.09-.02.26-.03.49,0,.23-.01.5-.02.8s-.01.62-.02.96c0,.34-.01.66-.02.96,0,.3-.02.57-.03.8-.01.23-.02.4-.02.49.11-.01.32-.05.63-.1.31-.05.65-.11,1.01-.17.36-.06.7-.11,1.01-.16.31-.05.52-.08.63-.09.03-1.61.03-3.21,0-4.79-.03-1.58-.04-3.17-.04-4.77,0-.17.1-.27.3-.3.12-.01.33-.03.64-.05.31-.02.63-.03.97-.04.34,0,.66,0,.97,0s.52.01.64.04c.07.01.14.02.21,0,.07,0,.14.02.19.07.07.05.09.16.07.31-.02.15-.03.28-.03.37-.03,1.53-.03,3.06-.02,4.58.01,1.52,0,3.05-.06,4.58,0,.13,0,.39,0,.76,0,.37-.02.77-.03,1.18-.01.41-.02.81-.02,1.18s.01.63.04.76c.01.08.03.17.05.28.02.11.03.2.04.29s0,.16-.03.23c-.03.07-.08.11-.16.12Z"/>
        <path class="cls-15" d="M79.22,154.68c-.29.03-.58.05-.87.06-.29.01-.58.01-.87,0-.11,0-.21-.01-.3-.03-.09-.02-.17-.06-.22-.13-.04-.05-.07-.15-.08-.3-.01-.15-.03-.25-.04-.32-.07-.91-.08-1.81-.04-2.7.04-.89.05-1.79.04-2.68,0-.16,0-.44,0-.83,0-.39-.01-.85-.02-1.36,0-.51-.02-1.06-.03-1.64-.01-.58-.02-1.13-.03-1.64,0-.51-.01-.97-.02-1.36,0-.39,0-.67,0-.83,0-.13.09-.22.26-.25s.33-.06.48-.09c.64-.15,1.28-.26,1.92-.33.64-.07,1.28-.17,1.92-.29.11-.03.23-.04.38-.05s.24.04.28.15c.45,1.04.93,2.06,1.44,3.06.53,1.08,1.07,2.15,1.62,3.21s1.09,2.12,1.64,3.19c.01-.6.06-1.19.14-1.76s.15-1.15.2-1.74c.07-.64.12-1.28.16-1.92.04-.64.07-1.28.1-1.92.03-.29.04-.58.05-.87,0-.29.02-.58.05-.89.01-.05.03-.15.05-.29.02-.14.04-.24.07-.29.03-.04.08-.07.17-.09.09-.02.16-.03.23-.03.27.03.53.05.78.08.25.03.51.05.78.06.21,0,.42,0,.63-.02s.42-.01.63,0c.21,0,.39.03.52.1.13.07.22.17.26.32.04.15.03.31-.02.5-.01.09-.05.28-.1.56-.05.28-.11.58-.16.89-.05.31-.1.61-.15.89s-.08.47-.09.56c-.03.21-.06.58-.11,1.1s-.1,1.12-.17,1.8c-.07.68-.13,1.4-.2,2.16s-.13,1.48-.19,2.16c-.06.68-.12,1.28-.17,1.8-.05.52-.09.89-.12,1.1-.03.11-.05.21-.08.3-.03.09-.07.17-.14.24-.09.08-.24.13-.45.16-.21.03-.43.04-.67.04s-.47,0-.7-.03c-.23-.02-.4-.03-.52-.03-.23,0-.45.02-.68.07-.23.05-.45.06-.68.05-.11-.01-.21-.03-.3-.04-.09-.01-.18-.05-.26-.1-.12-.07-.23-.16-.32-.27s-.17-.23-.24-.35c-.72-1.2-1.38-2.42-1.99-3.65s-1.29-2.43-2.05-3.59c0,1.08.05,2.16.14,3.25.09,1.09.2,2.17.32,3.25,0,.04,0,.12.03.23.02.11.04.24.05.37.01.13.03.26.04.38.01.12.02.2.02.24,0,.07-.01.13-.04.18-.03.05-.07.09-.12.12-.08.04-.22.07-.42.08-.2.01-.41.02-.63.02s-.43,0-.64,0c-.21,0-.36-.01-.45-.01Z"/>
      </g>
      <g>
        <path class="cls-14" d="M27.97,152.69c-.05,0-.14.01-.25.03-.11.02-.24.04-.37.05-.13.01-.26.03-.37.04-.11.01-.2.01-.25,0-.11-.03-.19-.12-.24-.28-.05-.16-.09-.29-.12-.4-.21-1.16-.35-2.33-.42-3.51-.07-1.18-.08-2.36-.04-3.55s.12-2.37.23-3.56c.11-1.19.24-2.37.37-3.54.03-.16.09-.3.19-.42s.24-.17.41-.14c1.56.21,3.11.44,4.65.68,1.54.24,3.1.45,4.67.62.11.01.18.05.21.12.03.07.05.15.05.25s-.01.21-.04.32c-.03.11-.05.22-.06.31-.07.45-.13.91-.19,1.36-.06.45-.12.91-.19,1.36-.03.15-.12.21-.28.2-.16-.01-.31-.03-.46-.06-.12-.03-.32-.06-.61-.1-.29-.04-.62-.09-1-.15-.38-.06-.78-.12-1.19-.18-.41-.06-.81-.12-1.19-.17s-.71-.1-1-.14c-.29-.04-.49-.07-.61-.08-.13,1.17-.22,2.35-.26,3.53-.04,1.18-.05,2.36-.02,3.53.12,0,.35.01.68.03.33.02.69.04,1.07.05.38.01.74.02,1.07.03s.56,0,.68,0c.03-.27.05-.53.06-.78.01-.25.03-.51.04-.78h-1.59c-.14,0-.23-.05-.27-.14-.04-.08-.06-.24-.05-.47s.02-.48.03-.74c.01-.26.03-.5.05-.73.02-.23.02-.39,0-.48-.01-.05-.01-.11,0-.18.01-.07.04-.11.08-.14.04-.04.11-.06.2-.07.09,0,.19,0,.29,0s.2,0,.29.02c.09.01.17.02.22.02.11.01.34.03.69.04s.73.03,1.12.04.77.03,1.12.04.58.02.69.02c.17.03.34.06.51.09.17.03.23.14.19.31-.04.16-.08.43-.13.8-.05.37-.09.8-.14,1.29-.05.49-.1,1-.15,1.53-.05.53-.1,1.04-.14,1.52-.04.48-.07.91-.1,1.29-.03.38-.05.65-.06.81,0,.07-.02.14-.05.23s-.08.14-.13.17c-.04.03-.12.04-.25.04h-.27c-1.24-.05-2.47-.1-3.7-.14-1.23-.04-2.45.01-3.68.16Z"/>
        <path class="cls-14" d="M49.49,152.61c-.12.03-.35.05-.68.06-.33.01-.69.02-1.07.03-.38,0-.74,0-1.07,0s-.56,0-.68.02c-.05,0-.09-.02-.12-.07-.03-.05-.05-.1-.06-.17v-.17c0-.09,0-.18.01-.28,0-.1,0-.19,0-.28v-.19c-1.16.19-2.31.37-3.46.54-1.15.17-2.3.33-3.46.48h-.15c-.06,0-.1-.01-.13-.04-.05-.05-.09-.15-.1-.29-.01-.14-.03-.24-.04-.31-.07-.6-.11-1.2-.12-1.8-.01-.6-.03-1.2-.06-1.8-.05-1.44-.11-2.88-.18-4.31-.07-1.43-.05-2.87.06-4.31.01-.12.02-.26,0-.42,0-.16,0-.31,0-.46.01-.15.04-.28.09-.4s.13-.19.25-.22c.08-.03.16-.04.25-.05.09,0,.18-.02.27-.05.56-.13,1.13-.19,1.7-.16s1.14.03,1.7.02c.08-.01.16,0,.24.01.08.02.13.06.14.13v.44c-.03.88-.06,1.76-.11,2.63-.05.87-.08,1.75-.11,2.63-.01.09-.02.26-.03.49,0,.23-.01.5-.02.8s-.01.62-.02.96c0,.34-.01.66-.02.96,0,.3-.02.57-.03.8-.01.23-.02.4-.02.49.11-.01.32-.05.63-.1.31-.05.65-.11,1.01-.17.36-.06.7-.11,1.01-.16.31-.05.52-.08.63-.09.03-1.61.03-3.21,0-4.79-.03-1.58-.04-3.17-.04-4.77,0-.17.1-.27.3-.3.12-.01.33-.03.64-.05.31-.02.63-.03.97-.04.34,0,.66,0,.97,0s.52.01.64.04c.07.01.14.02.21,0,.07,0,.14.02.19.07.07.05.09.16.07.31-.02.15-.03.28-.03.37-.03,1.53-.03,3.06-.02,4.58.01,1.52,0,3.05-.06,4.58,0,.13,0,.39,0,.76,0,.37-.02.77-.03,1.18-.01.41-.02.81-.02,1.18s.01.63.04.76c.01.08.03.17.05.28.02.11.03.2.04.29s0,.16-.03.23c-.03.07-.08.11-.16.12Z"/>
        <path class="cls-14" d="M53.34,152.69c-.05,0-.14.01-.25.03-.11.02-.24.04-.37.05-.13.01-.26.03-.37.04-.11.01-.2.01-.25,0-.11-.03-.19-.12-.24-.28-.05-.16-.09-.29-.12-.4-.21-1.16-.35-2.33-.42-3.51-.07-1.18-.08-2.36-.04-3.55s.12-2.37.23-3.56c.11-1.19.24-2.37.37-3.54.03-.16.09-.3.19-.42s.24-.17.41-.14c1.56.21,3.11.44,4.65.68,1.54.24,3.1.45,4.67.62.11.01.18.05.21.12.03.07.05.15.05.25s-.01.21-.04.32c-.03.11-.05.22-.06.31-.07.45-.13.91-.19,1.36-.06.45-.12.91-.19,1.36-.03.15-.12.21-.28.2-.16-.01-.31-.03-.46-.06-.12-.03-.32-.06-.61-.1-.29-.04-.62-.09-1-.15-.38-.06-.78-.12-1.19-.18-.41-.06-.81-.12-1.19-.17s-.71-.1-1-.14c-.29-.04-.49-.07-.61-.08-.13,1.17-.22,2.35-.26,3.53-.04,1.18-.05,2.36-.02,3.53.12,0,.35.01.68.03.33.02.69.04,1.07.05.38.01.74.02,1.07.03s.56,0,.68,0c.03-.27.05-.53.06-.78.01-.25.03-.51.04-.78h-1.59c-.14,0-.23-.05-.27-.14-.04-.08-.06-.24-.05-.47s.02-.48.03-.74c.01-.26.03-.5.05-.73.02-.23.02-.39,0-.48-.01-.05-.01-.11,0-.18.01-.07.04-.11.08-.14.04-.04.11-.06.2-.07.09,0,.19,0,.29,0s.2,0,.29.02c.09.01.17.02.22.02.11.01.34.03.69.04s.73.03,1.12.04.77.03,1.12.04.58.02.69.02c.17.03.34.06.51.09.17.03.23.14.19.31-.04.16-.08.43-.13.8-.05.37-.09.8-.14,1.29-.05.49-.1,1-.15,1.53-.05.53-.1,1.04-.14,1.52-.04.48-.07.91-.1,1.29-.03.38-.05.65-.06.81,0,.07-.02.14-.05.23s-.08.14-.13.17c-.04.03-.12.04-.25.04h-.27c-1.24-.05-2.47-.1-3.7-.14-1.23-.04-2.45.01-3.68.16Z"/>
        <path class="cls-14" d="M74.86,152.61c-.12.03-.35.05-.68.06-.33.01-.69.02-1.07.03-.38,0-.74,0-1.07,0s-.56,0-.68.02c-.05,0-.09-.02-.12-.07-.03-.05-.05-.1-.06-.17v-.17c0-.09,0-.18.01-.28,0-.1,0-.19,0-.28v-.19c-1.16.19-2.31.37-3.46.54-1.15.17-2.3.33-3.46.48h-.15c-.06,0-.1-.01-.13-.04-.05-.05-.09-.15-.1-.29-.01-.14-.03-.24-.04-.31-.07-.6-.11-1.2-.12-1.8-.01-.6-.03-1.2-.06-1.8-.05-1.44-.11-2.88-.18-4.31-.07-1.43-.05-2.87.06-4.31.01-.12.02-.26,0-.42,0-.16,0-.31,0-.46.01-.15.04-.28.09-.4s.13-.19.25-.22c.08-.03.16-.04.25-.05.09,0,.18-.02.27-.05.56-.13,1.13-.19,1.7-.16s1.14.03,1.7.02c.08-.01.16,0,.24.01.08.02.13.06.14.13v.44c-.03.88-.06,1.76-.11,2.63-.05.87-.08,1.75-.11,2.63-.01.09-.02.26-.03.49,0,.23-.01.5-.02.8s-.01.62-.02.96c0,.34-.01.66-.02.96,0,.3-.02.57-.03.8-.01.23-.02.4-.02.49.11-.01.32-.05.63-.1.31-.05.65-.11,1.01-.17.36-.06.7-.11,1.01-.16.31-.05.52-.08.63-.09.03-1.61.03-3.21,0-4.79-.03-1.58-.04-3.17-.04-4.77,0-.17.1-.27.3-.3.12-.01.33-.03.64-.05.31-.02.63-.03.97-.04.34,0,.66,0,.97,0s.52.01.64.04c.07.01.14.02.21,0,.07,0,.14.02.19.07.07.05.09.16.07.31-.02.15-.03.28-.03.37-.03,1.53-.03,3.06-.02,4.58.01,1.52,0,3.05-.06,4.58,0,.13,0,.39,0,.76,0,.37-.02.77-.03,1.18-.01.41-.02.81-.02,1.18s.01.63.04.76c.01.08.03.17.05.28.02.11.03.2.04.29s0,.16-.03.23c-.03.07-.08.11-.16.12Z"/>
        <path class="cls-14" d="M79.22,152.85c-.29.03-.58.05-.87.06-.29.01-.58.01-.87,0-.11,0-.21-.01-.3-.03-.09-.02-.17-.06-.22-.13-.04-.05-.07-.15-.08-.3-.01-.15-.03-.25-.04-.32-.07-.91-.08-1.81-.04-2.7.04-.89.05-1.79.04-2.68,0-.16,0-.44,0-.83,0-.39-.01-.85-.02-1.36,0-.51-.02-1.06-.03-1.64-.01-.58-.02-1.13-.03-1.64,0-.51-.01-.97-.02-1.36,0-.39,0-.67,0-.83,0-.13.09-.22.26-.25s.33-.06.48-.09c.64-.15,1.28-.26,1.92-.33.64-.07,1.28-.17,1.92-.29.11-.03.23-.04.38-.05s.24.04.28.15c.45,1.04.93,2.06,1.44,3.06.53,1.08,1.07,2.15,1.62,3.21s1.09,2.12,1.64,3.19c.01-.6.06-1.19.14-1.76s.15-1.15.2-1.74c.07-.64.12-1.28.16-1.92.04-.64.07-1.28.1-1.92.03-.29.04-.58.05-.87,0-.29.02-.58.05-.89.01-.05.03-.15.05-.29.02-.14.04-.24.07-.29.03-.04.08-.07.17-.09.09-.02.16-.03.23-.03.27.03.53.05.78.08.25.03.51.05.78.06.21,0,.42,0,.63-.02s.42-.01.63,0c.21,0,.39.03.52.1.13.07.22.17.26.32.04.15.03.31-.02.5-.01.09-.05.28-.1.56-.05.28-.11.58-.16.89-.05.31-.1.61-.15.89s-.08.47-.09.56c-.03.21-.06.58-.11,1.1s-.1,1.12-.17,1.8c-.07.68-.13,1.4-.2,2.16s-.13,1.48-.19,2.16c-.06.68-.12,1.28-.17,1.8-.05.52-.09.89-.12,1.1-.03.11-.05.21-.08.3-.03.09-.07.17-.14.24-.09.08-.24.13-.45.16-.21.03-.43.04-.67.04s-.47,0-.7-.03c-.23-.02-.4-.03-.52-.03-.23,0-.45.02-.68.07-.23.05-.45.06-.68.05-.11-.01-.21-.03-.3-.04-.09-.01-.18-.05-.26-.1-.12-.07-.23-.16-.32-.27s-.17-.23-.24-.35c-.72-1.2-1.38-2.42-1.99-3.65s-1.29-2.43-2.05-3.59c0,1.08.05,2.16.14,3.25.09,1.09.2,2.17.32,3.25,0,.04,0,.12.03.23.02.11.04.24.05.37.01.13.03.26.04.38.01.12.02.2.02.24,0,.07-.01.13-.04.18-.03.05-.07.09-.12.12-.08.04-.22.07-.42.08-.2.01-.41.02-.63.02s-.43,0-.64,0c-.21,0-.36-.01-.45-.01Z"/>
      </g>
      <g>
        <path class="cls-55" d="M28,152.69c-.05,0-.14,0-.25.03s-.24.04-.37.05c-.13.01-.26.03-.37.04-.11.01-.2.01-.25,0-.11-.03-.19-.12-.24-.28-.05-.16-.09-.3-.12-.4-.21-1.17-.36-2.35-.42-3.55-.07-1.19-.08-2.39-.04-3.59.04-1.2.12-2.4.23-3.6.12-1.2.24-2.39.37-3.58.03-.16.09-.3.19-.42.1-.12.24-.17.41-.14,1.58.22,3.14.45,4.7.69,1.56.24,3.13.45,4.72.63.11.01.18.05.21.12.03.07.05.15.05.25s-.01.21-.04.32-.05.22-.06.31c-.07.46-.13.92-.19,1.37s-.12.92-.19,1.37c-.03.15-.12.21-.28.2-.16-.01-.32-.03-.46-.06-.12-.03-.33-.06-.62-.1-.29-.04-.63-.09-1.01-.15s-.79-.12-1.2-.18c-.42-.06-.82-.12-1.2-.17s-.72-.1-1.01-.14c-.29-.04-.5-.07-.62-.08-.13,1.19-.22,2.37-.26,3.57-.04,1.19-.05,2.38-.02,3.57.12,0,.35,0,.69.03s.7.04,1.08.05.74.02,1.08.03.57,0,.69,0c.03-.27.05-.53.06-.79.01-.26.03-.52.04-.79h-1.61c-.14,0-.23-.05-.27-.14-.04-.08-.06-.24-.05-.47,0-.24.02-.48.03-.75s.03-.51.05-.74c.02-.23.02-.39,0-.48-.01-.05-.01-.11,0-.18s.04-.11.08-.14c.04-.04.11-.06.2-.07.09,0,.19,0,.29,0s.2,0,.29.02c.09.01.17.02.22.02.11.01.34.03.7.04.36.01.73.03,1.13.04.4.01.77.03,1.13.04.36.01.59.02.7.02.17.03.35.06.52.09.17.03.23.14.19.31-.04.16-.08.43-.13.81-.05.38-.09.81-.14,1.3-.05.49-.1,1.01-.15,1.55s-.1,1.05-.14,1.54c-.04.49-.07.92-.1,1.3-.03.38-.05.66-.06.82,0,.07-.02.14-.05.23-.03.09-.08.14-.13.17-.04.03-.12.04-.25.04h-.27c-1.25-.05-2.5-.1-3.74-.14-1.24-.04-2.48.01-3.72.16Z"/>
        <path class="cls-55" d="M49.74,152.61c-.12.03-.35.05-.69.06s-.7.02-1.08.03-.74.01-1.08.01-.57,0-.69.02c-.05,0-.09-.02-.12-.07-.03-.05-.05-.1-.06-.17v-.17c0-.09,0-.18,0-.28,0-.1,0-.19,0-.28v-.19c-1.17.19-2.34.37-3.5.55s-2.32.34-3.5.48h-.15c-.06,0-.1-.01-.13-.04-.05-.05-.09-.15-.1-.29-.01-.14-.03-.25-.04-.31-.07-.61-.11-1.21-.12-1.82-.01-.61-.03-1.21-.06-1.82-.05-1.46-.12-2.91-.18-4.35-.07-1.45-.05-2.9.06-4.35.01-.12.02-.26,0-.42,0-.16,0-.32,0-.46s.04-.28.09-.4c.05-.12.13-.2.25-.22.08-.03.17-.04.25-.05.09,0,.18-.02.27-.05.57-.13,1.14-.19,1.72-.16.58.03,1.15.03,1.72.02.08-.01.16,0,.24.01.08.02.13.06.14.13v.44c-.03.89-.06,1.78-.11,2.66-.05.88-.08,1.77-.11,2.66-.01.09-.02.26-.03.5s-.01.5-.02.81c0,.3-.01.63-.02.97,0,.34-.01.67-.02.97,0,.3-.02.57-.03.81-.01.24-.02.4-.02.5.11-.01.32-.05.64-.1s.66-.11,1.02-.17c.36-.06.7-.11,1.02-.16.32-.05.53-.08.64-.09.03-1.63.03-3.24,0-4.84-.03-1.6-.04-3.2-.04-4.82,0-.17.1-.28.3-.3.12-.01.34-.03.65-.05.31-.02.64-.03.98-.04s.67,0,.98,0,.53.01.65.04c.07.01.14.02.21,0,.07,0,.14.02.19.07.07.05.09.16.07.31-.02.16-.03.28-.03.37-.03,1.55-.03,3.09-.02,4.63.01,1.54,0,3.08-.06,4.63,0,.13,0,.39,0,.77,0,.38-.02.77-.03,1.19-.01.42-.02.82-.02,1.19s.01.63.04.77c.01.08.03.18.05.28.02.11.03.21.04.29s0,.17-.03.23-.08.11-.16.12Z"/>
        <path class="cls-55" d="M53.62,152.69c-.05,0-.14,0-.25.03s-.24.04-.37.05c-.13.01-.26.03-.37.04-.11.01-.2.01-.25,0-.11-.03-.19-.12-.24-.28-.05-.16-.09-.3-.12-.4-.21-1.17-.36-2.35-.42-3.55-.07-1.19-.08-2.39-.04-3.59.04-1.2.12-2.4.23-3.6.12-1.2.24-2.39.37-3.58.03-.16.09-.3.19-.42.1-.12.24-.17.41-.14,1.58.22,3.14.45,4.7.69,1.56.24,3.13.45,4.72.63.11.01.18.05.21.12.03.07.05.15.05.25s-.01.21-.04.32-.05.22-.06.31c-.07.46-.13.92-.19,1.37s-.12.92-.19,1.37c-.03.15-.12.21-.28.2-.16-.01-.32-.03-.46-.06-.12-.03-.33-.06-.62-.1-.29-.04-.63-.09-1.01-.15s-.79-.12-1.2-.18c-.42-.06-.82-.12-1.2-.17s-.72-.1-1.01-.14c-.29-.04-.5-.07-.62-.08-.13,1.19-.22,2.37-.26,3.57-.04,1.19-.05,2.38-.02,3.57.12,0,.35,0,.69.03s.7.04,1.08.05.74.02,1.08.03.57,0,.69,0c.03-.27.05-.53.06-.79.01-.26.03-.52.04-.79h-1.61c-.14,0-.23-.05-.27-.14-.04-.08-.06-.24-.05-.47,0-.24.02-.48.03-.75s.03-.51.05-.74c.02-.23.02-.39,0-.48-.01-.05-.01-.11,0-.18s.04-.11.08-.14c.04-.04.11-.06.2-.07.09,0,.19,0,.29,0s.2,0,.29.02c.09.01.17.02.22.02.11.01.34.03.7.04.36.01.73.03,1.13.04.4.01.77.03,1.13.04.36.01.59.02.7.02.17.03.35.06.52.09.17.03.23.14.19.31-.04.16-.08.43-.13.81-.05.38-.09.81-.14,1.3-.05.49-.1,1.01-.15,1.55s-.1,1.05-.14,1.54c-.04.49-.07.92-.1,1.3-.03.38-.05.66-.06.82,0,.07-.02.14-.05.23-.03.09-.08.14-.13.17-.04.03-.12.04-.25.04h-.27c-1.25-.05-2.5-.1-3.74-.14-1.24-.04-2.48.01-3.72.16Z"/>
        <path class="cls-55" d="M75.36,152.61c-.12.03-.35.05-.69.06s-.7.02-1.08.03-.74.01-1.08.01-.57,0-.69.02c-.05,0-.09-.02-.12-.07-.03-.05-.05-.1-.06-.17v-.17c0-.09,0-.18,0-.28,0-.1,0-.19,0-.28v-.19c-1.17.19-2.34.37-3.5.55s-2.32.34-3.5.48h-.15c-.06,0-.1-.01-.13-.04-.05-.05-.09-.15-.1-.29-.01-.14-.03-.25-.04-.31-.07-.61-.11-1.21-.12-1.82-.01-.61-.03-1.21-.06-1.82-.05-1.46-.12-2.91-.18-4.35-.07-1.45-.05-2.9.06-4.35.01-.12.02-.26,0-.42,0-.16,0-.32,0-.46s.04-.28.09-.4c.05-.12.13-.2.25-.22.08-.03.17-.04.25-.05.09,0,.18-.02.27-.05.57-.13,1.14-.19,1.72-.16.58.03,1.15.03,1.72.02.08-.01.16,0,.24.01.08.02.13.06.14.13v.44c-.03.89-.06,1.78-.11,2.66-.05.88-.08,1.77-.11,2.66-.01.09-.02.26-.03.5s-.01.5-.02.81c0,.3-.01.63-.02.97,0,.34-.01.67-.02.97,0,.3-.02.57-.03.81-.01.24-.02.4-.02.5.11-.01.32-.05.64-.1s.66-.11,1.02-.17c.36-.06.7-.11,1.02-.16.32-.05.53-.08.64-.09.03-1.63.03-3.24,0-4.84-.03-1.6-.04-3.2-.04-4.82,0-.17.1-.28.3-.3.12-.01.34-.03.65-.05.31-.02.64-.03.98-.04s.67,0,.98,0,.53.01.65.04c.07.01.14.02.21,0,.07,0,.14.02.19.07.07.05.09.16.07.31-.02.16-.03.28-.03.37-.03,1.55-.03,3.09-.02,4.63.01,1.54,0,3.08-.06,4.63,0,.13,0,.39,0,.77,0,.38-.02.77-.03,1.19-.01.42-.02.82-.02,1.19s.01.63.04.77c.01.08.03.18.05.28.02.11.03.21.04.29s0,.17-.03.23-.08.11-.16.12Z"/>
        <path class="cls-55" d="M79.76,152.85c-.3.03-.59.05-.88.06-.29.01-.58.01-.88,0-.11,0-.21,0-.3-.03-.09-.02-.17-.06-.22-.13-.04-.05-.07-.16-.08-.3-.01-.15-.03-.26-.04-.32-.07-.92-.08-1.83-.04-2.73.04-.9.05-1.8.04-2.71,0-.16,0-.44,0-.84s-.01-.86-.02-1.37-.02-1.07-.03-1.66-.02-1.14-.03-1.66-.01-.98-.02-1.37c0-.4-.01-.68-.01-.84,0-.13.09-.22.26-.25.17-.03.34-.06.49-.09.65-.15,1.29-.26,1.94-.33.65-.07,1.29-.17,1.94-.29.11-.03.24-.04.38-.05.15,0,.24.04.28.15.46,1.05.94,2.08,1.46,3.09.54,1.09,1.08,2.17,1.64,3.24.55,1.07,1.1,2.15,1.66,3.22.01-.61.06-1.2.14-1.78.08-.58.15-1.16.2-1.76.07-.65.12-1.29.16-1.94.04-.65.07-1.29.1-1.94.03-.3.04-.59.05-.88s.02-.59.05-.9c.01-.05.03-.15.05-.29.02-.14.04-.24.07-.29.03-.04.08-.07.17-.09.09-.02.16-.03.23-.03.27.03.53.05.79.08.26.03.52.05.79.06.22,0,.43,0,.64-.02s.42-.01.64,0c.21,0,.39.03.53.1s.22.17.26.32c.04.15.03.32-.02.5-.01.09-.05.28-.1.57-.05.28-.11.58-.16.9s-.1.62-.15.9c-.05.28-.08.47-.09.57-.03.22-.06.59-.11,1.11s-.1,1.13-.17,1.82c-.07.69-.13,1.41-.2,2.18-.07.77-.13,1.5-.19,2.18-.06.69-.12,1.29-.17,1.82s-.09.9-.12,1.11c-.03.11-.05.21-.08.3-.03.09-.07.17-.14.24-.09.08-.25.13-.45.16-.21.03-.43.04-.68.04s-.48-.01-.71-.03c-.23-.02-.4-.03-.53-.03-.23,0-.46.02-.69.07-.23.05-.46.06-.69.05-.11-.01-.21-.03-.3-.04-.09-.01-.18-.05-.26-.1-.12-.07-.23-.16-.32-.27-.09-.11-.17-.23-.24-.35-.73-1.21-1.4-2.44-2.01-3.69s-1.3-2.46-2.07-3.63c0,1.09.05,2.19.14,3.28.09,1.1.2,2.19.32,3.28,0,.04.01.12.03.23.02.11.04.24.05.37s.03.26.04.38.02.2.02.24c0,.07-.01.13-.04.18-.03.05-.07.09-.12.12-.08.04-.22.07-.42.08s-.41.02-.64.02-.44,0-.65,0c-.21,0-.36-.01-.45-.01Z"/>
      </g>
    </g>
  </g>
</svg>