<?xml version="1.0" encoding="UTF-8"?>
<svg id="Layer_2" data-name="Layer 2" xmlns="http://www.w3.org/2000/svg" xmlns:xlink="http://www.w3.org/1999/xlink" viewBox="0 0 515.09 960.14">
  <defs>
    <style>
      .cls-1, .cls-2, .cls-3 {
        fill: #fffdf5;
      }

      .cls-4 {
        fill: #1c140e;
      }

      .cls-5 {
        opacity: .8;
      }

      .cls-5, .cls-6 {
        fill: #281e16;
      }

      .cls-7 {
        fill: #ede8d6;
      }

      .cls-8, .cls-9, .cls-10, .cls-2, .cls-3, .cls-11, .cls-12, .cls-13, .cls-14, .cls-15, .cls-16, .cls-17, .cls-18 {
        stroke-miterlimit: 10;
      }

      .cls-8, .cls-9, .cls-12, .cls-13, .cls-14, .cls-15, .cls-16, .cls-17, .cls-18 {
        stroke-width: 3px;
      }

      .cls-8, .cls-19 {
        fill: #f9f9f9;
      }

      .cls-8, .cls-18 {
        stroke: #c6c6c6;
      }

      .cls-9, .cls-10, .cls-11, .cls-14, .cls-16, .cls-18 {
        fill: none;
      }

      .cls-9, .cls-12 {
        stroke: #33271d;
      }

      .cls-10 {
        stroke-width: 3.1px;
      }

      .cls-10, .cls-2, .cls-3, .cls-11 {
        stroke: #ede8d6;
      }

      .cls-20 {
        fill: #a3697b;
      }

      .cls-21 {
        fill: #352a21;
      }

      .cls-2 {
        stroke-width: 2.28px;
      }

      .cls-3, .cls-11 {
        stroke-width: 2px;
      }

      .cls-22 {
        clip-path: url(#clippath-17);
      }

      .cls-23 {
        clip-path: url(#clippath-19);
      }

      .cls-24 {
        clip-path: url(#clippath-11);
      }

      .cls-25 {
        clip-path: url(#clippath-16);
      }

      .cls-26 {
        clip-path: url(#clippath-18);
      }

      .cls-27 {
        clip-path: url(#clippath-10);
      }

      .cls-28 {
        clip-path: url(#clippath-15);
      }

      .cls-29 {
        clip-path: url(#clippath-13);
      }

      .cls-30 {
        clip-path: url(#clippath-14);
      }

      .cls-31 {
        clip-path: url(#clippath-12);
      }

      .cls-32 {
        clip-path: url(#clippath-20);
      }

      .cls-33 {
        clip-path: url(#clippath-1);
      }

      .cls-34 {
        clip-path: url(#clippath-3);
      }

      .cls-35 {
        clip-path: url(#clippath-4);
      }

      .cls-36 {
        clip-path: url(#clippath-2);
      }

      .cls-37 {
        clip-path: url(#clippath-7);
      }

      .cls-38 {
        clip-path: url(#clippath-6);
      }

      .cls-39 {
        clip-path: url(#clippath-9);
      }

      .cls-40 {
        clip-path: url(#clippath-8);
      }

      .cls-41 {
        clip-path: url(#clippath-5);
      }

      .cls-42 {
        fill: #4c392a;
      }

      .cls-43, .cls-12, .cls-13 {
        fill: #3e3023;
      }

      .cls-44 {
        fill: #191918;
      }

      .cls-45 {
        opacity: .2;
      }

      .cls-45, .cls-46 {
        fill: #20164c;
      }

      .cls-46 {
        opacity: .3;
      }

      .cls-13 {
        stroke: #2d221a;
      }

      .cls-14, .cls-15 {
        stroke: #c1859b;
      }

      .cls-47 {
        fill: #f3eeff;
        opacity: .15;
      }

      .cls-15, .cls-17, .cls-48 {
        fill: #d48ca0;
      }

      .cls-49 {
        fill: #0c0812;
      }

      .cls-50 {
        fill: #b33c33;
      }

      .cls-16, .cls-17 {
        stroke: #a3697b;
      }

      .cls-51 {
        fill: #e5ddc3;
      }

      .cls-52 {
        clip-path: url(#clippath);
      }
    </style>
    <clipPath id="clippath">
      <path class="cls-15" d="M356.32,903.54c24.29,4.13,46.95,9.46,57.81,23.53-14.78,5.33-22.09.78-28.16.6-22.1-4.31-28.97-13.27-29.65-24.13Z"/>
    </clipPath>
    <clipPath id="clippath-1">
      <path class="cls-15" d="M109.45,828.17c-5.34,25.78-47.24,30.53-51.14,40.66,5.93,2.69,12.26,3.86,19.34,2.26-7.48,4.3-14.85,9.23-16.51,14.81,9.5.05,20.29-3.75,30.26-6.67-6.85,5.98-10.97,10.77-13.15,18.24,12.95-2.72,24.66-4.67,36.03-10.1-4.89,8.43-9.13,16.36-10.88,22.33-.33,1.13.63,2.23,1.8,2.04,10.61-1.72,18.45-7.31,26.68-14.61,16.77-19.54,32.41-36.45,42.45-40.28l6.61-28.66c-25.8-9.78-49.43-8.77-71.49,0Z"/>
    </clipPath>
    <clipPath id="clippath-2">
      <path class="cls-15" d="M306.12,845.92c6.49,31.55-19.42,33.16-19.42,41.28-5.26,14.39,10.47,25.67,43.88,36.65,3.43,1.13,7.74,1.03,11.33,1.69,3.43.64,6.84,1.39,10.22,2.26,5.66,1.47,11.22,3.3,16.69,5.38,8.67,3.29,17.15,7.39,26.25,9.43,4.41.99,10.41,2.27,14.83,1.17-5.51-9.56-13.15-16.91-22.36-22.88-9.76-6.33-22.61-8.4-28.26-19.17-1.49-2.84-3-5.72-3.61-8.86-1.34-6.82.94-14.39,3.89-20.5.89-1.83,9.03-18.38,9.94-18.26,0,0-63.36-8.19-63.36-8.19Z"/>
    </clipPath>
    <clipPath id="clippath-3">
      <path class="cls-12" d="M303.06,693.08c7.84,26.79,16.66,50.07,24.23,63.46,1.18-3.25.78-5.87,3.8-6.08,10.92,23.96,8.14,39.48-5.82,50.25-5.11,18.72-18.01,35.24-31.63,51.56-1.15,5.08-2.04,12.59,1.93,15.5,6.23.49,11.18-3.47,13.34-8.37.57,5.68,2.45,9.18,6.61,8.9,3.15-2.61,5.29-6,6.11-10.43,1.15,7.74,4.66,13.76,10.94,17.81.94-2.3,2.13-4.37,4.33-5.6-.12,3.33.62,6.13,3.82,7.38,12.24-6.75,22.98-9.42,28.24,2.8.08-44.44,31.54-47.25,36.64-82.09,13.06-15.94,10.3-55.55,20.61-75.82-3.27-20.13-10.7-38.68-21.63-55.89l-101.51,26.63Z"/>
    </clipPath>
    <clipPath id="clippath-4">
      <path class="cls-12" d="M190.61,679.08c-4.45,25.17-10.18,45.56-17.13,61.4-24.24,47.35-63.46,58.3-81.37,89.93-1.72,3.04-.14,6.97,3.23,7.88,6.57,1.79,14.96.06,27.94-10.54-1.53,4.99-3.14,9.58-4.83,13.74,10.53-3.12,18.53-7.86,23.15-14.76-6.38,9.57-9.36,17.86-8.9,24.85,10.66-9.41,2.14,12.21,21.12,7.38,4.38-6.96,9-13.51,16.28-15.52-9.42,18.28-5.93,26.86,11.19,25.19-3.2-5.23-1.57-12.13,6.11-21.12-3.48,11.21-4.33,19.9,6.61,17.3-4.38-19.41,10.35,4.02,23.66-10.43-.69-16.26-2.72-32.05-1.33-50.22.94-12.26,5.18-24.03,12.27-34.08,15.01-21.26,31.81-39.58,51.99-52.33-19.15-38.81-48.15-54.08-89.98-38.67Z"/>
    </clipPath>
    <clipPath id="clippath-5">
      <path class="cls-12" d="M52.63,243.86c-2.6,81.4,15.4,114.36,19.03,162.03.33,4.28,1.24,8.5,2.63,12.56,10.49,30.54,4.34,34.64-1.23,44.88,12.04-2.58,23.99,8.37,35.87,31.29l349.06-18.32c24.35-13.33,35.52-33.45,35.11-59.53-17.64-32.05-32.69-69.14-45.03-111.5,9.5,5.18,18.26,16.53,26.46,32.63-27.63-78.38-4.48-174.26-80.77-267.27C347.59.92,247.47-11.72,182.41,13.4c13.98,1.59,27.06,3.33,33.07,6.23-23.74-.82-47.55,4.8-71.43,17.81-60.86,7.38-117.3,70.67-126.11,146.23,4.84-6.18,10.49-20.78,17.66-25.06-12.02,38.79-10.17,79.99-.83,109.55,6.1-8.49,13.29-23.54,17.85-24.3Z"/>
    </clipPath>
    <clipPath id="clippath-6">
      <path class="cls-12" d="M220,391.17l-.95,26.37c-39.7,14.58-72.61,31.94-92.71,54.53,11.51,30.91,27.5,50.1,46.83,60.55,16.46,68.21-48.2,37.08-23.34,102.36,6.57,11.34-5.47,15.19-.23,27.75,4.32,11.32,9.21,20.7,15.07,26.78,14.67-6.78,29.4.57,38.67-6.11,2,14.58,7.6,28.87,16.66,42.87,5.68.52,12.51-1.18,20.23-4.58,2.96,4.93,6.22,8.68,9.92,10.69,23.27-2.36,40.82-10.29,47.7-28.62l7,1.27c87.01,41.98,73.53-33.33,107.11-31.8,18.76,4.77,21.94-56.35,12.98-77.72-20.26-25.34-29.18-49.06-29.07-71.49l53.07-69.58-93.46-35.87c-11.48-7.04-15.44-18.16-11.45-33.58l-124.03,6.19Z"/>
    </clipPath>
    <clipPath id="clippath-7">
      <path class="cls-3" d="M312.91,525.52c-.39-10.13-10.74-12.93-19.19-17.62-1.92-1.06.59-3.99,2.78-3.85,20,1.3,39.37,2.39,56.1,5.06-10.98,7.94-24.35,13.26-39.69,16.41Z"/>
    </clipPath>
    <clipPath id="clippath-8">
      <path class="cls-3" d="M201.13,500.34c17.31,3.91,34.1,8.21,47.32,15.2,19.32-8.42,17.24-34.31,40.93-33.99.62,0,.9-.8.38-1.15-16.44-11.2-40.69,13.66-88.64,19.94Z"/>
    </clipPath>
    <clipPath id="clippath-9">
      <path class="cls-12" d="M219.62,396.93c-6.11,29.39-43.82,15.11-59.53,24.04-11.7,10.75-26.47,14.39-31.67,27.48-32.9,24.36-38.67,46.75-14.63,59.66,51.84,34.45,116.13,56.39,138.53,143.87,3.56-26.03-8.49-46.38-7.95-65.96.3-10.79-4.78-20.25-11.13-32.12,17.62,11.59,31.34,29,40.07,53.81-.06-21.1-6.17-42.58-28.53-71.36,11.09,5.62,18.98,13.95,28.34,22.77,5.82,11.33,13.68,19.5,18.51,26.84-1.04-18.4-16.98-40.6-37.95-67.78-2.4-3.1-5.45-5.67-8.98-7.38-24.72-12.02-51.3-15.98-78.75-16.17-13.59-3.61-22.6-11.06-29.13-20.61,49.86-.18,104.5-17.27,82.81-77.09Z"/>
    </clipPath>
    <clipPath id="clippath-10">
      <path class="cls-3" d="M257.27,515.11c4.5,17.91,1.22,26.3-1.95,31.08l40.37,58.03-.19-41.22-38.23-47.89Z"/>
    </clipPath>
    <clipPath id="clippath-11">
      <path class="cls-3" d="M257.11,548.77c-2.74,6.48-6.49,12.75-11.53,18.75l33.82,66.59c1.62-32.66-1.6-63.08-22.29-85.34Z"/>
    </clipPath>
    <clipPath id="clippath-12">
      <path class="cls-3" d="M211.6,583.93c13.26-1.56,24.5-6.25,32.64-15.76,5.58,6.15,7.88,16.74,8.19,30.01,10.65,17.02,3.91,44.11-.25,69.71-9.88-29.73-22.16-58.31-40.58-83.96Z"/>
    </clipPath>
    <clipPath id="clippath-13">
      <path class="cls-17" d="M258.2,63.99c-31.89-28.92-37.12-21.26-25.61-5.55-31.44-4.04-51.43-1.58-65.23,4.41-1.35.58-1.36,2.49,0,3.06,5.36,2.26,9.35,3.42,10.66,5.89-18.69.3-33.97,6.64-45.99,18.76-4.17,4.2-6.98,9.56-8.05,15.38-5.1,27.67-7.12,56.38-6.63,85.94l27.48,125.68,31.29,46.56c70.96,17.06,144.81,14.72,222.11-10.69,10.96-13.77,18.84-34.34,25.55-57.5l-9.99-149.11c-10.98-10.46-21.75-33.82-29.72-61.76-1.62-11.63-11.09-9.43-23.49-5.39-.25-4.88,1.72-9.6,5.31-14.19,2.36-3.02,1.11-7.44-2.42-8.93-25.78-10.88-49.93-9-67.26,6.41-.11-7.36,5.5-13.7,6.45-20.44.29-2.05-1.61-3.74-3.61-3.21-12.13,3.23-26.42,13.84-40.83,24.66Z"/>
    </clipPath>
    <clipPath id="clippath-14">
      <ellipse class="cls-8" cx="365.05" cy="195.02" rx="57.34" ry="60.97"/>
    </clipPath>
    <clipPath id="clippath-15">
      <ellipse class="cls-8" cx="182.53" cy="206.7" rx="60.97" ry="55.84" transform="translate(-85.83 270.13) rotate(-61.85)"/>
    </clipPath>
    <clipPath id="clippath-16">
      <path class="cls-12" d="M342.84,391.17c.15,10.95,2.57,17.08,11.7,18.32,37.81-2.43,68.54,16.59,104.52,39.85,5.12,3.31,7.99,9.3,7.06,15.32-6.09,39.3-84.84,70.56-106.07,110.37-13.55,15.96-10.94,41.79-26.33,64.88,10.05-39.12-2.76-54.9,17.17-81.67-13.58,7.99-20.31,27.9-33.58,38.93,3.89-22.6,18.45-45.34,36.34-69.46-12.24,10.55-25.32,18.45-39.39,23.28-.93,9.51-7.58,21.38-14.12,33.2,2.13-15.24,3.29-33.36,3.98-45.8.43-7.81,4.76-14.89,11.56-18.76,38.4-21.87,48.32-8.99,63.08-18.26,25.76-15.39,38.86-38.45,57.88-41.47-58.83,9.3-98.43-13.26-93.8-68.73Z"/>
    </clipPath>
    <clipPath id="clippath-17">
      <path class="cls-3" d="M329.64,505.24c-17.57,16.81-9.05,29.36-1.2,45.24l-31.99,49.87,1.91-59.15,12.08-33.71,19.2-2.25Z"/>
    </clipPath>
    <clipPath id="clippath-18">
      <path class="cls-3" d="M332.13,547.87c.88,13.5,1.27,25.86,6.93,27.38-4.45,11.64-18.1,29.52-31.17,42.27,1.78-23.24,11.45-48.36,24.23-69.65Z"/>
    </clipPath>
    <clipPath id="clippath-19">
      <path class="cls-3" d="M338.37,576.95c5.8,6.49,13.1,9.21,22.32,7.11,10.82,27.93-7.72,51.01-32.31,73.08-1.16-31.86-.5-61.64,9.99-80.19Z"/>
    </clipPath>
    <clipPath id="clippath-20">
      <path class="cls-50" d="M201.68,301.53c48.28,7.54,98.08,6.08,150.36-9.92,3.76,18.68,4.71,36.06,2.29,51.9-36,15.83-124.3,21.27-152.59,6.58-5.54-15.67,1.72-28.49-.06-48.56Z"/>
    </clipPath>
  </defs>
  <g id="genderuwu">
    <g>
      <g>
        <path class="cls-48" d="M356.32,903.54c24.29,4.13,46.95,9.46,57.81,23.53-14.78,5.33-22.09.78-28.16.6-22.1-4.31-28.97-13.27-29.65-24.13Z"/>
        <g class="cls-52">
          <path class="cls-2" d="M379.25,901.57c7.55,10.91,8.19,23.82,7.54,37.1l40.57-7.82c-6.7-16.32-25.23-24.33-48.11-29.27Z"/>
        </g>
        <path class="cls-14" d="M356.32,903.54c24.29,4.13,46.95,9.46,57.81,23.53-14.78,5.33-22.09.78-28.16.6-22.1-4.31-28.97-13.27-29.65-24.13Z"/>
      </g>
      <g>
        <path class="cls-48" d="M109.45,828.17c-5.34,25.78-47.24,30.53-51.14,40.66,5.93,2.69,12.26,3.86,19.34,2.26-7.48,4.3-14.85,9.23-16.51,14.81,9.5.05,20.29-3.75,30.26-6.67-6.85,5.98-10.97,10.77-13.15,18.24,12.95-2.72,24.66-4.67,36.03-10.1-4.89,8.43-9.13,16.36-10.88,22.33-.33,1.13.63,2.23,1.8,2.04,10.61-1.72,18.45-7.31,26.68-14.61,16.77-19.54,32.41-36.45,42.45-40.28l6.61-28.66c-25.8-9.78-49.43-8.77-71.49,0Z"/>
        <g class="cls-33">
          <path class="cls-45" d="M69.17,850.05c57.16-9.24,88.88,17.05,81.37,46.81l71.11-64.37-102.02-37.65-50.46,55.21Z"/>
          <path class="cls-3" d="M108.31,892.03c7.28,6.08,15.91,5.41,30.53,1.1-10.05,17.33-22.37,24.5-40.33,23.83-.07-10.35,1.87-19.47,9.8-24.93Z"/>
          <path class="cls-3" d="M82.9,884.65c13.66-1.69,22.07.81,25.41,7.38l-36.38,13.23c-.29-8.27,2.82-15.33,10.97-20.61Z"/>
          <path class="cls-3" d="M73.36,872.54c1.52,5.44,4.9,9.32,9.54,12.12l-26.24,5.53c.33-9.51,5.57-15.61,16.7-17.65Z"/>
          <path class="cls-3" d="M74.88,853.93c-5.05,6.46-4.31,11.72-1.53,18.6l-20.89-.76c1.63-9.54,10.29-14.76,22.42-17.84Z"/>
        </g>
        <path class="cls-14" d="M109.45,828.17c-5.34,25.78-47.24,30.53-51.14,40.66,5.93,2.69,12.26,3.86,19.34,2.26-7.48,4.3-14.85,9.23-16.51,14.81,9.5.05,20.29-3.75,30.26-6.67-6.85,5.98-10.97,10.77-13.15,18.24,12.95-2.72,24.66-4.67,36.03-10.1-4.89,8.43-9.13,16.36-10.88,22.33-.33,1.13.63,2.23,1.8,2.04,10.61-1.72,18.45-7.31,26.68-14.61,16.77-19.54,32.41-36.45,42.45-40.28l6.61-28.66c-25.8-9.78-49.43-8.77-71.49,0Z"/>
      </g>
      <g>
        <path class="cls-48" d="M306.12,845.92c6.49,31.55-19.42,33.16-19.42,41.28-5.26,14.39,10.47,25.67,43.88,36.65,3.43,1.13,7.74,1.03,11.33,1.69,3.43.64,6.84,1.39,10.22,2.26,5.66,1.47,11.22,3.3,16.69,5.38,8.67,3.29,17.15,7.39,26.25,9.43,4.41.99,10.41,2.27,14.83,1.17-5.51-9.56-13.15-16.91-22.36-22.88-9.76-6.33-22.61-8.4-28.26-19.17-1.49-2.84-3-5.72-3.61-8.86-1.34-6.82.94-14.39,3.89-20.5.89-1.83,9.03-18.38,9.94-18.26,0,0-63.36-8.19-63.36-8.19Z"/>
        <g class="cls-36">
          <path class="cls-45" d="M272.8,887.37c44.34-13.85,72.2-10,104.43,10.24l20.29-68.78-108.39-2.32-16.33,60.86Z"/>
          <path class="cls-2" d="M360.71,935.33c14.55-7.66,21.55-17.57,24.52-28.69l44.6,34.34-26.95,17.82-42.17-23.47Z"/>
        </g>
        <path class="cls-14" d="M306.12,845.92c6.49,31.55-19.42,33.16-19.42,41.28-5.26,14.39,10.47,25.67,43.88,36.65,3.43,1.13,7.74,1.03,11.33,1.69,3.43.64,6.84,1.39,10.22,2.26,5.66,1.47,11.22,3.3,16.69,5.38,8.67,3.29,17.15,7.39,26.25,9.43,4.41.99,10.41,2.27,14.83,1.17-5.51-9.56-13.15-16.91-22.36-22.88-9.76-6.33-22.61-8.4-28.26-19.17-1.49-2.84-3-5.72-3.61-8.86-1.34-6.82.94-14.39,3.89-20.5.89-1.83,9.03-18.38,9.94-18.26,0,0-63.36-8.19-63.36-8.19Z"/>
      </g>
      <g>
        <path class="cls-43" d="M303.06,693.08c7.84,26.79,16.66,50.07,24.23,63.46,1.18-3.25.78-5.87,3.8-6.08,10.92,23.96,8.14,39.48-5.82,50.25-5.11,18.72-18.01,35.24-31.63,51.56-1.15,5.08-2.04,12.59,1.93,15.5,6.23.49,11.18-3.47,13.34-8.37.57,5.68,2.45,9.18,6.61,8.9,3.15-2.61,5.29-6,6.11-10.43,1.15,7.74,4.66,13.76,10.94,17.81.94-2.3,2.13-4.37,4.33-5.6-.12,3.33.62,6.13,3.82,7.38,12.24-6.75,22.98-9.42,28.24,2.8.08-44.44,31.54-47.25,36.64-82.09,13.06-15.94,10.3-55.55,20.61-75.82-3.27-20.13-10.7-38.68-21.63-55.89l-101.51,26.63Z"/>
        <g class="cls-34">
          <g>
            <path class="cls-6" d="M376.02,751.18c-7.03,32.71-27.58,76.18-31.99,100.49,10.41-23.71,29.56-67.77,31.99-100.49Z"/>
            <path class="cls-6" d="M335.13,704.59c18.14,25.35,25.14,83.87,7.96,106.38,9.74-15.33,12.25-74.52-7.96-106.38Z"/>
            <path class="cls-6" d="M349.81,814.58c-10.24,14.07-17.13,30.19-22.38,47.31l22.38-47.31Z"/>
            <path class="cls-6" d="M383.78,768.69c2.24-22.67-.65-46.25-7.76-70.51,3.45,24.75,6.08,48.32,7.76,70.51Z"/>
            <path class="cls-6" d="M393.32,769.06c4.18-14.86,3.39-36.37-5.1-68.22,4.93,27.53,6.85,50.59,5.1,68.22Z"/>
            <path class="cls-6" d="M340.31,765.66c-4.09-10.5-11.51-30.34-22.97-64.45,13.21,27.47,21.04,49.34,22.97,64.45Z"/>
            <path class="cls-6" d="M408.6,767.44c11.13-31.34,10.44-51.55-2.24-81.85,7.46,32.38,9.9,52.18,2.24,81.85Z"/>
            <path class="cls-6" d="M293.81,874.58c13.04-18.67,28.81-38.29,47.07-58.77-15.59,23.11-27.89,44.2-33.33,61.06l-13.74-2.29Z"/>
            <path class="cls-6" d="M351.69,883.49c2.24-21.84,6.11-44.6,20-65.14-7.51,24.62-9.34,47.82-6.39,69.84l-13.61-4.69Z"/>
            <path class="cls-6" d="M388.21,797.36c2.85,12.29-1.13,24.74-7.94,37.4,4.45-13.31,7.64-26.33,7.94-37.4Z"/>
            <path class="cls-6" d="M400.82,792.74c6.71-17.37,6.64-45.1,3.41-77.68-.13,30.46-1.01,57.55-3.41,77.68Z"/>
          </g>
          <path class="cls-5" d="M308.49,722.58c87.01,41.98,73.53-33.33,107.11-31.8l3.33-28.49-126.55,39.35,16.1,20.94Z"/>
        </g>
        <path class="cls-9" d="M303.06,693.08c7.84,26.79,16.66,50.07,24.23,63.46,1.18-3.25.78-5.87,3.8-6.08,10.92,23.96,8.14,39.48-5.82,50.25-5.11,18.72-18.01,35.24-31.63,51.56-1.15,5.08-2.04,12.59,1.93,15.5,6.23.49,11.18-3.47,13.34-8.37.57,5.68,2.45,9.18,6.61,8.9,3.15-2.61,5.29-6,6.11-10.43,1.15,7.74,4.66,13.76,10.94,17.81.94-2.3,2.13-4.37,4.33-5.6-.12,3.33.62,6.13,3.82,7.38,12.24-6.75,22.98-9.42,28.24,2.8.08-44.44,31.54-47.25,36.64-82.09,13.06-15.94,10.3-55.55,20.61-75.82-3.27-20.13-10.7-38.68-21.63-55.89l-101.51,26.63Z"/>
      </g>
      <g>
        <path class="cls-43" d="M190.61,679.08c-4.45,25.17-10.18,45.56-17.13,61.4-24.24,47.35-63.46,58.3-81.37,89.93-1.72,3.04-.14,6.97,3.23,7.88,6.57,1.79,14.96.06,27.94-10.54-1.53,4.99-3.14,9.58-4.83,13.74,10.53-3.12,18.53-7.86,23.15-14.76-6.38,9.57-9.36,17.86-8.9,24.85,10.66-9.41,2.14,12.21,21.12,7.38,4.38-6.96,9-13.51,16.28-15.52-9.42,18.28-5.93,26.86,11.19,25.19-3.2-5.23-1.57-12.13,6.11-21.12-3.48,11.21-4.33,19.9,6.61,17.3-4.38-19.41,10.35,4.02,23.66-10.43-.69-16.26-2.72-32.05-1.33-50.22.94-12.26,5.18-24.03,12.27-34.08,15.01-21.26,31.81-39.58,51.99-52.33-19.15-38.81-48.15-54.08-89.98-38.67Z"/>
        <g class="cls-35">
          <g>
            <path class="cls-6" d="M193,783.65c13.25-18.53,22.5-40.41,28.44-64.99-9.35,23.17-18.83,44.92-28.44,64.99Z"/>
            <path class="cls-6" d="M159.58,814.88c17.47-19.45,34.14-52.96,49.57-108.33-16.38,45.98-32.89,82.74-49.57,108.33Z"/>
            <path class="cls-6" d="M154.33,782.86c17.36-13.96,33.09-39.75,46.28-83.94-14.72,36.23-30.1,64.76-46.28,83.94Z"/>
            <path class="cls-6" d="M203.93,787.39c6.52-17.44,25-38.13,49.04-60.33-20.13,22.86-37.47,43.69-49.04,60.33Z"/>
            <path class="cls-6" d="M160.9,844.48c7.73-20.39,16.27-40.91,29.41-55.59-8.34,13.87-18.61,35.02-29.41,55.59Z"/>
            <path class="cls-6" d="M193,862.48c-2.84-18.97-.66-41.17,8.57-67.93-8.11,27.34-6.61,50.9,1.34,71.94l-9.91-4.01Z"/>
            <path class="cls-6" d="M113.16,840.66c-1.1-18.38,8.26-35.32,28.29-60.05l-64.67,46.57,3.31,15.27,20.35,6.87,12.72-8.65Z"/>
            <path class="cls-6" d="M126.58,829.66c14.86-8.32,26.06-22.28,34.33-40.77-10.4,16.91-21.91,30.26-34.33,40.77Z"/>
          </g>
          <path class="cls-5" d="M170.76,706.21c8.73-.1,16.68,1.23,22.48-2.95,2,14.58,7.6,28.87,16.66,42.87,5.68.52,12.51-1.18,20.23-4.58,2.96,4.93,6.22,8.68,9.92,10.69,4.17-.42,8.16-1.02,11.94-1.83l25.55-29.21-102.19-51.31-4.59,36.33Z"/>
        </g>
        <path class="cls-9" d="M190.61,679.08c-4.45,25.17-10.18,45.56-17.13,61.4-24.24,47.35-63.46,58.3-81.37,89.93-1.72,3.04-.14,6.97,3.23,7.88,6.57,1.79,14.96.06,27.94-10.54-1.53,4.99-3.14,9.58-4.83,13.74,10.53-3.12,18.53-7.86,23.15-14.76-6.38,9.57-9.36,17.86-8.9,24.85,10.66-9.41,2.14,12.21,21.12,7.38,4.38-6.96,9-13.51,16.28-15.52-9.42,18.28-5.93,26.86,11.19,25.19-3.2-5.23-1.57-12.13,6.11-21.12-3.48,11.21-4.33,19.9,6.61,17.3-4.38-19.41,10.35,4.02,23.66-10.43-.69-16.26-2.72-32.05-1.33-50.22.94-12.26,5.18-24.03,12.27-34.08,15.01-21.26,31.81-39.58,51.99-52.33-19.15-38.81-48.15-54.08-89.98-38.67Z"/>
      </g>
      <g>
        <path class="cls-43" d="M52.63,243.86c-2.6,81.4,15.4,114.36,19.03,162.03.33,4.28,1.24,8.5,2.63,12.56,10.49,30.54,4.34,34.64-1.23,44.88,12.04-2.58,23.99,8.37,35.87,31.29l349.06-18.32c24.35-13.33,35.52-33.45,35.11-59.53-17.64-32.05-32.69-69.14-45.03-111.5,9.5,5.18,18.26,16.53,26.46,32.63-27.63-78.38-4.48-174.26-80.77-267.27C347.59.92,247.47-11.72,182.41,13.4c13.98,1.59,27.06,3.33,33.07,6.23-23.74-.82-47.55,4.8-71.43,17.81-60.86,7.38-117.3,70.67-126.11,146.23,4.84-6.18,10.49-20.78,17.66-25.06-12.02,38.79-10.17,79.99-.83,109.55,6.1-8.49,13.29-23.54,17.85-24.3Z"/>
        <g class="cls-41">
          <path class="cls-6" d="M47.25,258.19c7.85-40.44,28.17-68.56,39.06-102.82-11.44,80.73-25.78,151.89-17.94,241.57-15.92-56.81-38.01-105.23-15.73-153.07"/>
          <path class="cls-21" d="M92.39,488.19c25.97-74.97,93.43-109.37,176.64-96.33l47.77.47c68.78-4.07,176.32,39.38,149.5,78.83,5.66,29.19,19.11,14.45-2.97,23.48H92.24l.15-6.45Z"/>
          <path class="cls-47" d="M22.7,192.38C42.73,125.6,84.43,74.92,151.77,30.74l-94.98,18.85L.31,164.74c-2.18,38.93,7.37,41.73,22.39,27.65Z"/>
          <path class="cls-47" d="M448.08,305.28c14.93,85.89,32.85,124,20.88,175.59l46.12-77.55-67.01-98.04Z"/>
        </g>
        <path class="cls-9" d="M52.63,243.86c-2.6,81.4,15.4,114.36,19.03,162.03.33,4.28,1.24,8.5,2.63,12.56,10.49,30.54,4.34,34.64-1.23,44.88,12.04-2.58,23.99,8.37,35.87,31.29l349.06-18.32c24.35-13.33,35.52-33.45,35.11-59.53-17.64-32.05-32.69-69.14-45.03-111.5,9.5,5.18,18.26,16.53,26.46,32.63-27.63-78.38-4.48-174.26-80.77-267.27C347.59.92,247.47-11.72,182.41,13.4c13.98,1.59,27.06,3.33,33.07,6.23-23.74-.82-47.55,4.8-71.43,17.81-60.86,7.38-117.3,70.67-126.11,146.23,4.84-6.18,10.49-20.78,17.66-25.06-12.02,38.79-10.17,79.99-.83,109.55,6.1-8.49,13.29-23.54,17.85-24.3Z"/>
      </g>
      <g>
        <path class="cls-43" d="M220,391.17l-.95,26.37c-39.7,14.58-72.61,31.94-92.71,54.53,11.51,30.91,27.5,50.1,46.83,60.55,16.46,68.21-48.2,37.08-23.34,102.36,6.57,11.34-5.47,15.19-.23,27.75,4.32,11.32,9.21,20.7,15.07,26.78,14.67-6.78,29.4.57,38.67-6.11,2,14.58,7.6,28.87,16.66,42.87,5.68.52,12.51-1.18,20.23-4.58,2.96,4.93,6.22,8.68,9.92,10.69,23.27-2.36,40.82-10.29,47.7-28.62l7,1.27c87.01,41.98,73.53-33.33,107.11-31.8,18.76,4.77,21.94-56.35,12.98-77.72-20.26-25.34-29.18-49.06-29.07-71.49l53.07-69.58-93.46-35.87c-11.48-7.04-15.44-18.16-11.45-33.58l-124.03,6.19Z"/>
        <g class="cls-38">
          <path class="cls-42" d="M224,469.24c8.65-25.61,33.2-17.21,40.45-25.61,10.2,9.15,21.82,12.57,37.4,0,5.43,4.67,12.45,10.38,28.11,2.67,3.58,8.53,14.59,13.91,16.54,25.57,4.71,3.94,12.12,1.21,14.5,6.49-10.38,52.03,17.9,66.61,27.99,101.13,13.57,46.45,9.6,98.9-58.73,118.25-22.5,6.37-46.41,5.67-68.68-1.47-64.13-20.56-90.34-72.15-60.86-135.1,10.98-23.44,8.8-58.2,23.28-91.93Z"/>
          <path class="cls-43" d="M200.71,570.97c2.06,42.82,70.4,63.31,82.81-12.12-27.42,47.11-55.01,55.83-82.81,12.12Z"/>
          <path class="cls-43" d="M305.15,565.02c4.24,21.18,33.07,34.36,50.12,34.6,13.26.19,29.35-11.98,24.17-31.04,15.78,64.11-74.12,40.54-74.29-3.56Z"/>
          <path class="cls-6" d="M172.15,553.31c11.77,18.57-15.33,36.89-9.22,52.16,41.98,110.54,74.46,60.08,88.71,132.47l-62.99,9.5-66.94-50.2v-118.48l50.44-25.44Z"/>
          <path class="cls-6" d="M362.31,696.13c39.9-29.42,53.28-74.58,32.92-139.76,14.45,64.69,1.38,109.78-32.92,139.76Z"/>
          <path class="cls-6" d="M404.65,574.94c15.16,43.86,6.98,74.35-11.98,98.39,17.34-29.86,21.38-62.64,11.98-98.39Z"/>
          <path class="cls-6" d="M417.28,595.93c6.86,14.17,3.77,34.07-3.24,56.23,3.16-20.67,4.86-39.98,3.24-56.23Z"/>
          <path class="cls-6" d="M174.76,590.59c-.68,43.75,12.6,80.23,58.77,99.6-35.73-18.06-53.31-54.65-58.77-99.6Z"/>
          <path class="cls-6" d="M166.75,652.15c35.78,38.87,69.14,63.06,104.92,51.87-34.6,6.55-68.46-19.04-104.92-51.87Z"/>
          <path class="cls-6" d="M182.36,615.33c-8.31-38.86,15.68-61.89,13.58-112.58,11.45,52.28-16.22,59.34-13.58,112.58Z"/>
          <path class="cls-43" d="M267.5,613.86c-.62,31.16,6.85,59.51,25.54,83.96-13.84-27.38-21.63-55.45-25.54-83.96Z"/>
          <path class="cls-43" d="M212.94,598.09c-.62,31.16,30.39,83.32,60.79,92.1-18.88-7.09-59.16-54.39-60.79-92.1Z"/>
          <path class="cls-43" d="M255.54,652.15c13.55,12.61,23.65,27.69,32.06,43.97l-32.06-43.97Z"/>
          <path class="cls-43" d="M194.37,600.89c10,47.8,29.24,80.38,62.82,89.3-29.92-12.41-49.52-44.77-62.82-89.3Z"/>
          <path class="cls-43" d="M299.17,666.61c6.57-21.81,8.27-45.5,5.98-70.69-1.39,24.95-3.34,48.59-5.98,70.69Z"/>
          <path class="cls-43" d="M308.46,668.82c6.96-13.78,10.34-35.04,8.14-67.93-.47,27.97-3.03,50.97-8.14,67.93Z"/>
          <path class="cls-43" d="M311.26,693.5c9.93-15.75,15.21-42.98,18.32-75.56-6,29.86-12.08,56.28-18.32,75.56Z"/>
          <path class="cls-43" d="M266.13,448.15c-4.55,30.83-.72,59.9,14.73,86.51-10.27-28.91-14.45-57.74-14.73-86.51Z"/>
          <path class="cls-43" d="M288.17,508.67c6.57-21.81,8.27-45.5,5.98-70.69-1.39,24.95-3.34,48.59-5.98,70.69Z"/>
          <path class="cls-43" d="M297.46,510.87c6.96-13.78,10.34-35.04,8.14-67.93-.47,27.97-3.03,50.97-8.14,67.93Z"/>
          <path class="cls-43" d="M300.26,535.55c9.93-15.75,15.21-42.98,18.32-75.56-6,29.86-12.08,56.28-18.32,75.56Z"/>
          <path class="cls-43" d="M322.45,693.5c24.41-22.59,33.19-40.81,36.02-73.53-8.43,32.14-15.46,50.81-36.02,73.53Z"/>
          <path class="cls-43" d="M350.52,674.14c20.09-21.1,31.6-45.59,35.11-73.25-7.46,28.15-19.22,52.52-35.11,73.25Z"/>
          <path class="cls-43" d="M331.86,693.5c25.51-8.95,45.3-22,53.77-43.12-12.64,20.8-31.8,33.67-53.77,43.12Z"/>
          <path class="cls-6" d="M327.8,396.93c9.35,24.22,24.93,37.28,52,36.98-25.23,4.38-42.38-7.13-52-36.98Z"/>
          <path class="cls-6" d="M321.65,402.19c3.4,19.14,10.02,35.1,25.65,42.13-12.86-6.65-19.79-23.48-25.65-42.13Z"/>
          <path class="cls-6" d="M236.01,397.28c-14.23,38.49-38.56,59.48-81.35,59.62,39.97,6.36,66.82-12.23,81.35-59.62Z"/>
          <path class="cls-6" d="M237.75,417.02c-10.4,26.55-14.33,57.13-35.43,71.12,15.66-14.81,20.86-45.99,35.43-71.12Z"/>
          <path class="cls-4" d="M352.93,434.66c27.72,13.72,57.38,23.58,91.59,24.35l-49.36,40.71c-18.58-9.47-31.88-33.26-42.23-65.06Z"/>
          <path class="cls-4" d="M217.25,447.38c-27.72,13.72-57.38,23.58-91.59,24.35.75,22.45,16.84,36.23,49.36,40.71,18.58-9.47,31.88-33.26,42.23-65.06Z"/>
        </g>
        <path class="cls-9" d="M220,391.17l-.95,26.37c-39.7,14.58-72.61,31.94-92.71,54.53,11.51,30.91,27.5,50.1,46.83,60.55,16.46,68.21-48.2,37.08-23.34,102.36,6.57,11.34-5.47,15.19-.23,27.75,4.32,11.32,9.21,20.7,15.07,26.78,14.67-6.78,29.4.57,38.67-6.11,2,14.58,7.6,28.87,16.66,42.87,5.68.52,12.51-1.18,20.23-4.58,2.96,4.93,6.22,8.68,9.92,10.69,23.27-2.36,40.82-10.29,47.7-28.62l7,1.27c87.01,41.98,73.53-33.33,107.11-31.8,18.76,4.77,21.94-56.35,12.98-77.72-20.26-25.34-29.18-49.06-29.07-71.49l53.07-69.58-93.46-35.87c-11.48-7.04-15.44-18.16-11.45-33.58l-124.03,6.19Z"/>
      </g>
      <g>
        <path class="cls-1" d="M312.91,525.52c-.39-10.13-10.74-12.93-19.19-17.62-1.92-1.06.59-3.99,2.78-3.85,20,1.3,39.37,2.39,56.1,5.06-10.98,7.94-24.35,13.26-39.69,16.41Z"/>
        <g class="cls-37">
          <path class="cls-51" d="M300.14,517.91c19.17-3.56,24.4-12.28,26.52-22.14l49.42,1.54-50.57,45.6-25.38-25Z"/>
        </g>
        <path class="cls-11" d="M312.91,525.52c-.39-10.13-10.74-12.93-19.19-17.62-1.92-1.06.59-3.99,2.78-3.85,20,1.3,39.37,2.39,56.1,5.06-10.98,7.94-24.35,13.26-39.69,16.41Z"/>
      </g>
      <g>
        <path class="cls-1" d="M201.13,500.34c17.31,3.91,34.1,8.21,47.32,15.2,19.32-8.42,17.24-34.31,40.93-33.99.62,0,.9-.8.38-1.15-16.44-11.2-40.69,13.66-88.64,19.94Z"/>
        <g class="cls-40">
          <path class="cls-51" d="M216.44,491.93c39.1,22.85,52.59-12.41,70.09-3.91l-38.67,40.05-49.24-20.68,17.83-15.46Z"/>
        </g>
        <path class="cls-11" d="M201.13,500.34c17.31,3.91,34.1,8.21,47.32,15.2,19.32-8.42,17.24-34.31,40.93-33.99.62,0,.9-.8.38-1.15-16.44-11.2-40.69,13.66-88.64,19.94Z"/>
      </g>
      <path class="cls-6" d="M97.16,130.81c-9.67,130.84-2.34,143.77,1.9,266.12,1.65-26.27,11.72-55.89,16.57-74.48,6.25,45.45,2.02,96.66,10.71,115.53-1.91-33.46,30.28-13.48,26.8-55.91,43.76,31.58,188.71,36.26,262.1-24.3,19.09-15.76,28.98-40.08,26.61-64.72l-11.26-117.01c-1.14-21.68-6.95-42.91-17.38-61.95-8.78-16.03-19.61-32.06-33.3-48.54C310.1-26.46,106.32,27.61,97.16,130.81Z"/>
      <g>
        <path class="cls-43" d="M219.62,396.93c-6.11,29.39-43.82,15.11-59.53,24.04-11.7,10.75-26.47,14.39-31.67,27.48-32.9,24.36-38.67,46.75-14.63,59.66,51.84,34.45,116.13,56.39,138.53,143.87,3.56-26.03-8.49-46.38-7.95-65.96.3-10.79-4.78-20.25-11.13-32.12,17.62,11.59,31.34,29,40.07,53.81-.06-21.1-6.17-42.58-28.53-71.36,11.09,5.62,18.98,13.95,28.34,22.77,5.82,11.33,13.68,19.5,18.51,26.84-1.04-18.4-16.98-40.6-37.95-67.78-2.4-3.1-5.45-5.67-8.98-7.38-24.72-12.02-51.3-15.98-78.75-16.17-13.59-3.61-22.6-11.06-29.13-20.61,49.86-.18,104.5-17.27,82.81-77.09Z"/>
        <g class="cls-39">
          <g>
            <path class="cls-1" d="M257.27,515.11c4.5,17.91,1.22,26.3-1.95,31.08l40.37,58.03-.19-41.22-38.23-47.89Z"/>
            <g class="cls-27">
              <path class="cls-51" d="M282.23,533.04c-14.78-1.52-20.73,12.91-26.66,34.86l-7.2-13.33c-2.63-36.81,3-55.77,22.71-44.29l11.15,22.76Z"/>
            </g>
            <path class="cls-11" d="M257.27,515.11c4.5,17.91,1.22,26.3-1.95,31.08l40.37,58.03-.19-41.22-38.23-47.89Z"/>
          </g>
          <g>
            <path class="cls-1" d="M257.11,548.77c-2.74,6.48-6.49,12.75-11.53,18.75l33.82,66.59c1.62-32.66-1.6-63.08-22.29-85.34Z"/>
            <g class="cls-24">
              <path class="cls-51" d="M274.33,534.92c-12.93,26.13-25.34,45.84-27.39,67.84l-9.27-19.73,29.22-65.57,7.44,17.47Z"/>
            </g>
            <path class="cls-11" d="M257.11,548.77c-2.74,6.48-6.49,12.75-11.53,18.75l33.82,66.59c1.62-32.66-1.6-63.08-22.29-85.34Z"/>
          </g>
          <g>
            <path class="cls-1" d="M211.6,583.93c13.26-1.56,24.5-6.25,32.64-15.76,5.58,6.15,7.88,16.74,8.19,30.01,10.65,17.02,3.91,44.11-.25,69.71-9.88-29.73-22.16-58.31-40.58-83.96Z"/>
            <g class="cls-31">
              <path class="cls-51" d="M277.84,548.94c-23.54,15.58-44.61,37.8-59.02,69.09l-19.97-20.1,62.97-66.78,16.03,17.79Z"/>
            </g>
            <path class="cls-11" d="M211.6,583.93c13.26-1.56,24.5-6.25,32.64-15.76,5.58,6.15,7.88,16.74,8.19,30.01,10.65,17.02,3.91,44.11-.25,69.71-9.88-29.73-22.16-58.31-40.58-83.96Z"/>
          </g>
          <path class="cls-47" d="M200.81,396.87c-7.57,28.54-65.37,44.08-82.36,74.24-2.51,4.46-3.73,9.07-3.77,14.18-.14,18.75,20.3,27.32,34.2,47.75l-80.9-38.42,58.35-66.66,74.48-31.1Z"/>
          <path class="cls-47" d="M155.42,486.62c5.27,17.42,68.96,21.18,113.42,41.45l-17.32-24.02-96.1-17.43Z"/>
        </g>
        <path class="cls-9" d="M219.62,396.93c-6.11,29.39-43.82,15.11-59.53,24.04-11.7,10.75-26.47,14.39-31.67,27.48-32.9,24.36-38.67,46.75-14.63,59.66,51.84,34.45,116.13,56.39,138.53,143.87,3.56-26.03-8.49-46.38-7.95-65.96.3-10.79-4.78-20.25-11.13-32.12,17.62,11.59,31.34,29,40.07,53.81-.06-21.1-6.17-42.58-28.53-71.36,11.09,5.62,18.98,13.95,28.34,22.77,5.82,11.33,13.68,19.5,18.51,26.84-1.04-18.4-16.98-40.6-37.95-67.78-2.4-3.1-5.45-5.67-8.98-7.38-24.72-12.02-51.3-15.98-78.75-16.17-13.59-3.61-22.6-11.06-29.13-20.61,49.86-.18,104.5-17.27,82.81-77.09Z"/>
      </g>
      <g>
        <path class="cls-48" d="M258.2,63.99c-31.89-28.92-37.12-21.26-25.61-5.55-31.44-4.04-51.43-1.58-65.23,4.41-1.35.58-1.36,2.49,0,3.06,5.36,2.26,9.35,3.42,10.66,5.89-18.69.3-33.97,6.64-45.99,18.76-4.17,4.2-6.98,9.56-8.05,15.38-5.1,27.67-7.12,56.38-6.63,85.94l27.48,125.68,31.29,46.56c70.96,17.06,144.81,14.72,222.11-10.69,10.96-13.77,18.84-34.34,25.55-57.5l-9.99-149.11c-10.98-10.46-21.75-33.82-29.72-61.76-1.62-11.63-11.09-9.43-23.49-5.39-.25-4.88,1.72-9.6,5.31-14.19,2.36-3.02,1.11-7.44-2.42-8.93-25.78-10.88-49.93-9-67.26,6.41-.11-7.36,5.5-13.7,6.45-20.44.29-2.05-1.61-3.74-3.61-3.21-12.13,3.23-26.42,13.84-40.83,24.66Z"/>
        <g class="cls-29">
          <path class="cls-45" d="M128.3,111.91c-1.87,2.67-4.08,6.33-6.14,9.32-1.23,1.64-4.4,6.74-5.99,4.81C83.9,43.61,256.99,30.03,260.59,30.33c31.85-2.62,56.33-1.12,77.5,4.25,58.66,15.02,60.68,55.64,60.71,56.42-1.25,1.87-8.25,11.14-9.37,12.77-.11.09-.2.09-.29-.02l-.05-.06c-4.51-11.49-18.18-23.39-28.96-22.21-.49-.15-.05-.66.09-.99,1.67-2.4,3.78-5.91,2.58-7.7-.55-.87-2.05-1.45-3.15-1.9-24.87-10.27-47.83-13.52-65.08.4-.34.01-.39-.57-.41-.76-.16-4.53,1.94-7.82,3.79-10.68,1.75-2.97-1.01-4.03-3.48-3.1-11.1,3.43-20.75,12.72-33.75,22.63-1.19.94-2.33.69-3.24-.5-5.93-6.93-9.76-10.93-15.32-15.39-15.52-12.23-19.9-3.06-12.46,8.14.73,1.34-.98,1.07-1.95.99-28.99-3.37-46.13.04-59.37,5.62-23.25,4.14-35.1,16.43-40.07,33.65Z"/>
        </g>
        <path class="cls-16" d="M258.2,63.99c-31.89-28.92-37.12-21.26-25.61-5.55-31.44-4.04-51.43-1.58-65.23,4.41-1.35.58-1.36,2.49,0,3.06,5.36,2.26,9.35,3.42,10.66,5.89-18.69.3-33.97,6.64-45.99,18.76-4.17,4.2-6.98,9.56-8.05,15.38-5.1,27.67-7.12,56.38-6.63,85.94l27.48,125.68,31.29,46.56c70.96,17.06,144.81,14.72,222.11-10.69,10.96-13.77,18.84-34.34,25.55-57.5l-9.99-149.11c-10.98-10.46-21.75-33.82-29.72-61.76-1.62-11.63-11.09-9.43-23.49-5.39-.25-4.88,1.72-9.6,5.31-14.19,2.36-3.02,1.11-7.44-2.42-8.93-25.78-10.88-49.93-9-67.26,6.41-.11-7.36,5.5-13.7,6.45-20.44.29-2.05-1.61-3.74-3.61-3.21-12.13,3.23-26.42,13.84-40.83,24.66Z"/>
      </g>
      <ellipse class="cls-45" cx="365.05" cy="203.4" rx="57.34" ry="60.97"/>
      <ellipse class="cls-45" cx="182.53" cy="214.01" rx="60.97" ry="57.34" transform="translate(-49.69 372.73) rotate(-83.89)"/>
      <path class="cls-46" d="M253.37,272.34c21.63-7.66,31.8-3.1,52.23-12.79l7.51,20.6c-14.76,15.46-56.43,1.1-59.75-7.82Z"/>
      <g>
        <ellipse class="cls-19" cx="365.05" cy="195.02" rx="57.34" ry="60.97"/>
        <g class="cls-30">
          <ellipse class="cls-44" cx="389.97" cy="172.74" rx="12.99" ry="14.47" transform="translate(-35.11 137.77) rotate(-19.19)"/>
          <path class="cls-46" d="M302.56,213.8l67.17,24.36,61.82-43.16c12.44,85.4-116.54,104.19-128.99,18.8Z"/>
        </g>
        <ellipse class="cls-18" cx="365.05" cy="195.02" rx="57.34" ry="60.97"/>
      </g>
      <g>
        <ellipse class="cls-19" cx="182.53" cy="206.7" rx="60.97" ry="55.84" transform="translate(-85.83 270.13) rotate(-61.85)"/>
        <g class="cls-28">
          <path class="cls-46" d="M125.5,233.83l44.89,24.18,78.27-50.32c16.57,86.36-106.59,112.49-123.16,26.13Z"/>
          <ellipse class="cls-44" cx="170.79" cy="198.6" rx="13.93" ry="15.46"/>
        </g>
        <ellipse class="cls-18" cx="182.53" cy="206.7" rx="60.97" ry="55.84" transform="translate(-85.83 270.13) rotate(-61.85)"/>
      </g>
      <g>
        <path class="cls-43" d="M342.84,391.17c.15,10.95,2.57,17.08,11.7,18.32,37.81-2.43,68.54,16.59,104.52,39.85,5.12,3.31,7.99,9.3,7.06,15.32-6.09,39.3-84.84,70.56-106.07,110.37-13.55,15.96-10.94,41.79-26.33,64.88,10.05-39.12-2.76-54.9,17.17-81.67-13.58,7.99-20.31,27.9-33.58,38.93,3.89-22.6,18.45-45.34,36.34-69.46-12.24,10.55-25.32,18.45-39.39,23.28-.93,9.51-7.58,21.38-14.12,33.2,2.13-15.24,3.29-33.36,3.98-45.8.43-7.81,4.76-14.89,11.56-18.76,38.4-21.87,48.32-8.99,63.08-18.26,25.76-15.39,38.86-38.45,57.88-41.47-58.83,9.3-98.43-13.26-93.8-68.73Z"/>
        <g class="cls-25">
          <g>
            <path class="cls-1" d="M329.64,505.24c-17.57,16.81-9.05,29.36-1.2,45.24l-31.99,49.87,1.91-59.15,12.08-33.71,19.2-2.25Z"/>
            <g class="cls-22">
              <path class="cls-51" d="M305.35,521.34c8.43,14.43,7.5,26.15,7.97,45.54l23.83-32.06-8.4-25.95-23.41,12.47Z"/>
            </g>
            <path class="cls-11" d="M329.64,505.24c-17.57,16.81-9.05,29.36-1.2,45.24l-31.99,49.87,1.91-59.15,12.08-33.71,19.2-2.25Z"/>
          </g>
          <g>
            <path class="cls-1" d="M332.13,547.87c.88,13.5,1.27,25.86,6.93,27.38-4.45,11.64-18.1,29.52-31.17,42.27,1.78-23.24,11.45-48.36,24.23-69.65Z"/>
            <g class="cls-26">
              <path class="cls-51" d="M325.2,562.81c4.24,8.25,5.51,17.65,5.49,27.57l11.3-24.26-5.85-15.77-10.94,12.47Z"/>
            </g>
            <path class="cls-11" d="M332.13,547.87c.88,13.5,1.27,25.86,6.93,27.38-4.45,11.64-18.1,29.52-31.17,42.27,1.78-23.24,11.45-48.36,24.23-69.65Z"/>
          </g>
          <g>
            <path class="cls-1" d="M338.37,576.95c5.8,6.49,13.1,9.21,22.32,7.11,10.82,27.93-7.72,51.01-32.31,73.08-1.16-31.86-.5-61.64,9.99-80.19Z"/>
            <g class="cls-23">
              <path class="cls-51" d="M333.59,580.11c14.9,11.61,22.58,28.62,26.97,48.08,10.79-10.99,18.05-25.06,11.45-51.25l-32.79-7.67-5.62,10.84Z"/>
            </g>
            <path class="cls-11" d="M338.37,576.95c5.8,6.49,13.1,9.21,22.32,7.11,10.82,27.93-7.72,51.01-32.31,73.08-1.16-31.86-.5-61.64,9.99-80.19Z"/>
          </g>
          <path class="cls-47" d="M355.66,396.93c33.01,43,93,41.72,99.29,65.13,4.17,15.51-2.96,33.13-22.56,48.08l56.4-36.38c-2.98-60.53-64.16-71.97-133.13-76.83Z"/>
          <path class="cls-47" d="M355.66,501.12c37.29,20.41,55.16-12.79,80.97-41.22l-80.97,41.22Z"/>
        </g>
        <path class="cls-9" d="M342.84,391.17c.15,10.95,2.57,17.08,11.7,18.32,37.81-2.43,68.54,16.59,104.52,39.85,5.12,3.31,7.99,9.3,7.06,15.32-6.09,39.3-84.84,70.56-106.07,110.37-13.55,15.96-10.94,41.79-26.33,64.88,10.05-39.12-2.76-54.9,17.17-81.67-13.58,7.99-20.31,27.9-33.58,38.93,3.89-22.6,18.45-45.34,36.34-69.46-12.24,10.55-25.32,18.45-39.39,23.28-.93,9.51-7.58,21.38-14.12,33.2,2.13-15.24,3.29-33.36,3.98-45.8.43-7.81,4.76-14.89,11.56-18.76,38.4-21.87,48.32-8.99,63.08-18.26,25.76-15.39,38.86-38.45,57.88-41.47-58.83,9.3-98.43-13.26-93.8-68.73Z"/>
      </g>
      <path class="cls-20" d="M287.93,211.08c2.7,5.54,5.25,11.13,7.74,16.74,4.12,11.58,14.52,39.86,18.85,51.82,0,0,.31.85.31.85-4.18,5.11-10.74,7.15-17.01,7.75-11.72.89-23.55-1.51-34.22-6.23-3.7-2.2-8.24-4.34-10.16-8.42-.58-1.41-.68-2.98-.24-4.36-.48,6.25,6.97,8.21,11.58,10.12,5.15,2.17,10.56,3.85,16.08,4.88,10,1.72,23.55,2.84,31.12-5.07,0,0-.28,1.5-.28,1.5-4.51-12.07-14.51-40.12-18.93-51.79-1.7-5.9-3.35-11.82-4.85-17.8h0Z"/>
      <path class="cls-13" d="M158.57,368.68c12.99,28.71,20.86,56.26,23.02,81.16,2.85-19.78,5.35-40.13,5.25-62.59,4.48,26.07,5.91,47.03,6.96,64.49,2.67-16.53,5.24-49.08,8.82-78.85,19.15,32.49,6.76,102.07,5.17,155.18,8.08-49.4,14.71-99.54,16.79-152,14.91,30.72,21.01,64.98,20.23,102,4.54-32.87,2.59-81.28,5.13-100.03,16.03,10.3,19.49,61.71,23.87,92.06,1.77-33.1,2.7-64.41.24-90.79,7.94,12.27,13.26,27.49,17.54,42.28,2.25,14.24.03,33.36,3.98,48.51,1.48-21.4,3.74-35.24,6.72-50.53,1.3-6.65,4.23-16.55,1.27-22.64-3.92-8.07-4.81-10.16,1.87-21.86l13.22,16.57c8.91,21.74,10.79,44.77,11.26,68.06,6.5-23.05,3.99-48.92,1.34-78.93,12.15,26.67,22.47,54.89,31.87,83.89-1.51-30.4-6.43-66.47-12.36-94.82,14.36,3.53,18.92,39.03,20.88,54.05,6.3-15.72,8.2-36.39,4.7-63.13,8.25,12.33,12.33,24.44,13.62,36.42,1.73-12.07.41-27.85-3.05-46.24,7.19,35.87,25.95,57.5,29,92.42.64-33.65.01-69.35-3.14-109.14,5.47,15.03,8.22,33.65,9.99,53.55,1.3-22.37.87-44.92-3.93-67.93,3.24,13.6,7.47,22.28,12.55,26.71-4.14-8.56-7.28-20.28-9.87-33.71-1.62-8.38-8.67-14.48-17.17-15.2-13.81-1.18-16.17-12.95-26.46-7.06-18.3-14.4-36.35-9.35-54.36-1.78-12.73,1.11-24.29,5.35-34.86,12.3-28.07-6.1-43.91-10.96-50.87-.75-15.55-18.94-53.4-10.91-69.47,21.28-12.13,13.01-16.45,28.38-9.75,47.07Z"/>
      <path class="cls-20" d="M240.99,163.25c2.71,3.35,5.65,7.19,8.27,10.69.7,1.07,1.67,2.79,2.35,3.92,0,0,9.41,15.69,9.41,15.69l-1.64-.67,40.45-14.78-1.06,1.98c-.12-.86-.39-2.17-.55-3.37-1.5-9.75,2.84-16.7,9.47-21.35-2.5,3.26-4.89,7.08-5.8,11.41-.16.93-.54,2.13-.67,3.04-.6,3.32-.04,6.5.52,9.81,0,0,.19,1.53.19,1.53l-1.25.46-40.45,14.78-1.02.37c-2.19-3.69-10.31-17.12-12.39-20.66-1.91-4.12-4.07-8.65-5.85-12.85h0Z"/>
      <g>
        <path class="cls-50" d="M201.68,301.53c48.28,7.54,98.08,6.08,150.36-9.92,3.76,18.68,4.71,36.06,2.29,51.9-36,15.83-124.3,21.27-152.59,6.58-5.54-15.67,1.72-28.49-.06-48.56Z"/>
        <g class="cls-32">
          <path class="cls-8" d="M204.95,298.61c-.53,10.54.2,20.27,3.47,27.62,6.8,3.8,13.72,4.74,25.19,2.34,3.98-3.06,6.95-14.8,9.92-26.46l-38.58-3.5Z"/>
          <path class="cls-8" d="M240.32,298.29c2,16.23,8.39,23.02,20.77,30.28,14.27.2,20.16-9.11,23.58-25.19l-44.34-5.09Z"/>
          <path class="cls-8" d="M281.18,300.58c1.6,13.62,4.04,24.87,9.12,28.75,6.81,3.91,14.37.49,25.74-5.98,3.42-8.07,5.68-16.51,3.56-26.33l-38.42,3.56Z"/>
          <path class="cls-8" d="M349.45,288.89c2.89,12.54,8.35,19.73,18.23,17.72,19.35-4,32.36-26.13,44.14-51.77-.97,31.88-8.49,54.07-21.96,68.09-5.66,5.88-13.87,8.71-21.9,7.22-7.42-1.38-13.14-4.81-19.28-12.13l.76-29.13Z"/>
          <path class="cls-8" d="M205.16,302.74l1.93,21.24c-13.73,29.07-38.27,31.14-51.66,20.06s-15.64-35.33-20.35-73.59c5.53,45.98,47.32,83.36,70.09,32.29Z"/>
          <path class="cls-8" d="M319.6,297.02c2.33,10.09,4.67,20.12,8.33,25.09.63.85,1.58,1.44,2.63,1.61,4.56.72,9.99-1.43,16.31-6.53,1.51-1.22,2.6-2.89,3.09-4.77,1.6-6.07,1.69-14.33,1.12-23.54l-31.48,8.14Z"/>
          <path class="cls-46" d="M186.8,350.57c65.22-13.77,154.52-19.27,190.05-3.24-76.55,32.05-140.26,33.97-190.05,3.24Z"/>
        </g>
      </g>
      <path class="cls-8" d="M352.35,301.62c4.01,12.88,10.74,14.98,20.67,13.26,19.46-3.44,30.14-20.22,42.65-45.52-1.88,31.84-10.02,53.81-23.89,67.43-5.82,5.72-14.12,8.31-22.09,6.59-7.38-1.59-13-5.19-18.92-12.67l1.59-29.1Z"/>
      <path class="cls-8" d="M202.54,304.49l4.93,19.81c-13.73,29.07-38.27,31.14-51.66,20.06-13.39-11.09-15.64-35.33-20.35-73.59,5.53,45.98,31.17,63.99,67.09,33.72Z"/>
      <path class="cls-49" d="M245.28,153.71c-28.33-20.88-62.5-44.78-79.38-48.34-5.7,11.42-8.71,23.83-9.48,37.07-.16,2.71,8.69,8.66,8.72,11.43,17.52,6.33,38.66,13.85,71.68,25.61l8.46-25.77Z"/>
      <path class="cls-49" d="M297.3,152.4c27.12-21.02,75.58-59.51,92.71-64.77,7.16,8.56,1.46,21.14,3.7,31.87.46,2.19-8.43,7.9-8.15,10.18-19.42,4.33-45.66,24.02-71.41,39.63l-16.86-16.9Z"/>
      <path class="cls-20" d="M185.06,92.58c23.65-2.26,47.36-3,71.02-4.57,23.57-1.68,47.19-3.21,69.93-10.19-3.98,2.05-8.11,3.82-12.34,5.32-7,2.38-14.46,4.22-21.72,5.6-35.25,6.27-71.27,6.09-106.88,3.84h0Z"/>
      <path class="cls-20" d="M218.6,107.92c13.93-4.22,28.16-7.27,42.51-9.62,14.37-2.22,28.93-3.77,43.48-3.1-28.37,3.18-57.7,8.82-85.99,12.72h0Z"/>
      <path class="cls-20" d="M245.47,122.13c22.76-2.66,45.91-3.96,67.46-12.43-18.75,12.04-45.66,14.09-67.46,12.43h0Z"/>
      <path class="cls-20" d="M245.41,109.18c15.36-6.03,33.81-10.68,50.22-6.97-17.07-.88-33.64,3.52-50.22,6.97h0Z"/>
      <g>
        <path class="cls-10" d="M327.88,545.21c-4.44,2.25-8.97,4.18-13.62,5.77-.93,9.51-7.58,21.38-14.12,33.2,2.13-15.24,3.29-33.36,3.98-45.8.43-7.81,4.76-14.89,11.56-18.76,2.23-1.27,4.37-2.42,6.41-3.47"/>
        <path class="cls-10" d="M337.23,571.94c-6.22,8.58-11.87,18.54-19.92,25.23,2.27-13.18,8.17-26.42,16.24-39.94"/>
        <path class="cls-10" d="M355.66,581.45c-8.79,15.95-8.47,38.25-21.94,58.45,7.43-28.94,2.36-45.11,7.28-62.4"/>
        <path class="cls-7" d="M354.18,581.04c.87-1.9,2.84-3.2,5.85-3.98l-4.25,7.17-1.6-3.19Z"/>
        <path class="cls-7" d="M326.45,544.25c1.73-1.17,4.09-1.26,7.07-.36-2.83,1.55-5.49,2.97-7.32,3.82l.25-3.46Z"/>
        <path class="cls-7" d="M335.46,571.79c1.01-1.83,3-2.67,6.06-3.21l-4.72,6.52-1.35-3.31Z"/>
        <path class="cls-7" d="M342.34,578.22c.86-1.91.55-3.95-.85-6.73-.85,2.25-1.64,4.47-2.19,6.58l3.04.15Z"/>
        <path class="cls-7" d="M334.16,559.04c1.32-1.62,1.56-3.67.93-6.72-1.41,1.95-2.75,3.89-3.83,5.78l2.9.94Z"/>
        <path class="cls-7" d="M322.15,517.79c1.96-.73,3.39-2.61,4.38-5.56l-7.45,3.73,3.07,1.82Z"/>
      </g>
      <g>
        <path class="cls-10" d="M256.14,543.71c5.84,4.59,11.12,9.91,16.96,15.42,5.82,11.33,13.68,19.5,18.51,26.84-.95-16.8-14.32-36.76-32.59-60.79"/>
        <path class="cls-10" d="M247.18,565.14c11.01,10.77,19.84,24.76,26.12,42.58-.05-17.14-4.09-34.52-17.58-55.86"/>
        <path class="cls-10" d="M217.25,582.63c15.08,17.62,27.47,39.73,35.06,69.36,3.56-26.03-8.49-46.38-7.95-65.96.14-5.01-.88-9.73-2.65-14.53"/>
        <path class="cls-7" d="M257.94,526.21c-1.43-1.52-1.89-3.83-1.48-6.91l5.04,6.64-3.56.27Z"/>
        <path class="cls-7" d="M254.79,553.19c-1.29-1.64-1.37-3.51-.68-6.54,1.65,2.44,3.09,4.68,4.21,6.54h-3.52Z"/>
        <path class="cls-7" d="M258.02,543.21c-1.62-1.88-3.57-1.78-6.49-1.38,1.71,1.69,3.36,2.76,5.06,4.13l1.43-2.74Z"/>
        <path class="cls-7" d="M240.27,572.08c-.95-1.86-.91-4.21.34-7.05,1.31,2.84,2.42,5.49,3.15,7.78l-3.49-.73Z"/>
        <path class="cls-7" d="M218.63,582.02c-1.14-2.21-3.33-2.37-6.27-2.67,1.26,2.05,3.34,3.74,4.28,4.82l1.99-2.15Z"/>
        <path class="cls-7" d="M248.31,564.11c-1.64-1.86-3.15-1.92-6.07-1.5,1.72,1.68,2.95,2.91,4.66,4.25l1.41-2.75Z"/>
      </g>
    </g>
  </g>
</svg>