<?xml version="1.0" encoding="UTF-8"?>
<svg id="Layer_2" data-name="Layer 2" xmlns="http://www.w3.org/2000/svg" xmlns:xlink="http://www.w3.org/1999/xlink" viewBox="0 0 233.14 471.37">
  <defs>
    <style>
      .cls-1, .cls-2, .cls-3, .cls-4, .cls-5, .cls-6, .cls-7, .cls-8, .cls-9, .cls-10, .cls-11, .cls-12, .cls-13, .cls-14, .cls-15, .cls-16, .cls-17, .cls-18 {
        stroke-miterlimit: 10;
      }

      .cls-1, .cls-3 {
        stroke: #c6c6c6;
        stroke-width: 1.7px;
      }

      .cls-1, .cls-4, .cls-5, .cls-6, .cls-7, .cls-8, .cls-9, .cls-10, .cls-11 {
        fill: none;
      }

      .cls-2, .cls-5, .cls-11, .cls-14 {
        stroke-width: 1.78px;
      }

      .cls-2, .cls-19 {
        fill: #e5e1df;
      }

      .cls-2, .cls-11 {
        stroke: #c9c5c3;
      }

      .cls-3, .cls-20 {
        fill: #f9f9f9;
      }

      .cls-21, .cls-12, .cls-13, .cls-14, .cls-15, .cls-16, .cls-17, .cls-18 {
        fill: #f8fbfe;
      }

      .cls-22 {
        clip-path: url(#clippath-10);
      }

      .cls-23 {
        clip-path: url(#clippath-1);
      }

      .cls-24 {
        clip-path: url(#clippath-3);
      }

      .cls-25 {
        clip-path: url(#clippath-4);
      }

      .cls-26 {
        clip-path: url(#clippath-2);
      }

      .cls-27 {
        clip-path: url(#clippath-7);
      }

      .cls-28 {
        clip-path: url(#clippath-6);
      }

      .cls-29 {
        clip-path: url(#clippath-9);
      }

      .cls-30 {
        clip-path: url(#clippath-8);
      }

      .cls-31 {
        clip-path: url(#clippath-5);
      }

      .cls-32 {
        fill: #fff;
      }

      .cls-33 {
        fill: #191918;
      }

      .cls-4, .cls-5, .cls-6, .cls-7, .cls-8, .cls-9, .cls-10, .cls-12, .cls-13, .cls-14, .cls-15, .cls-16, .cls-17, .cls-18 {
        stroke: #d1d1d1;
      }

      .cls-4, .cls-12 {
        stroke-width: 1.37px;
      }

      .cls-6, .cls-13 {
        stroke-width: 1.8px;
      }

      .cls-7, .cls-17 {
        stroke-width: 1.65px;
      }

      .cls-8, .cls-18 {
        stroke-width: 1.56px;
      }

      .cls-9, .cls-15 {
        stroke-width: 1.51px;
      }

      .cls-10, .cls-16 {
        stroke-width: 1.48px;
      }

      .cls-34, .cls-35, .cls-36, .cls-37, .cls-38, .cls-39 {
        fill: #20164c;
      }

      .cls-34, .cls-40 {
        opacity: .15;
      }

      .cls-35 {
        opacity: .05;
      }

      .cls-36 {
        opacity: .4;
      }

      .cls-37 {
        opacity: .25;
      }

      .cls-38, .cls-41 {
        opacity: .2;
      }

      .cls-39 {
        opacity: .3;
      }

      .cls-42 {
        fill: #0c0812;
      }

      .cls-43 {
        fill: #b33c33;
      }

      .cls-40, .cls-41 {
        fill: #d7c5ff;
      }

      .cls-44 {
        clip-path: url(#clippath);
      }
    </style>
    <clipPath id="clippath">
      <path class="cls-18" d="M171.17,416.93c15.16,6.04,28.14,12.02,40.13,17.39,2.59,1.16,3.89,2.92,3.4,4.67-1.21,4.36-7.85,9.59-5.2,15.81-18.7-12.68-36.56-25.35-38.33-37.87Z"/>
    </clipPath>
    <clipPath id="clippath-1">
      <path class="cls-16" d="M79.33,410.24c-5.22,9.79-25.48,19.13-38.78,27.6-2.72,1.73-3.57,3.77-2.25,5.21,4.31,4.71,9.75,7.46,16.12,8.58,19.8-14.94,34.23-29.34,24.91-41.39Z"/>
    </clipPath>
    <clipPath id="clippath-2">
      <path class="cls-17" d="M77.19,413.57c.81,17.38-20.64,11.37-30.72,39.25,2.51,3.28,5.99,4.74,12.57,5.35l-2.37,2.56c-.8.86.18,1.85,2.13,2.16,23.21,3.69,45.93,4.93,67.65,1.07,2.35,1.44,7.71,1.39,12.63.65,4.75-.71,11.93,3.42,30.9-1.69,10.21,3.94,12-.02,39.75-5.74,3.73-3.02-13.32-15.19-38.57-40.25,11.91-15.63-105.69-22.18-93.98-3.36Z"/>
    </clipPath>
    <clipPath id="clippath-3">
      <path class="cls-12" d="M77.19,413.57c-9.12-8.55-22.63-13.68-27.53-21.22-5.86-8.45,5.96-18.14,4.42-29.95,58.91-8.04,98.67-9.77,132.26-.1,9.01,7.76,7.98,21.97,2.64,26.56-4.39,3.34-16.76,10.88-13.35,14.78,3.98,2.38,1.63,4.75-5.42,7.8-21.45-7.94-56.2-3.84-93.02,2.13Z"/>
    </clipPath>
    <clipPath id="clippath-4">
      <path class="cls-13" d="M84.69,258.67c-5.74,3.44-12.21,3.5-19.43,8.65-4.43,1.03-8.69,1.47-13.59,1.38-3.77-.07-7.4,1.04-9.84,2.99-8.86,7.07-15.24,14.59-18.48,22.65-1.19,2.96-4.74,16.45-3.49,19.43,10.11,24.06,3.53,29.73,14.65,38.86,4.52,3.71,23,11.96,27.7,13.13,10.77,2.69,10.75,2.24,24.13,7.81,4.31-1.17,6.62-3.45,8.03-5.5,8.47,2.95,17.74,5.33,28.08,6.96,4.67-.32,8.94-2.37,12.85-5.94.49-.45,1.43-.46,2-.06.88.61,2.04.97,3.46,1.1,4.83-1.37,6.58-4.08,11.47-3.77,9.69,2.92,14.62-2.12,22.13-.48,10.77,2.34,17.56-6.11,24.34-14.54,4.9-6.09,5.17-12.78,6-19.96,1.54-13.21,7.34-25.47-1.92-50.47-1.57-3.58-24.83-17.84-33.91-22.51-4.92-2.53-11.01-3.83-17.17-3.57-7.77.33-14.25,1.48-19.47,3.44-1.13.42-2.53.32-3.47-.28s-1.88-1.3-2.72-2.01c-12.36,4.47-26.2,5.24-41.36,2.69Z"/>
    </clipPath>
    <clipPath id="clippath-5">
      <path class="cls-2" d="M87.06,265.05c-44.36-19.69-73.6-79.81-61.81-117.47,13.77-43.98,61.91-65.21,111.6-49.65,49.69,15.55,92.61,62.71,59.72,124.81-8.09,15.27-12.1,33.52-24.36,38.6l-43.65,18.63c-15.49,1.87-26.4-1.51-32.66-10.22l-8.83-4.69Z"/>
    </clipPath>
    <clipPath id="clippath-6">
      <path class="cls-43" d="M97.79,234.68c6.57,49.23,37.49,48.09,44.17-2.41-13.31,22.89-32.84,20.34-44.17,2.41Z"/>
    </clipPath>
    <clipPath id="clippath-7">
      <ellipse class="cls-3" cx="162.23" cy="195.59" rx="23.2" ry="30.08" transform="translate(-85.13 137.41) rotate(-37.09)"/>
    </clipPath>
    <clipPath id="clippath-8">
      <ellipse class="cls-3" cx="77.16" cy="193.29" rx="30.08" ry="23.2" transform="translate(-115.1 113.6) rotate(-45.72)"/>
    </clipPath>
    <clipPath id="clippath-9">
      <path class="cls-15" d="M82.98,74.99c-8.04-4.82-12.49-1.96-14.94-6.29-.83-4.2,8.78-1.55,4.2-9.55-14.05-4.62-19.87-2.62-24.29-5.99-3.82-2.82-2.13-8.36,2.39-17.18-2.47-1.5-.26-20.56,1.87-18.97,4.86,3.63,14.27,4.97,19.41-4.75,4.24-.52,10.32,7.05,16.74,7.46,19.29-2.46,33.85-14.97,38.75-11.56,6.55,3.84,8.35,16.3,12.44,18.79,5.26,3.14,8.04-3.81,14.29-1.56,8.42,3.46,19.84,11.8,22.48,24.84.34,1.69-.41,3.44-1.9,4.32-.82.49-1.71.92-2.45,1.27,16.18,12.99,17.87,20.43.95,20.76,1.65,4.97,1.33,8.92,0,11.32-.38.7-1.2,1.04-1.98.84-4.38-1.13-6.09-.99-9.05-.12l-78.92-13.63Z"/>
    </clipPath>
    <clipPath id="clippath-10">
      <path class="cls-14" d="M61.26,132.66c-19.01,7.59-28.83,23.51-23.51,50.17,6.8,21.95,9.59,24.82,7.7,41.71,3.56,11.58,37.42,26.12,50.44,45.21-8.1-.08-17.72-3.64-28.04-8.78-19.68-11.72-44.26-30.39-57.81-49.73-2.02-6.49-7.1-33.3-7.17-53.55-.05-13.2,3.89-27.61,12-41.28,3.43-5.77,8.53-10.34,14.5-13.4,14.22-7.27,29.78-27.24,59.36-38.99,34.37-9.42,71.35,6.15,114.71,44.87,15.54,21.08,14.23,36.88,19.15,55.44.81,3.05.95,6.24.4,9.34-3.66,20.45-7.52,34.22-5.59,49.26-14.1,30.83-48.42,46.25-88.84,57.02,4.21-16.74,34.14-7.7,54.53-48.97,2.73-5.53,4.72-11.4,6.01-17.43,4.85-19.81,5.79-33.02,7.79-46.86-8.96-15.07-16.27-27.13-27.51-37.27-12.7-8.22-33.56-14.92-48.53-19.33-19.24-2.71-32.03,11.56-59.56,22.56Z"/>
    </clipPath>
  </defs>
  <g id="mini-mini">
    <g>
      <g>
        <path class="cls-21" d="M171.17,416.93c15.16,6.04,28.14,12.02,40.13,17.39,2.59,1.16,3.89,2.92,3.4,4.67-1.21,4.36-7.85,9.59-5.2,15.81-18.7-12.68-36.56-25.35-38.33-37.87Z"/>
        <g class="cls-44">
          <path class="cls-37" d="M165.88,410.69c14.05,16.42,33.49,29.68,61.78,37.76l-17.51,11.96c-29.85-15.93-48.6-32.33-44.27-49.72Z"/>
        </g>
        <path class="cls-8" d="M171.17,416.93c15.16,6.04,28.14,12.02,40.13,17.39,2.59,1.16,3.89,2.92,3.4,4.67-1.21,4.36-7.85,9.59-5.2,15.81-18.7-12.68-36.56-25.35-38.33-37.87Z"/>
      </g>
      <g>
        <path class="cls-21" d="M79.33,410.24c-5.22,9.79-25.48,19.13-38.78,27.6-2.72,1.73-3.57,3.77-2.25,5.21,4.31,4.71,9.75,7.46,16.12,8.58,19.8-14.94,34.23-29.34,24.91-41.39Z"/>
        <g class="cls-23">
          <path class="cls-37" d="M90.71,403.44c-15.07,23.26-48.1,31.86-51.55,50.2l9.61,2.43c29.04-19.75,47-37.88,41.94-52.63Z"/>
        </g>
        <path class="cls-10" d="M79.33,410.24c-5.22,9.79-25.48,19.13-38.78,27.6-2.72,1.73-3.57,3.77-2.25,5.21,4.31,4.71,9.75,7.46,16.12,8.58,19.8-14.94,34.23-29.34,24.91-41.39Z"/>
      </g>
      <g>
        <path class="cls-21" d="M77.19,413.57c.81,17.38-20.64,11.37-30.72,39.25,2.51,3.28,5.99,4.74,12.57,5.35l-2.37,2.56c-.8.86.18,1.85,2.13,2.16,23.21,3.69,45.93,4.93,67.65,1.07,2.35,1.44,7.71,1.39,12.63.65,4.75-.71,11.93,3.42,30.9-1.69,10.21,3.94,12-.02,39.75-5.74,3.73-3.02-13.32-15.19-38.57-40.25,11.91-15.63-105.69-22.18-93.98-3.36Z"/>
        <g class="cls-26">
          <path class="cls-34" d="M188.1,450.85c-22.68-10.34-38.07-22.5-42.98-37.27,13.75,22.8,48.25,27.01,42.98,37.27Z"/>
          <path class="cls-34" d="M179.24,446.33c-37.39-9.37-71-22.49-65.57-30.81,12.59,10.03,33.15,20.91,65.57,30.81Z"/>
          <path class="cls-35" d="M82.04,421.96c11.25,11.69,24.8,25.53,36.33,23.08-14.76-7.27-27.35-14.89-36.33-23.08Z"/>
          <path class="cls-34" d="M86.19,403.55c-.9,5.78,3.03,11.98,11.61,19.19-6.21-1.98-12.06-5.55-17.75-9.82l6.14-9.37Z"/>
          <path class="cls-34" d="M176.09,464.35c-10.04-2.41-19.84-7.36-29.35-13.94.38,7.64,4.79,13.55,10.07,20.96l19.28-7.02Z"/>
          <path class="cls-34" d="M127.04,465.83c-2.23-4.38-.23-11.39,2.47-20.8-8.01,9.71-15.23,17.37-17.42,23.07l14.95-2.27Z"/>
          <path class="cls-34" d="M56.51,461.62c5.79-6.43,13.4-14.12,22.53-19.99-14.6,5.84-22.75,12.94-31.79,18.44l9.27,1.55Z"/>
          <path class="cls-34" d="M72.88,415.22c40-6.16,79.51-2.73,118.73,6.61l10-8.86c-46.77-12.84-91.85-17.21-133.73-5.49l5,7.74Z"/>
          <path class="cls-34" d="M76.65,414.04c38.95-7.39,78.9-5.21,119.47,2.89l8.61-9.15c-48.63-11.35-94.28-14.31-134.25-1.3l6.18,7.56Z"/>
        </g>
        <path class="cls-7" d="M77.19,413.57c.81,17.38-20.64,11.37-30.72,39.25,2.51,3.28,5.99,4.74,12.57,5.35l-2.37,2.56c-.8.86.18,1.85,2.13,2.16,23.21,3.69,45.93,4.93,67.65,1.07,2.35,1.44,7.71,1.39,12.63.65,4.75-.71,11.93,3.42,30.9-1.69,10.21,3.94,12-.02,39.75-5.74,3.73-3.02-13.32-15.19-38.57-40.25,11.91-15.63-105.69-22.18-93.98-3.36Z"/>
      </g>
      <g>
        <path class="cls-21" d="M77.19,413.57c-9.12-8.55-22.63-13.68-27.53-21.22-5.86-8.45,5.96-18.14,4.42-29.95,58.91-8.04,98.67-9.77,132.26-.1,9.01,7.76,7.98,21.97,2.64,26.56-4.39,3.34-16.76,10.88-13.35,14.78,3.98,2.38,1.63,4.75-5.42,7.8-21.45-7.94-56.2-3.84-93.02,2.13Z"/>
        <g class="cls-24">
          <path class="cls-34" d="M78.52,409.82c22.71-10.94,37.29-23.45,40.19-38.24-11.1,23.02-47.49,28.22-40.19,38.24Z"/>
          <path class="cls-34" d="M102.1,400.49c40.08-9.28,73.96-22.13,67.22-30.48-12.6,10.54-32.85,21.47-67.22,30.48Z"/>
          <path class="cls-35" d="M146.33,388.79c18.41-3.63,31.32-9.25,36.29-17.77-8.34,7.02-20.9,12.81-36.29,17.77Z"/>
          <path class="cls-34" d="M94.34,410.8c66.19-10.13,94.04-21.44,90.3-30.89-18.55,14.42-51,23.88-90.3,30.89Z"/>
          <path class="cls-35" d="M124.98,410.52c19.56-2.76,39.36-5.5,43.33-9.26,5.06-2.35,11.55-6.84,18.14-11.47-5.77,5.2-12.79,11-12.29,13.16-10.5,2.97-29.88,5.27-49.18,7.57Z"/>
          <path class="cls-34" d="M66.44,375.41c12.76,8.37,15.76,17.67,10.28,27.78-.67-9.78-3.61-19.13-10.28-27.78Z"/>
          <path class="cls-34" d="M40.18,382.05c25.49,10.31,30.03,24.07,41.52,37.22l-43.96-27.44,2.44-9.78Z"/>
          <path class="cls-40" d="M199.23,372.56c4.61,12.01-6.7,18.53-20.33,28.74,17.08-5.49,33.25-11,38.11-16.89l-17.78-11.85Z"/>
          <path class="cls-40" d="M51.97,367.61c-1.11,18.57,7.92,31.77,17.45,42.11l-31.68-17.89,14.23-24.22Z"/>
          <path class="cls-34" d="M191.81,360.58l-154.82-2.04,9.38,13c1.44,2.08,4.78,3.74,9.09,4.49,9.87,1.74,23.19,2.54,35.45,6.14,3.95-.76,6.06-2.22,7.36-3.55,7.77,1.9,16.26,3.44,25.74,4.49,4.28-.21,8.19-1.53,11.78-3.83.45-.29,1.31-.3,1.84-.04.81.39,1.87.63,3.17.71,4.42-.89,6.03-2.63,10.52-2.43,8.88,1.88,17.1,1.99,23.62,3.61,15.2,3.77,21.16-9.46,27.73-16.19l-10.84-4.36Z"/>
          <path class="cls-34" d="M195.52,367.09c-6.57,6.73-4.04,8.66-19.24,4.88-6.52-1.62-16.1,3.62-24.98,1.74-4.49-.2-6.09,1.55-10.52,2.43-1.31-.08-2.37-.31-3.17-.71-.53-.26-1.39-.25-1.84.04-3.59,2.3-7.5,3.62-11.78,3.83-9.48-1.05-17.97-2.59-25.74-4.49-1.29,1.33-3.41,2.79-7.36,3.55-12.26-3.59-25.57-4.4-35.45-6.14-4.3-.76-7.65-2.41-9.09-4.49l-9.38-13,150.77,1.99,7.76,10.37Z"/>
        </g>
        <path class="cls-4" d="M77.19,413.57c-9.12-8.55-22.63-13.68-27.53-21.22-5.86-8.45,5.96-18.14,4.42-29.95,58.91-8.04,98.67-9.77,132.26-.1,9.01,7.76,7.98,21.97,2.64,26.56-4.39,3.34-16.76,10.88-13.35,14.78,3.98,2.38,1.63,4.75-5.42,7.8-21.45-7.94-56.2-3.84-93.02,2.13Z"/>
      </g>
      <g>
        <path class="cls-21" d="M84.69,258.67c-5.74,3.44-12.21,3.5-19.43,8.65-4.43,1.03-8.69,1.47-13.59,1.38-3.77-.07-7.4,1.04-9.84,2.99-8.86,7.07-15.24,14.59-18.48,22.65-1.19,2.96-4.74,16.45-3.49,19.43,10.11,24.06,3.53,29.73,14.65,38.86,4.52,3.71,23,11.96,27.7,13.13,10.77,2.69,10.75,2.24,24.13,7.81,4.31-1.17,6.62-3.45,8.03-5.5,8.47,2.95,17.74,5.33,28.08,6.96,4.67-.32,8.94-2.37,12.85-5.94.49-.45,1.43-.46,2-.06.88.61,2.04.97,3.46,1.1,4.83-1.37,6.58-4.08,11.47-3.77,9.69,2.92,14.62-2.12,22.13-.48,10.77,2.34,17.56-6.11,24.34-14.54,4.9-6.09,5.17-12.78,6-19.96,1.54-13.21,7.34-25.47-1.92-50.47-1.57-3.58-24.83-17.84-33.91-22.51-4.92-2.53-11.01-3.83-17.17-3.57-7.77.33-14.25,1.48-19.47,3.44-1.13.42-2.53.32-3.47-.28s-1.88-1.3-2.72-2.01c-12.36,4.47-26.2,5.24-41.36,2.69Z"/>
        <g class="cls-25">
          <path class="cls-34" d="M136.31,261.86c7.19,1.53,16.08,1.9,21.71,4.11l26.03,38.65-30.44-35.15c-3.26-2.8-11.92-4.54-17.3-7.61Z"/>
          <path class="cls-34" d="M109.92,267.99c4.07-.07,8.13.1,12.03,2.8,10.64,16.16,19.82,37.41,31.02,59.74-15.33-20.56-29.24-40.55-34.14-56.97-.36-3.27-4.58-4.45-8.9-5.57Z"/>
          <path class="cls-35" d="M134.65,296.19c17.21,21.21,34.28,39.71,50.82,47.75-13.57-10.83-31.94-28.91-50.82-47.75Z"/>
          <path class="cls-35" d="M176.28,305.44c13.07,13.91,18.43,26.72,19.15,38.86-4.37-12.63-10.9-25.61-19.15-38.86Z"/>
          <path class="cls-34" d="M137.29,369.05c-23.27,4.48-27.9-9.88-37.8-32.26-.38,11.61-.77,23.03-1.75,27.7.49,1.79-2.64,4.8-6.11,7.92l26.23,7.17,19.42-10.53Z"/>
          <path class="cls-34" d="M99.49,332.29c6.32-.94,7-13.8-.19-32.95l.19,32.95Z"/>
          <path class="cls-34" d="M83.95,352.54c-.13-30.95-1.29-66.92,4.13-70.47-.58,27.99-1.69,53-4.13,70.47Z"/>
          <path class="cls-34" d="M98.57,264.83c-5.29,4.52-11,8.2-16.65,10.56-9.31,19.8-13.12,34.87-10.02,44.02,3.2-13.71,10.38-28.09,13.72-42.89,5.44-2.28,9.4-6.69,12.95-11.7Z"/>
          <path class="cls-34" d="M55.08,266.26c14.02-8.64,29.19-11.07,45.52-7.28-22.22,8.69-36.87,10.65-45.52,7.28Z"/>
          <path class="cls-34" d="M113.37,256.95c6.18,3.75,13.12,4.38,21.19.34l-4.53-6.13-16.65,5.79Z"/>
          <path class="cls-34" d="M19.13,310.71c18.41,41.41,69.37,52.58,80.05,64.34l-32.2,3.02-38.49-12.58-9.37-54.78Z"/>
          <path class="cls-34" d="M145.93,373.91c41.28-4.93,55.56-37.68,63.01-70.25,13.54,16.81.06,37.66,3.12,56.72l-25.16,16.85-40.97-3.33Z"/>
          <path class="cls-41" d="M8.83,308.52c33.01-36.82,131.9-51.65,194.6-33.5l-30.72-29.68-136.19,17.16-27.69,46.02Z"/>
          <path class="cls-40" d="M127.43,341.34c3.43-18.32-8.6-42.3-10.49-61.29,12.74,25,23.65,48.22,44.04,73.33-22.21-17.98-22.61-23.37-33.55-12.04Z"/>
          <path class="cls-40" d="M74.33,282.23c-14.68,19.88-26.14,38.82-5.67,48.38-5.16-12.91-.55-30.28,5.67-48.38Z"/>
          <path class="cls-34" d="M151.12,369.39c-5.89-4.27-8.22-12.97-10.18-22.14,6.88,9.85,14.88,18.74,25.9,25.03l-15.73-2.89Z"/>
        </g>
        <path class="cls-6" d="M84.69,258.67c-5.74,3.44-12.21,3.5-19.43,8.65-4.43,1.03-8.69,1.47-13.59,1.38-3.77-.07-7.4,1.04-9.84,2.99-8.86,7.07-15.24,14.59-18.48,22.65-1.19,2.96-4.74,16.45-3.49,19.43,10.11,24.06,3.53,29.73,14.65,38.86,4.52,3.71,23,11.96,27.7,13.13,10.77,2.69,10.75,2.24,24.13,7.81,4.31-1.17,6.62-3.45,8.03-5.5,8.47,2.95,17.74,5.33,28.08,6.96,4.67-.32,8.94-2.37,12.85-5.94.49-.45,1.43-.46,2-.06.88.61,2.04.97,3.46,1.1,4.83-1.37,6.58-4.08,11.47-3.77,9.69,2.92,14.62-2.12,22.13-.48,10.77,2.34,17.56-6.11,24.34-14.54,4.9-6.09,5.17-12.78,6-19.96,1.54-13.21,7.34-25.47-1.92-50.47-1.57-3.58-24.83-17.84-33.91-22.51-4.92-2.53-11.01-3.83-17.17-3.57-7.77.33-14.25,1.48-19.47,3.44-1.13.42-2.53.32-3.47-.28s-1.88-1.3-2.72-2.01c-12.36,4.47-26.2,5.24-41.36,2.69Z"/>
      </g>
      <g>
        <path class="cls-19" d="M87.06,265.05c-44.36-19.69-73.6-79.81-61.81-117.47,13.77-43.98,61.91-65.21,111.6-49.65,49.69,15.55,92.61,62.71,59.72,124.81-8.09,15.27-12.1,33.52-24.36,38.6l-43.65,18.63c-15.49,1.87-26.4-1.51-32.66-10.22l-8.83-4.69Z"/>
        <g class="cls-31">
          <path class="cls-38" d="M39.14,192.97c-5.47-26.7-.52-38.81,17.01-49.6,1.84-1.13,3.78-2.1,5.8-2.89,27.8-10.91,52.3-18.62,71.77-15.83,15.15,4.47,29.29,10.62,42.16,18.89,11.4,10.19,16.44,14.87,25.56,29.98-1.22,8.55-5.86,22.55-8.43,33.92l15.11-45.99-26.89-37.88-49.29-19.39-60.09,4.85-38.46,34.15c-9.41,16.18-.02,33.05,5.77,49.78Z"/>
          <g>
            <path class="cls-43" d="M97.79,234.68c6.57,49.23,37.49,48.09,44.17-2.41-13.31,22.89-32.84,20.34-44.17,2.41Z"/>
            <g class="cls-28">
              <ellipse class="cls-39" cx="117.18" cy="266.73" rx="9.86" ry="23" transform="translate(-171.39 226.75) rotate(-58.4)"/>
            </g>
          </g>
          <g>
            <path class="cls-38" d="M140.63,150.07c13.67,12.65,23.08,13.85,29.61,7.28-9.83-10.68-19.71-12.2-29.61-7.28Z"/>
            <path class="cls-42" d="M148.71,142.58c-3.99,1.17-6.4,3.97-8.14,7.49,15.04,2.13,25,4.56,37.13,14.52.5.41,1.2-.17.89-.74-4.53-8.29-11.14-12.74-22.82-20.67-2.01-1.36-4.71-1.29-7.06-.61Z"/>
          </g>
          <g>
            <path class="cls-38" d="M60.39,156.04c17.49,6.41,26.63,3.89,30.13-4.69-13.19-6.07-22.88-3.67-30.13,4.69Z"/>
            <path class="cls-42" d="M87.75,141.37c3.75,1.79,4.11,7.62,2.53,10.29-15.19-.1-22.43.85-35.88,8.93-.55.33-1.16-.35-.78-.86,5.7-7.54,8.93-11.95,21.89-17.53,2.33-1,10.31-1.75,12.24-.83Z"/>
          </g>
          <ellipse class="cls-36" cx="159.96" cy="199.11" rx="24.53" ry="31.45" transform="translate(-87.71 136.75) rotate(-37.09)"/>
          <ellipse class="cls-36" cx="74.58" cy="195.94" rx="31.45" ry="24.53" transform="translate(-118.24 113.63) rotate(-46.04)"/>
          <g>
            <ellipse class="cls-20" cx="162.23" cy="195.59" rx="23.2" ry="30.08" transform="translate(-85.13 137.41) rotate(-37.09)"/>
            <g class="cls-27">
              <ellipse class="cls-33" cx="180.67" cy="189.95" rx="8.97" ry="10.59" transform="translate(-74.39 250.51) rotate(-59.79)"/>
              <path class="cls-38" d="M149.1,209.53c9.84,12.71,20.72,15.14,33.34.3-12.92,10.53-23.85,9.33-33.34-.3Z"/>
            </g>
            <ellipse class="cls-1" cx="162.23" cy="195.59" rx="23.2" ry="30.08" transform="translate(-85.13 137.41) rotate(-37.09)"/>
          </g>
          <g>
            <ellipse class="cls-20" cx="77.16" cy="193.29" rx="30.08" ry="23.2" transform="translate(-115.1 113.6) rotate(-45.72)"/>
            <g class="cls-30">
              <ellipse class="cls-33" cx="62.55" cy="181.54" rx="10.02" ry="11.63" transform="translate(-128.66 163.97) rotate(-65.74)"/>
              <path class="cls-38" d="M88.75,209.35c-11.35,11.38-22.45,12.43-33.11-3.87,11.5,12.07,22.49,12.24,33.11,3.87Z"/>
            </g>
            <ellipse class="cls-1" cx="77.16" cy="193.29" rx="30.08" ry="23.2" transform="translate(-115.1 113.6) rotate(-45.72)"/>
          </g>
          <g>
            <ellipse class="cls-38" cx="127.37" cy="220.24" rx="3.74" ry="4.25" transform="translate(-120.86 276) rotate(-72.62)"/>
            <ellipse class="cls-32" cx="127.55" cy="218.57" rx="3.74" ry="4.25" transform="translate(-119.14 275.01) rotate(-72.62)"/>
          </g>
          <g>
            <ellipse class="cls-38" cx="110.48" cy="220.78" rx="4.82" ry="4.4" transform="translate(-133.22 260.26) rotate(-72.62)"/>
            <ellipse class="cls-32" cx="110.92" cy="219.36" rx="4.82" ry="4.4" transform="translate(-131.56 259.69) rotate(-72.62)"/>
          </g>
          <path class="cls-34" d="M35.09,202.53c20.81,35.01,61.37,50.08,74.91,77.94l-24.26-.98c-37.28-13.94-60.86-38.44-50.66-76.96Z"/>
        </g>
        <path class="cls-11" d="M87.06,265.05c-44.36-19.69-73.6-79.81-61.81-117.47,13.77-43.98,61.91-65.21,111.6-49.65,49.69,15.55,92.61,62.71,59.72,124.81-8.09,15.27-12.1,33.52-24.36,38.6l-43.65,18.63c-15.49,1.87-26.4-1.51-32.66-10.22l-8.83-4.69Z"/>
      </g>
      <g>
        <path class="cls-21" d="M82.98,74.99c-8.04-4.82-12.49-1.96-14.94-6.29-.83-4.2,8.78-1.55,4.2-9.55-14.05-4.62-19.87-2.62-24.29-5.99-3.82-2.82-2.13-8.36,2.39-17.18-2.47-1.5-.26-20.56,1.87-18.97,4.86,3.63,14.27,4.97,19.41-4.75,4.24-.52,10.32,7.05,16.74,7.46,19.29-2.46,33.85-14.97,38.75-11.56,6.55,3.84,8.35,16.3,12.44,18.79,5.26,3.14,8.04-3.81,14.29-1.56,8.42,3.46,19.84,11.8,22.48,24.84.34,1.69-.41,3.44-1.9,4.32-.82.49-1.71.92-2.45,1.27,16.18,12.99,17.87,20.43.95,20.76,1.65,4.97,1.33,8.92,0,11.32-.38.7-1.2,1.04-1.98.84-4.38-1.13-6.09-.99-9.05-.12l-78.92-13.63Z"/>
        <g class="cls-29">
          <path class="cls-34" d="M114.84,69.67c-10.02-3.08-19.71-4.79-28.87-4.21-6.19-5.14-12.02-7.52-17.37-6.24-10.04,14.46,3.92,17.95,18.66,16.51l27.58-6.06Z"/>
          <path class="cls-34" d="M44.68,27.28c13.39,1.08,37.33,19.83,38.67,26.81-7.8-7.12-30.08-22.5-40.44-18.6l1.76-8.2Z"/>
          <path class="cls-34" d="M81.96,15.75c10.04,10.7,16.13,20.6,21.04,33.24-1.93-13.01-5.9-26.12-10.01-37.48l-11.03,4.24Z"/>
          <path class="cls-34" d="M130.24,4.99c5.94,16.97,2.61,34.25-6.24,53.79,8.75-14.33,16.93-24.53,20.46-36.34l-14.22-17.45Z"/>
          <path class="cls-39" d="M153.3,75.2c3.52-9.39,13.22-18.13,26.34-23.49l8.46,9.96c-13.69-2.06-24.65,3.53-34.8,13.53Z"/>
          <path class="cls-39" d="M149.64,80.89c8.54-4.96,17.19-5.98,27.58-3.78l-2.19,16.96c-5.42-4.21-15.11-8.67-25.39-13.18Z"/>
          <path class="cls-40" d="M180.72,84.05c-.29-3.86-4.64-9.31-12.53-16.14.76-.42,1.68-.92,2.51-1.48,1.53-1.02,2.34-2.96,2.05-4.82-2.26-14.26-13.53-23.08-21.92-26.62-6.25-2.28-9.28,5.46-14.48,2.17-4.05-2.61-5.48-16.26-11.97-20.28-4.84-3.59-19.94,10.63-39.5,13.95-6.47-.25-12.37-8.39-16.67-7.69-5.49,10.85-14.95,9.68-19.75,5.83-1.18-.95-7.22,2.48-7.8,8.38l5.03-24.35,27.58-8.8L126.96,0l56.85,45.16,8.9,31.14-11.99,7.75Z"/>
        </g>
        <path class="cls-9" d="M82.98,74.99c-8.04-4.82-12.49-1.96-14.94-6.29-.83-4.2,8.78-1.55,4.2-9.55-14.05-4.62-19.87-2.62-24.29-5.99-3.82-2.82-2.13-8.36,2.39-17.18-2.47-1.5-.26-20.56,1.87-18.97,4.86,3.63,14.27,4.97,19.41-4.75,4.24-.52,10.32,7.05,16.74,7.46,19.29-2.46,33.85-14.97,38.75-11.56,6.55,3.84,8.35,16.3,12.44,18.79,5.26,3.14,8.04-3.81,14.29-1.56,8.42,3.46,19.84,11.8,22.48,24.84.34,1.69-.41,3.44-1.9,4.32-.82.49-1.71.92-2.45,1.27,16.18,12.99,17.87,20.43.95,20.76,1.65,4.97,1.33,8.92,0,11.32-.38.7-1.2,1.04-1.98.84-4.38-1.13-6.09-.99-9.05-.12l-78.92-13.63Z"/>
      </g>
      <g>
        <path class="cls-21" d="M61.26,132.66c-19.01,7.59-28.83,23.51-23.51,50.17,6.8,21.95,9.59,24.82,7.7,41.71,3.56,11.58,37.42,26.12,50.44,45.21-8.1-.08-17.72-3.64-28.04-8.78-19.68-11.72-44.26-30.39-57.81-49.73-2.02-6.49-7.1-33.3-7.17-53.55-.05-13.2,3.89-27.61,12-41.28,3.43-5.77,8.53-10.34,14.5-13.4,14.22-7.27,29.78-27.24,59.36-38.99,34.37-9.42,71.35,6.15,114.71,44.87,15.54,21.08,14.23,36.88,19.15,55.44.81,3.05.95,6.24.4,9.34-3.66,20.45-7.52,34.22-5.59,49.26-14.1,30.83-48.42,46.25-88.84,57.02,4.21-16.74,34.14-7.7,54.53-48.97,2.73-5.53,4.72-11.4,6.01-17.43,4.85-19.81,5.79-33.02,7.79-46.86-8.96-15.07-16.27-27.13-27.51-37.27-12.7-8.22-33.56-14.92-48.53-19.33-19.24-2.71-32.03,11.56-59.56,22.56Z"/>
        <g class="cls-22">
          <path class="cls-34" d="M39.39,222.65c-10.18-4.86-15.03-23.21-13.88-56.82,4.22,24.16,8.79,43.91,13.88,56.82Z"/>
          <path class="cls-34" d="M5.78,200.91c-3.64-9.39-4.25-24.25-1.35-45.46,6.57-28.5,25.97-42.22,45.2-56.15-18.95,17.32-35.98,35.24-39.65,57.27-3.58,17.54-4.37,32.15-4.21,44.34Z"/>
          <path class="cls-34" d="M221.73,223.76c.57-28.07-1.21-55.84-7.48-68.83-10.19-18.12-27.78-36.63-47.29-55.25,20.15,15.23,39.1,30.63,47.82,47.5,6.25,9.38,12.31,25.82,18.37,42.47l-11.41,34.1Z"/>
          <path class="cls-34" d="M196.67,238.08c4.8-6.3,8.43-12.68,9.39-19.22-1.51-7.88,4.36-26.1,9.1-42.74-2.11,18.8-4.29,37.76-2.08,45.1-5.16,9.07-10.71,13.82-16.41,16.87Z"/>
          <path class="cls-34" d="M136.77,260.2c10.4,2.81,36.26-4.1,53.82-17.38-7.1,10.17-25.43,18.72-35.18,20.91,11.67.8,25.62-3.85,40.55-10.84l-68.64,34.55-1.78-17.87,11.24-9.37Z"/>
          <path class="cls-34" d="M94.59,261.77c-8.61.63-24.87-10.75-40.59-21.31,8.73,7.53,18.46,16.85,23.91,18.46-8.72.17-19.15-4.85-30.01-11.19l27.84,21.91,25.88,4.11-7.03-11.98Z"/>
          <path class="cls-34" d="M200.25,161.21c.65,36.38-5.55,63.17-23.06,74.1l23.06-74.1Z"/>
          <path class="cls-40" d="M230.16,193.79c-24.28,43.76-66.8,63.71-110.61,81.97l3.27,11.34,91.33-28.99,16.02-64.32Z"/>
          <path class="cls-40" d="M.68,173.5c21.2,46.3,62.09,69.9,104.38,91.88l-4,11.25L12.3,240.01C.55,219.6-1.28,196.98.68,173.5Z"/>
          <path class="cls-40" d="M30.28,95.64c78.16-28.06,134.51-19.6,176.7,18.43-8.34-19.42-21-38.99-66.3-59.73l-64.29-7.02-46.11,48.33Z"/>
        </g>
        <path class="cls-5" d="M61.26,132.66c-19.01,7.59-28.83,23.51-23.51,50.17,6.8,21.95,9.59,24.82,7.7,41.71,3.56,11.58,37.42,26.12,50.44,45.21-8.1-.08-17.72-3.64-28.04-8.78-19.68-11.72-44.26-30.39-57.81-49.73-2.02-6.49-7.1-33.3-7.17-53.55-.05-13.2,3.89-27.61,12-41.28,3.43-5.77,8.53-10.34,14.5-13.4,14.22-7.27,29.78-27.24,59.36-38.99,34.37-9.42,71.35,6.15,114.71,44.87,15.54,21.08,14.23,36.88,19.15,55.44.81,3.05.95,6.24.4,9.34-3.66,20.45-7.52,34.22-5.59,49.26-14.1,30.83-48.42,46.25-88.84,57.02,4.21-16.74,34.14-7.7,54.53-48.97,2.73-5.53,4.72-11.4,6.01-17.43,4.85-19.81,5.79-33.02,7.79-46.86-8.96-15.07-16.27-27.13-27.51-37.27-12.7-8.22-33.56-14.92-48.53-19.33-19.24-2.71-32.03,11.56-59.56,22.56Z"/>
      </g>
    </g>
  </g>
</svg>