<?xml version="1.0" encoding="UTF-8"?>
<svg id="Layer_2" data-name="Layer 2" xmlns="http://www.w3.org/2000/svg" xmlns:xlink="http://www.w3.org/1999/xlink" viewBox="0 0 205.66 307.16">
  <defs>
    <style>
      .cls-1, .cls-2, .cls-3, .cls-4, .cls-5, .cls-6, .cls-7, .cls-8, .cls-9, .cls-10, .cls-11 {
        fill: none;
      }

      .cls-2, .cls-3, .cls-12, .cls-4, .cls-13, .cls-5, .cls-14, .cls-6, .cls-15, .cls-7, .cls-8, .cls-16, .cls-9, .cls-10, .cls-17, .cls-18, .cls-19, .cls-20, .cls-11, .cls-21 {
        stroke-miterlimit: 10;
      }

      .cls-2, .cls-15 {
        stroke: #c6c6c6;
        stroke-width: .61px;
      }

      .cls-3, .cls-12, .cls-13, .cls-5, .cls-14, .cls-7, .cls-8, .cls-16, .cls-9, .cls-10, .cls-18, .cls-20, .cls-11, .cls-21 {
        stroke-width: .91px;
      }

      .cls-3, .cls-14 {
        stroke: #ee618b;
      }

      .cls-22, .cls-20 {
        fill: #d7818e;
      }

      .cls-12, .cls-23 {
        fill: #f3c0bd;
      }

      .cls-12, .cls-9 {
        stroke: #dba4a2;
      }

      .cls-4, .cls-17 {
        stroke: #4b4b4b;
        stroke-width: 5.64px;
      }

      .cls-13, .cls-10 {
        stroke: #e09da7;
      }

      .cls-13, .cls-24 {
        fill: #f4bdc3;
      }

      .cls-5, .cls-20 {
        stroke: #af6875;
      }

      .cls-25 {
        fill: #c17e84;
      }

      .cls-26, .cls-14 {
        fill: #ee618b;
      }

      .cls-6, .cls-19 {
        stroke: #898989;
        stroke-width: 1.62px;
      }

      .cls-27, .cls-21 {
        fill: #1e0a0a;
      }

      .cls-15, .cls-28 {
        fill: #f9f9f9;
      }

      .cls-29, .cls-18 {
        fill: #ffe3d7;
      }

      .cls-30 {
        clip-path: url(#clippath-17);
      }

      .cls-31 {
        clip-path: url(#clippath-19);
      }

      .cls-32 {
        clip-path: url(#clippath-11);
      }

      .cls-33 {
        clip-path: url(#clippath-16);
      }

      .cls-34 {
        clip-path: url(#clippath-18);
      }

      .cls-35 {
        clip-path: url(#clippath-10);
      }

      .cls-36 {
        clip-path: url(#clippath-15);
      }

      .cls-37 {
        clip-path: url(#clippath-13);
      }

      .cls-38 {
        clip-path: url(#clippath-14);
      }

      .cls-39 {
        clip-path: url(#clippath-12);
      }

      .cls-40 {
        clip-path: url(#clippath-20);
      }

      .cls-41 {
        fill: #ddd;
      }

      .cls-42 {
        clip-path: url(#clippath-1);
      }

      .cls-43 {
        clip-path: url(#clippath-3);
      }

      .cls-44 {
        clip-path: url(#clippath-4);
      }

      .cls-45 {
        clip-path: url(#clippath-2);
      }

      .cls-46 {
        clip-path: url(#clippath-7);
      }

      .cls-47 {
        clip-path: url(#clippath-6);
      }

      .cls-48 {
        clip-path: url(#clippath-9);
      }

      .cls-49 {
        clip-path: url(#clippath-8);
      }

      .cls-50 {
        clip-path: url(#clippath-5);
      }

      .cls-7, .cls-21 {
        stroke: #260f0f;
      }

      .cls-51 {
        fill: #e25550;
      }

      .cls-52 {
        fill: #e48f94;
      }

      .cls-8, .cls-16 {
        stroke: #8c2323;
      }

      .cls-16, .cls-53 {
        fill: #a4231e;
      }

      .cls-54 {
        fill: #fff;
      }

      .cls-55 {
        fill: #191918;
      }

      .cls-56 {
        fill: #7e7b86;
      }

      .cls-57 {
        fill: #e5e1df;
      }

      .cls-17 {
        fill: #4b4b4b;
      }

      .cls-58 {
        fill: #260f0f;
      }

      .cls-18, .cls-11 {
        stroke: #fcc8b6;
      }

      .cls-59 {
        fill: #f0ebff;
      }

      .cls-59, .cls-60 {
        opacity: .2;
      }

      .cls-61, .cls-60, .cls-62 {
        fill: #20164c;
      }

      .cls-61, .cls-63 {
        opacity: .15;
      }

      .cls-62 {
        opacity: .3;
      }

      .cls-64 {
        fill: #bab5bc;
      }

      .cls-19, .cls-65 {
        fill: #a5a5a3;
      }

      .cls-66 {
        fill: #0c0812;
      }

      .cls-67 {
        fill: #b33c33;
      }

      .cls-63 {
        fill: #d7c5ff;
      }

      .cls-68 {
        fill: #8c2f2f;
      }

      .cls-69 {
        clip-path: url(#clippath);
      }
    </style>
    <clipPath id="clippath">
      <rect class="cls-19" x="7.88" y="40.28" width="190.65" height="262.38" rx="16.29" ry="16.29"/>
    </clipPath>
    <clipPath id="clippath-1">
      <rect class="cls-57" x="14.02" y="40.28" width="178.37" height="245.48" rx="15.25" ry="15.25"/>
    </clipPath>
    <clipPath id="clippath-2">
      <path class="cls-21" d="M98.76,15.09c-6.04-12.69,4.31-18.09,5.85-.38,4.44-14.42,11.05-9.46,6.62,1.23l-12.47-.85Z"/>
    </clipPath>
    <clipPath id="clippath-3">
      <path class="cls-12" d="M91.37,208.9c-4.32,8.54-2.59,15.99,8,21.71,15.73,10.03-7.26,17.52,7.24,32.48l4.31-8.62c-8.5-6.67,10.05-9.42-3.75-22.6l-15.8-22.96Z"/>
    </clipPath>
    <clipPath id="clippath-4">
      <path class="cls-12" d="M131.09,234.14l5.08-2.46c7.72,11.37-.85,17.84-11.96,20.58-7.63,1.41-10.65,4.23-9.62,8.16l-7.54,1.77c-2.47-4.01-1.72-9.81,8.85-13.78,13.36-4.51,22.76-7.55,15.19-14.27Z"/>
    </clipPath>
    <clipPath id="clippath-5">
      <path class="cls-12" d="M143.73,226.47c5.79,1.19,8.99,4.65,9.12,10.8l5.74-2.69c2.26-8.48-2.6-11.53-8.43-13.96l-6.43,5.86Z"/>
    </clipPath>
    <clipPath id="clippath-6">
      <path class="cls-12" d="M94.72,210.59c3.31,15.32-2.31,21.09-7.85,30.56-3.85,11.68.62,21.47,13.41,29.36,5.43,2.83,9.79-.99,18.42,1.28l1.39-8.13c-6.66-9.75-12.68.71-19.8-4.42-6.93-5.87-6.87-15.81-.41-22.15,2.88-2.12,4.82-3.9,2.91-12.76l-8.06-13.74Z"/>
    </clipPath>
    <clipPath id="clippath-7">
      <path class="cls-12" d="M153.54,218.95c5.16-1.71,11.02,2.78,11.85,5.3,1.21,3.68-3.12,8.22-5.29,8.94-16.38,4.07-20.19,3.58-20.97,18.96-4.59,4.14-18.13-4.46-21.86,14.2-.71,5.43-.29,10.77,3.35,15.05,4.81,4.63,5.95,8.16,2.85,10.41,4.57-1.76,5.49-5.13,1.83-11.56-3.28-7.31-2.43-13.62,5.14-18.3,4.73-2.55,9.22,4.71,15.2-.6,5.99-6.9-6.5-18.72,14.09-22.07,5.05-.72,16.37,5.1,19.67-13.34,1.8-10.28-10.25-16.94-18.01-18.24l-7.84,11.25Z"/>
    </clipPath>
    <clipPath id="clippath-8">
      <path class="cls-20" d="M100.08,194.99c-16.49-.39-23.92,11.6-23.64,25.61.84,10.78,8.68,18.17,16.63,13.85l3.54-9.31c-9.67,3.47-13.12-1.36-13.41-10.39-.04-1.29.66-2.49,1.81-3.07,11.29-5.71,15.01,27.43,34.31,27.08,15.8-.88,29.12-11.75,41.28-27.28,8.49-9.16,4.94-17.05-6.18-24.12-.4-.29-7.72-4.63-7.88-3.52,0,0-.67,4.76-.67,4.76,24.41,14.32-19.99,12.58-37.25,7.73-2.78-.78-5.64-1.27-8.53-1.34Z"/>
    </clipPath>
    <clipPath id="clippath-9">
      <path class="cls-21" d="M43.57,67.72C53.17,9.66,122.59-6.98,154.35,41.8c3.53,5.42,5.82,11.56,6.87,17.94,6.14,37.62-3.25,59.51.52,70.1,7.03,16.28,18.16,16.32,20.85,39.1-8-22.24-16.78-7.35-27.56-34.79-.32,14.48,1.78,26.96,10.93,33.56-6.95-4.22-11.78-11.07-14.88-20.06.03,21.6,17.57,17.87,17.7,43.1-8.71-11.26-22.11-23.96-23.71-40.95-.22,7.88,2.42,17.06,6.63,26.95-10.7-13.32-16.82-21.88-14.15-32.85-3.9,10.22-3.27,18.72,5.98,27.76-21.45-5.96-29.23-20.48-26.38-41.67l-14.78,1.08c3.42,26-1.03,38.88-9.47,45.09,1.12-19.09-14.08-9.38-7.21-35.24-15.97,12,5.33,9.88-4.01,31.78-.35,14.55-19.74,15.83-9.56,37.87-16.65-35.92,6.79-24.96-4.9-54.75l7.17,24.73c-10.07-13.82-18.46-28.77-22.34-46.76-6.11,15.8-4.14,23.88,4.51,34.29-16.02-13.53-12.18-28.17-11.66-47.61.56-21.19-7.86-36.31-1.34-52.77Z"/>
    </clipPath>
    <clipPath id="clippath-10">
      <path class="cls-14" d="M113.4,168.23c4.53-1.54,8.97,2.24,9,9.71-.72,13.13,3.03,23.99-1.02,25.33-2.04,1.11-2.29-1.71-4.35-2.47-5.82-2.15-14.63-14.4-15.16-19.86-2.26-8.4-1.8-13.15,3.18-12.35,2.17.66,3.14-4.03,8.36-.35Z"/>
    </clipPath>
    <clipPath id="clippath-11">
      <path class="cls-16" d="M119.29,154.33c-8.65,1.81-12.24,15.5-5.69,24.22,12.76,14.71,16.32,30.32,24.03,28.66,4.27-.33,2.17-3.8,4.82-6.32,7.46-7.11,10.81-28.35,6.85-35.13-3.79-11.57-8.72-16.73-16.03-11.85-2.91,2.49-8.48-1.42-13.97.43Z"/>
    </clipPath>
    <clipPath id="clippath-12">
      <path class="cls-16" d="M103.43,162.88c6.74,1.11,10.13,8.53,5.62,17.49-8.92,15.27-10.73,30.72-16.74,29.68-3.29,0-1.89-3.53-4.07-5.79-6.14-6.36-9.96-26.78-7.32-33.68,2.22-11.54,5.7-16.93,11.6-12.73,2.38,2.21,6.48-2.79,10.92,5.02Z"/>
    </clipPath>
    <clipPath id="clippath-13">
      <path class="cls-18" d="M160.69,84.71c18.32-9.66,13.93,30.06-9.27,28.4l9.27-28.4Z"/>
    </clipPath>
    <clipPath id="clippath-14">
      <path class="cls-13" d="M100.25,131.18c1.98,8.52-4.49,15.4,1.36,17.61,1.65,4.86-5.62,8.02-.69,10.24-1.77,4.57-1.09,7.16,3.98,6.16,5.05-1,9.86-2.2,13.62-4.31,2.96-1.04,3.56-3.07.77-6.54,9.19-4.08-1.23-7.14,0-12.16.64-3.67-2.7-4.16-1-11.8l-18.04.81Z"/>
    </clipPath>
    <clipPath id="clippath-15">
      <path class="cls-18" d="M56.28,86.35c-18.32-9.66-13.93,30.06,9.27,28.4l-9.27-28.4Z"/>
    </clipPath>
    <clipPath id="clippath-16">
      <path class="cls-18" d="M55.79,94.6c-6.43,31.08,8.12,43.82,44.93,40.37,21.11.23,37.91-3.9,47.22-15.59,7.46-9.28,9.92-20.16,11.97-35.18-10.61-18.61-23.34-35.71-40.51-50.08-9.74-8.15-24.27-6.96-32.49,2.71-15.41,18.12-26.22,37.27-31.11,57.76Z"/>
    </clipPath>
    <clipPath id="clippath-17">
      <ellipse class="cls-15" cx="129.99" cy="92.06" rx="13.98" ry="16.51" transform="translate(-20.94 142.98) rotate(-53.95)"/>
    </clipPath>
    <clipPath id="clippath-18">
      <ellipse class="cls-15" cx="80.71" cy="98.14" rx="16.51" ry="13.98" transform="translate(-44.63 77.25) rotate(-41.11)"/>
    </clipPath>
    <clipPath id="clippath-19">
      <path class="cls-67" d="M97.91,110.76c0,8.49,2.31,15.88,12.93,15.03,6.54-.52,9.09-8.22,2.31-16.11-3.13,12.24-12.19,7.49-15.24,1.08Z"/>
    </clipPath>
    <clipPath id="clippath-20">
      <ellipse class="cls-1" cx="93.59" cy="231.08" rx="8.66" ry="6.53" transform="translate(-155.48 242.13) rotate(-70.49)"/>
    </clipPath>
  </defs>
  <g id="Layer_9" data-name="Layer 9">
    <g>
      <g>
        <rect class="cls-65" x="7.88" y="40.28" width="190.65" height="262.38" rx="16.29" ry="16.29"/>
        <g class="cls-69">
          <polygon class="cls-56" points="0 307.16 17.39 274.56 181.59 274.56 205.66 307.16 0 307.16"/>
        </g>
        <rect class="cls-6" x="7.88" y="40.28" width="190.65" height="262.38" rx="16.29" ry="16.29"/>
      </g>
      <g>
        <rect class="cls-57" x="14.02" y="40.28" width="178.37" height="245.48" rx="15.25" ry="15.25"/>
        <g class="cls-42">
          <rect class="cls-64" x="20.38" y="45.77" width="178.37" height="245.48" rx="15.25" ry="15.25"/>
          <path class="cls-59" d="M198.53,133.06c0-76.37-190.65-76.37-190.65,0V33.23s190.65,0,190.65,0v99.83Z"/>
        </g>
      </g>
    </g>
    <g>
      <g>
        <path class="cls-27" d="M98.76,15.09c-6.04-12.69,4.31-18.09,5.85-.38,4.44-14.42,11.05-9.46,6.62,1.23l-12.47-.85Z"/>
        <g class="cls-45">
          <ellipse class="cls-63" cx="98.45" cy="4.58" rx="5.62" ry="4.58"/>
          <ellipse class="cls-63" cx="111.33" cy="6.82" rx="4.44" ry="3.42"/>
        </g>
        <path class="cls-7" d="M98.76,15.09c-6.04-12.69,4.31-18.09,5.85-.38,4.44-14.42,11.05-9.46,6.62,1.23l-12.47-.85Z"/>
      </g>
      <g>
        <path class="cls-23" d="M91.37,208.9c-4.32,8.54-2.59,15.99,8,21.71,15.73,10.03-7.26,17.52,7.24,32.48l4.31-8.62c-8.5-6.67,10.05-9.42-3.75-22.6l-15.8-22.96Z"/>
        <g class="cls-43">
          <path class="cls-61" d="M106.3,263.95c-7.99-8.25-5.46-14.67-3.42-19.83,1.93-4.88,3.2-8.11-3.49-12.4-5.44-2.95-8.89-6.52-10.26-10.62-1.3-3.9-.74-8.3,1.68-13.07l2.7,1.37c-4.26,8.42-1.91,14.68,7.37,19.69l.09.06c8.85,5.64,6.66,11.19,4.73,16.09-1.98,5.02-3.85,9.77,2.78,16.61l-2.17,2.11Z"/>
        </g>
        <path class="cls-9" d="M91.37,208.9c-4.32,8.54-2.59,15.99,8,21.71,15.73,10.03-7.26,17.52,7.24,32.48l4.31-8.62c-8.5-6.67,10.05-9.42-3.75-22.6l-15.8-22.96Z"/>
      </g>
      <g>
        <path class="cls-23" d="M131.09,234.14l5.08-2.46c7.72,11.37-.85,17.84-11.96,20.58-7.63,1.41-10.65,4.23-9.62,8.16l-7.54,1.77c-2.47-4.01-1.72-9.81,8.85-13.78,13.36-4.51,22.76-7.55,15.19-14.27Z"/>
        <g class="cls-44">
          <path class="cls-61" d="M135.25,230.14c11.08,23.09-26.55,16.16-24.14,32.94l9.77-.9,22.86-16c-.22-4.82-3.18-10.2-8.49-16.05Z"/>
        </g>
        <path class="cls-9" d="M131.09,234.14l5.08-2.46c7.72,11.37-.85,17.84-11.96,20.58-7.63,1.41-10.65,4.23-9.62,8.16l-7.54,1.77c-2.47-4.01-1.72-9.81,8.85-13.78,13.36-4.51,22.76-7.55,15.19-14.27Z"/>
      </g>
      <g>
        <path class="cls-23" d="M143.73,226.47c5.79,1.19,8.99,4.65,9.12,10.8l5.74-2.69c2.26-8.48-2.6-11.53-8.43-13.96l-6.43,5.86Z"/>
        <g class="cls-50">
          <path class="cls-61" d="M150.16,220.61c6.14,5.56,7.03,11.11,2.69,16.65l10.64-2.58c-.17-11.54-3.86-17.45-13.33-14.07"/>
        </g>
        <path class="cls-9" d="M143.73,226.47c5.79,1.19,8.99,4.65,9.12,10.8l5.74-2.69c2.26-8.48-2.6-11.53-8.43-13.96l-6.43,5.86Z"/>
      </g>
      <g>
        <path class="cls-23" d="M94.72,210.59c3.31,15.32-2.31,21.09-7.85,30.56-3.85,11.68.62,21.47,13.41,29.36,5.43,2.83,9.79-.99,18.42,1.28l1.39-8.13c-6.66-9.75-12.68.71-19.8-4.42-6.93-5.87-6.87-15.81-.41-22.15,2.88-2.12,4.82-3.9,2.91-12.76l-8.06-13.74Z"/>
        <g class="cls-47">
          <path class="cls-61" d="M89.65,235.64c-17.35,23.52,4.57,43.99,30.43,38.76,0-2.02,3.24-6.17.79-5.66-6.69,1.4-41.62,1.08-31.22-33.1Z"/>
        </g>
        <path class="cls-9" d="M94.72,210.59c3.31,15.32-2.31,21.09-7.85,30.56-3.85,11.68.62,21.47,13.41,29.36,5.43,2.83,9.79-.99,18.42,1.28l1.39-8.13c-6.66-9.75-12.68.71-19.8-4.42-6.93-5.87-6.87-15.81-.41-22.15,2.88-2.12,4.82-3.9,2.91-12.76l-8.06-13.74Z"/>
      </g>
      <g>
        <path class="cls-23" d="M153.54,218.95c5.16-1.71,11.02,2.78,11.85,5.3,1.21,3.68-3.12,8.22-5.29,8.94-16.38,4.07-20.19,3.58-20.97,18.96-4.59,4.14-18.13-4.46-21.86,14.2-.71,5.43-.29,10.77,3.35,15.05,4.81,4.63,5.95,8.16,2.85,10.41,4.57-1.76,5.49-5.13,1.83-11.56-3.28-7.31-2.43-13.62,5.14-18.3,4.73-2.55,9.22,4.71,15.2-.6,5.99-6.9-6.5-18.72,14.09-22.07,5.05-.72,16.37,5.1,19.67-13.34,1.8-10.28-10.25-16.94-18.01-18.24l-7.84,11.25Z"/>
        <g class="cls-46">
          <path class="cls-61" d="M123.35,293.22l-1.09-2.81c1.59-.62,2.54-1.41,2.9-2.41.54-1.51-.08-3.87-1.85-7.01l-.06-.13c-3.84-8.66-1.94-15.45,5.67-20.19l.08-.05c2.61-1.42,5.1-.51,7.29.29,2.65.97,4.74,1.73,7.41-.61,1.66-1.99,1.47-4.56,1.25-7.53-.41-5.61-.91-12.59,13.54-14.97,1.22-.18,2.6-.04,4.07.1,5.54.53,11.81,1.13,14.18-12.21.48-2.79-.16-5.47-1.92-7.95-3.35-4.73-9.96-7.75-14.69-8.54l.5-2.97c5.5.93,12.78,4.31,16.65,9.77,2.24,3.16,3.06,6.6,2.43,10.21-2.85,16.08-11.98,15.21-17.43,14.69-1.28-.12-2.49-.24-3.32-.12-11.7,1.93-11.39,6.27-10.99,11.78.23,3.21.49,6.84-2.04,9.79l-.14.14c-4.05,3.63-7.79,2.26-10.53,1.27-2.09-.76-3.44-1.19-4.78-.49-6.25,3.91-7.68,9.1-4.5,16.32,2.25,4.02,2.9,7.02,2.03,9.44-.67,1.87-2.19,3.25-4.64,4.2Z"/>
        </g>
        <path class="cls-9" d="M153.54,218.95c5.16-1.71,11.02,2.78,11.85,5.3,1.21,3.68-3.12,8.22-5.29,8.94-16.38,4.07-20.19,3.58-20.97,18.96-4.59,4.14-18.13-4.46-21.86,14.2-.71,5.43-.29,10.77,3.35,15.05,4.81,4.63,5.95,8.16,2.85,10.41,4.57-1.76,5.49-5.13,1.83-11.56-3.28-7.31-2.43-13.62,5.14-18.3,4.73-2.55,9.22,4.71,15.2-.6,5.99-6.9-6.5-18.72,14.09-22.07,5.05-.72,16.37,5.1,19.67-13.34,1.8-10.28-10.25-16.94-18.01-18.24l-7.84,11.25Z"/>
      </g>
      <g>
        <path class="cls-22" d="M100.08,194.99c-16.49-.39-23.92,11.6-23.64,25.61.84,10.78,8.68,18.17,16.63,13.85l3.54-9.31c-9.67,3.47-13.12-1.36-13.41-10.39-.04-1.29.66-2.49,1.81-3.07,11.29-5.71,15.01,27.43,34.31,27.08,15.8-.88,29.12-11.75,41.28-27.28,8.49-9.16,4.94-17.05-6.18-24.12-.4-.29-7.72-4.63-7.88-3.52,0,0-.67,4.76-.67,4.76,24.41,14.32-19.99,12.58-37.25,7.73-2.78-.78-5.64-1.27-8.53-1.34Z"/>
        <g class="cls-49">
          <path class="cls-60" d="M155.93,186.11c32.22,14.28,18.18,34-5.22,45.15-30.46,14.5-45.13,13.23-55.13-11.58,24.59,30.14,89.61-24.02,60.35-33.57Z"/>
          <path class="cls-60" d="M83.19,214.75c-.52,14,5.15,17.83,13.03,18.01l2.08-10.16-15.11-7.85Z"/>
          <path class="cls-60" d="M80.57,234.63c-24.01-23.6-1.52-50.78,32.89-40.74-35.6-.79-42.29,25.78-32.89,40.74Z"/>
          <path class="cls-60" d="M145.96,187.93c14.58,7.22,13.38,14.51-4.8,11.83l4.8-11.83Z"/>
          <path class="cls-60" d="M112.47,204.89c8.1,1.84,16.77,1.87,25.88.4-9.12.12-17.77,0-25.88-.4Z"/>
          <path class="cls-60" d="M112.01,206.98c5.19,2.19,13.01,2.88,24.93,1.26-10.19.53-18.63.18-24.93-1.26Z"/>
          <path class="cls-60" d="M103.46,205.85c5.49,4,15.27,6.59,27.06,8.51-10.72-2.91-20.19-5.77-27.06-8.51Z"/>
          <path class="cls-60" d="M92.65,219.21c14.17,8.14,22.85,9.26,35.16,4.81-13.52,1.55-21.92,1.39-35.16-4.81Z"/>
        </g>
        <path class="cls-5" d="M100.08,194.99c-16.49-.39-23.92,11.6-23.64,25.61.84,10.78,8.68,18.17,16.63,13.85l3.54-9.31c-9.67,3.47-13.12-1.36-13.41-10.39-.04-1.29.66-2.49,1.81-3.07,11.29-5.71,15.01,27.43,34.31,27.08,15.8-.88,29.12-11.75,41.28-27.28,8.49-9.16,4.94-17.05-6.18-24.12-.4-.29-7.72-4.63-7.88-3.52,0,0-.67,4.76-.67,4.76,24.41,14.32-19.99,12.58-37.25,7.73-2.78-.78-5.64-1.27-8.53-1.34Z"/>
      </g>
      <g>
        <path class="cls-27" d="M43.57,67.72C53.17,9.66,122.59-6.98,154.35,41.8c3.53,5.42,5.82,11.56,6.87,17.94,6.14,37.62-3.25,59.51.52,70.1,7.03,16.28,18.16,16.32,20.85,39.1-8-22.24-16.78-7.35-27.56-34.79-.32,14.48,1.78,26.96,10.93,33.56-6.95-4.22-11.78-11.07-14.88-20.06.03,21.6,17.57,17.87,17.7,43.1-8.71-11.26-22.11-23.96-23.71-40.95-.22,7.88,2.42,17.06,6.63,26.95-10.7-13.32-16.82-21.88-14.15-32.85-3.9,10.22-3.27,18.72,5.98,27.76-21.45-5.96-29.23-20.48-26.38-41.67l-14.78,1.08c3.42,26-1.03,38.88-9.47,45.09,1.12-19.09-14.08-9.38-7.21-35.24-15.97,12,5.33,9.88-4.01,31.78-.35,14.55-19.74,15.83-9.56,37.87-16.65-35.92,6.79-24.96-4.9-54.75l7.17,24.73c-10.07-13.82-18.46-28.77-22.34-46.76-6.11,15.8-4.14,23.88,4.51,34.29-16.02-13.53-12.18-28.17-11.66-47.61.56-21.19-7.86-36.31-1.34-52.77Z"/>
        <g class="cls-48">
          <path class="cls-63" d="M118.62,13.13c40.09,12.6,56.81,33.59,49.65,60.41-6.54-23.13-26.44-43.14-49.65-60.41Z"/>
          <path class="cls-63" d="M90.47,13.13c-40.09,12.6-56.81,33.59-49.65,60.41,6.54-23.13,26.44-43.14,49.65-60.41Z"/>
        </g>
        <path class="cls-7" d="M43.57,67.72C53.17,9.66,122.59-6.98,154.35,41.8c3.53,5.42,5.82,11.56,6.87,17.94,6.14,37.62-3.25,59.51.52,70.1,7.03,16.28,18.16,16.32,20.85,39.1-8-22.24-16.78-7.35-27.56-34.79-.32,14.48,1.78,26.96,10.93,33.56-6.95-4.22-11.78-11.07-14.88-20.06.03,21.6,17.57,17.87,17.7,43.1-8.71-11.26-22.11-23.96-23.71-40.95-.22,7.88,2.42,17.06,6.63,26.95-10.7-13.32-16.82-21.88-14.15-32.85-3.9,10.22-3.27,18.72,5.98,27.76-21.45-5.96-29.23-20.48-26.38-41.67l-14.78,1.08c3.42,26-1.03,38.88-9.47,45.09,1.12-19.09-14.08-9.38-7.21-35.24-15.97,12,5.33,9.88-4.01,31.78-.35,14.55-19.74,15.83-9.56,37.87-16.65-35.92,6.79-24.96-4.9-54.75l7.17,24.73c-10.07-13.82-18.46-28.77-22.34-46.76-6.11,15.8-4.14,23.88,4.51,34.29-16.02-13.53-12.18-28.17-11.66-47.61.56-21.19-7.86-36.31-1.34-52.77Z"/>
      </g>
      <g>
        <path class="cls-26" d="M113.4,168.23c4.53-1.54,8.97,2.24,9,9.71-.72,13.13,3.03,23.99-1.02,25.33-2.04,1.11-2.29-1.71-4.35-2.47-5.82-2.15-14.63-14.4-15.16-19.86-2.26-8.4-1.8-13.15,3.18-12.35,2.17.66,3.14-4.03,8.36-.35Z"/>
        <g class="cls-35">
          <path class="cls-60" d="M105.87,192.5c2.31-2.01,4.39-4.14,4.35-7.34,5.53-.72,10.6,9.8,17.86,8.72l-3.54-28.5-28.96-1.32c-3.13,18.61,2.63,24.85,10.29,28.43Z"/>
          <path class="cls-60" d="M105.57,187.92c2.31-2.01,4.39-4.14,4.35-7.34,5.53-.72,10.6,9.8,17.86,8.72l-3.54-28.5-28.96-1.32c-3.13,18.61,2.63,24.85,10.29,28.43Z"/>
        </g>
        <path class="cls-3" d="M113.4,168.23c4.53-1.54,8.97,2.24,9,9.71-.72,13.13,3.03,23.99-1.02,25.33-2.04,1.11-2.29-1.71-4.35-2.47-5.82-2.15-14.63-14.4-15.16-19.86-2.26-8.4-1.8-13.15,3.18-12.35,2.17.66,3.14-4.03,8.36-.35Z"/>
      </g>
      <g>
        <path class="cls-53" d="M119.29,154.33c-8.65,1.81-12.24,15.5-5.69,24.22,12.76,14.71,16.32,30.32,24.03,28.66,4.27-.33,2.17-3.8,4.82-6.32,7.46-7.11,10.81-28.35,6.85-35.13-3.79-11.57-8.72-16.73-16.03-11.85-2.91,2.49-8.48-1.42-13.97.43Z"/>
        <g class="cls-32">
          <path class="cls-63" d="M129.88,152.9c-8.44,17.13,7.04,19.48,16.65,30.94,1.11,1.32,4.1.73,4.19-.84,1.04-16.79-1.23-29.93-9.18-36.78l-11.67,6.68Z"/>
          <path class="cls-63" d="M131.33,149.47c-3.42,18.78,12.11,16.8,24.5,25.19,1.43.97,4.14-.43,3.8-1.96-3.6-16.43-9.39-28.44-18.91-32.85l-9.39,9.62Z"/>
          <path class="cls-60" d="M108.84,161.56c14.62,24.1,24.53,34.33,40.82,30.39l-6.75,25.89-24.54-19.39c-9.04-13.02-10.99-25.16-9.53-36.89Z"/>
        </g>
        <path class="cls-8" d="M119.29,154.33c-8.65,1.81-12.24,15.5-5.69,24.22,12.76,14.71,16.32,30.32,24.03,28.66,4.27-.33,2.17-3.8,4.82-6.32,7.46-7.11,10.81-28.35,6.85-35.13-3.79-11.57-8.72-16.73-16.03-11.85-2.91,2.49-8.48-1.42-13.97.43Z"/>
      </g>
      <g>
        <path class="cls-53" d="M103.43,162.88c6.74,1.11,10.13,8.53,5.62,17.49-8.92,15.27-10.73,30.72-16.74,29.68-3.29,0-1.89-3.53-4.07-5.79-6.14-6.36-9.96-26.78-7.32-33.68,2.22-11.54,5.7-16.93,11.6-12.73,2.38,2.21,6.48-2.79,10.92,5.02Z"/>
        <g class="cls-39">
          <path class="cls-63" d="M93.3,158.38c4.84,17.06-4.61,20.07-10.65,32.1-.69,1.38-2.21.87-2.53-.69-3.54-17.04-3.26-30.48,6.2-37.73l6.98,6.32Z"/>
          <path class="cls-63" d="M90.29,150.78c4.84,17.06-4.61,20.07-10.65,32.1-.69,1.38-2.21.87-2.53-.69-3.54-17.04-3.26-30.48,6.2-37.73l6.98,6.32Z"/>
          <path class="cls-60" d="M111.93,166.54c-9.87,23.25-17.91,31.06-29.75,30.9l6.76,23.38,17.82-19.61c5.06-10.24,6.9-21.75,5.18-34.67Z"/>
        </g>
        <path class="cls-8" d="M103.43,162.88c6.74,1.11,10.13,8.53,5.62,17.49-8.92,15.27-10.73,30.72-16.74,29.68-3.29,0-1.89-3.53-4.07-5.79-6.14-6.36-9.96-26.78-7.32-33.68,2.22-11.54,5.7-16.93,11.6-12.73,2.38,2.21,6.48-2.79,10.92,5.02Z"/>
      </g>
      <g>
        <path class="cls-29" d="M160.69,84.71c18.32-9.66,13.93,30.06-9.27,28.4l9.27-28.4Z"/>
        <g class="cls-37">
          <path class="cls-60" d="M163.28,80.83c1.38,13.68.39,26.48-6.1,37.25l-10.78-2.77,10.42-31.61,6.46-2.87Z"/>
        </g>
        <path class="cls-11" d="M160.69,84.71c18.32-9.66,13.93,30.06-9.27,28.4l9.27-28.4Z"/>
      </g>
      <g>
        <path class="cls-24" d="M100.25,131.18c1.98,8.52-4.49,15.4,1.36,17.61,1.65,4.86-5.62,8.02-.69,10.24-1.77,4.57-1.09,7.16,3.98,6.16,5.05-1,9.86-2.2,13.62-4.31,2.96-1.04,3.56-3.07.77-6.54,9.19-4.08-1.23-7.14,0-12.16.64-3.67-2.7-4.16-1-11.8l-18.04.81Z"/>
        <g class="cls-38">
          <path class="cls-52" d="M105.81,127.58c.87,9.38-4.71,17.99-.44,20.3,1.83,2.5-4.67,9.37-.09,10.53-2.14,2.75-1.8,5.88.79,9.35h-11.01s.92-39.72.92-39.72l9.83-.46Z"/>
          <path class="cls-52" d="M115.04,127.35c-1.46,7.94,2.42,13.35,2.33,17.82,4.47,5.52,3.24,6.58-.52,8.08,2.32,4.48,2.68,8.53.98,12.14l7.97-7.24-.87-15.82c-.67-10.39-3.85-15.63-9.89-14.99Z"/>
          <path class="cls-25" d="M120.93,140.78c-2.46,4.13-6.7,6.56-11.47,8.47,6.14.11,11.91-.24,16.39-2.16l-4.93-6.31Z"/>
          <path class="cls-25" d="M122.63,152.55c-2.05,1.59-5.24,2.22-8.79,2.55,4.39.73,8.54,1.2,11.88.83l-3.09-3.38Z"/>
          <path class="cls-25" d="M96.65,145.96c3.96,1.12,7.69,1.35,11.14.52-3.09,1.85-6.6,2.6-10.39,2.66l-.75-3.18Z"/>
          <path class="cls-25" d="M95.38,154.16c3.82,1.55,7.25,4.38,10.77,3.93-3.27,1.49-7.7,1.4-11.48,1.03l.71-4.97Z"/>
          <path class="cls-60" d="M127.01,142.63c-9.26-5.46-20.09-5.06-32.17,0v-13.24h32.17v13.24Z"/>
        </g>
        <path class="cls-10" d="M100.25,131.18c1.98,8.52-4.49,15.4,1.36,17.61,1.65,4.86-5.62,8.02-.69,10.24-1.77,4.57-1.09,7.16,3.98,6.16,5.05-1,9.86-2.2,13.62-4.31,2.96-1.04,3.56-3.07.77-6.54,9.19-4.08-1.23-7.14,0-12.16.64-3.67-2.7-4.16-1-11.8l-18.04.81Z"/>
      </g>
      <g>
        <path class="cls-29" d="M56.28,86.35c-18.32-9.66-13.93,30.06,9.27,28.4l-9.27-28.4Z"/>
        <g class="cls-36">
          <path class="cls-60" d="M51.82,82.26c-.99,12.96-.85,25.16,3.04,34.87l10.55.5-2.85-36.02-10.74.65Z"/>
        </g>
        <path class="cls-11" d="M56.28,86.35c-18.32-9.66-13.93,30.06,9.27,28.4l-9.27-28.4Z"/>
      </g>
      <g>
        <path class="cls-29" d="M55.79,94.6c-6.43,31.08,8.12,43.82,44.93,40.37,21.11.23,37.91-3.9,47.22-15.59,7.46-9.28,9.92-20.16,11.97-35.18-10.61-18.61-23.34-35.71-40.51-50.08-9.74-8.15-24.27-6.96-32.49,2.71-15.41,18.12-26.22,37.27-31.11,57.76Z"/>
        <g class="cls-33">
          <path class="cls-51" d="M150.18,126.11c-2.09,5.09-5.87,5.46-9.19,1.9-3.32-3.56-10.57-3.94-8.49-9.03,2.09-5.09,9.02-6.56,14.21-5.68,5.19.89,5.56,7.72,3.47,12.8Z"/>
          <ellipse class="cls-51" cx="68.87" cy="128.14" rx="10.71" ry="8.14" transform="translate(-18.87 12.1) rotate(-8.84)"/>
          <ellipse class="cls-60" cx="129.99" cy="94.71" rx="13.98" ry="16.51" transform="translate(-23.08 144.06) rotate(-53.95)"/>
          <ellipse class="cls-60" cx="80.85" cy="99.97" rx="16.27" ry="14.49" transform="translate(-43.35 66.73) rotate(-36.05)"/>
          <g>
            <ellipse class="cls-28" cx="129.99" cy="92.06" rx="13.98" ry="16.51" transform="translate(-20.94 142.98) rotate(-53.95)"/>
            <g class="cls-30">
              <ellipse class="cls-41" cx="130.38" cy="102.75" rx="9.08" ry="13.78" transform="translate(18.69 225.56) rotate(-85.95)"/>
              <ellipse class="cls-55" cx="118.69" cy="85.98" rx="5.02" ry="4.39" transform="translate(-9.48 157.06) rotate(-64.93)"/>
            </g>
            <ellipse class="cls-2" cx="129.99" cy="92.06" rx="13.98" ry="16.51" transform="translate(-20.94 142.98) rotate(-53.95)"/>
          </g>
          <g>
            <ellipse class="cls-28" cx="80.71" cy="98.14" rx="16.51" ry="13.98" transform="translate(-44.63 77.25) rotate(-41.11)"/>
            <g class="cls-34">
              <path class="cls-41" d="M70.62,115.31c2.81,4.26,11.21,3.66,18.76-1.32,7.55-4.99,11.64-10.94,8.83-15.2-2.81-4.26-12.12-4.02-19.67.96-7.55,4.99-10.73,11.3-7.92,15.56Z"/>
              <ellipse class="cls-55" cx="87.55" cy="87.72" rx="5.02" ry="4.39" transform="translate(-36.38 86.78) rotate(-44.62)"/>
            </g>
            <ellipse class="cls-2" cx="80.71" cy="98.14" rx="16.51" ry="13.98" transform="translate(-44.63 77.25) rotate(-41.11)"/>
          </g>
          <path class="cls-68" d="M112.78,105.82c1.63,4.4,2.09,6.22,7.16,6.87-4.88,2.2-8.3-2.2-7.16-6.87h0Z"/>
          <path class="cls-60" d="M116,72.51c3.25-3.08,7.29-4.21,11.05-1.47-2.42,3.36-6.49,4.13-11.05,1.47Z"/>
          <path class="cls-60" d="M76.92,75.48c3.7-2.53,7.86-3.01,11.14.29-2.92,2.94-7.06,3.06-11.14-.29Z"/>
          <path class="cls-66" d="M114.71,69.99c-.32,2.11.77,3.83,2.99,3.33,1.95-2.24,4.45-3.8,9.35-2.28-3.46-3.97-6.62-4.79-9.65-3.94-1.41.39-2.48,1.53-2.69,2.9Z"/>
          <path class="cls-66" d="M89.06,72.39c.69,1.96-.16,3.82-2.57,3.74-2.41-1.8-5.27-2.84-10.14-.5,2.95-4.43,6.11-5.8,9.42-5.53,1.54.12,2.84,1.02,3.29,2.29Z"/>
          <g>
            <path class="cls-67" d="M97.91,110.76c0,8.49,2.31,15.88,12.93,15.03,6.54-.52,9.09-8.22,2.31-16.11-3.13,12.24-12.19,7.49-15.24,1.08Z"/>
            <g class="cls-31">
              <path class="cls-62" d="M99.57,124.69c10.47,9.42,16.86,6.66,20.26-5.04-7.57-1.03-14.23.95-20.26,5.04Z"/>
            </g>
          </g>
          <path class="cls-60" d="M51.12,104.19c3.23-2.65,5.72-7.44,8.93-14.44l-.21,3.3c6.28-5.95,12.45-14.06,15.5-24.11-1.45,7.5-3.52,14.35-7.37,19.29,12.37-2.37,32.06-25.09,33.68-50.93.49,24.84,13.28,39.59,40.85,51.78-1.34-2.61-2.06-5.42-2.18-8.41,6.76,4.22,13.23,7.54,18.94,8.63l-1.39-8.7c-14.39-23.66-33.25-42.03-57.03-54.6-24.53,19.07-38.93,47.46-49.72,78.2Z"/>
        </g>
        <path class="cls-11" d="M55.79,94.6c-6.43,31.08,8.12,43.82,44.93,40.37,21.11.23,37.91-3.9,47.22-15.59,7.46-9.28,9.92-20.16,11.97-35.18-10.61-18.61-23.34-35.71-40.51-50.08-9.74-8.15-24.27-6.96-32.49,2.71-15.41,18.12-26.22,37.27-31.11,57.76Z"/>
      </g>
      <path class="cls-27" d="M52.19,99.06c3.09-2.77,6.17-6.83,9.24-14.16l-.69,3.77c5.31-6.97,12.53-14.49,15.62-24.82-1.39,7.86-3.36,15.02-7.04,20.2,11.81-2.48,30.62-26.27,32.17-53.34.47,26.02,12.69,41.46,39.02,54.23-1.28-2.74-1.97-5.67-2.08-8.81,6.46,4.42,12.63,7.9,18.09,9.04,8.1,32.57-13.51,44.05-7.15,78.91-2.57-26.35,15.33-51.61,11.92-75.23-3.25-29.38-13.85-50.32-33.5-60.85-12.07-6.47-26.46-6.99-39.12-1.77-27.89,11.5-37.94,37.49-36.48,72.84Z"/>
      <path class="cls-58" d="M52.19,99.06c4.42-3.98,7.2-9.37,9.42-14.8,0,0-.12.65-.12.65,0,0-.68,3.77-.68,3.77l-.16-.07c2.98-3.92,6.19-7.67,8.96-11.72,2.78-4.04,5.14-8.41,6.53-13.11,0,0,.42.1.42.1-1.27,7.05-2.91,14.31-7.04,20.31,0,0-.26-.4-.26-.4,5.26-1.3,9.53-5.14,13.2-8.98,10.91-12.03,17.64-27.94,18.68-44.13,0,0,.7.01.7.01.13,5.9.86,11.8,2.57,17.44,5.01,17.48,20.57,28.9,36.3,36.39,0,0-.61.6-.61.6-1.46-3.07-2.11-6.47-2.13-9.85,5.83,3.95,11.94,8.01,18.89,9.54,1.61,6.62,2.28,13.52,1.55,20.31-.67,6.73-2.68,13.2-4.73,19.55-2.04,6.37-3.95,12.8-4.69,19.43-.79,6.62-.43,13.33.68,19.91,0,0-.58.08-.58.08-1.44-16.26,4.5-31.8,8.81-47.17,2.17-7.71,3.87-15.64,3.69-23.68-.58-8-1.8-15.97-3.84-23.74,8.57,31.74,1.61,41.18-5.91,70.73-1.81,7.79-2.9,15.83-2.17,23.8,0,0-.58.08-.58.08-1.15-6.62-1.53-13.4-.75-20.09.74-6.7,2.64-13.19,4.66-19.56,2.04-6.37,4.01-12.79,4.65-19.42.69-6.62.04-13.32-1.53-19.79,0,0,.31.3.31.3-6.73-1.53-12.6-5.3-18.25-9.08,0,0,.69-.38.69-.38.09,3.42,1.04,6.77,2.6,9.8,0,0-1.16-.57-1.16-.57-15.9-7.6-31.61-19.29-36.63-36.98-1.72-5.73-2.44-11.7-2.55-17.64,0,0,.7.01.7.01-1.11,16.37-7.91,32.36-18.97,44.47-3.77,3.91-8.08,7.77-13.5,9.1,0,0-.64.14-.64.14,0,0,.38-.54.38-.54,4.11-5.9,5.72-13.12,7.04-20.09,0,0,.42.1.42.1-1.45,4.75-3.86,9.13-6.69,13.16-2.89,4.15-6.22,7.96-9.29,11.95,0,0,.07-.36.07-.36,0,0,.71-3.77.71-3.77l.14.04c-2.22,5.2-5.02,10.34-9.3,14.13h0Z"/>
      <path class="cls-21" d="M46.26,113.58c-20.33,43.89-18.02,67.71-7.71,83.95-13.08-33.46,4.27-36.43,7.67-57.05l.04-26.9Z"/>
      <g class="cls-40">
        <path class="cls-12" d="M94.72,210.59c3.31,15.32-2.31,21.09-7.85,30.56-3.85,11.68.62,21.47,13.41,29.36,5.43,2.83,9.79-.99,18.42,1.28l1.39-8.13c-6.66-9.75-12.68.71-19.8-4.42-6.93-5.87-6.87-15.81-.41-22.15,2.88-2.12,4.82-3.9,2.91-12.76l-8.06-13.74Z"/>
      </g>
      <path class="cls-63" d="M112.42,17.97c12.6,3.02,26.52,13.26,27.37,22.51.16,1.72,1.51,3.11,1.95,4.77-1.38-3.14-3.35-5.92-5.5-8.54-3.26-3.9-6.96-7.42-10.93-10.58-3.99-3.17-8.2-6.06-12.89-8.16h0Z"/>
      <path class="cls-63" d="M99.58,19.04c-18.69,4.75-39.21,21.35-40.31,36.55-.2,2.82-2.2,5.09-2.82,7.81,2.01-5.14,4.88-9.68,8.03-13.94,4.78-6.36,10.23-12.08,16.08-17.22,5.88-5.14,12.1-9.83,19.02-13.2h0Z"/>
      <path class="cls-63" d="M101.99,19.87c-13.1,10.32-20.72,20.13-19.53,29.14,3.57-8.63,10.74-18.59,19.53-29.14Z"/>
      <path class="cls-63" d="M108.33,19.04c14.99,10.99,26.62,21.81,22.63,31.56-2.39-7.57-11.93-19.23-22.63-31.56Z"/>
    </g>
    <g>
      <g>
        <path class="cls-17" d="M45.65,275.3c-.14,0-.28,0-.41-.02s-.26-.04-.38-.09c-.12-.07-.23-.19-.32-.36-.05-.1-.08-.27-.09-.54-.01-.26-.03-.53-.05-.81-.02-.27-.03-.54-.03-.79v-.55c-.02-.79-.04-1.57-.04-2.35v-2.31c-.17-.33-.47-.91-.9-1.72-.43-.81-.91-1.74-1.45-2.77-.54-1.04-1.11-2.14-1.7-3.3-.6-1.16-1.16-2.26-1.68-3.29-.53-1.04-.99-1.97-1.38-2.79s-.66-1.41-.81-1.77c-.05-.14-.07-.26-.07-.36.02-.12.11-.23.25-.32.17-.12.51-.32,1.02-.59s1.06-.56,1.65-.84c.59-.29,1.14-.55,1.67-.8.52-.25.88-.42,1.08-.52.26-.12.54-.23.82-.32.29-.09.49-.01.61.25.79,1.93,1.53,3.87,2.22,5.8.69,1.93,1.46,3.86,2.29,5.77.69-2.03,1.4-4.04,2.13-6.02.73-1.98,1.51-3.96,2.34-5.95.07-.19.17-.41.31-.65.13-.24.29-.34.48-.32.84.1,1.66.22,2.47.36.81.14,1.62.31,2.43.5.19.05.4.09.61.14.22.05.41.11.57.2.17.08.29.19.36.3.07.12.07.26,0,.43-.17.38-.45,1.05-.86,1.99-.41.94-.87,2.03-1.4,3.26-.53,1.23-1.08,2.53-1.67,3.9s-1.14,2.68-1.66,3.9c-.53,1.23-.99,2.32-1.38,3.28s-.67,1.62-.84,2.01c0,.24,0,.7-.02,1.4s-.02,1.43-.03,2.22-.02,1.53-.02,2.22.01,1.16.03,1.4c.05.14.05.27,0,.39-.09.12-.26.19-.5.2-.24.01-.42.02-.54.02-.86,0-1.72.02-2.58.07-.86.05-1.71.1-2.54.14Z"/>
        <path class="cls-17" d="M64.13,275.55c-.19.07-.39.1-.61.09-.22-.01-.43-.03-.65-.05-.19-.02-.52-.07-1-.13-.48-.06-.99-.13-1.54-.22s-1.06-.16-1.54-.23-.8-.13-.97-.18c-.31-.07-.59-.18-.82-.32-.26-.22-.39-.48-.39-.79.02-.29.08-.56.18-.82.09-.26.2-.52.32-.79.07-.17.18-.47.32-.9s.3-.91.48-1.45c.18-.54.37-1.1.57-1.7.2-.6.39-1.17.55-1.72.17-.55.32-1.03.45-1.45.13-.42.22-.72.27-.91.26-.91.53-1.82.81-2.74.27-.92.58-1.83.91-2.74.07-.22.23-.66.47-1.33.24-.67.48-1.38.73-2.13.25-.75.49-1.46.72-2.13.23-.67.38-1.11.45-1.33.1-.31.17-.62.23-.91.06-.3.1-.61.13-.95.02-.12.04-.23.05-.34.01-.11.05-.2.13-.27.09-.09.2-.15.32-.18.12-.02.24-.05.36-.07.81-.05,1.62-.11,2.42-.2.8-.08,1.61-.15,2.42-.2.48-.05.94-.07,1.4-.07s.92-.02,1.4-.07c.07,0,.2-.01.39-.04.19-.02.4-.04.63-.05.23-.01.44-.02.63-.03s.32-.02.4-.02c.26,0,.44.06.54.18.07.07.14.19.22.36s.14.35.2.55c.06.2.11.4.16.57.05.18.08.32.11.41.31,1.15.61,2.3.91,3.46.3,1.16.58,2.32.84,3.49.31,1.43.67,2.85,1.07,4.24.41,1.4.75,2.81,1.04,4.24.1.43.18.86.25,1.27s.17.83.29,1.23c.05.19.14.54.29,1.04.14.5.3,1.04.47,1.61.17.57.33,1.12.48,1.63.16.51.27.86.34,1.02.05.12.09.23.14.34.05.11.08.22.11.34.05.22-.03.37-.25.47-.22.1-.44.17-.68.22-.62.1-1.23.14-1.83.14s-1.21.01-1.83.04c-.14,0-.39.02-.73.05-.35.03-.71.08-1.09.12-.38.05-.75.1-1.09.14s-.58.08-.7.11c-.14.05-.28.05-.41,0-.13-.05-.22-.13-.27-.25-.07-.24-.16-.7-.25-1.4-.1-.69-.19-1.43-.27-2.2-.08-.78-.17-1.51-.25-2.2-.08-.69-.14-1.17-.16-1.43-.19,0-.6,0-1.22.02s-1.28.02-1.97.02-1.35,0-1.97.02-1.03.02-1.22.02c-.19.91-.34,1.81-.45,2.72-.11.91-.24,1.81-.41,2.72-.05.26-.1.53-.16.81-.06.27-.16.53-.31.77-.05.1-.12.19-.21.27-.1.08-.2.15-.32.2ZM67.07,263.73c.79,0,1.58,0,2.38.02.8.01,1.59,0,2.38-.05-.09-.76-.2-1.52-.32-2.27-.12-.75-.23-1.51-.32-2.27-.05-.45-.08-.91-.11-1.36-.02-.45-.03-.92-.03-1.4-.07.02-.18.05-.32.09-.14.03-.3.06-.47.09-.17.02-.32.05-.47.07s-.25.03-.32.03c-.12,0-.29.02-.52.07-.23.05-.38.11-.45.18-.09.07-.16.26-.2.55-.04.3-.07.51-.09.63-.17.95-.35,1.9-.54,2.83s-.39,1.86-.61,2.79Z"/>
        <path class="cls-17" d="M88.88,275.3c-.14,0-.28,0-.41-.02s-.26-.04-.38-.09c-.12-.07-.23-.19-.32-.36-.05-.1-.08-.27-.09-.54-.01-.26-.03-.53-.05-.81-.02-.27-.03-.54-.03-.79v-.55c-.02-.79-.04-1.57-.04-2.35v-2.31c-.17-.33-.47-.91-.9-1.72-.43-.81-.91-1.74-1.45-2.77-.54-1.04-1.11-2.14-1.7-3.3-.6-1.16-1.16-2.26-1.68-3.29-.53-1.04-.99-1.97-1.38-2.79s-.66-1.41-.81-1.77c-.05-.14-.07-.26-.07-.36.02-.12.11-.23.25-.32.17-.12.51-.32,1.02-.59s1.06-.56,1.65-.84c.59-.29,1.14-.55,1.67-.8.52-.25.88-.42,1.08-.52.26-.12.54-.23.82-.32.29-.09.49-.01.61.25.79,1.93,1.53,3.87,2.22,5.8.69,1.93,1.46,3.86,2.29,5.77.69-2.03,1.4-4.04,2.13-6.02.73-1.98,1.51-3.96,2.34-5.95.07-.19.17-.41.31-.65.13-.24.29-.34.48-.32.84.1,1.66.22,2.47.36.81.14,1.62.31,2.43.5.19.05.4.09.61.14.22.05.41.11.57.2.17.08.29.19.36.3.07.12.07.26,0,.43-.17.38-.45,1.05-.86,1.99-.41.94-.87,2.03-1.4,3.26-.53,1.23-1.08,2.53-1.67,3.9s-1.14,2.68-1.66,3.9c-.53,1.23-.99,2.32-1.38,3.28-.39.95-.67,1.62-.84,2.01,0,.24,0,.7-.02,1.4s-.02,1.43-.03,2.22-.02,1.53-.02,2.22.01,1.16.03,1.4c.05.14.05.27,0,.39-.09.12-.26.19-.5.2-.24.01-.42.02-.54.02-.86,0-1.72.02-2.58.07-.86.05-1.71.1-2.54.14Z"/>
        <path class="cls-17" d="M107.36,275.55c-.19.07-.39.1-.61.09-.22-.01-.43-.03-.65-.05-.19-.02-.52-.07-1-.13-.48-.06-.99-.13-1.54-.22s-1.06-.16-1.54-.23-.8-.13-.97-.18c-.31-.07-.59-.18-.82-.32-.26-.22-.39-.48-.39-.79.02-.29.08-.56.18-.82.09-.26.2-.52.32-.79.07-.17.18-.47.32-.9s.3-.91.48-1.45c.18-.54.37-1.1.57-1.7.2-.6.39-1.17.55-1.72.17-.55.32-1.03.45-1.45.13-.42.22-.72.27-.91.26-.91.53-1.82.81-2.74.27-.92.58-1.83.91-2.74.07-.22.23-.66.47-1.33.24-.67.48-1.38.73-2.13.25-.75.49-1.46.72-2.13.23-.67.38-1.11.45-1.33.1-.31.17-.62.23-.91.06-.3.1-.61.13-.95.02-.12.04-.23.05-.34.01-.11.05-.2.13-.27.09-.09.2-.15.32-.18.12-.02.24-.05.36-.07.81-.05,1.62-.11,2.42-.2.8-.08,1.61-.15,2.42-.2.48-.05.94-.07,1.4-.07s.92-.02,1.4-.07c.07,0,.2-.01.39-.04.19-.02.4-.04.63-.05.23-.01.44-.02.63-.03s.32-.02.4-.02c.26,0,.44.06.54.18.07.07.14.19.22.36s.14.35.2.55c.06.2.11.4.16.57.05.18.08.32.11.41.31,1.15.61,2.3.91,3.46.3,1.16.58,2.32.84,3.49.31,1.43.67,2.85,1.07,4.24s.75,2.81,1.04,4.24c.1.43.18.86.25,1.27s.17.83.29,1.23c.05.19.14.54.29,1.04.14.5.3,1.04.47,1.61.17.57.33,1.12.48,1.63.16.51.27.86.34,1.02.05.12.09.23.14.34.05.11.08.22.11.34.05.22-.03.37-.25.47-.22.1-.44.17-.68.22-.62.1-1.23.14-1.83.14s-1.21.01-1.83.04c-.14,0-.39.02-.73.05-.35.03-.71.08-1.09.12-.38.05-.75.1-1.09.14s-.58.08-.7.11c-.14.05-.28.05-.41,0-.13-.05-.22-.13-.27-.25-.07-.24-.16-.7-.25-1.4-.1-.69-.19-1.43-.27-2.2-.08-.78-.17-1.51-.25-2.2-.08-.69-.14-1.17-.16-1.43-.19,0-.6,0-1.22.02s-1.28.02-1.97.02-1.35,0-1.97.02-1.03.02-1.22.02c-.19.91-.34,1.81-.45,2.72-.11.91-.24,1.81-.41,2.72-.05.26-.1.53-.16.81-.06.27-.16.53-.31.77-.05.1-.12.19-.21.27-.1.08-.2.15-.32.2ZM110.3,263.73c.79,0,1.58,0,2.38.02.8.01,1.59,0,2.38-.05-.09-.76-.2-1.52-.32-2.27-.12-.75-.23-1.51-.32-2.27-.05-.45-.08-.91-.11-1.36-.02-.45-.03-.92-.03-1.4-.07.02-.18.05-.32.09-.14.03-.3.06-.47.09-.17.02-.32.05-.47.07s-.25.03-.32.03c-.12,0-.29.02-.52.07-.23.05-.38.11-.45.18-.09.07-.16.26-.2.55-.04.3-.07.51-.09.63-.17.95-.35,1.9-.54,2.83s-.39,1.86-.61,2.79Z"/>
        <path class="cls-17" d="M131.36,275.08c-.52.05-1.04.08-1.56.11-.51.02-1.03.02-1.56,0-.19,0-.37-.02-.54-.05-.17-.03-.3-.11-.39-.23-.07-.1-.12-.27-.14-.54-.02-.26-.05-.45-.07-.57-.12-1.62-.14-3.23-.07-4.84.07-1.6.09-3.2.07-4.8,0-.29,0-.78-.02-1.49-.01-.7-.02-1.52-.04-2.43-.01-.92-.03-1.9-.05-2.94-.02-1.04-.04-2.02-.05-2.94-.01-.92-.02-1.73-.04-2.44-.01-.7-.02-1.2-.02-1.49,0-.24.16-.39.47-.45s.6-.11.86-.16c1.15-.26,2.29-.46,3.44-.59,1.15-.13,2.29-.3,3.44-.52.19-.05.42-.08.68-.09s.43.08.5.27c.81,1.86,1.67,3.69,2.58,5.48.95,1.94,1.92,3.85,2.9,5.75.98,1.9,1.96,3.8,2.94,5.71.02-1.07.11-2.12.25-3.15s.26-2.06.36-3.12c.12-1.15.22-2.29.29-3.44.07-1.15.13-2.29.18-3.44.05-.53.08-1.05.09-1.56.01-.51.04-1.05.09-1.59.02-.09.05-.27.09-.52.03-.25.08-.42.12-.52.05-.07.15-.13.31-.16.15-.04.29-.05.41-.05.48.05.94.1,1.4.14.45.05.92.08,1.4.11.38,0,.76-.01,1.13-.03s.75-.02,1.13,0c.38,0,.69.06.93.18.24.12.39.31.47.57.07.26.06.56-.03.9-.02.17-.08.5-.18,1-.09.5-.19,1.03-.29,1.59-.09.56-.18,1.09-.27,1.59s-.14.84-.16,1c-.05.38-.11,1.04-.2,1.97s-.19,2.01-.3,3.22c-.12,1.22-.24,2.51-.36,3.87-.12,1.36-.23,2.65-.34,3.87-.11,1.22-.21,2.29-.3,3.22-.09.93-.17,1.59-.22,1.97-.05.19-.09.37-.14.54-.05.17-.13.31-.25.43-.17.14-.44.24-.81.29-.37.05-.77.07-1.2.07s-.85-.02-1.25-.05c-.41-.04-.72-.05-.93-.05-.41,0-.81.04-1.22.13-.41.08-.81.11-1.22.09-.19-.02-.37-.05-.54-.07-.17-.02-.32-.08-.47-.18-.22-.12-.41-.28-.57-.48s-.31-.41-.43-.63c-1.29-2.15-2.48-4.33-3.56-6.54s-2.31-4.35-3.67-6.43c0,1.93.08,3.87.25,5.82.17,1.95.36,3.89.57,5.82,0,.07.02.21.05.41.04.2.07.42.09.66.02.24.05.47.07.68.02.22.03.36.03.43,0,.12-.02.23-.07.32-.05.1-.12.17-.22.22-.14.07-.39.12-.75.14-.36.02-.73.04-1.13.04s-.78,0-1.15-.02c-.37-.01-.64-.02-.81-.02Z"/>
        <path class="cls-17" d="M158.97,274.79c-.1,0-.24.02-.45.05-.2.04-.42.07-.66.09-.24.02-.46.05-.66.07-.2.02-.35.02-.45,0-.19-.05-.34-.22-.43-.5-.1-.29-.17-.53-.22-.72-.38-2.08-.63-4.17-.75-6.29-.12-2.11-.14-4.23-.07-6.36.07-2.12.21-4.25.41-6.38.2-2.13.42-4.24.66-6.34.05-.29.16-.54.34-.75s.42-.3.73-.25c2.79.38,5.57.79,8.33,1.22,2.76.43,5.54.8,8.36,1.11.19.02.31.1.38.22.06.12.09.27.09.45s-.02.37-.07.57c-.05.2-.08.39-.11.55-.12.81-.23,1.62-.34,2.44-.11.81-.22,1.62-.34,2.44-.05.26-.22.38-.5.36-.29-.02-.56-.06-.83-.11-.22-.05-.58-.11-1.09-.18-.51-.07-1.11-.16-1.79-.27-.68-.11-1.39-.22-2.13-.32-.74-.11-1.45-.21-2.13-.3s-1.28-.18-1.79-.25c-.51-.07-.88-.12-1.09-.14-.24,2.1-.4,4.21-.47,6.32-.07,2.11-.09,4.22-.04,6.32.22,0,.62.02,1.22.05.6.04,1.24.07,1.92.09.68.02,1.32.04,1.92.05s1,.02,1.22.02c.05-.48.08-.94.11-1.4.02-.45.05-.92.07-1.4h-2.85c-.25,0-.41-.08-.48-.25-.07-.14-.1-.42-.09-.84s.03-.86.05-1.33c.02-.47.05-.9.09-1.31.03-.41.04-.69.02-.86-.02-.1-.02-.2,0-.32.02-.12.07-.2.14-.25.07-.07.19-.11.36-.13.17-.01.34-.02.52-.02s.35.01.52.03c.17.02.3.04.39.04.19.02.6.05,1.24.07s1.3.05,2.01.07,1.37.05,2.01.07,1.04.03,1.24.03c.31.05.61.1.91.16.3.06.41.25.34.56-.07.29-.15.76-.23,1.43-.08.67-.17,1.44-.25,2.31-.08.87-.17,1.79-.27,2.74-.1.95-.18,1.86-.25,2.72-.07.86-.13,1.63-.18,2.31-.05.68-.08,1.16-.11,1.45,0,.12-.03.26-.09.41s-.14.26-.23.3c-.07.05-.22.07-.45.07h-.48c-2.22-.1-4.43-.18-6.63-.25-2.2-.07-4.39.02-6.59.29Z"/>
      </g>
      <g>
        <path class="cls-4" d="M45.65,272.01c-.14,0-.28,0-.41-.02s-.26-.04-.38-.09c-.12-.07-.23-.19-.32-.36-.05-.1-.08-.27-.09-.54-.01-.26-.03-.53-.05-.81-.02-.27-.03-.54-.03-.79v-.55c-.02-.79-.04-1.57-.04-2.35v-2.31c-.17-.33-.47-.91-.9-1.72-.43-.81-.91-1.74-1.45-2.77-.54-1.04-1.11-2.14-1.7-3.3-.6-1.16-1.16-2.26-1.68-3.29-.53-1.04-.99-1.97-1.38-2.79s-.66-1.41-.81-1.77c-.05-.14-.07-.26-.07-.36.02-.12.11-.23.25-.32.17-.12.51-.32,1.02-.59s1.06-.56,1.65-.84c.59-.29,1.14-.55,1.67-.8.52-.25.88-.42,1.08-.52.26-.12.54-.23.82-.32.29-.09.49-.01.61.25.79,1.93,1.53,3.87,2.22,5.8s1.46,3.86,2.29,5.77c.69-2.03,1.4-4.04,2.13-6.02.73-1.98,1.51-3.96,2.34-5.95.07-.19.17-.41.31-.65.13-.24.29-.34.48-.32.84.1,1.66.22,2.47.36.81.14,1.62.31,2.43.5.19.05.4.09.61.14.22.05.41.11.57.2.17.08.29.19.36.3.07.12.07.26,0,.43-.17.38-.45,1.05-.86,1.99-.41.94-.87,2.03-1.4,3.26-.53,1.23-1.08,2.53-1.67,3.9-.59,1.37-1.14,2.68-1.66,3.9-.53,1.23-.99,2.32-1.38,3.28s-.67,1.62-.84,2.01c0,.24,0,.7-.02,1.4s-.02,1.43-.03,2.22-.02,1.53-.02,2.22.01,1.16.03,1.4c.05.14.05.27,0,.39-.09.12-.26.19-.5.2-.24.01-.42.02-.54.02-.86,0-1.72.02-2.58.07-.86.05-1.71.1-2.54.14Z"/>
        <path class="cls-4" d="M64.13,272.27c-.19.07-.39.1-.61.09-.22-.01-.43-.03-.65-.05-.19-.02-.52-.07-1-.13-.48-.06-.99-.13-1.54-.22s-1.06-.16-1.54-.23-.8-.13-.97-.18c-.31-.07-.59-.18-.82-.32-.26-.22-.39-.48-.39-.79.02-.29.08-.56.18-.82.09-.26.2-.52.32-.79.07-.17.18-.47.32-.9s.3-.91.48-1.45c.18-.54.37-1.1.57-1.7.2-.6.39-1.17.55-1.72.17-.55.32-1.03.45-1.45.13-.42.22-.72.27-.91.26-.91.53-1.82.81-2.74.27-.92.58-1.83.91-2.74.07-.22.23-.66.47-1.33.24-.67.48-1.38.73-2.13.25-.75.49-1.46.72-2.13.23-.67.38-1.11.45-1.33.1-.31.17-.62.23-.91.06-.3.1-.61.13-.95.02-.12.04-.23.05-.34.01-.11.05-.2.13-.27.09-.09.2-.15.32-.18.12-.02.24-.05.36-.07.81-.05,1.62-.11,2.42-.2.8-.08,1.61-.15,2.42-.2.48-.05.94-.07,1.4-.07s.92-.02,1.4-.07c.07,0,.2-.01.39-.04.19-.02.4-.04.63-.05.23-.01.44-.02.63-.03s.32-.02.4-.02c.26,0,.44.06.54.18.07.07.14.19.22.36s.14.35.2.55c.06.2.11.4.16.57.05.18.08.32.11.41.31,1.15.61,2.3.91,3.46.3,1.16.58,2.32.84,3.49.31,1.43.67,2.85,1.07,4.24.41,1.4.75,2.81,1.04,4.24.1.43.18.86.25,1.27s.17.83.29,1.23c.05.19.14.54.29,1.04.14.5.3,1.04.47,1.61.17.57.33,1.12.48,1.63.16.51.27.86.34,1.02.05.12.09.23.14.34.05.11.08.22.11.34.05.22-.03.37-.25.47-.22.1-.44.17-.68.22-.62.1-1.23.14-1.83.14s-1.21.01-1.83.04c-.14,0-.39.02-.73.05-.35.03-.71.08-1.09.12-.38.05-.75.1-1.09.14s-.58.08-.7.11c-.14.05-.28.05-.41,0-.13-.05-.22-.13-.27-.25-.07-.24-.16-.7-.25-1.4-.1-.69-.19-1.43-.27-2.2-.08-.78-.17-1.51-.25-2.2-.08-.69-.14-1.17-.16-1.43-.19,0-.6,0-1.22.02s-1.28.02-1.97.02-1.35,0-1.97.02-1.03.02-1.22.02c-.19.91-.34,1.81-.45,2.72-.11.91-.24,1.81-.41,2.72-.05.26-.1.53-.16.81-.06.27-.16.53-.31.77-.05.1-.12.19-.21.27-.1.08-.2.15-.32.2ZM67.07,260.45c.79,0,1.58,0,2.38.02.8.01,1.59,0,2.38-.05-.09-.76-.2-1.52-.32-2.27-.12-.75-.23-1.51-.32-2.27-.05-.45-.08-.91-.11-1.36-.02-.45-.03-.92-.03-1.4-.07.02-.18.05-.32.09-.14.03-.3.06-.47.09-.17.02-.32.05-.47.07s-.25.03-.32.03c-.12,0-.29.02-.52.07-.23.05-.38.11-.45.18-.09.07-.16.26-.2.55-.04.3-.07.51-.09.63-.17.95-.35,1.9-.54,2.83s-.39,1.86-.61,2.79Z"/>
        <path class="cls-4" d="M88.88,272.01c-.14,0-.28,0-.41-.02s-.26-.04-.38-.09c-.12-.07-.23-.19-.32-.36-.05-.1-.08-.27-.09-.54-.01-.26-.03-.53-.05-.81-.02-.27-.03-.54-.03-.79v-.55c-.02-.79-.04-1.57-.04-2.35v-2.31c-.17-.33-.47-.91-.9-1.72-.43-.81-.91-1.74-1.45-2.77-.54-1.04-1.11-2.14-1.7-3.3-.6-1.16-1.16-2.26-1.68-3.29-.53-1.04-.99-1.97-1.38-2.79s-.66-1.41-.81-1.77c-.05-.14-.07-.26-.07-.36.02-.12.11-.23.25-.32.17-.12.51-.32,1.02-.59s1.06-.56,1.65-.84c.59-.29,1.14-.55,1.67-.8.52-.25.88-.42,1.08-.52.26-.12.54-.23.82-.32.29-.09.49-.01.61.25.79,1.93,1.53,3.87,2.22,5.8.69,1.93,1.46,3.86,2.29,5.77.69-2.03,1.4-4.04,2.13-6.02.73-1.98,1.51-3.96,2.34-5.95.07-.19.17-.41.31-.65.13-.24.29-.34.48-.32.84.1,1.66.22,2.47.36.81.14,1.62.31,2.43.5.19.05.4.09.61.14.22.05.41.11.57.2.17.08.29.19.36.3.07.12.07.26,0,.43-.17.38-.45,1.05-.86,1.99-.41.94-.87,2.03-1.4,3.26-.53,1.23-1.08,2.53-1.67,3.9s-1.14,2.68-1.66,3.9c-.53,1.23-.99,2.32-1.38,3.28-.39.95-.67,1.62-.84,2.01,0,.24,0,.7-.02,1.4s-.02,1.43-.03,2.22-.02,1.53-.02,2.22.01,1.16.03,1.4c.05.14.05.27,0,.39-.09.12-.26.19-.5.2-.24.01-.42.02-.54.02-.86,0-1.72.02-2.58.07-.86.05-1.71.1-2.54.14Z"/>
        <path class="cls-4" d="M107.36,272.27c-.19.07-.39.1-.61.09-.22-.01-.43-.03-.65-.05-.19-.02-.52-.07-1-.13-.48-.06-.99-.13-1.54-.22s-1.06-.16-1.54-.23-.8-.13-.97-.18c-.31-.07-.59-.18-.82-.32-.26-.22-.39-.48-.39-.79.02-.29.08-.56.18-.82.09-.26.2-.52.32-.79.07-.17.18-.47.32-.9s.3-.91.48-1.45c.18-.54.37-1.1.57-1.7.2-.6.39-1.17.55-1.72.17-.55.32-1.03.45-1.45.13-.42.22-.72.27-.91.26-.91.53-1.82.81-2.74.27-.92.58-1.83.91-2.74.07-.22.23-.66.47-1.33.24-.67.48-1.38.73-2.13.25-.75.49-1.46.72-2.13.23-.67.38-1.11.45-1.33.1-.31.17-.62.23-.91.06-.3.1-.61.13-.95.02-.12.04-.23.05-.34.01-.11.05-.2.13-.27.09-.09.2-.15.32-.18.12-.02.24-.05.36-.07.81-.05,1.62-.11,2.42-.2.8-.08,1.61-.15,2.42-.2.48-.05.94-.07,1.4-.07s.92-.02,1.4-.07c.07,0,.2-.01.39-.04.19-.02.4-.04.63-.05.23-.01.44-.02.63-.03s.32-.02.4-.02c.26,0,.44.06.54.18.07.07.14.19.22.36s.14.35.2.55c.06.2.11.4.16.57.05.18.08.32.11.41.31,1.15.61,2.3.91,3.46.3,1.16.58,2.32.84,3.49.31,1.43.67,2.85,1.07,4.24s.75,2.81,1.04,4.24c.1.43.18.86.25,1.27s.17.83.29,1.23c.05.19.14.54.29,1.04.14.5.3,1.04.47,1.61.17.57.33,1.12.48,1.63.16.51.27.86.34,1.02.05.12.09.23.14.34.05.11.08.22.11.34.05.22-.03.37-.25.47-.22.1-.44.17-.68.22-.62.1-1.23.14-1.83.14s-1.21.01-1.83.04c-.14,0-.39.02-.73.05-.35.03-.71.08-1.09.12-.38.05-.75.1-1.09.14s-.58.08-.7.11c-.14.05-.28.05-.41,0-.13-.05-.22-.13-.27-.25-.07-.24-.16-.7-.25-1.4-.1-.69-.19-1.43-.27-2.2-.08-.78-.17-1.51-.25-2.2-.08-.69-.14-1.17-.16-1.43-.19,0-.6,0-1.22.02s-1.28.02-1.97.02-1.35,0-1.97.02-1.03.02-1.22.02c-.19.91-.34,1.81-.45,2.72-.11.91-.24,1.81-.41,2.72-.05.26-.1.53-.16.81-.06.27-.16.53-.31.77-.05.1-.12.19-.21.27-.1.08-.2.15-.32.2ZM110.3,260.45c.79,0,1.58,0,2.38.02.8.01,1.59,0,2.38-.05-.09-.76-.2-1.52-.32-2.27-.12-.75-.23-1.51-.32-2.27-.05-.45-.08-.91-.11-1.36-.02-.45-.03-.92-.03-1.4-.07.02-.18.05-.32.09-.14.03-.3.06-.47.09-.17.02-.32.05-.47.07s-.25.03-.32.03c-.12,0-.29.02-.52.07-.23.05-.38.11-.45.18-.09.07-.16.26-.2.55-.04.3-.07.51-.09.63-.17.95-.35,1.9-.54,2.83s-.39,1.86-.61,2.79Z"/>
        <path class="cls-4" d="M131.36,271.8c-.52.05-1.04.08-1.56.11-.51.02-1.03.02-1.56,0-.19,0-.37-.02-.54-.05-.17-.03-.3-.11-.39-.23-.07-.1-.12-.27-.14-.54-.02-.26-.05-.45-.07-.57-.12-1.62-.14-3.23-.07-4.84.07-1.6.09-3.2.07-4.8,0-.29,0-.78-.02-1.49-.01-.7-.02-1.52-.04-2.43-.01-.92-.03-1.9-.05-2.94-.02-1.04-.04-2.02-.05-2.94-.01-.92-.02-1.73-.04-2.44-.01-.7-.02-1.2-.02-1.49,0-.24.16-.39.47-.45s.6-.11.86-.16c1.15-.26,2.29-.46,3.44-.59,1.15-.13,2.29-.3,3.44-.52.19-.05.42-.08.68-.09s.43.08.5.27c.81,1.86,1.67,3.69,2.58,5.48.95,1.94,1.92,3.85,2.9,5.75.98,1.9,1.96,3.8,2.94,5.71.02-1.07.11-2.12.25-3.15s.26-2.06.36-3.12c.12-1.15.22-2.29.29-3.44.07-1.15.13-2.29.18-3.44.05-.53.08-1.05.09-1.56.01-.51.04-1.05.09-1.59.02-.09.05-.27.09-.52.03-.25.08-.42.12-.52.05-.07.15-.13.31-.16.15-.04.29-.05.41-.05.48.05.94.1,1.4.14.45.05.92.08,1.4.11.38,0,.76-.01,1.13-.03s.75-.02,1.13,0c.38,0,.69.06.93.18.24.12.39.31.47.57.07.26.06.56-.03.9-.02.17-.08.5-.18,1-.09.5-.19,1.03-.29,1.59-.09.56-.18,1.09-.27,1.59s-.14.84-.16,1c-.05.38-.11,1.04-.2,1.97s-.19,2.01-.3,3.22c-.12,1.22-.24,2.51-.36,3.87-.12,1.36-.23,2.65-.34,3.87-.11,1.22-.21,2.29-.3,3.22-.09.93-.17,1.59-.22,1.97-.05.19-.09.37-.14.54-.05.17-.13.31-.25.43-.17.14-.44.24-.81.29-.37.05-.77.07-1.2.07s-.85-.02-1.25-.05c-.41-.04-.72-.05-.93-.05-.41,0-.81.04-1.22.13-.41.08-.81.11-1.22.09-.19-.02-.37-.05-.54-.07-.17-.02-.32-.08-.47-.18-.22-.12-.41-.28-.57-.48s-.31-.41-.43-.63c-1.29-2.15-2.48-4.33-3.56-6.54s-2.31-4.35-3.67-6.43c0,1.93.08,3.87.25,5.82.17,1.95.36,3.89.57,5.82,0,.07.02.21.05.41.04.2.07.42.09.66.02.24.05.47.07.68.02.22.03.36.03.43,0,.12-.02.23-.07.32-.05.1-.12.17-.22.22-.14.07-.39.12-.75.14-.36.02-.73.04-1.13.04s-.78,0-1.15-.02c-.37-.01-.64-.02-.81-.02Z"/>
        <path class="cls-4" d="M158.97,271.51c-.1,0-.24.02-.45.05-.2.04-.42.07-.66.09-.24.02-.46.05-.66.07-.2.02-.35.02-.45,0-.19-.05-.34-.22-.43-.5-.1-.29-.17-.53-.22-.72-.38-2.08-.63-4.17-.75-6.29-.12-2.11-.14-4.23-.07-6.36.07-2.12.21-4.25.41-6.38.2-2.13.42-4.24.66-6.34.05-.29.16-.54.34-.75s.42-.3.73-.25c2.79.38,5.57.79,8.33,1.22,2.76.43,5.54.8,8.36,1.11.19.02.31.1.38.22.06.12.09.27.09.45s-.02.37-.07.57c-.05.2-.08.39-.11.55-.12.81-.23,1.62-.34,2.44-.11.81-.22,1.62-.34,2.44-.05.26-.22.38-.5.36-.29-.02-.56-.06-.83-.11-.22-.05-.58-.11-1.09-.18-.51-.07-1.11-.16-1.79-.27-.68-.11-1.39-.22-2.13-.32-.74-.11-1.45-.21-2.13-.3s-1.28-.18-1.79-.25c-.51-.07-.88-.12-1.09-.14-.24,2.1-.4,4.21-.47,6.32-.07,2.11-.09,4.22-.04,6.32.22,0,.62.02,1.22.05.6.04,1.24.07,1.92.09.68.02,1.32.04,1.92.05s1,.02,1.22.02c.05-.48.08-.94.11-1.4.02-.45.05-.92.07-1.4h-2.85c-.25,0-.41-.08-.48-.25-.07-.14-.1-.42-.09-.84s.03-.86.05-1.33c.02-.47.05-.9.09-1.31.03-.41.04-.69.02-.86-.02-.1-.02-.2,0-.32.02-.12.07-.2.14-.25.07-.07.19-.11.36-.13.17-.01.34-.02.52-.02s.35.01.52.03c.17.02.3.04.39.04.19.02.6.05,1.24.07s1.3.05,2.01.07c.7.02,1.37.05,2.01.07s1.04.03,1.24.03c.31.05.61.1.91.16.3.06.41.25.34.56-.07.29-.15.76-.23,1.43-.08.67-.17,1.44-.25,2.31-.08.87-.17,1.79-.27,2.74-.1.95-.18,1.86-.25,2.72-.07.86-.13,1.63-.18,2.31-.05.68-.08,1.16-.11,1.45,0,.12-.03.26-.09.41s-.14.26-.23.3c-.07.05-.22.07-.45.07h-.48c-2.22-.1-4.43-.18-6.63-.25-2.2-.07-4.39.02-6.59.29Z"/>
      </g>
      <g>
        <path class="cls-54" d="M45.74,272.02c-.15,0-.28,0-.42-.02s-.26-.04-.38-.09c-.12-.07-.23-.19-.33-.36-.05-.1-.08-.28-.09-.54-.01-.26-.03-.54-.05-.81-.02-.28-.04-.54-.04-.8v-.56c-.02-.8-.03-1.59-.03-2.37v-2.33c-.17-.34-.47-.92-.91-1.74-.43-.82-.92-1.76-1.47-2.8-.54-1.05-1.12-2.16-1.72-3.33-.6-1.17-1.17-2.28-1.7-3.33-.53-1.05-.99-1.99-1.39-2.82-.4-.83-.67-1.43-.81-1.79-.05-.14-.07-.26-.07-.36.02-.12.11-.23.25-.33.17-.12.51-.32,1.03-.6.52-.28,1.07-.56,1.66-.85.59-.29,1.15-.56,1.68-.81.53-.25.89-.43,1.09-.52.26-.12.54-.23.83-.33.29-.1.49-.01.61.25.8,1.95,1.54,3.91,2.24,5.86.7,1.95,1.47,3.9,2.32,5.83.7-2.05,1.42-4.08,2.15-6.08.74-2,1.53-4,2.37-6.01.07-.19.17-.41.31-.65.13-.24.3-.35.49-.33.84.1,1.68.22,2.5.36.82.15,1.64.31,2.46.51.19.05.4.1.62.15s.41.11.58.2c.17.08.29.19.36.31.07.12.07.27,0,.44-.17.38-.46,1.05-.87,2.01-.41.95-.88,2.05-1.41,3.29-.53,1.24-1.09,2.56-1.68,3.94-.59,1.39-1.15,2.7-1.68,3.94-.53,1.24-.99,2.35-1.39,3.31-.4.97-.68,1.64-.85,2.03,0,.24,0,.71-.02,1.41s-.02,1.45-.03,2.24c-.01.8-.02,1.54-.02,2.24s.01,1.17.04,1.41c.05.14.05.28,0,.4-.1.12-.27.19-.51.2s-.42.02-.54.02c-.87,0-1.74.02-2.61.07-.87.05-1.72.1-2.57.14Z"/>
        <path class="cls-54" d="M64.41,272.27c-.19.07-.4.1-.61.09-.22-.01-.44-.03-.65-.05-.19-.02-.53-.07-1.01-.13-.48-.06-1-.13-1.56-.22-.55-.08-1.07-.16-1.56-.23s-.81-.13-.98-.18c-.31-.07-.59-.18-.83-.33-.27-.22-.4-.48-.4-.8.02-.29.08-.57.18-.83.1-.26.2-.53.33-.8.07-.17.18-.47.33-.9s.31-.92.49-1.47c.18-.54.37-1.12.58-1.72.2-.6.39-1.18.56-1.74.17-.55.32-1.04.45-1.47s.22-.73.27-.92c.27-.92.54-1.84.81-2.77.28-.93.58-1.85.92-2.77.07-.22.23-.66.47-1.34s.49-1.39.74-2.15c.25-.76.49-1.48.72-2.15s.38-1.12.45-1.34c.1-.31.17-.62.23-.92.06-.3.1-.62.13-.96.02-.12.04-.24.05-.34s.05-.2.13-.27c.1-.1.2-.16.33-.18.12-.02.24-.05.36-.07.82-.05,1.63-.11,2.44-.2.81-.08,1.62-.15,2.44-.2.48-.05.95-.07,1.41-.07s.93-.02,1.41-.07c.07,0,.2-.01.4-.04.19-.02.4-.04.63-.05s.44-.02.63-.04c.19-.01.33-.02.4-.02.26,0,.45.06.54.18.07.07.15.19.22.36.07.17.14.36.2.56.06.2.11.4.16.58s.08.32.11.42c.31,1.16.62,2.32.92,3.49.3,1.17.58,2.34.85,3.53.31,1.45.67,2.88,1.09,4.29.41,1.41.76,2.84,1.05,4.29.1.44.18.86.25,1.29.07.42.17.84.29,1.25.05.19.15.54.29,1.05.14.51.3,1.05.47,1.63.17.58.33,1.13.49,1.65.16.52.27.86.34,1.03.05.12.1.23.15.34.05.11.08.22.11.34.05.22-.03.37-.25.47-.22.1-.45.17-.69.22-.63.1-1.24.15-1.84.15s-1.22.01-1.84.04c-.15,0-.39.02-.74.05-.35.03-.72.08-1.1.13-.39.05-.76.1-1.1.15-.35.05-.59.08-.71.11-.15.05-.28.05-.42,0-.13-.05-.22-.13-.27-.25-.07-.24-.16-.71-.25-1.41s-.19-1.44-.27-2.22-.17-1.52-.25-2.23c-.08-.7-.14-1.18-.16-1.45-.19,0-.6,0-1.23.02-.63.01-1.29.02-1.99.02s-1.36,0-1.99.02c-.63.01-1.04.02-1.23.02-.19.92-.34,1.83-.45,2.75-.11.92-.25,1.83-.42,2.75-.05.27-.1.54-.16.81-.06.28-.16.54-.31.78-.05.1-.12.19-.22.27-.1.08-.21.15-.33.2ZM67.38,260.34c.8,0,1.6,0,2.41.02s1.61,0,2.41-.05c-.1-.77-.21-1.54-.33-2.3-.12-.76-.23-1.52-.33-2.3-.05-.46-.08-.92-.11-1.37s-.03-.93-.03-1.41c-.07.02-.18.05-.33.09-.14.03-.3.07-.47.09-.17.02-.33.05-.47.07-.14.02-.25.03-.33.03-.12,0-.3.02-.52.07s-.38.11-.45.18c-.1.07-.16.26-.2.56-.04.3-.07.51-.09.63-.17.97-.35,1.92-.54,2.86-.19.94-.4,1.88-.62,2.82Z"/>
        <path class="cls-54" d="M89.41,272.02c-.15,0-.28,0-.42-.02s-.26-.04-.38-.09c-.12-.07-.23-.19-.33-.36-.05-.1-.08-.28-.09-.54-.01-.26-.03-.54-.05-.81-.02-.28-.04-.54-.04-.8v-.56c-.02-.8-.03-1.59-.03-2.37v-2.33c-.17-.34-.47-.92-.91-1.74-.43-.82-.92-1.76-1.47-2.8-.54-1.05-1.12-2.16-1.72-3.33-.6-1.17-1.17-2.28-1.7-3.33s-.99-1.99-1.39-2.82c-.4-.83-.67-1.43-.81-1.79-.05-.14-.07-.26-.07-.36.02-.12.11-.23.25-.33.17-.12.51-.32,1.03-.6s1.07-.56,1.66-.85c.59-.29,1.15-.56,1.68-.81.53-.25.89-.43,1.09-.52.26-.12.54-.23.83-.33.29-.1.49-.01.61.25.8,1.95,1.54,3.91,2.24,5.86.7,1.95,1.47,3.9,2.32,5.83.7-2.05,1.42-4.08,2.15-6.08.74-2,1.53-4,2.37-6.01.07-.19.17-.41.31-.65.13-.24.3-.35.49-.33.84.1,1.68.22,2.5.36.82.15,1.64.31,2.46.51.19.05.4.1.62.15s.41.11.58.2c.17.08.29.19.36.31.07.12.07.27,0,.44-.17.38-.46,1.05-.87,2.01-.41.95-.88,2.05-1.41,3.29-.53,1.24-1.09,2.56-1.68,3.94s-1.15,2.7-1.68,3.94c-.53,1.24-.99,2.35-1.39,3.31-.4.97-.68,1.64-.85,2.03,0,.24,0,.71-.02,1.41-.01.7-.02,1.45-.03,2.24-.01.8-.02,1.54-.02,2.24s.01,1.17.04,1.41c.05.14.05.28,0,.4-.1.12-.27.19-.51.2s-.42.02-.54.02c-.87,0-1.74.02-2.61.07-.87.05-1.72.1-2.57.14Z"/>
        <path class="cls-54" d="M108.07,272.27c-.19.07-.4.1-.61.09-.22-.01-.44-.03-.65-.05-.19-.02-.53-.07-1.01-.13-.48-.06-1-.13-1.56-.22-.55-.08-1.07-.16-1.56-.23s-.81-.13-.98-.18c-.31-.07-.59-.18-.83-.33-.27-.22-.4-.48-.4-.8.02-.29.08-.57.18-.83.1-.26.2-.53.33-.8.07-.17.18-.47.33-.9s.31-.92.49-1.47c.18-.54.37-1.12.58-1.72.2-.6.39-1.18.56-1.74.17-.55.32-1.04.45-1.47s.22-.73.27-.92c.27-.92.54-1.84.81-2.77.28-.93.58-1.85.92-2.77.07-.22.23-.66.47-1.34s.49-1.39.74-2.15c.25-.76.49-1.48.72-2.15s.38-1.12.45-1.34c.1-.31.17-.62.23-.92.06-.3.1-.62.13-.96.02-.12.04-.24.05-.34s.05-.2.13-.27c.1-.1.2-.16.33-.18.12-.02.24-.05.36-.07.82-.05,1.63-.11,2.44-.2.81-.08,1.62-.15,2.44-.2.48-.05.95-.07,1.41-.07s.93-.02,1.41-.07c.07,0,.2-.01.4-.04.19-.02.4-.04.63-.05s.44-.02.63-.04c.19-.01.33-.02.4-.02.26,0,.45.06.54.18.07.07.15.19.22.36.07.17.14.36.2.56.06.2.11.4.16.58s.08.32.11.42c.31,1.16.62,2.32.92,3.49.3,1.17.58,2.34.85,3.53.31,1.45.67,2.88,1.09,4.29.41,1.41.76,2.84,1.05,4.29.1.44.18.86.25,1.29.07.42.17.84.29,1.25.05.19.15.54.29,1.05.14.51.3,1.05.47,1.63.17.58.33,1.13.49,1.65.16.52.27.86.34,1.03.05.12.1.23.15.34.05.11.08.22.11.34.05.22-.03.37-.25.47-.22.1-.45.17-.69.22-.63.1-1.24.15-1.84.15s-1.22.01-1.84.04c-.15,0-.39.02-.74.05-.35.03-.72.08-1.1.13-.39.05-.76.1-1.1.15-.35.05-.59.08-.71.11-.15.05-.28.05-.42,0-.13-.05-.22-.13-.27-.25-.07-.24-.16-.71-.25-1.41s-.19-1.44-.27-2.22-.17-1.52-.25-2.23c-.08-.7-.14-1.18-.16-1.45-.19,0-.6,0-1.23.02-.63.01-1.29.02-1.99.02s-1.36,0-1.99.02c-.63.01-1.04.02-1.23.02-.19.92-.34,1.83-.45,2.75-.11.92-.25,1.83-.42,2.75-.05.27-.1.54-.16.81-.06.28-.16.54-.31.78-.05.1-.12.19-.22.27-.1.08-.21.15-.33.2ZM111.04,260.34c.8,0,1.6,0,2.41.02s1.61,0,2.41-.05c-.1-.77-.21-1.54-.33-2.3-.12-.76-.23-1.52-.33-2.3-.05-.46-.08-.92-.11-1.37s-.03-.93-.03-1.41c-.07.02-.18.05-.33.09-.14.03-.3.07-.47.09-.17.02-.33.05-.47.07-.14.02-.25.03-.33.03-.12,0-.3.02-.52.07s-.38.11-.45.18c-.1.07-.16.26-.2.56-.04.3-.07.51-.09.63-.17.97-.35,1.92-.54,2.86-.19.94-.4,1.88-.62,2.82Z"/>
        <path class="cls-54" d="M132.32,271.8c-.53.05-1.06.09-1.57.11-.52.02-1.04.02-1.57,0-.19,0-.37-.02-.54-.05-.17-.03-.3-.11-.4-.23-.07-.1-.12-.28-.15-.54-.02-.27-.05-.46-.07-.58-.12-1.64-.14-3.27-.07-4.89.07-1.62.1-3.23.07-4.85,0-.29,0-.79-.02-1.5s-.02-1.53-.04-2.46-.03-1.92-.05-2.97-.04-2.04-.05-2.97-.02-1.75-.03-2.46c-.01-.71-.02-1.21-.02-1.5,0-.24.16-.39.47-.45.31-.06.6-.12.87-.16,1.16-.27,2.32-.47,3.47-.6,1.16-.13,2.32-.31,3.47-.52.19-.05.42-.08.69-.09.26-.01.43.08.51.27.82,1.88,1.69,3.73,2.61,5.53.96,1.95,1.94,3.89,2.93,5.81.99,1.92,1.98,3.84,2.97,5.77.02-1.08.11-2.15.25-3.18.15-1.04.27-2.08.36-3.15.12-1.16.22-2.32.29-3.47.07-1.16.13-2.32.18-3.47.05-.53.08-1.05.09-1.57s.04-1.05.09-1.61c.02-.1.05-.27.09-.52.04-.25.08-.43.13-.52.05-.07.15-.13.31-.16.16-.04.29-.05.42-.05.48.05.95.1,1.41.15.46.05.93.08,1.41.11.39,0,.77-.01,1.14-.04s.75-.02,1.14,0c.38,0,.7.06.94.18s.4.31.47.58c.07.27.06.57-.04.9-.02.17-.08.51-.18,1.01-.1.51-.19,1.04-.29,1.61s-.19,1.1-.27,1.61c-.09.51-.14.84-.16,1.01-.05.39-.12,1.05-.2,1.99s-.19,2.03-.31,3.26c-.12,1.23-.24,2.53-.36,3.91-.12,1.37-.23,2.68-.34,3.91-.11,1.23-.21,2.32-.31,3.26s-.17,1.61-.22,1.99c-.05.19-.1.37-.15.54-.05.17-.13.31-.25.43-.17.15-.44.24-.81.29-.37.05-.78.07-1.21.07s-.86-.02-1.27-.05c-.41-.04-.72-.05-.94-.05-.41,0-.82.04-1.23.13-.41.08-.82.11-1.23.09-.19-.02-.37-.05-.54-.07-.17-.02-.33-.09-.47-.18-.22-.12-.41-.28-.58-.49-.17-.2-.31-.42-.43-.63-1.3-2.17-2.5-4.37-3.6-6.6s-2.33-4.4-3.71-6.49c0,1.95.08,3.91.25,5.88.17,1.97.36,3.93.58,5.88,0,.07.02.21.05.42.04.2.07.43.09.67s.05.47.07.69.04.36.04.43c0,.12-.02.23-.07.33-.05.1-.12.17-.22.22-.14.07-.4.12-.76.14s-.74.04-1.14.04-.78,0-1.16-.02c-.37-.01-.65-.02-.81-.02Z"/>
        <path class="cls-54" d="M160.21,271.52c-.1,0-.25.02-.45.05s-.43.07-.67.09c-.24.02-.46.05-.67.07-.2.02-.35.02-.45,0-.19-.05-.34-.22-.43-.51-.1-.29-.17-.53-.22-.72-.38-2.1-.64-4.22-.76-6.35-.12-2.13-.15-4.27-.07-6.42.07-2.15.21-4.29.41-6.44.21-2.15.43-4.28.67-6.4.05-.29.16-.54.34-.76.18-.22.43-.3.74-.25,2.82.39,5.62.8,8.41,1.23,2.79.43,5.6.81,8.45,1.12.19.02.32.1.38.22.06.12.09.27.09.45s-.02.37-.07.58-.08.39-.11.56c-.12.82-.23,1.64-.34,2.46s-.22,1.64-.34,2.46c-.05.27-.22.38-.51.36-.29-.02-.57-.06-.83-.11-.22-.05-.59-.11-1.1-.18-.52-.07-1.12-.16-1.81-.27s-1.41-.22-2.15-.33c-.75-.11-1.47-.21-2.15-.31s-1.29-.18-1.81-.25c-.52-.07-.89-.12-1.1-.15-.24,2.12-.4,4.25-.47,6.39-.07,2.13-.08,4.26-.03,6.39.22,0,.63.02,1.23.05s1.25.07,1.94.09,1.33.04,1.94.05,1.01.02,1.23.02c.05-.48.09-.95.11-1.41.02-.46.05-.93.07-1.41h-2.88c-.25,0-.42-.08-.49-.25-.07-.14-.1-.43-.09-.85.01-.42.03-.87.05-1.34s.05-.91.09-1.32c.03-.41.04-.7.02-.87-.02-.1-.02-.2,0-.33s.07-.2.15-.25c.07-.07.19-.12.36-.13.17-.01.34-.02.52-.02s.35.01.52.04c.17.02.3.03.4.03.19.02.61.05,1.25.07.64.02,1.31.05,2.03.07.71.02,1.39.05,2.02.07.64.02,1.06.03,1.25.03.31.05.62.1.92.16.3.06.42.25.34.56-.07.29-.15.77-.23,1.45-.09.67-.17,1.45-.25,2.33-.08.88-.17,1.8-.27,2.77s-.18,1.88-.25,2.75c-.07.87-.13,1.65-.18,2.33-.05.69-.09,1.17-.11,1.47,0,.12-.03.26-.09.42-.06.16-.14.26-.24.31-.07.05-.22.07-.45.07h-.49c-2.24-.1-4.47-.18-6.69-.25-2.22-.07-4.44.02-6.66.29Z"/>
      </g>
    </g>
  </g>
</svg>