<?xml version="1.0" encoding="UTF-8"?>
<svg id="Layer_2" data-name="Layer 2" xmlns="http://www.w3.org/2000/svg" xmlns:xlink="http://www.w3.org/1999/xlink" viewBox="0 0 248.34 467.41">
  <defs>
    <style>
      .cls-1, .cls-2, .cls-3, .cls-4, .cls-5, .cls-6, .cls-7, .cls-8, .cls-9, .cls-10, .cls-11, .cls-12, .cls-13, .cls-14, .cls-15, .cls-16, .cls-17, .cls-18 {
        stroke-miterlimit: 10;
      }

      .cls-1, .cls-3 {
        stroke: #c6c6c6;
        stroke-width: 1.55px;
      }

      .cls-1, .cls-4, .cls-5, .cls-6, .cls-7, .cls-8, .cls-9, .cls-10, .cls-11 {
        fill: none;
      }

      .cls-2, .cls-8, .cls-11, .cls-13 {
        stroke-width: 1.78px;
      }

      .cls-2, .cls-19 {
        fill: #e5e1df;
      }

      .cls-2, .cls-11 {
        stroke: #c9c5c3;
      }

      .cls-3, .cls-20 {
        fill: #f9f9f9;
      }

      .cls-21, .cls-12, .cls-13, .cls-14, .cls-15, .cls-16, .cls-17, .cls-18 {
        fill: #f8fbfe;
      }

      .cls-22 {
        clip-path: url(#clippath-10);
      }

      .cls-23 {
        clip-path: url(#clippath-1);
      }

      .cls-24 {
        clip-path: url(#clippath-3);
      }

      .cls-25 {
        clip-path: url(#clippath-4);
      }

      .cls-26 {
        clip-path: url(#clippath-2);
      }

      .cls-27 {
        clip-path: url(#clippath-7);
      }

      .cls-28 {
        clip-path: url(#clippath-6);
      }

      .cls-29 {
        clip-path: url(#clippath-9);
      }

      .cls-30 {
        clip-path: url(#clippath-8);
      }

      .cls-31 {
        clip-path: url(#clippath-5);
      }

      .cls-32 {
        fill: #fff;
      }

      .cls-33 {
        fill: #191918;
      }

      .cls-4, .cls-5, .cls-6, .cls-7, .cls-8, .cls-9, .cls-10, .cls-12, .cls-13, .cls-14, .cls-15, .cls-16, .cls-17, .cls-18 {
        stroke: #d1d1d1;
      }

      .cls-4, .cls-17 {
        stroke-width: 1.27px;
      }

      .cls-5, .cls-18 {
        stroke-width: 1.19px;
      }

      .cls-6, .cls-14 {
        stroke-width: 1.49px;
      }

      .cls-7, .cls-15 {
        stroke-width: 1.41px;
      }

      .cls-9, .cls-12 {
        stroke-width: 1.34px;
      }

      .cls-10, .cls-16 {
        stroke-width: 1.75px;
      }

      .cls-34 {
        opacity: .1;
      }

      .cls-34, .cls-35, .cls-36, .cls-37, .cls-38, .cls-39, .cls-40 {
        fill: #20164c;
      }

      .cls-35, .cls-41 {
        opacity: .15;
      }

      .cls-36 {
        opacity: .05;
      }

      .cls-37 {
        opacity: .4;
      }

      .cls-38 {
        opacity: .25;
      }

      .cls-39, .cls-42 {
        opacity: .2;
      }

      .cls-40 {
        opacity: .3;
      }

      .cls-43 {
        fill: #0c0812;
      }

      .cls-44 {
        fill: #b33c33;
      }

      .cls-41, .cls-42 {
        fill: #d7c5ff;
      }

      .cls-45 {
        clip-path: url(#clippath);
      }
    </style>
    <clipPath id="clippath">
      <path class="cls-12" d="M166.1,415.08c11.62,5.81,21.57,11.56,30.76,16.71,1.99,1.12,2.98,2.81,2.61,4.49-.93,4.19-6.01,9.22-3.99,15.2-14.33-12.19-28.02-24.37-29.39-36.4Z"/>
    </clipPath>
    <clipPath id="clippath-1">
      <path class="cls-17" d="M95.7,408.64c-4,9.41-19.53,18.39-29.72,26.53-2.08,1.66-2.74,3.62-1.73,5.01,3.3,4.53,7.47,7.17,12.36,8.25,15.18-14.36,26.24-28.2,19.09-39.79Z"/>
    </clipPath>
    <clipPath id="clippath-2">
      <path class="cls-15" d="M94.06,411.85c.62,16.71-15.82,10.93-23.55,37.73,1.93,3.15,4.59,4.56,9.63,5.14l-1.81,2.46c-.61.83.14,1.78,1.64,2.07,17.79,3.54,35.21,4.74,51.86,1.03,1.8,1.39,5.91,1.33,9.68.63,3.64-.68,9.14,3.29,23.69-1.62,7.82,3.79,9.2-.02,30.47-5.52,2.86-2.91-10.21-14.6-29.57-38.69,9.13-15.03-81.02-21.33-72.04-3.23Z"/>
    </clipPath>
    <clipPath id="clippath-3">
      <path class="cls-18" d="M166.47,412.28c7.14-8.22,17.71-13.15,21.55-20.4,4.58-8.12-4.66-17.44-3.46-28.79-46.11-7.73-77.23-9.39-103.52-.09-7.06,7.46-6.25,21.12-2.06,25.53,3.43,3.21,13.12,10.46,10.45,14.21-3.11,2.29-1.28,4.57,4.24,7.5,16.79-7.63,43.99-3.69,72.81,2.04Z"/>
    </clipPath>
    <clipPath id="clippath-4">
      <path class="cls-16" d="M159.86,249.11c5,3.73,10.64,3.8,16.92,9.41,3.86,1.12,7.57,1.6,11.84,1.5,3.28-.07,6.44,1.13,8.57,3.25,7.72,7.68,13.27,15.86,16.1,24.62,1.04,3.22.84,6.64-.59,9.74-8.75,19.02-7.75,36.13-16.64,59-1.36,3.51-5.77,10.18-9.86,11.46-9.38,2.93-16.13-.13-27.78,5.92-3.75-1.28-5.76-3.75-6.99-5.98-7.38,3.2-15.45,5.8-24.46,7.57-4.07-.35-7.79-2.57-11.2-6.45-.43-.49-1.24-.5-1.75-.07-.77.66-1.78,1.05-3.02,1.19-4.2-1.49-5.73-4.43-9.99-4.1-8.44,3.18-10.05.62-16.25,3.35-23.11,10.18-41.78-20.18-34.77-39.74,6.54-21.35,14.06-39.45,18.7-68.23,1.36-3.89,9.91-7.66,17.81-12.74,4.29-2.75,9.59-4.17,14.96-3.88,6.76.36,12.41,1.61,16.96,3.74.98.46,2.2.35,3.02-.3s1.64-1.41,2.37-2.19c10.77,4.86,22.82,5.69,36.02,2.92Z"/>
    </clipPath>
    <clipPath id="clippath-5">
      <path class="cls-2" d="M56.42,98.43c-8.26,22.97-12.16,47.32-11.46,70.1,1.6,52.54,21.25,96.91,75.51,92.87,16.3-.55,22.34-7.54,33.1-12.69,25.48-10.25,42.94-125.19,22.95-130.35-.57-.15-83.48-30.17-83.48-30.17l-36.6,10.25Z"/>
    </clipPath>
    <clipPath id="clippath-6">
      <path class="cls-44" d="M55.37,226.33c7.28,36.7,41.55,35.85,48.96-1.8-14.75,17.07-36.4,15.16-48.96,1.8Z"/>
    </clipPath>
    <clipPath id="clippath-7">
      <ellipse class="cls-3" cx="96.41" cy="190.08" rx="21.19" ry="27.47" transform="translate(-116.66 185.34) rotate(-61.83)"/>
    </clipPath>
    <clipPath id="clippath-8">
      <ellipse class="cls-3" cx="26.99" cy="189.64" rx="27.47" ry="21.19" transform="translate(-86.33 35.2) rotate(-28.17)"/>
    </clipPath>
    <clipPath id="clippath-9">
      <path class="cls-13" d="M121.78,128.2c.43,13.67,23.81,24.35,25.63,35.14,8.49,50.31,7.22,76.06-34.24,98.3,7.58,4.22,17.59,6.15,26.62,4.63,22.54-8.2,53.38-21.69,73.72-45.5,33.29-58.39,26.31-92.91-15.62-144.75-31.58-22.21-96.68-19.07-128.74,7.05-11.03,8.98-33.73,18.83-20.05,41.06,3.91-6.17,10.65-15.97,21.27-17.06,21.97,2.12,30.59,10.04,51.41,21.13Z"/>
    </clipPath>
    <clipPath id="clippath-10">
      <path class="cls-14" d="M133.67,7.9c-6.35,9.1-11.75,16.29-9.01,22.2,4.34-16.03,17.76-17.17,40.75-19.23,4.23-.38,7.33,3.91,5.48,7.62-1.87,3.74-2.34,6.74,14.33,13.05,10.39,3.8,23.79,10.29,21.22,16.84-23.41,2.01-45.14,14-52.28,38.33-10.04-14.46-35.87-24.87-52.28-20.22-9.23-8.77-3.81-17.19-9.19-23.6C75.03,21.89,112.62-2.69,133.67,7.9Z"/>
    </clipPath>
  </defs>
  <g id="mini-mini">
    <g>
      <g>
        <path class="cls-21" d="M166.1,415.08c11.62,5.81,21.57,11.56,30.76,16.71,1.99,1.12,2.98,2.81,2.61,4.49-.93,4.19-6.01,9.22-3.99,15.2-14.33-12.19-28.02-24.37-29.39-36.4Z"/>
        <g class="cls-45">
          <path class="cls-38" d="M162.05,409.07c10.77,15.78,25.67,28.53,47.36,36.3l-13.42,11.5c-22.88-15.31-37.25-31.08-33.93-47.8Z"/>
        </g>
        <path class="cls-9" d="M166.1,415.08c11.62,5.81,21.57,11.56,30.76,16.71,1.99,1.12,2.98,2.81,2.61,4.49-.93,4.19-6.01,9.22-3.99,15.2-14.33-12.19-28.02-24.37-29.39-36.4Z"/>
      </g>
      <g>
        <path class="cls-21" d="M95.7,408.64c-4,9.41-19.53,18.39-29.72,26.53-2.08,1.66-2.74,3.62-1.73,5.01,3.3,4.53,7.47,7.17,12.36,8.25,15.18-14.36,26.24-28.2,19.09-39.79Z"/>
        <g class="cls-23">
          <path class="cls-38" d="M104.42,402.11c-11.55,22.36-36.87,30.63-39.52,48.26l7.37,2.33c22.26-18.99,36.03-36.42,32.15-50.59Z"/>
        </g>
        <path class="cls-4" d="M95.7,408.64c-4,9.41-19.53,18.39-29.72,26.53-2.08,1.66-2.74,3.62-1.73,5.01,3.3,4.53,7.47,7.17,12.36,8.25,15.18-14.36,26.24-28.2,19.09-39.79Z"/>
      </g>
      <g>
        <path class="cls-21" d="M94.06,411.85c.62,16.71-15.82,10.93-23.55,37.73,1.93,3.15,4.59,4.56,9.63,5.14l-1.81,2.46c-.61.83.14,1.78,1.64,2.07,17.79,3.54,35.21,4.74,51.86,1.03,1.8,1.39,5.91,1.33,9.68.63,3.64-.68,9.14,3.29,23.69-1.62,7.82,3.79,9.2-.02,30.47-5.52,2.86-2.91-10.21-14.6-29.57-38.69,9.13-15.03-81.02-21.33-72.04-3.23Z"/>
        <g class="cls-26">
          <path class="cls-35" d="M179.08,447.68c-17.39-9.94-29.18-21.63-32.95-35.83,10.54,21.92,36.98,25.96,32.95,35.83Z"/>
          <path class="cls-35" d="M172.29,443.34c-28.66-9-54.43-21.62-50.26-29.61,9.65,9.64,25.41,20.1,50.26,29.61Z"/>
          <path class="cls-36" d="M97.78,419.91c8.63,11.24,19.01,24.54,27.85,22.19-11.32-6.99-20.96-14.31-27.85-22.19Z"/>
          <path class="cls-35" d="M100.96,402.21c-.69,5.56,2.32,11.52,8.9,18.44-4.76-1.9-9.25-5.34-13.61-9.44l4.7-9Z"/>
          <path class="cls-35" d="M169.87,460.66c-7.7-2.31-15.21-7.08-22.5-13.4.29,7.34,3.67,13.03,7.72,20.15l14.78-6.75Z"/>
          <path class="cls-35" d="M132.28,462.08c-1.71-4.21-.17-10.95,1.9-19.99-6.14,9.33-11.67,16.7-13.35,22.18l11.46-2.19Z"/>
          <path class="cls-35" d="M78.21,458.04c4.44-6.18,10.27-13.57,17.27-19.22-11.2,5.62-17.44,12.44-24.37,17.73l7.1,1.49Z"/>
          <path class="cls-35" d="M90.76,413.43c30.66-5.92,60.95-2.63,91.02,6.36l7.66-8.52c-35.85-12.35-70.41-16.55-102.51-5.27l3.83,7.44Z"/>
          <path class="cls-35" d="M93.65,412.3c29.86-7.1,60.48-5.01,91.58,2.78l6.6-8.8c-37.28-10.91-72.27-13.75-102.92-1.25l4.74,7.27Z"/>
        </g>
        <path class="cls-7" d="M94.06,411.85c.62,16.71-15.82,10.93-23.55,37.73,1.93,3.15,4.59,4.56,9.63,5.14l-1.81,2.46c-.61.83.14,1.78,1.64,2.07,17.79,3.54,35.21,4.74,51.86,1.03,1.8,1.39,5.91,1.33,9.68.63,3.64-.68,9.14,3.29,23.69-1.62,7.82,3.79,9.2-.02,30.47-5.52,2.86-2.91-10.21-14.6-29.57-38.69,9.13-15.03-81.02-21.33-72.04-3.23Z"/>
      </g>
      <g>
        <path class="cls-21" d="M166.47,412.28c7.14-8.22,17.71-13.15,21.55-20.4,4.58-8.12-4.66-17.44-3.46-28.79-46.11-7.73-77.23-9.39-103.52-.09-7.06,7.46-6.25,21.12-2.06,25.53,3.43,3.21,13.12,10.46,10.45,14.21-3.11,2.29-1.28,4.57,4.24,7.5,16.79-7.63,43.99-3.69,72.81,2.04Z"/>
        <g class="cls-24">
          <path class="cls-35" d="M165.42,408.67c-17.77-10.51-29.18-22.54-31.45-36.76,8.69,22.13,37.17,27.13,31.45,36.76Z"/>
          <path class="cls-35" d="M146.97,399.7c-31.37-8.92-57.89-21.27-52.61-29.3,9.86,10.14,25.71,20.64,52.61,29.3Z"/>
          <path class="cls-36" d="M112.35,388.46c-14.41-3.49-24.52-8.9-28.4-17.08,6.53,6.75,16.35,12.31,28.4,17.08Z"/>
          <path class="cls-35" d="M153.04,409.61c-51.81-9.74-73.61-20.61-70.67-29.69,14.52,13.87,39.92,22.95,70.67,29.69Z"/>
          <path class="cls-36" d="M129.06,409.35c-15.31-2.65-30.81-5.29-33.91-8.9-3.96-2.26-9.04-6.58-14.2-11.03,4.52,5,10.01,10.58,9.62,12.65,8.22,2.86,23.39,5.07,38.49,7.28Z"/>
          <path class="cls-35" d="M174.87,375.59c-9.99,8.05-12.34,16.99-8.05,26.7.53-9.4,2.82-18.39,8.05-26.7Z"/>
          <path class="cls-35" d="M195.43,381.97c-19.95,9.91-23.5,23.14-32.5,35.78l34.41-26.38-1.91-9.41Z"/>
          <path class="cls-41" d="M70.95,372.85c-3.6,11.55,5.24,17.81,15.91,27.63-13.37-5.27-26.03-10.58-29.83-16.24l13.92-11.39Z"/>
          <path class="cls-41" d="M186.2,368.1c.87,17.85-6.2,30.54-13.66,40.48l24.8-17.2-11.14-23.28Z"/>
          <path class="cls-35" d="M76.75,361.34l121.18-1.96-7.34,12.5c-1.12,2-3.74,3.59-7.11,4.32-7.73,1.67-18.15,2.44-27.74,5.9-3.09-.73-4.75-2.14-5.76-3.41-6.08,1.83-12.73,3.31-20.14,4.32-3.35-.2-6.41-1.47-9.22-3.68-.35-.28-1.02-.28-1.44-.04-.63.38-1.46.6-2.48.68-3.46-.85-4.72-2.53-8.23-2.34-6.95,1.81-13.38,1.91-18.49,3.47-11.89,3.63-16.56-9.09-21.7-15.56l8.48-4.19Z"/>
          <path class="cls-35" d="M73.85,367.6c5.14,6.47,3.16,8.32,15.06,4.69,5.1-1.56,12.6,3.48,19.55,1.67,3.51-.19,4.77,1.49,8.23,2.34,1.02-.08,1.85-.3,2.48-.68.41-.25,1.09-.24,1.44.04,2.81,2.21,5.87,3.48,9.22,3.68,7.42-1.01,14.07-2.49,20.14-4.32,1.01,1.27,2.67,2.68,5.76,3.41,9.59-3.45,20.02-4.23,27.74-5.9,3.37-.73,5.99-2.32,7.11-4.32l7.34-12.5-118,1.91-6.08,9.97Z"/>
        </g>
        <path class="cls-5" d="M166.47,412.28c7.14-8.22,17.71-13.15,21.55-20.4,4.58-8.12-4.66-17.44-3.46-28.79-46.11-7.73-77.23-9.39-103.52-.09-7.06,7.46-6.25,21.12-2.06,25.53,3.43,3.21,13.12,10.46,10.45,14.21-3.11,2.29-1.28,4.57,4.24,7.5,16.79-7.63,43.99-3.69,72.81,2.04Z"/>
      </g>
      <g>
        <path class="cls-21" d="M159.86,249.11c5,3.73,10.64,3.8,16.92,9.41,3.86,1.12,7.57,1.6,11.84,1.5,3.28-.07,6.44,1.13,8.57,3.25,7.72,7.68,13.27,15.86,16.1,24.62,1.04,3.22.84,6.64-.59,9.74-8.75,19.02-7.75,36.13-16.64,59-1.36,3.51-5.77,10.18-9.86,11.46-9.38,2.93-16.13-.13-27.78,5.92-3.75-1.28-5.76-3.75-6.99-5.98-7.38,3.2-15.45,5.8-24.46,7.57-4.07-.35-7.79-2.57-11.2-6.45-.43-.49-1.24-.5-1.75-.07-.77.66-1.78,1.05-3.02,1.19-4.2-1.49-5.73-4.43-9.99-4.1-8.44,3.18-10.05.62-16.25,3.35-23.11,10.18-41.78-20.18-34.77-39.74,6.54-21.35,14.06-39.45,18.7-68.23,1.36-3.89,9.91-7.66,17.81-12.74,4.29-2.75,9.59-4.17,14.96-3.88,6.76.36,12.41,1.61,16.96,3.74.98.46,2.2.35,3.02-.3s1.64-1.41,2.37-2.19c10.77,4.86,22.82,5.69,36.02,2.92Z"/>
        <g class="cls-25">
          <path class="cls-35" d="M114.89,252.57c-6.26,1.66-14.01,2.07-18.91,4.47l-22.67,42.02,26.51-38.21c2.84-3.04,10.38-4.93,15.07-8.27Z"/>
          <path class="cls-35" d="M212.73,278.71c-2.22,11.54-25.83,56.38-35.94,63.09,8.52-3.07,34.92-38,39.39-52.47l-3.45-10.63Z"/>
          <path class="cls-35" d="M137.87,259.23c-3.55-.07-7.08.1-10.48,3.04-9.27,17.56-17.27,40.67-27.02,64.94,13.35-22.34,25.47-44.08,29.74-61.93.31-3.56,3.99-4.83,7.76-6.05Z"/>
          <path class="cls-36" d="M116.34,289.89c-14.99,23.05-29.86,43.17-44.27,51.91,11.82-11.78,27.82-31.42,44.27-51.91Z"/>
          <path class="cls-36" d="M80.07,299.94c-11.39,15.13-16.06,29.05-16.68,42.24,3.81-13.73,9.5-27.84,16.68-42.24Z"/>
          <path class="cls-35" d="M114.03,369.09c20.27,4.87,24.3-10.74,32.93-35.07.33,12.62.67,25.03,1.52,30.11-.43,1.95,2.3,5.22,5.32,8.61l-22.85,7.79-16.92-11.44Z"/>
          <path class="cls-35" d="M146.96,329.13c-5.5-1.03-6.1-15.01.16-35.82l-.16,35.82Z"/>
          <path class="cls-35" d="M160.5,351.14c.11-33.65,1.12-72.74-3.6-76.61.5,30.42,1.47,57.61,3.6,76.61Z"/>
          <path class="cls-35" d="M147.77,255.8c4.61,4.91,9.58,8.91,14.51,11.48,8.11,21.52,11.43,37.9,8.73,47.85-2.79-14.9-9.04-30.54-11.95-46.62-4.73-2.48-8.19-7.27-11.28-12.71Z"/>
          <path class="cls-35" d="M185.65,257.35c-12.21-9.39-25.43-12.03-39.65-7.92,19.36,9.44,32.12,11.58,39.65,7.92Z"/>
          <path class="cls-35" d="M134.87,247.23c-5.39,4.07-11.43,4.76-18.46.37l3.95-6.66,14.51,6.29Z"/>
          <path class="cls-35" d="M207.83,315.16c-14.85,45.68-50.55,48.08-60.6,60.45l28.05,3.28,33.53-13.67-.98-50.06Z"/>
          <path class="cls-35" d="M98.06,366.93c-43.71,2.44-43.34-24.52-39.33-65.65-11.79,18.27-17.32,38.23-19.99,58.95l21.92,18.32,37.39-11.62Z"/>
          <path class="cls-42" d="M224.45,313.58c-28.75-40.02-114.9-56.14-169.51-36.41l26.76-32.26c46.16-13.82,87.63-13.43,118.63,18.65,22.71,8.44,23.76,29.04,24.12,50.02Z"/>
          <path class="cls-41" d="M122.62,338.97c-2.98-19.91,7.49-45.98,9.13-66.63-11.09,27.17-20.6,52.42-38.36,79.71,19.35-19.55,19.69-25.4,29.23-13.09Z"/>
          <path class="cls-41" d="M168.88,274.71c12.78,21.61,22.77,42.2,4.94,52.59,4.5-14.04.48-32.91-4.94-52.59Z"/>
          <path class="cls-35" d="M101.99,369.46c5.13-4.64,7.16-14.1,8.87-24.06-5.99,10.71-12.96,20.37-22.57,27.21l13.7-3.14Z"/>
        </g>
        <path class="cls-10" d="M159.86,249.11c5,3.73,10.64,3.8,16.92,9.41,3.86,1.12,7.57,1.6,11.84,1.5,3.28-.07,6.44,1.13,8.57,3.25,7.72,7.68,13.27,15.86,16.1,24.62,1.04,3.22.84,6.64-.59,9.74-8.75,19.02-7.75,36.13-16.64,59-1.36,3.51-5.77,10.18-9.86,11.46-9.38,2.93-16.13-.13-27.78,5.92-3.75-1.28-5.76-3.75-6.99-5.98-7.38,3.2-15.45,5.8-24.46,7.57-4.07-.35-7.79-2.57-11.2-6.45-.43-.49-1.24-.5-1.75-.07-.77.66-1.78,1.05-3.02,1.19-4.2-1.49-5.73-4.43-9.99-4.1-8.44,3.18-10.05.62-16.25,3.35-23.11,10.18-41.78-20.18-34.77-39.74,6.54-21.35,14.06-39.45,18.7-68.23,1.36-3.89,9.91-7.66,17.81-12.74,4.29-2.75,9.59-4.17,14.96-3.88,6.76.36,12.41,1.61,16.96,3.74.98.46,2.2.35,3.02-.3s1.64-1.41,2.37-2.19c10.77,4.86,22.82,5.69,36.02,2.92Z"/>
      </g>
      <g>
        <path class="cls-19" d="M56.42,98.43c-8.26,22.97-12.16,47.32-11.46,70.1,1.6,52.54,21.25,96.91,75.51,92.87,16.3-.55,22.34-7.54,33.1-12.69,25.48-10.25,42.94-125.19,22.95-130.35-.57-.15-83.48-30.17-83.48-30.17l-36.6,10.25Z"/>
        <g class="cls-31">
          <g>
            <path class="cls-44" d="M55.37,226.33c7.28,36.7,41.55,35.85,48.96-1.8-14.75,17.07-36.4,15.16-48.96,1.8Z"/>
            <g class="cls-28">
              <path class="cls-40" d="M98.58,259.21c-3.16,3.46-15.45,2.24-27.44-2.73-11.99-4.96-19.15-11.79-15.99-15.24,3.16-3.46,15.45-2.24,27.44,2.73,11.99,4.96,19.15,11.79,15.99,15.24Z"/>
            </g>
          </g>
          <g>
            <path class="cls-39" d="M71.37,153.67c19.69,10.19,31.1,9.18,36.91.57-14.62-9.02-26.66-8.24-36.91-.57Z"/>
            <path class="cls-43" d="M78.41,143.51c-4.16,2.36-6.12,6.14-7.14,10.54,17.4-1.59,29.2-1.49,45.4,6.46.67.33,1.3-.51.81-1.06-7.26-8.09-15.83-11.32-31-17.12-2.6-1-5.62-.2-8.07,1.19Z"/>
          </g>
          <g>
            <path class="cls-39" d="M53.25,151.64c-19.69,10.19-31.1,9.18-36.91.57,14.62-9.02,26.66-8.24,36.91-.57Z"/>
            <path class="cls-43" d="M46.21,141.49c4.16,2.36,6.12,6.14,7.14,10.54-17.4-1.59-29.2-1.49-45.4,6.46-.67.33-1.3-.51-.81-1.06,7.26-8.09,15.83-11.32,31-17.12,2.6-1,5.62-.2,8.07,1.19Z"/>
          </g>
          <ellipse class="cls-37" cx="95.87" cy="192.71" rx="22.4" ry="28.72" transform="translate(-119.27 186.25) rotate(-61.83)"/>
          <g>
            <ellipse class="cls-20" cx="96.41" cy="190.08" rx="21.19" ry="27.47" transform="translate(-116.66 185.34) rotate(-61.83)"/>
            <g class="cls-27">
              <ellipse class="cls-33" cx="107.09" cy="180.98" rx="8.19" ry="9.67" transform="translate(-83.27 270.33) rotate(-84.53)"/>
              <path class="cls-39" d="M90.85,206.66c13.02,6.78,22.97,4.64,27.77-12.49-6.69,13.68-16.21,16.86-27.77,12.49Z"/>
            </g>
            <ellipse class="cls-1" cx="96.41" cy="190.08" rx="21.19" ry="27.47" transform="translate(-116.66 185.34) rotate(-61.83)"/>
          </g>
          <g>
            <ellipse class="cls-20" cx="26.99" cy="189.64" rx="27.47" ry="21.19" transform="translate(-86.33 35.2) rotate(-28.17)"/>
            <g class="cls-30">
              <ellipse class="cls-33" cx="20.04" cy="175.93" rx="9.67" ry="8.19" transform="translate(-16.67 2.71) rotate(-5.47)"/>
              <path class="cls-39" d="M32.55,206.23c-13.02,6.78-22.97,4.64-27.77-12.49,6.69,13.68,16.21,16.86,27.77,12.49Z"/>
            </g>
            <ellipse class="cls-1" cx="26.99" cy="189.64" rx="27.47" ry="21.19" transform="translate(-86.33 35.2) rotate(-28.17)"/>
          </g>
          <g>
            <ellipse class="cls-39" cx="68.61" cy="219.78" rx="3.74" ry="4.25" transform="translate(-161.62 219.61) rotate(-72.62)"/>
            <ellipse class="cls-32" cx="68.8" cy="218.1" rx="3.74" ry="4.25" transform="translate(-159.9 218.62) rotate(-72.62)"/>
          </g>
          <g>
            <ellipse class="cls-39" cx="51.97" cy="217.95" rx="4.82" ry="4.4" transform="translate(-171.55 202.44) rotate(-72.62)"/>
            <ellipse class="cls-32" cx="52.41" cy="216.53" rx="4.82" ry="4.4" transform="translate(-169.89 201.87) rotate(-72.62)"/>
          </g>
          <path class="cls-39" d="M92.82,124.05c10.72,5.25,20.17,12.84,27.55,22.21,6.92,8.78,20.08,16.42,21.43,24.11,8.49,48.43,9.1,77.09-32.36,98.5,7.58,4.06,15.71,2.05,24.74.58,22.54-7.9,43.81-24.45,64.15-47.37,33.29-56.21,32.85-89.53-9.08-139.44-42.44-28.74-142.39-9.73-144.37,44.15,3.91-5.94,9.26-9.54,19.88-10.59,11.92,1.11,19.91,3.86,28.06,7.85Z"/>
        </g>
        <path class="cls-11" d="M56.42,98.43c-8.26,22.97-12.16,47.32-11.46,70.1,1.6,52.54,21.25,96.91,75.51,92.87,16.3-.55,22.34-7.54,33.1-12.69,25.48-10.25,42.94-125.19,22.95-130.35-.57-.15-83.48-30.17-83.48-30.17l-36.6,10.25Z"/>
      </g>
      <g>
        <path class="cls-21" d="M121.78,128.2c.43,13.67,23.81,24.35,25.63,35.14,8.49,50.31,7.22,76.06-34.24,98.3,7.58,4.22,17.59,6.15,26.62,4.63,22.54-8.2,53.38-21.69,73.72-45.5,33.29-58.39,26.31-92.91-15.62-144.75-31.58-22.21-96.68-19.07-128.74,7.05-11.03,8.98-33.73,18.83-20.05,41.06,3.91-6.17,10.65-15.97,21.27-17.06,21.97,2.12,30.59,10.04,51.41,21.13Z"/>
        <g class="cls-29">
          <path class="cls-35" d="M109.87,256.75c20.91,2.29,48.97-19.48,61.51-60.97-1.19,27.15-6.92,39.41-17.82,52.91,22.45-9,42.78-19.14,54.19-33.69,16.65-21.22,19.67-49.73,26.79-80.41,14.12,34.68,10.96,70.66-9.51,107.94l-93.15,43.5c-22.44-7.36-34.55-15.66-22.02-29.29Z"/>
          <path class="cls-35" d="M194.32,223.43c4.8-6.3,8.43-12.68,9.39-19.22-1.51-7.88-4.89-26.1-.14-42.74-2.11,18.8,4.96,37.76,7.16,45.1-5.16,9.07-10.71,13.82-16.41,16.87Z"/>
          <path class="cls-35" d="M204.24,154.96c13.58-27.12-4.36-47.56-44.28-66.25,25.05,22.77,48.6,43.53,44.28,66.25Z"/>
          <path class="cls-35" d="M154.15,86.71c15.59-11.88,38.76-11.1,59.68-8.79l-49.52-27-10.17,35.79Z"/>
          <path class="cls-41" d="M122.04,59.74c77.43,30.01,114.45,73.33,121.41,129.7,6.42-20.13,9.68-43.21-10.95-88.57l-43.97-47.43-66.5,6.3Z"/>
          <path class="cls-35" d="M36.39,107.65c16.16-15.79,30.61-13.06,64.74-10.42-18.36-6.54-38.08-11.84-62.48.05l-2.26,10.37Z"/>
        </g>
        <path class="cls-8" d="M121.78,128.2c.43,13.67,23.81,24.35,25.63,35.14,8.49,50.31,7.22,76.06-34.24,98.3,7.58,4.22,17.59,6.15,26.62,4.63,22.54-8.2,53.38-21.69,73.72-45.5,33.29-58.39,26.31-92.91-15.62-144.75-31.58-22.21-96.68-19.07-128.74,7.05-11.03,8.98-33.73,18.83-20.05,41.06,3.91-6.17,10.65-15.97,21.27-17.06,21.97,2.12,30.59,10.04,51.41,21.13Z"/>
      </g>
      <g>
        <path class="cls-21" d="M133.67,7.9c-6.35,9.1-11.75,16.29-9.01,22.2,4.34-16.03,17.76-17.17,40.75-19.23,4.23-.38,7.33,3.91,5.48,7.62-1.87,3.74-2.34,6.74,14.33,13.05,10.39,3.8,23.79,10.29,21.22,16.84-23.41,2.01-45.14,14-52.28,38.33-10.04-14.46-35.87-24.87-52.28-20.22-9.23-8.77-3.81-17.19-9.19-23.6C75.03,21.89,112.62-2.69,133.67,7.9Z"/>
        <g class="cls-22">
          <path class="cls-35" d="M172.78,16.61c-3.05,9.22-14.97,18.97-23.21,27.78,14.6-8.98,29.76-14.28,46.01-12.57l-22.81-15.21Z"/>
          <path class="cls-35" d="M124.66,30.09c-.64,6.17,1.06,12.26,3.92,18.3-1.91-15.15,5.87-29.04,19.59-42.16-12,6.58-24.93,12.86-23.51,23.86"/>
          <path class="cls-35" d="M142.22,76.18c23.81-16.18,41.74-29.36,56.27-23.42l-42.12,47.75-14.15-24.32Z"/>
          <path class="cls-41" d="M85.82,33.96c2.13-15.82,22.71-28.57,37.91-20.67-6.28,9.39-1.99,18.47.57,24.47,4.43-16.42,14.81-19.1,37.07-21.53,4.09-.45,7.03,3.89,5.19,7.7-1.86,3.85-2.36,6.92,13.67,13.12,10,3.73,22.87,10.16,20.28,16.89l13.78-6.35c-6.75-14.23-20.36-22.14-38.92-25.5l3.99-15.99-40.96,3.24-.19-7.95c-29.21-4.5-50.9.82-52.4,32.57Z"/>
          <path class="cls-35" d="M85.82,33.96c13.32,19.19,39.67,26.33,56.4,42.21l-47.63.4-8.77-42.61Z"/>
        </g>
        <path class="cls-6" d="M133.67,7.9c-6.35,9.1-11.75,16.29-9.01,22.2,4.34-16.03,17.76-17.17,40.75-19.23,4.23-.38,7.33,3.91,5.48,7.62-1.87,3.74-2.34,6.74,14.33,13.05,10.39,3.8,23.79,10.29,21.22,16.84-23.41,2.01-45.14,14-52.28,38.33-10.04-14.46-35.87-24.87-52.28-20.22-9.23-8.77-3.81-17.19-9.19-23.6C75.03,21.89,112.62-2.69,133.67,7.9Z"/>
      </g>
      <path class="cls-34" d="M124.21,105.63c15.86,10.88,31.7,14.56,42.31,26.77,5.73,7.94,4.05,21.68,3.29,34.7-1.54-12.51-2.8-21.82-7.03-32.14-4.37-7.19-24.29-16.32-38.57-29.34Z"/>
    </g>
  </g>
</svg>