<?xml version="1.0" encoding="UTF-8"?>
<svg id="Layer_2" data-name="Layer 2" xmlns="http://www.w3.org/2000/svg" xmlns:xlink="http://www.w3.org/1999/xlink" viewBox="0 0 297.83 434.59">
  <defs>
    <style>
      .cls-1, .cls-2, .cls-3, .cls-4, .cls-5, .cls-6, .cls-7, .cls-8 {
        fill: none;
      }

      .cls-9, .cls-2, .cls-3, .cls-10, .cls-11, .cls-4, .cls-12, .cls-13, .cls-5, .cls-6, .cls-7, .cls-14, .cls-8, .cls-15, .cls-16 {
        stroke-miterlimit: 10;
      }

      .cls-9, .cls-2, .cls-10, .cls-4, .cls-12, .cls-13, .cls-5, .cls-6, .cls-7, .cls-14 {
        stroke-width: 1.18px;
      }

      .cls-9, .cls-17 {
        fill: #f3c0bd;
      }

      .cls-9, .cls-6 {
        stroke: #dba4a2;
      }

      .cls-2, .cls-12 {
        stroke: #ee618b;
      }

      .cls-18, .cls-14 {
        fill: #d7818e;
      }

      .cls-3, .cls-11, .cls-8, .cls-15 {
        stroke-width: 1.84px;
      }

      .cls-3, .cls-15 {
        stroke: #fcc8b6;
      }

      .cls-10, .cls-7 {
        stroke: #e09da7;
      }

      .cls-10, .cls-19 {
        fill: #f4bdc3;
      }

      .cls-11, .cls-20, .cls-16 {
        fill: #1e0a0a;
      }

      .cls-11, .cls-8, .cls-16 {
        stroke: #260f0f;
      }

      .cls-4, .cls-14 {
        stroke: #af6875;
      }

      .cls-21 {
        fill: #c17e84;
      }

      .cls-22, .cls-12 {
        fill: #ee618b;
      }

      .cls-23, .cls-15 {
        fill: #ffe3d7;
      }

      .cls-24 {
        clip-path: url(#clippath-11);
      }

      .cls-25 {
        clip-path: url(#clippath-10);
      }

      .cls-26 {
        clip-path: url(#clippath-13);
      }

      .cls-27 {
        clip-path: url(#clippath-12);
      }

      .cls-28 {
        clip-path: url(#clippath-1);
      }

      .cls-29 {
        clip-path: url(#clippath-3);
      }

      .cls-30 {
        clip-path: url(#clippath-4);
      }

      .cls-31 {
        clip-path: url(#clippath-2);
      }

      .cls-32 {
        clip-path: url(#clippath-7);
      }

      .cls-33 {
        clip-path: url(#clippath-6);
      }

      .cls-34 {
        clip-path: url(#clippath-9);
      }

      .cls-35 {
        clip-path: url(#clippath-8);
      }

      .cls-36 {
        clip-path: url(#clippath-5);
      }

      .cls-37 {
        fill: #e48f94;
      }

      .cls-13, .cls-5 {
        stroke: #8c2323;
      }

      .cls-13, .cls-38 {
        fill: #a4231e;
      }

      .cls-39, .cls-40 {
        fill: #20164c;
      }

      .cls-39, .cls-41 {
        opacity: .15;
      }

      .cls-40 {
        opacity: .2;
      }

      .cls-41 {
        fill: #d7c5ff;
      }

      .cls-16 {
        stroke-width: 1.58px;
      }

      .cls-42 {
        clip-path: url(#clippath);
      }
    </style>
    <clipPath id="clippath">
      <path class="cls-15" d="M46.29,171.94c-37.18-19.61-28.28,61.01,18.83,57.65l-18.83-57.65Z"/>
    </clipPath>
    <clipPath id="clippath-1">
      <path class="cls-11" d="M172,30.62c12.27-25.76-8.75-36.72-11.87-.78-9.01-29.27-22.43-19.2-13.44,2.5l25.31-1.72Z"/>
    </clipPath>
    <clipPath id="clippath-2">
      <path class="cls-9" d="M188.41,347.29c7.03,8.85,4.21,16.55-13.02,22.47-25.59,10.39,11.81,18.14-11.77,33.63l-7.01-8.93c13.83-6.9-16.35-9.76,6.09-23.4l25.72-23.77Z"/>
    </clipPath>
    <clipPath id="clippath-3">
      <path class="cls-9" d="M123.79,373.42l-8.27-2.55c-12.57,11.77,1.38,18.47,19.45,21.3,12.41,1.46,17.33,4.38,15.65,8.45l12.27,1.83c4.01-4.15,2.8-10.16-14.4-14.26-21.73-4.67-37.03-7.82-24.71-14.77Z"/>
    </clipPath>
    <clipPath id="clippath-4">
      <path class="cls-9" d="M103.22,365.74c-9.42,1.23-14.63,4.81-14.84,11.18l-9.34-2.79c-3.67-8.78,4.24-11.93,13.71-14.45l10.47,6.06Z"/>
    </clipPath>
    <clipPath id="clippath-5">
      <path class="cls-9" d="M182.97,349.04c-5.39,15.86,3.76,21.83,12.77,31.64,6.26,12.09-1.01,22.23-21.82,30.39-8.84,2.93-15.94-1.03-29.96,1.32l-2.25-8.42c10.83-10.09,20.64.74,32.22-4.57,11.28-6.07,11.17-16.37.67-22.93-4.68-2.2-7.84-4.04-4.74-13.21l13.12-14.22Z"/>
    </clipPath>
    <clipPath id="clippath-6">
      <path class="cls-9" d="M87.26,357.7c-8.39-1.77-17.94,2.88-19.29,5.49-1.97,3.81,5.08,8.51,8.6,9.26,26.64,4.21,32.85,3.71,34.13,19.63,7.47,4.29,29.49-4.62,35.57,14.7,1.16,5.62.47,11.15-5.45,15.58-7.83,4.79-9.68,8.45-4.63,10.78-7.44-1.83-8.93-5.31-2.97-11.97,5.33-7.57,3.96-14.11-8.36-18.95-7.7-2.64-15.01,4.88-24.73-.62-9.75-7.15,10.58-19.38-22.92-22.85-8.22-.75-26.63,5.28-32-13.81-2.92-10.65,16.68-17.54,29.31-18.89l12.75,11.65Z"/>
    </clipPath>
    <clipPath id="clippath-7">
      <path class="cls-14" d="M174.25,332.88c26.82-.4,38.92,12.01,38.46,26.51-1.37,11.16-14.12,18.81-27.05,14.34l-5.76-9.64c15.74,3.59,21.35-1.41,21.82-10.76.07-1.33-1.08-2.57-2.95-3.18-18.37-5.91-24.43,28.4-55.82,28.04-25.71-.91-47.38-12.17-67.17-28.24-13.82-9.49-8.03-17.65,10.06-24.98.65-.3,12.56-4.79,12.82-3.65,0,0,1.1,4.93,1.1,4.93-39.72,14.82,32.52,13.03,60.62,8,4.53-.81,9.18-1.32,13.88-1.39Z"/>
    </clipPath>
    <clipPath id="clippath-8">
      <path class="cls-13" d="M143,290.78c14.08,1.87,19.91,16.05,9.26,25.07-20.77,15.23-26.56,31.39-39.1,29.67-6.95-.34-3.53-3.93-7.84-6.54-12.14-7.36-17.59-29.35-11.14-36.38,6.16-11.98,14.18-17.32,26.09-12.26,4.73,2.58,13.8-1.47,22.73.44Z"/>
    </clipPath>
    <clipPath id="clippath-9">
      <path class="cls-12" d="M152.57,305.18c-7.38-1.59-14.6,2.32-14.65,10.05,1.17,13.6-4.93,24.84,1.67,26.22,3.32,1.15,3.72-1.77,7.08-2.55,9.46-2.23,23.8-14.91,24.67-20.57,3.68-8.7,2.93-13.61-5.18-12.79-3.53.69-5.11-4.18-13.59-.37Z"/>
    </clipPath>
    <clipPath id="clippath-10">
      <path class="cls-13" d="M168.79,299.65c-10.97,1.15-16.48,8.83-9.14,18.11,14.52,15.81,17.47,31.81,27.24,30.73,5.36,0,3.07-3.66,6.62-5.99,9.99-6.59,16.21-27.72,11.91-34.87-3.62-11.95-9.28-17.53-18.87-13.18-3.87,2.29-10.54-2.89-17.76,5.2Z"/>
    </clipPath>
    <clipPath id="clippath-11">
      <path class="cls-1" d="M174.8,372.51c2.6,4.67,9.19,7.44,14.71,6.19,5.53-1.25,7.9-6.04,5.3-10.71-2.6-4.67-9.19-7.44-14.71-6.19-5.53,1.25-7.9,6.04-5.3,10.71Z"/>
    </clipPath>
    <clipPath id="clippath-12">
      <path class="cls-10" d="M171.76,268.28c-3.22,8.83,7.3,15.94-2.22,18.23-2.69,5.03,9.14,8.31,1.13,10.6,2.87,4.74,1.77,7.41-6.47,6.38-8.22-1.03-16.04-2.28-22.17-4.47-4.81-1.07-5.8-3.18-1.25-6.77-14.94-4.22,1.99-7.39,0-12.59-1.04-3.8,4.39-4.3,1.63-12.22l29.35.84Z"/>
    </clipPath>
    <clipPath id="clippath-13">
      <path class="cls-11" d="M284.03,137.46C264.55,19.61,123.64-14.17,59.17,84.86c-7.17,11.01-11.82,23.46-13.94,36.42-12.47,76.37,6.6,120.79-1.05,142.3-14.28,33.04-36.85,33.12-42.32,79.37,16.25-45.15,34.06-14.92,55.93-70.62.64,29.4-3.61,54.72-22.19,68.12,14.11-8.56,23.9-22.48,30.21-40.73-.05,43.85-35.67,36.27-35.94,87.49,17.68-22.86,44.88-48.63,48.12-83.12.44,15.99-4.91,34.62-13.45,54.71,21.73-27.03,34.15-44.42,28.72-66.68,7.92,20.75,6.64,38.01-12.14,56.35,43.53-12.11,59.34-41.58,53.54-84.58,5.74,34.2,4.76,67.36-5.54,99.05,17.75-28.01,30.1-59.92,35.53-96.87-6.95,52.77,2.08,78.91,19.23,91.53-2.28-38.75,28.58-19.04,14.64-71.52,32.42,24.36-10.82,20.06,8.14,64.51.7,29.53,40.08,32.13,19.4,76.87,33.8-72.91-13.79-50.67,9.95-111.14l-14.56,50.2c20.43-28.05,37.47-58.39,45.35-94.92-2.71,37.6-14.91,58.61-27.86,78.06,32.51-27.47,43.4-65.63,42.35-105.11-1.15-43.02,15.95-73.7,2.72-107.12Z"/>
    </clipPath>
  </defs>
  <g id="mini-mini">
    <g>
      <g>
        <path class="cls-23" d="M46.29,171.94c-37.18-19.61-28.28,61.01,18.83,57.65l-18.83-57.65Z"/>
        <g class="cls-42">
          <path class="cls-40" d="M41.04,164.06c-2.8,27.77-.79,53.75,12.38,75.61l21.87-5.62-21.14-64.16-13.1-5.82Z"/>
        </g>
        <path class="cls-3" d="M46.29,171.94c-37.18-19.61-28.28,61.01,18.83,57.65l-18.83-57.65Z"/>
      </g>
      <g>
        <path class="cls-20" d="M172,30.62c12.27-25.76-8.75-36.72-11.87-.78-9.01-29.27-22.43-19.2-13.44,2.5l25.31-1.72Z"/>
        <g class="cls-28">
          <ellipse class="cls-41" cx="172.63" cy="9.3" rx="11.41" ry="9.3"/>
          <ellipse class="cls-41" cx="146.49" cy="13.84" rx="9.01" ry="6.94"/>
        </g>
        <path class="cls-8" d="M172,30.62c12.27-25.76-8.75-36.72-11.87-.78-9.01-29.27-22.43-19.2-13.44,2.5l25.31-1.72Z"/>
      </g>
      <g>
        <path class="cls-17" d="M188.41,347.29c7.03,8.85,4.21,16.55-13.02,22.47-25.59,10.39,11.81,18.14-11.77,33.63l-7.01-8.93c13.83-6.9-16.35-9.76,6.09-23.4l25.72-23.77Z"/>
        <g class="cls-31">
          <path class="cls-39" d="M164.12,404.29c13-8.54,8.88-15.19,5.57-20.53-3.13-5.06-5.21-8.4,5.68-12.84,8.85-3.05,14.47-6.75,16.7-10.99,2.12-4.04,1.2-8.59-2.73-13.54l-4.39,1.41c6.93,8.72,3.12,15.2-12,20.39l-.15.06c-14.39,5.84-10.83,11.59-7.69,16.66,3.22,5.2,6.27,10.11-4.53,17.2l3.54,2.18Z"/>
        </g>
        <path class="cls-6" d="M188.41,347.29c7.03,8.85,4.21,16.55-13.02,22.47-25.59,10.39,11.81,18.14-11.77,33.63l-7.01-8.93c13.83-6.9-16.35-9.76,6.09-23.4l25.72-23.77Z"/>
      </g>
      <g>
        <path class="cls-17" d="M123.79,373.42l-8.27-2.55c-12.57,11.77,1.38,18.47,19.45,21.3,12.41,1.46,17.33,4.38,15.65,8.45l12.27,1.83c4.01-4.15,2.8-10.16-14.4-14.26-21.73-4.67-37.03-7.82-24.71-14.77Z"/>
        <g class="cls-29">
          <path class="cls-39" d="M117.03,369.28c-18.03,23.91,43.21,16.74,39.28,34.11l-15.89-.93-37.2-16.56c.35-4.99,5.18-10.56,13.81-16.62Z"/>
        </g>
        <path class="cls-6" d="M123.79,373.42l-8.27-2.55c-12.57,11.77,1.38,18.47,19.45,21.3,12.41,1.46,17.33,4.38,15.65,8.45l12.27,1.83c4.01-4.15,2.8-10.16-14.4-14.26-21.73-4.67-37.03-7.82-24.71-14.77Z"/>
      </g>
      <g>
        <path class="cls-17" d="M103.22,365.74c-9.42,1.23-14.63,4.81-14.84,11.18l-9.34-2.79c-3.67-8.78,4.24-11.93,13.71-14.45l10.47,6.06Z"/>
        <g class="cls-30">
          <path class="cls-39" d="M92.75,359.68c-9.99,5.76-11.43,11.5-4.37,17.24l-17.31-2.67c.28-11.95,6.28-18.07,21.69-14.57"/>
        </g>
        <path class="cls-6" d="M103.22,365.74c-9.42,1.23-14.63,4.81-14.84,11.18l-9.34-2.79c-3.67-8.78,4.24-11.93,13.71-14.45l10.47,6.06Z"/>
      </g>
      <g>
        <path class="cls-17" d="M182.97,349.04c-5.39,15.86,3.76,21.83,12.77,31.64,6.26,12.09-1.01,22.23-21.82,30.39-8.84,2.93-15.94-1.03-29.96,1.32l-2.25-8.42c10.83-10.09,20.64.74,32.22-4.57,11.28-6.07,11.17-16.37.67-22.93-4.68-2.2-7.84-4.04-4.74-13.21l13.12-14.22Z"/>
        <g class="cls-36">
          <path class="cls-39" d="M191.22,374.98c28.23,24.35-7.44,45.55-49.52,40.13,0-2.09-5.27-6.39-1.28-5.86,10.88,1.45,67.72,1.12,50.8-34.27Z"/>
        </g>
        <path class="cls-6" d="M182.97,349.04c-5.39,15.86,3.76,21.83,12.77,31.64,6.26,12.09-1.01,22.23-21.82,30.39-8.84,2.93-15.94-1.03-29.96,1.32l-2.25-8.42c10.83-10.09,20.64.74,32.22-4.57,11.28-6.07,11.17-16.37.67-22.93-4.68-2.2-7.84-4.04-4.74-13.21l13.12-14.22Z"/>
      </g>
      <g>
        <path class="cls-17" d="M87.26,357.7c-8.39-1.77-17.94,2.88-19.29,5.49-1.97,3.81,5.08,8.51,8.6,9.26,26.64,4.21,32.85,3.71,34.13,19.63,7.47,4.29,29.49-4.62,35.57,14.7,1.16,5.62.47,11.15-5.45,15.58-7.83,4.79-9.68,8.45-4.63,10.78-7.44-1.83-8.93-5.31-2.97-11.97,5.33-7.57,3.96-14.11-8.36-18.95-7.7-2.64-15.01,4.88-24.73-.62-9.75-7.15,10.58-19.38-22.92-22.85-8.22-.75-26.63,5.28-32-13.81-2.92-10.65,16.68-17.54,29.31-18.89l12.75,11.65Z"/>
        <g class="cls-33">
          <path class="cls-39" d="M136.38,434.59l1.78-2.91c-2.59-.64-4.14-1.46-4.72-2.5-.88-1.56.14-4,3.02-7.26l.1-.13c6.25-8.96,3.15-15.99-9.23-20.9l-.13-.05c-4.25-1.47-8.29-.53-11.86.3-4.31,1-7.72,1.79-12.06-.63-2.69-2.06-2.39-4.72-2.04-7.8.66-5.81,1.48-13.04-22.02-15.5-1.99-.18-4.24-.05-6.62.1-9.01.55-19.22,1.17-23.07-12.64-.79-2.89.27-5.66,3.13-8.23,5.45-4.9,16.21-8.02,23.9-8.85l-.82-3.07c-8.95.96-20.79,4.46-27.08,10.12-3.64,3.27-4.97,6.83-3.96,10.57,4.64,16.65,19.49,15.75,28.36,15.21,2.08-.13,4.05-.25,5.41-.12,19.04,1.99,18.53,6.49,17.89,12.19-.38,3.32-.81,7.08,3.31,10.13l.22.14c6.59,3.76,12.68,2.34,17.13,1.31,3.4-.79,5.6-1.24,7.78-.51,10.17,4.05,12.5,9.43,7.32,16.9-3.66,4.16-4.71,7.27-3.3,9.77,1.09,1.94,3.56,3.36,7.55,4.35Z"/>
        </g>
        <path class="cls-6" d="M87.26,357.7c-8.39-1.77-17.94,2.88-19.29,5.49-1.97,3.81,5.08,8.51,8.6,9.26,26.64,4.21,32.85,3.71,34.13,19.63,7.47,4.29,29.49-4.62,35.57,14.7,1.16,5.62.47,11.15-5.45,15.58-7.83,4.79-9.68,8.45-4.63,10.78-7.44-1.83-8.93-5.31-2.97-11.97,5.33-7.57,3.96-14.11-8.36-18.95-7.7-2.64-15.01,4.88-24.73-.62-9.75-7.15,10.58-19.38-22.92-22.85-8.22-.75-26.63,5.28-32-13.81-2.92-10.65,16.68-17.54,29.31-18.89l12.75,11.65Z"/>
      </g>
      <g>
        <path class="cls-18" d="M174.25,332.88c26.82-.4,38.92,12.01,38.46,26.51-1.37,11.16-14.12,18.81-27.05,14.34l-5.76-9.64c15.74,3.59,21.35-1.41,21.82-10.76.07-1.33-1.08-2.57-2.95-3.18-18.37-5.91-24.43,28.4-55.82,28.04-25.71-.91-47.38-12.17-67.17-28.24-13.82-9.49-8.03-17.65,10.06-24.98.65-.3,12.56-4.79,12.82-3.65,0,0,1.1,4.93,1.1,4.93-39.72,14.82,32.52,13.03,60.62,8,4.53-.81,9.18-1.32,13.88-1.39Z"/>
        <g class="cls-32">
          <path class="cls-40" d="M83.37,323.7c-52.43,14.79-29.59,35.21,8.5,46.74,49.56,15.01,73.43,13.69,89.69-11.99-40.01,31.21-145.81-24.87-98.19-34.76Z"/>
          <path class="cls-40" d="M201.72,353.34c.84,14.5-8.38,18.46-21.2,18.65l-3.38-10.52,24.58-8.13Z"/>
          <path class="cls-40" d="M205.99,373.93c39.07-24.44,2.48-52.58-53.52-42.18,57.92-.81,68.82,26.7,53.52,42.18Z"/>
          <path class="cls-40" d="M99.6,325.57c-23.73,7.47-21.77,15.02,7.81,12.25l-7.81-12.25Z"/>
          <path class="cls-40" d="M154.09,343.14c-13.19,1.91-27.29,1.93-42.1.41,14.83.13,28.91,0,42.1-.41Z"/>
          <path class="cls-40" d="M154.83,345.3c-8.44,2.27-21.17,2.99-40.56,1.3,16.58.55,30.31.18,40.56-1.3Z"/>
          <path class="cls-40" d="M168.75,344.14c-8.93,4.14-24.85,6.82-44.02,8.81,17.45-3.02,32.85-5.98,44.02-8.81Z"/>
          <path class="cls-40" d="M186.34,357.96c-23.06,8.43-37.18,9.58-57.21,4.98,22,1.61,35.66,1.44,57.21-4.98Z"/>
        </g>
        <path class="cls-4" d="M174.25,332.88c26.82-.4,38.92,12.01,38.46,26.51-1.37,11.16-14.12,18.81-27.05,14.34l-5.76-9.64c15.74,3.59,21.35-1.41,21.82-10.76.07-1.33-1.08-2.57-2.95-3.18-18.37-5.91-24.43,28.4-55.82,28.04-25.71-.91-47.38-12.17-67.17-28.24-13.82-9.49-8.03-17.65,10.06-24.98.65-.3,12.56-4.79,12.82-3.65,0,0,1.1,4.93,1.1,4.93-39.72,14.82,32.52,13.03,60.62,8,4.53-.81,9.18-1.32,13.88-1.39Z"/>
      </g>
      <g>
        <path class="cls-38" d="M143,290.78c14.08,1.87,19.91,16.05,9.26,25.07-20.77,15.23-26.56,31.39-39.1,29.67-6.95-.34-3.53-3.93-7.84-6.54-12.14-7.36-17.59-29.35-11.14-36.38,6.16-11.98,14.18-17.32,26.09-12.26,4.73,2.58,13.8-1.47,22.73.44Z"/>
        <g class="cls-35">
          <path class="cls-41" d="M125.75,289.31c13.73,17.73-11.46,20.17-27.1,32.04-1.8,1.37-6.67.75-6.83-.87-1.7-17.39,1.99-30.98,14.93-38.08l18.99,6.92Z"/>
          <path class="cls-41" d="M123.39,285.76c5.56,19.45-19.71,17.39-39.87,26.08-2.32,1-6.74-.44-6.19-2.03,5.86-17.02,15.28-29.45,30.77-34.01l15.28,9.97Z"/>
          <path class="cls-40" d="M159.99,298.28c-23.79,24.96-39.91,35.54-66.41,31.47l10.98,26.8,39.92-20.08c14.71-13.48,17.89-26.05,15.51-38.19Z"/>
        </g>
        <path class="cls-5" d="M143,290.78c14.08,1.87,19.91,16.05,9.26,25.07-20.77,15.23-26.56,31.39-39.1,29.67-6.95-.34-3.53-3.93-7.84-6.54-12.14-7.36-17.59-29.35-11.14-36.38,6.16-11.98,14.18-17.32,26.09-12.26,4.73,2.58,13.8-1.47,22.73.44Z"/>
      </g>
      <g>
        <path class="cls-22" d="M152.57,305.18c-7.38-1.59-14.6,2.32-14.65,10.05,1.17,13.6-4.93,24.84,1.67,26.22,3.32,1.15,3.72-1.77,7.08-2.55,9.46-2.23,23.8-14.91,24.67-20.57,3.68-8.7,2.93-13.61-5.18-12.79-3.53.69-5.11-4.18-13.59-.37Z"/>
        <g class="cls-34">
          <path class="cls-40" d="M164.82,330.31c-3.76-2.08-7.15-4.28-7.08-7.6-8.99-.75-17.25,10.15-29.06,9.03l5.76-29.5,47.12-1.36c5.09,19.27-4.27,25.73-16.74,29.43Z"/>
          <path class="cls-40" d="M165.31,325.56c-3.76-2.08-7.15-4.28-7.08-7.6-8.99-.75-17.25,10.15-29.06,9.03l5.76-29.5,47.12-1.36c5.09,19.27-4.27,25.73-16.74,29.43Z"/>
        </g>
        <path class="cls-2" d="M152.57,305.18c-7.38-1.59-14.6,2.32-14.65,10.05,1.17,13.6-4.93,24.84,1.67,26.22,3.32,1.15,3.72-1.77,7.08-2.55,9.46-2.23,23.8-14.91,24.67-20.57,3.68-8.7,2.93-13.61-5.18-12.79-3.53.69-5.11-4.18-13.59-.37Z"/>
      </g>
      <g>
        <path class="cls-38" d="M168.79,299.65c-10.97,1.15-16.48,8.83-9.14,18.11,14.52,15.81,17.47,31.81,27.24,30.73,5.36,0,3.07-3.66,6.62-5.99,9.99-6.59,16.21-27.72,11.91-34.87-3.62-11.95-9.28-17.53-18.87-13.18-3.87,2.29-10.54-2.89-17.76,5.2Z"/>
        <g class="cls-25">
          <path class="cls-41" d="M185.28,294.98c-7.87,17.66,7.5,20.78,17.33,33.24,1.13,1.43,3.6.9,4.12-.71,5.76-17.64,5.3-31.56-10.09-39.07l-11.36,6.54Z"/>
          <path class="cls-41" d="M190.17,287.11c-7.87,17.66,7.5,20.78,17.33,33.24,1.13,1.43,3.6.9,4.12-.71,5.76-17.64,5.3-31.56-10.09-39.07l-11.36,6.54Z"/>
          <path class="cls-40" d="M154.97,303.43c16.06,24.07,29.14,32.16,48.41,31.99l-10.99,24.2-28.99-20.3c-8.23-10.6-11.23-22.52-8.42-35.89Z"/>
        </g>
        <path class="cls-5" d="M168.79,299.65c-10.97,1.15-16.48,8.83-9.14,18.11,14.52,15.81,17.47,31.81,27.24,30.73,5.36,0,3.07-3.66,6.62-5.99,9.99-6.59,16.21-27.72,11.91-34.87-3.62-11.95-9.28-17.53-18.87-13.18-3.87,2.29-10.54-2.89-17.76,5.2Z"/>
      </g>
      <g class="cls-24">
        <path class="cls-9" d="M182.97,349.04c-5.39,15.86,3.76,21.83,12.77,31.64,6.26,12.09-1.01,22.23-21.82,30.39-8.84,2.93-15.94-1.03-29.96,1.32l-2.25-8.42c10.83-10.09,20.64.74,32.22-4.57,11.28-6.07,11.17-16.37.67-22.93-4.68-2.2-7.84-4.04-4.74-13.21l13.12-14.22Z"/>
      </g>
      <path class="cls-11" d="M288.37,155.87c19.35,96.26,3.52,142.19-24.52,169.36,41.67-59.84,8.83-73.93,11.88-116.24l12.65-53.11Z"/>
      <path class="cls-16" d="M44.16,124.38c-23.81,82.05-14.22,123.53,7.06,149.8-30.08-56-1.51-65.22-.7-102.36l-6.36-47.44Z"/>
      <g>
        <path class="cls-19" d="M171.76,268.28c-3.22,8.83,7.3,15.94-2.22,18.23-2.69,5.03,9.14,8.31,1.13,10.6,2.87,4.74,1.77,7.41-6.47,6.38-8.22-1.03-16.04-2.28-22.17-4.47-4.81-1.07-5.8-3.18-1.25-6.77-14.94-4.22,1.99-7.39,0-12.59-1.04-3.8,4.39-4.3,1.63-12.22l29.35.84Z"/>
        <g class="cls-27">
          <path class="cls-37" d="M162.7,264.56c-1.42,9.71,7.66,18.62.71,21.02-2.98,2.59,7.6,9.7.14,10.9,3.48,2.85,2.93,6.08-1.28,9.68h17.91s-1.49-41.12-1.49-41.12l-15.99-.48Z"/>
          <path class="cls-37" d="M147.68,264.32c2.37,8.22-3.94,13.83-3.79,18.45-7.28,5.72-5.27,6.81.85,8.37-3.77,4.64-4.36,8.84-1.6,12.57l-12.96-7.49,1.41-16.38c1.09-10.76,6.26-16.18,16.09-15.52Z"/>
          <path class="cls-21" d="M138.1,278.22c4.01,4.27,10.89,6.79,18.66,8.77-10,.12-19.38-.24-26.68-2.23l8.02-6.53Z"/>
          <path class="cls-21" d="M135.33,290.41c3.33,1.64,8.53,2.3,14.3,2.64-7.14.75-13.89,1.25-19.32.86l5.02-3.5Z"/>
          <path class="cls-21" d="M177.61,283.59c-6.45,1.16-12.52,1.4-18.13.54,5.02,1.91,10.74,2.69,16.91,2.75l1.22-3.29Z"/>
          <path class="cls-21" d="M179.67,292.08c-6.21,1.61-11.8,4.54-17.52,4.07,5.32,1.55,12.53,1.45,18.67,1.07l-1.15-5.14Z"/>
          <path class="cls-40" d="M128.21,280.14c15.07-5.65,32.69-5.24,52.35,0v-13.71h-52.35v13.71Z"/>
        </g>
        <path class="cls-7" d="M171.76,268.28c-3.22,8.83,7.3,15.94-2.22,18.23-2.69,5.03,9.14,8.31,1.13,10.6,2.87,4.74,1.77,7.41-6.47,6.38-8.22-1.03-16.04-2.28-22.17-4.47-4.81-1.07-5.8-3.18-1.25-6.77-14.94-4.22,1.99-7.39,0-12.59-1.04-3.8,4.39-4.3,1.63-12.22l29.35.84Z"/>
      </g>
      <g>
        <path class="cls-20" d="M284.03,137.46C264.55,19.61,123.64-14.17,59.17,84.86c-7.17,11.01-11.82,23.46-13.94,36.42-12.47,76.37,6.6,120.79-1.05,142.3-14.28,33.04-36.85,33.12-42.32,79.37,16.25-45.15,34.06-14.92,55.93-70.62.64,29.4-3.61,54.72-22.19,68.12,14.11-8.56,23.9-22.48,30.21-40.73-.05,43.85-35.67,36.27-35.94,87.49,17.68-22.86,44.88-48.63,48.12-83.12.44,15.99-4.91,34.62-13.45,54.71,21.73-27.03,34.15-44.42,28.72-66.68,7.92,20.75,6.64,38.01-12.14,56.35,43.53-12.11,59.34-41.58,53.54-84.58,5.74,34.2,4.76,67.36-5.54,99.05,17.75-28.01,30.1-59.92,35.53-96.87-6.95,52.77,2.08,78.91,19.23,91.53-2.28-38.75,28.58-19.04,14.64-71.52,32.42,24.36-10.82,20.06,8.14,64.51.7,29.53,40.08,32.13,19.4,76.87,33.8-72.91-13.79-50.67,9.95-111.14l-14.56,50.2c20.43-28.05,37.47-58.39,45.35-94.92-2.71,37.6-14.91,58.61-27.86,78.06,32.51-27.47,43.4-65.63,42.35-105.11-1.15-43.02,15.95-73.7,2.72-107.12Z"/>
        <g class="cls-26">
          <path class="cls-41" d="M131.7,26.65C50.33,52.24,16.38,94.84,30.92,149.29c13.27-46.95,53.67-87.56,100.77-122.63Z"/>
          <path class="cls-41" d="M188.83,26.65c81.37,25.58,115.32,68.18,100.77,122.63-13.27-46.95-53.67-87.56-100.77-122.63Z"/>
        </g>
        <path class="cls-8" d="M284.03,137.46C264.55,19.61,123.64-14.17,59.17,84.86c-7.17,11.01-11.82,23.46-13.94,36.42-12.47,76.37,6.6,120.79-1.05,142.3-14.28,33.04-36.85,33.12-42.32,79.37,16.25-45.15,34.06-14.92,55.93-70.62.64,29.4-3.61,54.72-22.19,68.12,14.11-8.56,23.9-22.48,30.21-40.73-.05,43.85-35.67,36.27-35.94,87.49,17.68-22.86,44.88-48.63,48.12-83.12.44,15.99-4.91,34.62-13.45,54.71,21.73-27.03,34.15-44.42,28.72-66.68,7.92,20.75,6.64,38.01-12.14,56.35,43.53-12.11,59.34-41.58,53.54-84.58,5.74,34.2,4.76,67.36-5.54,99.05,17.75-28.01,30.1-59.92,35.53-96.87-6.95,52.77,2.08,78.91,19.23,91.53-2.28-38.75,28.58-19.04,14.64-71.52,32.42,24.36-10.82,20.06,8.14,64.51.7,29.53,40.08,32.13,19.4,76.87,33.8-72.91-13.79-50.67,9.95-111.14l-14.56,50.2c20.43-28.05,37.47-58.39,45.35-94.92-2.71,37.6-14.91,58.61-27.86,78.06,32.51-27.47,43.4-65.63,42.35-105.11-1.15-43.02,15.95-73.7,2.72-107.12Z"/>
      </g>
      <path class="cls-20" d="M266.53,201.08c-6.27-5.62-12.52-13.86-18.75-28.75l1.41,7.66c-10.78-14.14-25.43-29.41-31.71-50.39,2.81,15.95,6.82,30.5,14.29,41.01-23.98-5.04-62.16-53.33-65.31-108.27-.95,52.81-25.75,84.16-79.21,110.07,2.61-5.56,4-11.52,4.22-17.88-13.1,8.98-25.64,16.03-36.72,18.34-16.44,66.11,27.43,89.41,14.5,160.17,5.21-53.49-31.12-104.76-24.19-152.71,6.61-59.63,28.11-102.14,68-123.52,24.51-13.13,53.71-14.18,79.41-3.59,56.62,23.34,77.02,76.1,74.05,147.85Z"/>
      <path class="cls-41" d="M144.27,36.48c-25.59,9.02-53.83,39.61-55.55,67.25-.32,5.13-3.07,9.29-3.96,14.25,2.81-9.37,6.8-17.7,11.16-25.5,6.61-11.65,14.14-22.15,22.2-31.62,8.1-9.47,16.65-18.11,26.16-24.37h0Z"/>
      <path class="cls-41" d="M170.33,39.68c37.94,14.19,79.59,63.79,81.83,109.19.42,8.43,4.46,15.2,5.73,23.33-4.07-15.34-9.9-28.93-16.3-41.65-9.7-18.99-20.76-36.08-32.64-51.44-11.94-15.36-24.55-29.36-38.62-39.42h0Z"/>
      <path class="cls-41" d="M165.45,42.16c26.58,30.82,42.06,60.14,39.64,87.05-7.24-25.78-21.8-55.52-39.64-87.05Z"/>
      <path class="cls-41" d="M152.59,39.68c-30.43,32.82-54.04,65.16-45.93,94.27,4.85-22.6,24.22-57.44,45.93-94.27Z"/>
    </g>
  </g>
</svg>