<?xml version="1.0" encoding="UTF-8"?>
<svg id="Layer_2" data-name="Layer 2" xmlns="http://www.w3.org/2000/svg" xmlns:xlink="http://www.w3.org/1999/xlink" viewBox="0 0 506.16 970.09">
  <defs>
    <style>
      .cls-1, .cls-2, .cls-3, .cls-4, .cls-5, .cls-6, .cls-7, .cls-8, .cls-9 {
        fill: none;
      }

      .cls-10, .cls-11 {
        fill: #d7818e;
      }

      .cls-12, .cls-11, .cls-2, .cls-3, .cls-4, .cls-5, .cls-13, .cls-14, .cls-15, .cls-16, .cls-6, .cls-7, .cls-17, .cls-8, .cls-9, .cls-18 {
        stroke-miterlimit: 10;
      }

      .cls-12, .cls-11, .cls-3, .cls-4, .cls-5, .cls-13, .cls-15, .cls-16, .cls-6, .cls-7, .cls-17, .cls-8, .cls-9, .cls-18 {
        stroke-width: 3px;
      }

      .cls-12, .cls-3 {
        stroke: #fcc8b6;
      }

      .cls-12, .cls-19 {
        fill: #ffe3d7;
      }

      .cls-11, .cls-7 {
        stroke: #af6875;
      }

      .cls-2, .cls-14 {
        stroke: #c6c6c6;
        stroke-width: 2px;
      }

      .cls-4, .cls-17 {
        stroke: #dba4a2;
      }

      .cls-5, .cls-16 {
        stroke: #e09da7;
      }

      .cls-20 {
        fill: #c17e84;
      }

      .cls-21, .cls-15 {
        fill: #ee618b;
      }

      .cls-13, .cls-22 {
        fill: #1e0a0a;
      }

      .cls-13, .cls-6 {
        stroke: #260f0f;
      }

      .cls-23 {
        clip-path: url(#clippath-17);
      }

      .cls-24 {
        clip-path: url(#clippath-11);
      }

      .cls-25 {
        clip-path: url(#clippath-16);
      }

      .cls-26 {
        clip-path: url(#clippath-18);
      }

      .cls-27 {
        clip-path: url(#clippath-10);
      }

      .cls-28 {
        clip-path: url(#clippath-15);
      }

      .cls-29 {
        clip-path: url(#clippath-13);
      }

      .cls-30 {
        clip-path: url(#clippath-14);
      }

      .cls-31 {
        clip-path: url(#clippath-12);
      }

      .cls-32 {
        fill: #ddd;
      }

      .cls-33 {
        clip-path: url(#clippath-1);
      }

      .cls-34 {
        clip-path: url(#clippath-3);
      }

      .cls-35 {
        clip-path: url(#clippath-4);
      }

      .cls-36 {
        clip-path: url(#clippath-2);
      }

      .cls-37 {
        clip-path: url(#clippath-7);
      }

      .cls-38 {
        clip-path: url(#clippath-6);
      }

      .cls-39 {
        clip-path: url(#clippath-9);
      }

      .cls-40 {
        clip-path: url(#clippath-8);
      }

      .cls-41 {
        clip-path: url(#clippath-5);
      }

      .cls-14, .cls-42 {
        fill: #f9f9f9;
      }

      .cls-43 {
        fill: #e25550;
      }

      .cls-44 {
        fill: #e48f94;
      }

      .cls-45, .cls-17 {
        fill: #f3c0bd;
      }

      .cls-46 {
        fill: #191918;
      }

      .cls-15, .cls-9 {
        stroke: #ee618b;
      }

      .cls-16, .cls-47 {
        fill: #f4bdc3;
      }

      .cls-48, .cls-18 {
        fill: #a4231e;
      }

      .cls-49 {
        fill: #260f0f;
      }

      .cls-8, .cls-18 {
        stroke: #8c2323;
      }

      .cls-50, .cls-51, .cls-52 {
        fill: #20164c;
      }

      .cls-50, .cls-53 {
        opacity: .15;
      }

      .cls-51 {
        opacity: .2;
      }

      .cls-52 {
        opacity: .3;
      }

      .cls-54 {
        fill: #0c0812;
      }

      .cls-55 {
        fill: #b33c33;
      }

      .cls-53 {
        fill: #d7c5ff;
      }

      .cls-56 {
        fill: #8c2f2f;
      }

      .cls-57 {
        clip-path: url(#clippath);
      }
    </style>
    <clipPath id="clippath">
      <path class="cls-13" d="M226.07,49.87c-19.97-41.95,14.25-59.79,19.34-1.27,14.67-47.66,36.52-31.26,21.88,4.07l-41.22-2.8Z"/>
    </clipPath>
    <clipPath id="clippath-1">
      <path class="cls-17" d="M201.65,690.49c-14.28,28.24-8.56,52.84,26.46,71.75,51.99,33.16-24,57.92,23.92,107.36l14.25-28.49c-28.09-22.04,33.22-31.14-12.38-74.71l-52.24-75.9Z"/>
    </clipPath>
    <clipPath id="clippath-2">
      <path class="cls-17" d="M332.93,773.94l16.79-8.14c25.53,37.57-2.8,58.97-39.52,68.01-25.21,4.67-35.2,13.99-31.8,26.97l-24.93,5.85c-8.15-13.24-5.68-32.44,29.26-45.54,44.15-14.9,75.22-24.96,50.2-47.15Z"/>
    </clipPath>
    <clipPath id="clippath-3">
      <path class="cls-17" d="M374.72,748.56c19.13,3.94,29.71,15.37,30.15,35.68l18.98-8.9c7.46-28.03-8.6-38.1-27.86-46.13l-21.27,19.36Z"/>
    </clipPath>
    <clipPath id="clippath-4">
      <path class="cls-17" d="M212.72,696.08c10.94,50.63-7.63,69.7-25.95,101-12.73,38.61,2.05,70.96,44.33,97.03,17.96,9.34,32.37-3.29,60.87,4.22l4.58-26.88c-22.01-32.22-41.93,2.35-65.45-14.59-22.92-19.39-22.7-52.27-1.36-73.2,9.51-7.01,15.92-12.89,9.63-42.17l-26.65-45.41Z"/>
    </clipPath>
    <clipPath id="clippath-5">
      <path class="cls-17" d="M407.13,723.73c17.05-5.64,36.44,9.2,39.18,17.51,4.01,12.15-10.32,27.18-17.47,29.55-54.13,13.44-66.74,11.83-69.33,62.67-15.18,13.7-59.91-14.76-72.25,46.94-2.35,17.94-.95,35.61,11.07,49.74,15.9,15.3,19.67,26.96,9.41,34.41,15.11-5.83,18.14-16.94,6.04-38.23-10.83-24.17-8.04-45.03,16.98-60.49,15.65-8.42,30.49,15.58,50.25-1.97,19.8-22.81-21.5-61.87,46.56-72.95,16.71-2.4,54.11,16.86,65-44.08,5.94-33.99-33.88-56.01-59.53-60.3l-25.91,37.19Z"/>
    </clipPath>
    <clipPath id="clippath-6">
      <path class="cls-11" d="M230.43,644.51c-54.49-1.29-79.06,38.35-78.14,84.65,2.78,35.64,28.69,60.05,54.95,45.8l11.7-30.78c-31.97,11.46-43.36-4.5-44.34-34.34-.14-4.25,2.2-8.22,5.99-10.14,37.33-18.86,49.62,90.66,113.4,89.51,52.23-2.91,96.26-38.84,136.46-90.16,28.07-30.29,16.31-56.35-20.43-79.74-1.31-.97-25.52-15.29-26.04-11.65,0,0-2.23,15.74-2.23,15.74,80.68,47.32-66.06,41.59-123.14,25.54-9.19-2.58-18.65-4.2-28.2-4.43Z"/>
    </clipPath>
    <clipPath id="clippath-7">
      <path class="cls-13" d="M43.66,223.83C75.38,31.94,304.83-23.07,409.81,138.18c11.67,17.92,19.25,38.2,22.7,59.31,20.3,124.35-10.74,196.69,1.71,231.71,23.25,53.81,60.01,53.94,68.91,129.24-26.46-73.53-55.46-24.3-91.08-115-1.05,47.88,5.88,89.11,36.13,110.93-22.97-13.94-38.92-36.6-49.19-66.32.08,71.41,58.09,59.07,58.52,142.47-28.79-37.23-73.08-79.19-78.36-135.35-.72,26.03,8,56.38,21.9,89.09-35.38-44.01-55.61-72.33-46.76-108.59-12.89,33.79-10.82,61.89,19.77,91.75-70.89-19.71-96.63-67.7-87.18-137.72l-48.84,3.56c11.32,85.93-3.39,128.5-31.31,149.05,3.71-63.1-46.55-31-23.83-116.47-52.8,39.67,17.61,32.67-13.25,105.05-1.15,48.08-65.26,52.33-31.59,125.17-55.04-118.73,22.45-82.52-16.2-180.98l23.7,81.75c-33.27-45.68-61.02-95.09-73.85-154.56-20.21,52.21-13.67,78.92,14.92,113.34-52.94-44.73-40.24-93.1-38.53-157.39,1.87-70.05-25.97-120.01-4.43-174.43Z"/>
    </clipPath>
    <clipPath id="clippath-8">
      <path class="cls-15" d="M274.46,556.07c14.99-5.08,29.65,7.4,29.75,32.09-2.37,43.42,10.02,79.3-3.38,83.72-6.75,3.67-7.56-5.64-14.38-8.16-19.23-7.1-48.34-47.59-50.13-65.66-7.48-27.78-5.96-43.46,10.52-40.82,7.18,2.19,10.38-13.33,27.62-1.17Z"/>
    </clipPath>
    <clipPath id="clippath-9">
      <path class="cls-18" d="M293.92,510.11c-28.6,5.97-40.45,51.24-18.81,80.04,42.18,48.63,53.95,100.2,79.42,94.72,14.11-1.08,7.18-12.55,15.92-20.89,24.66-23.51,35.73-93.7,22.63-116.13-12.51-38.25-28.81-55.29-52.99-39.16-9.61,8.24-28.04-4.68-46.18,1.41Z"/>
    </clipPath>
    <clipPath id="clippath-10">
      <path class="cls-18" d="M241.51,538.4c22.29,3.67,33.47,28.18,18.56,57.83-29.49,50.48-35.48,101.55-55.34,98.11-10.89,0-6.24-11.67-13.44-19.14-20.3-21.03-32.93-88.51-24.2-111.33,7.34-38.16,18.84-55.96,38.34-42.07,7.86,7.3,21.41-9.22,36.08,16.59Z"/>
    </clipPath>
    <clipPath id="clippath-11">
      <path class="cls-12" d="M430.78,279.99c60.55-31.93,46.05,99.35-30.66,93.88l30.66-93.88Z"/>
    </clipPath>
    <clipPath id="clippath-12">
      <path class="cls-16" d="M230.98,433.59c6.54,28.18-14.83,50.9,4.51,58.2,5.47,16.07-18.57,26.52-2.29,33.84-5.84,15.12-3.6,23.65,13.14,20.35,16.69-3.3,32.59-7.28,45.03-14.26,9.78-3.43,11.78-10.14,2.54-21.61,30.36-13.48-4.05-23.6,0-40.2,2.12-12.13-8.92-13.74-3.31-39.01l-59.63,2.69Z"/>
    </clipPath>
    <clipPath id="clippath-13">
      <path class="cls-12" d="M85.66,285.41c-60.55-31.93-46.05,99.35,30.66,93.88l-30.66-93.88Z"/>
    </clipPath>
    <clipPath id="clippath-14">
      <path class="cls-12" d="M84.05,312.68c-21.26,102.73,26.85,144.83,148.52,133.44,69.79.77,125.3-12.88,156.08-51.52,24.65-30.66,32.79-66.65,39.56-116.27-35.07-61.53-77.16-118.03-133.91-165.53-32.2-26.95-80.21-23.02-107.41,8.97-50.93,59.89-86.66,123.2-102.85,190.91Z"/>
    </clipPath>
    <clipPath id="clippath-15">
      <ellipse class="cls-14" cx="329.31" cy="304.31" rx="46.21" ry="54.57" transform="translate(-110.52 391.44) rotate(-53.95)"/>
    </clipPath>
    <clipPath id="clippath-16">
      <ellipse class="cls-14" cx="166.39" cy="324.38" rx="54.57" ry="46.21" transform="translate(-172.25 189.36) rotate(-41.11)"/>
    </clipPath>
    <clipPath id="clippath-17">
      <path class="cls-55" d="M223.28,366.11c-.02,28.05,7.63,52.49,42.74,49.7,21.6-1.72,30.04-27.17,7.63-53.26-10.35,40.45-40.28,24.76-50.37,3.56Z"/>
    </clipPath>
    <clipPath id="clippath-18">
      <ellipse class="cls-1" cx="208.98" cy="763.82" rx="28.62" ry="21.57" transform="translate(-580.78 705.71) rotate(-70.49)"/>
    </clipPath>
  </defs>
  <g id="kuyang">
    <g>
      <g>
        <path class="cls-22" d="M226.07,49.87c-19.97-41.95,14.25-59.79,19.34-1.27,14.67-47.66,36.52-31.26,21.88,4.07l-41.22-2.8Z"/>
        <g class="cls-57">
          <ellipse class="cls-53" cx="225.06" cy="15.14" rx="18.57" ry="15.14"/>
          <ellipse class="cls-53" cx="267.63" cy="22.53" rx="14.67" ry="11.31"/>
        </g>
        <path class="cls-6" d="M226.07,49.87c-19.97-41.95,14.25-59.79,19.34-1.27,14.67-47.66,36.52-31.26,21.88,4.07l-41.22-2.8Z"/>
      </g>
      <g>
        <path class="cls-45" d="M201.65,690.49c-14.28,28.24-8.56,52.84,26.46,71.75,51.99,33.16-24,57.92,23.92,107.36l14.25-28.49c-28.09-22.04,33.22-31.14-12.38-74.71l-52.24-75.9Z"/>
        <g class="cls-33">
          <path class="cls-50" d="M251.01,872.46c-26.41-27.25-18.04-48.48-11.32-65.54,6.37-16.14,10.57-26.82-11.54-40.99-17.98-9.74-29.4-21.55-33.92-35.1-4.31-12.89-2.44-27.43,5.54-43.21l8.92,4.51c-14.07,27.83-6.33,48.52,24.37,65.09l.31.18c29.24,18.65,22,37,15.62,53.19-6.55,16.6-12.73,32.29,9.2,54.91l-7.18,6.96Z"/>
        </g>
        <path class="cls-4" d="M201.65,690.49c-14.28,28.24-8.56,52.84,26.46,71.75,51.99,33.16-24,57.92,23.92,107.36l14.25-28.49c-28.09-22.04,33.22-31.14-12.38-74.71l-52.24-75.9Z"/>
      </g>
      <g>
        <path class="cls-45" d="M332.93,773.94l16.79-8.14c25.53,37.57-2.8,58.97-39.52,68.01-25.21,4.67-35.2,13.99-31.8,26.97l-24.93,5.85c-8.15-13.24-5.68-32.44,29.26-45.54,44.15-14.9,75.22-24.96,50.2-47.15Z"/>
        <g class="cls-36">
          <path class="cls-50" d="M346.67,760.71c36.64,76.33-87.77,53.43-79.8,108.89l32.28-2.97,75.57-52.88c-.72-15.94-10.52-33.71-28.05-53.05Z"/>
        </g>
        <path class="cls-4" d="M332.93,773.94l16.79-8.14c25.53,37.57-2.8,58.97-39.52,68.01-25.21,4.67-35.2,13.99-31.8,26.97l-24.93,5.85c-8.15-13.24-5.68-32.44,29.26-45.54,44.15-14.9,75.22-24.96,50.2-47.15Z"/>
      </g>
      <g>
        <path class="cls-45" d="M374.72,748.56c19.13,3.94,29.71,15.37,30.15,35.68l18.98-8.9c7.46-28.03-8.6-38.1-27.86-46.13l-21.27,19.36Z"/>
        <g class="cls-34">
          <path class="cls-50" d="M395.98,729.2c20.29,18.38,23.22,36.72,8.88,55.04l35.17-8.52c-.57-38.15-12.75-57.69-44.06-46.52"/>
        </g>
        <path class="cls-4" d="M374.72,748.56c19.13,3.94,29.71,15.37,30.15,35.68l18.98-8.9c7.46-28.03-8.6-38.1-27.86-46.13l-21.27,19.36Z"/>
      </g>
      <g>
        <path class="cls-45" d="M212.72,696.08c10.94,50.63-7.63,69.7-25.95,101-12.73,38.61,2.05,70.96,44.33,97.03,17.96,9.34,32.37-3.29,60.87,4.22l4.58-26.88c-22.01-32.22-41.93,2.35-65.45-14.59-22.92-19.39-22.7-52.27-1.36-73.2,9.51-7.01,15.92-12.89,9.63-42.17l-26.65-45.41Z"/>
        <g class="cls-35">
          <path class="cls-50" d="M195.95,778.89c-57.35,77.75,15.11,145.41,100.6,128.11,0-6.66,10.71-20.39,2.6-18.7-22.11,4.62-137.57,3.57-103.2-109.41Z"/>
        </g>
        <path class="cls-4" d="M212.72,696.08c10.94,50.63-7.63,69.7-25.95,101-12.73,38.61,2.05,70.96,44.33,97.03,17.96,9.34,32.37-3.29,60.87,4.22l4.58-26.88c-22.01-32.22-41.93,2.35-65.45-14.59-22.92-19.39-22.7-52.27-1.36-73.2,9.51-7.01,15.92-12.89,9.63-42.17l-26.65-45.41Z"/>
      </g>
      <g>
        <path class="cls-45" d="M407.13,723.73c17.05-5.64,36.44,9.2,39.18,17.51,4.01,12.15-10.32,27.18-17.47,29.55-54.13,13.44-66.74,11.83-69.33,62.67-15.18,13.7-59.91-14.76-72.25,46.94-2.35,17.94-.95,35.61,11.07,49.74,15.9,15.3,19.67,26.96,9.41,34.41,15.11-5.83,18.14-16.94,6.04-38.23-10.83-24.17-8.04-45.03,16.98-60.49,15.65-8.42,30.49,15.58,50.25-1.97,19.8-22.81-21.5-61.87,46.56-72.95,16.71-2.4,54.11,16.86,65-44.08,5.94-33.99-33.88-56.01-59.53-60.3l-25.91,37.19Z"/>
        <g class="cls-41">
          <path class="cls-50" d="M307.35,969.2l-3.61-9.27c5.27-2.05,8.4-4.66,9.58-7.97,1.78-4.99-.28-12.79-6.13-23.18l-.21-.42c-12.7-28.61-6.4-51.06,18.74-66.73l.26-.15c8.64-4.69,16.85-1.7,24.09.94,8.75,3.19,15.68,5.72,24.5-2.03,5.47-6.58,4.86-15.08,4.15-24.9-1.34-18.55-3.01-41.63,44.74-49.48,4.03-.59,8.61-.15,13.45.32,18.3,1.75,39.05,3.74,46.86-40.35,1.6-9.22-.54-18.07-6.36-26.28-11.08-15.64-32.93-25.6-48.55-28.24l1.66-9.81c18.17,3.07,42.23,14.25,55.02,32.3,7.4,10.45,10.1,21.81,8.04,33.75-9.42,53.16-39.59,50.27-57.61,48.54-4.23-.41-8.23-.79-10.98-.39-38.69,6.36-37.65,20.73-36.33,38.93.77,10.6,1.64,22.62-6.73,32.35l-.45.46c-13.38,12-25.76,7.48-34.8,4.19-6.9-2.52-11.38-3.95-15.81-1.61-20.66,12.94-25.39,30.09-14.87,53.95,7.44,13.28,9.57,23.2,6.71,31.2-2.21,6.19-7.23,10.73-15.34,13.89Z"/>
        </g>
        <path class="cls-4" d="M407.13,723.73c17.05-5.64,36.44,9.2,39.18,17.51,4.01,12.15-10.32,27.18-17.47,29.55-54.13,13.44-66.74,11.83-69.33,62.67-15.18,13.7-59.91-14.76-72.25,46.94-2.35,17.94-.95,35.61,11.07,49.74,15.9,15.3,19.67,26.96,9.41,34.41,15.11-5.83,18.14-16.94,6.04-38.23-10.83-24.17-8.04-45.03,16.98-60.49,15.65-8.42,30.49,15.58,50.25-1.97,19.8-22.81-21.5-61.87,46.56-72.95,16.71-2.4,54.11,16.86,65-44.08,5.94-33.99-33.88-56.01-59.53-60.3l-25.91,37.19Z"/>
      </g>
      <g>
        <path class="cls-10" d="M230.43,644.51c-54.49-1.29-79.06,38.35-78.14,84.65,2.78,35.64,28.69,60.05,54.95,45.8l11.7-30.78c-31.97,11.46-43.36-4.5-44.34-34.34-.14-4.25,2.2-8.22,5.99-10.14,37.33-18.86,49.62,90.66,113.4,89.51,52.23-2.91,96.26-38.84,136.46-90.16,28.07-30.29,16.31-56.35-20.43-79.74-1.31-.97-25.52-15.29-26.04-11.65,0,0-2.23,15.74-2.23,15.74,80.68,47.32-66.06,41.59-123.14,25.54-9.19-2.58-18.65-4.2-28.2-4.43Z"/>
        <g class="cls-38">
          <path class="cls-51" d="M415.06,615.18c106.51,47.22,60.1,112.4-17.27,149.23-100.67,47.93-149.17,43.72-182.21-38.27,81.27,99.63,296.21-79.41,199.48-110.96Z"/>
          <path class="cls-51" d="M174.61,709.82c-1.71,46.29,17.02,58.94,43.06,59.54l6.87-33.58-49.93-25.96Z"/>
          <path class="cls-51" d="M165.95,775.55c-79.38-78.02-5.03-167.86,108.72-134.67-117.66-2.59-139.8,85.22-108.72,134.67Z"/>
          <path class="cls-51" d="M382.08,621.17c48.2,23.86,44.22,47.95-15.87,39.1l15.87-39.1Z"/>
          <path class="cls-51" d="M271.38,677.24c26.79,6.09,55.43,6.17,85.53,1.32-30.13.41-58.73.01-85.53-1.32Z"/>
          <path class="cls-51" d="M269.88,684.14c17.16,7.23,43.01,9.53,82.4,4.15-33.69,1.76-61.56.59-82.4-4.15Z"/>
          <path class="cls-51" d="M241.59,680.43c18.15,13.22,50.48,21.77,89.44,28.14-35.45-9.63-66.73-19.08-89.44-28.14Z"/>
          <path class="cls-51" d="M205.86,724.58c46.85,26.91,75.52,30.6,116.22,15.89-44.69,5.14-72.45,4.58-116.22-15.89Z"/>
        </g>
        <path class="cls-7" d="M230.43,644.51c-54.49-1.29-79.06,38.35-78.14,84.65,2.78,35.64,28.69,60.05,54.95,45.8l11.7-30.78c-31.97,11.46-43.36-4.5-44.34-34.34-.14-4.25,2.2-8.22,5.99-10.14,37.33-18.86,49.62,90.66,113.4,89.51,52.23-2.91,96.26-38.84,136.46-90.16,28.07-30.29,16.31-56.35-20.43-79.74-1.31-.97-25.52-15.29-26.04-11.65,0,0-2.23,15.74-2.23,15.74,80.68,47.32-66.06,41.59-123.14,25.54-9.19-2.58-18.65-4.2-28.2-4.43Z"/>
      </g>
      <g>
        <path class="cls-22" d="M43.66,223.83C75.38,31.94,304.83-23.07,409.81,138.18c11.67,17.92,19.25,38.2,22.7,59.31,20.3,124.35-10.74,196.69,1.71,231.71,23.25,53.81,60.01,53.94,68.91,129.24-26.46-73.53-55.46-24.3-91.08-115-1.05,47.88,5.88,89.11,36.13,110.93-22.97-13.94-38.92-36.6-49.19-66.32.08,71.41,58.09,59.07,58.52,142.47-28.79-37.23-73.08-79.19-78.36-135.35-.72,26.03,8,56.38,21.9,89.09-35.38-44.01-55.61-72.33-46.76-108.59-12.89,33.79-10.82,61.89,19.77,91.75-70.89-19.71-96.63-67.7-87.18-137.72l-48.84,3.56c11.32,85.93-3.39,128.5-31.31,149.05,3.71-63.1-46.55-31-23.83-116.47-52.8,39.67,17.61,32.67-13.25,105.05-1.15,48.08-65.26,52.33-31.59,125.17-55.04-118.73,22.45-82.52-16.2-180.98l23.7,81.75c-33.27-45.68-61.02-95.09-73.85-154.56-20.21,52.21-13.67,78.92,14.92,113.34-52.94-44.73-40.24-93.1-38.53-157.39,1.87-70.05-25.97-120.01-4.43-174.43Z"/>
        <g class="cls-37">
          <path class="cls-53" d="M291.71,43.4c132.5,41.66,187.78,111.03,164.1,199.69-21.61-76.44-87.4-142.59-164.1-199.69Z"/>
          <path class="cls-53" d="M198.68,43.4C66.18,85.06,10.9,154.43,34.58,243.1,56.19,166.65,121.98,100.51,198.68,43.4Z"/>
        </g>
        <path class="cls-6" d="M43.66,223.83C75.38,31.94,304.83-23.07,409.81,138.18c11.67,17.92,19.25,38.2,22.7,59.31,20.3,124.35-10.74,196.69,1.71,231.71,23.25,53.81,60.01,53.94,68.91,129.24-26.46-73.53-55.46-24.3-91.08-115-1.05,47.88,5.88,89.11,36.13,110.93-22.97-13.94-38.92-36.6-49.19-66.32.08,71.41,58.09,59.07,58.52,142.47-28.79-37.23-73.08-79.19-78.36-135.35-.72,26.03,8,56.38,21.9,89.09-35.38-44.01-55.61-72.33-46.76-108.59-12.89,33.79-10.82,61.89,19.77,91.75-70.89-19.71-96.63-67.7-87.18-137.72l-48.84,3.56c11.32,85.93-3.39,128.5-31.31,149.05,3.71-63.1-46.55-31-23.83-116.47-52.8,39.67,17.61,32.67-13.25,105.05-1.15,48.08-65.26,52.33-31.59,125.17-55.04-118.73,22.45-82.52-16.2-180.98l23.7,81.75c-33.27-45.68-61.02-95.09-73.85-154.56-20.21,52.21-13.67,78.92,14.92,113.34-52.94-44.73-40.24-93.1-38.53-157.39,1.87-70.05-25.97-120.01-4.43-174.43Z"/>
      </g>
      <g>
        <path class="cls-21" d="M274.46,556.07c14.99-5.08,29.65,7.4,29.75,32.09-2.37,43.42,10.02,79.3-3.38,83.72-6.75,3.67-7.56-5.64-14.38-8.16-19.23-7.1-48.34-47.59-50.13-65.66-7.48-27.78-5.96-43.46,10.52-40.82,7.18,2.19,10.38-13.33,27.62-1.17Z"/>
        <g class="cls-40">
          <path class="cls-51" d="M249.58,636.3c7.64-6.65,14.52-13.68,14.39-24.26,18.27-2.39,35.03,32.4,59.03,28.84l-11.7-94.19-95.73-4.35c-10.33,61.52,8.68,82.14,34.01,93.96Z"/>
          <path class="cls-51" d="M248.59,621.14c7.64-6.65,14.52-13.68,14.39-24.26,18.27-2.39,35.03,32.4,59.03,28.84l-11.7-94.19-95.73-4.35c-10.33,61.52,8.68,82.14,34.01,93.96Z"/>
        </g>
        <path class="cls-9" d="M274.46,556.07c14.99-5.08,29.65,7.4,29.75,32.09-2.37,43.42,10.02,79.3-3.38,83.72-6.75,3.67-7.56-5.64-14.38-8.16-19.23-7.1-48.34-47.59-50.13-65.66-7.48-27.78-5.96-43.46,10.52-40.82,7.18,2.19,10.38-13.33,27.62-1.17Z"/>
      </g>
      <g>
        <path class="cls-48" d="M293.92,510.11c-28.6,5.97-40.45,51.24-18.81,80.04,42.18,48.63,53.95,100.2,79.42,94.72,14.11-1.08,7.18-12.55,15.92-20.89,24.66-23.51,35.73-93.7,22.63-116.13-12.51-38.25-28.81-55.29-52.99-39.16-9.61,8.24-28.04-4.68-46.18,1.41Z"/>
        <g class="cls-39">
          <path class="cls-53" d="M328.94,505.38c-27.89,56.61,23.27,64.38,55.05,102.27,3.66,4.36,13.54,2.4,13.87-2.78,3.45-55.51-4.05-98.92-30.33-121.57l-38.59,22.08Z"/>
          <path class="cls-53" d="M333.74,494.06c-11.3,62.09,40.04,55.53,80.99,83.25,4.71,3.19,13.68-1.41,12.57-6.48-11.91-54.32-31.03-94.01-62.52-108.59l-31.05,31.81Z"/>
          <path class="cls-51" d="M259.4,534.02c48.32,79.67,81.07,113.47,134.92,100.47l-22.31,85.57-81.11-64.1c-29.88-43.02-36.34-83.17-31.5-121.94Z"/>
        </g>
        <path class="cls-8" d="M293.92,510.11c-28.6,5.97-40.45,51.24-18.81,80.04,42.18,48.63,53.95,100.2,79.42,94.72,14.11-1.08,7.18-12.55,15.92-20.89,24.66-23.51,35.73-93.7,22.63-116.13-12.51-38.25-28.81-55.29-52.99-39.16-9.61,8.24-28.04-4.68-46.18,1.41Z"/>
      </g>
      <g>
        <path class="cls-48" d="M241.51,538.4c22.29,3.67,33.47,28.18,18.56,57.83-29.49,50.48-35.48,101.55-55.34,98.11-10.89,0-6.24-11.67-13.44-19.14-20.3-21.03-32.93-88.51-24.2-111.33,7.34-38.16,18.84-55.96,38.34-42.07,7.86,7.3,21.41-9.22,36.08,16.59Z"/>
        <g class="cls-27">
          <path class="cls-53" d="M208.01,523.5c15.98,56.39-15.24,66.34-35.2,106.11-2.3,4.58-7.31,2.87-8.38-2.27-11.7-56.32-10.77-100.75,20.5-124.72l23.07,20.88Z"/>
          <path class="cls-53" d="M198.09,498.39c15.98,56.39-15.24,66.34-35.2,106.11-2.3,4.58-7.31,2.87-8.38-2.27-11.7-56.32-10.77-100.75,20.5-124.72l23.07,20.88Z"/>
          <path class="cls-51" d="M269.6,550.49c-32.63,76.84-59.19,102.66-98.34,102.12l22.33,77.27,58.9-64.81c16.72-33.85,22.82-71.9,17.11-114.59Z"/>
        </g>
        <path class="cls-8" d="M241.51,538.4c22.29,3.67,33.47,28.18,18.56,57.83-29.49,50.48-35.48,101.55-55.34,98.11-10.89,0-6.24-11.67-13.44-19.14-20.3-21.03-32.93-88.51-24.2-111.33,7.34-38.16,18.84-55.96,38.34-42.07,7.86,7.3,21.41-9.22,36.08,16.59Z"/>
      </g>
      <g>
        <path class="cls-19" d="M430.78,279.99c60.55-31.93,46.05,99.35-30.66,93.88l30.66-93.88Z"/>
        <g class="cls-24">
          <path class="cls-51" d="M439.33,267.16c4.56,45.21,1.29,87.53-20.15,123.12l-35.62-9.16,34.43-104.48,21.34-9.48Z"/>
        </g>
        <path class="cls-3" d="M430.78,279.99c60.55-31.93,46.05,99.35-30.66,93.88l30.66-93.88Z"/>
      </g>
      <g>
        <path class="cls-47" d="M230.98,433.59c6.54,28.18-14.83,50.9,4.51,58.2,5.47,16.07-18.57,26.52-2.29,33.84-5.84,15.12-3.6,23.65,13.14,20.35,16.69-3.3,32.59-7.28,45.03-14.26,9.78-3.43,11.78-10.14,2.54-21.61,30.36-13.48-4.05-23.6,0-40.2,2.12-12.13-8.92-13.74-3.31-39.01l-59.63,2.69Z"/>
        <g class="cls-31">
          <path class="cls-44" d="M249.38,421.7c2.89,31-15.56,59.45-1.44,67.09,6.06,8.25-15.45,30.98-.29,34.8-7.07,9.08-5.95,19.43,2.6,30.91h-36.38s3.03-131.28,3.03-131.28l32.48-1.53Z"/>
          <path class="cls-44" d="M279.88,420.93c-4.81,26.26,8.01,44.14,7.7,58.9,14.78,18.25,10.7,21.74-1.72,26.71,7.67,14.81,8.86,28.21,3.24,40.14l26.33-23.92-2.86-52.28c-2.22-34.34-12.72-51.66-32.69-49.55Z"/>
          <path class="cls-20" d="M299.35,465.33c-8.14,13.64-22.13,21.67-37.91,27.99,20.31.37,39.38-.78,54.19-7.12l-16.28-20.86Z"/>
          <path class="cls-20" d="M304.98,504.24c-6.76,5.25-17.33,7.33-29.05,8.44,14.5,2.4,28.22,3.98,39.26,2.75l-10.2-11.19Z"/>
          <path class="cls-20" d="M219.1,482.45c13.1,3.71,25.43,4.47,36.83,1.72-10.2,6.1-21.82,8.6-34.35,8.78l-2.48-10.49Z"/>
          <path class="cls-20" d="M214.9,509.57c12.61,5.13,23.96,14.48,35.6,13-10.81,4.94-25.46,4.62-37.93,3.42l2.33-16.41Z"/>
          <path class="cls-51" d="M319.44,471.43c-30.61-18.03-66.41-16.72-106.35,0v-43.76h106.35v43.76Z"/>
        </g>
        <path class="cls-5" d="M230.98,433.59c6.54,28.18-14.83,50.9,4.51,58.2,5.47,16.07-18.57,26.52-2.29,33.84-5.84,15.12-3.6,23.65,13.14,20.35,16.69-3.3,32.59-7.28,45.03-14.26,9.78-3.43,11.78-10.14,2.54-21.61,30.36-13.48-4.05-23.6,0-40.2,2.12-12.13-8.92-13.74-3.31-39.01l-59.63,2.69Z"/>
      </g>
      <g>
        <path class="cls-19" d="M85.66,285.41c-60.55-31.93-46.05,99.35,30.66,93.88l-30.66-93.88Z"/>
        <g class="cls-29">
          <path class="cls-51" d="M70.92,271.91c-3.27,42.83-2.8,83.16,10.04,115.25l34.86,1.66-9.42-119.07-35.48,2.16Z"/>
        </g>
        <path class="cls-3" d="M85.66,285.41c-60.55-31.93-46.05,99.35,30.66,93.88l-30.66-93.88Z"/>
      </g>
      <g>
        <path class="cls-19" d="M84.05,312.68c-21.26,102.73,26.85,144.83,148.52,133.44,69.79.77,125.3-12.88,156.08-51.52,24.65-30.66,32.79-66.65,39.56-116.27-35.07-61.53-77.16-118.03-133.91-165.53-32.2-26.95-80.21-23.02-107.41,8.97-50.93,59.89-86.66,123.2-102.85,190.91Z"/>
        <g class="cls-30">
          <path class="cls-43" d="M396.04,416.86c-6.9,16.82-19.41,18.04-30.39,6.28-10.98-11.76-34.95-13.02-28.05-29.84,6.9-16.82,29.82-21.7,46.98-18.76,17.15,2.93,18.36,25.51,11.47,42.33Z"/>
          <ellipse class="cls-43" cx="127.29" cy="423.55" rx="35.41" ry="26.9" transform="translate(-63.55 24.58) rotate(-8.84)"/>
          <ellipse class="cls-51" cx="329.31" cy="313.04" rx="46.21" ry="54.57" transform="translate(-117.58 395.04) rotate(-53.95)"/>
          <ellipse class="cls-51" cx="166.86" cy="330.45" rx="53.79" ry="47.91" transform="translate(-162.53 161.5) rotate(-36.05)"/>
          <g>
            <ellipse class="cls-42" cx="329.31" cy="304.31" rx="46.21" ry="54.57" transform="translate(-110.52 391.44) rotate(-53.95)"/>
            <g class="cls-28">
              <ellipse class="cls-32" cx="330.59" cy="339.62" rx="30.02" ry="45.54" transform="translate(-31.5 645.43) rotate(-85.95)"/>
              <ellipse class="cls-46" cx="291.94" cy="284.2" rx="16.6" ry="14.5" transform="translate(-89.18 428.24) rotate(-64.93)"/>
            </g>
            <ellipse class="cls-2" cx="329.31" cy="304.31" rx="46.21" ry="54.57" transform="translate(-110.52 391.44) rotate(-53.95)"/>
          </g>
          <g>
            <ellipse class="cls-42" cx="166.39" cy="324.38" rx="54.57" ry="46.21" transform="translate(-172.25 189.36) rotate(-41.11)"/>
            <g class="cls-25">
              <path class="cls-32" d="M133.05,381.14c9.29,14.07,37.06,12.11,62.01-4.37,24.96-16.48,38.46-36.16,29.17-50.23-9.29-14.07-40.05-13.3-65,3.18-24.96,16.48-35.48,37.36-26.18,51.42Z"/>
              <ellipse class="cls-46" cx="189.01" cy="289.96" rx="16.6" ry="14.5" transform="translate(-149.19 216.34) rotate(-44.62)"/>
            </g>
            <ellipse class="cls-2" cx="166.39" cy="324.38" rx="54.57" ry="46.21" transform="translate(-172.25 189.36) rotate(-41.11)"/>
          </g>
          <path class="cls-56" d="M272.42,349.78c5.38,14.54,6.92,20.55,23.66,22.71-16.12,7.26-27.43-7.28-23.66-22.71h0Z"/>
          <path class="cls-51" d="M283.06,239.66c10.75-10.18,24.09-13.93,36.51-4.86-7.99,11.12-21.44,13.66-36.51,4.86Z"/>
          <path class="cls-51" d="M153.86,249.49c12.22-8.36,25.98-9.96,36.82.96-9.64,9.72-23.33,10.11-36.82-.96Z"/>
          <path class="cls-54" d="M278.78,231.34c-1.06,6.96,2.54,12.67,9.89,11.01,6.46-7.42,14.7-12.56,30.91-7.55-11.43-13.11-21.87-15.84-31.91-13.04-4.66,1.3-8.2,5.05-8.88,9.58Z"/>
          <path class="cls-54" d="M194.02,239.28c2.27,6.49-.54,12.62-8.48,12.35-7.97-5.95-17.43-9.39-33.51-1.64,9.75-14.65,20.18-19.16,31.13-18.29,5.08.4,9.39,3.36,10.87,7.58Z"/>
          <g>
            <path class="cls-55" d="M223.28,366.11c-.02,28.05,7.63,52.49,42.74,49.7,21.6-1.72,30.04-27.17,7.63-53.26-10.35,40.45-40.28,24.76-50.37,3.56Z"/>
            <g class="cls-23">
              <path class="cls-52" d="M228.74,412.16c34.62,31.14,55.74,22.01,66.98-16.67-25.01-3.4-47.04,3.13-66.98,16.67Z"/>
            </g>
          </g>
          <path class="cls-51" d="M68.59,344.4c10.69-8.74,18.9-24.59,29.51-47.75l-.68,10.9c20.75-19.68,41.15-46.47,51.22-79.7-4.8,24.8-11.63,47.42-24.36,63.77,40.88-7.83,105.96-82.92,111.33-168.35,1.61,82.12,43.9,130.86,135.03,171.15-4.44-8.64-6.82-17.91-7.19-27.79,22.34,13.96,43.72,24.93,62.59,28.52l-4.58-28.77c-47.57-78.2-109.92-138.93-188.52-180.47-81.07,63.03-128.69,156.87-164.35,258.49Z"/>
        </g>
        <path class="cls-3" d="M84.05,312.68c-21.26,102.73,26.85,144.83,148.52,133.44,69.79.77,125.3-12.88,156.08-51.52,24.65-30.66,32.79-66.65,39.56-116.27-35.07-61.53-77.16-118.03-133.91-165.53-32.2-26.95-80.21-23.02-107.41,8.97-50.93,59.89-86.66,123.2-102.85,190.91Z"/>
      </g>
      <path class="cls-22" d="M72.15,327.43c10.21-9.16,20.39-22.56,30.53-46.81l-2.29,12.47c17.55-23.02,41.41-47.89,51.64-82.05-4.58,25.97-11.11,49.66-23.27,66.78,39.05-8.2,101.22-86.84,106.35-176.31,1.54,86,41.93,137.05,128.99,179.24-4.24-9.05-6.51-18.76-6.87-29.11,21.34,14.62,41.76,26.1,59.79,29.87,26.77,107.65-44.66,145.6-23.62,260.82-8.48-87.1,50.68-170.58,39.39-248.67-10.76-97.1-45.77-166.33-110.73-201.13-39.9-21.38-87.46-23.1-129.31-5.85-92.19,38-125.41,123.92-120.59,240.76Z"/>
      <path class="cls-49" d="M72.15,327.43c14.59-13.16,23.81-30.98,31.15-48.93,0,0-.39,2.16-.39,2.16l-2.24,12.48-.52-.23c4.92-6.49,10.04-12.81,15.07-19.2,10.04-12.74,19.71-25.89,27.06-40.38,3.67-7.22,6.75-14.74,9.06-22.49l1.38.33c-4.2,23.33-9.57,47.32-23.24,67.18,0,0-.92-1.4-.92-1.4,17.38-4.32,31.45-17,43.56-29.69,24.22-26.42,41.62-58.88,52.09-93.07,5.26-17.13,8.45-34.88,9.56-52.74l2.63.05c.42,38.81,10.57,78.36,35.15,109.01,24.15,30.85,58.35,51.88,93.18,68.9,0,0-2.01,1.99-2.01,1.99-4.37-9.28-6.66-19.49-6.99-29.69l-.09-2.91,2.4,1.64c18.34,12.31,37.49,24.71,59.24,29.7,0,0,.88.19.88.19,2.72,11.1,4.73,22.4,5.65,33.81,1.93,22.23-.83,44.71-6.53,66.2-5.6,21.45-13.5,42.19-18.98,63.62-5.57,21.31-8.45,43.34-7.47,65.37.44,11,1.73,21.96,3.62,32.82l-2.17.3c-6.24-67.49,26.63-129.66,38.33-194.65,1.12-6.28,2.06-13.33,2.57-19.7.35-3.58.54-8.82.64-12.4.02-1.55-.09-5.84-.08-7.45-.11-1.78-.32-5.72-.45-7.44-.16-1.55-1.2-10.6-1.39-12.36-2.31-19.77-5.77-39.43-10.85-58.69,5.25,19.22,8.88,38.86,11.36,58.62.24,1.82,1.29,10.74,1.5,12.37.17,1.73.37,5.69.52,7.47.07,1.63.09,5.9.15,7.48-.02,1.64-.16,5.81-.2,7.48-3.71,61.65-33.53,118.24-39.62,179.49-1.31,13.15-1.54,26.42-.28,39.55l-2.17.3c-1.95-10.94-3.31-22-3.81-33.12-1.11-22.24,1.71-44.6,7.32-66.11,5.45-21.48,13.32-42.26,18.88-63.66,5.61-21.27,8.29-43.35,6.35-65.3-.91-10.95-2.82-21.8-5.42-32.49l1.09,1.05c-22.18-5.02-41.7-17.57-60.33-30.05,0,0,2.31-1.27,2.31-1.27.33,9.85,2.55,19.63,6.75,28.52l1.82,3.86c-36.54-17.62-72.61-39.29-97.93-71.73-24.89-31.12-35.21-71.41-35.56-110.7,0,0,2.63.05,2.63.05-1.67,27.15-8.36,53.85-19.07,78.82-15.01,35.25-49.36,88.23-88.41,98.3,0,0-2.27.51-2.27.51l1.35-1.91c13.58-19.49,18.96-43.34,23.3-66.39,0,0,1.38.33,1.38.33-7.13,23.59-21.56,43.99-36.86,62.96-5.34,6.67-10.78,13.26-15.97,20.03,0,0,.23-1.2.23-1.2l2.34-12.46.46.14c-7.33,17.21-16.6,34.16-30.75,46.72h0Z"/>
      <path class="cls-13" d="M52.53,375.43C-14.67,520.51-7.05,599.26,27.03,652.92c-43.25-110.59,14.1-120.42,25.35-188.58l.14-88.9Z"/>
      <g class="cls-26">
        <path class="cls-17" d="M212.72,696.08c10.94,50.63-7.63,69.7-25.95,101-12.73,38.61,2.05,70.96,44.33,97.03,17.96,9.34,32.37-3.29,60.87,4.22l4.58-26.88c-22.01-32.22-41.93,2.35-65.45-14.59-22.92-19.39-22.7-52.27-1.36-73.2,9.51-7.01,15.92-12.89,9.63-42.17l-26.65-45.41Z"/>
      </g>
      <path class="cls-53" d="M271.23,59.4c41.66,9.98,87.65,43.83,90.45,74.4.52,5.68,5,10.28,6.46,15.76-4.58-10.37-11.07-19.58-18.17-28.21-10.77-12.89-23.02-24.51-36.14-34.99-13.2-10.47-27.11-20.04-42.6-26.97h0Z"/>
      <path class="cls-53" d="M228.79,62.95c-61.79,15.71-129.6,70.58-133.25,120.81-.68,9.32-7.26,16.82-9.33,25.81,6.63-16.98,16.13-32.01,26.55-46.09,15.8-21.02,33.81-39.92,53.15-56.92,19.45-17,39.98-32.49,62.88-43.62h0Z"/>
      <path class="cls-53" d="M236.75,65.69c-43.28,34.1-68.49,66.54-64.54,96.31,11.79-28.52,35.5-61.43,64.54-96.31Z"/>
      <path class="cls-53" d="M257.69,62.95c49.54,36.32,87.99,72.09,74.8,104.31-7.9-25.01-39.43-63.56-74.8-104.31Z"/>
    </g>
  </g>
</svg>