<?xml version="1.0" encoding="UTF-8"?>
<svg id="Layer_2" data-name="Layer 2" xmlns="http://www.w3.org/2000/svg" xmlns:xlink="http://www.w3.org/1999/xlink" viewBox="0 0 116.36 209.17">
  <defs>
    <style>
      .cls-1, .cls-2, .cls-3, .cls-4, .cls-5, .cls-6, .cls-7, .cls-8, .cls-9, .cls-10, .cls-11, .cls-12 {
        fill: none;
      }

      .cls-2, .cls-13, .cls-3, .cls-4, .cls-14, .cls-15, .cls-5, .cls-6, .cls-16, .cls-7, .cls-8, .cls-9, .cls-17, .cls-18, .cls-10, .cls-11, .cls-19, .cls-20, .cls-12, .cls-21, .cls-22, .cls-23 {
        stroke-miterlimit: 10;
      }

      .cls-2, .cls-13, .cls-4, .cls-14, .cls-15, .cls-8, .cls-9, .cls-17, .cls-10, .cls-11, .cls-19, .cls-20, .cls-12, .cls-23 {
        stroke-width: .51px;
      }

      .cls-2, .cls-14 {
        stroke: #ee618b;
      }

      .cls-24, .cls-20 {
        fill: #d7818e;
      }

      .cls-13, .cls-25 {
        fill: #f3c0bd;
      }

      .cls-13, .cls-10 {
        stroke: #dba4a2;
      }

      .cls-3, .cls-16 {
        stroke: #c6c6c6;
        stroke-width: .34px;
      }

      .cls-4, .cls-20 {
        stroke: #af6875;
      }

      .cls-26 {
        fill: #c17e84;
      }

      .cls-27, .cls-14 {
        fill: #ee618b;
      }

      .cls-15, .cls-11 {
        stroke: #e09da7;
      }

      .cls-15, .cls-28 {
        fill: #f4bdc3;
      }

      .cls-5, .cls-6, .cls-21, .cls-22 {
        stroke: #898989;
      }

      .cls-5, .cls-21 {
        stroke-width: .91px;
      }

      .cls-6, .cls-22 {
        stroke-width: .49px;
      }

      .cls-29, .cls-23 {
        fill: #1e0a0a;
      }

      .cls-16, .cls-30 {
        fill: #f9f9f9;
      }

      .cls-31, .cls-19 {
        fill: #ffe3d7;
      }

      .cls-32 {
        clip-path: url(#clippath-17);
      }

      .cls-33 {
        clip-path: url(#clippath-19);
      }

      .cls-34 {
        clip-path: url(#clippath-11);
      }

      .cls-35 {
        clip-path: url(#clippath-16);
      }

      .cls-36 {
        clip-path: url(#clippath-18);
      }

      .cls-37 {
        clip-path: url(#clippath-10);
      }

      .cls-38 {
        clip-path: url(#clippath-15);
      }

      .cls-39 {
        clip-path: url(#clippath-13);
      }

      .cls-40 {
        clip-path: url(#clippath-14);
      }

      .cls-41 {
        clip-path: url(#clippath-12);
      }

      .cls-42 {
        clip-path: url(#clippath-20);
      }

      .cls-43 {
        clip-path: url(#clippath-21);
      }

      .cls-44 {
        clip-path: url(#clippath-22);
      }

      .cls-45 {
        fill: #ddd;
      }

      .cls-46 {
        clip-path: url(#clippath-1);
      }

      .cls-47 {
        clip-path: url(#clippath-3);
      }

      .cls-48 {
        clip-path: url(#clippath-4);
      }

      .cls-49 {
        clip-path: url(#clippath-2);
      }

      .cls-50 {
        clip-path: url(#clippath-7);
      }

      .cls-51 {
        clip-path: url(#clippath-6);
      }

      .cls-52 {
        clip-path: url(#clippath-9);
      }

      .cls-53 {
        clip-path: url(#clippath-8);
      }

      .cls-54 {
        clip-path: url(#clippath-5);
      }

      .cls-7, .cls-18 {
        stroke: #4b4b4b;
        stroke-width: 3.15px;
      }

      .cls-8, .cls-23 {
        stroke: #260f0f;
      }

      .cls-55 {
        fill: #e25550;
      }

      .cls-56 {
        fill: #e48f94;
      }

      .cls-9, .cls-17 {
        stroke: #8c2323;
      }

      .cls-17, .cls-57 {
        fill: #a4231e;
      }

      .cls-18 {
        fill: #4b4b4b;
      }

      .cls-58 {
        fill: #fff;
      }

      .cls-59 {
        fill: #191918;
      }

      .cls-60 {
        fill: #7e7b86;
      }

      .cls-61 {
        fill: #e5e1df;
      }

      .cls-62 {
        fill: #260f0f;
      }

      .cls-19, .cls-12 {
        stroke: #fcc8b6;
      }

      .cls-63 {
        fill: #f0ebff;
      }

      .cls-63, .cls-64 {
        opacity: .2;
      }

      .cls-65, .cls-64, .cls-66 {
        fill: #20164c;
      }

      .cls-65, .cls-67 {
        opacity: .15;
      }

      .cls-66 {
        opacity: .3;
      }

      .cls-68 {
        fill: #bab5bc;
      }

      .cls-21, .cls-22, .cls-69 {
        fill: #a5a5a3;
      }

      .cls-70 {
        fill: #0c0812;
      }

      .cls-71 {
        fill: #b33c33;
      }

      .cls-67 {
        fill: #d7c5ff;
      }

      .cls-72 {
        fill: #8c2f2f;
      }

      .cls-73 {
        clip-path: url(#clippath);
      }
    </style>
    <clipPath id="clippath">
      <rect class="cls-21" x="4.4" y="22.5" width="106.48" height="146.54" rx="9.1" ry="9.1"/>
    </clipPath>
    <clipPath id="clippath-1">
      <rect class="cls-61" x="7.83" y="22.5" width="99.62" height="137.1" rx="8.51" ry="8.51"/>
    </clipPath>
    <clipPath id="clippath-2">
      <rect class="cls-22" x="5.89" y="164.89" width="106.48" height="43.54" rx="4.96" ry="4.96"/>
    </clipPath>
    <clipPath id="clippath-3">
      <rect class="cls-61" x="9.32" y="164.89" width="99.62" height="40.73" rx="4.64" ry="4.64"/>
    </clipPath>
    <clipPath id="clippath-4">
      <path class="cls-23" d="M55.16,8.43c-3.38-7.09,2.41-10.1,3.27-.21,2.48-8.05,6.17-5.28,3.7.69l-6.96-.47Z"/>
    </clipPath>
    <clipPath id="clippath-5">
      <path class="cls-13" d="M51.03,116.67c-2.41,4.77-1.45,8.93,4.47,12.12,8.78,5.6-4.06,9.79,4.04,18.14l2.41-4.81c-4.75-3.72,5.61-5.26-2.09-12.62l-8.83-12.82Z"/>
    </clipPath>
    <clipPath id="clippath-6">
      <path class="cls-13" d="M73.21,130.77l2.84-1.38c4.31,6.35-.47,9.96-6.68,11.49-4.26.79-5.95,2.36-5.37,4.56l-4.21.99c-1.38-2.24-.96-5.48,4.94-7.69,7.46-2.52,12.71-4.22,8.48-7.97Z"/>
    </clipPath>
    <clipPath id="clippath-7">
      <path class="cls-13" d="M80.28,126.48c3.23.67,5.02,2.6,5.09,6.03l3.21-1.5c1.26-4.74-1.45-6.44-4.71-7.8l-3.59,3.27Z"/>
    </clipPath>
    <clipPath id="clippath-8">
      <path class="cls-13" d="M52.9,117.62c1.85,8.55-1.29,11.78-4.38,17.07-2.15,6.52.35,11.99,7.49,16.4,3.03,1.58,5.47-.56,10.29.71l.77-4.54c-3.72-5.44-7.08.4-11.06-2.47-3.87-3.28-3.84-8.83-.23-12.37,1.61-1.19,2.69-2.18,1.63-7.13l-4.5-7.67Z"/>
    </clipPath>
    <clipPath id="clippath-9">
      <path class="cls-13" d="M85.75,122.29c2.88-.95,6.16,1.55,6.62,2.96.68,2.05-1.74,4.59-2.95,4.99-9.15,2.27-11.28,2-11.71,10.59-2.56,2.31-10.12-2.49-12.21,7.93-.4,3.03-.16,6.02,1.87,8.4,2.69,2.59,3.32,4.56,1.59,5.81,2.55-.99,3.06-2.86,1.02-6.46-1.83-4.08-1.36-7.61,2.87-10.22,2.64-1.42,5.15,2.63,8.49-.33,3.35-3.85-3.63-10.45,7.87-12.33,2.82-.4,9.14,2.85,10.98-7.45,1-5.74-5.72-9.46-10.06-10.19l-4.38,6.28Z"/>
    </clipPath>
    <clipPath id="clippath-10">
      <path class="cls-20" d="M55.9,108.9c-9.21-.22-13.36,6.48-13.2,14.3.47,6.02,4.85,10.15,9.29,7.74l1.98-5.2c-5.4,1.94-7.33-.76-7.49-5.8-.02-.72.37-1.39,1.01-1.71,6.31-3.19,8.38,15.32,19.16,15.12,8.82-.49,16.26-6.56,23.06-15.23,4.74-5.12,2.76-9.52-3.45-13.47-.22-.16-4.31-2.58-4.4-1.97,0,0-.38,2.66-.38,2.66,13.63,8-11.16,7.03-20.81,4.32-1.55-.44-3.15-.71-4.76-.75Z"/>
    </clipPath>
    <clipPath id="clippath-11">
      <path class="cls-23" d="M24.34,37.82C29.7,5.4,68.47-3.9,86.21,23.35c1.97,3.03,3.25,6.45,3.84,10.02,3.43,21.01-1.82,33.23.29,39.15,3.93,9.09,10.14,9.11,11.64,21.84-4.47-12.42-9.37-4.11-15.39-19.43-.18,8.09.99,15.06,6.1,18.74-3.88-2.36-6.58-6.18-8.31-11.21.01,12.07,9.82,9.98,9.89,24.07-4.86-6.29-12.35-13.38-13.24-22.87-.12,4.4,1.35,9.53,3.7,15.05-5.98-7.44-9.4-12.22-7.9-18.35-2.18,5.71-1.83,10.46,3.34,15.5-11.98-3.33-16.33-11.44-14.73-23.27l-8.25.6c1.91,14.52-.57,21.71-5.29,25.19.63-10.66-7.86-5.24-4.03-19.68-8.92,6.7,2.98,5.52-2.24,17.75-.19,8.12-11.03,8.84-5.34,21.15-9.3-20.06,3.79-13.94-2.74-30.58l4.01,13.81c-5.62-7.72-10.31-16.07-12.48-26.12-3.42,8.82-2.31,13.34,2.52,19.15-8.94-7.56-6.8-15.73-6.51-26.59.32-11.84-4.39-20.28-.75-29.47Z"/>
    </clipPath>
    <clipPath id="clippath-12">
      <path class="cls-14" d="M63.34,93.96c2.53-.86,5.01,1.25,5.03,5.42-.4,7.34,1.69,13.4-.57,14.15-1.14.62-1.28-.95-2.43-1.38-3.25-1.2-8.17-8.04-8.47-11.09-1.26-4.69-1.01-7.34,1.78-6.9,1.21.37,1.75-2.25,4.67-.2Z"/>
    </clipPath>
    <clipPath id="clippath-13">
      <path class="cls-17" d="M66.62,86.19c-4.83,1.01-6.84,8.66-3.18,13.53,7.13,8.22,9.12,16.93,13.42,16,2.38-.18,1.21-2.12,2.69-3.53,4.17-3.97,6.04-15.83,3.82-19.62-2.11-6.46-4.87-9.34-8.95-6.62-1.62,1.39-4.74-.79-7.8.24Z"/>
    </clipPath>
    <clipPath id="clippath-14">
      <path class="cls-17" d="M57.77,90.97c3.77.62,5.66,4.76,3.14,9.77-4.98,8.53-6,17.16-9.35,16.58-1.84,0-1.05-1.97-2.27-3.23-3.43-3.55-5.56-14.96-4.09-18.81,1.24-6.45,3.18-9.46,6.48-7.11,1.33,1.23,3.62-1.56,6.1,2.8Z"/>
    </clipPath>
    <clipPath id="clippath-15">
      <path class="cls-19" d="M89.75,47.31c10.23-5.4,7.78,16.79-5.18,15.86l5.18-15.86Z"/>
    </clipPath>
    <clipPath id="clippath-16">
      <path class="cls-15" d="M55.99,73.26c1.11,4.76-2.51,8.6.76,9.83.92,2.71-3.14,4.48-.39,5.72-.99,2.55-.61,4,2.22,3.44,2.82-.56,5.51-1.23,7.61-2.41,1.65-.58,1.99-1.71.43-3.65,5.13-2.28-.68-3.99,0-6.79.36-2.05-1.51-2.32-.56-6.59l-10.08.46Z"/>
    </clipPath>
    <clipPath id="clippath-17">
      <path class="cls-19" d="M31.43,48.23c-10.23-5.4-7.78,16.79,5.18,15.86l-5.18-15.86Z"/>
    </clipPath>
    <clipPath id="clippath-18">
      <path class="cls-19" d="M31.16,52.83c-3.59,17.36,4.54,24.47,25.09,22.55,11.79.13,21.17-2.18,26.37-8.71,4.16-5.18,5.54-11.26,6.68-19.65-5.93-10.4-13.04-19.94-22.63-27.97-5.44-4.55-13.55-3.89-18.15,1.52-8.61,10.12-14.64,20.82-17.38,32.26Z"/>
    </clipPath>
    <clipPath id="clippath-19">
      <ellipse class="cls-16" cx="72.6" cy="51.42" rx="7.81" ry="9.22" transform="translate(-11.7 79.85) rotate(-53.95)"/>
    </clipPath>
    <clipPath id="clippath-20">
      <ellipse class="cls-16" cx="45.07" cy="54.81" rx="9.22" ry="7.81" transform="translate(-24.92 43.15) rotate(-41.11)"/>
    </clipPath>
    <clipPath id="clippath-21">
      <path class="cls-71" d="M54.69,61.86c0,4.74,1.29,8.87,7.22,8.4,3.65-.29,5.08-4.59,1.29-9-1.75,6.84-6.81,4.18-8.51.6Z"/>
    </clipPath>
    <clipPath id="clippath-22">
      <ellipse class="cls-1" cx="52.27" cy="129.06" rx="4.84" ry="3.64" transform="translate(-86.84 135.23) rotate(-70.49)"/>
    </clipPath>
  </defs>
  <g id="Layer_9" data-name="Layer 9">
    <g>
      <g>
        <rect class="cls-69" x="4.4" y="22.5" width="106.48" height="146.54" rx="9.1" ry="9.1"/>
        <g class="cls-73">
          <polygon class="cls-60" points="0 171.55 9.71 153.35 101.42 153.35 114.87 171.55 0 171.55"/>
        </g>
        <rect class="cls-5" x="4.4" y="22.5" width="106.48" height="146.54" rx="9.1" ry="9.1"/>
      </g>
      <g>
        <rect class="cls-61" x="7.83" y="22.5" width="99.62" height="137.1" rx="8.51" ry="8.51"/>
        <g class="cls-46">
          <rect class="cls-68" x="11.38" y="25.56" width="99.62" height="137.1" rx="8.51" ry="8.51"/>
          <path class="cls-63" d="M110.88,74.31c0-42.65-106.48-42.65-106.48,0V18.56s106.48,0,106.48,0v55.76Z"/>
        </g>
      </g>
    </g>
    <g>
      <rect class="cls-69" x="5.89" y="164.89" width="106.48" height="43.54" rx="4.96" ry="4.96"/>
      <g class="cls-49">
        <polygon class="cls-60" points="1.49 209.17 11.2 203.76 102.91 203.76 116.36 209.17 1.49 209.17"/>
      </g>
      <rect class="cls-6" x="5.89" y="164.89" width="106.48" height="43.54" rx="4.96" ry="4.96"/>
    </g>
    <g>
      <rect class="cls-61" x="9.32" y="164.89" width="99.62" height="40.73" rx="4.64" ry="4.64"/>
      <g class="cls-47">
        <rect class="cls-68" x="12.87" y="165.8" width="99.62" height="40.73" rx="4.64" ry="4.64"/>
        <path class="cls-63" d="M112.37,180.28c0-12.67-106.48-12.67-106.48,0v-16.57s106.48,0,106.48,0v16.57Z"/>
      </g>
    </g>
    <g>
      <g>
        <path class="cls-29" d="M55.16,8.43c-3.38-7.09,2.41-10.1,3.27-.21,2.48-8.05,6.17-5.28,3.7.69l-6.96-.47Z"/>
        <g class="cls-48">
          <ellipse class="cls-67" cx="54.99" cy="2.56" rx="3.14" ry="2.56"/>
          <ellipse class="cls-67" cx="62.18" cy="3.81" rx="2.48" ry="1.91"/>
        </g>
        <path class="cls-8" d="M55.16,8.43c-3.38-7.09,2.41-10.1,3.27-.21,2.48-8.05,6.17-5.28,3.7.69l-6.96-.47Z"/>
      </g>
      <g>
        <path class="cls-25" d="M51.03,116.67c-2.41,4.77-1.45,8.93,4.47,12.12,8.78,5.6-4.06,9.79,4.04,18.14l2.41-4.81c-4.75-3.72,5.61-5.26-2.09-12.62l-8.83-12.82Z"/>
        <g class="cls-54">
          <path class="cls-65" d="M59.37,147.42c-4.46-4.61-3.05-8.19-1.91-11.07,1.08-2.73,1.79-4.53-1.95-6.93-3.04-1.65-4.97-3.64-5.73-5.93-.73-2.18-.41-4.64.94-7.3l1.51.76c-2.38,4.7-1.07,8.2,4.12,11l.05.03c4.94,3.15,3.72,6.25,2.64,8.99-1.11,2.81-2.15,5.46,1.55,9.28l-1.21,1.18Z"/>
        </g>
        <path class="cls-10" d="M51.03,116.67c-2.41,4.77-1.45,8.93,4.47,12.12,8.78,5.6-4.06,9.79,4.04,18.14l2.41-4.81c-4.75-3.72,5.61-5.26-2.09-12.62l-8.83-12.82Z"/>
      </g>
      <g>
        <path class="cls-25" d="M73.21,130.77l2.84-1.38c4.31,6.35-.47,9.96-6.68,11.49-4.26.79-5.95,2.36-5.37,4.56l-4.21.99c-1.38-2.24-.96-5.48,4.94-7.69,7.46-2.52,12.71-4.22,8.48-7.97Z"/>
        <g class="cls-51">
          <path class="cls-65" d="M75.54,128.54c6.19,12.9-14.83,9.03-13.48,18.4l5.45-.5,12.77-8.93c-.12-2.69-1.78-5.7-4.74-8.96Z"/>
        </g>
        <path class="cls-10" d="M73.21,130.77l2.84-1.38c4.31,6.35-.47,9.96-6.68,11.49-4.26.79-5.95,2.36-5.37,4.56l-4.21.99c-1.38-2.24-.96-5.48,4.94-7.69,7.46-2.52,12.71-4.22,8.48-7.97Z"/>
      </g>
      <g>
        <path class="cls-25" d="M80.28,126.48c3.23.67,5.02,2.6,5.09,6.03l3.21-1.5c1.26-4.74-1.45-6.44-4.71-7.8l-3.59,3.27Z"/>
        <g class="cls-50">
          <path class="cls-65" d="M83.87,123.21c3.43,3.1,3.92,6.2,1.5,9.3l5.94-1.44c-.1-6.45-2.15-9.75-7.44-7.86"/>
        </g>
        <path class="cls-10" d="M80.28,126.48c3.23.67,5.02,2.6,5.09,6.03l3.21-1.5c1.26-4.74-1.45-6.44-4.71-7.8l-3.59,3.27Z"/>
      </g>
      <g>
        <path class="cls-25" d="M52.9,117.62c1.85,8.55-1.29,11.78-4.38,17.07-2.15,6.52.35,11.99,7.49,16.4,3.03,1.58,5.47-.56,10.29.71l.77-4.54c-3.72-5.44-7.08.4-11.06-2.47-3.87-3.28-3.84-8.83-.23-12.37,1.61-1.19,2.69-2.18,1.63-7.13l-4.5-7.67Z"/>
        <g class="cls-53">
          <path class="cls-65" d="M50.07,131.61c-9.69,13.14,2.55,24.57,17,21.65,0-1.13,1.81-3.45.44-3.16-3.74.78-23.24.6-17.44-18.49Z"/>
        </g>
        <path class="cls-10" d="M52.9,117.62c1.85,8.55-1.29,11.78-4.38,17.07-2.15,6.52.35,11.99,7.49,16.4,3.03,1.58,5.47-.56,10.29.71l.77-4.54c-3.72-5.44-7.08.4-11.06-2.47-3.87-3.28-3.84-8.83-.23-12.37,1.61-1.19,2.69-2.18,1.63-7.13l-4.5-7.67Z"/>
      </g>
      <g>
        <path class="cls-25" d="M85.75,122.29c2.88-.95,6.16,1.55,6.62,2.96.68,2.05-1.74,4.59-2.95,4.99-9.15,2.27-11.28,2-11.71,10.59-2.56,2.31-10.12-2.49-12.21,7.93-.4,3.03-.16,6.02,1.87,8.4,2.69,2.59,3.32,4.56,1.59,5.81,2.55-.99,3.06-2.86,1.02-6.46-1.83-4.08-1.36-7.61,2.87-10.22,2.64-1.42,5.15,2.63,8.49-.33,3.35-3.85-3.63-10.45,7.87-12.33,2.82-.4,9.14,2.85,10.98-7.45,1-5.74-5.72-9.46-10.06-10.19l-4.38,6.28Z"/>
        <g class="cls-52">
          <path class="cls-65" d="M68.89,163.76l-.61-1.57c.89-.35,1.42-.79,1.62-1.35.3-.84-.05-2.16-1.04-3.92l-.04-.07c-2.15-4.83-1.08-8.63,3.17-11.28l.04-.03c1.46-.79,2.85-.29,4.07.16,1.48.54,2.65.97,4.14-.34.92-1.11.82-2.55.7-4.21-.23-3.13-.51-7.03,7.56-8.36.68-.1,1.45-.02,2.27.05,3.09.3,6.6.63,7.92-6.82.27-1.56-.09-3.05-1.07-4.44-1.87-2.64-5.56-4.33-8.2-4.77l.28-1.66c3.07.52,7.14,2.41,9.3,5.46,1.25,1.77,1.71,3.68,1.36,5.7-1.59,8.98-6.69,8.49-9.73,8.2-.71-.07-1.39-.13-1.86-.07-6.54,1.08-6.36,3.5-6.14,6.58.13,1.79.28,3.82-1.14,5.47l-.08.08c-2.26,2.03-4.35,1.26-5.88.71-1.17-.43-1.92-.67-2.67-.27-3.49,2.19-4.29,5.08-2.51,9.12,1.26,2.24,1.62,3.92,1.13,5.27-.37,1.05-1.22,1.81-2.59,2.35Z"/>
        </g>
        <path class="cls-10" d="M85.75,122.29c2.88-.95,6.16,1.55,6.62,2.96.68,2.05-1.74,4.59-2.95,4.99-9.15,2.27-11.28,2-11.71,10.59-2.56,2.31-10.12-2.49-12.21,7.93-.4,3.03-.16,6.02,1.87,8.4,2.69,2.59,3.32,4.56,1.59,5.81,2.55-.99,3.06-2.86,1.02-6.46-1.83-4.08-1.36-7.61,2.87-10.22,2.64-1.42,5.15,2.63,8.49-.33,3.35-3.85-3.63-10.45,7.87-12.33,2.82-.4,9.14,2.85,10.98-7.45,1-5.74-5.72-9.46-10.06-10.19l-4.38,6.28Z"/>
      </g>
      <g>
        <path class="cls-24" d="M55.9,108.9c-9.21-.22-13.36,6.48-13.2,14.3.47,6.02,4.85,10.15,9.29,7.74l1.98-5.2c-5.4,1.94-7.33-.76-7.49-5.8-.02-.72.37-1.39,1.01-1.71,6.31-3.19,8.38,15.32,19.16,15.12,8.82-.49,16.26-6.56,23.06-15.23,4.74-5.12,2.76-9.52-3.45-13.47-.22-.16-4.31-2.58-4.4-1.97,0,0-.38,2.66-.38,2.66,13.63,8-11.16,7.03-20.81,4.32-1.55-.44-3.15-.71-4.76-.75Z"/>
        <g class="cls-37">
          <path class="cls-64" d="M87.09,103.95c18,7.98,10.16,18.99-2.92,25.22-17.01,8.1-25.21,7.39-30.79-6.47,13.73,16.83,50.05-13.42,33.71-18.75Z"/>
          <path class="cls-64" d="M46.46,119.94c-.29,7.82,2.88,9.96,7.28,10.06l1.16-5.67-8.44-4.39Z"/>
          <path class="cls-64" d="M45,131.04c-13.41-13.18-.85-28.36,18.37-22.76-19.88-.44-23.62,14.4-18.37,22.76Z"/>
          <path class="cls-64" d="M81.52,104.96c8.14,4.03,7.47,8.1-2.68,6.61l2.68-6.61Z"/>
          <path class="cls-64" d="M62.81,114.43c4.53,1.03,9.37,1.04,14.45.22-5.09.07-9.92,0-14.45-.22Z"/>
          <path class="cls-64" d="M62.56,115.6c2.9,1.22,7.27,1.61,13.92.7-5.69.3-10.4.1-13.92-.7Z"/>
          <path class="cls-64" d="M57.78,114.97c3.07,2.23,8.53,3.68,15.11,4.75-5.99-1.63-11.28-3.22-15.11-4.75Z"/>
          <path class="cls-64" d="M51.74,122.43c7.92,4.55,12.76,5.17,19.64,2.68-7.55.87-12.24.77-19.64-2.68Z"/>
        </g>
        <path class="cls-4" d="M55.9,108.9c-9.21-.22-13.36,6.48-13.2,14.3.47,6.02,4.85,10.15,9.29,7.74l1.98-5.2c-5.4,1.94-7.33-.76-7.49-5.8-.02-.72.37-1.39,1.01-1.71,6.31-3.19,8.38,15.32,19.16,15.12,8.82-.49,16.26-6.56,23.06-15.23,4.74-5.12,2.76-9.52-3.45-13.47-.22-.16-4.31-2.58-4.4-1.97,0,0-.38,2.66-.38,2.66,13.63,8-11.16,7.03-20.81,4.32-1.55-.44-3.15-.71-4.76-.75Z"/>
      </g>
      <g>
        <path class="cls-29" d="M24.34,37.82C29.7,5.4,68.47-3.9,86.21,23.35c1.97,3.03,3.25,6.45,3.84,10.02,3.43,21.01-1.82,33.23.29,39.15,3.93,9.09,10.14,9.11,11.64,21.84-4.47-12.42-9.37-4.11-15.39-19.43-.18,8.09.99,15.06,6.1,18.74-3.88-2.36-6.58-6.18-8.31-11.21.01,12.07,9.82,9.98,9.89,24.07-4.86-6.29-12.35-13.38-13.24-22.87-.12,4.4,1.35,9.53,3.7,15.05-5.98-7.44-9.4-12.22-7.9-18.35-2.18,5.71-1.83,10.46,3.34,15.5-11.98-3.33-16.33-11.44-14.73-23.27l-8.25.6c1.91,14.52-.57,21.71-5.29,25.19.63-10.66-7.86-5.24-4.03-19.68-8.92,6.7,2.98,5.52-2.24,17.75-.19,8.12-11.03,8.84-5.34,21.15-9.3-20.06,3.79-13.94-2.74-30.58l4.01,13.81c-5.62-7.72-10.31-16.07-12.48-26.12-3.42,8.82-2.31,13.34,2.52,19.15-8.94-7.56-6.8-15.73-6.51-26.59.32-11.84-4.39-20.28-.75-29.47Z"/>
        <g class="cls-34">
          <path class="cls-67" d="M66.25,7.33c22.39,7.04,31.73,18.76,27.73,33.74-3.65-12.92-14.77-24.09-27.73-33.74Z"/>
          <path class="cls-67" d="M50.53,7.33c-22.39,7.04-31.73,18.76-27.73,33.74,3.65-12.92,14.77-24.09,27.73-33.74Z"/>
        </g>
        <path class="cls-8" d="M24.34,37.82C29.7,5.4,68.47-3.9,86.21,23.35c1.97,3.03,3.25,6.45,3.84,10.02,3.43,21.01-1.82,33.23.29,39.15,3.93,9.09,10.14,9.11,11.64,21.84-4.47-12.42-9.37-4.11-15.39-19.43-.18,8.09.99,15.06,6.1,18.74-3.88-2.36-6.58-6.18-8.31-11.21.01,12.07,9.82,9.98,9.89,24.07-4.86-6.29-12.35-13.38-13.24-22.87-.12,4.4,1.35,9.53,3.7,15.05-5.98-7.44-9.4-12.22-7.9-18.35-2.18,5.71-1.83,10.46,3.34,15.5-11.98-3.33-16.33-11.44-14.73-23.27l-8.25.6c1.91,14.52-.57,21.71-5.29,25.19.63-10.66-7.86-5.24-4.03-19.68-8.92,6.7,2.98,5.52-2.24,17.75-.19,8.12-11.03,8.84-5.34,21.15-9.3-20.06,3.79-13.94-2.74-30.58l4.01,13.81c-5.62-7.72-10.31-16.07-12.48-26.12-3.42,8.82-2.31,13.34,2.52,19.15-8.94-7.56-6.8-15.73-6.51-26.59.32-11.84-4.39-20.28-.75-29.47Z"/>
      </g>
      <g>
        <path class="cls-27" d="M63.34,93.96c2.53-.86,5.01,1.25,5.03,5.42-.4,7.34,1.69,13.4-.57,14.15-1.14.62-1.28-.95-2.43-1.38-3.25-1.2-8.17-8.04-8.47-11.09-1.26-4.69-1.01-7.34,1.78-6.9,1.21.37,1.75-2.25,4.67-.2Z"/>
        <g class="cls-41">
          <path class="cls-64" d="M59.13,107.51c1.29-1.12,2.45-2.31,2.43-4.1,3.09-.4,5.92,5.47,9.97,4.87l-1.98-15.92-16.18-.74c-1.75,10.4,1.47,13.88,5.75,15.88Z"/>
          <path class="cls-64" d="M58.96,104.95c1.29-1.12,2.45-2.31,2.43-4.1,3.09-.4,5.92,5.47,9.97,4.87l-1.98-15.92-16.18-.74c-1.75,10.4,1.47,13.88,5.75,15.88Z"/>
        </g>
        <path class="cls-2" d="M63.34,93.96c2.53-.86,5.01,1.25,5.03,5.42-.4,7.34,1.69,13.4-.57,14.15-1.14.62-1.28-.95-2.43-1.38-3.25-1.2-8.17-8.04-8.47-11.09-1.26-4.69-1.01-7.34,1.78-6.9,1.21.37,1.75-2.25,4.67-.2Z"/>
      </g>
      <g>
        <path class="cls-57" d="M66.62,86.19c-4.83,1.01-6.84,8.66-3.18,13.53,7.13,8.22,9.12,16.93,13.42,16,2.38-.18,1.21-2.12,2.69-3.53,4.17-3.97,6.04-15.83,3.82-19.62-2.11-6.46-4.87-9.34-8.95-6.62-1.62,1.39-4.74-.79-7.8.24Z"/>
        <g class="cls-39">
          <path class="cls-67" d="M72.54,85.39c-4.71,9.57,3.93,10.88,9.3,17.28.62.74,2.29.4,2.34-.47.58-9.38-.68-16.71-5.12-20.54l-6.52,3.73Z"/>
          <path class="cls-67" d="M73.35,83.48c-1.91,10.49,6.77,9.38,13.69,14.07.8.54,2.31-.24,2.12-1.09-2.01-9.18-5.24-15.88-10.56-18.35l-5.25,5.38Z"/>
          <path class="cls-64" d="M60.79,90.23c8.16,13.46,13.7,19.17,22.8,16.98l-3.77,14.46-13.7-10.83c-5.05-7.27-6.14-14.05-5.32-20.6Z"/>
        </g>
        <path class="cls-9" d="M66.62,86.19c-4.83,1.01-6.84,8.66-3.18,13.53,7.13,8.22,9.12,16.93,13.42,16,2.38-.18,1.21-2.12,2.69-3.53,4.17-3.97,6.04-15.83,3.82-19.62-2.11-6.46-4.87-9.34-8.95-6.62-1.62,1.39-4.74-.79-7.8.24Z"/>
      </g>
      <g>
        <path class="cls-57" d="M57.77,90.97c3.77.62,5.66,4.76,3.14,9.77-4.98,8.53-6,17.16-9.35,16.58-1.84,0-1.05-1.97-2.27-3.23-3.43-3.55-5.56-14.96-4.09-18.81,1.24-6.45,3.18-9.46,6.48-7.11,1.33,1.23,3.62-1.56,6.1,2.8Z"/>
        <g class="cls-40">
          <path class="cls-67" d="M52.11,88.46c2.7,9.53-2.58,11.21-5.95,17.93-.39.77-1.24.48-1.42-.38-1.98-9.52-1.82-17.02,3.46-21.07l3.9,3.53Z"/>
          <path class="cls-67" d="M50.43,84.21c2.7,9.53-2.58,11.21-5.95,17.93-.39.77-1.24.48-1.42-.38-1.98-9.52-1.82-17.02,3.46-21.07l3.9,3.53Z"/>
          <path class="cls-64" d="M62.51,93.02c-5.51,12.98-10,17.35-16.62,17.26l3.77,13.06,9.95-10.95c2.82-5.72,3.86-12.15,2.89-19.36Z"/>
        </g>
        <path class="cls-9" d="M57.77,90.97c3.77.62,5.66,4.76,3.14,9.77-4.98,8.53-6,17.16-9.35,16.58-1.84,0-1.05-1.97-2.27-3.23-3.43-3.55-5.56-14.96-4.09-18.81,1.24-6.45,3.18-9.46,6.48-7.11,1.33,1.23,3.62-1.56,6.1,2.8Z"/>
      </g>
      <g>
        <path class="cls-31" d="M89.75,47.31c10.23-5.4,7.78,16.79-5.18,15.86l5.18-15.86Z"/>
        <g class="cls-38">
          <path class="cls-64" d="M91.19,45.14c.77,7.64.22,14.79-3.41,20.8l-6.02-1.55,5.82-17.65,3.61-1.6Z"/>
        </g>
        <path class="cls-12" d="M89.75,47.31c10.23-5.4,7.78,16.79-5.18,15.86l5.18-15.86Z"/>
      </g>
      <g>
        <path class="cls-28" d="M55.99,73.26c1.11,4.76-2.51,8.6.76,9.83.92,2.71-3.14,4.48-.39,5.72-.99,2.55-.61,4,2.22,3.44,2.82-.56,5.51-1.23,7.61-2.41,1.65-.58,1.99-1.71.43-3.65,5.13-2.28-.68-3.99,0-6.79.36-2.05-1.51-2.32-.56-6.59l-10.08.46Z"/>
        <g class="cls-35">
          <path class="cls-56" d="M59.1,71.25c.49,5.24-2.63,10.05-.24,11.34,1.02,1.39-2.61,5.24-.05,5.88-1.19,1.53-1.01,3.28.44,5.22h-6.15s.51-22.18.51-22.18l5.49-.26Z"/>
          <path class="cls-56" d="M64.25,71.12c-.81,4.44,1.35,7.46,1.3,9.95,2.5,3.08,1.81,3.67-.29,4.51,1.3,2.5,1.5,4.77.55,6.78l4.45-4.04-.48-8.83c-.37-5.8-2.15-8.73-5.52-8.37Z"/>
          <path class="cls-26" d="M67.54,78.63c-1.37,2.31-3.74,3.66-6.41,4.73,3.43.06,6.65-.13,9.16-1.2l-2.75-3.53Z"/>
          <path class="cls-26" d="M68.49,85.2c-1.14.89-2.93,1.24-4.91,1.43,2.45.41,4.77.67,6.63.46l-1.72-1.89Z"/>
          <path class="cls-26" d="M53.98,81.52c2.21.63,4.3.76,6.22.29-1.72,1.03-3.69,1.45-5.8,1.48l-.42-1.77Z"/>
          <path class="cls-26" d="M53.27,86.1c2.13.87,4.05,2.45,6.02,2.2-1.83.83-4.3.78-6.41.58l.39-2.77Z"/>
          <path class="cls-64" d="M70.94,79.66c-5.17-3.05-11.22-2.82-17.97,0v-7.39h17.97v7.39Z"/>
        </g>
        <path class="cls-11" d="M55.99,73.26c1.11,4.76-2.51,8.6.76,9.83.92,2.71-3.14,4.48-.39,5.72-.99,2.55-.61,4,2.22,3.44,2.82-.56,5.51-1.23,7.61-2.41,1.65-.58,1.99-1.71.43-3.65,5.13-2.28-.68-3.99,0-6.79.36-2.05-1.51-2.32-.56-6.59l-10.08.46Z"/>
      </g>
      <g>
        <path class="cls-31" d="M31.43,48.23c-10.23-5.4-7.78,16.79,5.18,15.86l-5.18-15.86Z"/>
        <g class="cls-32">
          <path class="cls-64" d="M28.94,45.95c-.55,7.24-.47,14.05,1.7,19.47l5.89.28-1.59-20.12-6,.36Z"/>
        </g>
        <path class="cls-12" d="M31.43,48.23c-10.23-5.4-7.78,16.79,5.18,15.86l-5.18-15.86Z"/>
      </g>
      <g>
        <path class="cls-31" d="M31.16,52.83c-3.59,17.36,4.54,24.47,25.09,22.55,11.79.13,21.17-2.18,26.37-8.71,4.16-5.18,5.54-11.26,6.68-19.65-5.93-10.4-13.04-19.94-22.63-27.97-5.44-4.55-13.55-3.89-18.15,1.52-8.61,10.12-14.64,20.82-17.38,32.26Z"/>
        <g class="cls-36">
          <path class="cls-55" d="M83.88,70.44c-1.17,2.84-3.28,3.05-5.13,1.06-1.85-1.99-5.91-2.2-4.74-5.04,1.17-2.84,5.04-3.67,7.94-3.17s3.1,4.31,1.94,7.15Z"/>
          <ellipse class="cls-55" cx="38.47" cy="71.57" rx="5.98" ry="4.55" transform="translate(-10.54 6.76) rotate(-8.84)"/>
          <ellipse class="cls-64" cx="72.6" cy="52.89" rx="7.81" ry="9.22" transform="translate(-12.89 80.46) rotate(-53.95)"/>
          <ellipse class="cls-64" cx="45.15" cy="55.84" rx="9.09" ry="8.1" transform="translate(-24.21 37.27) rotate(-36.05)"/>
          <g>
            <ellipse class="cls-30" cx="72.6" cy="51.42" rx="7.81" ry="9.22" transform="translate(-11.7 79.85) rotate(-53.95)"/>
            <g class="cls-33">
              <ellipse class="cls-45" cx="72.82" cy="57.39" rx="5.07" ry="7.69" transform="translate(10.44 125.98) rotate(-85.95)"/>
              <ellipse class="cls-59" cx="66.29" cy="48.02" rx="2.81" ry="2.45" transform="translate(-5.29 87.72) rotate(-64.93)"/>
            </g>
            <ellipse class="cls-3" cx="72.6" cy="51.42" rx="7.81" ry="9.22" transform="translate(-11.7 79.85) rotate(-53.95)"/>
          </g>
          <g>
            <ellipse class="cls-30" cx="45.07" cy="54.81" rx="9.22" ry="7.81" transform="translate(-24.92 43.15) rotate(-41.11)"/>
            <g class="cls-42">
              <path class="cls-45" d="M39.44,64.4c1.57,2.38,6.26,2.05,10.48-.74,4.22-2.79,6.5-6.11,4.93-8.49-1.57-2.38-6.77-2.25-10.98.54s-5.99,6.31-4.42,8.69Z"/>
              <ellipse class="cls-59" cx="48.9" cy="48.99" rx="2.81" ry="2.45" transform="translate(-20.32 48.47) rotate(-44.62)"/>
            </g>
            <ellipse class="cls-3" cx="45.07" cy="54.81" rx="9.22" ry="7.81" transform="translate(-24.92 43.15) rotate(-41.11)"/>
          </g>
          <path class="cls-72" d="M62.99,59.1c.91,2.46,1.17,3.47,4,3.84-2.72,1.23-4.64-1.23-4-3.84h0Z"/>
          <path class="cls-64" d="M64.79,40.5c1.82-1.72,4.07-2.35,6.17-.82-1.35,1.88-3.62,2.31-6.17.82Z"/>
          <path class="cls-64" d="M42.96,42.16c2.06-1.41,4.39-1.68,6.22.16-1.63,1.64-3.94,1.71-6.22-.16Z"/>
          <path class="cls-70" d="M64.06,39.09c-.18,1.18.43,2.14,1.67,1.86,1.09-1.25,2.48-2.12,5.22-1.28-1.93-2.22-3.7-2.68-5.39-2.2-.79.22-1.38.85-1.5,1.62Z"/>
          <path class="cls-70" d="M49.74,40.43c.38,1.1-.09,2.13-1.43,2.09-1.35-1-2.95-1.59-5.66-.28,1.65-2.48,3.41-3.24,5.26-3.09.86.07,1.59.57,1.84,1.28Z"/>
          <g>
            <path class="cls-71" d="M54.69,61.86c0,4.74,1.29,8.87,7.22,8.4,3.65-.29,5.08-4.59,1.29-9-1.75,6.84-6.81,4.18-8.51.6Z"/>
            <g class="cls-43">
              <path class="cls-66" d="M55.61,69.64c5.85,5.26,9.42,3.72,11.32-2.82-4.23-.57-7.95.53-11.32,2.82Z"/>
            </g>
          </g>
          <path class="cls-64" d="M28.55,58.19c1.81-1.48,3.19-4.16,4.99-8.07l-.11,1.84c3.51-3.33,6.95-7.85,8.66-13.47-.81,4.19-1.97,8.01-4.12,10.78,6.91-1.32,17.9-14.01,18.81-28.45.27,13.88,7.42,22.11,22.82,28.92-.75-1.46-1.15-3.03-1.22-4.7,3.77,2.36,7.39,4.21,10.58,4.82l-.77-4.86c-8.04-13.21-18.57-23.48-31.85-30.49-13.7,10.65-21.74,26.51-27.77,43.68Z"/>
        </g>
        <path class="cls-12" d="M31.16,52.83c-3.59,17.36,4.54,24.47,25.09,22.55,11.79.13,21.17-2.18,26.37-8.71,4.16-5.18,5.54-11.26,6.68-19.65-5.93-10.4-13.04-19.94-22.63-27.97-5.44-4.55-13.55-3.89-18.15,1.52-8.61,10.12-14.64,20.82-17.38,32.26Z"/>
      </g>
      <path class="cls-29" d="M29.15,55.33c1.72-1.55,3.45-3.81,5.16-7.91l-.39,2.11c2.97-3.89,7-8.09,8.73-13.86-.77,4.39-1.88,8.39-3.93,11.28,6.6-1.39,17.1-14.67,17.97-29.79.26,14.53,7.09,23.16,21.8,30.29-.72-1.53-1.1-3.17-1.16-4.92,3.61,2.47,7.06,4.41,10.1,5.05,4.52,18.19-7.55,24.6-3.99,44.07-1.43-14.72,8.56-28.82,6.65-42.02-1.82-16.41-7.73-28.1-18.71-33.99-6.74-3.61-14.78-3.9-21.85-.99-15.58,6.42-21.19,20.94-20.38,40.68Z"/>
      <path class="cls-62" d="M29.15,55.33c2.47-2.23,4.02-5.24,5.26-8.27-.07.26-.37,2.17-.44,2.47,0,0-.09-.04-.09-.04,3.33-4.31,7.11-8.53,8.65-13.87,0,0,.23.06.23.06-.71,3.94-1.62,7.99-3.93,11.35,0,0-.15-.22-.15-.22,2.93-.76,5.33-2.86,7.36-5.03,6.11-6.72,9.82-15.59,10.44-24.64,0,0,.39,0,.39,0-.02,10.39,4.53,19.29,13.17,25.11,2.69,1.9,5.58,3.51,8.54,4.96,0,0-.34.34-.34.34-.81-1.72-1.18-3.61-1.19-5.5,3.22,2.18,6.59,4.42,10.41,5.3,0,0,.14.03.14.03,0,0,.03.14.03.14.87,3.66,1.24,7.46.83,11.21-.75,7.5-4.49,14.3-5.27,21.77-.44,3.7-.24,7.45.38,11.12,0,0-.32.05-.32.05-1.31-13.7,7.1-26.01,6.98-39.57-.32-4.47-1.01-8.92-2.14-13.26,1.18,4.33,1.9,8.78,2.26,13.26.27,13.55-8.11,25.9-6.77,39.54,0,0-.32.04-.32.04-.64-3.7-.85-7.48-.42-11.22.75-7.48,4.47-14.31,5.2-21.77.39-3.7.02-7.44-.85-11.05l.18.17c-3.76-.85-7.04-2.96-10.19-5.07,0,0,.38-.21.38-.21.05,1.91.58,3.78,1.45,5.47,0,0-.65-.32-.65-.32-8.88-4.24-17.65-10.77-20.46-20.66-.96-3.2-1.36-6.53-1.42-9.85,0,0,.39,0,.39,0-.66,9.14-4.41,18.06-10.6,24.83-2.16,2.3-4.71,4.46-7.9,5.19,2.45-3.35,3.4-7.52,4.15-11.54,0,0,.23.06.23.06-1.62,5.43-5.52,9.66-8.93,14.02,0,0,.04-.2.04-.2,0,0,.4-2.1.4-2.1-.91,2.78-2.84,5.83-5.12,7.92h0Z"/>
      <path class="cls-23" d="M25.84,63.44c-11.35,24.51-10.07,37.82-4.31,46.89-7.31-18.69,2.38-20.35,4.28-31.86l.02-15.02Z"/>
      <g class="cls-44">
        <path class="cls-13" d="M52.9,117.62c1.85,8.55-1.29,11.78-4.38,17.07-2.15,6.52.35,11.99,7.49,16.4,3.03,1.58,5.47-.56,10.29.71l.77-4.54c-3.72-5.44-7.08.4-11.06-2.47-3.87-3.28-3.84-8.83-.23-12.37,1.61-1.19,2.69-2.18,1.63-7.13l-4.5-7.67Z"/>
      </g>
      <path class="cls-67" d="M62.79,10.04c7.04,1.69,14.81,7.41,15.28,12.57.09.96.85,1.74,1.09,2.66-.77-1.75-1.87-3.31-3.07-4.77-1.82-2.18-3.89-4.14-6.11-5.91-2.23-1.77-4.58-3.39-7.2-4.56h0Z"/>
      <path class="cls-67" d="M55.62,10.64c-10.44,2.65-21.9,11.93-22.51,20.41-.11,1.58-1.23,2.84-1.58,4.36,1.12-2.87,2.73-5.41,4.49-7.79,2.67-3.55,5.71-6.74,8.98-9.62,3.29-2.87,6.76-5.49,10.63-7.37h0Z"/>
      <path class="cls-67" d="M56.96,11.1c-7.31,5.76-11.57,11.24-10.91,16.27,1.99-4.82,6-10.38,10.91-16.27Z"/>
      <path class="cls-67" d="M60.5,10.64c8.37,6.14,14.87,12.18,12.64,17.63-1.33-4.23-6.66-10.74-12.64-17.63Z"/>
    </g>
    <g>
      <g>
        <path class="cls-18" d="M25.5,153.76c-.08,0-.16,0-.23,0s-.14-.02-.21-.05c-.07-.04-.13-.11-.18-.2-.03-.05-.04-.15-.05-.3,0-.15-.02-.3-.03-.45-.01-.15-.02-.3-.02-.44v-.31c-.01-.44-.02-.88-.02-1.31v-1.29c-.09-.19-.26-.51-.5-.96-.24-.45-.51-.97-.81-1.55-.3-.58-.62-1.19-.95-1.84-.33-.65-.65-1.26-.94-1.84-.29-.58-.55-1.1-.77-1.56s-.37-.79-.45-.99c-.03-.08-.04-.15-.04-.2.01-.07.06-.13.14-.18.09-.07.28-.18.57-.33s.59-.31.92-.47c.33-.16.64-.31.93-.45.29-.14.49-.24.6-.29.15-.07.3-.13.46-.18.16-.05.27,0,.34.14.44,1.08.85,2.16,1.24,3.24s.81,2.15,1.28,3.22c.39-1.13.78-2.25,1.19-3.36.41-1.11.84-2.21,1.31-3.32.04-.11.1-.23.17-.36.07-.13.16-.19.27-.18.47.05.93.12,1.38.2.45.08.91.17,1.36.28.11.03.22.05.34.08.12.03.23.06.32.11.09.05.16.1.2.17.04.07.04.15,0,.24-.09.21-.25.58-.48,1.11-.23.53-.49,1.13-.78,1.82-.29.69-.6,1.41-.93,2.18s-.64,1.49-.93,2.18c-.29.69-.55,1.3-.77,1.83s-.38.91-.47,1.12c0,.13,0,.39-.01.78s-.01.8-.02,1.24,0,.85,0,1.24,0,.65.02.78c.03.08.03.15,0,.22-.05.07-.15.1-.28.11-.13,0-.23,0-.3,0-.48,0-.96.01-1.44.04-.48.03-.95.05-1.42.08Z"/>
        <path class="cls-18" d="M35.82,153.9c-.11.04-.22.06-.34.05-.12,0-.24-.02-.36-.03-.11-.01-.29-.04-.56-.07-.27-.03-.55-.07-.86-.12s-.59-.09-.86-.13-.45-.07-.54-.1c-.17-.04-.33-.1-.46-.18-.15-.12-.22-.27-.22-.44.01-.16.05-.31.1-.46.05-.15.11-.29.18-.44.04-.09.1-.26.18-.5s.17-.51.27-.81c.1-.3.21-.62.32-.95.11-.33.22-.65.31-.96.09-.31.18-.58.25-.81.07-.23.12-.4.15-.51.15-.51.3-1.02.45-1.53.15-.51.32-1.02.51-1.53.04-.12.13-.37.26-.74.13-.37.27-.77.41-1.19.14-.42.27-.82.4-1.19.13-.37.21-.62.25-.74.05-.17.1-.34.13-.51.03-.17.06-.34.07-.53.01-.07.02-.13.03-.19,0-.06.03-.11.07-.15.05-.05.11-.09.18-.1.07-.01.13-.03.2-.04.45-.03.9-.06,1.35-.11.45-.05.9-.08,1.35-.11.27-.03.53-.04.78-.04s.51-.01.78-.04c.04,0,.11,0,.22-.02.11-.01.22-.02.35-.03.13,0,.24-.01.35-.02s.18,0,.22,0c.15,0,.25.03.3.1.04.04.08.11.12.2s.08.2.11.31c.03.11.06.22.09.32.03.1.05.18.06.23.17.64.34,1.28.51,1.93.17.65.32,1.3.47,1.95.17.8.37,1.59.6,2.37s.42,1.57.58,2.37c.05.24.1.48.14.71s.09.46.16.69c.03.11.08.3.16.58.08.28.17.58.26.9.09.32.18.62.27.91.09.29.15.48.19.57.03.07.05.13.08.19.03.06.05.12.06.19.03.12-.02.21-.14.26-.12.05-.25.09-.38.12-.35.05-.69.08-1.02.08s-.67,0-1.02.02c-.08,0-.22,0-.41.03-.19.02-.4.04-.61.07-.21.03-.42.05-.61.08s-.32.05-.39.06c-.08.03-.16.03-.23,0-.07-.03-.12-.07-.15-.14-.04-.13-.09-.39-.14-.78-.05-.39-.1-.8-.15-1.23-.05-.43-.09-.84-.14-1.23-.05-.39-.08-.65-.09-.8-.11,0-.33,0-.68.01s-.71,0-1.1,0-.75,0-1.1,0-.57,0-.68,0c-.11.51-.19,1.01-.25,1.52-.06.51-.14,1.01-.23,1.52-.03.15-.06.3-.09.45-.03.15-.09.3-.17.43-.03.05-.07.1-.12.15-.05.05-.11.08-.18.11ZM37.46,147.29c.44,0,.88,0,1.33,0,.45,0,.89,0,1.33-.03-.05-.43-.11-.85-.18-1.27-.07-.42-.13-.84-.18-1.27-.03-.25-.05-.51-.06-.76-.01-.25-.02-.51-.02-.78-.04.01-.1.03-.18.05-.08.02-.17.04-.26.05-.09.01-.18.03-.26.04s-.14.02-.18.02c-.07,0-.16.01-.29.04-.13.03-.21.06-.25.1-.05.04-.09.14-.11.31-.02.17-.04.28-.05.35-.09.53-.19,1.06-.3,1.58s-.22,1.04-.34,1.56Z"/>
        <path class="cls-18" d="M49.64,153.76c-.08,0-.16,0-.23,0s-.14-.02-.21-.05c-.07-.04-.13-.11-.18-.2-.03-.05-.04-.15-.05-.3,0-.15-.02-.3-.03-.45-.01-.15-.02-.3-.02-.44v-.31c-.01-.44-.02-.88-.02-1.31v-1.29c-.09-.19-.26-.51-.5-.96-.24-.45-.51-.97-.81-1.55-.3-.58-.62-1.19-.95-1.84-.33-.65-.65-1.26-.94-1.84-.29-.58-.55-1.1-.77-1.56s-.37-.79-.45-.99c-.03-.08-.04-.15-.04-.2.01-.07.06-.13.14-.18.09-.07.28-.18.57-.33s.59-.31.92-.47c.33-.16.64-.31.93-.45.29-.14.49-.24.6-.29.15-.07.3-.13.46-.18.16-.05.27,0,.34.14.44,1.08.85,2.16,1.24,3.24s.81,2.15,1.28,3.22c.39-1.13.78-2.25,1.19-3.36.41-1.11.84-2.21,1.31-3.32.04-.11.1-.23.17-.36.07-.13.16-.19.27-.18.47.05.93.12,1.38.2.45.08.91.17,1.36.28.11.03.22.05.34.08.12.03.23.06.32.11.09.05.16.1.2.17.04.07.04.15,0,.24-.09.21-.25.58-.48,1.11-.23.53-.49,1.13-.78,1.82-.29.69-.6,1.41-.93,2.18s-.64,1.49-.93,2.18c-.29.69-.55,1.3-.77,1.83s-.38.91-.47,1.12c0,.13,0,.39-.01.78s-.01.8-.02,1.24,0,.85,0,1.24,0,.65.02.78c.03.08.03.15,0,.22-.05.07-.15.1-.28.11-.13,0-.23,0-.3,0-.48,0-.96.01-1.44.04-.48.03-.95.05-1.42.08Z"/>
        <path class="cls-18" d="M59.96,153.9c-.11.04-.22.06-.34.05-.12,0-.24-.02-.36-.03-.11-.01-.29-.04-.56-.07-.27-.03-.55-.07-.86-.12s-.59-.09-.86-.13-.45-.07-.54-.1c-.17-.04-.33-.1-.46-.18-.15-.12-.22-.27-.22-.44.01-.16.05-.31.1-.46.05-.15.11-.29.18-.44.04-.09.1-.26.18-.5s.17-.51.27-.81c.1-.3.21-.62.32-.95.11-.33.22-.65.31-.96.09-.31.18-.58.25-.81.07-.23.12-.4.15-.51.15-.51.3-1.02.45-1.53.15-.51.32-1.02.51-1.53.04-.12.13-.37.26-.74.13-.37.27-.77.41-1.19.14-.42.27-.82.4-1.19.13-.37.21-.62.25-.74.05-.17.1-.34.13-.51.03-.17.06-.34.07-.53.01-.07.02-.13.03-.19,0-.06.03-.11.07-.15.05-.05.11-.09.18-.1.07-.01.13-.03.2-.04.45-.03.9-.06,1.35-.11.45-.05.9-.08,1.35-.11.27-.03.53-.04.78-.04s.51-.01.78-.04c.04,0,.11,0,.22-.02.11-.01.22-.02.35-.03.13,0,.24-.01.35-.02s.18,0,.22,0c.15,0,.25.03.3.1.04.04.08.11.12.2s.08.2.11.31c.03.11.06.22.09.32.03.1.05.18.06.23.17.64.34,1.28.51,1.93.17.65.32,1.3.47,1.95.17.8.37,1.59.6,2.37s.42,1.57.58,2.37c.05.24.1.48.14.71s.09.46.16.69c.03.11.08.3.16.58.08.28.17.58.26.9.09.32.18.62.27.91.09.29.15.48.19.57.03.07.05.13.08.19.03.06.05.12.06.19.03.12-.02.21-.14.26-.12.05-.25.09-.38.12-.35.05-.69.08-1.02.08s-.67,0-1.02.02c-.08,0-.22,0-.41.03-.19.02-.4.04-.61.07-.21.03-.42.05-.61.08s-.32.05-.39.06c-.08.03-.16.03-.23,0-.07-.03-.12-.07-.15-.14-.04-.13-.09-.39-.14-.78-.05-.39-.1-.8-.15-1.23-.05-.43-.09-.84-.14-1.23-.05-.39-.08-.65-.09-.8-.11,0-.33,0-.68.01s-.71,0-1.1,0-.75,0-1.1,0-.57,0-.68,0c-.11.51-.19,1.01-.25,1.52-.06.51-.14,1.01-.23,1.52-.03.15-.06.3-.09.45-.03.15-.09.3-.17.43-.03.05-.07.1-.12.15-.05.05-.11.08-.18.11ZM61.6,147.29c.44,0,.88,0,1.33,0,.45,0,.89,0,1.33-.03-.05-.43-.11-.85-.18-1.27-.07-.42-.13-.84-.18-1.27-.03-.25-.05-.51-.06-.76-.01-.25-.02-.51-.02-.78-.04.01-.1.03-.18.05-.08.02-.17.04-.26.05-.09.01-.18.03-.26.04s-.14.02-.18.02c-.07,0-.16.01-.29.04-.13.03-.21.06-.25.1-.05.04-.09.14-.11.31-.02.17-.04.28-.05.35-.09.53-.19,1.06-.3,1.58s-.22,1.04-.34,1.56Z"/>
        <path class="cls-18" d="M73.36,153.64c-.29.03-.58.05-.87.06-.29.01-.58.01-.87,0-.11,0-.21-.01-.3-.03-.09-.02-.17-.06-.22-.13-.04-.05-.07-.15-.08-.3-.01-.15-.03-.25-.04-.32-.07-.91-.08-1.81-.04-2.7.04-.89.05-1.79.04-2.68,0-.16,0-.44,0-.83,0-.39-.01-.85-.02-1.36,0-.51-.02-1.06-.03-1.64-.01-.58-.02-1.13-.03-1.64,0-.51-.01-.97-.02-1.36,0-.39,0-.67,0-.83,0-.13.09-.22.26-.25s.33-.06.48-.09c.64-.15,1.28-.26,1.92-.33.64-.07,1.28-.17,1.92-.29.11-.03.23-.04.38-.05s.24.04.28.15c.45,1.04.93,2.06,1.44,3.06.53,1.08,1.07,2.15,1.62,3.21s1.09,2.12,1.64,3.19c.01-.6.06-1.19.14-1.76s.15-1.15.2-1.74c.07-.64.12-1.28.16-1.92.04-.64.07-1.28.1-1.92.03-.29.04-.58.05-.87,0-.29.02-.58.05-.89.01-.05.03-.15.05-.29.02-.14.04-.24.07-.29.03-.04.08-.07.17-.09.09-.02.16-.03.23-.03.27.03.53.05.78.08.25.03.51.05.78.06.21,0,.42,0,.63-.02s.42-.01.63,0c.21,0,.39.03.52.1.13.07.22.17.26.32.04.15.03.31-.02.5-.01.09-.05.28-.1.56-.05.28-.11.58-.16.89-.05.31-.1.61-.15.89s-.08.47-.09.56c-.03.21-.06.58-.11,1.1s-.1,1.12-.17,1.8c-.07.68-.13,1.4-.2,2.16s-.13,1.48-.19,2.16c-.06.68-.12,1.28-.17,1.8-.05.52-.09.89-.12,1.1-.03.11-.05.21-.08.3-.03.09-.07.17-.14.24-.09.08-.24.13-.45.16-.21.03-.43.04-.67.04s-.47,0-.7-.03c-.23-.02-.4-.03-.52-.03-.23,0-.45.02-.68.07-.23.05-.45.06-.68.05-.11-.01-.21-.03-.3-.04-.09-.01-.18-.05-.26-.1-.12-.07-.23-.16-.32-.27s-.17-.23-.24-.35c-.72-1.2-1.38-2.42-1.99-3.65s-1.29-2.43-2.05-3.59c0,1.08.05,2.16.14,3.25.09,1.09.2,2.17.32,3.25,0,.04,0,.12.03.23.02.11.04.24.05.37.01.13.03.26.04.38.01.12.02.2.02.24,0,.07-.01.13-.04.18-.03.05-.07.09-.12.12-.08.04-.22.07-.42.08-.2.01-.41.02-.63.02s-.43,0-.64,0c-.21,0-.36-.01-.45-.01Z"/>
        <path class="cls-18" d="M88.79,153.48c-.05,0-.14.01-.25.03-.11.02-.24.04-.37.05-.13.01-.26.03-.37.04-.11.01-.2.01-.25,0-.11-.03-.19-.12-.24-.28-.05-.16-.09-.29-.12-.4-.21-1.16-.35-2.33-.42-3.51-.07-1.18-.08-2.36-.04-3.55s.12-2.37.23-3.56c.11-1.19.24-2.37.37-3.54.03-.16.09-.3.19-.42s.24-.17.41-.14c1.56.21,3.11.44,4.65.68,1.54.24,3.1.45,4.67.62.11.01.18.05.21.12.03.07.05.15.05.25s-.01.21-.04.32c-.03.11-.05.22-.06.31-.07.45-.13.91-.19,1.36-.06.45-.12.91-.19,1.36-.03.15-.12.21-.28.2-.16-.01-.31-.03-.46-.06-.12-.03-.32-.06-.61-.1-.29-.04-.62-.09-1-.15-.38-.06-.78-.12-1.19-.18-.41-.06-.81-.12-1.19-.17s-.71-.1-1-.14c-.29-.04-.49-.07-.61-.08-.13,1.17-.22,2.35-.26,3.53-.04,1.18-.05,2.36-.02,3.53.12,0,.35.01.68.03.33.02.69.04,1.07.05.38.01.74.02,1.07.03s.56,0,.68,0c.03-.27.05-.53.06-.78.01-.25.03-.51.04-.78h-1.59c-.14,0-.23-.05-.27-.14-.04-.08-.06-.24-.05-.47s.02-.48.03-.74c.01-.26.03-.5.05-.73.02-.23.02-.39,0-.48-.01-.05-.01-.11,0-.18.01-.07.04-.11.08-.14.04-.04.11-.06.2-.07.09,0,.19,0,.29,0s.2,0,.29.02c.09.01.17.02.22.02.11.01.34.03.69.04s.73.03,1.12.04.77.03,1.12.04.58.02.69.02c.17.03.34.06.51.09.17.03.23.14.19.31-.04.16-.08.43-.13.8-.05.37-.09.8-.14,1.29-.05.49-.1,1-.15,1.53-.05.53-.1,1.04-.14,1.52-.04.48-.07.91-.1,1.29-.03.38-.05.65-.06.81,0,.07-.02.14-.05.23s-.08.14-.13.17c-.04.03-.12.04-.25.04h-.27c-1.24-.05-2.47-.1-3.7-.14-1.23-.04-2.45.01-3.68.16Z"/>
      </g>
      <g>
        <path class="cls-7" d="M25.5,151.92c-.08,0-.16,0-.23,0s-.14-.02-.21-.05c-.07-.04-.13-.11-.18-.2-.03-.05-.04-.15-.05-.3,0-.15-.02-.3-.03-.45-.01-.15-.02-.3-.02-.44v-.31c-.01-.44-.02-.88-.02-1.31v-1.29c-.09-.19-.26-.51-.5-.96-.24-.45-.51-.97-.81-1.55-.3-.58-.62-1.19-.95-1.84-.33-.65-.65-1.26-.94-1.84-.29-.58-.55-1.1-.77-1.56s-.37-.79-.45-.99c-.03-.08-.04-.15-.04-.2.01-.07.06-.13.14-.18.09-.07.28-.18.57-.33s.59-.31.92-.47c.33-.16.64-.31.93-.45.29-.14.49-.24.6-.29.15-.07.3-.13.46-.18.16-.05.27,0,.34.14.44,1.08.85,2.16,1.24,3.24s.81,2.15,1.28,3.22c.39-1.13.78-2.25,1.19-3.36.41-1.11.84-2.21,1.31-3.32.04-.11.1-.23.17-.36.07-.13.16-.19.27-.18.47.05.93.12,1.38.2.45.08.91.17,1.36.28.11.03.22.05.34.08.12.03.23.06.32.11.09.05.16.1.2.17.04.07.04.15,0,.24-.09.21-.25.58-.48,1.11-.23.53-.49,1.13-.78,1.82-.29.69-.6,1.41-.93,2.18s-.64,1.49-.93,2.18c-.29.69-.55,1.3-.77,1.83s-.38.91-.47,1.12c0,.13,0,.39-.01.78s-.01.8-.02,1.24,0,.85,0,1.24,0,.65.02.78c.03.08.03.15,0,.22-.05.07-.15.1-.28.11-.13,0-.23,0-.3,0-.48,0-.96.01-1.44.04-.48.03-.95.05-1.42.08Z"/>
        <path class="cls-7" d="M35.82,152.06c-.11.04-.22.06-.34.05-.12,0-.24-.02-.36-.03-.11-.01-.29-.04-.56-.07-.27-.03-.55-.07-.86-.12s-.59-.09-.86-.13-.45-.07-.54-.1c-.17-.04-.33-.1-.46-.18-.15-.12-.22-.27-.22-.44.01-.16.05-.31.1-.46.05-.15.11-.29.18-.44.04-.09.1-.26.18-.5s.17-.51.27-.81c.1-.3.21-.62.32-.95.11-.33.22-.65.31-.96.09-.31.18-.58.25-.81.07-.23.12-.4.15-.51.15-.51.3-1.02.45-1.53.15-.51.32-1.02.51-1.53.04-.12.13-.37.26-.74.13-.37.27-.77.41-1.19.14-.42.27-.82.4-1.19.13-.37.21-.62.25-.74.05-.17.1-.34.13-.51.03-.17.06-.34.07-.53.01-.07.02-.13.03-.19,0-.06.03-.11.07-.15.05-.05.11-.09.18-.1.07-.01.13-.03.2-.04.45-.03.9-.06,1.35-.11.45-.05.9-.08,1.35-.11.27-.03.53-.04.78-.04s.51-.01.78-.04c.04,0,.11,0,.22-.02.11-.01.22-.02.35-.03.13,0,.24-.01.35-.02s.18,0,.22,0c.15,0,.25.03.3.1.04.04.08.11.12.2s.08.2.11.31c.03.11.06.22.09.32.03.1.05.18.06.23.17.64.34,1.28.51,1.93.17.65.32,1.3.47,1.95.17.8.37,1.59.6,2.37s.42,1.57.58,2.37c.05.24.1.48.14.71s.09.46.16.69c.03.11.08.3.16.58.08.28.17.58.26.9.09.32.18.62.27.91.09.29.15.48.19.57.03.07.05.13.08.19.03.06.05.12.06.19.03.12-.02.21-.14.26-.12.05-.25.09-.38.12-.35.05-.69.08-1.02.08s-.67,0-1.02.02c-.08,0-.22,0-.41.03-.19.02-.4.04-.61.07-.21.03-.42.05-.61.08s-.32.05-.39.06c-.08.03-.16.03-.23,0-.07-.03-.12-.07-.15-.14-.04-.13-.09-.39-.14-.78-.05-.39-.1-.8-.15-1.23-.05-.43-.09-.84-.14-1.23-.05-.39-.08-.65-.09-.8-.11,0-.33,0-.68.01s-.71,0-1.1,0-.75,0-1.1,0-.57,0-.68,0c-.11.51-.19,1.01-.25,1.52-.06.51-.14,1.01-.23,1.52-.03.15-.06.3-.09.45-.03.15-.09.3-.17.43-.03.05-.07.1-.12.15-.05.05-.11.08-.18.11ZM37.46,145.46c.44,0,.88,0,1.33,0,.45,0,.89,0,1.33-.03-.05-.43-.11-.85-.18-1.27-.07-.42-.13-.84-.18-1.27-.03-.25-.05-.51-.06-.76-.01-.25-.02-.51-.02-.78-.04.01-.1.03-.18.05-.08.02-.17.04-.26.05-.09.01-.18.03-.26.04s-.14.02-.18.02c-.07,0-.16.01-.29.04-.13.03-.21.06-.25.1-.05.04-.09.14-.11.31-.02.17-.04.28-.05.35-.09.53-.19,1.06-.3,1.58s-.22,1.04-.34,1.56Z"/>
        <path class="cls-7" d="M49.64,151.92c-.08,0-.16,0-.23,0s-.14-.02-.21-.05c-.07-.04-.13-.11-.18-.2-.03-.05-.04-.15-.05-.3,0-.15-.02-.3-.03-.45-.01-.15-.02-.3-.02-.44v-.31c-.01-.44-.02-.88-.02-1.31v-1.29c-.09-.19-.26-.51-.5-.96-.24-.45-.51-.97-.81-1.55-.3-.58-.62-1.19-.95-1.84-.33-.65-.65-1.26-.94-1.84-.29-.58-.55-1.1-.77-1.56s-.37-.79-.45-.99c-.03-.08-.04-.15-.04-.2.01-.07.06-.13.14-.18.09-.07.28-.18.57-.33s.59-.31.92-.47c.33-.16.64-.31.93-.45.29-.14.49-.24.6-.29.15-.07.3-.13.46-.18.16-.05.27,0,.34.14.44,1.08.85,2.16,1.24,3.24s.81,2.15,1.28,3.22c.39-1.13.78-2.25,1.19-3.36.41-1.11.84-2.21,1.31-3.32.04-.11.1-.23.17-.36.07-.13.16-.19.27-.18.47.05.93.12,1.38.2.45.08.91.17,1.36.28.11.03.22.05.34.08.12.03.23.06.32.11.09.05.16.1.2.17.04.07.04.15,0,.24-.09.21-.25.58-.48,1.11-.23.53-.49,1.13-.78,1.82-.29.69-.6,1.41-.93,2.18s-.64,1.49-.93,2.18c-.29.69-.55,1.3-.77,1.83s-.38.91-.47,1.12c0,.13,0,.39-.01.78s-.01.8-.02,1.24,0,.85,0,1.24,0,.65.02.78c.03.08.03.15,0,.22-.05.07-.15.1-.28.11-.13,0-.23,0-.3,0-.48,0-.96.01-1.44.04-.48.03-.95.05-1.42.08Z"/>
        <path class="cls-7" d="M59.96,152.06c-.11.04-.22.06-.34.05-.12,0-.24-.02-.36-.03-.11-.01-.29-.04-.56-.07-.27-.03-.55-.07-.86-.12s-.59-.09-.86-.13-.45-.07-.54-.1c-.17-.04-.33-.1-.46-.18-.15-.12-.22-.27-.22-.44.01-.16.05-.31.1-.46.05-.15.11-.29.18-.44.04-.09.1-.26.18-.5s.17-.51.27-.81c.1-.3.21-.62.32-.95.11-.33.22-.65.31-.96.09-.31.18-.58.25-.81.07-.23.12-.4.15-.51.15-.51.3-1.02.45-1.53.15-.51.32-1.02.51-1.53.04-.12.13-.37.26-.74.13-.37.27-.77.41-1.19.14-.42.27-.82.4-1.19.13-.37.21-.62.25-.74.05-.17.1-.34.13-.51.03-.17.06-.34.07-.53.01-.07.02-.13.03-.19,0-.06.03-.11.07-.15.05-.05.11-.09.18-.1.07-.01.13-.03.2-.04.45-.03.9-.06,1.35-.11.45-.05.9-.08,1.35-.11.27-.03.53-.04.78-.04s.51-.01.78-.04c.04,0,.11,0,.22-.02.11-.01.22-.02.35-.03.13,0,.24-.01.35-.02s.18,0,.22,0c.15,0,.25.03.3.1.04.04.08.11.12.2s.08.2.11.31c.03.11.06.22.09.32.03.1.05.18.06.23.17.64.34,1.28.51,1.93.17.65.32,1.3.47,1.95.17.8.37,1.59.6,2.37s.42,1.57.58,2.37c.05.24.1.48.14.71s.09.46.16.69c.03.11.08.3.16.58.08.28.17.58.26.9.09.32.18.62.27.91.09.29.15.48.19.57.03.07.05.13.08.19.03.06.05.12.06.19.03.12-.02.21-.14.26-.12.05-.25.09-.38.12-.35.05-.69.08-1.02.08s-.67,0-1.02.02c-.08,0-.22,0-.41.03-.19.02-.4.04-.61.07-.21.03-.42.05-.61.08s-.32.05-.39.06c-.08.03-.16.03-.23,0-.07-.03-.12-.07-.15-.14-.04-.13-.09-.39-.14-.78-.05-.39-.1-.8-.15-1.23-.05-.43-.09-.84-.14-1.23-.05-.39-.08-.65-.09-.8-.11,0-.33,0-.68.01s-.71,0-1.1,0-.75,0-1.1,0-.57,0-.68,0c-.11.51-.19,1.01-.25,1.52-.06.51-.14,1.01-.23,1.52-.03.15-.06.3-.09.45-.03.15-.09.3-.17.43-.03.05-.07.1-.12.15-.05.05-.11.08-.18.11ZM61.6,145.46c.44,0,.88,0,1.33,0,.45,0,.89,0,1.33-.03-.05-.43-.11-.85-.18-1.27-.07-.42-.13-.84-.18-1.27-.03-.25-.05-.51-.06-.76-.01-.25-.02-.51-.02-.78-.04.01-.1.03-.18.05-.08.02-.17.04-.26.05-.09.01-.18.03-.26.04s-.14.02-.18.02c-.07,0-.16.01-.29.04-.13.03-.21.06-.25.1-.05.04-.09.14-.11.31-.02.17-.04.28-.05.35-.09.53-.19,1.06-.3,1.58s-.22,1.04-.34,1.56Z"/>
        <path class="cls-7" d="M73.36,151.8c-.29.03-.58.05-.87.06-.29.01-.58.01-.87,0-.11,0-.21-.01-.3-.03-.09-.02-.17-.06-.22-.13-.04-.05-.07-.15-.08-.3-.01-.15-.03-.25-.04-.32-.07-.91-.08-1.81-.04-2.7.04-.89.05-1.79.04-2.68,0-.16,0-.44,0-.83,0-.39-.01-.85-.02-1.36,0-.51-.02-1.06-.03-1.64-.01-.58-.02-1.13-.03-1.64,0-.51-.01-.97-.02-1.36,0-.39,0-.67,0-.83,0-.13.09-.22.26-.25s.33-.06.48-.09c.64-.15,1.28-.26,1.92-.33.64-.07,1.28-.17,1.92-.29.11-.03.23-.04.38-.05s.24.04.28.15c.45,1.04.93,2.06,1.44,3.06.53,1.08,1.07,2.15,1.62,3.21s1.09,2.12,1.64,3.19c.01-.6.06-1.19.14-1.76s.15-1.15.2-1.74c.07-.64.12-1.28.16-1.92.04-.64.07-1.28.1-1.92.03-.29.04-.58.05-.87,0-.29.02-.58.05-.89.01-.05.03-.15.05-.29.02-.14.04-.24.07-.29.03-.04.08-.07.17-.09.09-.02.16-.03.23-.03.27.03.53.05.78.08.25.03.51.05.78.06.21,0,.42,0,.63-.02s.42-.01.63,0c.21,0,.39.03.52.1.13.07.22.17.26.32.04.15.03.31-.02.5-.01.09-.05.28-.1.56-.05.28-.11.58-.16.89-.05.31-.1.61-.15.89s-.08.47-.09.56c-.03.21-.06.58-.11,1.1s-.1,1.12-.17,1.8c-.07.68-.13,1.4-.2,2.16s-.13,1.48-.19,2.16c-.06.68-.12,1.28-.17,1.8-.05.52-.09.89-.12,1.1-.03.11-.05.21-.08.3-.03.09-.07.17-.14.24-.09.08-.24.13-.45.16-.21.03-.43.04-.67.04s-.47,0-.7-.03c-.23-.02-.4-.03-.52-.03-.23,0-.45.02-.68.07-.23.05-.45.06-.68.05-.11-.01-.21-.03-.3-.04-.09-.01-.18-.05-.26-.1-.12-.07-.23-.16-.32-.27s-.17-.23-.24-.35c-.72-1.2-1.38-2.42-1.99-3.65s-1.29-2.43-2.05-3.59c0,1.08.05,2.16.14,3.25.09,1.09.2,2.17.32,3.25,0,.04,0,.12.03.23.02.11.04.24.05.37.01.13.03.26.04.38.01.12.02.2.02.24,0,.07-.01.13-.04.18-.03.05-.07.09-.12.12-.08.04-.22.07-.42.08-.2.01-.41.02-.63.02s-.43,0-.64,0c-.21,0-.36-.01-.45-.01Z"/>
        <path class="cls-7" d="M88.79,151.64c-.05,0-.14.01-.25.03-.11.02-.24.04-.37.05-.13.01-.26.03-.37.04-.11.01-.2.01-.25,0-.11-.03-.19-.12-.24-.28-.05-.16-.09-.29-.12-.4-.21-1.16-.35-2.33-.42-3.51-.07-1.18-.08-2.36-.04-3.55s.12-2.37.23-3.56c.11-1.19.24-2.37.37-3.54.03-.16.09-.3.19-.42s.24-.17.41-.14c1.56.21,3.11.44,4.65.68,1.54.24,3.1.45,4.67.62.11.01.18.05.21.12.03.07.05.15.05.25s-.01.21-.04.32c-.03.11-.05.22-.06.31-.07.45-.13.91-.19,1.36-.06.45-.12.91-.19,1.36-.03.15-.12.21-.28.2-.16-.01-.31-.03-.46-.06-.12-.03-.32-.06-.61-.1-.29-.04-.62-.09-1-.15-.38-.06-.78-.12-1.19-.18-.41-.06-.81-.12-1.19-.17s-.71-.1-1-.14c-.29-.04-.49-.07-.61-.08-.13,1.17-.22,2.35-.26,3.53-.04,1.18-.05,2.36-.02,3.53.12,0,.35.01.68.03.33.02.69.04,1.07.05.38.01.74.02,1.07.03s.56,0,.68,0c.03-.27.05-.53.06-.78.01-.25.03-.51.04-.78h-1.59c-.14,0-.23-.05-.27-.14-.04-.08-.06-.24-.05-.47s.02-.48.03-.74c.01-.26.03-.5.05-.73.02-.23.02-.39,0-.48-.01-.05-.01-.11,0-.18.01-.07.04-.11.08-.14.04-.04.11-.06.2-.07.09,0,.19,0,.29,0s.2,0,.29.02c.09.01.17.02.22.02.11.01.34.03.69.04s.73.03,1.12.04.77.03,1.12.04.58.02.69.02c.17.03.34.06.51.09.17.03.23.14.19.31-.04.16-.08.43-.13.8-.05.37-.09.8-.14,1.29-.05.49-.1,1-.15,1.53-.05.53-.1,1.04-.14,1.52-.04.48-.07.91-.1,1.29-.03.38-.05.65-.06.81,0,.07-.02.14-.05.23s-.08.14-.13.17c-.04.03-.12.04-.25.04h-.27c-1.24-.05-2.47-.1-3.7-.14-1.23-.04-2.45.01-3.68.16Z"/>
      </g>
      <g>
        <path class="cls-58" d="M25.55,151.93c-.08,0-.16,0-.23,0s-.14-.02-.21-.05c-.07-.04-.13-.11-.18-.2-.03-.05-.04-.16-.05-.3,0-.15-.02-.3-.03-.45-.01-.16-.02-.3-.02-.45v-.31c-.01-.44-.02-.89-.02-1.32v-1.3c-.09-.19-.26-.51-.51-.97-.24-.46-.51-.98-.82-1.57-.3-.59-.62-1.21-.96-1.86-.34-.65-.65-1.27-.95-1.86s-.56-1.11-.78-1.58c-.22-.46-.37-.8-.46-1-.03-.08-.04-.15-.04-.2.01-.07.06-.13.14-.18.09-.07.29-.18.58-.33s.6-.31.93-.47c.33-.16.64-.31.94-.46.3-.14.5-.24.61-.29.15-.07.3-.13.46-.18.16-.05.28,0,.34.14.45,1.09.86,2.18,1.25,3.27.39,1.09.82,2.18,1.29,3.25.39-1.15.79-2.28,1.2-3.39s.85-2.24,1.32-3.35c.04-.11.1-.23.17-.36.07-.13.17-.2.27-.18.47.05.94.12,1.39.2.46.08.92.18,1.37.28.11.03.22.05.34.08s.23.06.32.11c.09.05.16.1.2.17.04.07.04.15,0,.24-.09.21-.26.59-.48,1.12-.23.53-.49,1.15-.79,1.84-.3.69-.61,1.43-.94,2.2s-.64,1.51-.94,2.2c-.3.69-.56,1.31-.78,1.85-.22.54-.38.92-.47,1.13,0,.13,0,.4-.01.79s-.01.81-.02,1.25c0,.44-.01.86-.01,1.25s0,.65.02.79c.03.08.03.15,0,.22-.05.07-.15.1-.28.11s-.24,0-.3,0c-.49,0-.97.01-1.46.04-.48.03-.96.05-1.43.08Z"/>
        <path class="cls-58" d="M35.97,152.07c-.11.04-.22.06-.34.05-.12,0-.24-.02-.36-.03-.11-.01-.3-.04-.57-.07-.27-.03-.56-.07-.87-.12-.31-.05-.6-.09-.87-.13s-.45-.07-.54-.1c-.18-.04-.33-.1-.46-.18-.15-.12-.22-.27-.22-.44.01-.16.05-.32.1-.46.05-.15.11-.3.18-.44.04-.09.1-.26.18-.5s.17-.52.27-.82c.1-.3.21-.62.32-.96.11-.34.22-.66.31-.97.09-.31.18-.58.25-.82s.12-.41.15-.52c.15-.51.3-1.03.46-1.54.15-.52.33-1.03.51-1.55.04-.12.13-.37.26-.75s.27-.78.41-1.2c.14-.42.28-.83.4-1.2s.21-.63.25-.75c.05-.17.1-.35.13-.51.03-.17.06-.35.07-.54.01-.07.02-.13.03-.19s.03-.11.07-.15c.05-.05.11-.09.18-.1.07-.01.13-.03.2-.04.46-.03.91-.06,1.36-.11.45-.05.91-.08,1.36-.11.27-.03.53-.04.79-.04s.52-.01.79-.04c.04,0,.11,0,.22-.02.11-.01.23-.02.35-.03s.25-.01.35-.02c.11,0,.18,0,.22,0,.15,0,.25.03.3.1.04.04.08.11.12.2.04.09.08.2.11.31.03.11.06.22.09.32s.05.18.06.23c.17.65.35,1.3.52,1.95.17.65.33,1.31.47,1.97.17.81.38,1.61.61,2.39.23.79.42,1.59.59,2.39.05.24.1.48.14.72.04.24.09.47.16.7.03.11.08.3.16.59.08.28.17.59.26.91.09.32.18.63.27.92.09.29.15.48.19.58.03.07.05.13.08.19.03.06.05.12.06.19.03.12-.02.21-.14.26-.12.05-.25.09-.38.12-.35.05-.69.08-1.03.08s-.68,0-1.03.02c-.08,0-.22,0-.41.03-.2.02-.4.04-.62.07-.22.03-.42.05-.62.08-.2.03-.33.05-.39.06-.08.03-.16.03-.23,0-.07-.03-.12-.07-.15-.14-.04-.13-.09-.4-.14-.79s-.1-.8-.15-1.24-.09-.85-.14-1.24c-.05-.39-.08-.66-.09-.81-.11,0-.34,0-.69,0-.35,0-.72,0-1.11,0s-.76,0-1.11.01c-.35,0-.58,0-.69,0-.11.51-.19,1.02-.25,1.54-.06.51-.14,1.02-.23,1.54-.03.15-.06.3-.09.46-.03.15-.09.3-.17.43-.03.05-.07.1-.12.15-.05.05-.12.08-.18.11ZM37.63,145.4c.44,0,.89,0,1.34.01s.9,0,1.34-.03c-.05-.43-.12-.86-.18-1.28-.07-.42-.13-.85-.18-1.28-.03-.26-.05-.51-.06-.77s-.02-.52-.02-.79c-.04.01-.1.03-.18.05-.08.02-.17.04-.26.05-.09.01-.18.03-.26.04-.08.01-.14.02-.18.02-.07,0-.17.01-.29.04s-.21.06-.25.1c-.05.04-.09.15-.11.31-.02.17-.04.29-.05.35-.09.54-.2,1.07-.3,1.6-.11.53-.22,1.05-.34,1.58Z"/>
        <path class="cls-58" d="M49.94,151.93c-.08,0-.16,0-.23,0s-.14-.02-.21-.05c-.07-.04-.13-.11-.18-.2-.03-.05-.04-.16-.05-.3,0-.15-.02-.3-.03-.45-.01-.16-.02-.3-.02-.45v-.31c-.01-.44-.02-.89-.02-1.32v-1.3c-.09-.19-.26-.51-.51-.97-.24-.46-.51-.98-.82-1.57-.3-.59-.62-1.21-.96-1.86-.34-.65-.65-1.27-.95-1.86s-.56-1.11-.78-1.58c-.22-.46-.37-.8-.46-1-.03-.08-.04-.15-.04-.2.01-.07.06-.13.14-.18.09-.07.29-.18.58-.33s.6-.31.93-.47c.33-.16.64-.31.94-.46.3-.14.5-.24.61-.29.15-.07.3-.13.46-.18.16-.05.28,0,.34.14.45,1.09.86,2.18,1.25,3.27.39,1.09.82,2.18,1.29,3.25.39-1.15.79-2.28,1.2-3.39s.85-2.24,1.32-3.35c.04-.11.1-.23.17-.36.07-.13.17-.2.27-.18.47.05.94.12,1.39.2.46.08.92.18,1.37.28.11.03.22.05.34.08s.23.06.32.11c.09.05.16.1.2.17.04.07.04.15,0,.24-.09.21-.26.59-.48,1.12-.23.53-.49,1.15-.79,1.84-.3.69-.61,1.43-.94,2.2s-.64,1.51-.94,2.2c-.3.69-.56,1.31-.78,1.85-.22.54-.38.92-.47,1.13,0,.13,0,.4-.01.79s-.01.81-.02,1.25c0,.44-.01.86-.01,1.25s0,.65.02.79c.03.08.03.15,0,.22-.05.07-.15.1-.28.11s-.24,0-.3,0c-.49,0-.97.01-1.46.04-.48.03-.96.05-1.43.08Z"/>
        <path class="cls-58" d="M60.36,152.07c-.11.04-.22.06-.34.05-.12,0-.24-.02-.36-.03-.11-.01-.3-.04-.57-.07-.27-.03-.56-.07-.87-.12-.31-.05-.6-.09-.87-.13s-.45-.07-.54-.1c-.18-.04-.33-.1-.46-.18-.15-.12-.22-.27-.22-.44.01-.16.05-.32.1-.46.05-.15.11-.3.18-.44.04-.09.1-.26.18-.5s.17-.52.27-.82c.1-.3.21-.62.32-.96.11-.34.22-.66.31-.97.09-.31.18-.58.25-.82s.12-.41.15-.52c.15-.51.3-1.03.46-1.54.15-.52.33-1.03.51-1.55.04-.12.13-.37.26-.75s.27-.78.41-1.2c.14-.42.28-.83.4-1.2s.21-.63.25-.75c.05-.17.1-.35.13-.51.03-.17.06-.35.07-.54.01-.07.02-.13.03-.19s.03-.11.07-.15c.05-.05.11-.09.18-.1.07-.01.13-.03.2-.04.46-.03.91-.06,1.36-.11.45-.05.91-.08,1.36-.11.27-.03.53-.04.79-.04s.52-.01.79-.04c.04,0,.11,0,.22-.02.11-.01.23-.02.35-.03s.25-.01.35-.02c.11,0,.18,0,.22,0,.15,0,.25.03.3.1.04.04.08.11.12.2.04.09.08.2.11.31.03.11.06.22.09.32s.05.18.06.23c.17.65.35,1.3.52,1.95.17.65.33,1.31.47,1.97.17.81.38,1.61.61,2.39.23.79.42,1.59.59,2.39.05.24.1.48.14.72.04.24.09.47.16.7.03.11.08.3.16.59.08.28.17.59.26.91.09.32.18.63.27.92.09.29.15.48.19.58.03.07.05.13.08.19.03.06.05.12.06.19.03.12-.02.21-.14.26-.12.05-.25.09-.38.12-.35.05-.69.08-1.03.08s-.68,0-1.03.02c-.08,0-.22,0-.41.03-.2.02-.4.04-.62.07-.22.03-.42.05-.62.08-.2.03-.33.05-.39.06-.08.03-.16.03-.23,0-.07-.03-.12-.07-.15-.14-.04-.13-.09-.4-.14-.79s-.1-.8-.15-1.24-.09-.85-.14-1.24c-.05-.39-.08-.66-.09-.81-.11,0-.34,0-.69,0-.35,0-.72,0-1.11,0s-.76,0-1.11.01c-.35,0-.58,0-.69,0-.11.51-.19,1.02-.25,1.54-.06.51-.14,1.02-.23,1.54-.03.15-.06.3-.09.46-.03.15-.09.3-.17.43-.03.05-.07.1-.12.15-.05.05-.12.08-.18.11ZM62.02,145.4c.44,0,.89,0,1.34.01s.9,0,1.34-.03c-.05-.43-.12-.86-.18-1.28-.07-.42-.13-.85-.18-1.28-.03-.26-.05-.51-.06-.77s-.02-.52-.02-.79c-.04.01-.1.03-.18.05-.08.02-.17.04-.26.05-.09.01-.18.03-.26.04-.08.01-.14.02-.18.02-.07,0-.17.01-.29.04s-.21.06-.25.1c-.05.04-.09.15-.11.31-.02.17-.04.29-.05.35-.09.54-.2,1.07-.3,1.6-.11.53-.22,1.05-.34,1.58Z"/>
        <path class="cls-58" d="M73.9,151.81c-.3.03-.59.05-.88.06-.29.01-.58.01-.88,0-.11,0-.21,0-.3-.03-.09-.02-.17-.06-.22-.13-.04-.05-.07-.16-.08-.3-.01-.15-.03-.26-.04-.32-.07-.92-.08-1.83-.04-2.73.04-.9.05-1.8.04-2.71,0-.16,0-.44,0-.84s-.01-.86-.02-1.37-.02-1.07-.03-1.66-.02-1.14-.03-1.66-.01-.98-.02-1.37c0-.4-.01-.68-.01-.84,0-.13.09-.22.26-.25.17-.03.34-.06.49-.09.65-.15,1.29-.26,1.94-.33.65-.07,1.29-.17,1.94-.29.11-.03.24-.04.38-.05.15,0,.24.04.28.15.46,1.05.94,2.08,1.46,3.09.54,1.09,1.08,2.17,1.64,3.24.55,1.07,1.1,2.15,1.66,3.22.01-.61.06-1.2.14-1.78.08-.58.15-1.16.2-1.76.07-.65.12-1.29.16-1.94.04-.65.07-1.29.1-1.94.03-.3.04-.59.05-.88s.02-.59.05-.9c.01-.05.03-.15.05-.29.02-.14.04-.24.07-.29.03-.04.08-.07.17-.09.09-.02.16-.03.23-.03.27.03.53.05.79.08.26.03.52.05.79.06.22,0,.43,0,.64-.02s.42-.01.64,0c.21,0,.39.03.53.1s.22.17.26.32c.04.15.03.32-.02.5-.01.09-.05.28-.1.57-.05.28-.11.58-.16.9s-.1.62-.15.9c-.05.28-.08.47-.09.57-.03.22-.06.59-.11,1.11s-.1,1.13-.17,1.82c-.07.69-.13,1.41-.2,2.18-.07.77-.13,1.5-.19,2.18-.06.69-.12,1.29-.17,1.82s-.09.9-.12,1.11c-.03.11-.05.21-.08.3-.03.09-.07.17-.14.24-.09.08-.25.13-.45.16-.21.03-.43.04-.68.04s-.48-.01-.71-.03c-.23-.02-.4-.03-.53-.03-.23,0-.46.02-.69.07-.23.05-.46.06-.69.05-.11-.01-.21-.03-.3-.04-.09-.01-.18-.05-.26-.1-.12-.07-.23-.16-.32-.27-.09-.11-.17-.23-.24-.35-.73-1.21-1.4-2.44-2.01-3.69s-1.3-2.46-2.07-3.63c0,1.09.05,2.19.14,3.28.09,1.1.2,2.19.32,3.28,0,.04.01.12.03.23.02.11.04.24.05.37s.03.26.04.38.02.2.02.24c0,.07-.01.13-.04.18-.03.05-.07.09-.12.12-.08.04-.22.07-.42.08s-.41.02-.64.02-.44,0-.65,0c-.21,0-.36-.01-.45-.01Z"/>
        <path class="cls-58" d="M89.48,151.64c-.05,0-.14,0-.25.03s-.24.04-.37.05c-.13.01-.26.03-.37.04-.11.01-.2.01-.25,0-.11-.03-.19-.12-.24-.28-.05-.16-.09-.3-.12-.4-.21-1.17-.36-2.35-.42-3.55-.07-1.19-.08-2.39-.04-3.59.04-1.2.12-2.4.23-3.6.12-1.2.24-2.39.37-3.58.03-.16.09-.3.19-.42.1-.12.24-.17.41-.14,1.58.22,3.14.45,4.7.69,1.56.24,3.13.45,4.72.63.11.01.18.05.21.12.03.07.05.15.05.25s-.01.21-.04.32-.05.22-.06.31c-.07.46-.13.92-.19,1.37s-.12.92-.19,1.37c-.03.15-.12.21-.28.2-.16-.01-.32-.03-.46-.06-.12-.03-.33-.06-.62-.1-.29-.04-.63-.09-1.01-.15s-.79-.12-1.2-.18c-.42-.06-.82-.12-1.2-.17s-.72-.1-1.01-.14c-.29-.04-.5-.07-.62-.08-.13,1.19-.22,2.37-.26,3.57-.04,1.19-.05,2.38-.02,3.57.12,0,.35,0,.69.03s.7.04,1.08.05.74.02,1.08.03.57,0,.69,0c.03-.27.05-.53.06-.79.01-.26.03-.52.04-.79h-1.61c-.14,0-.23-.05-.27-.14-.04-.08-.06-.24-.05-.47,0-.24.02-.48.03-.75s.03-.51.05-.74c.02-.23.02-.39,0-.48-.01-.05-.01-.11,0-.18s.04-.11.08-.14c.04-.04.11-.06.2-.07.09,0,.19,0,.29,0s.2,0,.29.02c.09.01.17.02.22.02.11.01.34.03.7.04.36.01.73.03,1.13.04.4.01.77.03,1.13.04.36.01.59.02.7.02.17.03.35.06.52.09.17.03.23.14.19.31-.04.16-.08.43-.13.81-.05.38-.09.81-.14,1.3-.05.49-.1,1.01-.15,1.55s-.1,1.05-.14,1.54c-.04.49-.07.92-.1,1.3-.03.38-.05.66-.06.82,0,.07-.02.14-.05.23-.03.09-.08.14-.13.17-.04.03-.12.04-.25.04h-.27c-1.25-.05-2.5-.1-3.74-.14-1.24-.04-2.48.01-3.72.16Z"/>
      </g>
    </g>
  </g>
</svg>