<?xml version="1.0" encoding="UTF-8"?>
<svg id="Layer_2" data-name="Layer 2" xmlns="http://www.w3.org/2000/svg" xmlns:xlink="http://www.w3.org/1999/xlink" viewBox="0 0 358.43 276.25">
  <defs>
    <style>
      .cls-1, .cls-2, .cls-3, .cls-4, .cls-5, .cls-6, .cls-7, .cls-8, .cls-9 {
        stroke-miterlimit: 10;
      }

      .cls-1, .cls-2, .cls-5, .cls-6, .cls-7 {
        fill: none;
      }

      .cls-1, .cls-3, .cls-4, .cls-6, .cls-7, .cls-8 {
        stroke-width: .92px;
      }

      .cls-1, .cls-4 {
        stroke: #c6c6c6;
      }

      .cls-10 {
        clip-rule: evenodd;
      }

      .cls-10, .cls-11, .cls-12, .cls-9 {
        fill: #e5e3e1;
      }

      .cls-2 {
        stroke-width: 1.36px;
      }

      .cls-2, .cls-13, .cls-14, .cls-12, .cls-15, .cls-16 {
        fill-rule: evenodd;
      }

      .cls-2, .cls-5, .cls-9 {
        stroke: #999;
      }

      .cls-13, .cls-17 {
        fill: #bcb7bb;
      }

      .cls-3, .cls-18 {
        fill: #e5e1df;
      }

      .cls-3, .cls-7 {
        stroke: #c9c5c3;
      }

      .cls-14 {
        fill: #837e86;
      }

      .cls-4, .cls-19 {
        fill: #f9f9f9;
      }

      .cls-20, .cls-8 {
        fill: #f8fbfe;
      }

      .cls-21 {
        clip-path: url(#clippath-1);
      }

      .cls-22 {
        clip-path: url(#clippath-3);
      }

      .cls-23 {
        clip-path: url(#clippath-4);
      }

      .cls-24 {
        clip-path: url(#clippath-2);
      }

      .cls-25 {
        clip-path: url(#clippath-7);
      }

      .cls-26 {
        clip-path: url(#clippath-6);
      }

      .cls-27 {
        clip-path: url(#clippath-8);
      }

      .cls-28 {
        clip-path: url(#clippath-5);
      }

      .cls-5, .cls-9 {
        stroke-width: 2px;
      }

      .cls-29 {
        fill: #fff;
      }

      .cls-30 {
        fill: #191918;
      }

      .cls-31, .cls-16 {
        fill: #635d68;
      }

      .cls-6, .cls-8 {
        stroke: #d1d1d1;
      }

      .cls-32, .cls-15 {
        fill: #d9dadb;
      }

      .cls-33, .cls-34, .cls-35, .cls-36 {
        fill: #20164c;
      }

      .cls-33, .cls-37 {
        opacity: .15;
      }

      .cls-34 {
        opacity: .4;
      }

      .cls-35 {
        opacity: .2;
      }

      .cls-36 {
        opacity: .3;
      }

      .cls-38 {
        fill: #0c0812;
      }

      .cls-39 {
        fill: #b33c33;
      }

      .cls-37 {
        fill: #d7c5ff;
      }

      .cls-40 {
        clip-path: url(#clippath);
      }
    </style>
    <clipPath id="clippath">
      <rect class="cls-9" x="258.88" y="-2.53" width="8.25" height="207.82" transform="translate(-17.95 124.08) rotate(-25.7)"/>
    </clipPath>
    <clipPath id="clippath-1">
      <rect class="cls-9" x="165.92" y="-2.53" width="8.25" height="207.82" transform="translate(279.32 266.48) rotate(-154.3)"/>
    </clipPath>
    <clipPath id="clippath-2">
      <path id="Path-2" data-name="Path" class="cls-10" d="M84.63,161.74c-3.14,2.85-5.68,6.33-7.61,10.45v73.95c.62,5.43,2.67,9.58,6.14,12.43,3.47,2.85,9.09,5.75,16.87,8.69l73.64,1.4,7.39-3.72h18.15l9.06,3.72h17.43l4.52-2.7,3.13,1.97,98.85,1.58c7.58-1.35,13.45-4.27,17.6-8.77,4.15-4.5,6.23-9.36,6.23-14.59v-80.13c-1.72-4.07-3.79-6.98-6.23-8.71-2.43-1.74-6.23-3.1-11.39-4.1H101.42c-8.06,2.84-13.65,5.69-16.79,8.54Z"/>
    </clipPath>
    <clipPath id="clippath-3">
      <path class="cls-3" d="M55.81,269.08c-24.61-5.02-46.07-32.15-44.3-52.49,2.07-23.76,24.04-39.83,50.88-37.5s53.77,21.39,44.05,56.43c-2.39,8.62-2.39,18.28-8.02,22.22l-19.99,14.27c-7.62,2.67-13.51,2.17-17.64-1.53l-4.98-1.39Z"/>
    </clipPath>
    <clipPath id="clippath-4">
      <path class="cls-39" d="M55.87,248.13c7.86,24.47,23.5,21.05,22.27-5.28-4.68,12.88-14.86,13.37-22.27,5.28Z"/>
    </clipPath>
    <clipPath id="clippath-5">
      <ellipse class="cls-4" cx="86.64" cy="216.58" rx="12.56" ry="16.29" transform="translate(-134.31 141.8) rotate(-49.5)"/>
    </clipPath>
    <clipPath id="clippath-6">
      <ellipse class="cls-4" cx="39.45" cy="226.33" rx="16.29" ry="12.56" transform="translate(-173.59 140.33) rotate(-58.13)"/>
    </clipPath>
    <clipPath id="clippath-7">
      <path class="cls-8" d="M30.83,172.54c-5.43-1.82-7.7.47-9.73-1.79-1.05-2.39,5.03-2.07,1.25-6.25-8.98-.91-12.19,1.05-15.27-.39-2.65-1.18-2.37-4.71-.83-10.56-1.67-.57-2.85-12.23-1.37-11.55,3.38,1.53,9.16,1.09,10.95-5.38,2.46-.86,7.08,2.85,10.96,2.25,11.18-4,18.22-13.36,21.59-11.98,4.41,1.43,7.11,8.62,9.88,9.57,3.55,1.18,4.29-3.33,8.32-2.81,5.47.96,13.38,4.44,16.66,11.86.43.97.2,2.1-.56,2.83-.42.4-.9.77-1.29,1.08,11.35,5.62,13.33,9.84,3.29,12.25,1.64,2.75,1.96,5.14,1.49,6.75-.14.47-.58.78-1.07.76-2.76-.1-3.76.21-5.41,1.12l-48.84,2.22Z"/>
    </clipPath>
    <clipPath id="clippath-8">
      <path class="cls-8" d="M24.75,199.38c-.92.62-1.78,1.33-2.58,2.11-7.57,7.41-8.72,14.08-3.07,26.96,5.88,10.34,10.26,16.04,11.18,24.79,3.09,5.46,21.81,9.04,30.51,17.24-4.1.86-9.36.13-15.15-1.32-11.25-3.74-25.74-10.44-34.74-18.7-1.74-3.06-7.29-16.04-9.58-26.26-1.49-6.67-1.1-14.39,1.48-22.19,1.09-3.3,3.16-6.17,5.84-8.38,6.38-5.26,12.02-17.08,25.66-26.3,16.32-8.58,36.74-4.82,62.96,9.92,10.2,8.92,11.29,17.06,15.84,25.89.75,1.45,1.17,3.05,1.24,4.68.42,10.74,0,18.13,2.65,25.52-3.7,17.15-19.33,28.75-38.56,38.69.27-8.93,16.4-7.69,22.11-30.81.77-3.1,1.12-6.28,1.1-9.48.25-10.55.35-20.49-.17-27.7-6.2-6.62-12.69-11.94-19.5-15.82-7.33-2.74-15.07-4.27-23.12-4.84-10.03.77-21.42,7.4-34.11,16.02Z"/>
    </clipPath>
  </defs>
  <g id="Layer_9" data-name="Layer 9">
    <g>
      <rect class="cls-11" x="258.88" y="-2.53" width="8.25" height="207.82" transform="translate(-17.95 124.08) rotate(-25.7)"/>
      <g class="cls-40">
        <rect class="cls-32" x="264.03" y="-9.5" width="5.74" height="217.15" transform="translate(-16.56 125.54) rotate(-25.7)"/>
        <rect class="cls-17" x="258.44" y="-1.2" width="5.74" height="217.15" transform="translate(-20.71 123.94) rotate(-25.7)"/>
      </g>
      <rect class="cls-5" x="258.88" y="-2.53" width="8.25" height="207.82" transform="translate(-17.95 124.08) rotate(-25.7)"/>
    </g>
    <g>
      <rect class="cls-11" x="165.92" y="-2.53" width="8.25" height="207.82" transform="translate(279.32 266.48) rotate(-154.3)"/>
      <g class="cls-21">
        <rect class="cls-32" x="163.29" y="-9.5" width="5.74" height="217.15" transform="translate(272.92 260.41) rotate(-154.3)"/>
        <rect class="cls-17" x="168.88" y="-1.2" width="5.74" height="217.15" transform="translate(279.94 278.61) rotate(-154.3)"/>
      </g>
      <rect class="cls-5" x="165.92" y="-2.53" width="8.25" height="207.82" transform="translate(279.32 266.48) rotate(-154.3)"/>
    </g>
    <g>
      <g>
        <path id="Path" class="cls-12" d="M84.63,161.74c-3.14,2.85-5.68,6.33-7.61,10.45v73.95c.62,5.43,2.67,9.58,6.14,12.43,3.47,2.85,9.09,5.75,16.87,8.69l73.64,1.4,7.39-3.72h18.15l9.06,3.72h17.43l4.52-2.7,3.13,1.97,98.85,1.58c7.58-1.35,13.45-4.27,17.6-8.77,4.15-4.5,6.23-9.36,6.23-14.59v-80.13c-1.72-4.07-3.79-6.98-6.23-8.71-2.43-1.74-6.23-3.1-11.39-4.1H101.42c-8.06,2.84-13.65,5.69-16.79,8.54Z"/>
        <g class="cls-24">
          <path id="Path-3" data-name="Path" class="cls-15" d="M336.35,153.2l-15.34,4.39-10.1,3.08h16.58c7.47.44,12.38,1.42,14.73,2.94,2.35,1.52,3.47,4.44,3.36,8.76l4.01,58.87,6.47,4.33v-69.55c2.54-3.24.22-9.59-4.04-10.19,0-1.93-7.97-3.55-15.67-2.62Z"/>
          <path id="Path-4" data-name="Path" class="cls-14" d="M349.59,231.24l6.47,4.33v12.9c-.8,3.16-1.58,5.41-2.33,6.76-1.78,3.21-4.07,6.02-5.92,7.48-1.89,1.49-5.59,3.94-9.8,5.39-1.66.57-3.77,1.04-6.33,1.41l-24.38-.36,7.83-5.68c14.59-.42,23.11-1.75,25.56-3.99,4.83-4.41,7.8-13.82,8.9-28.24Z"/>
          <polygon id="Path-5" data-name="Path" class="cls-15" points="315.81 160.67 106.85 161.28 101.45 153.2 336.35 153.2 315.81 160.67"/>
          <path id="Path-6" data-name="Path" class="cls-15" d="M106.86,161.28c-5.04,2.08-8.69,4.06-10.96,5.96s-3.88,4.83-4.84,8.79l-14.02-3.84c2.74-5.22,5.7-9.06,8.88-11.52,3.18-2.46,8.36-4.95,15.53-7.47l5.41,8.08Z"/>
          <polygon id="Path-7" data-name="Path" class="cls-13" points="91.06 176.03 91.06 246.92 77.04 244.23 77.04 172.19 91.06 176.03"/>
          <polygon id="Path-8" data-name="Path" class="cls-16" points="199.36 264.96 208.31 268.66 225.7 268.66 230.22 265.96 199.36 264.96"/>
          <polygon id="Path-9" data-name="Path" class="cls-16" points="230.22 265.96 233.35 267.93 329.41 269.5 323.07 263.31 230.22 265.96"/>
          <path id="Path-10" data-name="Path" class="cls-13" d="M356.06,166.01l-10.56,3.43c1.16,19.97,2.16,35.32,3.01,46.05.85,10.73.63,20.39-.68,28.98l8.23-4.55v-73.9Z"/>
          <polygon id="Path-11" data-name="Path" class="cls-16" points="96.73 261.73 90.46 263.3 100.05 267.26 173.62 268.66 181.69 264.96 96.73 261.73"/>
          <path id="uuid-9a73c368-4840-4b7e-a54d-dda443a449d4" data-name="Path-2" class="cls-14" d="M91.06,246.92l-14.02-2.69c.01,2.22.14,3.88.39,4.99.47,2.11,1.53,4.6,2.26,5.85,1.31,2.24,4.9,4.99,10.77,8.23l6.27-1.57c-2.63-2.7-4.27-4.92-4.94-6.66-.67-1.74-.91-4.46-.74-8.15Z"/>
          <path id="Path-12" data-name="Path" class="cls-14" d="M354.62,186.99c.88,1.38,1.46,2.26,1.74,2.64.28.38.97,1.23,2.07,2.54l-1.36-1.08c-.7-.43-1.94-.98-3.72-1.65-1.78-.67-3.89-1.39-6.31-2.17l-30.63-22,1.4.32,28.86,20.79c2.94,1.03,4.89,1.58,5.84,1.65.96.07,1.66-.27,2.12-1.04Z"/>
          <path id="Path-13" data-name="Path" class="cls-13" d="M331.97,242.07c-1.02,1.01-1.6,1.86-1.74,2.53s.38,1.6,1.56,2.8c1.41,1.69,2.5,2.63,3.26,2.83.76.19,1.63-.25,2.61-1.33.95-.98,1.43-1.78,1.43-2.4,0-.62-.48-1.54-1.44-2.75-1.38-.95-2.38-1.52-2.99-1.71-.61-.19-1.51-.18-2.7.04Z"/>
          <path id="Path-14" data-name="Path" class="cls-13" d="M341.17,250.62c-.49-.75-.96-1.16-1.43-1.21-.47-.06-1.33.45-2.56,1.52-1.68,1.3-2.7,2.27-3.06,2.91-.36.64-.27,1.32.28,2.03.48.7.95,1.02,1.43.97.47-.05,1.3-.52,2.49-1.41,1.11-1.21,1.82-2.08,2.13-2.6s.56-1.25.72-2.21Z"/>
          <path id="Path-15" data-name="Path" class="cls-13" d="M331.72,256.13c1.06-1.66,1.63-2.95,1.69-3.89.06-.94-.69-2.04-2.26-3.3-1.92-1.86-3.35-2.81-4.28-2.85-.93-.04-1.9.81-2.9,2.54-.99,1.59-1.43,2.8-1.34,3.63.09.83.79,1.93,2.11,3.27,1.78.87,3.04,1.35,3.79,1.43.75.08,1.82-.2,3.19-.83Z"/>
          <path id="Path-16" data-name="Path" class="cls-13" d="M108.27,166.34c-1.56-.37-2.65-.48-3.26-.33-.61.14-.93.58-.94,1.31.06,1.74.37,2.88.95,3.41s1.86.89,3.87,1.06c2.09.46,3.49.64,4.2.55.71-.09,1.35-.53,1.91-1.32-.4-1.39-1-2.35-1.78-2.9-.78-.55-2.43-1.14-4.94-1.77Z"/>
          <path id="Path-17" data-name="Path" class="cls-13" d="M104.06,173.83c-.17-.69-.47-1.1-.91-1.24-.44-.14-1.14-.04-2.09.29-2.24.83-3.59,1.46-4.05,1.9-.46.44-.38,1.03.22,1.78.27.91.61,1.46,1.02,1.66.41.2,1.25.2,2.51.02,1.64-.78,2.65-1.42,3.04-1.94s.48-1.34.27-2.47Z"/>
          <path id="Path-18" data-name="Path" class="cls-13" d="M108.51,173.53c-.79-.16-1.38-.07-1.77.28-.39.35-.69,1.04-.91,2.09-.46,2.48-.6,4.03-.42,4.65s.81.83,1.91.62c1.06.17,1.81.1,2.25-.19.43-.29.92-1.07,1.46-2.33.16-1.89.09-3.13-.2-3.73-.29-.6-1.07-1.06-2.32-1.39Z"/>
          <path class="cls-31" d="M300.31,259.75c.32.73,1.86,3.26,1.88,3.45.07.79-1.52.56-1.14,1.17.22.35,5.33,1.36,6.21,1.12.3.19-.04.63-.03.75.02.17.08.42.06.58.65.16,1.23.38,1.93.4-.99-2.04,1.37-3.27,2.66-4.67.31-.34.37-.23.17-.74-4.83,1.97-8.16,1.45-10.69-2.55l-3.57-5.03-12.51-4.33,10.41,5.04,4.61,4.8Z"/>
          <path class="cls-17" d="M275.48,163.39c.77,5.02,7.17,8.47,14.28,7.7,7.12-.77,12.26-5.47,11.49-10.49l-24.79-.21-.98,3.01Z"/>
          <path class="cls-31" d="M144.65,251.71c-.48.31-2.28,5.83-2.68,6.74-.54,1.23-3.1,3.9-2.21,5.24-3.89.65-9.1,1.7-13.01,1.73-.48,0-1.75-.38-1.84-.38l.13-.18c2.31-1.03,4.2-3.7,6.16-4.85,1.65-.96,3.84-.64,5.13-1.27,1.36-.66,7.08-6.58,7.68-7.83,5.37.32,10.67-1.23,15.94-4-4.66,3.56-9.81,4.96-15.3,4.8Z"/>
          <path class="cls-17" d="M156.53,253.76c-2.07,6.14-7.44,7.01-14.1,8.19l14.1-8.19Z"/>
        </g>
      </g>
      <path id="Path-19" data-name="Path" class="cls-2" d="M84.63,161.74c-3.14,2.85-5.68,6.33-7.61,10.45v73.95c.62,5.43,2.67,9.58,6.14,12.43,3.47,2.85,9.09,5.75,16.87,8.69l73.64,1.4,7.39-3.72h18.15l9.06,3.72h17.43l4.52-2.7,3.13,1.97,98.85,1.58c7.58-1.35,13.45-4.27,17.6-8.77,4.15-4.5,6.23-9.36,6.23-14.59v-80.13c-1.72-4.07-3.79-6.98-6.23-8.71-2.43-1.74-6.23-3.1-11.39-4.1H101.42c-8.06,2.84-13.65,5.69-16.79,8.54Z"/>
    </g>
    <g>
      <g>
        <path class="cls-18" d="M55.81,269.08c-24.61-5.02-46.07-32.15-44.3-52.49,2.07-23.76,24.04-39.83,50.88-37.5s53.77,21.39,44.05,56.43c-2.39,8.62-2.39,18.28-8.02,22.22l-19.99,14.27c-7.62,2.67-13.51,2.17-17.64-1.53l-4.98-1.39Z"/>
        <g class="cls-22">
          <path class="cls-35" d="M20.89,233.87c-5.91-12.9-4.74-19.56,3.1-26.95.82-.77,1.72-1.48,2.67-2.1,13.15-8.57,24.95-15.17,35.36-15.9,8.36.59,16.4,2.15,24.02,4.91,7.08,3.9,13.83,9.24,20.3,15.88.35,4.46.46,9.95.44,15.98l2.36-27.13-22.63-15.41-27.77-4.38-30.57,9.06-15.99,21.5c-3.01,9.22,3.8,16.71,8.72,24.53Z"/>
          <path class="cls-35" d="M73.09,197.65c8.31,4.88,13.2,4.43,15.77.38-6.16-4.3-11.31-3.97-15.77-.38Z"/>
          <path class="cls-35" d="M31.96,205.87c9.55,1.3,13.89-.99,14.7-5.72-7.34-1.6-11.97.69-14.7,5.72Z"/>
          <g>
            <path class="cls-39" d="M55.87,248.13c7.86,24.47,23.5,21.05,22.27-5.28-4.68,12.88-14.86,13.37-22.27,5.28Z"/>
            <g class="cls-23">
              <ellipse class="cls-36" cx="68.69" cy="262.67" rx="5.1" ry="11.9" transform="translate(-200.94 230.83) rotate(-68.61)"/>
            </g>
          </g>
          <path class="cls-38" d="M76.34,192.96c-1.88,1.03-2.79,2.72-3.28,4.69,7.83-.6,13.14-.48,20.38,3.21.3.15.59-.22.37-.47-3.21-3.69-7.05-5.2-13.83-7.91-1.16-.47-2.53-.13-3.64.48Z"/>
          <path class="cls-38" d="M44.15,195.42c2.09.49,2.92,3.39,2.42,4.92-7.68,1.64-11.24,2.92-17.14,8.5-.24.23-.63-.05-.49-.35,2.04-4.44,3.18-7.03,9.11-11.29,1.07-.77,5.01-2.03,6.1-1.78Z"/>
          <ellipse class="cls-34" cx="85.85" cy="218.7" rx="13.28" ry="17.03" transform="translate(-136.21 141.94) rotate(-49.5)"/>
          <ellipse class="cls-34" cx="38.39" cy="228.03" rx="17.03" ry="13.28" transform="translate(-176.02 141.44) rotate(-58.45)"/>
          <g>
            <ellipse class="cls-19" cx="86.64" cy="216.58" rx="12.56" ry="16.29" transform="translate(-134.31 141.8) rotate(-49.5)"/>
            <g class="cls-28">
              <ellipse class="cls-30" cx="95.73" cy="211.45" rx="4.86" ry="5.74" transform="translate(-134.86 237.96) rotate(-72.2)"/>
              <path class="cls-35" d="M81.32,225.48c6.68,5.58,12.72,5.6,17.66-3.72-5.61,7.07-11.53,7.71-17.66,3.72Z"/>
            </g>
            <ellipse class="cls-1" cx="86.64" cy="216.58" rx="12.56" ry="16.29" transform="translate(-134.31 141.8) rotate(-49.5)"/>
          </g>
          <g>
            <ellipse class="cls-19" cx="39.45" cy="226.33" rx="16.29" ry="12.56" transform="translate(-173.59 140.33) rotate(-58.13)"/>
            <g class="cls-26">
              <ellipse class="cls-30" cx="30.35" cy="221.82" rx="5.43" ry="6.3" transform="translate(-192.97 205.96) rotate(-78.15)"/>
              <path class="cls-35" d="M47.45,233.48c-4.68,7.34-10.43,9.19-17.96,1.8,7.49,5.04,13.32,3.86,17.96-1.8Z"/>
            </g>
            <ellipse class="cls-1" cx="39.45" cy="226.33" rx="16.29" ry="12.56" transform="translate(-173.59 140.33) rotate(-58.13)"/>
          </g>
          <g>
            <ellipse class="cls-35" cx="70.88" cy="237.44" rx="1.93" ry="2.2" transform="translate(-171.81 287.48) rotate(-85.03)"/>
            <ellipse class="cls-29" cx="70.79" cy="236.58" rx="1.93" ry="2.2" transform="translate(-171.03 286.59) rotate(-85.03)"/>
          </g>
          <g>
            <ellipse class="cls-35" cx="62.22" cy="238.63" rx="2.49" ry="2.28" transform="translate(-180.91 279.93) rotate(-85.03)"/>
            <ellipse class="cls-29" cx="62.28" cy="237.87" rx="2.49" ry="2.28" transform="translate(-180.09 279.3) rotate(-85.03)"/>
          </g>
          <path class="cls-33" d="M24.62,242.82c14.41,15.38,36.58,18.48,46.52,31.06l-12.37,2.2c-20.39-2.9-35.03-12.66-34.16-33.26Z"/>
        </g>
        <path class="cls-7" d="M55.81,269.08c-24.61-5.02-46.07-32.15-44.3-52.49,2.07-23.76,24.04-39.83,50.88-37.5s53.77,21.39,44.05,56.43c-2.39,8.62-2.39,18.28-8.02,22.22l-19.99,14.27c-7.62,2.67-13.51,2.17-17.64-1.53l-4.98-1.39Z"/>
      </g>
      <g>
        <path class="cls-20" d="M30.83,172.54c-5.43-1.82-7.7.47-9.73-1.79-1.05-2.39,5.03-2.07,1.25-6.25-8.98-.91-12.19,1.05-15.27-.39-2.65-1.18-2.37-4.71-.83-10.56-1.67-.57-2.85-12.23-1.37-11.55,3.38,1.53,9.16,1.09,10.95-5.38,2.46-.86,7.08,2.85,10.96,2.25,11.18-4,18.22-13.36,21.59-11.98,4.41,1.43,7.11,8.62,9.88,9.57,3.55,1.18,4.29-3.33,8.32-2.81,5.47.96,13.38,4.44,16.66,11.86.43.97.2,2.1-.56,2.83-.42.4-.9.77-1.29,1.08,11.35,5.62,13.33,9.84,3.29,12.25,1.64,2.75,1.96,5.14,1.49,6.75-.14.47-.58.78-1.07.76-2.76-.1-3.76.21-5.41,1.12l-48.84,2.22Z"/>
        <g class="cls-25">
          <path class="cls-33" d="M49.12,165.19c-6.38-.52-12.38-.27-17.77,1.28-4.36-2.25-8.15-2.9-11.17-1.44-4.09,9.94,4.69,10.19,13.29,7.4l15.65-7.23Z"/>
          <path class="cls-33" d="M1.74,149.12c8.12-1.11,24.86,6.93,26.57,10.91-5.59-3.22-20.89-9.47-26.55-5.79l-.03-5.12Z"/>
          <path class="cls-33" d="M22.45,137.35c7.39,5.06,12.32,10.17,16.9,17.06-2.86-7.51-6.94-14.8-10.88-21.03l-6.02,3.97Z"/>
          <path class="cls-33" d="M49.82,124.61c5.77,9.34,6.05,20.08,3.34,32.89,3.34-9.69,6.88-16.85,7.43-24.35l-10.77-8.54Z"/>
          <path class="cls-36" d="M72.78,163.44c.87-6.06,5.5-12.54,12.62-17.46l6.35,4.83c-8.43.57-14.23,5.34-18.97,12.63Z"/>
          <path class="cls-36" d="M71.34,167.32c4.44-4.08,9.47-5.82,15.95-5.87l.92,10.4c-3.78-1.8-10.14-3.19-16.87-4.53Z"/>
          <path class="cls-37" d="M90.29,165.12c-.68-2.26-3.99-4.94-9.59-7.98.4-.35.88-.77,1.31-1.21.78-.81,1.01-2.07.59-3.14-3.22-8.2-11.09-11.99-16.56-13-4.02-.54-4.81,4.47-8.35,3.19-2.76-1.03-5.4-8.98-9.8-10.52-3.36-1.51-10.5,8.95-21.72,13.49-3.89.7-8.48-3.38-10.95-2.4-1.85,7.19-7.64,7.73-11.01,6.07-.83-.41-3.98,2.42-3.55,6.02l-.2-15.18,15.29-8.86,31.46-9.55,39.82,19.47,9.39,17.4-6.13,6.19Z"/>
        </g>
        <path class="cls-6" d="M30.83,172.54c-5.43-1.82-7.7.47-9.73-1.79-1.05-2.39,5.03-2.07,1.25-6.25-8.98-.91-12.19,1.05-15.27-.39-2.65-1.18-2.37-4.71-.83-10.56-1.67-.57-2.85-12.23-1.37-11.55,3.38,1.53,9.16,1.09,10.95-5.38,2.46-.86,7.08,2.85,10.96,2.25,11.18-4,18.22-13.36,21.59-11.98,4.41,1.43,7.11,8.62,9.88,9.57,3.55,1.18,4.29-3.33,8.32-2.81,5.47.96,13.38,4.44,16.66,11.86.43.97.2,2.1-.56,2.83-.42.4-.9.77-1.29,1.08,11.35,5.62,13.33,9.84,3.29,12.25,1.64,2.75,1.96,5.14,1.49,6.75-.14.47-.58.78-1.07.76-2.76-.1-3.76.21-5.41,1.12l-48.84,2.22Z"/>
      </g>
      <g>
        <path class="cls-20" d="M24.75,199.38c-.92.62-1.78,1.33-2.58,2.11-7.57,7.41-8.72,14.08-3.07,26.96,5.88,10.34,10.26,16.04,11.18,24.79,3.09,5.46,21.81,9.04,30.51,17.24-4.1.86-9.36.13-15.15-1.32-11.25-3.74-25.74-10.44-34.74-18.7-1.74-3.06-7.29-16.04-9.58-26.26-1.49-6.67-1.1-14.39,1.48-22.19,1.09-3.3,3.16-6.17,5.84-8.38,6.38-5.26,12.02-17.08,25.66-26.3,16.32-8.58,36.74-4.82,62.96,9.92,10.2,8.92,11.29,17.06,15.84,25.89.75,1.45,1.17,3.05,1.24,4.68.42,10.74,0,18.13,2.65,25.52-3.7,17.15-19.33,28.75-38.56,38.69.27-8.93,16.4-7.69,22.11-30.81.77-3.1,1.12-6.28,1.1-9.48.25-10.55.35-20.49-.17-27.7-6.2-6.62-12.69-11.94-19.5-15.82-7.33-2.74-15.07-4.27-23.12-4.84-10.03.77-21.42,7.4-34.11,16.02Z"/>
        <g class="cls-27">
          <path class="cls-33" d="M27.01,252.95c-5.68-1.32-10.18-10.06-13.33-27.17,4.82,11.74,9.32,21.22,13.33,27.17Z"/>
          <path class="cls-33" d="M7.61,245.71c-2.88-4.34-4.84-11.78-5.73-22.82.15-15.13,8.43-24.23,16.6-33.4-7.65,10.86-14.27,21.81-13.67,33.35.14,9.26,1.37,16.73,2.8,22.88Z"/>
          <path class="cls-33" d="M119.28,233.24c-2.83-14.25-6.82-28.08-11.43-33.95-7.16-8.02-18.11-15.42-30.04-22.66,11.88,5.46,23.16,11.13,29.45,18.69,4.2,4.05,9.09,11.68,14,19.42l-1.98,18.5Z"/>
          <path class="cls-33" d="M108.2,243.26c1.73-3.72,2.85-7.34,2.61-10.76-1.64-3.82-.7-13.68-.15-22.61,1.02,9.73,2.03,19.56,3.96,23.02-1.6,5.16-3.88,8.18-6.42,10.35Z"/>
          <path class="cls-33" d="M80.4,261.11c5.57.26,17.87-6.1,25.27-14.77-2.46,5.93-10.77,12.29-15.46,14.48,5.99-.9,12.52-4.79,19.29-9.99l-30.85,25.09-2.89-8.83,4.64-5.98Z"/>
          <path class="cls-33" d="M59.25,266.59c-4.28,1.28-13.76-2.67-22.88-6.25,5.25,2.84,11.2,6.46,14.14,6.67-4.39,1.05-10.22-.32-16.41-2.32l16.51,7.98,13.53-.8-4.88-5.27Z"/>
          <path class="cls-33" d="M101.47,204.02c4.37,18.31,4.22,32.54-3.42,40.01l3.42-40.01Z"/>
          <path class="cls-37" d="M120.21,217.16c-7.41,24.82-26.68,39.62-46.79,53.72l2.91,5.37,42.93-24.8.94-34.29Z"/>
          <path class="cls-37" d="M1.98,232.42c15.86,21.04,39.15,28.42,62.97,34.83l-.77,6.13-48.93-8.64c-8.21-9-11.64-20.23-13.27-32.31Z"/>
          <path class="cls-37" d="M11.1,185.15c36.38-22.87,62.98-20.22,88.53-5.7-6.38-8.88-14.94-17.37-40.15-22.82l-33.27,3.6-15.11,24.91Z"/>
        </g>
        <path class="cls-6" d="M24.75,199.38c-.92.62-1.78,1.33-2.58,2.11-7.57,7.41-8.72,14.08-3.07,26.96,5.88,10.34,10.26,16.04,11.18,24.79,3.09,5.46,21.81,9.04,30.51,17.24-4.1.86-9.36.13-15.15-1.32-11.25-3.74-25.74-10.44-34.74-18.7-1.74-3.06-7.29-16.04-9.58-26.26-1.49-6.67-1.1-14.39,1.48-22.19,1.09-3.3,3.16-6.17,5.84-8.38,6.38-5.26,12.02-17.08,25.66-26.3,16.32-8.58,36.74-4.82,62.96,9.92,10.2,8.92,11.29,17.06,15.84,25.89.75,1.45,1.17,3.05,1.24,4.68.42,10.74,0,18.13,2.65,25.52-3.7,17.15-19.33,28.75-38.56,38.69.27-8.93,16.4-7.69,22.11-30.81.77-3.1,1.12-6.28,1.1-9.48.25-10.55.35-20.49-.17-27.7-6.2-6.62-12.69-11.94-19.5-15.82-7.33-2.74-15.07-4.27-23.12-4.84-10.03.77-21.42,7.4-34.11,16.02Z"/>
      </g>
    </g>
  </g>
</svg>