<?xml version="1.0" encoding="UTF-8"?>
<svg id="Layer_2" data-name="Layer 2" xmlns="http://www.w3.org/2000/svg" xmlns:xlink="http://www.w3.org/1999/xlink" viewBox="0 0 242.93 403.33">
  <defs>
    <style>
      .cls-1, .cls-2 {
        fill: #2b211d;
      }

      .cls-3, .cls-2, .cls-4, .cls-5, .cls-6, .cls-7, .cls-8, .cls-9 {
        stroke-miterlimit: 10;
      }

      .cls-3, .cls-4, .cls-7 {
        fill: none;
      }

      .cls-3, .cls-8 {
        stroke: #fcc8b6;
        stroke-width: 1.84px;
      }

      .cls-2, .cls-4 {
        stroke: #339;
      }

      .cls-2, .cls-4, .cls-6, .cls-7, .cls-9 {
        stroke-width: 3px;
      }

      .cls-5 {
        stroke-width: 2.22px;
      }

      .cls-5, .cls-10, .cls-9 {
        fill: #339;
      }

      .cls-5, .cls-9 {
        stroke: #29297f;
      }

      .cls-11, .cls-6 {
        fill: #60372b;
      }

      .cls-12, .cls-8 {
        fill: #ffe3d7;
      }

      .cls-13 {
        clip-path: url(#clippath-1);
      }

      .cls-14 {
        clip-path: url(#clippath-3);
      }

      .cls-15 {
        clip-path: url(#clippath-4);
      }

      .cls-16 {
        clip-path: url(#clippath-2);
      }

      .cls-17 {
        clip-path: url(#clippath-7);
      }

      .cls-18 {
        clip-path: url(#clippath-6);
      }

      .cls-19 {
        clip-path: url(#clippath-8);
      }

      .cls-20 {
        clip-path: url(#clippath-5);
      }

      .cls-6, .cls-7 {
        stroke: #513029;
      }

      .cls-21 {
        opacity: .25;
      }

      .cls-21, .cls-22 {
        fill: #20164c;
      }

      .cls-22 {
        opacity: .2;
      }

      .cls-23 {
        fill: #d7c5ff;
        opacity: .15;
      }

      .cls-24 {
        clip-path: url(#clippath);
      }
    </style>
    <clipPath id="clippath">
      <path class="cls-8" d="M37.87,349.54c-4.19,11.31-6.65,22.42-6.61,33.24l19.2,15.36c5.94,4.75,14.1,5.61,20.89,2.19l28.86-14.5c2.95-3.71,4.09-15.41,5.09-27.73l-67.42-8.57Z"/>
    </clipPath>
    <clipPath id="clippath-1">
      <path class="cls-8" d="M189.97,352.77c2.84,9.14,4.51,18.11,4.49,26.85l-13.02,12.4c-4.03,3.84-9.56,4.53-14.17,1.77l-19.57-11.71c-2-2.99-2.77-12.44-3.45-22.39l45.72-6.92Z"/>
    </clipPath>
    <clipPath id="clippath-2">
      <path class="cls-8" d="M186.25,217.83c39.54,17.79,56.11,43.87,49.18,78.45,12.12,24.31,7.33,37.27-12.92,39.86-7.25,5.85-27.22-.64-21.75-23.28-19.81-1.56-8.63-13.89,4.39-13.36,15.83-21.62,18.66-22.69-4.96-37.71l-13.93-43.96Z"/>
    </clipPath>
    <clipPath id="clippath-3">
      <path class="cls-8" d="M48.81,205.39c-33.05,28.06-41.73,57.72-25.48,89.01-4.9,26.72,3.3,37.84,23.47,34.71,8.59,3.61,25.98-8.16,14.44-28.4,18.6-6.99,4.44-15.74-7.92-11.61-21.21-16.38-24.22-16.62-5.69-37.61l1.19-46.09Z"/>
    </clipPath>
    <clipPath id="clippath-4">
      <path class="cls-8" d="M23.97,131.81c-37.18-19.61-28.28,61.01,18.83,57.65l-18.83-57.65Z"/>
    </clipPath>
    <clipPath id="clippath-5">
      <path class="cls-2" d="M183.78,212.19c55.9,116.73,46.89,157.86-60.3,159.95-3.2.06-9.54-16.14-9.54-16.14,0,0-7.87,16.27-11.58,16.22-71.64-.97-126.43-22.19-51.77-164.48l133.19,4.44Z"/>
    </clipPath>
    <clipPath id="clippath-6">
      <ellipse class="cls-10" cx="116.81" cy="261.07" rx="115.89" ry="65.37"/>
    </clipPath>
    <clipPath id="clippath-7">
      <path class="cls-8" d="M218.49,133.56c37.18-19.61,28.28,61.01-18.83,57.65l18.83-57.65Z"/>
    </clipPath>
    <clipPath id="clippath-8">
      <path class="cls-6" d="M213.33,176.04c-14.64,37.94-39.49,65.71-81.36,74.6-11.02,2.33-22.5,1.41-33.03-2.6-27.27-10.4-52.92-32-66.66-69.97.01.02.01.03.01.05-7.18-10.88-13.14-25.08-17.83-42.75C4.28,68.59,54.7,31.21,89.43,27.8c-.81-2.49-3-5.5-6.44-8.99-1.45-1.47-.76-4,1.23-4.5,8.59-2.14,15.35,1.55,21.53,7.13C115.85-.79,136.32-1.37,160.14,5.04c.47.12.36.81-.12.79-8.36-.33-14.82,2.5-17.46,11.66,86.5,12.55,107.47,95.13,70.77,158.55Z"/>
    </clipPath>
  </defs>
  <g id="Layer_9" data-name="Layer 9">
    <g>
      <g>
        <path class="cls-12" d="M37.87,349.54c-4.19,11.31-6.65,22.42-6.61,33.24l19.2,15.36c5.94,4.75,14.1,5.61,20.89,2.19l28.86-14.5c2.95-3.71,4.09-15.41,5.09-27.73l-67.42-8.57Z"/>
        <g class="cls-24">
          <path class="cls-9" d="M25.4,373.2c24.49,14.97,47.37,13.28,79.89,7.25l-17.3,34.47-66.48-12.52,3.9-29.21Z"/>
        </g>
        <path class="cls-3" d="M37.87,349.54c-4.19,11.31-6.65,22.42-6.61,33.24l19.2,15.36c5.94,4.75,14.1,5.61,20.89,2.19l28.86-14.5c2.95-3.71,4.09-15.41,5.09-27.73l-67.42-8.57Z"/>
      </g>
      <g>
        <path class="cls-12" d="M189.97,352.77c2.84,9.14,4.51,18.11,4.49,26.85l-13.02,12.4c-4.03,3.84-9.56,4.53-14.17,1.77l-19.57-11.71c-2-2.99-2.77-12.44-3.45-22.39l45.72-6.92Z"/>
        <g class="cls-13">
          <path class="cls-5" d="M198.43,371.87c-16.61,12.09-32.12,10.72-54.18,5.86l11.73,27.84,45.09-10.11-2.64-23.59Z"/>
        </g>
        <path class="cls-3" d="M189.97,352.77c2.84,9.14,4.51,18.11,4.49,26.85l-13.02,12.4c-4.03,3.84-9.56,4.53-14.17,1.77l-19.57-11.71c-2-2.99-2.77-12.44-3.45-22.39l45.72-6.92Z"/>
      </g>
      <g>
        <path class="cls-12" d="M186.25,217.83c39.54,17.79,56.11,43.87,49.18,78.45,12.12,24.31,7.33,37.27-12.92,39.86-7.25,5.85-27.22-.64-21.75-23.28-19.81-1.56-8.63-13.89,4.39-13.36,15.83-21.62,18.66-22.69-4.96-37.71l-13.93-43.96Z"/>
        <g class="cls-16">
          <path class="cls-10" d="M223.45,233.07c1.37,16.87-2.12,28.86-9.32,37.14-7.57,2.6-19.04-5.33-30.51-13.23l-3.31-46.31,43.13,22.4Z"/>
        </g>
        <path class="cls-3" d="M186.25,217.83c39.54,17.79,56.11,43.87,49.18,78.45,12.12,24.31,7.33,37.27-12.92,39.86-7.25,5.85-27.22-.64-21.75-23.28-19.81-1.56-8.63-13.89,4.39-13.36,15.83-21.62,18.66-22.69-4.96-37.71l-13.93-43.96Z"/>
      </g>
      <g>
        <path class="cls-12" d="M48.81,205.39c-33.05,28.06-41.73,57.72-25.48,89.01-4.9,26.72,3.3,37.84,23.47,34.71,8.59,3.61,25.98-8.16,14.44-28.4,18.6-6.99,4.44-15.74-7.92-11.61-21.21-16.38-24.22-16.62-5.69-37.61l1.19-46.09Z"/>
        <g class="cls-14">
          <path class="cls-10" d="M17.3,230.34c3.36,16.59,10.05,27.14,19.26,33.1,7.99.4,16.82-10.4,25.64-21.17l-9.67-45.41-35.22,33.49Z"/>
        </g>
        <path class="cls-3" d="M48.81,205.39c-33.05,28.06-41.73,57.72-25.48,89.01-4.9,26.72,3.3,37.84,23.47,34.71,8.59,3.61,25.98-8.16,14.44-28.4,18.6-6.99,4.44-15.74-7.92-11.61-21.21-16.38-24.22-16.62-5.69-37.61l1.19-46.09Z"/>
      </g>
      <g>
        <path class="cls-12" d="M23.97,131.81c-37.18-19.61-28.28,61.01,18.83,57.65l-18.83-57.65Z"/>
        <g class="cls-15">
          <path class="cls-22" d="M15.37,125.59c-.27,27.91,4.08,53.6,19.17,74.18l21.27-7.58-26.87-61.98-13.58-4.61Z"/>
        </g>
        <path class="cls-3" d="M23.97,131.81c-37.18-19.61-28.28,61.01,18.83,57.65l-18.83-57.65Z"/>
      </g>
      <g>
        <path class="cls-1" d="M183.78,212.19c55.9,116.73,46.89,157.86-60.3,159.95-3.2.06-9.54-16.14-9.54-16.14,0,0-7.87,16.27-11.58,16.22-71.64-.97-126.43-22.19-51.77-164.48l133.19,4.44Z"/>
        <g class="cls-20">
          <g>
            <ellipse class="cls-10" cx="116.81" cy="261.07" rx="115.89" ry="65.37"/>
            <g class="cls-18">
              <rect class="cls-22" x="-14.42" y="174.9" width="261.54" height="171.13" transform="translate(232.71 520.93) rotate(180)"/>
            </g>
          </g>
          <ellipse class="cls-10" cx="115.81" cy="249.37" rx="115.89" ry="65.37"/>
        </g>
        <path class="cls-4" d="M183.78,212.19c55.9,116.73,46.89,157.86-60.3,159.95-3.2.06-9.54-16.14-9.54-16.14,0,0-7.87,16.27-11.58,16.22-71.64-.97-126.43-22.19-51.77-164.48l133.19,4.44Z"/>
      </g>
      <g>
        <path class="cls-12" d="M218.49,133.56c37.18-19.61,28.28,61.01-18.83,57.65l18.83-57.65Z"/>
        <g class="cls-17">
          <path class="cls-22" d="M230.84,134.86c-5,25.9-6.29,44.87-19.1,61.79l-20.92-4.66,24.87-69.01,15.15,11.88Z"/>
        </g>
        <path class="cls-3" d="M218.49,133.56c37.18-19.61,28.28,61.01-18.83,57.65l18.83-57.65Z"/>
      </g>
      <g>
        <path class="cls-11" d="M213.33,176.04c-14.64,37.94-39.49,65.71-81.36,74.6-11.02,2.33-22.5,1.41-33.03-2.6-27.27-10.4-52.92-32-66.66-69.97.01.02.01.03.01.05-7.18-10.88-13.14-25.08-17.83-42.75C4.28,68.59,54.7,31.21,89.43,27.8c-.81-2.49-3-5.5-6.44-8.99-1.45-1.47-.76-4,1.23-4.5,8.59-2.14,15.35,1.55,21.53,7.13C115.85-.79,136.32-1.37,160.14,5.04c.47.12.36.81-.12.79-8.36-.33-14.82,2.5-17.46,11.66,86.5,12.55,107.47,95.13,70.77,158.55Z"/>
        <g class="cls-19">
          <path class="cls-21" d="M13.54,138.78c-15.31,134.97,190.91,166.26,206.23,31.29-76.08,68.13-143.89,47.71-206.23-31.29Z"/>
        </g>
        <path class="cls-7" d="M213.33,176.04c-14.64,37.94-39.49,65.71-81.36,74.6-11.02,2.33-22.5,1.41-33.03-2.6-27.27-10.4-52.92-32-66.66-69.97.01.02.01.03.01.05-7.18-10.88-13.14-25.08-17.83-42.75C4.28,68.59,54.7,31.21,89.43,27.8c-.81-2.49-3-5.5-6.44-8.99-1.45-1.47-.76-4,1.23-4.5,8.59-2.14,15.35,1.55,21.53,7.13C115.85-.79,136.32-1.37,160.14,5.04c.47.12.36.81-.12.79-8.36-.33-14.82,2.5-17.46,11.66,86.5,12.55,107.47,95.13,70.77,158.55Z"/>
      </g>
      <path class="cls-23" d="M159.02,39.97c25.67,7.68,54.01,33.71,55.74,57.22.32,4.36,3.08,7.91,3.98,12.12-2.82-7.98-6.82-15.06-11.2-21.7-6.64-9.91-14.18-18.85-22.27-26.91-8.13-8.06-16.71-15.41-26.25-20.74h0Z"/>
      <path class="cls-23" d="M112.85,32.15c-44.83,12.08-88.39,54.28-82.11,92.91,1.15,7.09-4.48,12.94-5.75,19.85,4.09-13.06,9.94-24.62,16.36-35.44,9.73-16.16,20.84-30.7,32.75-43.77,11.98-13.07,24.64-24.99,38.75-33.55h0Z"/>
      <path class="cls-23" d="M117.12,35.24c-26.67,26.22-42.2,51.17-39.77,74.07,7.27-21.93,21.87-47.24,39.77-74.07Z"/>
      <path class="cls-23" d="M143,37.46c30.53,27.93,54.22,55.44,46.09,80.22-4.87-19.23-24.3-48.88-46.09-80.22Z"/>
    </g>
  </g>
</svg>