<?xml version="1.0" encoding="UTF-8"?>
<svg id="Layer_2" data-name="Layer 2" xmlns="http://www.w3.org/2000/svg" xmlns:xlink="http://www.w3.org/1999/xlink" viewBox="0 0 208.25 407.88">
  <defs>
    <style>
      .cls-1, .cls-2, .cls-3, .cls-4, .cls-5, .cls-6, .cls-7, .cls-8, .cls-9, .cls-10, .cls-11, .cls-12 {
        stroke-miterlimit: 10;
      }

      .cls-1, .cls-2, .cls-4, .cls-11 {
        fill: none;
      }

      .cls-1, .cls-6 {
        stroke: #c6c6c6;
        stroke-width: 1.78px;
      }

      .cls-13 {
        fill: #891210;
      }

      .cls-14, .cls-3 {
        fill: #2b211d;
      }

      .cls-2, .cls-9, .cls-10, .cls-11, .cls-12 {
        stroke: #fcc8b6;
      }

      .cls-2, .cls-12 {
        stroke-width: 1.84px;
      }

      .cls-3, .cls-4 {
        stroke: #339;
      }

      .cls-3, .cls-4, .cls-8 {
        stroke-width: 3px;
      }

      .cls-15 {
        fill: #3a1d17;
      }

      .cls-5 {
        stroke-width: 2.22px;
      }

      .cls-5, .cls-7 {
        stroke: #29297f;
      }

      .cls-5, .cls-7, .cls-16 {
        fill: #339;
      }

      .cls-6, .cls-17 {
        fill: #f9f9f9;
      }

      .cls-18 {
        fill: #8e663f;
      }

      .cls-19, .cls-9, .cls-10, .cls-12 {
        fill: #ffe3d7;
      }

      .cls-7 {
        stroke-width: 1.49px;
      }

      .cls-20 {
        clip-path: url(#clippath-1);
      }

      .cls-21 {
        clip-path: url(#clippath-3);
      }

      .cls-22 {
        clip-path: url(#clippath-4);
      }

      .cls-23 {
        clip-path: url(#clippath-2);
      }

      .cls-24 {
        clip-path: url(#clippath-7);
      }

      .cls-25 {
        clip-path: url(#clippath-6);
      }

      .cls-26 {
        clip-path: url(#clippath-5);
      }

      .cls-27 {
        fill: #191918;
      }

      .cls-8 {
        fill: #60372b;
        stroke: #513029;
      }

      .cls-28 {
        fill: #27277a;
      }

      .cls-29 {
        opacity: .2;
      }

      .cls-29, .cls-30 {
        fill: #20164c;
      }

      .cls-30 {
        opacity: .3;
      }

      .cls-9 {
        stroke-width: 1.78px;
      }

      .cls-10, .cls-11 {
        stroke-width: 1.23px;
      }

      .cls-31 {
        fill: #d7c5ff;
        opacity: .15;
      }

      .cls-32 {
        clip-path: url(#clippath);
      }

      .cls-33 {
        fill: #fcc8b6;
      }
    </style>
    <clipPath id="clippath">
      <path class="cls-10" d="M144,362.84c-12.18,10.31-24.03,20.71-17.64,35.73,23.09-4.21,60.68-23.25,46.68-51.7l-29.04,15.97Z"/>
    </clipPath>
    <clipPath id="clippath-1">
      <path class="cls-12" d="M71.76,366.55c-23.54,3.65-46.72,7.66-50.28,31.76,32.68,12.61,95.36,17.62,99.68-29.49l-49.4-2.27Z"/>
    </clipPath>
    <clipPath id="clippath-2">
      <path class="cls-3" d="M33.18,202.98c-51.26,124.22-25.76,168.49,70.34,177.85,72.21-.52,141.03-49.17,53.59-191.04l-123.93,13.19Z"/>
    </clipPath>
    <clipPath id="clippath-3">
      <path class="cls-16" d="M218.45,296.54c-64.72,45.18-150.04,38.6-228.65,0v-125.69c88.06,13.42,167.15,2.4,228.65,0v125.69Z"/>
    </clipPath>
    <clipPath id="clippath-4">
      <path class="cls-12" d="M190.8,130.11c2.81,45.22-12.31,62.74-48.85,98.08-19.73,20.12-62.94,35.5-106.62,0C7.87,187.77,1.89,158.58,6.15,118c1.52-59.54,34.22-79,111.76-77.25,40.59,4.87,71.87,23.96,72.89,89.36Z"/>
    </clipPath>
    <clipPath id="clippath-5">
      <ellipse class="cls-6" cx="64.32" cy="155.34" rx="33.94" ry="36.09"/>
    </clipPath>
    <clipPath id="clippath-6">
      <path class="cls-13" d="M-8.28,209.03l10.29,13.72c25.36.37,55.86-.94,57.32,7.25l9.68-6.93c1.8-31.34-74.5-39.28-77.28-14.04Z"/>
    </clipPath>
    <clipPath id="clippath-7">
      <path class="cls-12" d="M128.47,263.04c-.57,11.57,3.87,25.82,1.02,37.84-10.09,29.88-48.96,17.3-70.98-18.51-21.89,10.39-33.85,9.9-28.17-30.41.25-12.98,47.53-24.1,41.4,15.15,9.05,16.45,33.81,50.42,34.95,3.88,3.65-16.47,23.06-24.74,21.79-7.95Z"/>
    </clipPath>
  </defs>
  <g id="Layer_9" data-name="Layer 9">
    <g>
      <g>
        <path class="cls-19" d="M144,362.84c-12.18,10.31-24.03,20.71-17.64,35.73,23.09-4.21,60.68-23.25,46.68-51.7l-29.04,15.97Z"/>
        <g class="cls-32">
          <path class="cls-7" d="M124.69,381.7c10.8,13.14,32.3,1.73,56.12-27.27l-3.26,23.05c-7.64,13.39-31.8,20.95-55.94,28.51-6.38-8.78-4.74-16.82,3.07-24.3Z"/>
        </g>
        <path class="cls-11" d="M144,362.84c-12.18,10.31-24.03,20.71-17.64,35.73,23.09-4.21,60.68-23.25,46.68-51.7l-29.04,15.97Z"/>
      </g>
      <g>
        <path class="cls-19" d="M71.76,366.55c-23.54,3.65-46.72,7.66-50.28,31.76,32.68,12.61,95.36,17.62,99.68-29.49l-49.4-2.27Z"/>
        <g class="cls-20">
          <path class="cls-5" d="M32.5,375.53c3.53,25.13,39.77,27.35,92.68,8.97l-22.09,26.82c-20.16,11.1-56.8,1.91-93.41-7.24-1.29-16.15,7.06-25.11,22.82-28.55Z"/>
        </g>
        <path class="cls-2" d="M71.76,366.55c-23.54,3.65-46.72,7.66-50.28,31.76,32.68,12.61,95.36,17.62,99.68-29.49l-49.4-2.27Z"/>
      </g>
      <g>
        <path class="cls-14" d="M33.18,202.98c-51.26,124.22-25.76,168.49,70.34,177.85,72.21-.52,141.03-49.17,53.59-191.04l-123.93,13.19Z"/>
        <g class="cls-23">
          <g>
            <path class="cls-16" d="M218.45,296.54c-64.72,45.18-150.04,38.6-228.65,0v-125.69c88.06,13.42,167.15,2.4,228.65,0v125.69Z"/>
            <g class="cls-21">
              <rect class="cls-29" x="-24.18" y="151.81" width="248.06" height="204.35"/>
            </g>
          </g>
          <path class="cls-16" d="M217.02,282.29c-64.72,45.18-150.04,38.6-228.65,0v-125.69c88.06,13.42,167.15,2.4,228.65,0v125.69Z"/>
        </g>
        <path class="cls-4" d="M33.18,202.98c-51.26,124.22-25.76,168.49,70.34,177.85,72.21-.52,141.03-49.17,53.59-191.04l-123.93,13.19Z"/>
      </g>
      <g>
        <path class="cls-19" d="M190.8,130.11c2.81,45.22-12.31,62.74-48.85,98.08-19.73,20.12-62.94,35.5-106.62,0C7.87,187.77,1.89,158.58,6.15,118c1.52-59.54,34.22-79,111.76-77.25,40.59,4.87,71.87,23.96,72.89,89.36Z"/>
        <g class="cls-22">
          <g>
            <ellipse class="cls-29" cx="64.32" cy="160.3" rx="33.94" ry="36.09"/>
            <g>
              <ellipse class="cls-17" cx="64.32" cy="155.34" rx="33.94" ry="36.09"/>
              <g class="cls-26">
                <ellipse class="cls-27" cx="47.01" cy="152.07" rx="7.69" ry="8.57" transform="translate(-47.37 23.9) rotate(-19.19)"/>
                <path class="cls-30" d="M27.33,166.46l39.76,14.42,36.59-25.55c7.37,50.55-68.98,61.67-76.35,11.13Z"/>
              </g>
              <ellipse class="cls-1" cx="64.32" cy="155.34" rx="33.94" ry="36.09"/>
            </g>
          </g>
          <path class="cls-15" d="M15.09,119.96c-18.88-9.51-41.59-20.3-52.46-21.31-3.14,6.27-4.54,12.93-4.48,19.9.01,1.43,5.89,4.1,6.02,5.55,11.4,2.43,25.15,5.3,46.62,9.8l4.3-13.93Z"/>
          <path class="cls-15" d="M24.04,119.68c23.37-9.49,65.36-27.15,78.18-27.07,2.76,8.18-4.13,16.36-5.21,25.02-.22,1.77-7.59,3.99-7.96,5.78-14.14-1.32-36.59,7.37-57.73,13.08l-7.27-16.8Z"/>
          <g>
            <path class="cls-13" d="M-8.28,209.03l10.29,13.72c25.36.37,55.86-.94,57.32,7.25l9.68-6.93c1.8-31.34-74.5-39.28-77.28-14.04Z"/>
            <g class="cls-25">
              <path class="cls-17" d="M-10.59,200.74l15.56,14.27c.21-8.35,58.74-8.31,65.14,3.17l2.06-9.12c-26.06-23.3-53.61-26.6-82.76-8.33Z"/>
            </g>
          </g>
        </g>
        <path class="cls-2" d="M190.8,130.11c2.81,45.22-12.31,62.74-48.85,98.08-19.73,20.12-62.94,35.5-106.62,0C7.87,187.77,1.89,158.58,6.15,118c1.52-59.54,34.22-79,111.76-77.25,40.59,4.87,71.87,23.96,72.89,89.36Z"/>
      </g>
      <path class="cls-30" d="M31.3,184.63c-9.41-5.06-15.85-5.89-24.65-12.12.76,4.58,1.65,9.99,4.65,13.98,3.61,6.12,5.56,8.44,7.48,8.26,4.86-.46,10.31-8.09,12.52-10.12Z"/>
      <path class="cls-18" d="M19.01,136.24c-.54,6.38-1.92,12.66-4.07,18.75-2.03,6.11-4.47,12.11-7.46,17.89l.08-.5c1.13,8.45,4.74,16.26,11.22,22.37,0,0-1.09-.18-1.09-.18,5.12-2.55,9.54-6.07,13.61-9.93-3.32,4.85-7.61,9.37-13.4,11.75-3.36-3.31-6.41-6.99-8.46-11.2-1.99-4-2.98-8.3-3.7-12.54l-.04-.26.12-.24c6.11-11.39,9.02-23.86,13.2-35.9h0Z"/>
      <path class="cls-8" d="M4.91,110.9c8.11-8.16,14.34-29.3,21.28-39.05,5.01,13.48,18.38,22.27,40.83,25.95-3.06-8.1-4.24-16.74-3.43-25.95,15.21,16.95,22.05,34.14,62.42,55.34,6.35,39.96.83,41.58-5.6,73.95,10.7-6.92,31.79-17.35,34.43-28.33.46,9.66-18.73,54.35-21.02,62.37,92.26-20.82,113.67-214.34-34.91-210.1C45.29,16.91-13.36,63.95,4.91,110.9Z"/>
      <path class="cls-8" d="M70.71,33.05c16.95-11.51,2.61-22.26-6.93-31.55,16.09,0,42.02,16.07,34.63,33.88,9.01-25.74,35.55-22.63,34.55-14.8-.81,6.39-20.98,15.45-20.52,22.05"/>
      <path class="cls-31" d="M154.61,226.53c44.23-47.87,51.71-109.66,35.96-149.45,7.06,57.05-4.02,116.17-35.96,149.45Z"/>
      <path class="cls-31" d="M128.97,35.53c23.93,11.17,47.53,37.29,45.45,56.12-.39,3.49,1.75,6.83,1.95,10.32-1.48-6.83-4.27-13.2-7.49-19.29-4.91-9.12-10.88-17.65-17.51-25.6-6.68-7.96-13.9-15.45-22.4-21.55h0Z"/>
      <path class="cls-31" d="M119.42,37.15c23.61,29.61,29.14,49.41,16.08,66.46-.66-16.16-1.62-36.49-16.08-66.46Z"/>
      <path class="cls-31" d="M68.56,32.64c-31.9,11.75-52.88,25.97-56.25,44.19,12.36-14.48,32.55-29.27,56.25-44.19Z"/>
      <g>
        <path class="cls-19" d="M133.32,196.83c76.15-42.89,19.8-88.59.28-42.21"/>
        <path class="cls-33" d="M133.32,196.83c9.38-5.88,18.59-12.35,26.13-20.53,5.53-6.23,10.7-13.77,11.51-22.22,1.06-8.54-3.98-16.9-12.9-18-1.7-.29-3.61-.08-5.31.18-.84.2-1.75.51-2.59.73-.52.23-1.93.87-2.47,1.11l-1.54.95c-5.73,3.65-9.58,9.49-12.54,15.57,2.47-6.3,6.21-12.6,11.93-16.49,12.46-8.68,27.46-1.16,27.4,14.19-.91,20.26-23.22,35.92-39.61,44.51h0Z"/>
      </g>
      <path class="cls-30" d="M127.16,256.01c7.95,11.56,18.24,38.98,20.39,62.74-21.4,11.92-76.65,6.51-72.6-15.98,35.08,8.14,52.86-6.95,52.21-46.76Z"/>
      <circle class="cls-9" cx="32.36" cy="270.17" r="12.47"/>
      <g>
        <path class="cls-19" d="M128.47,263.04c-.57,11.57,3.87,25.82,1.02,37.84-10.09,29.88-48.96,17.3-70.98-18.51-21.89,10.39-33.85,9.9-28.17-30.41.25-12.98,47.53-24.1,41.4,15.15,9.05,16.45,33.81,50.42,34.95,3.88,3.65-16.47,23.06-24.74,21.79-7.95Z"/>
        <g class="cls-24">
          <path class="cls-16" d="M92.59,280.34c15.89,6.01,30.25,16.51,42.86,32.15l5.98-69.8-37.32,6.74-11.53,30.92Z"/>
        </g>
        <path class="cls-2" d="M128.47,263.04c-.57,11.57,3.87,25.82,1.02,37.84-10.09,29.88-48.96,17.3-70.98-18.51-21.89,10.39-33.85,9.9-28.17-30.41.25-12.98,47.53-24.1,41.4,15.15,9.05,16.45,33.81,50.42,34.95,3.88,3.65-16.47,23.06-24.74,21.79-7.95Z"/>
      </g>
      <path class="cls-28" d="M129.52,304.84l-2.23-1.47c.45-.98.37-1.82.74-2.9,1.63-6.94.74-14.79-.13-22.38-.61-5.33-1.18-10.37-.94-15.12.2-2.64.01-7.08-3.44-7.59-4.59-.69-13.04,5.65-15.35,15.8-.16,6.29-1.05,11.73-2.09,15.58l-2.62-1.07c.99-3.65,1.56-8.61,1.71-14.73l.04-.29c2.54-11.46,12.16-19.24,18.75-18.25,2.02.3,6.66,1.94,6,10.74-.22,4.47.34,9.39.93,14.6.9,7.88,1.82,16.02.05,23.48l-.04.13c-.41,1.21-.87,2.38-1.38,3.47Z"/>
    </g>
  </g>
</svg>