<?xml version="1.0" encoding="UTF-8"?>
<svg id="Layer_2" data-name="Layer 2" xmlns="http://www.w3.org/2000/svg" xmlns:xlink="http://www.w3.org/1999/xlink" viewBox="0 0 316.22 451.81">
  <defs>
    <style>
      .cls-1, .cls-2, .cls-3 {
        clip-rule: evenodd;
      }

      .cls-1, .cls-4, .cls-5 {
        fill: #e5e3e1;
      }

      .cls-6 {
        fill: #fafafe;
      }

      .cls-7, .cls-2, .cls-8 {
        fill: #bcb7bb;
      }

      .cls-7, .cls-9, .cls-10, .cls-5 {
        fill-rule: evenodd;
      }

      .cls-9, .cls-11, .cls-3 {
        fill: #837e86;
      }

      .cls-12 {
        clip-path: url(#clippath-1);
      }

      .cls-13 {
        clip-path: url(#clippath-2);
      }

      .cls-10 {
        fill: #d2cad0;
        stroke: rgba(151, 151, 151, .17);
        stroke-width: .59px;
      }

      .cls-14 {
        fill: #635d68;
      }

      .cls-15 {
        fill: #76727a;
      }

      .cls-16 {
        clip-path: url(#clippath);
      }
    </style>
    <clipPath id="clippath">
      <path class="cls-3" d="M.3,56.01v371.69c5.17,8.58,9.7,14.74,13.59,18.48,3.89,3.74,7.52,5.44,10.91,5.1h248.25c11.21-5.12,19.18-9.82,23.91-14.12,4.72-4.3,10.23-11.85,16.52-22.67V56.01c.93-11.23-.03-21.68-2.9-31.34-2.87-9.67-7.41-17.79-13.62-24.36H32.45c-5.91,5.04-12.1,13.16-18.56,24.36C7.43,35.86,2.9,46.31.3,56.01Z"/>
    </clipPath>
    <clipPath id="clippath-1">
      <path class="cls-2" d="M9.96,62.48v9.07l-2.91,5.09,2.91,6.7,3.09,295.88,20.03,11.35-20.03,2.86c-.24,16.58.55,28.43,2.36,35.55,1.81,7.11,5.13,11.38,9.95,12.78h179.08l13.87,9.55-8.57-9.55,19.1-16.73-14.62,16.73h49.21c10.9-2.69,20.14-6.96,27.7-12.78,7.57-5.83,14.35-13.91,20.35-24.23l-7.02-13.14v-246l11.44-9.24-8.95-10.57v-27.04l6.28-7.99-10.89-9.58,9.13-18.72c-1.66-30.36-3.98-44.32-6.99-47.23-1.86-1.8-5.29-6.56-10.25-8.93H35.6c-10.21,10.34-16.95,19.07-20.2,26.19-3.25,7.12-5.07,17.11-5.45,29.96Z"/>
    </clipPath>
    <clipPath id="clippath-2">
      <path class="cls-1" d="M17.51,396.5c-1.11.47-1.11,3.26,0,8.38,1.11,5.12,3.8,14.71,8.07,28.78l11.76,8.13h167.58l13.38,9.52-8.08-9.52,18.61-16.76-14.57,16.76h49.14l17.89-6.43,17.76-23.29-11.35-7.19,6.32-4.12,5.03-10.05,3.24-58.91,1.66-77.88.57-90.05-.57-18.02-17.27-7.82,17.27-12.44v-24.49l-11.78-10.25,8.47-10.22s8.99-18.28,8.99-18.28c.93-7.09.14-14.26-.28-21.35-.29-4.89-.68-9.76-1.09-14.64-.35-4.19-7.49-10.64-7.49-10.64,0,0-3.36-9.38-6.54-9.39-81.89-.23-143.29-.23-184.2,0-40.92.23-65.15,1.16-72.69,2.82-7.8,7.94-13.41,14.61-16.84,20.02-3.43,5.41-5.64,10.42-6.62,15.03v23.81l3.63,10.54-3.63,9.09,2.58,289.23c3.34,2.78,5.72,5.11,7.13,7,1.41,1.89,2.8,4.57,4.15,8.06l-10.23,4.57Z"/>
    </clipPath>
  </defs>
  <g id="Layer_9" data-name="Layer 9">
    <g>
      <g>
        <path class="cls-9" d="M.3,56.01v371.69c5.17,8.58,9.7,14.74,13.59,18.48,3.89,3.74,7.52,5.44,10.91,5.1h248.25c11.21-5.12,19.18-9.82,23.91-14.12,4.72-4.3,10.23-11.85,16.52-22.67V56.01c.93-11.23-.03-21.68-2.9-31.34-2.87-9.67-7.41-17.79-13.62-24.36H32.45c-5.91,5.04-12.1,13.16-18.56,24.36C7.43,35.86,2.9,46.31.3,56.01Z"/>
        <g class="cls-16">
          <rect class="cls-11" width="314.55" height="451.81"/>
        </g>
      </g>
      <g>
        <path class="cls-7" d="M9.96,62.48v9.07l-2.91,5.09,2.91,6.7,3.09,295.88,20.03,11.35-20.03,2.86c-.24,16.58.55,28.43,2.36,35.55,1.81,7.11,5.13,11.38,9.95,12.78h179.08l13.87,9.55-8.57-9.55,19.1-16.73-14.62,16.73h49.21c10.9-2.69,20.14-6.96,27.7-12.78,7.57-5.83,14.35-13.91,20.35-24.23l-7.02-13.14v-246l11.44-9.24-8.95-10.57v-27.04l6.28-7.99-10.89-9.58,9.13-18.72c-1.66-30.36-3.98-44.32-6.99-47.23-1.86-1.8-5.29-6.56-10.25-8.93H35.6c-10.21,10.34-16.95,19.07-20.2,26.19-3.25,7.12-5.07,17.11-5.45,29.96Z"/>
        <g class="cls-12">
          <rect class="cls-8" x="4.27" y="6.01" width="311.95" height="445.62"/>
        </g>
      </g>
      <g>
        <path class="cls-5" d="M17.51,396.5c-1.11.47-1.11,3.26,0,8.38,1.11,5.12,3.8,14.71,8.07,28.78l11.76,8.13h167.58l13.38,9.52-8.08-9.52,18.61-16.76-14.57,16.76h49.14l17.89-6.43,17.76-23.29-11.35-7.19,6.32-4.12,5.03-10.05,3.24-58.91,1.66-77.88.57-90.05-.57-18.02-17.27-7.82,17.27-12.44v-24.49l-11.78-10.25,8.47-10.22s8.99-18.28,8.99-18.28c.93-7.09.14-14.26-.28-21.35-.29-4.89-.68-9.76-1.09-14.64-.35-4.19-7.49-10.64-7.49-10.64,0,0-3.36-9.38-6.54-9.39-81.89-.23-143.29-.23-184.2,0-40.92.23-65.15,1.16-72.69,2.82-7.8,7.94-13.41,14.61-16.84,20.02-3.43,5.41-5.64,10.42-6.62,15.03v23.81l3.63,10.54-3.63,9.09,2.58,289.23c3.34,2.78,5.72,5.11,7.13,7,1.41,1.89,2.8,4.57,4.15,8.06l-10.23,4.57Z"/>
        <g class="cls-13">
          <rect class="cls-4" x="13.56" y="5.78" width="296.39" height="445.85"/>
        </g>
      </g>
      <path class="cls-8" d="M49.99,390.78c-2.7.87-8.55,4.16-9.16,8.1-.34,2.22.8,6.83,1.61,9.26,2.25,6.72,10.18,10.42,14.67,8.97,4.5-1.45,8.11-9.07,5.87-15.76-2.24-6.69-8.77-11.92-12.99-10.57Z"/>
      <path class="cls-8" d="M73.88,384.48c-2.89.67-5.39,5.78-4.25,9.94,1.14,4.16,5.23,7.25,8.25,6.55s5.5-5.47,4.4-9.5c-1.11-4.03-5.51-7.66-8.39-6.99Z"/>
      <path id="Path" class="cls-7" d="M263.82,41.77c2.44,1.96,4.42,3.02,5.94,3.19s3.53-1.08,6.01-3.76c3.56-3.25,5.49-5.69,5.8-7.32.31-1.63-.82-3.37-3.41-5.23-2.35-1.82-4.22-2.67-5.61-2.56-1.39.11-3.37,1.28-5.92,3.49-1.9,3.05-3.01,5.24-3.33,6.55-.33,1.31-.15,3.19.52,5.63Z"/>
      <path id="Path-2" data-name="Path" class="cls-7" d="M281.47,21.03c-1.61,1.15-2.44,2.22-2.48,3.21-.05,1,1.22,2.69,3.81,5.09,3.19,3.28,5.53,5.24,7.03,5.89,1.5.64,3,.33,4.5-.95,1.49-1.12,2.13-2.17,1.94-3.15-.2-.98-1.39-2.63-3.57-4.96-2.9-2.1-4.95-3.43-6.16-4s-2.9-.94-5.06-1.13Z"/>
      <path id="Path-3" data-name="Path" class="cls-7" d="M295.34,39.85c-3.88-1.94-6.88-2.89-8.99-2.86-2.11.03-4.46,1.8-7.03,5.3-3.85,4.34-5.75,7.49-5.68,9.46.06,1.96,2.12,3.84,6.16,5.62,3.72,1.78,6.5,2.51,8.36,2.17,1.85-.34,4.18-2,6.99-4.98,1.66-3.87,2.52-6.59,2.57-8.18.05-1.59-.74-3.76-2.37-6.53Z"/>
      <path id="Path-4" data-name="Path" class="cls-7" d="M71.7,404.24c-1.24-.46-2.17-.27-2.77.57-.6.84-1.05,2.58-1.34,5.2-.61,6.21-.77,10.11-.46,11.71.31,1.59,1.32,2.16,3.03,1.7,1.68.5,2.85.39,3.52-.32.67-.71,1.4-2.63,2.2-5.77.17-4.75.01-7.89-.48-9.41s-1.72-2.75-3.71-3.67Z"/>
      <path class="cls-14" d="M275.3,365.87c.87-.39,11.53-1.57,13.37-1.76,2.47-.26,8.77,1.15,10.47-1.18,3.71,4.92,8.99,11.36,11.66,16.81.33.67.52,2.76.58,2.89l-.4-.03c-3.3-2.4-9.16-2.85-12.44-4.67-2.76-1.53-3.66-4.86-5.6-6.15-2.04-1.36-16.03-4.53-18.56-4.35.23-.31.82-1.5.94-1.55Z"/>
      <path class="cls-11" d="M299.95,403.24c-.35-5.35,2-16.42,9.35-14.91l-1.34-3.57.03-.4.4.03c4.56,10.9,5.62,18.69,1.41,30.22-3.59-1.8-5.7-2.08-7.89-5.52-1-1.58-1.84-3.92-1.97-5.86Z"/>
      <path class="cls-15" d="M298.85,381.59c3.05,1,6.01,2.29,9.1,3.18l1.34,3.57c-7.34-1.52-9.69,9.55-9.35,14.91-1.77-6.74-3.59-14.95-1.09-21.65Z"/>
      <path class="cls-8" d="M287.99,350.08c12.07,1.04,15.21,8.92,19.29,18.68l-19.29-18.68Z"/>
      <path class="cls-8" d="M279.56,146.54l9.44-3.74,14.81,7.2c-6.12,10.18-14.2,20.54-23.06,30.98,6.55,5.75,10.56,23,15.13,37.7-7.86-18.29-15.87-37.45-20.67-37.12,10.39-14.89,22.76-30.5,4.36-35.01Z"/>
      <g>
        <path class="cls-11" d="M7.17,312.12c1.18,2.63,1.19,6.5,2.21,9s4.42,4.19,4.74,6c.77,4.3-3.36,11.7-2.21,16.27-.84,4.5-1.95,9.65-1.9,14.06.71-2.99.88-6.18,1.58-9.16,1.24-5.25,4.52-12.9,5.06-17.85.76,4.22.77,8.55,1.26,12.8.27,2.29,2,5.69,1.58,7.9-.26,1.39-6.54,9.11-7.27,11.37,3-.66,3.7-4.7,5.06-6.63.44-.63,3.65-4.8,3.95-4.9,3.96-.12,7.9.14,11.85.32-.14.55-.8.74-1.26.95-6.16.37-11.32,6.4-13.59,11.69-2.62,2.33-6.43,2.71-9.79,2.37-.28-11.96-2.56-24.59-.32-36.33l-.63-.32c-2.47,7.28-2.84-7.61-2.84-9.16s-.59-9.51,2.53-8.37Z"/>
        <path class="cls-4" d="M7.8,312.12c.17,1.03,2.2,8.59,2.53,9.32.72,1.61,3.64,3.34,4.11,4.58,1.38,3.67-1.74,13.16-2.53,17.38-1.15-4.57,2.98-11.97,2.21-16.27-.32-1.81-3.71-3.48-4.74-6s-1.03-6.38-2.21-9c.14.05.43-.03.63,0Z"/>
        <path class="cls-6" d="M31.81,352.25c-1.93.87-2.96,1.31-4.74,2.53-4.65,3.19-5.51,6.19-8.85,9.16,2.27-5.29,7.43-11.32,13.59-11.69Z"/>
        <path class="cls-14" d="M9.54,357.93c.76.53-.05,4.89-.63,4.74l.63-4.74Z"/>
      </g>
      <path class="cls-8" d="M43.23,344.21c.22.45.61,1.78.44,2.13-.49,1-19.13-.97-22.08,1.44,3.36-7.6-2.71-13.18-3.35-20.58,2.13-4.48,8.47,10.57,9.84,11.82,3.22,2.93,12.67,0,15.15,5.19Z"/>
      <path class="cls-8" d="M20.01,62.71c-.53,1.92-3.09,8.52-3.12,9.02-.12,2.06,2.53,1.45,1.9,3.05-.36.92-8.85,3.56-10.32,2.93-.5.49.06,1.66.05,1.95-.03.45-.13,1.09-.11,1.52-1.08.4-2.05.98-3.2,1.04,1.65-5.34-2.28-8.54-4.42-12.2-.52-.89-.62-.6-.28-1.92,8.02,5.15,13.56,3.78,17.76-6.66l5.93-13.14,20.77-11.3-17.28,13.16-7.66,12.54Z"/>
      <path class="cls-14" d="M289.25,107.85c.65.65,3.08,12.37,3.62,14.31.72,2.61,4.18,8.28,2.99,11.12,5.25,1.38,12.28,3.6,17.56,3.67.65,0,2.36-.8,2.49-.81l-.18-.39c-3.12-2.18-5.67-7.86-8.32-10.29-2.23-2.04-5.18-1.36-6.93-2.69-1.83-1.41-9.55-13.97-10.36-16.61-7.24.67-14.41-2.62-21.52-8.49,6.29,7.55,13.24,10.53,20.66,10.18Z"/>
      <g id="Group-2">
        <path id="Path-5" data-name="Path" class="cls-10" d="M37.37,5.72l28.79,7.75c18.76,1.16,33.83,1.9,45.21,2.21,11.38.31,25.18.37,41.41.17l16.56,4.53c10.6.91,19.08,1.45,25.44,1.62s12.53.04,18.5-.42l-18.31-6.68c24.65.89,40.37,1.32,47.17,1.3,27.26-.11,31.52-1.57,36.63-1.43,7.01.19,1.25-.77-17.28-2.89-72.83-2.88-127.57-4.83-164.24-5.84-36.67-1.01-56.62-1.11-59.88-.32Z"/>
        <path id="Path-6" data-name="Path" class="cls-7" d="M37.37,5.79l25.7,3.81,76.85,2.11,32.82,5.47,31.44.86-7.77-2.76c17.81.38,31.09.63,39.83.75,8.75.12,12.8.11,12.17-.02-41.68-2.51-74.68-4.35-99-5.53-24.32-1.18-61.66-2.75-112.03-4.7Z"/>
        <path id="Path-7" data-name="Path" class="cls-9" d="M37.37,5.79c57.99,2.62,99.87,4.57,125.65,5.87,25.78,1.3,54.24,2.89,85.38,4.77,7.18.05,12.71-.02,16.57-.19,3.86-.17,9.42-.61,16.68-1.31-1.52-.5-3.71-.96-6.56-1.38-2.85-.42-7.38-.95-13.6-1.6-51.09-2.33-91.57-3.91-121.46-4.73-15.31-.42-64.22-2.01-81.79-2.25-11.16-.15-18.12.12-20.86.82Z"/>
      </g>
      <polygon class="cls-9" points="294.66 4.01 289.93 9.39 284.66 13.64 293.05 10.68 296.92 4.01 294.66 4.01"/>
    </g>
  </g>
</svg>