<?xml version="1.0" encoding="UTF-8"?>
<svg id="Layer_2" data-name="Layer 2" xmlns="http://www.w3.org/2000/svg" xmlns:xlink="http://www.w3.org/1999/xlink" viewBox="0 0 205.66 302.4">
  <defs>
    <style>
      .cls-1, .cls-2, .cls-3, .cls-4, .cls-5, .cls-6, .cls-7, .cls-8, .cls-9, .cls-10, .cls-11, .cls-12, .cls-13 {
        stroke-miterlimit: 10;
      }

      .cls-1, .cls-3, .cls-4, .cls-8, .cls-12, .cls-13 {
        fill: none;
      }

      .cls-1, .cls-5 {
        stroke: #c6c6c6;
      }

      .cls-1, .cls-5, .cls-7, .cls-8, .cls-11, .cls-12 {
        stroke-width: .91px;
      }

      .cls-2 {
        fill: #b5ab95;
      }

      .cls-2, .cls-6, .cls-13 {
        stroke: #b7b3ab;
        stroke-width: .61px;
      }

      .cls-14 {
        fill: #891210;
      }

      .cls-3, .cls-9 {
        stroke: #4b4b4b;
        stroke-width: 5.64px;
      }

      .cls-15 {
        fill: #353124;
      }

      .cls-4, .cls-10 {
        stroke: #898989;
        stroke-width: 1.62px;
      }

      .cls-16 {
        fill: #8e663f;
      }

      .cls-5, .cls-17 {
        fill: #f9f9f9;
      }

      .cls-6, .cls-18 {
        fill: #cdc5b0;
      }

      .cls-7, .cls-19 {
        fill: #4c4632;
      }

      .cls-7, .cls-12 {
        stroke: #3d3928;
      }

      .cls-8, .cls-11 {
        stroke: #e5d4c1;
      }

      .cls-20 {
        clip-path: url(#clippath-10);
      }

      .cls-21 {
        fill: #ddd;
      }

      .cls-22 {
        clip-path: url(#clippath-1);
      }

      .cls-23 {
        clip-path: url(#clippath-3);
      }

      .cls-24 {
        clip-path: url(#clippath-4);
      }

      .cls-25 {
        clip-path: url(#clippath-2);
      }

      .cls-26 {
        clip-path: url(#clippath-7);
      }

      .cls-27 {
        clip-path: url(#clippath-6);
      }

      .cls-28 {
        clip-path: url(#clippath-8);
      }

      .cls-29 {
        clip-path: url(#clippath-5);
      }

      .cls-30, .cls-31, .cls-32 {
        opacity: .2;
      }

      .cls-30, .cls-33 {
        fill: #7f5c36;
      }

      .cls-34, .cls-11 {
        fill: #f9ecdc;
      }

      .cls-35 {
        fill: #e25550;
      }

      .cls-36 {
        fill: #fff;
      }

      .cls-37 {
        fill: #191918;
      }

      .cls-38 {
        fill: #7e7b86;
      }

      .cls-39 {
        fill: #e5e1df;
      }

      .cls-9 {
        fill: #4b4b4b;
      }

      .cls-31 {
        fill: #f0ebff;
      }

      .cls-40 {
        opacity: .1;
      }

      .cls-40, .cls-41, .cls-32 {
        fill: #20164c;
      }

      .cls-41, .cls-42 {
        opacity: .15;
      }

      .cls-43 {
        fill: #bab5bc;
      }

      .cls-10, .cls-44 {
        fill: #a5a5a3;
      }

      .cls-42 {
        fill: #ffeac5;
      }

      .cls-45 {
        fill: #0c0812;
      }

      .cls-46 {
        fill: #b33c33;
      }

      .cls-47 {
        clip-path: url(#clippath);
      }
    </style>
    <clipPath id="clippath">
      <rect class="cls-10" x="7.88" y="35.52" width="190.65" height="262.38" rx="16.29" ry="16.29"/>
    </clipPath>
    <clipPath id="clippath-1">
      <rect class="cls-39" x="14.02" y="35.52" width="178.37" height="245.48" rx="15.25" ry="15.25"/>
    </clipPath>
    <clipPath id="clippath-2">
      <path class="cls-7" d="M66.32,196.41c5.97,10.4-25.37,24.68-41.79,55.26-3.78,5.34,17.24,35.71,37.61,22.83,10.88-1.05,9.14-2.35,12.73-9.1,5.32-10.58,6.34-26.83,2.77-49.11l-5.85-22.9-5.46,3Z"/>
    </clipPath>
    <clipPath id="clippath-3">
      <path class="cls-11" d="M57.47,60.52c-7.99-3.46-13.63-14.4-21.06-17.76-.62-.28-1.22.43-.84.99,10.59,16.16,4.85,34.15,27.6,36.63l-5.7-19.86Z"/>
    </clipPath>
    <clipPath id="clippath-4">
      <path class="cls-11" d="M146.76,191.42c1.36-9.16-1.46-11.7-2.19-20.09,4.09-24.84-6.61-48.8-26.81-52.07-1.3-1.5-1.44-4.76-1.09-8.77h-15.27l-1.03,4.94c-16.09-.1-28.85,7.43-37.72,23.86-3.31,2.95-7.89,10.8-8.88,13.15-2.02,5.97.21,9.01,10.09,16.76,3.94,3.84,7.49,7.51,5.92,12.99-1.19,6.87-5.29,7.35-6.93,10.91-2.4,4.86-1,10.37,7.7,3.56,1.29,17.89,13.59,32.79,29.83,46.61-.85,7.34-2.46,12.42-3.81,19.63-2.77,5.81-4.27,9.32-3.81,10.51,4.49,3.93,10.24,3.94,16.51,2.31,1.21-2.48,1.33-5.01,0-7.62.65-3.41,2.94-7.38,9.58-12.82l8.43,3.06c3.18,11.26-3.65,11.31-3.16,14.22,5.68,3.52,11.65,3.56,15.53-1.23,4.99-6.17,8.45-14.99-9.33-35.65,5.69-5.81,9.75-15.44,10.93-31.88,3.95,6.07,20.05,6.53,5.5-12.35ZM75.45,167.25c-.26-3.11-4.91-5.91-6.31-8.92-.34-.73-.04-1.58.66-1.95,6.73-3.63,11.45-11.25,14.27-14.06l-8.62,24.94Z"/>
    </clipPath>
    <clipPath id="clippath-5">
      <path class="cls-11" d="M160.86,73.76c5.94-7.05,14.87-14.76,23.53-17.59.91-.3,1.67.7,1.08,1.44-2.81,3.51-3.79,7.28-5.03,11.25-3.48,11.13-14.91,20.21-24.14,13.06l4.56-8.16Z"/>
    </clipPath>
    <clipPath id="clippath-6">
      <path class="cls-11" d="M57.65,39.84c-7.88,26.61,1.52,48.01,23.03,65.75,12.09,7.21,47.04,12.92,63.4-1.25,16.16-20.28,25.35-39.34,22.84-59.71C157.58,11.72,133.21-3.5,98.68,1.33c-4.67,1.3-9.81,3.65-15.17,6.52-5.01,2.68-9.42,6.36-12.87,10.87-4.73,6.16-9.1,13.67-13,21.12Z"/>
    </clipPath>
    <clipPath id="clippath-7">
      <circle class="cls-5" cx="138.55" cy="53.2" r="13.63"/>
    </clipPath>
    <clipPath id="clippath-8">
      <circle class="cls-5" cx="90.93" cy="48.15" r="14.49"/>
    </clipPath>
    <clipPath id="clippath-10">
      <path class="cls-6" d="M77.17,160.84c-3.11,8.94-5.12,16.63-5.83,22.83,16.86-3.23,30.53,2.69,40.93,18.01,6.56-8.36,14.93-14.68,27.4-16.32l-3.39-21.4c-15.59,6.56-36.31,3.65-59.11-3.13Z"/>
    </clipPath>
  </defs>
  <g id="Layer_9" data-name="Layer 9">
    <g>
      <g>
        <rect class="cls-44" x="7.88" y="35.52" width="190.65" height="262.38" rx="16.29" ry="16.29"/>
        <g class="cls-47">
          <polygon class="cls-38" points="0 302.4 17.39 269.81 181.59 269.81 205.66 302.4 0 302.4"/>
        </g>
        <rect class="cls-4" x="7.88" y="35.52" width="190.65" height="262.38" rx="16.29" ry="16.29"/>
      </g>
      <g>
        <rect class="cls-39" x="14.02" y="35.52" width="178.37" height="245.48" rx="15.25" ry="15.25"/>
        <g class="cls-22">
          <rect class="cls-43" x="20.38" y="41.01" width="178.37" height="245.48" rx="15.25" ry="15.25"/>
          <path class="cls-31" d="M198.53,128.3c0-76.37-190.65-76.37-190.65,0V28.47s190.65,0,190.65,0v99.83Z"/>
        </g>
      </g>
    </g>
    <g>
      <g>
        <path class="cls-19" d="M66.32,196.41c5.97,10.4-25.37,24.68-41.79,55.26-3.78,5.34,17.24,35.71,37.61,22.83,10.88-1.05,9.14-2.35,12.73-9.1,5.32-10.58,6.34-26.83,2.77-49.11l-5.85-22.9-5.46,3Z"/>
        <g class="cls-25">
          <path class="cls-15" d="M58.56,206.88c10.18,7.02,18.77,21.87,26.77,39.56l-10.83-57.27-19.03,8.13,3.09,9.57Z"/>
          <path class="cls-15" d="M55.93,209.34c-23.22,38.3-17.83,62.01,12.92,73.74-26.56,5.31-46.29-1.07-54.14-27.71l41.22-46.03Z"/>
          <path class="cls-42" d="M38.87,266.87c-5.48-3.33-9.56-8.53-11.71-16.28-.66-5.09,15.04-13.43,20.58-30.37.26,14.97-16.56,22.89-15.13,32.03,1.08,4.66,3.47,9.6,6.26,14.62Z"/>
          <path class="cls-42" d="M53.93,263.84c5.05.26,10.03.42,13.08-2.31,2.39-3.28,3.25-14.8,4.18-25.99-3.14,16.17-8.57,26.43-17.26,28.3Z"/>
          <path class="cls-42" d="M72.99,244.44c4.63,13.19,1.93,22.04-6.21,24.86,6.45-5.51,8.36-14.78,6.21-24.86Z"/>
          <path class="cls-42" d="M52.95,222.31c6.75-4.14,12.53-12.35,18.07-23.67-6.35,9.61-12.41,17.68-18.07,23.67Z"/>
          <path class="cls-42" d="M63.55,223.89c.88-7.7,2.84-15.16,6.01-22.36-1.36,7.9-3.4,15.33-6.01,22.36Z"/>
          <path class="cls-42" d="M71.01,202.74c-2.28,9.42-2.68,21.78.95,27.69-1.26-8.35-1.22-18.65-.95-27.69Z"/>
          <path class="cls-42" d="M73.05,211.59c0,8.24.45,15.27,3.04,21.53l-3.04-21.53Z"/>
          <path class="cls-42" d="M61.98,229.28c1.84,8.75-2.95,16.88-10.08,24.78,4.19-7.73,7.84-15.79,10.08-24.78Z"/>
          <path class="cls-42" d="M47.6,255.6c-8.37-10.33-.23-24.03,14.33-39.02-6.24,26.27-11.32,41.97-14.33,39.02Z"/>
          <path class="cls-15" d="M51.9,262.71c10.44-.26,15.07-17.42,16.95-32.12-4.68,13.1-10.33,23.81-16.95,32.12Z"/>
        </g>
        <path class="cls-12" d="M66.32,196.41c5.97,10.4-25.37,24.68-41.79,55.26-3.78,5.34,17.24,35.71,37.61,22.83,10.88-1.05,9.14-2.35,12.73-9.1,5.32-10.58,6.34-26.83,2.77-49.11l-5.85-22.9-5.46,3Z"/>
      </g>
      <g>
        <path class="cls-34" d="M57.47,60.52c-7.99-3.46-13.63-14.4-21.06-17.76-.62-.28-1.22.43-.84.99,10.59,16.16,4.85,34.15,27.6,36.63l-5.7-19.86Z"/>
        <g class="cls-23">
          <path class="cls-41" d="M49.3,50.63c4.95,13.47,6.86,29.63,2.28,36.29l18.97-3.81-9.58-31.63-11.67-.85Z"/>
        </g>
        <path class="cls-8" d="M57.47,60.52c-7.99-3.46-13.63-14.4-21.06-17.76-.62-.28-1.22.43-.84.99,10.59,16.16,4.85,34.15,27.6,36.63l-5.7-19.86Z"/>
      </g>
      <g>
        <path class="cls-34" d="M146.76,191.42c1.36-9.16-1.46-11.7-2.19-20.09,4.09-24.84-6.61-48.8-26.81-52.07-1.3-1.5-1.44-4.76-1.09-8.77h-15.27l-1.03,4.94c-16.09-.1-28.85,7.43-37.72,23.86-3.31,2.95-7.89,10.8-8.88,13.15-2.02,5.97.21,9.01,10.09,16.76,3.94,3.84,7.49,7.51,5.92,12.99-1.19,6.87-5.29,7.35-6.93,10.91-2.4,4.86-1,10.37,7.7,3.56,1.29,17.89,13.59,32.79,29.83,46.61-.85,7.34-2.46,12.42-3.81,19.63-2.77,5.81-4.27,9.32-3.81,10.51,4.49,3.93,10.24,3.94,16.51,2.31,1.21-2.48,1.33-5.01,0-7.62.65-3.41,2.94-7.38,9.58-12.82l8.43,3.06c3.18,11.26-3.65,11.31-3.16,14.22,5.68,3.52,11.65,3.56,15.53-1.23,4.99-6.17,8.45-14.99-9.33-35.65,5.69-5.81,9.75-15.44,10.93-31.88,3.95,6.07,20.05,6.53,5.5-12.35ZM75.45,167.25c-.26-3.11-4.91-5.91-6.31-8.92-.34-.73-.04-1.58.66-1.95,6.73-3.63,11.45-11.25,14.27-14.06l-8.62,24.94Z"/>
        <g class="cls-24">
          <path class="cls-41" d="M81.33,146.16c4.17-4.28,6.79-12.03,8.66-21.47-2.66,8.39-5.49,15.85-8.66,21.47Z"/>
          <path class="cls-41" d="M131.83,135.23c7.98,29.43,13.43,53.7,9.44,71.38-1.02-19.82-4.95-40.07-9.44-71.38Z"/>
          <path class="cls-41" d="M109.46,124.63c-3.12,10.97-3.3,19.42-.54,24.63-1.41-6.8-1.15-15.08.54-24.63Z"/>
          <path class="cls-41" d="M112.59,151.86c2.2,2.56,4.35,4.81,6.41,6.38,5.94,1.58,11.54,2.23,16.8,1.96-10.18,1.37-20.01,1.79-23.21-8.34Z"/>
          <path class="cls-41" d="M99.2,148.42c-.61,2.03-1.94,5.4-5.21,6.47-5.54,1.81-11.36,1.79-18.4,3.91,8.43-.43,17.78.07,21.35-2.52,1.86-2.76,2.58-4.48,2.26-7.85Z"/>
          <path class="cls-41" d="M144.87,171.87c-1.61.08-1.91-5.75-2.23-11.47,1.22,5.29,2.57,9.85,4.7,10.08l-2.46,1.39Z"/>
          <path class="cls-41" d="M69.26,158.51c-2.27-1.33.73-4.33,4.12-7.47l-4.12,7.47Z"/>
          <path class="cls-41" d="M96.38,240.05c7.5,5.98,15.61,11.62,23.78,15.58l-7.16,9.6c-1.76-7.76-8.67-13.06-18.53-16.97l1.91-8.21Z"/>
          <path class="cls-41" d="M109.77,198.17c4.94,7.69,6.78,15.77,6.47,24.13,5.7,4.58,11.22,9.86,16.63,15.59-.28-4.79-5.13-10.6-12.47-16.97-.54-9.18-3.71-16.96-10.62-22.74Z"/>
          <path class="cls-41" d="M75.63,164.45c-7.6,11.08-6.75,21.38-5.15,35.56.94-13.59,1.75-23.6,5.15-35.56Z"/>
          <path class="cls-41" d="M126.09,257.55c2.54.75,5.13,1.28,7.85,1.21l-8.89,8.08,1.04-9.29Z"/>
          <path class="cls-41" d="M83.21,115.56c21.57-2.73,26.28-3.38,46.87,3.23l.35-12.58-43.06.58-4.16,8.77Z"/>
          <path class="cls-41" d="M75.19,172.11c-3.42,8.94-2.86,8.21-3.64,14.41,18.54-3.23,31.02,4.84,42.45,20.17,5.43-10.56,13.66-16.15,25.48-19.68l-.97-9.19c-24.5,6.26-43.98.83-63.33-5.72Z"/>
        </g>
        <path class="cls-8" d="M146.76,191.42c1.36-9.16-1.46-11.7-2.19-20.09,4.09-24.84-6.61-48.8-26.81-52.07-1.3-1.5-1.44-4.76-1.09-8.77h-15.27l-1.03,4.94c-16.09-.1-28.85,7.43-37.72,23.86-3.31,2.95-7.89,10.8-8.88,13.15-2.02,5.97.21,9.01,10.09,16.76,3.94,3.84,7.49,7.51,5.92,12.99-1.19,6.87-5.29,7.35-6.93,10.91-2.4,4.86-1,10.37,7.7,3.56,1.29,17.89,13.59,32.79,29.83,46.61-.85,7.34-2.46,12.42-3.81,19.63-2.77,5.81-4.27,9.32-3.81,10.51,4.49,3.93,10.24,3.94,16.51,2.31,1.21-2.48,1.33-5.01,0-7.62.65-3.41,2.94-7.38,9.58-12.82l8.43,3.06c3.18,11.26-3.65,11.31-3.16,14.22,5.68,3.52,11.65,3.56,15.53-1.23,4.99-6.17,8.45-14.99-9.33-35.65,5.69-5.81,9.75-15.44,10.93-31.88,3.95,6.07,20.05,6.53,5.5-12.35ZM75.45,167.25c-.26-3.11-4.91-5.91-6.31-8.92-.34-.73-.04-1.58.66-1.95,6.73-3.63,11.45-11.25,14.27-14.06l-8.62,24.94Z"/>
      </g>
      <g>
        <path class="cls-34" d="M160.86,73.76c5.94-7.05,14.87-14.76,23.53-17.59.91-.3,1.67.7,1.08,1.44-2.81,3.51-3.79,7.28-5.03,11.25-3.48,11.13-14.91,20.21-24.14,13.06l4.56-8.16Z"/>
        <g class="cls-29">
          <path class="cls-41" d="M179.64,51.8c-10.73,14.46-17.5,28.42-19.09,41.72l-11.55-10.01,14.47-27.39,16.16-4.32Z"/>
        </g>
        <path class="cls-8" d="M160.86,73.76c5.94-7.05,14.87-14.76,23.53-17.59.91-.3,1.67.7,1.08,1.44-2.81,3.51-3.79,7.28-5.03,11.25-3.48,11.13-14.91,20.21-24.14,13.06l4.56-8.16Z"/>
      </g>
      <g>
        <path class="cls-34" d="M57.65,39.84c-7.88,26.61,1.52,48.01,23.03,65.75,12.09,7.21,47.04,12.92,63.4-1.25,16.16-20.28,25.35-39.34,22.84-59.71C157.58,11.72,133.21-3.5,98.68,1.33c-4.67,1.3-9.81,3.65-15.17,6.52-5.01,2.68-9.42,6.36-12.87,10.87-4.73,6.16-9.1,13.67-13,21.12Z"/>
        <g class="cls-27">
          <circle class="cls-32" cx="138.45" cy="54.95" r="14.18"/>
          <ellipse class="cls-32" cx="89.99" cy="49.83" rx="15.12" ry="14.5"/>
          <ellipse class="cls-35" cx="68.38" cy="82.87" rx="9.49" ry="10.71" transform="translate(-27.92 130.5) rotate(-76.78)"/>
          <g>
            <circle class="cls-17" cx="138.55" cy="53.2" r="13.63"/>
            <g class="cls-26">
              <ellipse class="cls-21" cx="137.48" cy="64.45" rx="11.48" ry="6.35"/>
              <circle class="cls-37" cx="132.1" cy="50.36" r="4.15"/>
            </g>
            <circle class="cls-1" cx="138.55" cy="53.2" r="13.63"/>
          </g>
          <g>
            <circle class="cls-17" cx="90.93" cy="48.15" r="14.49"/>
            <g class="cls-28">
              <ellipse class="cls-21" cx="95.22" cy="59.46" rx="14.94" ry="7.66" transform="translate(-14.69 36.62) rotate(-20.25)"/>
              <circle class="cls-37" cx="96.66" cy="44.02" r="4.82"/>
            </g>
            <circle class="cls-1" cx="90.93" cy="48.15" r="14.49"/>
          </g>
          <path class="cls-33" d="M125.4,71.91c-.51,2.8.44,5.77.67,8.61.28,3.85.95,6.73,4.29,8.61-1.52-.62-2.97-1.55-4.06-2.85-3.38-4-2.44-9.8-.9-14.38h0Z"/>
          <path class="cls-33" d="M98.62,76.35c1.79,2.82,2.97,6.75.58,9.62-.77.9-3.72,2.66-2.86,1.91,3.55-3.08,2.82-7.43,2.14-11.72l.14.18Z"/>
          <path class="cls-32" d="M137.69,71.84c8.46.89,14.14-2.68,16.57-11.49-4.08,7.24-9.73,10.76-16.57,11.49Z"/>
          <path class="cls-32" d="M88.19,66.63c-8.3.97-13.88-2.92-16.26-12.51,4,7.88,9.55,11.71,16.26,12.51Z"/>
          <path class="cls-32" d="M137.41,26.13c-2.93,6.46,4.67,10.28,12.79,5.18l-12.79-5.18Z"/>
          <path class="cls-32" d="M100.43,20.54c1.48,7.56-7.49,9.71-14.79,2.3l14.79-2.3Z"/>
          <path class="cls-45" d="M137.01,27.69c1.33-7.03,6.09-5.67,14.28,4.09.45.54-.03,1.29-.77,1.2-3.52-.42-7.76-2.51-11.97-3.31-1.02-.19-1.71-1.06-1.54-1.98Z"/>
          <path class="cls-45" d="M101.07,22.32c.21-7.38-5.07-7.11-15.85.79-.59.44-.26,1.3.53,1.39,3.77.39,8.68-.72,13.26-.55,1.11.04,2.03-.67,2.06-1.63Z"/>
          <path class="cls-14" d="M100.43,81.71c-2.64,16.52,21.63,23.46,24.37-7.68-5.29,17.9-20.67,19.47-24.37,7.68Z"/>
          <path class="cls-46" d="M112.64,94.38c4.09,3.43,3.4,8.09,5.72,11.08.64.82,1.88.87,2.54.07,3.95-4.74,3.93-9.54-1.99-16.36-2.45-.26-4.17,1.64-6.35,3.95-.34.37-.32.95.07,1.27Z"/>
          <path class="cls-40" d="M61.04,20.01c-8.27,36.95,1.55,67.17,20.59,80.51,16.78,11.75,42.29,10.97,74.81,4.35l-52.42,20.56c-60.15-10.45-69.2-51.86-42.99-105.42Z"/>
          <path class="cls-35" d="M156.78,95.02c-3.2,4.48-6.97,3.97-9.38-.26-2.42-4.22-9.39-6.26-6.19-10.73,3.2-4.48,10.29-4.32,15.14-2.27,4.85,2.05,3.64,8.78.44,13.26Z"/>
          <path class="cls-30" d="M113.56,74.93c-1.7-.87-3.58-.7-5.58.12l-1.44,3.19c1.18,1.32,3.38,2.44,5.04,1.89,2.13-.71,3.51-3.52,1.99-5.2Z"/>
          <path class="cls-16" d="M112.17,49.88c.36,1.81.64,3.65.71,5.49-.09,3.07-.44,6.18-1.09,9.17-1.03,4.82-2.72,9.47-4.75,13.93l-.09-.51c1.61,1.55,3.8,2.9,5.72,1.06,1.16-.94,2.04-2.79.89-4.08,1.41,1.05.94,3.16-.02,4.38-.67.92-1.79,1.53-2.96,1.51-1.8-.08-3.49-1.29-4.69-2.48,2.06-4.51,3.99-9.16,5.02-14,.63-2.96,1.01-5.97,1.04-8.99.12-1.75.23-3.72.22-5.48h0Z"/>
        </g>
        <path class="cls-8" d="M57.65,39.84c-7.88,26.61,1.52,48.01,23.03,65.75,12.09,7.21,47.04,12.92,63.4-1.25,16.16-20.28,25.35-39.34,22.84-59.71C157.58,11.72,133.21-3.5,98.68,1.33c-4.67,1.3-9.81,3.65-15.17,6.52-5.01,2.68-9.42,6.36-12.87,10.87-4.73,6.16-9.1,13.67-13,21.12Z"/>
      </g>
      <g>
        <path class="cls-18" d="M77.17,160.84c-3.11,8.94-5.12,16.63-5.83,22.83,16.86-3.23,30.53,2.69,40.93,18.01,6.56-8.36,14.93-14.68,27.4-16.32l-3.39-21.4c-15.59,6.56-36.31,3.65-59.11-3.13Z"/>
        <g class="cls-20">
          <path class="cls-2" d="M74.89,165.5c22.26,8.07,44.2,10.9,65.66,5.5l-1.27-10.1-62.92-4.45-1.46,9.04Z"/>
        </g>
        <path class="cls-13" d="M77.17,160.84c-3.11,8.94-5.12,16.63-5.83,22.83,16.86-3.23,30.53,2.69,40.93,18.01,6.56-8.36,14.93-14.68,27.4-16.32l-3.39-21.4c-15.59,6.56-36.31,3.65-59.11-3.13Z"/>
      </g>
    </g>
    <g>
      <g>
        <path class="cls-3" d="M62.69,264.97c-.14,0-.28,0-.41-.02s-.26-.04-.38-.09c-.12-.07-.23-.19-.32-.36-.05-.1-.08-.27-.09-.54-.01-.26-.03-.53-.05-.81-.02-.27-.03-.54-.03-.79v-.55c-.02-.79-.04-1.57-.04-2.35v-2.31c-.17-.33-.47-.91-.9-1.72-.43-.81-.91-1.74-1.45-2.77-.54-1.04-1.11-2.14-1.7-3.3-.6-1.16-1.16-2.26-1.68-3.29-.53-1.04-.99-1.97-1.38-2.79s-.66-1.41-.81-1.77c-.05-.14-.07-.26-.07-.36.02-.12.11-.23.25-.32.17-.12.51-.32,1.02-.59s1.06-.56,1.65-.84c.59-.29,1.14-.55,1.67-.8.52-.25.88-.42,1.08-.52.26-.12.54-.23.82-.32.29-.09.49-.01.61.25.79,1.93,1.53,3.87,2.22,5.8s1.46,3.86,2.29,5.77c.69-2.03,1.4-4.04,2.13-6.02.73-1.98,1.51-3.96,2.34-5.95.07-.19.17-.41.31-.65.13-.24.29-.34.48-.32.84.1,1.66.22,2.47.36.81.14,1.62.31,2.43.5.19.05.4.09.61.14.22.05.41.11.57.2.17.08.29.19.36.3.07.12.07.26,0,.43-.17.38-.45,1.05-.86,1.99-.41.94-.87,2.03-1.4,3.26-.53,1.23-1.08,2.53-1.67,3.9s-1.14,2.68-1.66,3.9c-.53,1.23-.99,2.32-1.38,3.28s-.67,1.62-.84,2.01c0,.24,0,.7-.02,1.4s-.02,1.43-.03,2.22-.02,1.53-.02,2.22.01,1.16.03,1.4c.05.14.05.27,0,.39-.09.12-.26.19-.5.2-.24.01-.42.02-.54.02-.86,0-1.72.02-2.58.07-.86.05-1.71.1-2.54.14Z"/>
        <path class="cls-3" d="M98.15,264.33c-.21.05-.62.08-1.22.11-.6.02-1.24.04-1.92.05-.68.01-1.32.02-1.92.02s-1,.01-1.22.03c-.1,0-.17-.04-.22-.12-.05-.08-.08-.19-.11-.3v-.31c0-.15,0-.32.02-.5.01-.18.02-.35.02-.5v-.34c-2.08.34-4.14.66-6.2.97-2.05.31-4.12.6-6.2.86h-.27c-.11,0-.19-.02-.23-.07-.09-.09-.16-.27-.18-.52-.02-.25-.05-.44-.07-.56-.12-1.07-.19-2.15-.22-3.22-.02-1.08-.06-2.15-.11-3.22-.1-2.58-.2-5.15-.32-7.72-.12-2.57-.08-5.14.11-7.72.02-.22.03-.47.02-.75-.01-.29,0-.56.02-.82.02-.26.08-.5.16-.72s.23-.35.45-.4c.14-.05.29-.08.45-.09.15-.01.31-.04.48-.09,1-.24,2.02-.33,3.04-.29s2.04.06,3.04.03c.14-.02.29-.02.43.02.14.03.23.11.25.23v.79c-.05,1.58-.11,3.15-.2,4.71-.08,1.56-.15,3.14-.2,4.71-.02.17-.04.46-.05.88-.01.42-.02.9-.04,1.43s-.02,1.11-.03,1.72c-.01.61-.02,1.18-.04,1.72-.01.54-.03,1.01-.05,1.43-.02.42-.03.71-.03.88.19-.02.57-.08,1.13-.18.56-.09,1.16-.2,1.81-.3.64-.11,1.25-.2,1.81-.29.56-.08.94-.14,1.13-.16.05-2.89.05-5.75,0-8.58-.05-2.83-.07-5.68-.07-8.54,0-.31.18-.49.54-.54.22-.02.6-.05,1.15-.09.55-.03,1.13-.06,1.74-.07.61-.01,1.19-.02,1.74-.02s.93.02,1.15.07c.12.02.24.03.38.02.13-.01.24.03.34.13.12.1.16.28.13.55-.03.28-.05.5-.05.66-.05,2.75-.06,5.48-.03,8.2.02,2.72-.01,5.46-.11,8.2,0,.24,0,.69-.02,1.36-.01.67-.03,1.37-.05,2.11-.02.74-.03,1.45-.03,2.11s.02,1.12.07,1.36c.02.14.05.31.09.5.04.19.06.36.07.52s0,.29-.05.41c-.05.12-.14.19-.29.21Z"/>
        <path class="cls-3" d="M109.25,264.97c-.14,0-.28,0-.41-.02s-.26-.04-.38-.09c-.12-.07-.23-.19-.32-.36-.05-.1-.08-.27-.09-.54-.01-.26-.03-.53-.05-.81-.02-.27-.03-.54-.03-.79v-.55c-.02-.79-.04-1.57-.04-2.35v-2.31c-.17-.33-.47-.91-.9-1.72-.43-.81-.91-1.74-1.45-2.77-.54-1.04-1.11-2.14-1.7-3.3-.6-1.16-1.16-2.26-1.68-3.29-.53-1.04-.99-1.97-1.38-2.79s-.66-1.41-.81-1.77c-.05-.14-.07-.26-.07-.36.02-.12.11-.23.25-.32.17-.12.51-.32,1.02-.59s1.06-.56,1.65-.84c.59-.29,1.14-.55,1.67-.8.52-.25.88-.42,1.08-.52.26-.12.54-.23.82-.32.29-.09.49-.01.61.25.79,1.93,1.53,3.87,2.22,5.8.69,1.93,1.46,3.86,2.29,5.77.69-2.03,1.4-4.04,2.13-6.02.73-1.98,1.51-3.96,2.34-5.95.07-.19.17-.41.31-.65.13-.24.29-.34.48-.32.84.1,1.66.22,2.47.36.81.14,1.62.31,2.43.5.19.05.4.09.61.14.22.05.41.11.57.2.17.08.29.19.36.3.07.12.07.26,0,.43-.17.38-.45,1.05-.86,1.99-.41.94-.87,2.03-1.4,3.26-.53,1.23-1.08,2.53-1.67,3.9s-1.14,2.68-1.66,3.9c-.53,1.23-.99,2.32-1.38,3.28s-.67,1.62-.84,2.01c0,.24,0,.7-.02,1.4s-.02,1.43-.03,2.22-.02,1.53-.02,2.22.01,1.16.03,1.4c.05.14.05.27,0,.39-.09.12-.26.19-.5.2-.24.01-.42.02-.54.02-.86,0-1.72.02-2.58.07-.86.05-1.71.1-2.54.14Z"/>
        <path class="cls-3" d="M144.71,264.33c-.21.05-.62.08-1.22.11-.6.02-1.24.04-1.92.05-.68.01-1.32.02-1.92.02s-1,.01-1.22.03c-.1,0-.17-.04-.22-.12-.05-.08-.08-.19-.11-.3v-.31c0-.15,0-.32.02-.5.01-.18.02-.35.02-.5v-.34c-2.08.34-4.14.66-6.2.97-2.05.31-4.12.6-6.2.86h-.27c-.11,0-.19-.02-.23-.07-.09-.09-.16-.27-.18-.52-.02-.25-.05-.44-.07-.56-.12-1.07-.19-2.15-.22-3.22-.02-1.08-.06-2.15-.11-3.22-.1-2.58-.2-5.15-.32-7.72-.12-2.57-.08-5.14.11-7.72.02-.22.03-.47.02-.75-.01-.29,0-.56.02-.82.02-.26.08-.5.16-.72s.23-.35.45-.4c.14-.05.29-.08.45-.09.15-.01.31-.04.48-.09,1-.24,2.02-.33,3.04-.29s2.04.06,3.04.03c.14-.02.29-.02.43.02.14.03.23.11.25.23v.79c-.05,1.58-.11,3.15-.2,4.71-.08,1.56-.15,3.14-.2,4.71-.02.17-.04.46-.05.88-.01.42-.02.9-.04,1.43s-.02,1.11-.03,1.72c-.01.61-.02,1.18-.04,1.72-.01.54-.03,1.01-.05,1.43-.02.42-.03.71-.03.88.19-.02.57-.08,1.13-.18.56-.09,1.16-.2,1.81-.3.64-.11,1.25-.2,1.81-.29.56-.08.94-.14,1.13-.16.05-2.89.05-5.75,0-8.58-.05-2.83-.07-5.68-.07-8.54,0-.31.18-.49.54-.54.22-.02.6-.05,1.15-.09.55-.03,1.13-.06,1.74-.07.61-.01,1.19-.02,1.74-.02s.93.02,1.15.07c.12.02.24.03.38.02.13-.01.24.03.34.13.12.1.16.28.13.55-.03.28-.05.5-.05.66-.05,2.75-.06,5.48-.03,8.2.02,2.72-.01,5.46-.11,8.2,0,.24,0,.69-.02,1.36-.01.67-.03,1.37-.05,2.11-.02.74-.03,1.45-.03,2.11s.02,1.12.07,1.36c.02.14.05.31.09.5.04.19.06.36.07.52s0,.29-.05.41c-.05.12-.14.19-.29.21Z"/>
        <path class="cls-3" d="M163.76,265.19c-.09.05-.23.08-.41.11-.18.02-.37.03-.57.03h-1.06c-1.03-.07-2.01-.18-2.94-.32-1.58-.19-3.15-.32-4.71-.4-1.56-.07-3.13-.2-4.71-.39-.19-.02-.38-.05-.56-.07-.18-.02-.35-.08-.52-.18-.33-.17-.5-.44-.5-.83.05-1.48.11-2.95.2-4.42s.15-2.95.2-4.46c.05-1.1.06-2.19.05-3.28-.01-1.09,0-2.18.05-3.28.05-1.15.11-2.27.18-3.39.07-1.11.14-2.23.22-3.35v-.73c0-.27.01-.54.03-.79.02-.25.09-.47.2-.65.11-.18.27-.28.48-.3.22-.02.59-.03,1.13-.03h1.72c.61,0,1.19.01,1.74.03.55.02.93.05,1.15.07.19.02.45.07.77.14.32.07.54.18.66.32.07.14.08.4.04.77-.05.37-.08.63-.11.77-.07.65-.16,1.29-.25,1.92-.1.63-.18,1.27-.25,1.92-.14,1.29-.29,2.57-.43,3.85-.14,1.28-.3,2.56-.47,3.85-.02.19-.07.54-.12,1.06-.06.51-.12,1.06-.18,1.65s-.11,1.13-.14,1.65c-.03.51-.05.87-.05,1.06.19.02.53.04,1,.04h5.61c.63,0,1.19,0,1.66.02s.81.03,1,.05c.26.05.48.19.65.43.09.19.12.44.07.75-.05.84-.09,1.68-.13,2.52-.04.85-.09,1.69-.16,2.52-.02.24-.07.48-.14.73s-.2.45-.4.59Z"/>
      </g>
      <g>
        <path class="cls-9" d="M62.62,268.25c-.14,0-.28,0-.41-.02s-.26-.04-.38-.09c-.12-.07-.23-.19-.32-.36-.05-.1-.08-.27-.09-.54-.01-.26-.03-.53-.05-.81-.02-.27-.03-.54-.03-.79v-.55c-.02-.79-.04-1.57-.04-2.35v-2.31c-.17-.33-.47-.91-.9-1.72-.43-.81-.91-1.74-1.45-2.77-.54-1.04-1.11-2.14-1.7-3.3-.6-1.16-1.16-2.26-1.68-3.29-.53-1.04-.99-1.97-1.38-2.79s-.66-1.41-.81-1.77c-.05-.14-.07-.26-.07-.36.02-.12.11-.23.25-.32.17-.12.51-.32,1.02-.59s1.06-.56,1.65-.84c.59-.29,1.14-.55,1.67-.8.52-.25.88-.42,1.08-.52.26-.12.54-.23.82-.32.29-.09.49-.01.61.25.79,1.93,1.53,3.87,2.22,5.8.69,1.93,1.46,3.86,2.29,5.77.69-2.03,1.4-4.04,2.13-6.02.73-1.98,1.51-3.96,2.34-5.95.07-.19.17-.41.31-.65.13-.24.29-.34.48-.32.84.1,1.66.22,2.47.36.81.14,1.62.31,2.43.5.19.05.4.09.61.14.22.05.41.11.57.2.17.08.29.19.36.3.07.12.07.26,0,.43-.17.38-.45,1.05-.86,1.99-.41.94-.87,2.03-1.4,3.26-.53,1.23-1.08,2.53-1.67,3.9s-1.14,2.68-1.66,3.9c-.53,1.23-.99,2.32-1.38,3.28s-.67,1.62-.84,2.01c0,.24,0,.7-.02,1.4s-.02,1.43-.03,2.22c-.01.79-.02,1.53-.02,2.22s.01,1.16.03,1.4c.05.14.05.27,0,.39-.09.12-.26.19-.5.2-.24.01-.42.02-.54.02-.86,0-1.72.02-2.58.07-.86.05-1.71.1-2.54.14Z"/>
        <path class="cls-9" d="M98.07,267.61c-.21.05-.62.08-1.22.11-.6.02-1.24.04-1.92.05-.68.01-1.32.02-1.92.02s-1,.01-1.22.03c-.1,0-.17-.04-.22-.12-.05-.08-.08-.19-.11-.3v-.31c0-.15,0-.32.02-.5.01-.18.02-.35.02-.5v-.34c-2.08.34-4.14.66-6.2.97-2.05.31-4.12.6-6.2.86h-.27c-.11,0-.19-.02-.23-.07-.09-.09-.16-.27-.18-.52-.02-.25-.05-.44-.07-.56-.12-1.07-.19-2.15-.22-3.22-.02-1.08-.06-2.15-.11-3.22-.1-2.58-.2-5.15-.32-7.72-.12-2.57-.08-5.14.11-7.72.02-.22.03-.47.02-.75-.01-.29,0-.56.02-.82.02-.26.08-.5.16-.72s.23-.35.45-.4c.14-.05.29-.08.45-.09.15-.01.31-.04.48-.09,1-.24,2.02-.33,3.04-.29s2.04.06,3.04.03c.14-.02.29-.02.43.02.14.03.23.11.25.23v.79c-.05,1.58-.11,3.15-.2,4.71-.08,1.56-.15,3.14-.2,4.71-.02.17-.04.46-.05.88-.01.42-.02.9-.04,1.43s-.02,1.11-.03,1.72c-.01.61-.02,1.18-.04,1.72-.01.54-.03,1.01-.05,1.43-.02.42-.03.71-.03.88.19-.02.57-.08,1.13-.18.56-.09,1.16-.2,1.81-.3.64-.11,1.25-.2,1.81-.29.56-.08.94-.14,1.13-.16.05-2.89.05-5.75,0-8.58-.05-2.83-.07-5.68-.07-8.54,0-.31.18-.49.54-.54.22-.02.6-.05,1.15-.09.55-.03,1.13-.06,1.74-.07.61-.01,1.19-.02,1.74-.02s.93.02,1.15.07c.12.02.24.03.38.02.13-.01.24.03.34.13.12.1.16.28.13.55-.03.28-.05.5-.05.66-.05,2.75-.06,5.48-.03,8.2.02,2.72-.01,5.46-.11,8.2,0,.24,0,.69-.02,1.36-.01.67-.03,1.37-.05,2.11-.02.74-.03,1.45-.03,2.11s.02,1.12.07,1.36c.02.14.05.31.09.5.04.19.06.36.07.52s0,.29-.05.41c-.05.12-.14.19-.29.21Z"/>
        <path class="cls-9" d="M109.18,268.25c-.14,0-.28,0-.41-.02s-.26-.04-.38-.09c-.12-.07-.23-.19-.32-.36-.05-.1-.08-.27-.09-.54-.01-.26-.03-.53-.05-.81-.02-.27-.03-.54-.03-.79v-.55c-.02-.79-.04-1.57-.04-2.35v-2.31c-.17-.33-.47-.91-.9-1.72-.43-.81-.91-1.74-1.45-2.77-.54-1.04-1.11-2.14-1.7-3.3-.6-1.16-1.16-2.26-1.68-3.29-.53-1.04-.99-1.97-1.38-2.79s-.66-1.41-.81-1.77c-.05-.14-.07-.26-.07-.36.02-.12.11-.23.25-.32.17-.12.51-.32,1.02-.59s1.06-.56,1.65-.84c.59-.29,1.14-.55,1.67-.8.52-.25.88-.42,1.08-.52.26-.12.54-.23.82-.32.29-.09.49-.01.61.25.79,1.93,1.53,3.87,2.22,5.8s1.46,3.86,2.29,5.77c.69-2.03,1.4-4.04,2.13-6.02.73-1.98,1.51-3.96,2.34-5.95.07-.19.17-.41.31-.65.13-.24.29-.34.48-.32.84.1,1.66.22,2.47.36.81.14,1.62.31,2.43.5.19.05.4.09.61.14.22.05.41.11.57.2.17.08.29.19.36.3.07.12.07.26,0,.43-.17.38-.45,1.05-.86,1.99-.41.94-.87,2.03-1.4,3.26-.53,1.23-1.08,2.53-1.67,3.9s-1.14,2.68-1.66,3.9c-.53,1.23-.99,2.32-1.38,3.28s-.67,1.62-.84,2.01c0,.24,0,.7-.02,1.4s-.02,1.43-.03,2.22-.02,1.53-.02,2.22.01,1.16.03,1.4c.05.14.05.27,0,.39-.09.12-.26.19-.5.2-.24.01-.42.02-.54.02-.86,0-1.72.02-2.58.07-.86.05-1.71.1-2.54.14Z"/>
        <path class="cls-9" d="M144.64,267.61c-.21.05-.62.08-1.22.11-.6.02-1.24.04-1.92.05-.68.01-1.32.02-1.92.02s-1,.01-1.22.03c-.1,0-.17-.04-.22-.12-.05-.08-.08-.19-.11-.3v-.31c0-.15,0-.32.02-.5.01-.18.02-.35.02-.5v-.34c-2.08.34-4.14.66-6.2.97-2.05.31-4.12.6-6.2.86h-.27c-.11,0-.19-.02-.23-.07-.09-.09-.16-.27-.18-.52-.02-.25-.05-.44-.07-.56-.12-1.07-.19-2.15-.22-3.22-.02-1.08-.06-2.15-.11-3.22-.1-2.58-.2-5.15-.32-7.72-.12-2.57-.08-5.14.11-7.72.02-.22.03-.47.02-.75-.01-.29,0-.56.02-.82.02-.26.08-.5.16-.72s.23-.35.45-.4c.14-.05.29-.08.45-.09.15-.01.31-.04.48-.09,1-.24,2.02-.33,3.04-.29s2.04.06,3.04.03c.14-.02.29-.02.43.02.14.03.23.11.25.23v.79c-.05,1.58-.11,3.15-.2,4.71-.08,1.56-.15,3.14-.2,4.71-.02.17-.04.46-.05.88-.01.42-.02.9-.04,1.43s-.02,1.11-.03,1.72c-.01.61-.02,1.18-.04,1.72-.01.54-.03,1.01-.05,1.43-.02.42-.03.71-.03.88.19-.02.57-.08,1.13-.18.56-.09,1.16-.2,1.81-.3.64-.11,1.25-.2,1.81-.29.56-.08.94-.14,1.13-.16.05-2.89.05-5.75,0-8.58-.05-2.83-.07-5.68-.07-8.54,0-.31.18-.49.54-.54.22-.02.6-.05,1.15-.09.55-.03,1.13-.06,1.74-.07.61-.01,1.19-.02,1.74-.02s.93.02,1.15.07c.12.02.24.03.38.02.13-.01.24.03.34.13.12.1.16.28.13.55-.03.28-.05.5-.05.66-.05,2.75-.06,5.48-.03,8.2.02,2.72-.01,5.46-.11,8.2,0,.24,0,.69-.02,1.36-.01.67-.03,1.37-.05,2.11-.02.74-.03,1.45-.03,2.11s.02,1.12.07,1.36c.02.14.05.31.09.5.04.19.06.36.07.52s0,.29-.05.41c-.05.12-.14.19-.29.21Z"/>
        <path class="cls-9" d="M163.69,268.47c-.09.05-.23.08-.41.11-.18.02-.37.03-.57.03h-1.06c-1.03-.07-2.01-.18-2.94-.32-1.58-.19-3.15-.32-4.71-.4-1.56-.07-3.13-.2-4.71-.39-.19-.02-.38-.05-.56-.07-.18-.02-.35-.08-.52-.18-.33-.17-.5-.44-.5-.83.05-1.48.11-2.95.2-4.42.08-1.47.15-2.95.2-4.46.05-1.1.06-2.19.05-3.28-.01-1.09,0-2.18.05-3.28.05-1.15.11-2.27.18-3.39s.14-2.23.22-3.35v-.73c0-.27.01-.54.03-.79.02-.25.09-.47.2-.65.11-.18.27-.28.48-.3.22-.02.59-.03,1.13-.03h1.72c.61,0,1.19.01,1.74.03.55.02.93.05,1.15.07.19.02.45.07.77.14.32.07.54.18.66.32.07.14.08.4.04.77-.05.37-.08.63-.11.77-.07.65-.16,1.29-.25,1.92-.1.63-.18,1.27-.25,1.92-.14,1.29-.29,2.57-.43,3.85-.14,1.28-.3,2.56-.47,3.85-.02.19-.07.54-.12,1.06-.06.51-.12,1.06-.18,1.65s-.11,1.13-.14,1.65c-.03.51-.05.87-.05,1.06.19.02.53.04,1,.04h5.61c.63,0,1.19,0,1.66.02s.81.03,1,.05c.26.05.48.19.65.43.09.19.12.44.07.75-.05.84-.09,1.68-.13,2.52-.04.85-.09,1.69-.16,2.52-.02.24-.07.48-.14.73s-.2.45-.4.59Z"/>
      </g>
      <g>
        <path class="cls-36" d="M62.71,264.98c-.15,0-.28,0-.42-.02s-.26-.04-.38-.09c-.12-.07-.23-.19-.33-.36-.05-.1-.08-.28-.09-.54-.01-.26-.03-.54-.05-.81-.02-.28-.04-.54-.04-.8v-.56c-.02-.8-.03-1.59-.03-2.37v-2.33c-.17-.34-.47-.92-.91-1.74-.43-.82-.92-1.76-1.47-2.8-.54-1.05-1.12-2.16-1.72-3.33-.6-1.17-1.17-2.28-1.7-3.33s-.99-1.99-1.39-2.82c-.4-.83-.67-1.43-.81-1.79-.05-.14-.07-.26-.07-.36.02-.12.11-.23.25-.33.17-.12.51-.32,1.03-.6s1.07-.56,1.66-.85c.59-.29,1.15-.56,1.68-.81.53-.25.89-.43,1.09-.52.26-.12.54-.23.83-.33.29-.1.49-.01.61.25.8,1.95,1.54,3.91,2.24,5.86.7,1.95,1.47,3.9,2.32,5.83.7-2.05,1.42-4.08,2.15-6.08.74-2,1.53-4,2.37-6.01.07-.19.17-.41.31-.65.13-.24.3-.35.49-.33.84.1,1.68.22,2.5.36.82.15,1.64.31,2.46.51.19.05.4.1.62.15s.41.11.58.2c.17.08.29.19.36.31.07.12.07.27,0,.44-.17.38-.46,1.05-.87,2.01-.41.95-.88,2.05-1.41,3.29-.53,1.24-1.09,2.56-1.68,3.94s-1.15,2.7-1.68,3.94c-.53,1.24-.99,2.35-1.39,3.31-.4.97-.68,1.64-.85,2.03,0,.24,0,.71-.02,1.41s-.02,1.45-.03,2.24c-.01.8-.02,1.54-.02,2.24s.01,1.17.04,1.41c.05.14.05.28,0,.4-.1.12-.27.19-.51.2s-.42.02-.54.02c-.87,0-1.74.02-2.61.07-.87.05-1.72.1-2.57.14Z"/>
        <path class="cls-36" d="M98.53,264.33c-.22.05-.63.08-1.23.11s-1.25.04-1.94.05-1.33.02-1.94.02-1.01.01-1.23.03c-.1,0-.17-.04-.22-.13-.05-.09-.09-.19-.11-.31v-.31c0-.16,0-.33.02-.51.01-.18.02-.35.02-.51v-.34c-2.1.34-4.18.66-6.26.98s-4.16.6-6.26.87h-.27c-.11,0-.19-.02-.23-.07-.1-.1-.16-.27-.18-.52-.02-.25-.05-.44-.07-.56-.12-1.08-.19-2.17-.22-3.26-.02-1.09-.06-2.17-.11-3.26-.1-2.61-.21-5.2-.33-7.8-.12-2.59-.09-5.19.11-7.8.02-.22.03-.47.02-.76-.01-.29,0-.57.02-.83s.08-.51.16-.72c.09-.22.24-.35.45-.4.15-.05.3-.08.45-.09.16-.01.32-.04.49-.09,1.01-.24,2.04-.34,3.08-.29,1.04.05,2.06.06,3.07.03.15-.02.29-.02.44.02.14.03.23.11.25.23v.8c-.05,1.59-.12,3.18-.2,4.76-.09,1.58-.15,3.17-.2,4.76-.02.17-.04.47-.05.89s-.02.9-.04,1.45c-.01.54-.02,1.12-.03,1.74-.01.61-.02,1.19-.04,1.74-.01.54-.03,1.02-.05,1.45-.02.42-.04.72-.04.89.19-.02.57-.08,1.14-.18s1.17-.2,1.83-.31c.65-.11,1.26-.2,1.83-.29.57-.08.95-.14,1.14-.16.05-2.92.05-5.81,0-8.66-.05-2.86-.07-5.73-.07-8.63,0-.31.18-.49.54-.54.22-.02.6-.05,1.16-.09.56-.03,1.14-.06,1.76-.07s1.2-.02,1.75-.02.94.02,1.16.07c.12.02.25.03.38.02.13-.01.25.03.34.13.12.1.16.28.13.56-.04.28-.05.5-.05.67-.05,2.77-.06,5.54-.04,8.28.02,2.75-.01,5.51-.11,8.28,0,.24,0,.7-.02,1.38-.01.67-.03,1.39-.05,2.13-.02.75-.04,1.46-.04,2.13s.02,1.13.07,1.37c.02.15.05.31.09.51.04.19.06.37.07.52s0,.3-.05.42-.14.19-.29.22Z"/>
        <path class="cls-36" d="M109.74,264.98c-.15,0-.28,0-.42-.02s-.26-.04-.38-.09c-.12-.07-.23-.19-.33-.36-.05-.1-.08-.28-.09-.54-.01-.26-.03-.54-.05-.81-.02-.28-.04-.54-.04-.8v-.56c-.02-.8-.03-1.59-.03-2.37v-2.33c-.17-.34-.47-.92-.91-1.74-.43-.82-.92-1.76-1.47-2.8-.54-1.05-1.12-2.16-1.72-3.33-.6-1.17-1.17-2.28-1.7-3.33s-.99-1.99-1.39-2.82c-.4-.83-.67-1.43-.81-1.79-.05-.14-.07-.26-.07-.36.02-.12.11-.23.25-.33.17-.12.51-.32,1.03-.6s1.07-.56,1.66-.85c.59-.29,1.15-.56,1.68-.81.53-.25.89-.43,1.09-.52.26-.12.54-.23.83-.33.29-.1.49-.01.61.25.8,1.95,1.54,3.91,2.24,5.86.7,1.95,1.47,3.9,2.32,5.83.7-2.05,1.42-4.08,2.15-6.08s1.53-4,2.37-6.01c.07-.19.17-.41.31-.65.13-.24.3-.35.49-.33.84.1,1.68.22,2.5.36.82.15,1.64.31,2.46.51.19.05.4.1.62.15s.41.11.58.2c.17.08.29.19.36.31.07.12.07.27,0,.44-.17.38-.46,1.05-.87,2.01-.41.95-.88,2.05-1.41,3.29-.53,1.24-1.09,2.56-1.68,3.94-.59,1.39-1.15,2.7-1.68,3.94-.53,1.24-.99,2.35-1.39,3.31-.4.97-.68,1.64-.85,2.03,0,.24,0,.71-.02,1.41s-.02,1.45-.03,2.24c-.01.8-.02,1.54-.02,2.24s.01,1.17.04,1.41c.05.14.05.28,0,.4-.1.12-.27.19-.51.2s-.42.02-.54.02c-.87,0-1.74.02-2.61.07-.87.05-1.72.1-2.57.14Z"/>
        <path class="cls-36" d="M145.56,264.33c-.22.05-.63.08-1.23.11s-1.25.04-1.94.05-1.33.02-1.94.02-1.01.01-1.23.03c-.1,0-.17-.04-.22-.13-.05-.09-.09-.19-.11-.31v-.31c0-.16,0-.33.02-.51.01-.18.02-.35.02-.51v-.34c-2.1.34-4.18.66-6.26.98s-4.16.6-6.26.87h-.27c-.11,0-.19-.02-.23-.07-.1-.1-.16-.27-.18-.52-.02-.25-.05-.44-.07-.56-.12-1.08-.19-2.17-.22-3.26-.02-1.09-.06-2.17-.11-3.26-.1-2.61-.21-5.2-.33-7.8-.12-2.59-.09-5.19.11-7.8.02-.22.03-.47.02-.76-.01-.29,0-.57.02-.83s.08-.51.16-.72c.09-.22.24-.35.45-.4.15-.05.3-.08.45-.09.16-.01.32-.04.49-.09,1.01-.24,2.04-.34,3.08-.29,1.04.05,2.06.06,3.07.03.15-.02.29-.02.44.02.14.03.23.11.25.23v.8c-.05,1.59-.12,3.18-.2,4.76-.09,1.58-.15,3.17-.2,4.76-.02.17-.04.47-.05.89s-.02.9-.04,1.45c-.01.54-.02,1.12-.03,1.74-.01.61-.02,1.19-.04,1.74-.01.54-.03,1.02-.05,1.45-.02.42-.04.72-.04.89.19-.02.57-.08,1.14-.18s1.17-.2,1.83-.31c.65-.11,1.26-.2,1.83-.29.57-.08.95-.14,1.14-.16.05-2.92.05-5.81,0-8.66-.05-2.86-.07-5.73-.07-8.63,0-.31.18-.49.54-.54.22-.02.6-.05,1.16-.09.56-.03,1.14-.06,1.76-.07s1.2-.02,1.75-.02.94.02,1.16.07c.12.02.25.03.38.02.13-.01.25.03.34.13.12.1.16.28.13.56-.04.28-.05.5-.05.67-.05,2.77-.06,5.54-.04,8.28.02,2.75-.01,5.51-.11,8.28,0,.24,0,.7-.02,1.38-.01.67-.03,1.39-.05,2.13-.02.75-.04,1.46-.04,2.13s.02,1.13.07,1.37c.02.15.05.31.09.51.04.19.06.37.07.52s0,.3-.05.42-.14.19-.29.22Z"/>
        <path class="cls-36" d="M164.8,265.2c-.1.05-.23.08-.42.11-.18.02-.37.03-.58.03h-1.07c-1.04-.07-2.03-.18-2.97-.33-1.59-.19-3.18-.33-4.76-.4-1.58-.07-3.17-.21-4.76-.4-.19-.02-.38-.05-.56-.07-.18-.02-.36-.09-.52-.18-.34-.17-.51-.45-.51-.83.05-1.49.12-2.98.2-4.47s.15-2.98.2-4.5c.05-1.11.07-2.21.05-3.31s0-2.2.05-3.31c.05-1.16.11-2.3.18-3.42.07-1.12.14-2.25.22-3.38v-.74c0-.28.01-.54.03-.8.02-.25.09-.47.2-.65.11-.18.27-.28.49-.31.22-.02.6-.03,1.14-.03h1.74c.62,0,1.2.01,1.76.03.55.02.94.05,1.16.07.19.02.45.07.78.14.33.07.55.18.67.33.07.14.08.4.03.78-.05.38-.08.63-.11.78-.07.65-.16,1.3-.25,1.94-.1.64-.18,1.29-.25,1.94-.15,1.3-.29,2.6-.44,3.89-.14,1.29-.3,2.59-.47,3.89-.02.19-.07.55-.13,1.07-.06.52-.12,1.07-.18,1.66-.06.59-.11,1.15-.14,1.66-.04.52-.05.87-.05,1.07.19.02.53.04,1.01.04h5.66c.64,0,1.2,0,1.68.02s.82.03,1.01.05c.27.05.48.19.65.43.1.19.12.45.07.76-.05.84-.09,1.69-.13,2.55-.04.86-.09,1.71-.16,2.55-.02.24-.07.49-.15.74s-.2.45-.4.6Z"/>
      </g>
    </g>
  </g>
</svg>