<?xml version="1.0" encoding="UTF-8"?>
<svg id="Layer_2" data-name="Layer 2" xmlns="http://www.w3.org/2000/svg" viewBox="0 0 322.81 79.18">
  <defs>
    <style>
      .cls-1 {
        fill: #a52525;
      }

      .cls-1, .cls-2 {
        stroke: #a52525;
        stroke-miterlimit: 10;
        stroke-width: 10.63px;
      }

      .cls-3 {
        fill: #fff;
      }

      .cls-2 {
        fill: none;
      }
    </style>
  </defs>
  <g id="Layer_9" data-name="Layer 9">
    <g>
      <g>
        <path class="cls-1" d="M36.38,73.31c-.31.07-.63.16-.94.22-.31.06-.61.03-.88-.06-.21-.07-.42-.2-.57-.4-.16-.21-.28-.42-.37-.63-.05-.13-.1-.4-.17-.82-.07-.42-.15-.85-.24-1.29-.09-.44-.17-.86-.24-1.25-.07-.4-.1-.66-.1-.8-.09-.44-.24-1.31-.44-2.61s-.43-2.68-.67-4.13c-.25-1.45-.48-2.83-.71-4.13-.22-1.3-.38-2.17-.47-2.61-.49,1.28-.9,2.58-1.21,3.9-.31,1.32-.61,2.64-.88,3.96-.27,1.32-.56,2.63-.87,3.93-.31,1.3-.7,2.59-1.15,3.86-.13.38-.47.66-1.01.84-.54.18-.99.32-1.35.42-.31.08-.85.18-1.61.29-.76.1-1.64.22-2.62.36-.99.14-2.02.28-3.09.43s-2.11.3-3.09.44c-.99.14-1.86.27-2.62.38-.76.11-1.3.19-1.61.24-.67.1-1.07-.18-1.21-.83-.76-5.92-1.24-11.87-1.44-17.87-.2-6-.39-12.04-.64-18.06-.08-1.87-.22-3.7-.41-5.47-.19-1.77-.32-3.59-.47-5.4-.04-.48.18-.78.67-.88.49-.1.97-.25,1.4-.38,1.26-.38,2.67-.61,4.01-.83,1.34-.22,2.69-.47,4.01-.68.18-.03.47-.09.87-.19.4-.1.81-.18,1.24-.24.42-.06.84-.12,1.24-.17.4-.06.71-.08.87-.05.21.04.36.23.4.52.04.29.07.56.07.83.09,5.75.13,11.49.13,17.23,0,5.74,0,11.51,0,17.31.13-.11.32-.16.57-.15.25.01.39-.05.44-.19.09-.55.28-1.48.57-2.78.29-1.3.63-2.79,1.01-4.46.38-1.67.78-3.45,1.21-5.33.43-1.88.83-3.67,1.21-5.36.38-1.69.71-3.19.98-4.48.27-1.3.45-2.22.54-2.77.04-.14.1-.29.17-.46.07-.17.17-.3.3-.41.27-.26.74-.51,1.41-.76.67-.24,1.4-.49,2.19-.72.78-.23,1.52-.43,2.22-.58.7-.15,1.24-.27,1.58-.37.22-.06.58-.15,1.08-.23.49-.08.87-.08,1.08.04.17.1.29.3.34.57.04.26.15.52.2.72.07.26.13.97.27,1.99.13,1.02.29,2.1.47,3.25.18,1.15.34,2.23.47,3.25.13,1.02.22,1.68.27,1.99.31,2.17.61,4.33.88,6.48.27,2.15.67,4.27,1.21,6.37.36-.13.7-.23,1.01-.29.31-.06.65-.13,1.01-.22.09-.69.21-1.88.37-3.59.16-1.71.31-3.67.47-5.89.16-2.22.33-4.58.5-7.08.18-2.5.35-4.85.51-7.08.16-2.22.29-4.19.4-5.88.11-1.7.21-2.89.3-3.58.04-.23.09-.55.13-.96.04-.41.16-.69.34-.85.22-.2.63-.33,1.21-.37.58-.04,1.05-.04,1.35-.05.25-.01.85-.07,1.75-.12.9-.05,1.85-.11,2.87-.17,1.01-.06,1.97-.11,2.87-.13.9-.02,1.48-.05,1.75-.08.45-.05,1-.07,1.65-.06.65,0,1.07.2,1.25.59.09.08.12.19.1.33-.02.14-.03.27-.03.41-.63,3.3-1.27,6.57-1.92,9.81-.65,3.24-1.22,6.51-1.65,9.79-.51,3.86-.87,7.71-1.11,11.49-.25,3.78-.48,7.6-.71,11.45,0,.27-.02.76-.07,1.46-.04.7-.09,1.45-.14,2.24-.04.79-.09,1.54-.13,2.24s-.09,1.17-.13,1.4c-.04.18-.09.37-.13.55-.04.18-.16.33-.27.43-.13.12-.38.29-.74.41-.58.2-1.7.43-3.34.69-1.64.27-3.4.54-5.29.82-1.89.28-3.66.54-5.32.79s-2.81.41-3.37.54Z"/>
        <path class="cls-1" d="M72.8,67.56c-.36.17-.74.26-1.15.27-.4.01-.81.02-1.21,0-.36-.01-.99-.04-1.89-.07-.9-.03-1.87-.08-2.9-.14-1.04-.06-2-.12-2.9-.16-.9-.05-1.52-.11-1.82-.16-.57-.09-1.16-.22-1.55-.45-.48-.29-.77-.85-.74-1.41.02-.52.16-1.07.34-1.59.18-.51.38-1.03.61-1.54.13-.33.34-.91.61-1.75.27-.84.57-1.78.91-2.82.34-1.05.7-2.15,1.08-3.31.38-1.16.73-2.27,1.05-3.34.31-1.06.6-2,.84-2.81.25-.81.41-1.4.51-1.77.5-1.76,1-3.52,1.52-5.31.52-1.78,1.09-3.55,1.72-5.32.14-.42.43-1.28.88-2.58.45-1.3.91-2.68,1.38-4.14.47-1.46.92-2.84,1.35-4.14.43-1.3.71-2.16.84-2.57.18-.59.33-1.19.44-1.76.11-.57.16-1.22.24-1.81.03-.22.08-.45.1-.65.02-.2.1-.38.24-.53.18-.19.38-.32.61-.39.23-.06.45-.13.68-.19,1.53-.22,3.05-.47,4.56-.75,1.51-.28,3.06-.49,4.56-.73.89-.14,1.78-.27,2.64-.33.85-.06,1.73-.17,2.63-.32.14,0,.38-.05.74-.12.36-.07.75-.13,1.18-.18.43-.05.82-.1,1.18-.15.36-.05.61-.08.74-.08.49-.03.83.06,1.01.27.14.13.27.34.41.65.13.31.26.65.37,1.02.11.38.21.73.3,1.06.09.33.16.59.2.76.58,2.12,1.16,4.26,1.72,6.41.56,2.15,1.1,4.32,1.59,6.48.59,2.65,1.26,5.29,2.03,7.88.77,2.59,1.42,5.22,1.96,7.88.18.8.34,1.59.47,2.37.14.78.31,1.55.54,2.3.09.36.27,1,.54,1.93.27.93.56,1.93.88,2.99.31,1.06.62,2.07.91,3.02.29.95.51,1.59.64,1.89.09.22.18.43.27.63.09.2.16.41.2.63.08.4-.07.7-.47.9-.41.2-.84.37-1.29.47-1.14.26-2.32.4-3.45.46-1.13.07-2.3.18-3.45.27-.26.02-.73.08-1.39.19-.65.11-1.34.23-2.06.37-.72.14-1.41.27-2.06.41-.65.13-1.11.22-1.32.29-.26.09-.53.13-.78.05-.25-.07-.42-.22-.51-.44-.14-.44-.29-1.31-.47-2.6-.18-1.29-.35-2.67-.51-4.12-.16-1.45-.32-2.82-.47-4.12-.16-1.29-.26-2.19-.3-2.68-.36.03-1.13.09-2.3.2-1.17.11-2.41.21-3.72.31-1.31.1-2.55.21-3.72.33-1.17.12-1.94.19-2.3.22-.36,1.74-.64,3.47-.84,5.2-.2,1.73-.46,3.46-.78,5.2-.09.5-.19,1.02-.3,1.55-.11.53-.3,1.03-.57,1.5-.09.19-.23.37-.4.54-.18.17-.38.32-.61.42ZM78.34,44.82c1.49-.12,2.98-.23,4.49-.32,1.51-.09,3.01-.24,4.49-.43-.18-1.43-.38-2.84-.61-4.24-.23-1.4-.44-2.83-.61-4.24-.1-.84-.16-1.7-.2-2.55-.04-.85-.07-1.73-.07-2.63-.14.05-.34.13-.61.21-.27.09-.56.17-.88.23-.31.07-.61.14-.88.2-.27.07-.47.1-.61.11-.23.02-.55.09-.98.21-.43.12-.71.28-.84.4-.16.15-.3.51-.37,1.07-.07.57-.12.97-.17,1.19-.32,1.82-.65,3.63-1.01,5.41-.36,1.78-.74,3.57-1.15,5.36Z"/>
        <path class="cls-1" d="M119.65,63.24c-1.35.14-2.71.28-4.06.41-1.35.13-2.75.18-4.13.22-.22,0-.61.03-1.15.06-.54.03-.92-.07-1.15-.28-.23-.21-.34-.49-.34-.83s.02-.69.07-1.05c.32-3.8.59-7.57.81-11.31.23-3.75.38-7.51.47-11.3.09-3.65.19-7.27.3-10.85.11-3.58.26-7.18.44-10.79,0-.18.01-.52.03-1.01.02-.5.06-1.02.1-1.56s.09-1.05.14-1.53c.04-.47.09-.81.13-.99.08-.31.27-.54.54-.67.27-.13.59-.21.95-.25.36-.04.74-.04,1.15-.02.41.03.77.03,1.08.02,4.74-.03,9.44.13,14.11.47,4.67.35,9.4.59,14.18.73.36.04.72.08,1.08.12.36.04.72.17,1.08.39.59.31.85.8.95,1.27.03.12.08.36.1.67.02.31.04.66.07,1.04.02.38.03.73.03,1.05v.68c-.04,1.98-.06,3.93-.03,5.84.02,1.91.12,3.84.31,5.77,0,.27.05.77.14,1.48.09.72.18,1.51.27,2.36.09.85.17,1.64.24,2.36.07.72.1,1.21.1,1.48,0,.81-.26,1.47-.78,1.97-.52.5-1.16.92-1.93,1.24-.77.33-1.6.58-2.51.75-.9.17-1.76.31-2.57.42.23.36.6.99,1.12,1.9.52.91,1.11,1.97,1.76,3.17.65,1.2,1.35,2.48,2.1,3.84.75,1.36,1.46,2.64,2.13,3.85.68,1.21,1.26,2.28,1.76,3.22.5.94.87,1.59,1.08,1.95.18.3.37.63.57.94.2.31.26.65.17,1.01-.13.49-.55.8-1.25.93-.7.12-1.31.17-1.79.19-.93.03-1.9.06-2.84,0-.95-.05-1.92-.02-2.84.02-.26.01-.68.04-1.22.09-.54.06-1.11.09-1.69.1-.59.01-1.14.01-1.66,0-.52-.01-.89-.06-1.12-.14-.36-.13-.71-.42-1.05-.88-.34-.46-.67-.98-.98-1.56-.32-.58-.6-1.14-.85-1.7-.25-.56-.44-1.01-.58-1.37-.72-1.56-1.4-3.11-2.03-4.67-.63-1.56-1.31-3.09-2.03-4.6-.09-.18-.23-.47-.41-.86-.18-.4-.37-.8-.58-1.2-.2-.4-.42-.77-.64-1.13-.23-.35-.41-.59-.54-.72-.09-.04-.2-.07-.34-.09-.13-.02-.25-.05-.34-.09-.14,0-.36,0-.68-.01-.32-.01-.52,0-.61.06.05,2.29.05,4.58,0,6.85s.02,4.56.2,6.84c0,.27.02.63.07,1.08.04.45.08.92.1,1.41.02.49.01.96-.03,1.39-.05.43-.16.76-.34.99s-.47.4-.88.5c-.41.11-.86.18-1.35.22-.5.04-.99.06-1.49.06-.5,0-.88,0-1.15.01ZM124.86,25.51c0,.27-.01.82-.03,1.65-.02.83-.04,1.72-.07,2.67-.02.95-.04,1.84-.07,2.67-.02.83-.03,1.39-.03,1.66.32-.01.97-.05,1.96-.1.99-.06,2.04-.1,3.15-.14,1.11-.03,2.15-.06,3.15-.09.99-.03,1.65-.07,1.96-.12,0-.27.01-.79.03-1.55.02-.77.03-1.59.03-2.46v-4.08c-.36-.03-1.02-.06-1.96-.08-.95-.02-1.98-.02-3.08-.01-1.11.01-2.14.01-3.11,0-.97-.01-1.61-.01-1.93,0Z"/>
        <path class="cls-1" d="M162.09,62.87c-.95.04-1.98.16-2.95.2s-1.98.03-2.95.01c-.35,0-.7-.03-1.02-.09-.32-.07-.57-.21-.74-.43-.14-.17-.23-.52-.27-1.01-.04-.49-.09-.85-.13-1.08-.23-3.06-.27-6.1-.14-9.11.14-3.02.16-6.05.13-9.05,0-.54-.01-1.47-.03-2.8-.02-1.33-.05-2.86-.07-4.59-.02-1.73-.06-3.58-.1-5.54-.04-1.96-.08-3.8-.1-5.53-.02-1.73-.04-3.26-.07-4.59-.02-1.33-.03-2.26-.03-2.8,0-.45.29-.73.88-.85.59-.12,1.13-.22,1.62-.31,2.17-.51,4.33-.88,6.5-1.13,2.17-.24,4.33-.56,6.5-.95.36-.09.79-.14,1.29-.16s.81.15.95.52c1.53,3.52,3.19,7,4.88,10.39,1.81,3.64,3.63,7.31,5.48,10.93,1.85,3.61,3.7,7.24,5.55,10.89.04-2.02.2-4,.47-5.93.27-1.93.49-3.89.68-5.86.21-2.14.41-4.31.54-6.47.14-2.16.2-4.37.34-6.47.06-.96.15-1.96.17-2.93.02-.97.08-1.97.17-3,.04-.18.1-.5.17-.97.07-.47.14-.81.24-.97.08-.13.28-.23.57-.29.29-.06.55-.08.78-.08.9.12,1.78.23,2.64.35.86.12,1.76.24,2.64.29.7.04,1.43.03,2.13,0,.7-.02,1.43.03,2.13.08.7.05,1.31.16,1.76.41.45.24.75.62.88,1.12.14.5.11,1.06-.07,1.68-.04.31-.16.94-.34,1.88-.18.94-.36,1.93-.54,2.98-.18,1.05-.35,2.04-.51,2.98-.16.94-.26,1.57-.3,1.88-.1.71-.21,1.95-.37,3.7-.16,1.75-.35,3.77-.57,6.05s-.45,4.71-.68,7.27c-.23,2.56-.44,4.98-.64,7.27-.2,2.29-.4,4.31-.58,6.05-.18,1.75-.28,3.03-.41,3.7-.06.34-.18.69-.27,1-.09.31-.25.59-.47.79-.29.26-.82.42-1.52.49-.7.07-1.46.09-2.27.06-.81-.03-1.6-.08-2.37-.17-.77-.09-1.35-.14-1.76-.15-.77-.02-1.53.04-2.3.18-.77.14-1.56.2-2.3.11-.35-.04-.7-.11-1.02-.16-.32-.05-.61-.19-.88-.36-.38-.24-.77-.54-1.08-.93-.32-.39-.59-.79-.81-1.2-2.44-4.1-4.68-8.24-6.74-12.43-2.05-4.19-4.37-8.25-6.94-12.18,0,3.65.16,7.3.47,10.97.32,3.67.68,7.33,1.08,10.98,0,.13.03.39.1.78.07.38.12.8.17,1.25.04.45.09.88.14,1.28s.07.68.07.81c0,.23-.04.43-.14.61-.09.18-.23.31-.41.4-.27.13-.75.22-1.42.26-.68.04-1.39.06-2.13.06-.74,0-1.47-.02-2.17-.04-.7-.02-1.22-.05-1.52-.04Z"/>
        <path class="cls-1" d="M220.98,64.32c-1.67.04-3.34-.03-5.01-.21-1.67-.18-3.34-.31-5.01-.39-.23-.01-.44-.04-.64-.1-.2-.05-.4-.18-.58-.36-.27-.28-.41-.67-.41-1.17-.5-5.38-.94-10.74-1.32-16.09-.38-5.35-.76-10.77-.98-16.14-.11-2.68-.18-5.41-.27-8.11-.09-2.7-.14-5.41-.14-8.11,0-.41.25-.62.74-.64.5-.02.95-.05,1.35-.07.58-.03,1.53-.08,2.84-.17,1.31-.09,2.69-.16,4.16-.19,1.47-.04,2.86-.04,4.19,0,1.33.03,2.28.12,2.81.3.44.15.68.54.68,1.12-.41,8.17-.76,16.29-1.05,24.37-.29,8.08-.86,16.71-.37,24.41.02.34-.02.71-.2,1.04s-.45.5-.81.53Z"/>
        <path class="cls-1" d="M236.26,65.59c-.95-.03-1.97.02-2.94,0s-1.97-.11-2.94-.2c-.35-.03-.7-.08-1.01-.17-.32-.09-.57-.25-.74-.49-.14-.18-.23-.53-.27-1.03-.04-.5-.09-.86-.13-1.09-.23-3.07-.27-6.12-.13-9.12.13-3.01.16-6.04.13-9.04,0-.54-.01-1.48-.03-2.8-.02-1.33-.04-2.86-.07-4.59-.02-1.73-.06-3.58-.1-5.54-.04-1.96-.08-3.81-.1-5.54-.02-1.73-.04-3.26-.07-4.59-.02-1.33-.03-2.26-.03-2.8,0-.45.29-.71.88-.79.58-.07,1.13-.14,1.62-.2,2.16-.35,4.33-.57,6.49-.66,2.16-.09,4.32-.25,6.49-.48.36-.06.79-.08,1.28-.07s.81.21.95.58c1.53,3.64,3.18,7.22,4.86,10.74,1.81,3.77,3.62,7.58,5.47,11.32,1.84,3.75,3.69,7.51,5.53,11.29.04-2.02.2-3.99.47-5.89.27-1.91.48-3.86.68-5.81.21-2.13.4-4.28.54-6.43.13-2.15.2-4.35.34-6.45.06-.96.15-1.95.17-2.92.02-.96.08-1.96.17-2.99.04-.18.1-.5.17-.96.07-.47.14-.8.24-.96.08-.12.28-.21.57-.25.29-.04.55-.05.78-.02.9.18,1.78.36,2.63.54.85.18,1.75.36,2.63.48.7.09,1.43.13,2.12.16.7.03,1.42.13,2.12.23.69.1,1.3.26,1.75.53.45.28.74.67.88,1.18.14.51.11,1.07-.07,1.68-.04.31-.16.93-.34,1.85-.18.92-.36,1.91-.54,2.94-.18,1.04-.35,2.02-.51,2.95-.16.93-.26,1.55-.3,1.86-.1.7-.21,1.93-.37,3.67-.16,1.74-.35,3.74-.57,6.01s-.45,4.68-.67,7.22c-.23,2.54-.44,4.95-.64,7.22-.2,2.27-.39,4.28-.57,6.01-.18,1.74-.28,3.01-.4,3.67-.06.33-.18.68-.27.98-.09.31-.25.58-.47.76-.29.24-.82.36-1.52.38-.7.02-1.45-.02-2.26-.1-.81-.08-1.6-.2-2.36-.34-.77-.15-1.35-.24-1.75-.28-.76-.08-1.53-.07-2.29,0-.76.08-1.56.09-2.29-.05-.35-.07-.7-.16-1.01-.23-.32-.07-.61-.23-.88-.42-.38-.27-.77-.6-1.08-1.01-.31-.41-.58-.83-.81-1.26-2.43-4.27-4.67-8.58-6.72-12.91-2.05-4.34-4.36-8.57-6.92-12.68,0,3.65.16,7.32.47,11.01.31,3.69.68,7.38,1.08,11.06,0,.13.03.4.1.78.07.39.12.81.17,1.26.04.45.09.88.13,1.29.04.41.07.68.07.82,0,.23-.04.42-.13.6-.09.17-.23.3-.41.37-.27.11-.74.17-1.42.16s-1.38-.04-2.13-.1c-.74-.06-1.46-.12-2.16-.2-.7-.07-1.22-.14-1.52-.14Z"/>
        <path class="cls-1" d="M287.87,70.11c-.18-.02-.46-.02-.84,0-.38.02-.8.03-1.25.02-.45,0-.87-.01-1.25-.01-.38,0-.66-.04-.84-.1-.36-.13-.63-.48-.81-1.04-.18-.56-.31-1.03-.4-1.4-.72-4-1.19-8-1.41-12.01-.23-4.01-.27-8.01-.13-12,.13-3.99.39-7.96.77-11.93.38-3.96.8-7.89,1.25-11.8.09-.53.3-.98.64-1.34.34-.36.8-.47,1.38-.31,5.25,1.35,10.47,2.79,15.65,4.3,5.18,1.51,10.41,2.97,15.69,4.35.36.1.59.27.71.51.11.24.17.53.17.87s-.04.69-.13,1.06c-.09.37-.16.71-.2,1.02-.22,1.5-.44,2.99-.64,4.49-.2,1.5-.42,3-.64,4.49-.09.48-.4.66-.94.53-.54-.13-1.06-.26-1.54-.43-.4-.14-1.09-.36-2.05-.64-.96-.28-2.08-.61-3.36-.99-1.28-.39-2.61-.78-4-1.17-1.39-.4-2.72-.77-4-1.12-1.28-.35-2.4-.66-3.36-.92-.96-.26-1.65-.44-2.05-.54-.45,3.9-.74,7.84-.88,11.8-.13,3.97-.16,7.93-.07,11.91.4.05,1.17.18,2.29.4,1.12.21,2.32.43,3.6.65,1.28.22,2.48.42,3.6.59,1.12.18,1.88.3,2.29.35.09-.89.16-1.76.2-2.6.04-.85.09-1.72.14-2.61-1.64-.23-2.46-.35-4.1-.57-.36-.05-.77-.11-1.24-.17-.47-.06-.77-.27-.91-.6-.12-.28-.19-.83-.17-1.61.02-.78.06-1.61.1-2.48.04-.87.1-1.69.17-2.44.07-.75.09-1.31.03-1.62-.03-.18-.04-.39,0-.61.04-.22.16-.36.27-.44.13-.09.36-.16.67-.15.31.02.64.05.97.1.34.05.66.11.98.2.31.09.57.14.74.17.34.07,1.13.25,2.32.46,1.19.21,2.44.44,3.76.67,1.32.24,2.58.46,3.76.69,1.18.22,1.99.34,2.32.41.55.12,1.15.37,1.71.56.56.2.78.59.64,1.14-.13.52-.28,1.4-.44,2.63-.16,1.24-.31,2.66-.47,4.28-.16,1.62-.33,3.32-.5,5.09-.18,1.77-.34,3.46-.47,5.06-.13,1.6-.25,3.03-.33,4.3-.09,1.27-.18,2.19-.2,2.7,0,.22-.06.48-.17.75-.11.28-.28.44-.44.51-.13.06-.41.07-.84.01-.43-.06-.73-.11-.91-.13-4.16-.8-8.31-1.54-12.43-2.24-4.12-.7-8.25-1.05-12.38-1.07Z"/>
      </g>
      <g>
        <path class="cls-2" d="M36.38,67.13c-.31.07-.63.16-.94.22-.31.06-.61.02-.88-.06-.21-.07-.42-.2-.57-.4-.16-.21-.28-.42-.37-.63-.05-.13-.1-.4-.17-.82-.07-.42-.15-.85-.24-1.29-.09-.44-.17-.86-.24-1.25-.07-.4-.1-.66-.1-.8-.09-.44-.24-1.31-.44-2.61-.2-1.3-.43-2.68-.67-4.13-.25-1.45-.48-2.83-.71-4.13-.22-1.3-.38-2.17-.47-2.61-.49,1.28-.9,2.58-1.21,3.9-.31,1.32-.61,2.64-.88,3.96-.27,1.32-.56,2.63-.87,3.93-.31,1.3-.7,2.59-1.14,3.86-.13.38-.47.66-1.01.84-.54.18-.99.32-1.35.42-.31.08-.85.18-1.61.29-.76.1-1.64.22-2.62.36-.99.14-2.02.28-3.09.43-1.08.15-2.11.3-3.09.44-.99.14-1.86.27-2.62.38-.76.11-1.3.19-1.61.24-.67.1-1.07-.18-1.21-.83-.76-5.92-1.24-11.87-1.44-17.87-.2-6-.39-12.04-.64-18.06-.08-1.87-.22-3.7-.41-5.47-.19-1.77-.32-3.59-.47-5.4-.04-.48.18-.78.67-.88.49-.1.97-.25,1.4-.38,1.26-.38,2.67-.61,4.01-.83,1.34-.22,2.69-.47,4.01-.68.18-.03.47-.09.87-.19.4-.1.81-.18,1.24-.24.42-.06.84-.12,1.24-.17.4-.06.71-.08.87-.05.21.04.36.23.4.52.04.29.07.56.07.83.09,5.75.13,11.49.13,17.23s0,11.51,0,17.31c.13-.11.32-.16.57-.15.25.01.39-.05.44-.19.09-.55.28-1.48.57-2.78.29-1.3.63-2.79,1.01-4.46.38-1.67.78-3.45,1.21-5.33.43-1.88.83-3.67,1.21-5.36.38-1.69.71-3.19.98-4.48.27-1.3.45-2.22.54-2.77.04-.14.1-.29.17-.46.07-.17.17-.3.3-.41.27-.26.74-.51,1.41-.76.67-.24,1.4-.49,2.19-.72.78-.23,1.52-.43,2.22-.58.7-.15,1.24-.27,1.58-.37.22-.06.58-.15,1.08-.23.49-.08.87-.08,1.08.04.17.1.29.3.34.57.04.26.15.52.2.72.07.26.13.97.27,1.99s.29,2.1.47,3.25c.18,1.15.34,2.23.47,3.25.13,1.02.22,1.68.27,1.99.31,2.17.61,4.33.88,6.48.27,2.15.67,4.27,1.21,6.37.36-.13.7-.23,1.01-.29.31-.06.65-.13,1.01-.22.09-.69.21-1.88.37-3.59.16-1.7.31-3.67.47-5.89.16-2.22.33-4.58.5-7.08.18-2.5.35-4.85.51-7.08.16-2.22.29-4.19.4-5.88.11-1.7.21-2.89.3-3.58.04-.23.09-.55.13-.96.04-.41.16-.69.34-.85.23-.2.63-.33,1.21-.37.58-.04,1.05-.04,1.35-.05.25-.01.85-.07,1.75-.12.9-.05,1.85-.11,2.87-.17,1.01-.06,1.97-.11,2.87-.13.9-.02,1.48-.05,1.75-.08.45-.05,1-.07,1.65-.06.65,0,1.07.2,1.25.59.09.08.12.19.1.33-.02.14-.03.27-.03.41-.63,3.3-1.27,6.57-1.92,9.81-.65,3.24-1.22,6.51-1.65,9.79-.51,3.86-.87,7.71-1.11,11.49-.25,3.78-.48,7.6-.71,11.45,0,.27-.02.76-.07,1.46-.04.7-.09,1.45-.14,2.24-.04.79-.09,1.54-.13,2.24s-.09,1.17-.13,1.4c-.04.18-.09.37-.13.55-.04.18-.16.33-.27.43-.13.12-.38.29-.74.41-.58.2-1.7.43-3.34.69-1.64.27-3.4.54-5.29.82-1.89.28-3.66.54-5.32.79-1.66.24-2.81.41-3.37.54Z"/>
        <path class="cls-2" d="M72.8,61.38c-.36.17-.74.26-1.15.27-.4.01-.81.02-1.22,0-.36-.01-.99-.04-1.89-.07-.9-.03-1.87-.08-2.9-.14s-2-.12-2.9-.16c-.9-.05-1.52-.11-1.82-.16-.57-.09-1.16-.22-1.55-.45-.48-.29-.77-.85-.74-1.41.02-.52.16-1.07.34-1.59.18-.51.38-1.03.61-1.54.13-.33.34-.91.61-1.75.27-.84.57-1.78.91-2.82.34-1.05.7-2.15,1.08-3.31.38-1.16.73-2.27,1.05-3.34.31-1.06.6-2,.84-2.81.25-.81.42-1.4.51-1.77.49-1.76,1-3.52,1.52-5.31.52-1.78,1.09-3.55,1.72-5.32.14-.42.43-1.28.88-2.58.45-1.3.91-2.68,1.38-4.14.47-1.46.92-2.84,1.35-4.14.43-1.3.71-2.16.84-2.57.18-.59.33-1.19.44-1.76.11-.57.16-1.22.24-1.81.03-.22.08-.45.1-.65.02-.2.1-.38.24-.53.18-.19.38-.32.61-.39.22-.06.45-.13.67-.19,1.53-.22,3.05-.47,4.56-.75,1.51-.28,3.06-.49,4.56-.73.89-.14,1.78-.27,2.64-.33.85-.06,1.73-.17,2.63-.32.14,0,.38-.05.74-.12.36-.07.75-.13,1.18-.18.43-.05.82-.1,1.18-.15.36-.05.61-.08.74-.08.5-.03.83.06,1.01.27.14.13.27.34.41.65.14.31.26.65.37,1.02.11.38.21.73.3,1.06.09.33.16.59.2.76.58,2.12,1.16,4.26,1.72,6.41.56,2.15,1.1,4.32,1.59,6.48.59,2.65,1.26,5.29,2.03,7.88.77,2.59,1.42,5.22,1.96,7.88.18.8.34,1.59.47,2.37.14.78.31,1.55.54,2.3.09.36.27,1,.54,1.93.27.93.56,1.93.88,2.99.32,1.06.62,2.07.91,3.02.29.95.52,1.59.64,1.89.09.22.18.43.27.63.09.2.16.41.2.63.08.4-.07.7-.47.9-.41.2-.84.37-1.29.47-1.14.26-2.32.4-3.45.46-1.13.07-2.3.18-3.45.27-.26.02-.73.08-1.39.19s-1.34.23-2.06.37c-.72.14-1.41.27-2.06.41-.65.13-1.11.22-1.32.29-.26.09-.53.13-.78.05-.25-.07-.42-.22-.51-.44-.14-.44-.29-1.31-.47-2.6-.18-1.29-.35-2.67-.51-4.12-.16-1.45-.31-2.82-.47-4.12-.16-1.29-.26-2.19-.3-2.68-.36.03-1.13.09-2.3.2-1.17.11-2.41.21-3.72.31-1.31.1-2.55.21-3.72.33-1.17.12-1.94.19-2.3.22-.36,1.74-.64,3.47-.84,5.2-.2,1.73-.46,3.46-.78,5.2-.09.5-.19,1.02-.3,1.55-.11.53-.3,1.03-.57,1.5-.09.19-.23.37-.4.54-.18.17-.38.32-.61.42ZM78.34,38.64c1.49-.12,2.98-.23,4.49-.32,1.51-.09,3.01-.24,4.49-.43-.18-1.43-.38-2.84-.61-4.24-.23-1.4-.44-2.83-.61-4.24-.1-.84-.16-1.7-.2-2.55-.04-.85-.07-1.73-.07-2.63-.14.05-.34.13-.61.21-.27.09-.56.17-.88.23-.32.07-.61.14-.88.2-.27.07-.47.1-.61.11-.23.02-.55.09-.98.21-.43.12-.71.28-.84.4-.16.15-.3.51-.37,1.08-.07.57-.12.97-.17,1.19-.32,1.82-.65,3.63-1.01,5.41-.36,1.78-.74,3.57-1.15,5.36Z"/>
        <path class="cls-2" d="M119.65,57.06c-1.35.14-2.71.28-4.06.41-1.35.13-2.75.18-4.13.22-.22,0-.61.03-1.15.06-.54.03-.92-.07-1.15-.28-.23-.21-.34-.49-.34-.83s.02-.69.07-1.05c.32-3.8.59-7.57.81-11.31.23-3.75.38-7.51.47-11.3.09-3.65.19-7.27.3-10.85.11-3.58.26-7.18.44-10.79,0-.18.01-.52.03-1.01.02-.5.06-1.02.1-1.56.05-.54.09-1.05.14-1.53.04-.47.09-.81.14-.99.08-.31.27-.54.54-.67.27-.13.59-.21.95-.25.36-.04.74-.04,1.15-.02.41.03.77.03,1.08.02,4.74-.03,9.44.13,14.11.47,4.67.35,9.4.59,14.18.73.36.04.72.08,1.08.12.36.04.72.17,1.08.39.59.31.85.8.95,1.27.03.12.08.36.1.67s.04.66.07,1.04c.02.38.03.73.03,1.05v.68c-.05,1.98-.06,3.93-.03,5.84.02,1.91.12,3.84.3,5.77,0,.27.04.77.14,1.48.09.72.18,1.51.27,2.36.09.85.17,1.64.24,2.36.07.72.1,1.21.1,1.48,0,.81-.26,1.47-.78,1.97-.52.5-1.16.92-1.93,1.24-.77.33-1.6.58-2.51.75-.9.17-1.76.31-2.57.42.23.36.6.99,1.12,1.9.52.91,1.11,1.97,1.76,3.17.65,1.2,1.35,2.48,2.1,3.84.75,1.36,1.46,2.64,2.13,3.85.68,1.21,1.26,2.28,1.76,3.22.5.94.87,1.59,1.08,1.95.18.3.37.63.57.94.2.31.26.65.17,1.01-.13.49-.55.8-1.25.93-.7.12-1.31.17-1.79.19-.93.03-1.9.06-2.84,0-.95-.05-1.92-.02-2.84.02-.26.01-.68.04-1.22.09-.54.06-1.11.09-1.69.1-.59.01-1.14.01-1.66,0-.52-.01-.89-.06-1.12-.14-.36-.13-.71-.42-1.05-.88-.34-.46-.67-.99-.98-1.56-.31-.58-.6-1.14-.85-1.7-.25-.56-.44-1.01-.58-1.37-.72-1.56-1.4-3.11-2.03-4.67-.63-1.56-1.31-3.09-2.03-4.6-.09-.18-.23-.47-.41-.86-.18-.4-.37-.8-.58-1.2-.2-.4-.42-.77-.64-1.13-.23-.35-.41-.59-.54-.72-.09-.04-.21-.07-.34-.09-.13-.02-.25-.05-.34-.09-.14,0-.36,0-.68-.01-.32-.01-.52,0-.61.06.05,2.29.05,4.58,0,6.85s.02,4.56.2,6.84c0,.27.02.63.07,1.08.05.45.08.92.1,1.41.02.49.01.96-.03,1.38-.04.43-.16.76-.34.99s-.47.4-.88.5c-.41.11-.86.18-1.35.22-.5.04-.99.06-1.49.06-.5,0-.88,0-1.15.01ZM124.86,19.33c0,.27-.01.82-.03,1.65-.02.83-.04,1.72-.07,2.67-.02.95-.04,1.84-.07,2.67-.02.83-.03,1.39-.03,1.66.32-.01.97-.05,1.96-.1.99-.06,2.04-.1,3.15-.14,1.11-.03,2.15-.06,3.15-.09.99-.03,1.65-.07,1.96-.12,0-.27.01-.79.03-1.55.02-.77.03-1.59.03-2.46,0-.88,0-1.71,0-2.5v-1.59c-.36-.03-1.02-.06-1.96-.08-.95-.02-1.98-.02-3.08-.01-1.11.01-2.14.01-3.11,0-.97-.01-1.61-.01-1.93,0Z"/>
        <path class="cls-2" d="M162.09,56.69c-.95.04-1.97.16-2.95.2-.97.05-1.98.03-2.95.01-.35,0-.7-.03-1.02-.09-.32-.07-.57-.21-.74-.43-.14-.17-.23-.52-.27-1.01-.05-.49-.09-.85-.14-1.08-.23-3.06-.27-6.1-.14-9.11.13-3.02.16-6.05.13-9.05,0-.54-.01-1.47-.03-2.8-.02-1.33-.05-2.86-.07-4.59s-.06-3.58-.1-5.54c-.04-1.96-.08-3.8-.1-5.53-.02-1.73-.05-3.26-.07-4.59-.02-1.33-.03-2.26-.03-2.8,0-.45.29-.73.88-.85.59-.12,1.13-.22,1.63-.31,2.17-.51,4.33-.88,6.5-1.13,2.17-.24,4.33-.56,6.5-.95.36-.09.79-.14,1.29-.16s.81.15.95.52c1.53,3.52,3.19,7,4.88,10.39,1.81,3.64,3.63,7.31,5.48,10.93,1.85,3.61,3.7,7.24,5.55,10.89.04-2.02.2-4,.47-5.93.27-1.93.49-3.89.68-5.86.21-2.14.41-4.31.54-6.47.14-2.16.2-4.37.34-6.47.06-.96.15-1.96.17-2.93.02-.97.08-1.97.17-3,.04-.18.1-.5.17-.97.07-.47.14-.81.24-.97.08-.13.28-.23.57-.29.29-.06.55-.08.78-.08.9.12,1.78.23,2.64.35.86.12,1.76.24,2.64.29.7.04,1.43.03,2.13,0,.7-.02,1.43.03,2.13.08.7.05,1.31.16,1.76.41.45.24.74.62.88,1.12.14.5.11,1.06-.07,1.68-.04.31-.16.94-.34,1.88-.18.94-.36,1.93-.54,2.98-.18,1.05-.35,2.04-.51,2.98-.16.94-.26,1.57-.3,1.88-.1.71-.21,1.95-.37,3.7-.16,1.75-.35,3.77-.57,6.05s-.45,4.71-.68,7.27c-.23,2.56-.44,4.98-.64,7.27-.2,2.29-.4,4.31-.58,6.05-.18,1.75-.28,3.03-.41,3.7-.06.34-.18.69-.27,1-.09.31-.25.59-.47.79-.29.26-.82.42-1.52.49-.7.07-1.46.09-2.27.06-.81-.03-1.6-.08-2.37-.17-.77-.09-1.35-.14-1.76-.15-.77-.02-1.54.04-2.3.18-.77.14-1.56.2-2.3.11-.35-.04-.7-.11-1.02-.16-.32-.05-.61-.19-.88-.36-.38-.24-.77-.54-1.08-.93-.32-.39-.59-.79-.81-1.2-2.44-4.1-4.68-8.24-6.74-12.43-2.05-4.19-4.37-8.25-6.94-12.18,0,3.65.16,7.3.47,10.97.32,3.67.68,7.33,1.08,10.98,0,.13.03.39.1.78.07.38.12.8.17,1.25.04.45.09.88.13,1.28.05.41.07.68.07.81,0,.23-.04.43-.14.61-.09.18-.23.31-.41.4-.27.13-.75.22-1.42.26-.68.04-1.39.06-2.13.06-.74,0-1.47-.02-2.17-.04-.7-.02-1.22-.05-1.52-.04Z"/>
        <path class="cls-2" d="M220.98,58.14c-1.67.04-3.34-.03-5.01-.21-1.67-.18-3.34-.31-5.01-.39-.23-.01-.44-.04-.64-.1-.2-.05-.4-.18-.58-.36-.27-.28-.41-.67-.41-1.17-.5-5.38-.94-10.74-1.32-16.09-.38-5.35-.76-10.77-.98-16.14-.11-2.68-.18-5.41-.27-8.11-.09-2.7-.14-5.41-.14-8.11,0-.41.25-.62.74-.64.5-.02.95-.05,1.35-.07.58-.03,1.54-.08,2.84-.17,1.31-.09,2.69-.16,4.16-.19,1.46-.04,2.86-.04,4.19,0,1.33.03,2.28.12,2.81.3.44.15.68.54.68,1.12-.41,8.17-.76,16.29-1.05,24.37-.29,8.08-.86,16.71-.37,24.41.02.34-.02.71-.2,1.04-.18.33-.45.5-.81.53Z"/>
        <path class="cls-2" d="M236.26,59.41c-.95-.03-1.97.02-2.94,0-.97-.02-1.97-.11-2.94-.2-.35-.03-.7-.08-1.01-.17-.32-.09-.57-.25-.74-.49-.14-.18-.23-.53-.27-1.03-.05-.5-.09-.86-.14-1.09-.23-3.07-.27-6.12-.13-9.12.13-3.01.16-6.04.13-9.04,0-.54-.01-1.48-.03-2.8-.02-1.33-.04-2.86-.07-4.59-.02-1.73-.06-3.58-.1-5.54-.05-1.96-.08-3.81-.1-5.54-.02-1.73-.04-3.26-.07-4.59-.02-1.33-.03-2.26-.03-2.8,0-.45.29-.71.88-.79.58-.07,1.13-.14,1.62-.2,2.16-.35,4.33-.57,6.49-.66,2.16-.09,4.32-.25,6.49-.48.36-.06.79-.08,1.28-.07.49.02.81.21.95.58,1.53,3.64,3.18,7.22,4.86,10.74,1.81,3.77,3.62,7.58,5.47,11.32,1.84,3.75,3.69,7.51,5.53,11.29.04-2.02.2-3.99.47-5.89.27-1.91.48-3.86.68-5.81.21-2.13.4-4.28.54-6.43.13-2.15.2-4.35.34-6.45.06-.96.15-1.95.17-2.92.02-.96.08-1.96.17-2.99.04-.18.1-.5.17-.96.07-.47.14-.8.24-.96.08-.12.28-.21.57-.25.29-.04.55-.05.78-.02.9.18,1.78.36,2.63.54.85.18,1.75.36,2.63.48.7.09,1.43.13,2.12.16.7.03,1.42.13,2.12.23.69.1,1.3.26,1.75.53.45.28.74.67.88,1.18.13.51.11,1.07-.07,1.68-.04.31-.16.93-.34,1.85-.18.92-.36,1.91-.54,2.94s-.35,2.02-.51,2.95c-.16.93-.26,1.55-.3,1.86-.1.7-.21,1.93-.37,3.67-.16,1.74-.35,3.74-.57,6.01-.23,2.27-.45,4.68-.67,7.22-.23,2.54-.44,4.95-.64,7.22-.2,2.27-.39,4.28-.57,6.01-.18,1.74-.28,3.01-.4,3.67-.06.33-.18.68-.27.98-.09.31-.25.58-.47.76-.29.24-.82.36-1.52.38-.7.02-1.45-.02-2.26-.1-.81-.08-1.6-.2-2.36-.34-.77-.15-1.35-.24-1.75-.28-.77-.08-1.53-.07-2.29,0-.76.08-1.56.09-2.29-.05-.35-.07-.7-.16-1.01-.23-.32-.07-.61-.23-.88-.42-.38-.27-.77-.6-1.08-1.01-.32-.41-.58-.83-.81-1.26-2.43-4.27-4.67-8.58-6.72-12.91-2.05-4.34-4.36-8.57-6.92-12.68,0,3.65.16,7.32.47,11.01.31,3.69.68,7.38,1.08,11.06,0,.13.03.4.1.78.07.39.12.81.17,1.26.04.45.09.88.13,1.29.04.41.07.68.07.82,0,.23-.04.42-.13.6-.09.17-.23.3-.41.37-.27.11-.74.17-1.42.16s-1.38-.04-2.13-.1c-.74-.06-1.46-.12-2.16-.2-.7-.07-1.22-.14-1.52-.14Z"/>
        <path class="cls-2" d="M287.87,63.93c-.18-.02-.46-.02-.84,0-.38.02-.8.03-1.25.02-.45,0-.87-.01-1.25-.01-.38,0-.66-.04-.84-.1-.36-.13-.63-.48-.81-1.04-.18-.56-.31-1.03-.4-1.4-.72-4-1.19-8-1.41-12.01-.23-4.01-.27-8.01-.13-12,.13-3.99.39-7.96.77-11.93.38-3.96.8-7.89,1.25-11.8.09-.53.3-.98.64-1.34.34-.36.8-.47,1.38-.31,5.25,1.35,10.47,2.79,15.65,4.3,5.18,1.52,10.41,2.97,15.69,4.35.36.1.59.27.71.51.11.24.17.53.17.87s-.04.69-.13,1.06c-.09.37-.16.71-.2,1.02-.22,1.5-.44,2.99-.64,4.49-.2,1.5-.41,3-.64,4.49-.09.48-.4.66-.94.53-.54-.13-1.06-.26-1.54-.43-.4-.14-1.09-.36-2.05-.64-.96-.28-2.08-.61-3.36-.99-1.28-.39-2.61-.78-4-1.17-1.39-.4-2.72-.77-4-1.12-1.28-.35-2.4-.66-3.36-.92-.96-.26-1.65-.44-2.05-.54-.45,3.9-.74,7.84-.88,11.8-.13,3.97-.16,7.93-.07,11.91.4.05,1.17.18,2.29.4,1.12.21,2.32.43,3.6.65,1.28.22,2.48.42,3.6.59,1.12.18,1.88.3,2.29.35.09-.89.16-1.76.2-2.6.04-.85.09-1.72.14-2.61-1.64-.23-2.46-.35-4.1-.57-.36-.05-.77-.11-1.24-.17-.47-.06-.77-.27-.91-.6-.12-.28-.19-.82-.17-1.61.02-.78.06-1.61.1-2.48.04-.87.1-1.69.17-2.44.07-.75.09-1.31.03-1.62-.03-.18-.04-.39,0-.61.04-.22.16-.36.27-.44.13-.09.36-.16.67-.15.31.02.64.05.97.1.34.05.66.11.98.2.31.09.57.14.74.17.34.07,1.13.25,2.32.46,1.19.21,2.44.44,3.76.67,1.32.24,2.58.46,3.76.69,1.18.22,1.99.34,2.32.41.55.12,1.15.37,1.71.56.56.2.78.59.64,1.14-.13.52-.28,1.4-.44,2.63-.16,1.24-.31,2.66-.47,4.28-.16,1.62-.33,3.32-.5,5.09-.18,1.77-.34,3.46-.47,5.06-.13,1.6-.25,3.03-.34,4.3-.09,1.27-.18,2.19-.2,2.7,0,.22-.06.48-.17.75-.11.28-.28.44-.44.51-.13.06-.41.07-.84.01-.43-.06-.73-.11-.91-.13-4.16-.8-8.31-1.54-12.43-2.24-4.12-.7-8.25-1.05-12.38-1.07Z"/>
      </g>
      <g>
        <path class="cls-3" d="M36.41,66.93c-.31.07-.63.16-.94.22-.31.06-.61.02-.88-.06-.21-.07-.42-.2-.57-.4-.16-.21-.28-.42-.37-.63-.04-.13-.1-.4-.17-.82s-.15-.85-.24-1.29c-.09-.44-.17-.86-.24-1.25-.07-.4-.1-.66-.1-.8-.09-.44-.24-1.31-.44-2.61-.2-1.3-.43-2.68-.67-4.14-.25-1.46-.48-2.83-.71-4.13-.23-1.3-.38-2.17-.47-2.61-.49,1.28-.9,2.58-1.21,3.91-.31,1.32-.61,2.65-.88,3.96-.27,1.32-.56,2.63-.88,3.93-.31,1.3-.7,2.59-1.14,3.87-.13.38-.47.66-1.01.84-.54.18-.99.32-1.35.42-.31.08-.85.18-1.62.29-.76.1-1.64.22-2.62.36-.99.14-2.02.28-3.1.43-1.08.15-2.11.3-3.09.44-.99.14-1.86.27-2.62.38-.76.11-1.3.19-1.61.24-.67.1-1.08-.18-1.21-.83-.76-5.92-1.24-11.88-1.45-17.89-.2-6.01-.39-12.06-.64-18.08-.08-1.87-.22-3.7-.41-5.48-.19-1.77-.32-3.6-.47-5.4-.04-.48.18-.78.67-.88.49-.1.97-.25,1.41-.38,1.26-.38,2.68-.62,4.01-.84,1.34-.22,2.7-.47,4.02-.68.17-.03.47-.09.87-.19.4-.1.81-.18,1.24-.24.42-.06.84-.12,1.24-.17.4-.06.71-.08.87-.05.21.04.36.23.4.52.04.29.07.56.07.83.09,5.75.13,11.5.13,17.24s0,11.52,0,17.33c.13-.11.32-.16.57-.15.25.01.39-.05.44-.2.09-.55.28-1.48.57-2.78.29-1.3.63-2.79,1.01-4.46.38-1.67.79-3.45,1.21-5.33.43-1.88.83-3.67,1.21-5.37.38-1.69.71-3.19.98-4.49.27-1.3.45-2.22.54-2.77.04-.14.1-.29.17-.46.07-.17.17-.3.3-.41.27-.26.74-.51,1.41-.76.67-.24,1.4-.49,2.19-.72.78-.23,1.53-.43,2.22-.58.7-.15,1.24-.27,1.58-.37.22-.06.58-.15,1.08-.23.49-.08.87-.08,1.08.04.17.1.29.3.34.57.04.26.15.52.2.72.07.26.14.97.27,1.99.14,1.02.29,2.11.47,3.25.18,1.15.34,2.23.47,3.25.13,1.02.22,1.69.27,1.99.31,2.17.61,4.33.88,6.48.27,2.15.67,4.28,1.21,6.38.36-.13.7-.23,1.01-.29.31-.06.65-.13,1.01-.22.09-.69.21-1.88.37-3.59.16-1.71.31-3.67.47-5.9.16-2.22.33-4.59.51-7.09.18-2.5.35-4.86.51-7.08.16-2.22.29-4.19.4-5.89.11-1.7.19-2.92.3-3.58.04-.22.09-.55.14-.96.04-.41.16-.69.34-.85.22-.2.63-.33,1.21-.37.58-.04,1.06-.04,1.35-.05.25-.01.85-.07,1.75-.12.9-.05,1.85-.11,2.87-.17,1.01-.06,1.97-.1,2.87-.13.9-.02,1.49-.05,1.76-.08.45-.05,1-.07,1.65-.07.65,0,1.07.2,1.25.59.09.08.12.19.1.33-.02.14-.03.27-.03.41-.63,3.31-1.27,6.58-1.92,9.82-.65,3.24-1.22,6.52-1.65,9.8-.51,3.86-.87,7.71-1.11,11.5-.25,3.79-.48,7.61-.71,11.46,0,.27-.02.76-.07,1.46-.04.7-.09,1.45-.14,2.24-.04.79-.09,1.54-.13,2.24-.04.7-.09,1.18-.13,1.4-.04.18-.09.37-.14.55-.04.18-.16.33-.27.43-.13.12-.38.29-.74.42-.58.2-1.7.43-3.34.69-1.64.27-3.41.54-5.3.82-1.89.28-3.67.55-5.33.79-1.66.24-2.81.41-3.37.54Z"/>
        <path class="cls-3" d="M72.86,61.18c-.36.17-.74.26-1.15.27-.41.01-.81.02-1.22,0-.36-.01-.99-.04-1.89-.07-.9-.03-1.87-.08-2.91-.14-1.04-.06-2-.12-2.9-.16-.9-.05-1.52-.11-1.82-.16-.57-.09-1.16-.22-1.55-.46-.48-.29-.77-.85-.74-1.41.02-.52.16-1.07.34-1.59.18-.51.38-1.03.61-1.55.14-.33.34-.91.61-1.75.27-.84.57-1.78.91-2.83.34-1.05.7-2.15,1.08-3.31.38-1.16.73-2.28,1.05-3.34.31-1.07.6-2.01.84-2.82.25-.81.42-1.4.51-1.77.49-1.76,1-3.53,1.52-5.31.52-1.78,1.09-3.56,1.72-5.33.14-.42.43-1.28.88-2.58.45-1.3.91-2.68,1.38-4.14.47-1.46.92-2.84,1.35-4.14.43-1.3.72-2.16.84-2.57.18-.59.33-1.19.44-1.76.11-.57.16-1.22.24-1.81.03-.22.08-.45.1-.65s.1-.38.24-.53c.18-.2.38-.33.61-.39.22-.06.45-.13.68-.19,1.53-.22,3.05-.47,4.56-.75,1.51-.28,3.07-.49,4.56-.73.89-.14,1.78-.27,2.64-.33.86-.06,1.74-.17,2.64-.32.14,0,.38-.05.74-.12.36-.07.75-.13,1.18-.18.43-.05.82-.1,1.18-.15.36-.05.61-.07.74-.08.5-.03.83.06,1.02.27.14.13.27.34.41.65.14.31.26.65.37,1.02.11.38.21.73.31,1.06.09.33.16.59.2.76.59,2.12,1.16,4.26,1.73,6.41.56,2.15,1.1,4.32,1.59,6.49.59,2.65,1.26,5.29,2.03,7.88.77,2.59,1.42,5.22,1.96,7.89.18.8.34,1.59.47,2.37.14.78.32,1.55.54,2.3.09.36.27,1,.54,1.93.27.93.57,1.93.88,2.99.32,1.06.62,2.07.91,3.02.29.95.51,1.58.64,1.89.09.22.18.43.27.63.09.2.16.41.2.63.08.4-.07.7-.47.9-.4.2-.84.37-1.29.47-1.14.26-2.32.4-3.45.46-1.13.07-2.3.18-3.45.27-.27.02-.73.08-1.39.19-.65.11-1.34.23-2.06.37-.72.14-1.41.27-2.06.41-.65.13-1.11.22-1.32.29-.26.09-.53.13-.78.05-.25-.07-.42-.22-.51-.44-.13-.44-.29-1.31-.47-2.6-.18-1.29-.35-2.67-.51-4.12-.16-1.45-.32-2.83-.47-4.12-.16-1.29-.26-2.19-.3-2.68-.36.03-1.13.09-2.3.2-1.17.11-2.41.21-3.72.31-1.31.1-2.55.21-3.72.33-1.17.12-1.94.19-2.3.22-.36,1.74-.64,3.48-.84,5.2-.2,1.73-.46,3.46-.78,5.2-.09.5-.19,1.02-.3,1.55-.11.53-.3,1.03-.57,1.5-.09.19-.23.37-.41.54-.18.17-.39.32-.61.42ZM78.41,38.42c1.49-.12,2.99-.23,4.5-.32,1.51-.09,3.01-.24,4.5-.43-.18-1.43-.38-2.84-.61-4.25-.23-1.4-.44-2.83-.61-4.25-.1-.84-.16-1.7-.2-2.55s-.07-1.73-.07-2.63c-.14.06-.34.13-.61.21-.27.09-.56.17-.88.23-.32.07-.61.14-.88.2s-.47.1-.61.11c-.23.02-.55.09-.98.21-.43.12-.71.28-.85.4-.16.15-.3.51-.37,1.08-.07.57-.12.97-.17,1.19-.32,1.83-.65,3.63-1.01,5.42-.36,1.79-.74,3.57-1.15,5.36Z"/>
        <path class="cls-3" d="M119.76,56.86c-1.31.1-2.71.28-4.06.41s-2.76.18-4.13.22c-.22,0-.61.03-1.15.06-.54.03-.93-.07-1.15-.28-.23-.21-.34-.49-.34-.83s.02-.69.07-1.05c.31-3.8.59-7.57.81-11.32.23-3.75.38-7.52.47-11.31.09-3.65.19-7.27.3-10.86.11-3.59.26-7.19.44-10.8,0-.18.01-.52.03-1.02.02-.5.06-1.02.1-1.56.04-.54.09-1.05.14-1.53.04-.47.09-.8.14-.99.09-.32.27-.54.54-.67s.59-.21.95-.25c.36-.04.75-.05,1.15-.02.41.03.77.03,1.08.02,4.74-.03,9.45.13,14.12.48,4.67.35,9.41.6,14.2.74.36.04.72.08,1.08.12.36.04.72.17,1.08.39.59.31.85.8.95,1.27.03.12.08.36.1.67.02.32.04.67.07,1.05.02.38.03.73.03,1.05v.68c-.05,1.98-.06,3.93-.03,5.85.02,1.91.12,3.84.31,5.77,0,.27.04.77.14,1.49.09.72.18,1.51.27,2.36.09.85.17,1.64.24,2.36.07.72.1,1.21.1,1.48,0,.81-.26,1.47-.78,1.97-.52.5-1.16.92-1.93,1.25-.77.33-1.6.58-2.51.75-.9.17-1.76.32-2.58.42.23.36.6.99,1.12,1.9.52.91,1.11,1.97,1.76,3.18.65,1.21,1.36,2.49,2.1,3.85.75,1.36,1.46,2.65,2.13,3.85.68,1.21,1.26,2.28,1.76,3.22.5.94.87,1.59,1.08,1.95.18.3.37.63.58.94.2.31.26.66.17,1.01-.13.49-.55.81-1.25.93-.7.12-1.31.17-1.8.19-.93.03-1.9.06-2.85,0-.95-.05-1.92-.02-2.85.02-.26.01-.68.04-1.22.09-.54.06-1.11.09-1.69.1-.59.01-1.14.01-1.66,0-.52-.01-.89-.06-1.12-.14-.36-.13-.71-.42-1.05-.89-.34-.46-.67-.98-.98-1.56-.32-.58-.6-1.14-.85-1.7-.25-.56-.44-1.01-.58-1.37-.72-1.56-1.4-3.11-2.03-4.67-.63-1.56-1.31-3.09-2.03-4.6-.09-.18-.23-.47-.41-.87-.18-.4-.37-.8-.58-1.2-.2-.4-.42-.78-.64-1.13-.23-.35-.41-.59-.54-.72-.09-.04-.2-.07-.34-.09-.13-.02-.25-.05-.34-.09-.13,0-.36,0-.68-.01s-.52,0-.61.06c.04,2.3.05,4.58,0,6.86-.04,2.28.02,4.56.2,6.85,0,.27.02.63.07,1.08.04.45.08.92.1,1.42.02.5.01.96-.03,1.39-.04.43-.16.76-.34.99-.18.23-.48.4-.88.5-.41.1-.86.18-1.35.22-.5.04-.99.06-1.49.06-.5,0-.89,0-1.15.01ZM124.97,19.1c0,.27-.01.82-.03,1.66-.02.83-.04,1.72-.07,2.67-.02.95-.04,1.84-.07,2.67-.02.83-.03,1.39-.03,1.66.31-.01.97-.05,1.96-.1.99-.06,2.04-.1,3.15-.13,1.11-.03,2.16-.06,3.15-.09.99-.03,1.65-.07,1.97-.12,0-.27,0-.79.03-1.55.02-.77.03-1.59.03-2.47v-4.09c-.36-.04-1.02-.06-1.97-.08-.95-.02-1.98-.02-3.08-.01-1.11.01-2.15.01-3.12,0-.97-.01-1.61-.01-1.93,0Z"/>
        <path class="cls-3" d="M162.24,56.49c-.95.04-1.98.16-2.95.2-.97.05-1.98.03-2.95.01-.35,0-.7-.03-1.02-.1-.32-.07-.57-.21-.75-.43-.14-.17-.23-.52-.27-1.01-.05-.49-.09-.85-.14-1.08-.23-3.06-.27-6.1-.14-9.12.14-3.02.16-6.06.13-9.06,0-.54-.01-1.47-.03-2.8-.02-1.33-.05-2.86-.07-4.59-.02-1.73-.06-3.58-.1-5.54-.05-1.96-.08-3.81-.1-5.54-.02-1.73-.05-3.27-.07-4.59-.02-1.33-.03-2.26-.03-2.8,0-.45.29-.73.88-.85.59-.12,1.13-.22,1.63-.31,2.17-.51,4.34-.88,6.51-1.13,2.17-.24,4.34-.56,6.51-.95.36-.09.79-.14,1.29-.16.5-.02.81.15.95.52,1.54,3.53,3.19,7,4.88,10.4,1.82,3.65,3.64,7.32,5.49,10.94,1.85,3.62,3.7,7.25,5.56,10.9.04-2.03.2-4,.47-5.93s.49-3.9.68-5.86c.21-2.14.41-4.31.54-6.47.14-2.16.2-4.37.34-6.48.06-.97.15-1.97.17-2.93.02-.97.08-1.97.17-3,.04-.18.1-.5.17-.97.07-.47.14-.81.24-.97.08-.13.28-.23.58-.29s.55-.09.78-.08c.9.12,1.78.23,2.64.35.86.12,1.76.24,2.64.29.7.04,1.43.03,2.13,0,.7-.02,1.43.03,2.13.08.7.05,1.31.16,1.76.41.45.24.75.62.88,1.12.14.5.11,1.06-.07,1.69-.05.31-.16.94-.34,1.88-.18.94-.36,1.93-.54,2.98-.18,1.05-.35,2.05-.51,2.99-.16.94-.26,1.57-.3,1.88-.1.71-.21,1.95-.37,3.7-.16,1.75-.35,3.77-.58,6.06-.23,2.29-.45,4.71-.68,7.27-.23,2.56-.44,4.98-.64,7.27-.2,2.29-.4,4.31-.58,6.06-.18,1.75-.28,3.04-.41,3.7-.06.34-.18.69-.27,1-.09.31-.25.59-.47.79-.29.26-.82.42-1.52.49-.7.07-1.46.09-2.27.06-.81-.03-1.6-.08-2.37-.17-.77-.09-1.35-.14-1.76-.15-.77-.02-1.54.04-2.3.17-.77.14-1.56.2-2.3.11-.35-.04-.7-.11-1.02-.16-.32-.05-.61-.19-.88-.36-.38-.24-.77-.55-1.08-.93-.32-.39-.59-.79-.81-1.2-2.44-4.1-4.69-8.25-6.74-12.44-2.06-4.19-4.37-8.26-6.95-12.2,0,3.65.16,7.31.48,10.98.32,3.67.68,7.34,1.08,10.99,0,.13.03.4.1.78.07.38.12.8.17,1.25.04.45.09.88.14,1.29.05.4.07.68.07.81,0,.23-.04.43-.14.61-.09.18-.23.31-.41.4-.27.13-.75.22-1.42.26-.68.04-1.39.06-2.14.06s-1.47-.02-2.17-.04c-.7-.02-1.22-.05-1.53-.04Z"/>
        <path class="cls-3" d="M221.18,57.96c-1.67.04-3.34-.03-5.01-.21-1.67-.18-3.34-.31-5.01-.39-.23-.01-.44-.04-.64-.1-.2-.05-.4-.18-.58-.37-.27-.28-.41-.67-.41-1.17-.5-5.38-.94-10.75-1.32-16.11s-.76-10.78-.98-16.16c-.11-2.68-.18-5.41-.27-8.12-.09-2.71-.14-5.41-.14-8.11,0-.41.25-.62.75-.64.5-.02.95-.05,1.35-.07.58-.03,1.54-.07,2.84-.17,1.31-.09,2.7-.16,4.16-.19,1.47-.03,2.87-.04,4.2,0,1.33.03,2.28.12,2.81.3.44.15.68.54.68,1.12-.41,8.17-.75,16.31-1.05,24.4-.29,8.09-.87,16.73-.37,24.44.02.34-.02.71-.2,1.03-.18.33-.45.5-.81.53Z"/>
        <path class="cls-3" d="M236.48,59.23c-.95-.03-1.97.01-2.94,0-.97-.02-1.97-.12-2.94-.2-.35-.03-.7-.08-1.02-.17-.32-.09-.57-.25-.74-.49-.14-.18-.23-.53-.27-1.03s-.09-.86-.13-1.09c-.23-3.08-.27-6.12-.13-9.13s.16-6.05.13-9.05c0-.54-.01-1.48-.03-2.81-.02-1.33-.04-2.86-.07-4.6-.02-1.73-.06-3.58-.1-5.55-.04-1.96-.08-3.81-.1-5.55-.02-1.73-.05-3.27-.07-4.6-.02-1.33-.03-2.26-.03-2.81,0-.45.29-.71.88-.79.58-.07,1.13-.14,1.62-.2,2.17-.35,4.33-.57,6.49-.66,2.16-.09,4.33-.25,6.49-.48.36-.06.79-.08,1.29-.07.5.02.81.21.95.58,1.53,3.64,3.18,7.23,4.87,10.75,1.81,3.78,3.63,7.58,5.47,11.33,1.85,3.75,3.69,7.52,5.54,11.3.04-2.02.2-3.99.47-5.9.27-1.91.48-3.86.68-5.81.21-2.13.4-4.28.54-6.43.14-2.15.2-4.35.34-6.45.06-.96.15-1.96.17-2.92.02-.97.08-1.96.17-2.99.04-.17.1-.5.17-.96.07-.47.14-.8.24-.96.08-.12.28-.21.57-.25.29-.04.55-.05.78-.02.9.18,1.78.36,2.63.54s1.75.36,2.63.48c.7.09,1.43.13,2.12.16.7.03,1.42.13,2.13.23.69.1,1.3.26,1.75.53.45.28.74.67.88,1.18.13.51.11,1.07-.07,1.68-.05.31-.16.93-.34,1.85-.18.92-.36,1.91-.54,2.95-.18,1.04-.35,2.02-.51,2.95-.16.93-.26,1.55-.3,1.86-.1.71-.21,1.94-.37,3.67-.16,1.74-.35,3.75-.57,6.02-.23,2.27-.45,4.68-.67,7.22-.23,2.54-.44,4.95-.64,7.23-.2,2.27-.39,4.28-.57,6.02-.18,1.74-.28,3.01-.4,3.67-.06.33-.18.68-.27.98-.09.31-.25.58-.47.76-.29.24-.82.36-1.52.38-.7.02-1.45-.02-2.26-.1-.81-.08-1.6-.2-2.36-.34-.77-.15-1.35-.24-1.76-.28-.77-.08-1.53-.07-2.3,0-.77.08-1.56.08-2.3-.05-.35-.07-.7-.16-1.01-.23-.31-.07-.61-.23-.88-.42-.38-.27-.77-.6-1.08-1.01-.32-.41-.59-.83-.81-1.26-2.43-4.28-4.67-8.59-6.72-12.93-2.05-4.34-4.36-8.58-6.93-12.7,0,3.65.16,7.32.47,11.02.32,3.7.68,7.38,1.08,11.07,0,.13.03.4.1.78.07.39.12.81.17,1.26.04.45.09.89.14,1.3.05.41.07.68.07.82,0,.23-.04.42-.14.6-.09.17-.23.3-.41.37-.27.11-.75.17-1.42.16-.68,0-1.39-.04-2.13-.1-.74-.06-1.47-.12-2.16-.2-.7-.07-1.22-.14-1.52-.15Z"/>
        <path class="cls-3" d="M288.14,63.77c-.18-.02-.46-.02-.84,0-.38.02-.8.03-1.25.02-.45-.01-.87-.02-1.25-.02-.38,0-.66-.03-.84-.1-.36-.13-.63-.48-.81-1.04-.18-.56-.32-1.03-.4-1.4-.72-4-1.19-8.01-1.42-12.03-.23-4.01-.27-8.02-.14-12.01.14-3.99.39-7.97.78-11.94.38-3.96.8-7.9,1.25-11.81.09-.53.3-.98.64-1.34.34-.37.8-.47,1.38-.31,5.26,1.36,10.48,2.79,15.66,4.31,5.18,1.52,10.42,2.97,15.7,4.36.36.1.59.27.71.51.11.24.17.53.17.87s-.05.69-.13,1.06-.16.71-.2,1.02c-.22,1.5-.44,3-.64,4.5-.2,1.5-.41,3-.64,4.5-.09.48-.4.66-.94.53-.54-.13-1.07-.26-1.55-.43-.4-.14-1.09-.36-2.05-.64-.96-.28-2.08-.61-3.36-1-1.28-.39-2.61-.78-4-1.17-1.39-.4-2.73-.77-4-1.13-1.28-.35-2.4-.66-3.37-.92-.97-.26-1.65-.44-2.05-.54-.45,3.91-.74,7.84-.88,11.81s-.16,7.94-.07,11.92c.4.05,1.17.18,2.29.4,1.12.21,2.32.43,3.6.65,1.28.22,2.48.42,3.6.59,1.12.18,1.88.3,2.29.35.09-.89.16-1.76.2-2.61.04-.85.09-1.72.14-2.62-1.64-.23-2.46-.35-4.11-.57-.36-.05-.77-.11-1.25-.17-.47-.06-.77-.27-.91-.6-.12-.28-.19-.83-.17-1.61.02-.79.06-1.61.1-2.49.04-.87.1-1.69.17-2.44.07-.76.09-1.32.03-1.62-.03-.18-.05-.39,0-.61.04-.22.16-.36.27-.44.13-.09.36-.16.67-.14.31.02.64.05.98.1s.66.11.98.2c.31.09.57.14.74.17.34.07,1.13.25,2.32.46,1.19.21,2.44.44,3.77.67,1.32.24,2.58.47,3.77.69,1.19.22,1.99.34,2.32.41.55.13,1.15.37,1.71.56.56.2.78.59.64,1.15-.13.52-.28,1.4-.44,2.64-.16,1.24-.31,2.67-.47,4.29-.16,1.62-.33,3.32-.5,5.09-.18,1.77-.34,3.46-.47,5.06-.13,1.6-.25,3.04-.34,4.31-.09,1.27-.18,2.19-.2,2.71,0,.22-.06.48-.17.75-.11.28-.27.44-.44.51-.13.06-.42.07-.84,0-.43-.06-.73-.11-.91-.14-4.17-.8-8.32-1.55-12.44-2.24-4.13-.7-8.26-1.05-12.39-1.07Z"/>
      </g>
    </g>
  </g>
</svg>