<?xml version="1.0" encoding="UTF-8"?>
<svg id="Layer_2" data-name="Layer 2" xmlns="http://www.w3.org/2000/svg" xmlns:xlink="http://www.w3.org/1999/xlink" viewBox="0 0 114.87 210.27">
  <defs>
    <style>
      .cls-1 {
        fill: #891210;
      }

      .cls-2, .cls-3, .cls-4, .cls-5, .cls-6, .cls-7, .cls-8, .cls-9, .cls-10, .cls-11, .cls-12, .cls-13, .cls-14, .cls-15, .cls-16, .cls-17 {
        stroke-miterlimit: 10;
      }

      .cls-2, .cls-4, .cls-8, .cls-10, .cls-12, .cls-15, .cls-16, .cls-17 {
        stroke-width: .53px;
      }

      .cls-2, .cls-4, .cls-18 {
        fill: #231d2d;
      }

      .cls-2, .cls-17 {
        stroke: #191721;
      }

      .cls-19, .cls-10 {
        fill: #eeeaf8;
      }

      .cls-3, .cls-5, .cls-6, .cls-8, .cls-9, .cls-12, .cls-16, .cls-17 {
        fill: none;
      }

      .cls-3, .cls-7 {
        stroke: #c6c6c6;
        stroke-width: .35px;
      }

      .cls-4, .cls-8 {
        stroke: #1f1b28;
      }

      .cls-20 {
        fill: #e8d9ff;
        opacity: .1;
      }

      .cls-5, .cls-6, .cls-13, .cls-14 {
        stroke: #898989;
      }

      .cls-5, .cls-13 {
        stroke-width: .91px;
      }

      .cls-6, .cls-14 {
        stroke-width: .49px;
      }

      .cls-7, .cls-21 {
        fill: #f9f9f9;
      }

      .cls-22, .cls-15 {
        fill: #f8fbfe;
      }

      .cls-23 {
        clip-path: url(#clippath-11);
      }

      .cls-24 {
        clip-path: url(#clippath-10);
      }

      .cls-25 {
        clip-path: url(#clippath-15);
      }

      .cls-26 {
        clip-path: url(#clippath-13);
      }

      .cls-27 {
        clip-path: url(#clippath-14);
      }

      .cls-28 {
        clip-path: url(#clippath-12);
      }

      .cls-29 {
        fill: #ddd;
      }

      .cls-30 {
        clip-path: url(#clippath-1);
      }

      .cls-31 {
        clip-path: url(#clippath-3);
      }

      .cls-32 {
        clip-path: url(#clippath-4);
      }

      .cls-33 {
        clip-path: url(#clippath-2);
      }

      .cls-34 {
        clip-path: url(#clippath-7);
      }

      .cls-35 {
        clip-path: url(#clippath-6);
      }

      .cls-36 {
        clip-path: url(#clippath-9);
      }

      .cls-37 {
        clip-path: url(#clippath-8);
      }

      .cls-38 {
        clip-path: url(#clippath-5);
      }

      .cls-9, .cls-11 {
        stroke: #4b4b4b;
        stroke-width: 3.15px;
      }

      .cls-39 {
        fill: #e25550;
      }

      .cls-10, .cls-16 {
        stroke: #cdcad8;
      }

      .cls-11 {
        fill: #4b4b4b;
      }

      .cls-40 {
        fill: #fff;
      }

      .cls-41 {
        fill: #191918;
      }

      .cls-42 {
        fill: #7e7b86;
      }

      .cls-12, .cls-15 {
        stroke: #d1d1d1;
      }

      .cls-43 {
        fill: #e5e1df;
      }

      .cls-44 {
        fill: #f0ebff;
      }

      .cls-44, .cls-45 {
        opacity: .2;
      }

      .cls-46, .cls-47, .cls-45 {
        fill: #20164c;
      }

      .cls-46, .cls-48 {
        opacity: .15;
      }

      .cls-47 {
        opacity: .4;
      }

      .cls-49 {
        fill: #bab5bc;
      }

      .cls-13, .cls-14, .cls-50 {
        fill: #a5a5a3;
      }

      .cls-51 {
        fill: #0c0812;
      }

      .cls-52 {
        fill: #b33c33;
      }

      .cls-48 {
        fill: #d7c5ff;
      }

      .cls-53 {
        clip-path: url(#clippath);
      }

      .cls-54 {
        fill: #898989;
      }
    </style>
    <clipPath id="clippath">
      <rect class="cls-13" x="4.4" y="23.99" width="106.48" height="146.54" rx="9.1" ry="9.1"/>
    </clipPath>
    <clipPath id="clippath-1">
      <rect class="cls-43" x="7.83" y="23.99" width="99.62" height="137.1" rx="8.51" ry="8.51"/>
    </clipPath>
    <clipPath id="clippath-2">
      <rect class="cls-14" x="4.4" y="165.99" width="106.48" height="43.54" rx="4.96" ry="4.96"/>
    </clipPath>
    <clipPath id="clippath-3">
      <rect class="cls-43" x="7.83" y="165.99" width="99.62" height="40.73" rx="4.64" ry="4.64"/>
    </clipPath>
    <clipPath id="clippath-4">
      <path class="cls-2" d="M56.48,6.16c-17.83.36-34.8,15.14-34.94,30.82-.73,11.81,1.61,18.32.24,25.87-.27,18.5,3.84,14.53,6.18,23.64-.78-4.59-1.52-9.04-1.7-11.83,2.82,6.4,5.35,13.36,4.29,18.73-1.17,5.94.72,8.31-.22,11.53,1.56-2.28,2.29-5.19,1.61-9.15,2.17,10.29,5.76,19.02,10.58,26.43-3.73-7.75-5.91-16.19-6.56-25.32,2.25,6.8,4.49,13.12,6.7,17.15h32.55c2.29-5.62,4.49-11.22,4.1-16.36,1.11,3.55.89,7.82.43,12.23,1.78-3.27,2.89-6.58,2.89-9.95,1.78,5.56-.13,12.86-.68,19.17,3.73-13.36,8.1-28.61,6.04-48.88-.04-.39-.07-.77-.09-1.16-.92-20.1,3.36-41.02-3.37-51.04-6.23-9.42-15.09-11.86-24.68-12.02,2.27-2.63,7.83-3.64,6.61-4.1-4.07-1-6.91,1.48-8.61,4.62-1-4.61-4.26-4.63-7.28-3.71-.4.12-.44.66-.07.85,1.8.95,4.77,1.11,5.99,2.48Z"/>
    </clipPath>
    <clipPath id="clippath-5">
      <path class="cls-15" d="M53.71,66.44c.67,3.68-1.16,6.32-3.27,9.41,7.58,3.56,13.51,4.42,14.53-2.8-2.17-1.96-3.27-4.35-2.68-7.2l-8.58.59Z"/>
    </clipPath>
    <clipPath id="clippath-6">
      <path class="cls-15" d="M85.89,42.35c0,9.61-4.53,18.61-13.72,23.02-4.35,2.09-10.72,2.25-17.03,2.66-24.86,1.62-26.31-5.17-29.17-25.68-1.95-14.02,13.41-25.64,29.96-25.64s29.96,11.48,29.96,25.64Z"/>
    </clipPath>
    <clipPath id="clippath-7">
      <circle class="cls-7" cx="66.39" cy="44.76" r="8.12"/>
    </clipPath>
    <clipPath id="clippath-8">
      <circle class="cls-7" cx="41.21" cy="48.59" r="8.3"/>
    </clipPath>
    <clipPath id="clippath-9">
      <path class="cls-15" d="M72.74,132.91l-12.42,1.66c.8,8.1,8.87,11.04,11.88,15.98-1.8.68-.13,3.8-4.26,4.24-.42.04-.25.47-.21.9.09.93.63,1.77,1.49,2.14,4.36,1.91,12.06-1.63,14.6-6.74-.05-1.22-3.17-2.31-4.04-5.46-1.47-5.15-3.94-8.92-7.02-12.72Z"/>
    </clipPath>
    <clipPath id="clippath-10">
      <path class="cls-15" d="M58.18,132.91c-4.18,16.07-10.54,15.15-9.87,19.29,3.17,2.46,2.21,3.93,2.57,5.6.14.66-.33,1.29-1,1.33-6.1.38-10.47-1.66-10.34-7.57-.34-6.19,1.34-11.81,6.56-16.41l12.08-2.24Z"/>
    </clipPath>
    <clipPath id="clippath-11">
      <path class="cls-4" d="M47.27,25.37c-1.35,15.09,5.9,13.59,6.95,30.2,1.93-13.69-5.38-22.29,3.41-31.97-2.87,6.37,1.38,13.47,1.24,20.56,4.66-10.5,1.92-14.92,5.44-20.24-.5,3.77-.32,6.69.61,8.67.02-3.5.75-5.94,1.88-8.05-1.27,8.66,8.13,6.59,10.98,19.77-.67-3.16-.83-6.05-.46-8.67,3.97,13.19,2.94,25.09,1.42,34.09l3.3-10.78c1.23,5.84,1.28,16.8,1.39,27.54,2.74-13.63,4.75-29.71,2.46-49.56-5.13-17.89-15.7-22.34-29.12-22.18-12.76.4-19.64,3.86-26.88,12.1-3.85,6.27-7.47,18.11-4.1,34.55,1.94,10.04,4.88,18.63,8.35,26.46,2.89-11.31-4-16.36-.88-26.38-.55,10.79,3.49,13.25,4.94,20.19-4.42-20.9,1.47-14.53-1.53-28.82-2.43-14.1,1.88-13.05,2.02-22.45,1.1,6.69,4.71,3.51,4.16,16.8,1.5-4,1.45-9.93.74-10.94s-.74-4.63.9-7.89c-.55,4.44,1.88,6.08,2.28,9.55.77-3.88-1.83-6.73.49-12.54Z"/>
    </clipPath>
    <clipPath id="clippath-12">
      <path class="cls-10" d="M36.21,92.07c-1.37,10.16,1.24,17.67,3.99,24.75,6.32-3.81,7.9-17.95,5.87-36.39-1.84-2.56-5.61,5.77-9.87,11.64Z"/>
    </clipPath>
    <clipPath id="clippath-13">
      <path class="cls-10" d="M53.42,70.56c-.92,5.53,8.01,8.54,9.73.34,5.58-.79,6.99-3.3,11.82,2.32,3.96,4.21,7.3,7.82,10.29,11.46,1.03,1.25,1.65,2.78,1.79,4.39,1.05,11.37,4.9,15.3,5.68,22.9-4.3-8.05-10.58-13.37-18.2-16.82-.43,1.36-.22,3.21.2,4.84,1.8,3.89,4.58,7.72,4.39,11.33,13.84,16.11,25.12,27.12,25.12,48.92-6.03-20.47-12.23-12.79-19.69-21.3-24.84,1.25-35.64,22.67-50.63,3.62-4.61,3.29-7.17,8.4-9.25,13.93.86-24.6,11.64-30.76,17.41-47.1,2.8-6.83,3.94-13.29,2.68-19.2-3.74-11.94.48-19.27,8.64-19.63Z"/>
    </clipPath>
    <clipPath id="clippath-14">
      <path class="cls-15" d="M82.77,89.74c-5.33-4.76-6.18-.97-10.66-2.77-.67-.34-1.54-.68-2.21-1.38-.44-.45-.71-1.04-.83-1.66-1.42-7.29-6.36-3.27-6.65.17-.23,2.69,1.41,4.96,3.06,4.68.46-.08.92-.13,1.38-.07,1.6.18,2.95.97,3.89,2.71,3.31,6.24,12.27,5.87,13.15,1.51.24-1.18-.22-2.39-1.11-3.18Z"/>
    </clipPath>
    <clipPath id="clippath-15">
      <path class="cls-15" d="M39.35,85.58c-2.79,2.48-5.75,4.08-5.38,8.05.06.66.44,1.27,1.03,1.59.97.52,2.17.71,3.56.43.96-.2,1.81-.75,2.36-1.56,1.38-2.02,2.2-5.22,3.1-7.6,1.12-2.01,1.76-3.76,1.25-4.23-1.57-.7-.84,2.84-2.19,2.01-.56-3.07,2.69-2.8,2.99-3.84.33-1.91-1.5-3.27-3.04-2.59-3.51,2.03-5.14,3.53-3.48,6.28.29.48.2,1.09-.21,1.46Z"/>
    </clipPath>
  </defs>
  <g id="Layer_9" data-name="Layer 9">
    <g>
      <g>
        <rect class="cls-50" x="4.4" y="23.99" width="106.48" height="146.54" rx="9.1" ry="9.1"/>
        <g class="cls-53">
          <polygon class="cls-42" points="0 173.05 9.71 154.84 101.42 154.84 114.87 173.05 0 173.05"/>
        </g>
        <rect class="cls-5" x="4.4" y="23.99" width="106.48" height="146.54" rx="9.1" ry="9.1"/>
      </g>
      <g>
        <rect class="cls-43" x="7.83" y="23.99" width="99.62" height="137.1" rx="8.51" ry="8.51"/>
        <g class="cls-30">
          <rect class="cls-49" x="11.38" y="27.06" width="99.62" height="137.1" rx="8.51" ry="8.51"/>
          <path class="cls-44" d="M110.88,75.81c0-42.65-106.48-42.65-106.48,0V20.05s106.48,0,106.48,0v55.76Z"/>
        </g>
      </g>
    </g>
    <g>
      <rect class="cls-50" x="4.4" y="165.99" width="106.48" height="43.54" rx="4.96" ry="4.96"/>
      <g class="cls-33">
        <polygon class="cls-42" points="0 210.27 9.71 204.86 101.42 204.86 114.87 210.27 0 210.27"/>
      </g>
      <rect class="cls-6" x="4.4" y="165.99" width="106.48" height="43.54" rx="4.96" ry="4.96"/>
    </g>
    <g>
      <rect class="cls-43" x="7.83" y="165.99" width="99.62" height="40.73" rx="4.64" ry="4.64"/>
      <g class="cls-31">
        <rect class="cls-49" x="11.38" y="166.9" width="99.62" height="40.73" rx="4.64" ry="4.64"/>
        <path class="cls-44" d="M110.88,181.38c0-12.67-106.48-12.67-106.48,0v-16.57s106.48,0,106.48,0v16.57Z"/>
      </g>
    </g>
    <g>
      <g>
        <path class="cls-18" d="M56.48,6.16c-17.83.36-34.8,15.14-34.94,30.82-.73,11.81,1.61,18.32.24,25.87-.27,18.5,3.84,14.53,6.18,23.64-.78-4.59-1.52-9.04-1.7-11.83,2.82,6.4,5.35,13.36,4.29,18.73-1.17,5.94.72,8.31-.22,11.53,1.56-2.28,2.29-5.19,1.61-9.15,2.17,10.29,5.76,19.02,10.58,26.43-3.73-7.75-5.91-16.19-6.56-25.32,2.25,6.8,4.49,13.12,6.7,17.15h32.55c2.29-5.62,4.49-11.22,4.1-16.36,1.11,3.55.89,7.82.43,12.23,1.78-3.27,2.89-6.58,2.89-9.95,1.78,5.56-.13,12.86-.68,19.17,3.73-13.36,8.1-28.61,6.04-48.88-.04-.39-.07-.77-.09-1.16-.92-20.1,3.36-41.02-3.37-51.04-6.23-9.42-15.09-11.86-24.68-12.02,2.27-2.63,7.83-3.64,6.61-4.1-4.07-1-6.91,1.48-8.61,4.62-1-4.61-4.26-4.63-7.28-3.71-.4.12-.44.66-.07.85,1.8.95,4.77,1.11,5.99,2.48Z"/>
        <g class="cls-32">
          <path class="cls-48" d="M61.57,5.36c21.94,5.42,28.9,26.57,27.99,43,.31-11.19.68-29.2-3.12-37.42-7.1-4.18-15.67-5.51-24.87-5.58Z"/>
          <path class="cls-48" d="M21.77,62.85C10.84,38.56,25.11,6.49,51.98,5.72c-6.67,4.24-19.17,8.69-24.3,19.2-5.77,11.81-3.9,29.93-5.91,37.94Z"/>
          <ellipse class="cls-48" cx="64.74" cy="2.14" rx="4.33" ry="2.14"/>
          <ellipse class="cls-48" cx="50.97" cy="2.21" rx="4.33" ry="2.14"/>
        </g>
        <path class="cls-17" d="M56.48,6.16c-17.83.36-34.8,15.14-34.94,30.82-.73,11.81,1.61,18.32.24,25.87-.27,18.5,3.84,14.53,6.18,23.64-.78-4.59-1.52-9.04-1.7-11.83,2.82,6.4,5.35,13.36,4.29,18.73-1.17,5.94.72,8.31-.22,11.53,1.56-2.28,2.29-5.19,1.61-9.15,2.17,10.29,5.76,19.02,10.58,26.43-3.73-7.75-5.91-16.19-6.56-25.32,2.25,6.8,4.49,13.12,6.7,17.15h32.55c2.29-5.62,4.49-11.22,4.1-16.36,1.11,3.55.89,7.82.43,12.23,1.78-3.27,2.89-6.58,2.89-9.95,1.78,5.56-.13,12.86-.68,19.17,3.73-13.36,8.1-28.61,6.04-48.88-.04-.39-.07-.77-.09-1.16-.92-20.1,3.36-41.02-3.37-51.04-6.23-9.42-15.09-11.86-24.68-12.02,2.27-2.63,7.83-3.64,6.61-4.1-4.07-1-6.91,1.48-8.61,4.62-1-4.61-4.26-4.63-7.28-3.71-.4.12-.44.66-.07.85,1.8.95,4.77,1.11,5.99,2.48Z"/>
      </g>
      <g>
        <path class="cls-22" d="M53.71,66.44c.67,3.68-1.16,6.32-3.27,9.41,7.58,3.56,13.51,4.42,14.53-2.8-2.17-1.96-3.27-4.35-2.68-7.2l-8.58.59Z"/>
        <g class="cls-38">
          <path class="cls-45" d="M51.39,73.54c4.6-4.12,9.51-3.73,13.96-1.72l-1.7-5.97-11.18.47-1.07,7.22Z"/>
        </g>
        <path class="cls-12" d="M53.71,66.44c.67,3.68-1.16,6.32-3.27,9.41,7.58,3.56,13.51,4.42,14.53-2.8-2.17-1.96-3.27-4.35-2.68-7.2l-8.58.59Z"/>
      </g>
      <g>
        <path class="cls-22" d="M85.89,42.35c0,9.61-4.53,18.61-13.72,23.02-4.35,2.09-10.72,2.25-17.03,2.66-24.86,1.62-26.31-5.17-29.17-25.68-1.95-14.02,13.41-25.64,29.96-25.64s29.96,11.48,29.96,25.64Z"/>
        <g class="cls-35">
          <circle class="cls-45" cx="65.88" cy="45.82" r="8.19"/>
          <circle class="cls-45" cx="40.98" cy="49.2" r="8.55"/>
          <g>
            <circle class="cls-21" cx="66.39" cy="44.76" r="8.12"/>
            <g class="cls-34">
              <ellipse class="cls-41" cx="72.48" cy="44.82" rx="3.06" ry="3.33"/>
              <ellipse class="cls-29" cx="66.62" cy="49.82" rx="8.36" ry="4.86" transform="translate(-1.53 2.11) rotate(-1.8)"/>
              <path class="cls-54" d="M57.04,42.53c5.15-10.53,11.97-8.46,18.78-1.47-7.26-2.49-14.48-1.98-18.78,1.47Z"/>
            </g>
            <circle class="cls-3" cx="66.39" cy="44.76" r="8.12"/>
          </g>
          <g>
            <circle class="cls-21" cx="41.21" cy="48.59" r="8.3"/>
            <g class="cls-37">
              <ellipse class="cls-41" cx="47.83" cy="48.16" rx="3.13" ry="3.4" transform="translate(-2.82 2.97) rotate(-3.46)"/>
              <ellipse class="cls-29" cx="41.9" cy="53.61" rx="8.54" ry="4.09" transform="translate(-7.16 6.47) rotate(-8.13)"/>
              <path class="cls-54" d="M31.55,46.9c4.6-11.06,11.69-9.37,19.07-2.66-7.56-2.09-14.89-1.13-19.07,2.66Z"/>
            </g>
            <circle class="cls-3" cx="41.21" cy="48.59" r="8.3"/>
          </g>
          <path class="cls-51" d="M57.94,33.21c-.47,1.21-.23,2.34.33,3.43,3.65-3.98,7.98-6.32,13.33-6.23-3.43-1.71-7.52-1.19-12.15,1.17-.68.35-1.23.92-1.51,1.64Z"/>
          <path class="cls-51" d="M45.04,36.14c.96.75,1.26,1.78,1.28,2.94-5.01-1.44-9.86-1.2-14.5,1.5,2.22-3.07,6.03-4.66,11.16-5.03.75-.05,1.5.15,2.06.59Z"/>
          <path class="cls-52" d="M58.43,56.63c3.52,1.14,2.43,6.8-1.84,2.88l1.84-2.88Z"/>
          <path class="cls-1" d="M50.41,57.48c1.11,1.68,3.1,2.95,5.07,1.98.88-.42,1.51-1.21,2.09-1.98.62-.82,1.07-1.74,1.57-2.66,0,0,.09.02.09.02-.03,1.09-.35,2.17-.91,3.13-1.11,1.95-3.8,3.14-5.83,1.92-.97-.56-1.66-1.44-2.15-2.37l.08-.05h0Z"/>
          <path class="cls-39" d="M83.47,59.74c-1.21,2.95-3.41,3.17-5.33,1.1-1.93-2.06-6.13-2.28-4.92-5.24s5.23-3.81,8.24-3.29c3.01.51,3.22,4.48,2.01,7.43Z"/>
          <ellipse class="cls-39" cx="35.26" cy="63.12" rx="6.21" ry="5.5"/>
          <path class="cls-45" d="M25.79,31.34c1.62,27.25,10.33,40.2,52.21,35.57l-42.44,4.76c-10.71-7.62-14.87-20.35-9.76-40.33Z"/>
          <path class="cls-45" d="M58.16,35.46c-.38,3.9,5.52.67,11.93-5.24-4.46-.03-8.75,2.03-11.93,5.24Z"/>
          <path class="cls-45" d="M36.52,37.95c2.33,2.77,5.59,3.14,9.79,1.13-2.5-3.01-5.78-3.36-9.79-1.13Z"/>
          <path class="cls-45" d="M46.54,26.77c-1.03,15.11,6.18,13.47,7.57,30.05,1.64-13.72-5.84-22.17,2.75-32.03-2.74,6.43,1.66,13.43,1.66,20.53,4.44-10.6,1.61-14.96,5.02-20.35-.42,3.78.45,6.05,1.42,8.01-.05-3.5,0-5.31,1.08-7.45-1.51,8.89,7.82,6.05,11.72,18.77-.74-3.15-1.29-5.27-.98-7.9,4.24,13.11,3.45,25.03,2.13,34.06l3.08-10.84c1.35,5.81,1.63,16.77,1.96,27.5,2.46-13.68,4.14-29.8,1.43-49.6-3.58-18.41-14.36-22.6-29.57-21.57-12.75.66-23.03,4.69-30.09,13.08-3.72,6.35-3.62,17.83.09,34.2,2.15,10,5.27,18.53,8.89,26.28,2.66-11.36-4.34-16.27-1.42-26.36-.33,10.8,3.76,13.17,5.35,20.08-4.85-20.8,1.17-14.56-2.13-28.79-2.72-14.04,1.61-13.08,1.56-22.49,1.24,6.67,4.78,3.41,4.51,16.71,1.42-4.03,1.25-9.95.52-10.95s-.83-4.62.74-7.91c-.46,4.45,2,6.04,2.48,9.5.69-3.9-1.97-6.69.23-12.55Z"/>
        </g>
        <path class="cls-12" d="M85.89,42.35c0,9.61-4.53,18.61-13.72,23.02-4.35,2.09-10.72,2.25-17.03,2.66-24.86,1.62-26.31-5.17-29.17-25.68-1.95-14.02,13.41-25.64,29.96-25.64s29.96,11.48,29.96,25.64Z"/>
      </g>
      <path class="cls-15" d="M85.63,42.26c6.69-2.05,5.7,8.98-3.8,13.92l3.8-13.92Z"/>
      <g>
        <path class="cls-22" d="M72.74,132.91l-12.42,1.66c.8,8.1,8.87,11.04,11.88,15.98-1.8.68-.13,3.8-4.26,4.24-.42.04-.25.47-.21.9.09.93.63,1.77,1.49,2.14,4.36,1.91,12.06-1.63,14.6-6.74-.05-1.22-3.17-2.31-4.04-5.46-1.47-5.15-3.94-8.92-7.02-12.72Z"/>
        <g class="cls-36">
          <path class="cls-45" d="M67.86,149.22c4.07-7.3,9.87-8.01,17.01-3.58l-5.89-8.74-18.66,4.96,7.55,7.37Z"/>
        </g>
        <path class="cls-12" d="M72.74,132.91l-12.42,1.66c.8,8.1,8.87,11.04,11.88,15.98-1.8.68-.13,3.8-4.26,4.24-.42.04-.25.47-.21.9.09.93.63,1.77,1.49,2.14,4.36,1.91,12.06-1.63,14.6-6.74-.05-1.22-3.17-2.31-4.04-5.46-1.47-5.15-3.94-8.92-7.02-12.72Z"/>
      </g>
      <g>
        <path class="cls-22" d="M58.18,132.91c-4.18,16.07-10.54,15.15-9.87,19.29,3.17,2.46,2.21,3.93,2.57,5.6.14.66-.33,1.29-1,1.33-6.1.38-10.47-1.66-10.34-7.57-.34-6.19,1.34-11.81,6.56-16.41l12.08-2.24Z"/>
        <g class="cls-24">
          <path class="cls-45" d="M37.87,153.26c6.3-1.7,12-1.68,16.45,1.81l-2.65-9.52-16-1.66,2.19,9.37Z"/>
        </g>
        <path class="cls-12" d="M58.18,132.91c-4.18,16.07-10.54,15.15-9.87,19.29,3.17,2.46,2.21,3.93,2.57,5.6.14.66-.33,1.29-1,1.33-6.1.38-10.47-1.66-10.34-7.57-.34-6.19,1.34-11.81,6.56-16.41l12.08-2.24Z"/>
      </g>
      <g>
        <path class="cls-18" d="M47.27,25.37c-1.35,15.09,5.9,13.59,6.95,30.2,1.93-13.69-5.38-22.29,3.41-31.97-2.87,6.37,1.38,13.47,1.24,20.56,4.66-10.5,1.92-14.92,5.44-20.24-.5,3.77-.32,6.69.61,8.67.02-3.5.75-5.94,1.88-8.05-1.27,8.66,8.13,6.59,10.98,19.77-.67-3.16-.83-6.05-.46-8.67,3.97,13.19,2.94,25.09,1.42,34.09l3.3-10.78c1.23,5.84,1.28,16.8,1.39,27.54,2.74-13.63,4.75-29.71,2.46-49.56-5.13-17.89-15.7-22.34-29.12-22.18-12.76.4-19.64,3.86-26.88,12.1-3.85,6.27-7.47,18.11-4.1,34.55,1.94,10.04,4.88,18.63,8.35,26.46,2.89-11.31-4-16.36-.88-26.38-.55,10.79,3.49,13.25,4.94,20.19-4.42-20.9,1.47-14.53-1.53-28.82-2.43-14.1,1.88-13.05,2.02-22.45,1.1,6.69,4.71,3.51,4.16,16.8,1.5-4,1.45-9.93.74-10.94s-.74-4.63.9-7.89c-.55,4.44,1.88,6.08,2.28,9.55.77-3.88-1.83-6.73.49-12.54Z"/>
        <g class="cls-23">
          <path class="cls-20" d="M38.69,30.39c-3.55,8.7-8.09,7.72-3.43,27.22,1.62,5.99-1.69,14.4,2.94,24.05l1.83-45.74-1.34-5.53"/>
          <path class="cls-20" d="M57.63,23.6c-9.8,5.61-4.57,18.04-3.41,31.97l3-9.29c-1.7-7.99-3.31-15.95.41-22.68Z"/>
        </g>
        <path class="cls-8" d="M47.27,25.37c-1.35,15.09,5.9,13.59,6.95,30.2,1.93-13.69-5.38-22.29,3.41-31.97-2.87,6.37,1.38,13.47,1.24,20.56,4.66-10.5,1.92-14.92,5.44-20.24-.5,3.77-.32,6.69.61,8.67.02-3.5.75-5.94,1.88-8.05-1.27,8.66,8.13,6.59,10.98,19.77-.67-3.16-.83-6.05-.46-8.67,3.97,13.19,2.94,25.09,1.42,34.09l3.3-10.78c1.23,5.84,1.28,16.8,1.39,27.54,2.74-13.63,4.75-29.71,2.46-49.56-5.13-17.89-15.7-22.34-29.12-22.18-12.76.4-19.64,3.86-26.88,12.1-3.85,6.27-7.47,18.11-4.1,34.55,1.94,10.04,4.88,18.63,8.35,26.46,2.89-11.31-4-16.36-.88-26.38-.55,10.79,3.49,13.25,4.94,20.19-4.42-20.9,1.47-14.53-1.53-28.82-2.43-14.1,1.88-13.05,2.02-22.45,1.1,6.69,4.71,3.51,4.16,16.8,1.5-4,1.45-9.93.74-10.94s-.74-4.63.9-7.89c-.55,4.44,1.88,6.08,2.28,9.55.77-3.88-1.83-6.73.49-12.54Z"/>
      </g>
      <path class="cls-18" d="M83.43,86.49c3.2-16.29,4.14-33.03,2.1-49.52-3.46-12.06-10.59-20.74-24-21.63-12.66-.88-23.09,1.91-31.3,11.71-8.22,13.93-5.73,31.07-1.44,45.91,1.45,5.07,3.27,10.04,5.36,14.89-4.36-9.61-7.59-19.78-9.27-30.25-1.57-10.44-.78-21.72,4.7-30.99,8.36-10.13,19.27-13.09,32.03-12.13,13.58.93,21.24,9.83,24.64,22.4,1.9,16.55.73,33.35-2.81,49.6h0Z"/>
      <g>
        <path class="cls-19" d="M36.21,92.07c-1.37,10.16,1.24,17.67,3.99,24.75,6.32-3.81,7.9-17.95,5.87-36.39-1.84-2.56-5.61,5.77-9.87,11.64Z"/>
        <g class="cls-28">
          <path class="cls-47" d="M33.44,100.53c6.88-.64,10.25,11.09,13.85,17.61.8-10.3,2.8-33.66.42-39.63-6.08.42-10.86,12.06-14.27,22.02Z"/>
          <path class="cls-45" d="M33.94,96.16c6.11,3.58,9.78-.09,12.9-4.68l3.6-11.63-7.4-2.02-9.1,18.32Z"/>
        </g>
        <path class="cls-16" d="M36.21,92.07c-1.37,10.16,1.24,17.67,3.99,24.75,6.32-3.81,7.9-17.95,5.87-36.39-1.84-2.56-5.61,5.77-9.87,11.64Z"/>
      </g>
      <g>
        <path class="cls-19" d="M53.42,70.56c-.92,5.53,8.01,8.54,9.73.34,5.58-.79,6.99-3.3,11.82,2.32,3.96,4.21,7.3,7.82,10.29,11.46,1.03,1.25,1.65,2.78,1.79,4.39,1.05,11.37,4.9,15.3,5.68,22.9-4.3-8.05-10.58-13.37-18.2-16.82-.43,1.36-.22,3.21.2,4.84,1.8,3.89,4.58,7.72,4.39,11.33,13.84,16.11,25.12,27.12,25.12,48.92-6.03-20.47-12.23-12.79-19.69-21.3-24.84,1.25-35.64,22.67-50.63,3.62-4.61,3.29-7.17,8.4-9.25,13.93.86-24.6,11.64-30.76,17.41-47.1,2.8-6.83,3.94-13.29,2.68-19.2-3.74-11.94.48-19.27,8.64-19.63Z"/>
        <g class="cls-26">
          <path class="cls-45" d="M81.57,94.8c5.57.64,2.99-9.21-5.06-18.45,4.65,8.14,5.91,14,5.06,18.45Z"/>
          <path class="cls-45" d="M76.57,87.86c-3.6-3.19-5.48-10.02-7.23-17.14.93,7.63,2.1,14.71,4.73,18.48l2.5-1.35Z"/>
          <path class="cls-47" d="M74.53,95.16l8.41-.45c1.96,2.52,4.85,8.79,7.42,14.32l-15.83-13.87Z"/>
          <path class="cls-46" d="M64.98,94.91c4.57,3.99,9.06,4.46,9.76-1.46-2.46,2.33-5.82,2.41-9.76,1.46Z"/>
          <path class="cls-46" d="M57.57,95.54c-5.85,5.05-10.22,4.87-10.28-1.12,2.26,2.6,5.94,4.05,10.28,1.12Z"/>
          <path class="cls-45" d="M83.8,122.2c11.4,9.9,15.9,17.95,17.75,25.34-3.26-7.62-9.01-16.01-17.75-25.34Z"/>
          <path class="cls-45" d="M39.49,133.72c8.03,20.76,12.95,15.82,36.48-.81-16.21,9.86-23.63,16.97-36.48.81Z"/>
          <path class="cls-46" d="M45.36,126.44c6.18,19.33,14.24,15.22,23.44-3.21-11.18,19.05-18.08,15.22-23.44,3.21Z"/>
          <path class="cls-45" d="M33.64,143.86c1.12-5.56,3.05-10.92,5.85-16.07-2.87,8.16-4.36,14.63-4.11,18.95l-1.74-2.88"/>
          <path class="cls-45" d="M43.45,91.56c1.74.45,6.98-14.12,6.75-15.18-2.07,9.72-3.04,14.86-5.45,18.57l-1.3-3.39Z"/>
          <path class="cls-45" d="M53.93,108.63c5.73,3.63,8.56,7.87,7.23,12.99.14-4.96-2.48-9.24-7.23-12.99Z"/>
          <path class="cls-45" d="M65.73,113.83c1.16-3.61,3.37-6.41,6.4-8.58-2.58,2.44-4.75,5.27-6.4,8.58Z"/>
          <path class="cls-45" d="M84.56,138.95l-6.79-15.92c3.24,9.72,19.27,25.19,20.74,24.92-6.49-1.81-13.47-4.23-13.95-9Z"/>
          <path class="cls-45" d="M41.61,78.02c12.33-5.11,25-5.77,37.91-3.55l-6.63-6.99-25.98,1.16-5.29,9.38Z"/>
          <path class="cls-45" d="M42.97,107.12c-3.48,17.27-14.56,34.59-18.28,53.61l-3.3-6.43,8.7-33.49,12.88-13.7Z"/>
        </g>
        <path class="cls-16" d="M53.42,70.56c-.92,5.53,8.01,8.54,9.73.34,5.58-.79,6.99-3.3,11.82,2.32,3.96,4.21,7.3,7.82,10.29,11.46,1.03,1.25,1.65,2.78,1.79,4.39,1.05,11.37,4.9,15.3,5.68,22.9-4.3-8.05-10.58-13.37-18.2-16.82-.43,1.36-.22,3.21.2,4.84,1.8,3.89,4.58,7.72,4.39,11.33,13.84,16.11,25.12,27.12,25.12,48.92-6.03-20.47-12.23-12.79-19.69-21.3-24.84,1.25-35.64,22.67-50.63,3.62-4.61,3.29-7.17,8.4-9.25,13.93.86-24.6,11.64-30.76,17.41-47.1,2.8-6.83,3.94-13.29,2.68-19.2-3.74-11.94.48-19.27,8.64-19.63Z"/>
      </g>
      <g>
        <path class="cls-22" d="M82.77,89.74c-5.33-4.76-6.18-.97-10.66-2.77-.67-.34-1.54-.68-2.21-1.38-.44-.45-.71-1.04-.83-1.66-1.42-7.29-6.36-3.27-6.65.17-.23,2.69,1.41,4.96,3.06,4.68.46-.08.92-.13,1.38-.07,1.6.18,2.95.97,3.89,2.71,3.31,6.24,12.27,5.87,13.15,1.51.24-1.18-.22-2.39-1.11-3.18Z"/>
        <g class="cls-27">
          <path class="cls-45" d="M68.47,90.03c7.22,4.6,12.55,4.68,15.52-1.58l2.89,9.42-15.49-.8-2.92-7.04Z"/>
        </g>
        <path class="cls-12" d="M82.77,89.74c-5.33-4.76-6.18-.97-10.66-2.77-.67-.34-1.54-.68-2.21-1.38-.44-.45-.71-1.04-.83-1.66-1.42-7.29-6.36-3.27-6.65.17-.23,2.69,1.41,4.96,3.06,4.68.46-.08.92-.13,1.38-.07,1.6.18,2.95.97,3.89,2.71,3.31,6.24,12.27,5.87,13.15,1.51.24-1.18-.22-2.39-1.11-3.18Z"/>
      </g>
      <g>
        <path class="cls-22" d="M39.35,85.58c-2.79,2.48-5.75,4.08-5.38,8.05.06.66.44,1.27,1.03,1.59.97.52,2.17.71,3.56.43.96-.2,1.81-.75,2.36-1.56,1.38-2.02,2.2-5.22,3.1-7.6,1.12-2.01,1.76-3.76,1.25-4.23-1.57-.7-.84,2.84-2.19,2.01-.56-3.07,2.69-2.8,2.99-3.84.33-1.91-1.5-3.27-3.04-2.59-3.51,2.03-5.14,3.53-3.48,6.28.29.48.2,1.09-.21,1.46Z"/>
        <g class="cls-25">
          <path class="cls-45" d="M37.97,85.68c-2.57,8.23-.57,9.39,6.25,6.34l-6.5,6.76-7.19-5.4,7.43-7.71Z"/>
        </g>
        <path class="cls-12" d="M39.35,85.58c-2.79,2.48-5.75,4.08-5.38,8.05.06.66.44,1.27,1.03,1.59.97.52,2.17.71,3.56.43.96-.2,1.81-.75,2.36-1.56,1.38-2.02,2.2-5.22,3.1-7.6,1.12-2.01,1.76-3.76,1.25-4.23-1.57-.7-.84,2.84-2.19,2.01-.56-3.07,2.69-2.8,2.99-3.84.33-1.91-1.5-3.27-3.04-2.59-3.51,2.03-5.14,3.53-3.48,6.28.29.48.2,1.09-.21,1.46Z"/>
      </g>
      <path class="cls-48" d="M61.89,6.22c7.31,1.75,15.38,7.69,15.87,13.06.09,1,.88,1.8,1.13,2.77-.8-1.82-1.94-3.44-3.19-4.95-1.89-2.26-4.04-4.3-6.34-6.14-2.32-1.84-4.76-3.52-7.48-4.73h0Z"/>
      <path class="cls-48" d="M54.44,6.84c-10.84,2.76-22.74,12.39-23.38,21.2-.12,1.64-1.27,2.95-1.64,4.53,1.16-2.98,2.83-5.62,4.66-8.09,2.77-3.69,5.93-7.01,9.33-9.99,3.41-2.98,7.02-5.7,11.04-7.66h0Z"/>
      <path class="cls-48" d="M55.84,7.32c-7.6,5.98-12.02,11.68-11.33,16.9,2.07-5.01,6.23-10.78,11.33-16.9Z"/>
      <path class="cls-48" d="M59.51,6.84c8.69,6.37,15.44,12.65,13.13,18.31-1.39-4.39-6.92-11.15-13.13-18.31Z"/>
    </g>
    <g>
      <g>
        <path class="cls-11" d="M50.13,155.37c-.05.03-.11.06-.16.1s-.11.07-.18.08c-.05,0-.1-.02-.14-.06s-.11-.12-.22-.23-.21-.24-.32-.37c-.11-.13-.21-.26-.31-.38-.1-.12-.17-.2-.21-.24-.64-.8-1.27-1.61-1.88-2.44s-1.27-1.62-1.98-2.38c0,.15,0,.45-.02.9-.01.45-.02.93-.03,1.44s0,.99,0,1.44v.9c0,.08-.01.16-.04.25-.03.09-.07.14-.14.17-.12.04-.33.07-.62.08-.29.01-.61.02-.94,0-.33,0-.65-.02-.95-.03-.3-.01-.52-.02-.65-.02-.15,0-.31,0-.48-.03-.17-.02-.25-.11-.24-.27.11-2.35.22-4.68.34-7s.25-4.65.38-7c.01-.11.02-.25.03-.44,0-.19.06-.31.15-.36.04-.03.09-.04.14-.04h.18c.09,0,.27,0,.54,0,.27,0,.55.01.86.02s.59.01.86.02c.27,0,.45.01.54.01.11.01.22.02.33,0s.22,0,.33.03c.13.05.22.13.26.24.01.03.02.08,0,.15s-.01.15-.02.23-.02.16-.03.23-.02.13-.02.17c-.08.69-.15,1.38-.21,2.07-.06.69-.12,1.38-.17,2.07.09-.13.25-.35.47-.64.22-.29.47-.62.76-.99.29-.37.59-.75.92-1.15.33-.4.64-.78.93-1.13s.56-.67.8-.95c.24-.28.42-.48.54-.6.07-.07.14-.13.21-.19.07-.06.16-.1.25-.13.13-.03.25,0,.36.1.35.27.7.53,1.05.78.35.25.67.54.95.86.11.13.19.28.26.43s.04.29-.08.41c-.88.87-1.72,1.76-2.53,2.69-.81.93-1.62,1.85-2.45,2.77-.03.04-.02.09.02.14.04.05.08.1.12.14.11.12.29.33.55.63.26.3.56.64.9,1.02s.7.78,1.08,1.21c.38.43.74.83,1.08,1.21.34.38.64.72.91,1.01.27.29.46.5.58.62.05.07.11.13.17.18.06.05.1.12.13.2.03.09-.01.18-.12.26-.08.08-.26.21-.53.38-.27.17-.57.35-.88.54-.31.19-.61.36-.88.52-.27.16-.46.27-.55.34Z"/>
        <path class="cls-11" d="M55.41,154.91c-.11.01-.23.02-.37,0-.14,0-.23-.06-.27-.17-.04-.11-.08-.29-.11-.56-.03-.27-.06-.55-.08-.86-.02-.31-.04-.6-.06-.87-.02-.27-.03-.46-.03-.57-.01-.23-.04-.63-.09-1.21s-.1-1.25-.15-2c-.05-.75-.11-1.55-.18-2.39-.07-.84-.13-1.63-.19-2.38-.06-.75-.11-1.41-.16-1.99-.05-.58-.08-.98-.11-1.21,0-.07,0-.14,0-.22s.04-.13.11-.16c.04-.01.11-.04.22-.07s.22-.06.33-.09c.11-.03.22-.05.33-.07.11-.02.18-.03.22-.03.4-.08.8-.14,1.21-.17.41-.03.81-.06,1.21-.09.83-.07,1.65-.12,2.47-.15.82-.03,1.64-.08,2.47-.15.09-.01.24-.02.43-.03s.39,0,.59,0,.39.01.57.04c.18.03.31.07.39.12.11.11.17.21.18.32.03.16.03.32,0,.49-.03.17-.03.33-.02.49,0,.11,0,.25.03.43.02.18.03.36.03.55s0,.37-.02.54c-.01.17-.05.3-.1.38-.04.07-.12.12-.23.15-.11.03-.24.05-.37.06-.13,0-.27,0-.4,0h-.32c-.11,0-.29,0-.56.01-.27,0-.57.01-.92.02s-.71.02-1.1.03-.75.03-1.1.04-.65.02-.92.03-.45.02-.56.03c.03.44.06.88.1,1.32.04.44.07.88.1,1.32.11,0,.2,0,.29-.03.09-.02.18-.04.29-.05.15-.03.42-.06.81-.09.39-.03.81-.06,1.26-.09.45-.03.87-.05,1.27-.07.4-.02.67-.03.82-.03.13,0,.19.07.18.22-.01.15-.03.29-.06.42-.03.35-.04.69-.03,1.04s0,.69,0,1.04c0,.07-.01.13-.04.2-.03.07-.07.11-.14.14-.04.03-.09.04-.14.04h-.16c-.13,0-.4,0-.8,0-.4,0-.83.01-1.29.02-.46,0-.89.01-1.29.02s-.67.02-.8.03c.01.44.05.88.11,1.31.06.43.12.87.17,1.31,0,.03.03.04.08.04.15,0,.45,0,.92-.02.47-.01.96-.03,1.49-.05.53-.02,1.02-.04,1.49-.06.47-.02.77-.03.92-.03.09,0,.2,0,.32,0s.23,0,.34,0c.11,0,.2.03.28.08s.13.12.14.21c.01.08.02.23.02.46s0,.46-.01.71c0,.25-.01.48-.02.7s0,.37,0,.45v.22c0,.09,0,.19-.02.29-.01.1-.03.19-.04.28s-.04.15-.08.19c-.08.09-.2.14-.36.14-.09.01-.18.02-.27,0s-.18,0-.27,0h-.88c-.41,0-.89,0-1.42,0-.53,0-1.09,0-1.68,0s-1.15,0-1.68,0-1.01,0-1.42,0-.71,0-.88.02Z"/>
        <path class="cls-11" d="M71.82,154.53c-.05.01-.14.02-.25.03s-.24,0-.37,0-.26,0-.37,0c-.11,0-.2,0-.25,0-.09,0-.29,0-.58,0-.29,0-.61-.01-.94-.02-.33,0-.64-.01-.93-.02-.29,0-.48-.01-.57-.01-.08,0-.13-.03-.16-.1-.03-.07-.04-.15-.04-.24.01-.23.04-.62.09-1.17.05-.55.09-1.19.14-1.9s.1-1.47.15-2.26c.05-.79.1-1.55.14-2.26.04-.71.07-1.34.1-1.89.03-.55.04-.94.04-1.18-.08.01-.24.03-.49.05-.25.02-.51.05-.78.08s-.53.06-.78.08c-.25.02-.41.04-.49.05-.07.01-.14.02-.21.01s-.12-.04-.15-.11c-.03-.11-.05-.3-.08-.59-.03-.29-.05-.59-.07-.91-.02-.32-.04-.62-.05-.91-.01-.29-.02-.49-.02-.61,0-.08.04-.15.11-.2.07-.05.15-.09.23-.1,1.48-.17,2.96-.31,4.43-.42,1.47-.11,2.96-.23,4.45-.38h.15s.1.01.15.04c.07.03.1.1.11.22,0,.12,0,.22,0,.3,0,.11,0,.3.01.57,0,.27,0,.57,0,.88v.89c0,.28,0,.47-.02.58-.01.07-.05.11-.12.13-.07.02-.13.04-.2.05-.08,0-.23,0-.46.02-.23.01-.47.03-.73.05-.26.02-.5.04-.73.05-.23.01-.38.03-.46.04-.03,1.81-.02,3.61.03,5.4.05,1.79.09,3.59.13,5.4,0,.04,0,.08,0,.13,0,.05,0,.08-.03.11-.01.07-.07.11-.16.14Z"/>
        <path class="cls-11" d="M79.46,154.53c-.49.04-.99.05-1.48.02-.49-.03-.99-.04-1.48-.04-.07,0-.13,0-.19-.02-.06-.01-.12-.05-.17-.1-.08-.08-.12-.19-.12-.34-.15-1.59-.28-3.17-.39-4.75-.11-1.58-.21-3.17-.29-4.77-.03-.8-.05-1.6-.08-2.4-.03-.8-.04-1.6-.04-2.4,0-.12.07-.19.22-.2.15-.01.28-.03.4-.04.17-.01.45-.04.84-.09s.8-.09,1.23-.12c.43-.03.85-.06,1.24-.07.39-.01.67,0,.83.04.13.04.2.15.2.32-.12,2.43-.22,4.84-.31,7.24-.09,2.4-.12,4.81-.11,7.24.01.11,0,.21-.06.31-.05.1-.13.16-.24.17Z"/>
      </g>
      <g>
        <path class="cls-9" d="M50.13,153.54c-.05.03-.11.06-.16.1s-.11.07-.18.08c-.05,0-.1-.02-.14-.06s-.11-.12-.22-.23-.21-.24-.32-.37c-.11-.13-.21-.26-.31-.38-.1-.12-.17-.2-.21-.24-.64-.8-1.27-1.61-1.88-2.44s-1.27-1.62-1.98-2.38c0,.15,0,.45-.02.9-.01.45-.02.93-.03,1.44s0,.99,0,1.44v.9c0,.08-.01.16-.04.25-.03.09-.07.14-.14.17-.12.04-.33.07-.62.08-.29.01-.61.02-.94,0-.33,0-.65-.02-.95-.03-.3-.01-.52-.02-.65-.02-.15,0-.31,0-.48-.03-.17-.02-.25-.11-.24-.27.11-2.35.22-4.68.34-7s.25-4.65.38-7c.01-.11.02-.25.03-.44,0-.19.06-.31.15-.36.04-.03.09-.04.14-.04h.18c.09,0,.27,0,.54,0,.27,0,.55.01.86.02s.59.01.86.02c.27,0,.45.01.54.01.11.01.22.02.33,0s.22,0,.33.03c.13.05.22.13.26.24.01.03.02.08,0,.15s-.01.15-.02.23-.02.16-.03.23-.02.13-.02.17c-.08.69-.15,1.38-.21,2.07-.06.69-.12,1.38-.17,2.07.09-.13.25-.35.47-.64.22-.29.47-.62.76-.99.29-.37.59-.75.92-1.15.33-.4.64-.78.93-1.13s.56-.67.8-.95c.24-.28.42-.48.54-.6.07-.07.14-.13.21-.19.07-.06.16-.1.25-.13.13-.03.25,0,.36.1.35.27.7.53,1.05.78.35.25.67.54.95.86.11.13.19.28.26.43s.04.29-.08.41c-.88.87-1.72,1.76-2.53,2.69-.81.93-1.62,1.85-2.45,2.77-.03.04-.02.09.02.14.04.05.08.1.12.14.11.12.29.33.55.63.26.3.56.64.9,1.02s.7.78,1.08,1.21c.38.43.74.83,1.08,1.21.34.38.64.72.91,1.01.27.29.46.5.58.62.05.07.11.13.17.18.06.05.1.12.13.2.03.09-.01.18-.12.26-.08.08-.26.21-.53.38-.27.17-.57.35-.88.54-.31.19-.61.36-.88.52-.27.16-.46.27-.55.34Z"/>
        <path class="cls-9" d="M55.41,153.08c-.11.01-.23.02-.37,0-.14,0-.23-.06-.27-.17-.04-.11-.08-.29-.11-.56-.03-.27-.06-.55-.08-.86-.02-.31-.04-.6-.06-.87-.02-.27-.03-.46-.03-.57-.01-.23-.04-.63-.09-1.21s-.1-1.25-.15-2c-.05-.75-.11-1.55-.18-2.39-.07-.84-.13-1.63-.19-2.38-.06-.75-.11-1.41-.16-1.99-.05-.58-.08-.98-.11-1.21,0-.07,0-.14,0-.22s.04-.13.11-.16c.04-.01.11-.04.22-.07s.22-.06.33-.09c.11-.03.22-.05.33-.07.11-.02.18-.03.22-.03.4-.08.8-.14,1.21-.17.41-.03.81-.06,1.21-.09.83-.07,1.65-.12,2.47-.15.82-.03,1.64-.08,2.47-.15.09-.01.24-.02.43-.03s.39,0,.59,0,.39.01.57.04c.18.03.31.07.39.12.11.11.17.21.18.32.03.16.03.32,0,.49-.03.17-.03.33-.02.49,0,.11,0,.25.03.43.02.18.03.36.03.55s0,.37-.02.54c-.01.17-.05.3-.1.38-.04.07-.12.12-.23.15-.11.03-.24.05-.37.06-.13,0-.27,0-.4,0h-.32c-.11,0-.29,0-.56.01-.27,0-.57.01-.92.02s-.71.02-1.1.03-.75.03-1.1.04-.65.02-.92.03-.45.02-.56.03c.03.44.06.88.1,1.32.04.44.07.88.1,1.32.11,0,.2,0,.29-.03.09-.02.18-.04.29-.05.15-.03.42-.06.81-.09.39-.03.81-.06,1.26-.09.45-.03.87-.05,1.27-.07.4-.02.67-.03.82-.03.13,0,.19.07.18.22-.01.15-.03.29-.06.42-.03.35-.04.69-.03,1.04s0,.69,0,1.04c0,.07-.01.13-.04.2-.03.07-.07.11-.14.14-.04.03-.09.04-.14.04h-.16c-.13,0-.4,0-.8,0-.4,0-.83.01-1.29.02-.46,0-.89.01-1.29.02s-.67.02-.8.03c.01.44.05.88.11,1.31.06.43.12.87.17,1.31,0,.03.03.04.08.04.15,0,.45,0,.92-.02.47-.01.96-.03,1.49-.05.53-.02,1.02-.04,1.49-.06.47-.02.77-.03.92-.03.09,0,.2,0,.32,0s.23,0,.34,0c.11,0,.2.03.28.08s.13.12.14.21c.01.08.02.23.02.46s0,.46-.01.71c0,.25-.01.48-.02.7s0,.37,0,.45v.22c0,.09,0,.19-.02.29-.01.1-.03.19-.04.28s-.04.15-.08.19c-.08.09-.2.14-.36.14-.09.01-.18.02-.27,0s-.18,0-.27,0h-.88c-.41,0-.89,0-1.42,0-.53,0-1.09,0-1.68,0s-1.15,0-1.68,0-1.01,0-1.42,0-.71,0-.88.02Z"/>
        <path class="cls-9" d="M71.82,152.7c-.05.01-.14.02-.25.03s-.24,0-.37,0-.26,0-.37,0c-.11,0-.2,0-.25,0-.09,0-.29,0-.58,0-.29,0-.61-.01-.94-.02-.33,0-.64-.01-.93-.02-.29,0-.48-.01-.57-.01-.08,0-.13-.03-.16-.1-.03-.07-.04-.15-.04-.24.01-.23.04-.62.09-1.17.05-.55.09-1.19.14-1.9s.1-1.47.15-2.26c.05-.79.1-1.55.14-2.26.04-.71.07-1.34.1-1.89.03-.55.04-.94.04-1.18-.08.01-.24.03-.49.05-.25.02-.51.05-.78.08s-.53.06-.78.08c-.25.02-.41.04-.49.05-.07.01-.14.02-.21.01s-.12-.04-.15-.11c-.03-.11-.05-.3-.08-.59-.03-.29-.05-.59-.07-.91-.02-.32-.04-.62-.05-.91-.01-.29-.02-.49-.02-.61,0-.08.04-.15.11-.2.07-.05.15-.09.23-.1,1.48-.17,2.96-.31,4.43-.42,1.47-.11,2.96-.23,4.45-.38h.15s.1.01.15.04c.07.03.1.1.11.22,0,.12,0,.22,0,.3,0,.11,0,.3.01.57,0,.27,0,.57,0,.88v.89c0,.28,0,.47-.02.58-.01.07-.05.11-.12.13-.07.02-.13.04-.2.05-.08,0-.23,0-.46.02-.23.01-.47.03-.73.05-.26.02-.5.04-.73.05-.23.01-.38.03-.46.04-.03,1.81-.02,3.61.03,5.4.05,1.79.09,3.59.13,5.4,0,.04,0,.08,0,.13,0,.05,0,.08-.03.11-.01.07-.07.11-.16.14Z"/>
        <path class="cls-9" d="M79.46,152.7c-.49.04-.99.05-1.48.02-.49-.03-.99-.04-1.48-.04-.07,0-.13,0-.19-.02-.06-.01-.12-.05-.17-.1-.08-.08-.12-.19-.12-.34-.15-1.59-.28-3.17-.39-4.75-.11-1.58-.21-3.17-.29-4.77-.03-.8-.05-1.6-.08-2.4-.03-.8-.04-1.6-.04-2.4,0-.12.07-.19.22-.2.15-.01.28-.03.4-.04.17-.01.45-.04.84-.09s.8-.09,1.23-.12c.43-.03.85-.06,1.24-.07.39-.01.67,0,.83.04.13.04.2.15.2.32-.12,2.43-.22,4.84-.31,7.24-.09,2.4-.12,4.81-.11,7.24.01.11,0,.21-.06.31-.05.1-.13.16-.24.17Z"/>
      </g>
      <g>
        <path class="cls-40" d="M50.23,153.55c-.05.03-.11.06-.16.1s-.12.07-.18.08c-.05,0-.1-.02-.14-.06s-.12-.12-.22-.23c-.11-.12-.22-.24-.32-.37s-.21-.26-.31-.38c-.1-.12-.17-.2-.21-.24-.65-.81-1.28-1.63-1.9-2.47-.62-.83-1.29-1.64-2-2.4,0,.15,0,.45-.02.91-.01.46-.02.94-.03,1.46s0,1,0,1.46v.91c0,.08-.01.17-.04.25-.03.09-.07.14-.14.17-.12.04-.33.07-.63.08s-.61.02-.95,0c-.34,0-.66-.02-.96-.03s-.52-.02-.66-.02c-.15,0-.31-.01-.49-.03-.17-.02-.26-.11-.24-.27.11-2.37.22-4.73.34-7.07.12-2.34.25-4.7.38-7.07.01-.11.02-.26.03-.44,0-.19.06-.31.15-.36.04-.03.09-.04.14-.04h.18c.09,0,.28,0,.54,0,.27,0,.56.01.87.02s.6.01.87.02.45,0,.54,0c.11.01.22.02.33,0,.11,0,.23,0,.33.03.13.05.22.14.26.24.01.03.02.08.01.15,0,.07-.01.15-.02.23s-.02.16-.03.23c-.01.07-.02.13-.02.17-.08.7-.15,1.4-.21,2.09-.06.69-.12,1.39-.17,2.09.09-.13.25-.35.47-.65.22-.3.48-.63.77-1,.29-.37.6-.76.93-1.16.33-.4.64-.79.94-1.14.3-.36.57-.68.81-.96.24-.28.42-.49.55-.61.07-.07.14-.13.21-.19.07-.06.16-.1.25-.13.13-.03.25,0,.36.1.35.27.7.53,1.06.79.36.26.68.55.96.87.11.13.2.28.26.43.07.16.04.29-.08.41-.89.88-1.74,1.78-2.56,2.72-.82.94-1.64,1.87-2.48,2.8-.03.04-.02.09.02.14.04.05.08.1.12.14.11.12.29.33.56.64s.57.65.91,1.03.71.79,1.09,1.22c.38.43.75.84,1.09,1.22.34.38.65.72.92,1.02.27.3.46.5.59.63.05.07.11.13.17.18.06.05.1.12.13.2.03.09-.01.18-.12.26-.08.08-.26.21-.54.38-.28.18-.57.36-.89.55-.32.19-.61.36-.89.53-.28.16-.46.28-.56.34Z"/>
        <path class="cls-40" d="M55.57,153.09c-.11.01-.23.02-.37,0-.14,0-.23-.06-.27-.17-.04-.11-.08-.3-.11-.57-.03-.27-.06-.56-.08-.87-.02-.31-.04-.6-.06-.88-.02-.28-.03-.47-.03-.58-.01-.23-.04-.64-.09-1.22-.05-.59-.1-1.26-.15-2.02s-.11-1.57-.18-2.42-.13-1.65-.19-2.4c-.06-.75-.12-1.42-.16-2.01s-.08-.99-.11-1.22c0-.07,0-.14.01-.22,0-.08.04-.13.11-.16.04-.01.11-.04.22-.07.11-.03.22-.06.33-.09s.23-.05.33-.07c.11-.02.18-.03.22-.03.4-.08.81-.14,1.22-.17.41-.03.82-.06,1.22-.09.83-.07,1.67-.12,2.5-.15.83-.03,1.66-.08,2.5-.15.09-.01.24-.02.43-.03s.39,0,.6,0,.39.01.58.04c.18.03.31.07.39.12.11.11.17.22.18.32.03.16.03.33,0,.5-.03.17-.03.33-.02.5,0,.11.01.25.03.43.02.18.03.37.03.56s0,.37-.02.55c-.01.17-.05.3-.1.38-.04.07-.12.12-.23.15s-.24.05-.37.06c-.14,0-.27,0-.4,0h-.32c-.11,0-.3,0-.57.01s-.58.01-.93.02c-.35,0-.72.02-1.11.03-.39.01-.76.03-1.11.04-.35.01-.66.02-.93.03s-.46.02-.57.03c.03.44.06.89.1,1.33.04.45.07.89.1,1.33.11,0,.21,0,.29-.03.09-.02.19-.04.29-.05.15-.03.42-.06.82-.09.4-.03.82-.06,1.27-.09.45-.03.88-.05,1.28-.07.4-.02.68-.03.83-.03.13,0,.2.07.18.22-.01.15-.03.29-.06.42-.03.35-.04.7-.03,1.05,0,.35.01.7.01,1.05,0,.07-.01.13-.04.2-.03.07-.07.12-.14.14-.04.03-.09.04-.14.04h-.16c-.13,0-.4,0-.81,0-.4,0-.84.01-1.3.02s-.9.01-1.3.02-.67.02-.81.03c.01.44.05.89.11,1.32.06.44.12.88.17,1.32,0,.03.03.04.08.04.15,0,.46,0,.93-.02.47-.01.97-.03,1.5-.05.53-.02,1.03-.04,1.51-.06.47-.02.78-.03.93-.03.09,0,.2,0,.32-.01.12,0,.24,0,.34,0,.11,0,.2.03.28.08.08.05.13.12.14.21.01.08.02.24.02.46s0,.47,0,.72-.01.48-.02.71c0,.22,0,.37,0,.45v.22c0,.09,0,.19-.02.29s-.03.2-.04.28c-.01.09-.04.15-.08.19-.08.09-.2.14-.36.14-.09.01-.19.02-.27,0-.09,0-.18,0-.27,0h-.89c-.42,0-.9,0-1.43,0-.54,0-1.1-.01-1.7-.01s-1.16,0-1.7.01c-.54,0-1.02,0-1.43,0s-.71,0-.89.02Z"/>
        <path class="cls-40" d="M72.14,152.7c-.05.01-.14.02-.25.03-.12,0-.24,0-.37,0s-.26,0-.37,0c-.11,0-.2-.01-.25-.01-.09,0-.29,0-.59,0-.3,0-.61-.01-.95-.02s-.65-.01-.94-.02c-.29,0-.48-.01-.58-.01-.08,0-.13-.03-.16-.1-.03-.07-.04-.15-.04-.24.01-.23.04-.62.09-1.18.05-.56.09-1.2.14-1.92.05-.72.1-1.48.15-2.28.05-.8.1-1.56.14-2.28.04-.72.07-1.36.1-1.91.03-.55.04-.95.04-1.19-.08.01-.25.03-.5.05-.25.02-.51.05-.79.08-.28.03-.54.06-.79.08-.25.02-.41.04-.5.05-.07.01-.14.02-.21.01s-.12-.04-.15-.11c-.03-.11-.05-.31-.08-.6-.03-.29-.05-.6-.07-.92-.02-.32-.04-.63-.05-.92s-.02-.5-.02-.62c0-.08.04-.15.11-.2s.15-.09.23-.1c1.5-.17,2.99-.32,4.48-.42s2.99-.24,4.5-.38h.15s.1.01.15.04c.07.03.1.1.11.22s0,.22,0,.3c0,.11,0,.3.01.58,0,.28,0,.57,0,.89v.9c0,.28,0,.48-.02.59-.01.07-.05.11-.12.13-.07.02-.13.04-.2.05-.08,0-.24,0-.46.02-.23.01-.47.03-.74.05-.26.02-.51.04-.74.05-.23.01-.38.03-.46.04-.03,1.83-.02,3.65.03,5.46.05,1.81.09,3.62.13,5.46,0,.04,0,.08.01.13s0,.08-.03.11c-.01.07-.07.11-.16.14Z"/>
        <path class="cls-40" d="M79.86,152.7c-.5.04-1,.05-1.5.02-.5-.03-1-.04-1.5-.04-.07,0-.13,0-.19-.02s-.12-.05-.17-.1c-.08-.08-.12-.2-.12-.34-.15-1.6-.28-3.2-.39-4.8-.11-1.6-.21-3.2-.29-4.82-.03-.81-.05-1.62-.08-2.42-.03-.81-.04-1.62-.04-2.42,0-.12.07-.19.22-.2.15-.01.28-.03.4-.04.18-.01.46-.04.85-.09.39-.05.81-.09,1.24-.12.44-.03.86-.06,1.25-.07.4-.01.68,0,.84.04.13.04.2.15.2.32-.12,2.45-.23,4.89-.31,7.31-.09,2.42-.12,4.86-.11,7.31.01.11,0,.21-.06.31-.05.1-.13.16-.24.17Z"/>
      </g>
    </g>
  </g>
</svg>