<?xml version="1.0" encoding="UTF-8"?>
<svg id="Layer_2" data-name="Layer 2" xmlns="http://www.w3.org/2000/svg" xmlns:xlink="http://www.w3.org/1999/xlink" viewBox="0 0 594.13 330.43">
  <defs>
    <style>
      .cls-1 {
        fill: #a52525;
      }

      .cls-1, .cls-2, .cls-3, .cls-4, .cls-5, .cls-6, .cls-7, .cls-8, .cls-9, .cls-10, .cls-11 {
        stroke-miterlimit: 10;
      }

      .cls-1, .cls-8 {
        stroke: #a52525;
        stroke-width: 16.54px;
      }

      .cls-12, .cls-13, .cls-10 {
        fill: #860303;
      }

      .cls-12, .cls-14 {
        opacity: .2;
      }

      .cls-15 {
        fill: #b04242;
      }

      .cls-16 {
        fill: #a62a2a;
      }

      .cls-17, .cls-3 {
        fill: #f2cfce;
      }

      .cls-18 {
        fill: #9b1b1b;
      }

      .cls-19 {
        fill: #df908b;
        opacity: .15;
      }

      .cls-2 {
        stroke: #9b1b1b;
      }

      .cls-2, .cls-3, .cls-4, .cls-6, .cls-9, .cls-11 {
        stroke-width: 1.5px;
      }

      .cls-2, .cls-6, .cls-20 {
        fill: #af4040;
      }

      .cls-21, .cls-5 {
        fill: #fbeeee;
      }

      .cls-22 {
        clip-path: url(#clippath-1);
      }

      .cls-23 {
        clip-path: url(#clippath-3);
      }

      .cls-24 {
        clip-path: url(#clippath-4);
      }

      .cls-25 {
        clip-path: url(#clippath-2);
      }

      .cls-26 {
        clip-path: url(#clippath-7);
      }

      .cls-27 {
        clip-path: url(#clippath-6);
      }

      .cls-28 {
        clip-path: url(#clippath-8);
      }

      .cls-29 {
        clip-path: url(#clippath-5);
      }

      .cls-30 {
        fill: #fff;
      }

      .cls-3, .cls-9 {
        stroke: #e49e9c;
      }

      .cls-4 {
        fill: #a82f30;
        stroke: #a42828;
      }

      .cls-5, .cls-7 {
        stroke: #d97b75;
        stroke-width: 1.2px;
      }

      .cls-6, .cls-11 {
        stroke: #ad3b3a;
      }

      .cls-7, .cls-8, .cls-9, .cls-11 {
        fill: none;
      }

      .cls-14, .cls-31, .cls-32 {
        fill: #850100;
      }

      .cls-31 {
        opacity: .25;
      }

      .cls-32 {
        opacity: .3;
      }

      .cls-10 {
        stroke: #701916;
        stroke-width: 1.13px;
      }

      .cls-33 {
        clip-path: url(#clippath);
      }

      .cls-34 {
        fill: #a42828;
      }
    </style>
    <clipPath id="clippath">
      <path class="cls-3" d="M203.76,166.4c-33.98-3.24-2.39,54.56,31.95,37.48l-31.95-37.48Z"/>
    </clipPath>
    <clipPath id="clippath-1">
      <path class="cls-3" d="M403.87,120.82c29.35-17.44,25.46,48.31-12.89,47.53l12.89-47.53Z"/>
    </clipPath>
    <clipPath id="clippath-2">
      <path class="cls-16" d="M374.9,184.83c3.98,19.78,21.87,10.76,43.39,19.44-16.05-11.27-2.87-31.53-31.74-36.32l-11.66,16.87Z"/>
    </clipPath>
    <clipPath id="clippath-3">
      <path class="cls-16" d="M236.02,200.4c3.25,12.63,2.55,26.07-2.07,40.31,10.91-3.4,18.69-12.8,25-25.04l-22.92-15.27Z"/>
    </clipPath>
    <clipPath id="clippath-4">
      <path class="cls-3" d="M407.09,93.99c.58,66-28.49,117.21-86.33,129.01-57.83,11.79-116.29-25.97-129.35-82.63-11.78-51.1,14.64-108.54,83.68-124.5,57.51-13.29,131.56,28.14,132,78.12Z"/>
    </clipPath>
    <clipPath id="clippath-5">
      <ellipse class="cls-5" cx="354.18" cy="150.47" rx="22.85" ry="24.3" transform="translate(8.53 319.62) rotate(-49.09)"/>
    </clipPath>
    <clipPath id="clippath-6">
      <ellipse class="cls-5" cx="267.03" cy="170.38" rx="24.3" ry="22.25" transform="translate(-22.2 299.55) rotate(-56.6)"/>
    </clipPath>
    <clipPath id="clippath-7">
      <path class="cls-15" d="M309.57,217.49c2.16-27.33,27.07-32.45,36.64-6.05-14.08-7.98-28.59-2.76-36.64,6.05Z"/>
    </clipPath>
    <clipPath id="clippath-8">
      <path class="cls-6" d="M213.88,86.11c-16.16-2.91-25.5-.35-27,9.2-5.94,31.32,2.42,54.54,16.3,74.63,20.15-28.83,49.81-48.19,95.64-73.05l-84.94-10.78Z"/>
    </clipPath>
  </defs>
  <g id="Layer_9" data-name="Layer 9">
    <g>
      <g>
        <path class="cls-1" d="M19.15,320.55c-.28.04-.72.16-1.31.35s-1.24.38-1.93.55c-.7.17-1.34.34-1.93.5-.59.16-1.03.22-1.31.2-.56-.06-.98-.48-1.25-1.28-.28-.8-.49-1.47-.63-2.01-1.12-5.92-1.85-11.96-2.2-18.1-.35-6.14-.42-12.35-.21-18.62.21-6.27.61-12.56,1.2-18.89.59-6.32,1.24-12.62,1.93-18.89.14-.86.47-1.65.99-2.36.52-.71,1.24-1.06,2.14-1.06,8.15-.11,16.26-.08,24.32.07,8.06.16,16.21.18,24.46.06.56,0,.93.17,1.1.49.17.33.26.76.26,1.28s-.07,1.1-.21,1.71c-.14.61-.25,1.17-.31,1.67-.35,2.43-.68,4.85-1,7.27-.31,2.42-.65,4.84-1,7.27-.14.79-.63,1.2-1.47,1.23-.84.04-1.66.05-2.41-.01-.62-.05-1.69-.1-3.2-.12-1.5-.02-3.25-.05-5.24-.11-1.99-.05-4.07-.09-6.23-.12-2.16-.02-4.24-.04-6.23-.04-1.99,0-3.73,0-5.23,0-1.5,0-2.56.01-3.19.03-.7,6.26-1.15,12.51-1.36,18.74-.21,6.23-.24,12.42-.1,18.56.63-.09,1.81-.21,3.56-.35,1.74-.14,3.61-.31,5.6-.52,1.99-.2,3.86-.41,5.6-.61,1.74-.2,2.93-.34,3.56-.43.14-1.42.24-2.8.31-4.14.07-1.34.14-2.71.21-4.13-2.56.34-3.83.51-6.39.86-.56.08-1.2.16-1.94.27s-1.2-.1-1.41-.54c-.19-.39-.3-1.2-.26-2.43.03-1.23.09-2.53.16-3.91.07-1.37.16-2.67.26-3.87.1-1.2.14-2.08.05-2.53-.05-.26-.07-.59,0-.95.07-.36.24-.62.42-.79.21-.2.56-.41,1.05-.51.49-.1.99-.19,1.52-.26.52-.07,1.03-.11,1.52-.1.49,0,.89-.03,1.15-.05.52-.04,1.76-.1,3.61-.28,1.85-.18,3.81-.36,5.86-.56,2.06-.2,4.01-.38,5.87-.54,1.85-.16,3.1-.33,3.61-.35.84-.04,1.8.07,2.67.14.87.07,1.21.58,1,1.51-.2.86-.44,2.3-.68,4.29-.24,1.99-.49,4.28-.73,6.87-.25,2.59-.51,5.3-.79,8.14-.28,2.84-.52,5.53-.73,8.08-.21,2.55-.38,4.83-.52,6.84-.14,2.01-.28,3.48-.31,4.29-.01.34-.09.76-.26,1.24-.17.48-.43.8-.68.98-.21.15-.65.29-1.31.38-.67.08-1.14.14-1.42.18-6.5.54-12.95,1.15-19.37,1.83-6.42.67-12.84,1.87-19.25,3.59Z"/>
        <path class="cls-1" d="M88.81,313.77c-.55.28-1.15.43-1.78.46s-1.26.06-1.89.05c-.56,0-1.54-.02-2.94-.03-1.4-.02-2.9-.05-4.51-.11-1.61-.06-3.11-.11-4.51-.15-1.4-.04-2.35-.12-2.83-.19-.88-.12-1.8-.3-2.41-.65-.75-.44-1.19-1.3-1.15-2.17.03-.82.24-1.68.52-2.48.28-.8.59-1.61.94-2.43.21-.51.52-1.43.94-2.74.42-1.31.89-2.79,1.41-4.43s1.08-3.37,1.68-5.19c.59-1.82,1.14-3.57,1.63-5.24.49-1.67.93-3.14,1.31-4.41.38-1.27.65-2.19.79-2.77.77-2.75,1.56-5.52,2.36-8.31.8-2.79,1.69-5.57,2.67-8.35.21-.65.66-2,1.36-4.04.7-2.04,1.42-4.21,2.15-6.5.74-2.29,1.43-4.45,2.1-6.49.66-2.03,1.11-3.39,1.31-4.03.29-.93.51-1.86.68-2.76.17-.89.25-1.9.37-2.83.04-.34.12-.7.16-1.02s.16-.6.37-.83c.28-.31.59-.52.94-.63.35-.11.7-.22,1.05-.32,2.38-.4,4.74-.84,7.08-1.34,2.34-.49,4.76-.89,7.09-1.31,1.38-.25,2.76-.49,4.1-.62,1.33-.13,2.69-.33,4.1-.61.21-.02.6-.09,1.16-.22.56-.12,1.17-.23,1.84-.33.66-.1,1.28-.19,1.84-.28.56-.09.95-.14,1.16-.16.77-.07,1.29.05,1.58.38.21.19.42.52.63.99.21.47.4,1,.58,1.57.17.58.33,1.13.47,1.64.14.51.25.91.32,1.18.91,3.28,1.8,6.58,2.68,9.9.88,3.32,1.72,6.67,2.47,10.02.92,4.1,1.96,8.18,3.15,12.17,1.19,3.99,2.21,8.06,3.05,12.19.28,1.24.53,2.46.74,3.67.21,1.21.49,2.39.84,3.55.14.55.42,1.54.84,2.98.42,1.44.88,2.97,1.37,4.61.49,1.64.96,3.2,1.42,4.66s.8,2.44,1,2.91c.14.33.28.66.42.96.14.3.24.63.32.97.13.61-.11,1.09-.74,1.43-.63.33-1.31.62-2,.8-1.77.46-3.61.73-5.36.88-1.75.15-3.57.38-5.36.58-.41.04-1.14.15-2.15.35-1.02.2-2.08.42-3.21.66-1.12.24-2.19.48-3.2.72-1.01.24-1.72.39-2.05.51-.4.15-.82.22-1.21.11-.39-.1-.65-.32-.79-.66-.21-.68-.46-2.02-.74-4.03-.28-2-.54-4.13-.79-6.39-.25-2.25-.49-4.38-.74-6.39-.25-2.01-.4-3.39-.47-4.16-.56.05-1.75.19-3.57.4-1.82.22-3.75.43-5.78.63-2.03.21-3.96.43-5.77.65-1.82.23-3.01.37-3.57.43-.56,2.72-1,5.43-1.31,8.13-.31,2.7-.72,5.4-1.21,8.12-.14.79-.3,1.59-.47,2.42s-.47,1.61-.89,2.36c-.14.29-.35.58-.63.86-.28.28-.6.51-.95.68ZM97.42,278.16c2.31-.24,4.64-.47,6.98-.67,2.34-.2,4.67-.49,6.98-.86-.28-2.21-.59-4.41-.94-6.58-.35-2.17-.69-4.38-.95-6.58-.15-1.3-.25-2.64-.32-3.96-.07-1.32-.1-2.69-.1-4.09-.21.09-.53.21-.95.36-.42.15-.88.28-1.37.4-.49.12-.94.24-1.36.35-.42.11-.74.18-.95.2-.35.04-.86.16-1.52.37-.67.21-1.1.46-1.31.66-.25.24-.47.8-.58,1.69-.11.89-.19,1.51-.26,1.87-.49,2.85-1.01,5.68-1.57,8.47-.56,2.79-1.16,5.59-1.78,8.38Z"/>
        <path class="cls-1" d="M220.16,301.66c-2.81.46-5.62.71-8.43.73-2.81.02-5.65.17-8.43.34-.35.02-.76.02-1.21,0-.46-.01-.74-.24-.89-.53-.1-.19-.21-.58-.21-1.14s.02-1.14.05-1.74c.04-.6.09-1.18.16-1.74.07-.56.09-1,.1-1.27.03-.81.19-2.29.37-4.33.18-2.04.35-4.34.53-6.91.18-2.56.35-5.29.53-8.17.18-2.88.33-5.62.47-8.22.14-2.6.26-4.9.37-6.9.1-2,.16-3.42.16-4.26-1.83,5.13-3.65,10.29-5.48,15.46-1.83,5.18-3.51,10.4-5.05,15.67-.21.85-.6,1.47-1.16,1.85-.35.23-.76.37-1.21.43-.46.06-.95.13-1.42.13-1.61.02-3.37.02-5.05.19-1.68.17-3.37.31-5.05.41-.49.03-.88-.05-1.16-.24-.49-.25-.88-.75-1.16-1.5-1.83-4.09-3.63-8.14-5.42-12.15-1.79-4.01-3.67-8.02-5.63-12.02.35,6.07.61,12.11.79,18.13.18,6.01.44,12.05.79,18.13.07.56-.07,1-.42,1.34s-.77.53-1.26.56c-.56.04-1.65.15-3.26.33-1.61.18-3.35.36-5.21.53-1.86.17-3.59.32-5.21.44-1.61.12-2.7.21-3.26.25-.28.02-.56,0-.84-.09-.28-.08-.46-.27-.53-.54-.08-.34-.14-.95-.21-1.82-.07-.87-.12-1.79-.16-2.77-.04-.98-.07-1.92-.11-2.83-.04-.91-.05-1.54-.05-1.89v-3.47c0-1.75-.02-3.64-.05-5.67-.04-2.03-.05-3.94-.05-5.72s.02-2.98,0-3.52c-.03-.8-.14-2.37-.21-4.61-.07-2.23-.16-4.79-.26-7.65-.11-2.86-.21-5.92-.32-9.17-.1-3.25-.21-6.32-.32-9.22-.11-2.9-.19-5.45-.26-7.65-.07-2.2-.11-3.76-.11-4.67,0-.35.02-.84.05-1.47.04-.63.25-1.07.47-1.3.28-.3.82-.61,1.63-.71.8-.1,1.42-.16,1.84-.2,2.87-.22,5.72-.37,8.52-.44,2.8-.07,5.72-.06,8.52-.19.75-.03,1.37.15,1.79.61.28.33.56.84.84,1.52,2.45,5.58,4.89,11.18,7.31,16.81,2.42,5.63,5.1,11.12,8.05,16.47.21-.71.63-2,1.26-3.86.63-1.86,1.35-3.97,2.16-6.33.81-2.36,1.67-4.88,2.58-7.55.91-2.68,1.77-5.19,2.58-7.55.81-2.36,1.53-4.46,2.16-6.32.63-1.85,1.07-3.15,1.26-3.85.15-.55.35-1.28.63-2.14.28-.86.7-1.33,1.26-1.43,3.93-.76,7.83-1.39,11.69-1.89,3.86-.49,7.76-.89,11.69-1.18.28-.01.56,0,.84.02.28.02.49.14.63.34.21.27.3.8.26,1.57-.04.77-.05,1.33-.05,1.68-.14,1.41-.26,3.81-.37,7.21-.1,3.4-.21,7.29-.32,11.68-.1,4.38-.21,9.01-.32,13.88-.11,4.87-.19,9.5-.26,13.88-.07,4.38-.14,8.27-.21,11.67-.07,3.4-.1,5.8-.1,7.2,0,1.12.05,2.22.16,3.3.11,1.08.11,2.25-.05,3.42-.06.41-.16.85-.26,1.27-.1.42-.33.78-.68,1.08-.21.15-.49.23-.84.24Z"/>
        <path class="cls-1" d="M238.6,303.42c-.55.07-1.21.13-1.95.11s-1.21-.29-1.42-.85c-.21-.55-.4-1.53-.58-2.92-.18-1.39-.32-2.9-.42-4.5-.11-1.61-.21-3.13-.32-4.56-.11-1.43-.14-2.45-.16-2.99-.03-1.15-.23-3.3-.47-6.34-.25-3.04-.51-6.53-.79-10.48-.28-3.95-.6-8.12-.95-12.53-.35-4.4-.68-8.56-1-12.47-.32-3.91-.6-7.39-.84-10.43-.25-3.04-.44-5.15-.58-6.34,0-.35.02-.74.05-1.16.04-.42.23-.71.58-.86.21-.08.6-.21,1.16-.41.56-.19,1.14-.37,1.74-.53.6-.16,1.17-.3,1.74-.43.56-.12.95-.19,1.16-.2,2.11-.49,4.23-.85,6.38-1.09,2.14-.24,4.28-.44,6.38-.65,4.33-.43,8.69-.82,13.02-1.08,4.32-.26,8.66-.58,13.02-.99.49-.08,1.25-.14,2.27-.18,1.02-.05,2.06-.07,3.11-.08,1.05,0,2.06.05,3,.18.95.13,1.63.34,2.06.62.56.56.87,1.13.95,1.67.12.83.14,1.7,0,2.57-.14.88-.14,1.77-.11,2.57.02.54.05,1.31.16,2.26.1.95.16,1.91.16,2.89s-.04,1.93-.11,2.84c-.07.91-.26,1.58-.53,2-.21.34-.62.62-1.21.8-.6.18-1.25.29-1.95.33-.7.04-1.41.06-2.11.07-.7,0-1.26.01-1.69.02-.56,0-1.55.03-2.95.08-1.41.05-3.02.11-4.85.17-1.83.06-3.76.14-5.8.25-2.04.1-3.97.21-5.8.32-1.83.11-3.44.19-4.85.26-1.41.07-2.39.14-2.95.23.14,2.31.32,4.62.53,6.92.21,2.31.39,4.61.53,6.92.56-.01,1.07-.08,1.53-.19.46-.12.98-.2,1.53-.3.75-.13,2.2-.35,4.27-.56,2.07-.22,4.29-.41,6.64-.59,2.35-.18,4.58-.33,6.69-.46,2.11-.13,3.55-.2,4.32-.21.7,0,1.02.38.95,1.15-.07.77-.22,1.54-.32,2.21-.24,1.7-.19,3.64-.16,5.47.04,1.82.05,3.64.05,5.46,0,.35-.07.7-.21,1.05-.14.35-.44.58-.74.74-.2.11-.46.22-.74.22-.28,0-.56,0-.84,0-.7,0-2.11.04-4.22.11-2.11.06-4.38.13-6.8.21-2.42.08-4.69.16-6.8.24-2.11.08-3.51.16-4.22.25.07,2.31.26,4.6.58,6.87.32,2.27.61,4.56.9,6.86,0,.14.14.21.42.2.77-.02,2.39-.09,4.85-.21,2.46-.12,5.08-.25,7.85-.4,2.77-.15,5.39-.29,7.85-.42,2.46-.13,4.07-.2,4.85-.21.49,0,1.05-.02,1.69-.07.63-.04,1.23-.05,1.79-.01.56.03,1.05.17,1.48.41.42.24.66.62.74,1.1.06.42.11,1.23.11,2.42s-.02,2.44-.05,3.73c-.04,1.3-.07,2.52-.11,3.68-.04,1.16-.05,1.94-.05,2.36v1.16c0,.49-.04,1-.11,1.52-.07.53-.14,1.02-.21,1.47-.07.45-.21.79-.42,1-.42.49-1.12.69-1.9.75-.46.04-.97.1-1.42.06-.46-.03-.93-.05-1.42-.04-.91,0-2.46.02-4.64.05-2.18.02-4.68.04-7.48.05-2.81,0-5.76.04-8.85.1-3.09.06-6.04.14-8.85.25-2.81.1-5.31.19-7.48.25-2.18.06-3.75.13-4.64.24Z"/>
        <path class="cls-1" d="M377.5,302.02c-.35.05-.97.06-1.84.03-.88-.04-1.83-.09-2.84-.17-1.02-.08-1.97-.15-2.84-.22-.88-.07-1.49-.11-1.84-.12-1.41-.19-2.83-.33-4.27-.42-1.44-.09-2.88-.24-4.27-.41-1.81-.22-3.67-.52-5.53-.96-1.86-.44-3.71-.77-5.53-.95-3.08-.31-6.16-.58-9.22-.86-3.06-.28-6.06-.83-9.01-1.65-.84-.22-1.69-.49-2.53-.78-.84-.29-1.55-.79-2.11-1.5-.21-.21-.37-.57-.47-1.06-.1-.49-.21-1.02-.32-1.58-.1-.56-.19-1.11-.26-1.63-.07-.53-.11-.93-.11-1.21-.35-4.21-.56-8.4-.63-12.57-.07-4.17-.11-8.35-.11-12.56v-10.51c-.14-3.22-.26-6.41-.37-9.57-.11-3.15-.02-6.41.05-9.56.02-.89.05-1.89.16-2.94.11-1.05.55-1.85,1.32-2.4.56-.4,1.53-.8,2.9-1.16,1.37-.36,2.83-.69,4.37-.97,1.54-.29,3.04-.5,4.48-.65,1.44-.14,2.51-.28,3.21-.4,4.07-.61,8.17-.91,12.28-.89,4.11.01,8.2-.19,12.28-.6.28-.06.86-.13,1.74-.2.88-.07,1.79-.16,2.74-.27.95-.1,1.86-.21,2.74-.32.88-.11,1.46-.15,1.74-.14.35.01.81.01,1.37,0,.56-.01,1.12.01,1.68.07.56.06,1.07.17,1.53.33.46.16.79.39,1,.67.27.36.49.99.63,1.87.14.88.25,1.82.32,2.8.07.98.12,1.93.16,2.84.04.91.05,1.58.05,2,0,.7.02,1.84.05,3.42.04,1.58.09,3.42.16,5.52.07,2.1.12,4.31.16,6.63.04,2.31.07,4.52.11,6.62.04,2.1.07,3.96.1,5.57.04,1.61.05,2.73.05,3.37,0,.56-.04,1.57-.11,3.04-.07,1.47-.14,3.15-.21,5.03-.07,1.89-.14,3.9-.21,6.03-.07,2.13-.14,4.15-.21,6.03-.07,1.89-.14,3.57-.21,5.03-.07,1.47-.1,2.48-.1,3.04,0,.77.02,1.65.05,2.63.04.98.02,1.95-.05,2.89-.07.94-.28,1.76-.63,2.44s-.88,1.12-1.58,1.3ZM343.99,280.3c.56.16,1.65.37,3.27.66,1.62.29,3.32.56,5.11.83,1.79.26,3.5.51,5.11.73,1.61.23,2.74.39,3.37.48-.14-.78-.23-1.5-.26-2.16-.04-.67-.16-1.38-.26-2.06-.09-.6-.16-1.69-.26-3.16-.11-1.48-.19-3.14-.26-5-.07-1.86-.14-3.84-.21-5.94-.07-2.1-.12-4.1-.16-5.99-.04-1.89-.07-3.58-.1-5.05-.04-1.47-.04-2.54-.05-3.15-.03-1.51-.09-3.07-.05-4.57.04-1.5.05-3.06.05-4.67,0-.14-.05-.16-.16-.06-.11.1-.23.15-.37.15-.49.06-1.48.18-2.95.38-1.47.2-3.06.42-4.74.65-1.69.23-3.27.45-4.74.66-1.48.21-2.86.29-2.95.4-.94,1.05-.02,8.37-.05,12.5-.04,4.13.02,8.3.16,12.51.07,2.03.12,4.02.16,5.94.04,1.93.16,3.91.37,5.95Z"/>
        <path class="cls-1" d="M436.56,307.23c-.21.17-.56.29-1.05.29-.49,0-1.02-.04-1.58-.11-.56-.08-1.11-.17-1.63-.27-.53-.11-.93-.17-1.21-.19-1.26-.23-2.52-.4-3.79-.53-1.26-.12-2.56-.3-3.89-.53-.35-.02-1.07-.12-2.16-.3-1.09-.18-2.25-.37-3.47-.59-1.23-.22-2.39-.41-3.47-.59-1.09-.17-1.81-.27-2.16-.29-.35-.02-.99-.09-1.89-.22-.91-.12-1.55-.35-1.9-.64-.27-.23-.44-.54-.47-.92s-.09-.76-.16-1.11c-1.19-4.27-2.37-8.51-3.53-12.71-1.16-4.2-2.54-8.34-4.16-12.42-.35-.86-.9-2.4-1.63-4.61-.74-2.21-1.56-4.74-2.47-7.59-.91-2.85-1.9-5.88-2.95-9.08s-2.04-6.23-2.95-9.08c-.91-2.84-1.74-5.37-2.47-7.58-.74-2.21-1.25-3.74-1.53-4.59-.07-.21-.17-.5-.31-.86-.14-.36-.28-.75-.42-1.18-.14-.43-.25-.82-.32-1.17-.07-.35-.1-.64-.1-.85.14-.55.4-1.01.79-1.38.38-.37.79-.65,1.21-.84.42-.19,1.21-.4,2.37-.62,1.16-.22,2.37-.41,3.63-.56,1.26-.15,2.48-.26,3.63-.34s1.98-.14,2.47-.18c.98-.09,1.98-.19,3-.31,1.02-.12,2.06-.14,3-.2.4-.02,1.05-.04,1.9,0,.84.05,1.44.22,1.79.52.49.45.77,1.01.84,1.68.07.67.17,1.32.32,1.96,1.68,8.3,3.25,16.55,4.68,24.77,1.44,8.22,3.14,16.45,5.1,24.7.14.43.26.91.37,1.44.11.53.37.92.79,1.15.56.39,1.16.55,1.79.49.63-.06,1.26-.07,1.89-.03,1.26-9.02,2.4-17.98,3.42-26.88,1.02-8.9,2.02-17.9,3-27.01.07-.63.46-.9,1.16-.81.7.08,1.4.19,2.1.31,1.47.25,2.93.46,4.36.64,1.44.18,2.94.33,4.37.54,1.37.21,2.79.5,4.15.74,1.37.25,2.75.5,4.15.75.35.03.81.1,1.37.22.56.12,1.14.25,1.74.41.59.15,1.12.36,1.58.61.45.25.83.53,1,.82.15.26.18.65.11,1.06-.07.41-.21.86-.42,1.33-.21.47-.42.93-.63,1.36-.21.44-.35.79-.42,1.07-1.05,3.27-2.03,6.56-2.94,9.84-.91,3.29-1.73,6.63-2.42,9.99-.78,3.84-1.7,7.62-2.79,11.28-1.09,3.66-2.12,7.4-3,11.17-.86,3.69-1.74,7.43-2.68,11.14-.95,3.71-1.91,7.42-2.89,11.13-.07.35-.18.79-.31,1.34-.14.55-.32,1.12-.53,1.69-.21.58-.42,1.12-.63,1.63-.21.51-.49.85-.74,1.05Z"/>
        <path class="cls-1" d="M469.15,310.33c-.55,0-1.21-.02-1.94-.12s-1.21-.44-1.42-1.02c-.21-.58-.4-1.58-.58-2.99-.18-1.42-.31-2.93-.42-4.56-.11-1.62-.21-3.15-.32-4.6-.1-1.44-.14-2.46-.16-3.01-.03-1.16-.23-3.33-.47-6.4-.25-3.07-.51-6.6-.79-10.58-.28-3.98-.6-8.2-.95-12.64-.35-4.44-.68-8.64-1-12.59-.32-3.95-.6-7.46-.84-10.53-.25-3.07-.44-5.2-.58-6.41,0-.35.02-.73.05-1.15.04-.42.23-.68.58-.79.21-.05.6-.14,1.16-.27.56-.13,1.14-.23,1.73-.32.59-.09,1.17-.16,1.73-.22.56-.05.95-.07,1.16-.05,2.1-.23,4.22-.34,6.36-.31,2.13.02,4.27.08,6.36.13,4.31.1,8.67.24,12.97.5s8.62.47,12.96.59c.49-.02,1.24.02,2.26.09,1.01.08,2.05.18,3.1.29,1.05.12,2.05.3,2.99.55.94.25,1.63.54,2.04.87.56.63.86,1.24.94,1.79.12.84.14,1.72,0,2.57-.14.86-.14,1.75-.1,2.56.02.54.05,1.32.16,2.28.1.96.16,1.93.16,2.91s-.04,1.92-.11,2.83c-.07.9-.26,1.55-.52,1.94-.21.31-.61.54-1.21.65-.59.11-1.24.14-1.94.09-.7-.04-1.4-.11-2.1-.19-.7-.08-1.26-.14-1.68-.19-.56-.06-1.54-.16-2.94-.27-1.4-.12-3.01-.26-4.83-.42s-3.74-.31-5.77-.46c-2.03-.14-3.96-.27-5.77-.39-1.82-.12-3.43-.22-4.83-.33-1.4-.1-2.38-.15-2.94-.13.14,2.32.32,4.65.53,6.99.21,2.33.38,4.66.52,6.99.56.06,1.07.05,1.52,0,.45-.06.98-.08,1.52-.11.75-.04,2.19-.08,4.25-.04,2.06.04,4.27.11,6.61.21,2.34.11,4.56.22,6.66.35,2.1.12,3.53.23,4.3.32.7.08,1.01.5.94,1.26-.07.76-.22,1.52-.31,2.17-.24,1.68-.19,3.62-.16,5.45.04,1.83.05,3.65.05,5.47,0,.35-.07.69-.21,1.03-.14.34-.44.53-.73.65-.2.08-.46.16-.74.13-.28-.03-.56-.06-.84-.09-.7-.08-2.1-.22-4.2-.41-2.1-.19-4.36-.4-6.77-.62s-4.67-.41-6.77-.59c-2.1-.18-3.5-.26-4.2-.26.07,2.32.26,4.63.58,6.94.32,2.31.61,4.63.89,6.97,0,.14.14.22.42.25.77.08,2.38.2,4.83.38,2.45.18,5.06.36,7.82.55,2.76.19,5.37.37,7.82.53,2.45.17,4.06.3,4.83.38.49.06,1.05.1,1.68.14.63.04,1.22.1,1.78.2.56.1,1.05.3,1.47.59.42.29.66.7.73,1.19.06.42.1,1.24.1,2.43s-.02,2.43-.05,3.72c-.04,1.29-.07,2.51-.1,3.67-.04,1.15-.05,1.94-.05,2.36v1.16c0,.49-.04.99-.11,1.51-.07.52-.14,1-.21,1.45-.07.45-.21.76-.42.95-.42.44-1.1.55-1.89.52-.46-.02-.96-.02-1.42-.11-.46-.09-.93-.16-1.42-.21-.91-.1-2.45-.28-4.62-.52-2.17-.24-4.65-.53-7.45-.86-2.8-.33-5.74-.66-8.82-.97-3.08-.31-6.02-.59-8.82-.83-2.8-.24-5.29-.46-7.46-.66-2.17-.2-3.73-.33-4.62-.32Z"/>
        <path class="cls-1" d="M537.98,315.56c-2.1-.13-4.19-.27-6.29-.43-2.1-.16-4.26-.44-6.39-.73-.34-.05-.94-.11-1.78-.21s-1.43-.35-1.78-.74c-.35-.39-.52-.85-.52-1.38s.03-1.06.1-1.62c.49-5.83.91-11.62,1.26-17.4.35-5.77.59-11.59.73-17.46.14-5.66.3-11.26.47-16.81.17-5.55.4-11.11.68-16.68,0-.28.02-.8.05-1.57.04-.76.09-1.57.16-2.4.07-.83.14-1.61.21-2.34.07-.73.14-1.23.21-1.5.14-.47.42-.77.84-.9.42-.12.91-.17,1.47-.14.56.03,1.15.12,1.78.27.63.15,1.19.25,1.68.31,7.34,1.19,14.62,2.66,21.84,4.41,7.22,1.75,14.53,3.35,21.92,4.79.56.15,1.12.31,1.67.46.56.15,1.11.45,1.67.88.91.63,1.32,1.47,1.46,2.22.04.2.12.58.16,1.07.04.5.07,1.05.1,1.64.04.6.05,1.15.05,1.64v1.05c-.07,3.07-.09,6.1-.05,9.08.04,2.98.19,6,.47,9.06,0,.42.07,1.2.21,2.34.14,1.14.28,2.39.42,3.74.14,1.35.26,2.6.37,3.73.1,1.14.16,1.92.16,2.34,0,1.26-.4,2.22-1.2,2.87-.8.65-1.79,1.13-2.98,1.44-1.19.31-2.47.49-3.87.53-1.4.04-2.72.04-3.97,0,.35.61.93,1.7,1.73,3.25.8,1.55,1.71,3.35,2.72,5.39,1.01,2.04,2.09,4.22,3.24,6.52,1.15,2.31,2.25,4.49,3.29,6.54,1.05,2.05,1.95,3.87,2.72,5.45.77,1.59,1.34,2.7,1.67,3.3.28.52.57,1.07.89,1.61.31.54.4,1.09.26,1.62-.2.73-.85,1.11-1.93,1.12-1.08,0-2.02-.06-2.77-.16-1.42-.18-2.93-.39-4.39-.71-1.46-.32-2.97-.53-4.39-.7-.41-.05-1.05-.12-1.88-.17-.84-.05-1.71-.14-2.61-.27-.91-.13-1.76-.27-2.56-.42-.8-.15-1.38-.32-1.73-.51-.55-.29-1.1-.84-1.62-1.65-.52-.81-1.03-1.7-1.52-2.68s-.93-1.93-1.31-2.86c-.38-.93-.68-1.69-.89-2.28-1.12-2.61-2.16-5.2-3.14-7.79-.98-2.59-2.02-5.14-3.14-7.68-.14-.3-.35-.78-.63-1.45-.28-.67-.58-1.34-.89-2.01-.31-.67-.65-1.31-.99-1.92-.35-.61-.63-1.03-.84-1.27-.14-.09-.31-.16-.52-.23-.21-.06-.38-.14-.52-.23-.21-.03-.56-.09-1.05-.19-.49-.1-.8-.12-.94-.07.07,3.58.07,7.14,0,10.67-.07,3.53.04,7.1.31,10.71,0,.42.04.99.1,1.7.07.71.12,1.45.16,2.23.04.78.02,1.49-.05,2.15-.07.66-.25,1.14-.52,1.45-.28.31-.73.5-1.36.56-.63.06-1.33.05-2.09-.01-.77-.06-1.54-.16-2.31-.3-.77-.13-1.36-.23-1.78-.28ZM546.04,258.18c0,.42-.02,1.28-.05,2.57-.04,1.29-.07,2.67-.1,4.14-.03,1.47-.07,2.85-.11,4.14-.04,1.29-.05,2.15-.05,2.57.49.06,1.5.18,3.04.35,1.53.17,3.16.37,4.87.6,1.71.23,3.33.46,4.87.67,1.53.21,2.55.32,3.04.32,0-.42.02-1.22.05-2.41.04-1.19.05-2.46.05-3.83v-6.36c-.56-.15-1.57-.36-3.03-.63-1.46-.27-3.05-.54-4.76-.81-1.71-.27-3.32-.54-4.82-.81-1.5-.27-2.5-.44-2.98-.5Z"/>
      </g>
      <g>
        <path class="cls-8" d="M19.15,310.93c-.28.04-.72.16-1.31.35-.59.19-1.24.38-1.93.55-.7.17-1.34.34-1.93.5-.59.16-1.03.22-1.31.2-.56-.06-.98-.48-1.25-1.28-.28-.8-.49-1.47-.63-2.01-1.12-5.92-1.85-11.96-2.19-18.1-.35-6.14-.42-12.35-.21-18.62.21-6.27.61-12.56,1.2-18.89.59-6.32,1.24-12.62,1.93-18.89.14-.86.47-1.65.99-2.36.52-.71,1.24-1.06,2.14-1.06,8.15-.11,16.26-.08,24.32.07,8.06.16,16.21.18,24.46.06.56,0,.93.17,1.1.49.17.33.26.76.26,1.28s-.07,1.1-.21,1.71c-.14.61-.25,1.17-.31,1.67-.35,2.43-.68,4.85-1,7.27-.31,2.42-.65,4.84-1,7.27-.14.79-.63,1.2-1.47,1.23-.84.04-1.66.05-2.41-.01-.62-.05-1.69-.1-3.2-.12-1.5-.02-3.25-.05-5.24-.11-1.99-.05-4.07-.09-6.23-.12-2.17-.02-4.24-.04-6.23-.04-1.99,0-3.73,0-5.23,0-1.5,0-2.56.01-3.19.03-.7,6.26-1.15,12.51-1.36,18.74-.21,6.23-.25,12.42-.1,18.56.63-.09,1.81-.21,3.56-.35,1.74-.14,3.61-.31,5.6-.52,1.99-.2,3.86-.41,5.6-.61,1.74-.2,2.93-.34,3.56-.43.14-1.42.24-2.8.31-4.14.07-1.34.14-2.71.21-4.13-2.55.34-3.83.51-6.39.86-.56.08-1.2.16-1.94.27-.73.1-1.2-.1-1.41-.54-.19-.39-.3-1.2-.26-2.43.03-1.23.09-2.53.16-3.91.07-1.37.16-2.67.26-3.87.1-1.2.14-2.08.05-2.53-.05-.26-.07-.58,0-.95.07-.36.24-.62.42-.79.21-.2.56-.41,1.05-.51.49-.1.99-.19,1.52-.26.52-.07,1.03-.11,1.52-.1.49,0,.89-.03,1.15-.05.52-.04,1.76-.1,3.61-.28,1.85-.18,3.81-.36,5.86-.56,2.06-.2,4.02-.38,5.87-.54,1.85-.17,3.1-.33,3.61-.35.84-.04,1.8.07,2.67.14.87.07,1.21.58,1,1.51-.2.86-.44,2.3-.68,4.29-.24,1.99-.49,4.28-.73,6.87-.25,2.59-.51,5.3-.79,8.14-.28,2.84-.52,5.53-.73,8.08-.21,2.55-.38,4.83-.52,6.84-.14,2.01-.28,3.48-.31,4.3-.01.34-.09.76-.26,1.24-.17.48-.43.8-.68.98-.21.15-.65.29-1.31.38-.67.08-1.14.14-1.41.18-6.5.54-12.95,1.15-19.37,1.83-6.42.67-12.84,1.87-19.25,3.59Z"/>
        <path class="cls-8" d="M88.81,304.15c-.55.28-1.15.43-1.78.46-.63.03-1.26.06-1.89.05-.56,0-1.54-.02-2.94-.03-1.4-.02-2.9-.05-4.51-.11-1.61-.06-3.11-.11-4.51-.15-1.4-.04-2.35-.12-2.83-.19-.88-.12-1.8-.3-2.41-.65-.75-.44-1.19-1.3-1.15-2.17.03-.82.24-1.68.52-2.48.28-.8.59-1.61.94-2.43.21-.51.52-1.43.94-2.74.42-1.31.89-2.79,1.41-4.43s1.08-3.37,1.68-5.19c.59-1.82,1.14-3.57,1.63-5.24.49-1.67.93-3.14,1.31-4.41.38-1.27.65-2.19.79-2.77.77-2.75,1.56-5.52,2.36-8.31.8-2.79,1.69-5.57,2.67-8.35.21-.65.66-2,1.36-4.04.7-2.04,1.42-4.21,2.15-6.5.73-2.29,1.43-4.45,2.1-6.49.66-2.03,1.11-3.39,1.31-4.03.29-.93.51-1.86.68-2.75.17-.89.25-1.9.37-2.83.04-.34.12-.7.16-1.02.04-.32.16-.6.37-.83.28-.31.59-.52.94-.63.35-.11.7-.22,1.05-.32,2.38-.4,4.74-.84,7.08-1.34,2.34-.49,4.76-.89,7.09-1.31,1.38-.25,2.76-.49,4.1-.62,1.33-.13,2.69-.33,4.1-.61.21-.02.6-.09,1.16-.22.56-.12,1.17-.23,1.84-.33.66-.1,1.28-.19,1.84-.28.56-.09.95-.14,1.16-.16.77-.07,1.29.05,1.58.38.21.19.42.52.63.99.21.47.4,1,.58,1.57.17.58.33,1.13.47,1.64.14.51.25.91.32,1.18.91,3.28,1.8,6.58,2.68,9.9.88,3.32,1.72,6.67,2.47,10.02.92,4.1,1.96,8.18,3.15,12.17,1.19,3.99,2.21,8.06,3.05,12.19.28,1.24.53,2.46.74,3.67.21,1.21.49,2.39.84,3.55.14.55.42,1.54.84,2.98.42,1.43.88,2.97,1.37,4.61.49,1.64.96,3.2,1.42,4.66s.8,2.44,1,2.91c.14.33.28.66.42.96.14.3.24.63.32.97.13.61-.11,1.09-.74,1.43-.63.33-1.31.62-2,.8-1.77.46-3.61.73-5.36.88-1.75.15-3.57.38-5.36.58-.41.04-1.14.16-2.15.35-1.02.2-2.09.42-3.21.66-1.12.24-2.19.48-3.2.72-1.01.24-1.73.39-2.05.51-.41.15-.82.22-1.21.11-.39-.1-.65-.32-.79-.66-.21-.68-.46-2.02-.74-4.03-.28-2-.54-4.13-.79-6.39-.25-2.25-.49-4.38-.74-6.39-.25-2.01-.4-3.39-.47-4.16-.56.05-1.75.19-3.57.4-1.82.22-3.75.43-5.78.63-2.03.21-3.96.43-5.77.65-1.82.23-3.01.37-3.57.43-.56,2.72-1,5.43-1.31,8.13-.32,2.7-.72,5.4-1.21,8.12-.14.79-.3,1.59-.47,2.42s-.47,1.61-.89,2.36c-.14.29-.35.58-.63.86-.28.28-.6.51-.94.68ZM97.42,268.54c2.31-.24,4.64-.47,6.98-.67,2.34-.2,4.67-.49,6.98-.86-.28-2.21-.59-4.41-.94-6.58-.35-2.17-.69-4.38-.95-6.58-.15-1.3-.25-2.64-.32-3.96-.07-1.32-.1-2.69-.1-4.09-.21.09-.53.21-.95.36-.42.15-.88.28-1.37.4-.49.12-.94.24-1.36.35-.42.11-.74.18-.95.2-.35.04-.86.16-1.52.37-.67.21-1.1.46-1.31.66-.25.24-.47.8-.58,1.69-.11.89-.19,1.51-.26,1.87-.49,2.85-1.01,5.68-1.57,8.47-.56,2.79-1.16,5.59-1.78,8.38Z"/>
        <path class="cls-8" d="M220.16,292.04c-2.81.46-5.62.71-8.43.73-2.81.02-5.65.17-8.43.34-.35.02-.76.02-1.21,0-.46-.01-.74-.24-.89-.53-.1-.19-.21-.58-.21-1.14s.02-1.14.05-1.74c.04-.6.09-1.18.16-1.74.07-.56.09-1,.1-1.27.03-.81.19-2.29.37-4.33.18-2.04.35-4.34.53-6.91.18-2.56.35-5.29.53-8.17.18-2.88.33-5.62.47-8.22.14-2.6.26-4.9.37-6.9.1-2,.16-3.42.16-4.26-1.83,5.13-3.65,10.29-5.48,15.46-1.83,5.18-3.51,10.4-5.05,15.67-.21.85-.6,1.47-1.16,1.85-.35.23-.76.37-1.21.43-.46.06-.95.13-1.42.13-1.61.03-3.37.02-5.05.19-1.68.17-3.37.31-5.05.41-.49.03-.88-.05-1.16-.24-.49-.25-.88-.75-1.16-1.5-1.83-4.09-3.63-8.14-5.42-12.15-1.79-4.01-3.67-8.02-5.63-12.02.35,6.07.61,12.11.79,18.13.18,6.01.44,12.05.79,18.12.07.56-.07,1-.42,1.34s-.77.53-1.26.56c-.56.04-1.65.15-3.26.33-1.61.18-3.35.36-5.21.53-1.86.17-3.59.32-5.21.44-1.61.12-2.7.21-3.26.25-.28.02-.56,0-.84-.09-.28-.08-.46-.27-.53-.54-.08-.34-.14-.95-.21-1.82-.07-.87-.12-1.79-.16-2.77-.04-.98-.07-1.92-.11-2.83-.04-.91-.05-1.54-.05-1.89v-3.47c0-1.75-.02-3.64-.05-5.67-.04-2.03-.05-3.94-.05-5.72s.02-2.98,0-3.52c-.03-.8-.14-2.37-.21-4.61-.07-2.23-.16-4.79-.26-7.65-.11-2.86-.21-5.92-.32-9.17-.11-3.25-.21-6.32-.32-9.22-.11-2.9-.19-5.45-.26-7.65-.07-2.2-.11-3.76-.11-4.67,0-.35.02-.84.05-1.48.04-.63.25-1.07.47-1.3.28-.3.82-.61,1.63-.71.8-.1,1.42-.16,1.84-.2,2.87-.22,5.71-.37,8.52-.44,2.8-.07,5.72-.06,8.52-.19.75-.03,1.37.15,1.79.61.28.33.56.84.84,1.52,2.45,5.58,4.89,11.18,7.31,16.81,2.42,5.63,5.1,11.12,8.05,16.47.21-.71.63-2,1.26-3.86.63-1.86,1.35-3.97,2.16-6.33.81-2.36,1.67-4.88,2.58-7.55.91-2.68,1.77-5.19,2.58-7.55.81-2.36,1.53-4.46,2.16-6.32.63-1.86,1.07-3.15,1.26-3.85.15-.55.35-1.28.63-2.13.28-.86.7-1.33,1.26-1.43,3.93-.76,7.83-1.39,11.69-1.89,3.86-.49,7.76-.89,11.69-1.18.28-.01.56,0,.84.02.28.02.49.14.63.34.21.27.3.8.26,1.57-.04.77-.05,1.33-.05,1.68-.14,1.41-.26,3.81-.37,7.21-.1,3.4-.21,7.29-.32,11.68-.1,4.38-.21,9.01-.32,13.88-.11,4.87-.19,9.5-.26,13.88-.07,4.38-.14,8.27-.21,11.67-.07,3.4-.1,5.8-.1,7.2,0,1.12.05,2.22.16,3.3.11,1.08.11,2.25-.05,3.42-.06.41-.16.85-.26,1.27-.1.42-.33.78-.68,1.08-.21.15-.49.23-.84.24Z"/>
        <path class="cls-8" d="M238.6,293.8c-.55.07-1.21.13-1.95.11s-1.21-.29-1.42-.85c-.21-.55-.4-1.53-.58-2.92-.18-1.39-.32-2.9-.42-4.5-.11-1.61-.21-3.13-.32-4.56-.11-1.43-.14-2.45-.16-2.99-.03-1.15-.23-3.3-.47-6.34-.25-3.04-.51-6.53-.79-10.48-.28-3.95-.6-8.12-.95-12.53-.35-4.4-.68-8.56-1-12.47-.32-3.91-.6-7.39-.84-10.43-.25-3.04-.44-5.15-.58-6.34,0-.35.02-.74.05-1.16.04-.42.23-.71.58-.86.21-.08.6-.21,1.16-.41.56-.19,1.14-.37,1.74-.53.6-.16,1.17-.3,1.74-.43.56-.12.95-.19,1.16-.2,2.11-.49,4.23-.85,6.38-1.09,2.14-.24,4.28-.44,6.38-.65,4.33-.43,8.69-.82,13.02-1.08,4.32-.26,8.66-.58,13.02-.99.49-.08,1.25-.14,2.27-.18,1.02-.05,2.06-.07,3.11-.08,1.05,0,2.06.05,3,.18.95.13,1.63.34,2.06.62.56.56.87,1.13.95,1.67.12.83.14,1.7,0,2.58s-.14,1.77-.11,2.57c.02.54.05,1.31.16,2.26.1.95.16,1.91.16,2.89s-.04,1.93-.11,2.84c-.07.91-.26,1.58-.53,2-.21.34-.62.62-1.21.8-.6.18-1.25.29-1.95.33-.7.04-1.41.06-2.11.07-.7,0-1.26.01-1.69.02-.56,0-1.55.03-2.95.08-1.41.05-3.02.11-4.85.17-1.83.06-3.76.14-5.8.25-2.04.1-3.97.21-5.8.32-1.83.11-3.44.19-4.85.26-1.41.07-2.39.14-2.95.23.14,2.31.32,4.62.53,6.92.21,2.31.39,4.61.53,6.92.56-.01,1.07-.08,1.53-.19.46-.12.98-.2,1.53-.3.75-.13,2.2-.35,4.27-.56,2.07-.22,4.29-.41,6.64-.59,2.35-.18,4.58-.33,6.69-.46,2.11-.13,3.55-.2,4.32-.21.7,0,1.02.38.95,1.15-.07.77-.22,1.54-.32,2.21-.24,1.7-.19,3.64-.16,5.47.04,1.82.05,3.64.05,5.46,0,.35-.07.7-.21,1.05-.14.35-.44.58-.74.74-.2.11-.46.22-.74.22-.28,0-.56,0-.84,0-.7,0-2.11.04-4.22.11-2.11.06-4.38.13-6.8.21-2.42.08-4.69.16-6.8.24-2.11.08-3.51.16-4.22.25.07,2.31.26,4.6.58,6.87.32,2.27.61,4.56.9,6.86,0,.14.14.21.42.2.77-.02,2.39-.09,4.85-.21,2.46-.12,5.08-.25,7.85-.4,2.78-.15,5.39-.29,7.85-.42,2.46-.13,4.07-.2,4.85-.21.49,0,1.05-.03,1.69-.07.63-.04,1.23-.04,1.79-.01.56.03,1.05.17,1.48.41.42.24.66.62.74,1.1.06.42.11,1.23.11,2.42s-.02,2.44-.05,3.73c-.04,1.3-.07,2.52-.11,3.68-.04,1.16-.05,1.94-.05,2.36v1.16c0,.49-.04,1-.11,1.52-.07.53-.14,1.02-.21,1.47-.07.45-.21.79-.42,1-.42.49-1.12.69-1.9.75-.46.04-.97.1-1.42.06-.46-.03-.93-.05-1.42-.04-.91,0-2.46.02-4.64.05-2.18.02-4.68.04-7.48.05-2.81,0-5.76.04-8.85.1-3.09.06-6.04.14-8.85.25-2.81.1-5.31.19-7.48.25-2.18.06-3.75.13-4.64.24Z"/>
        <path class="cls-8" d="M377.5,292.4c-.35.05-.97.06-1.84.03-.88-.04-1.83-.09-2.84-.17-1.02-.08-1.97-.15-2.84-.22-.88-.07-1.49-.11-1.84-.12-1.41-.19-2.83-.33-4.27-.42-1.44-.09-2.88-.24-4.27-.41-1.81-.22-3.67-.52-5.53-.96-1.86-.44-3.71-.77-5.53-.95-3.08-.31-6.17-.58-9.22-.86-3.06-.28-6.06-.83-9.01-1.65-.84-.22-1.69-.49-2.53-.78-.84-.29-1.55-.79-2.11-1.5-.21-.21-.37-.57-.47-1.06-.11-.49-.21-1.02-.32-1.58-.11-.56-.19-1.11-.26-1.63-.07-.53-.11-.93-.11-1.21-.35-4.21-.56-8.4-.63-12.57-.07-4.17-.11-8.35-.11-12.56v-10.51c-.14-3.22-.26-6.41-.37-9.57-.11-3.15-.02-6.41.05-9.56.02-.89.05-1.89.16-2.94.11-1.05.55-1.85,1.32-2.4.56-.4,1.53-.8,2.9-1.16,1.37-.36,2.83-.69,4.37-.97,1.54-.29,3.04-.5,4.48-.65,1.44-.14,2.51-.28,3.21-.4,4.07-.61,8.17-.91,12.28-.89,4.11.01,8.2-.19,12.28-.6.28-.06.86-.13,1.74-.2.88-.07,1.79-.16,2.74-.27.95-.1,1.86-.21,2.74-.32.88-.11,1.46-.15,1.74-.14.35.01.81.01,1.37,0,.56-.01,1.12.01,1.68.07.56.06,1.07.17,1.53.33.46.16.79.39,1,.67.27.36.49.99.63,1.87.14.88.25,1.82.32,2.8.07.98.12,1.93.16,2.84.04.91.05,1.58.05,2,0,.7.02,1.84.05,3.42.04,1.58.09,3.42.16,5.52.07,2.1.12,4.31.16,6.63.04,2.31.07,4.52.11,6.62.04,2.1.07,3.96.1,5.57.04,1.61.05,2.73.05,3.37,0,.56-.04,1.57-.11,3.04-.07,1.47-.14,3.15-.21,5.03-.07,1.89-.14,3.9-.21,6.03-.07,2.13-.14,4.15-.21,6.03-.07,1.89-.14,3.57-.21,5.03-.07,1.47-.1,2.48-.1,3.04,0,.77.02,1.65.05,2.63.04.98.02,1.95-.05,2.89-.07.94-.28,1.76-.63,2.44s-.88,1.12-1.58,1.3ZM343.99,270.68c.56.16,1.65.37,3.27.66,1.62.29,3.32.56,5.11.83,1.79.26,3.5.51,5.11.73,1.61.23,2.74.39,3.37.48-.14-.78-.23-1.5-.26-2.16-.04-.67-.16-1.38-.26-2.06-.09-.6-.16-1.69-.26-3.16-.11-1.48-.19-3.14-.26-5-.07-1.86-.14-3.84-.21-5.94-.07-2.1-.12-4.1-.16-5.99-.04-1.89-.07-3.58-.1-5.05-.04-1.47-.04-2.54-.05-3.15-.03-1.51-.09-3.07-.05-4.57.04-1.5.05-3.06.05-4.67,0-.14-.05-.16-.16-.06-.11.1-.23.15-.37.15-.49.06-1.47.18-2.95.38-1.47.2-3.06.42-4.74.65-1.69.23-3.27.45-4.74.66-1.48.21-2.86.29-2.95.4-.94,1.05-.02,8.37-.05,12.5-.04,4.13.02,8.3.16,12.51.07,2.03.12,4.02.16,5.94.04,1.93.16,3.91.37,5.95Z"/>
        <path class="cls-8" d="M436.56,297.61c-.21.17-.56.29-1.05.29-.49,0-1.02-.04-1.58-.11-.56-.08-1.11-.17-1.63-.27-.53-.11-.93-.17-1.21-.19-1.26-.23-2.53-.4-3.79-.53-1.26-.12-2.56-.3-3.89-.53-.35-.02-1.07-.12-2.16-.3-1.09-.18-2.25-.38-3.47-.59-1.23-.22-2.39-.41-3.47-.59-1.09-.17-1.81-.27-2.16-.29-.35-.02-.99-.09-1.9-.22-.91-.12-1.55-.35-1.9-.64-.27-.23-.44-.54-.47-.92-.04-.39-.09-.76-.16-1.11-1.19-4.27-2.37-8.51-3.53-12.71-1.16-4.2-2.54-8.34-4.16-12.42-.35-.86-.9-2.4-1.63-4.61-.74-2.21-1.56-4.74-2.47-7.59-.91-2.85-1.9-5.88-2.95-9.08s-2.04-6.23-2.95-9.08c-.91-2.84-1.74-5.37-2.47-7.58-.74-2.21-1.25-3.74-1.53-4.59-.07-.21-.17-.5-.32-.86-.14-.36-.28-.75-.42-1.18-.14-.43-.25-.82-.32-1.17-.07-.35-.1-.64-.1-.85.14-.55.4-1.01.79-1.38.38-.37.79-.65,1.21-.84.42-.19,1.21-.4,2.37-.62,1.16-.22,2.37-.41,3.63-.56,1.26-.15,2.47-.26,3.63-.34s1.98-.14,2.47-.18c.98-.09,1.98-.19,3-.31,1.02-.12,2.06-.14,3-.2.4-.02,1.05-.04,1.9,0,.84.05,1.44.22,1.79.52.49.45.77,1.01.84,1.68.07.67.17,1.32.32,1.96,1.68,8.3,3.25,16.55,4.68,24.77,1.44,8.22,3.14,16.45,5.1,24.7.14.43.26.91.37,1.44.11.53.37.92.79,1.15.56.39,1.16.55,1.79.49.63-.06,1.26-.07,1.89-.03,1.26-9.02,2.4-17.98,3.42-26.88,1.02-8.9,2.02-17.9,3-27.01.07-.63.46-.9,1.16-.81.7.08,1.4.19,2.1.31,1.47.25,2.93.46,4.37.64,1.44.18,2.94.33,4.37.54,1.37.21,2.79.5,4.15.74,1.37.25,2.75.5,4.15.75.35.03.81.1,1.37.22.56.12,1.14.25,1.74.41.59.15,1.12.36,1.58.61.45.25.83.53,1,.82.15.26.18.65.11,1.06-.07.41-.21.86-.42,1.33-.21.47-.42.93-.63,1.36-.21.44-.35.79-.42,1.07-1.05,3.27-2.03,6.56-2.94,9.84-.91,3.29-1.73,6.63-2.42,9.99-.78,3.85-1.7,7.62-2.79,11.28-1.09,3.66-2.12,7.4-3,11.17-.86,3.69-1.73,7.43-2.68,11.14-.95,3.71-1.91,7.42-2.89,11.13-.07.35-.17.79-.31,1.34-.14.55-.32,1.12-.53,1.69-.21.58-.42,1.12-.63,1.63s-.49.85-.74,1.05Z"/>
        <path class="cls-8" d="M469.15,300.71c-.55,0-1.21-.02-1.94-.12s-1.21-.44-1.42-1.02c-.21-.58-.4-1.58-.58-2.99-.18-1.42-.31-2.93-.42-4.56-.11-1.62-.21-3.15-.32-4.6-.1-1.44-.14-2.46-.16-3.01-.03-1.16-.23-3.33-.47-6.4-.25-3.07-.51-6.6-.79-10.58-.28-3.98-.6-8.2-.95-12.64-.35-4.44-.68-8.64-1-12.59-.32-3.95-.6-7.46-.84-10.53-.25-3.07-.44-5.2-.58-6.41,0-.35.02-.73.05-1.15.04-.42.23-.68.58-.79.21-.05.6-.14,1.16-.27.56-.13,1.14-.23,1.73-.32.59-.09,1.17-.16,1.73-.22.56-.05.95-.07,1.16-.05,2.1-.23,4.22-.34,6.36-.31,2.13.02,4.27.08,6.36.13,4.31.1,8.67.24,12.97.5s8.62.47,12.96.59c.49-.02,1.24.02,2.26.09,1.01.08,2.05.18,3.1.29,1.05.12,2.05.3,2.99.55.94.25,1.63.54,2.04.87.56.63.86,1.24.94,1.79.12.84.14,1.72,0,2.58-.14.86-.14,1.75-.1,2.56.02.54.05,1.32.16,2.28.1.96.16,1.93.16,2.91s-.04,1.92-.11,2.83c-.07.9-.26,1.55-.52,1.94-.21.31-.61.54-1.21.65-.59.11-1.24.14-1.94.09s-1.4-.11-2.1-.19c-.7-.08-1.26-.14-1.68-.19-.56-.06-1.54-.16-2.94-.27-1.4-.12-3.01-.26-4.83-.42s-3.74-.31-5.77-.46c-2.03-.14-3.96-.27-5.77-.39-1.82-.11-3.43-.22-4.83-.33-1.4-.1-2.38-.15-2.94-.13.14,2.33.32,4.65.53,6.99.21,2.33.38,4.66.52,6.99.56.05,1.07.05,1.52,0,.46-.06.98-.08,1.52-.11.75-.04,2.19-.08,4.25-.04,2.06.04,4.27.11,6.61.21,2.34.11,4.56.22,6.66.35,2.1.12,3.53.23,4.3.32.7.08,1.01.5.94,1.26-.07.76-.22,1.52-.31,2.17-.24,1.68-.19,3.62-.16,5.45.04,1.83.05,3.65.05,5.47,0,.35-.07.69-.21,1.03-.14.34-.44.53-.73.65-.2.08-.46.16-.74.13-.28-.03-.56-.06-.84-.09-.7-.08-2.1-.22-4.2-.41s-4.36-.4-6.77-.62-4.67-.41-6.77-.59c-2.1-.18-3.5-.26-4.2-.26.07,2.32.26,4.63.58,6.94.32,2.31.61,4.63.89,6.97,0,.14.14.22.42.25.77.08,2.38.2,4.83.38,2.45.18,5.06.36,7.82.55,2.76.19,5.37.37,7.82.53,2.45.17,4.06.3,4.83.38.49.06,1.05.1,1.68.14.63.04,1.22.1,1.78.2.56.1,1.05.3,1.47.59.42.29.66.7.73,1.19.06.42.1,1.24.1,2.43s-.02,2.43-.05,3.72c-.04,1.29-.07,2.51-.1,3.67-.04,1.15-.05,1.94-.05,2.36v1.16c0,.49-.04.99-.11,1.51-.07.52-.14,1-.21,1.45-.07.45-.21.76-.42.95-.42.44-1.1.55-1.89.52-.46-.02-.96-.02-1.42-.11-.46-.09-.93-.16-1.42-.21-.91-.1-2.45-.28-4.62-.52-2.17-.24-4.65-.53-7.45-.86-2.8-.33-5.74-.66-8.82-.97-3.08-.31-6.02-.59-8.82-.83-2.8-.24-5.29-.46-7.46-.66-2.17-.2-3.73-.33-4.62-.32Z"/>
        <path class="cls-8" d="M537.98,305.93c-2.1-.13-4.19-.27-6.29-.43-2.1-.16-4.26-.44-6.39-.73-.34-.05-.94-.11-1.78-.21-.84-.1-1.43-.35-1.78-.74-.35-.39-.52-.85-.52-1.38s.03-1.06.1-1.62c.49-5.83.91-11.62,1.26-17.4.35-5.77.59-11.59.73-17.46.14-5.66.3-11.26.47-16.81.17-5.55.4-11.11.68-16.68,0-.28.02-.8.05-1.57.04-.76.09-1.57.16-2.4.07-.83.14-1.61.21-2.34.07-.73.14-1.23.21-1.5.14-.47.42-.77.84-.9.42-.12.91-.17,1.47-.14.56.03,1.15.12,1.78.27.63.15,1.19.25,1.68.31,7.34,1.19,14.62,2.66,21.84,4.41,7.22,1.75,14.53,3.35,21.92,4.79.56.15,1.12.31,1.67.46.56.15,1.11.45,1.67.88.91.63,1.32,1.47,1.46,2.22.04.2.12.58.16,1.07.04.5.07,1.05.1,1.64.04.6.05,1.15.05,1.64v1.05c-.07,3.07-.09,6.1-.05,9.08.04,2.98.19,6,.47,9.06,0,.42.07,1.2.21,2.34.14,1.14.28,2.39.42,3.74.14,1.35.26,2.6.37,3.73.1,1.14.16,1.92.16,2.34,0,1.26-.4,2.22-1.2,2.87-.8.65-1.79,1.13-2.98,1.44-1.19.31-2.47.49-3.87.53-1.4.04-2.72.04-3.97,0,.35.61.93,1.7,1.73,3.25.8,1.55,1.71,3.35,2.72,5.39,1.01,2.04,2.09,4.21,3.24,6.52,1.15,2.31,2.25,4.49,3.29,6.54,1.04,2.05,1.95,3.87,2.72,5.45.77,1.59,1.34,2.7,1.67,3.3.28.52.57,1.07.89,1.61.31.54.4,1.09.26,1.62-.2.73-.85,1.11-1.93,1.12-1.08,0-2.02-.06-2.77-.16-1.42-.18-2.93-.39-4.39-.71-1.46-.32-2.97-.53-4.39-.7-.41-.05-1.05-.12-1.88-.17-.84-.05-1.71-.14-2.61-.27-.91-.13-1.76-.27-2.56-.42-.8-.15-1.38-.32-1.73-.51-.55-.29-1.1-.84-1.62-1.65-.52-.81-1.03-1.7-1.52-2.68s-.93-1.93-1.31-2.86c-.38-.93-.68-1.69-.89-2.28-1.12-2.61-2.16-5.2-3.14-7.79-.98-2.59-2.02-5.15-3.14-7.68-.14-.3-.35-.78-.63-1.45-.28-.67-.58-1.34-.89-2.01-.31-.67-.65-1.31-.99-1.92-.35-.61-.63-1.03-.84-1.27-.14-.09-.31-.16-.52-.23-.21-.06-.38-.14-.52-.23-.21-.03-.56-.09-1.05-.19-.49-.1-.8-.12-.94-.07.07,3.58.07,7.14,0,10.66-.07,3.53.04,7.1.31,10.71,0,.42.04.99.1,1.7.07.71.12,1.45.16,2.23.04.78.02,1.49-.05,2.15-.07.66-.25,1.14-.52,1.45-.28.31-.73.5-1.36.56-.63.06-1.33.05-2.09-.01-.77-.07-1.54-.16-2.31-.3-.77-.13-1.36-.23-1.78-.28ZM546.04,248.56c0,.42-.02,1.28-.05,2.57-.04,1.29-.07,2.67-.11,4.14-.04,1.47-.07,2.85-.1,4.14-.04,1.29-.05,2.15-.05,2.57.49.06,1.5.18,3.04.35,1.53.17,3.16.37,4.87.6,1.71.23,3.33.46,4.87.67,1.53.21,2.55.32,3.04.32,0-.42.02-1.22.05-2.41.04-1.19.05-2.46.05-3.83v-6.36c-.56-.15-1.57-.36-3.03-.63-1.46-.27-3.05-.54-4.76-.81-1.71-.27-3.32-.54-4.82-.81-1.5-.27-2.5-.44-2.98-.5Z"/>
      </g>
      <g>
        <path class="cls-30" d="M19.17,310.63c-.28.04-.72.16-1.31.35-.59.19-1.24.38-1.94.55-.7.17-1.34.34-1.94.5-.59.16-1.03.22-1.31.2-.56-.06-.98-.48-1.25-1.28s-.49-1.47-.63-2.01c-1.12-5.93-1.85-11.97-2.2-18.12-.35-6.15-.42-12.36-.21-18.64.21-6.27.61-12.57,1.2-18.91.59-6.33,1.24-12.64,1.93-18.91.14-.86.47-1.65.99-2.36.52-.71,1.24-1.06,2.14-1.06,8.16-.11,16.27-.08,24.34.08,8.07.16,16.23.18,24.48.06.56,0,.93.17,1.1.49.17.33.26.76.26,1.28s-.07,1.1-.21,1.71c-.14.61-.25,1.17-.31,1.67-.35,2.43-.68,4.85-1,7.28-.31,2.42-.65,4.85-1,7.28-.14.79-.63,1.2-1.47,1.24-.84.04-1.66.05-2.41-.01-.62-.05-1.7-.1-3.2-.12-1.5-.02-3.25-.05-5.24-.11-1.99-.05-4.07-.09-6.24-.12-2.17-.02-4.24-.04-6.23-.04-1.99,0-3.74,0-5.24,0-1.5,0-2.57.01-3.19.03-.7,6.27-1.15,12.52-1.36,18.76-.21,6.24-.24,12.43-.1,18.58.63-.09,1.82-.21,3.56-.35,1.74-.14,3.61-.31,5.6-.52,1.99-.21,3.86-.41,5.6-.61,1.74-.2,2.93-.34,3.56-.43.14-1.42.24-2.8.31-4.14.07-1.34.14-2.72.21-4.13-2.56.34-3.84.51-6.39.86-.56.08-1.21.16-1.94.27-.73.1-1.2-.1-1.41-.54-.19-.39-.3-1.2-.26-2.44.03-1.23.09-2.54.16-3.91.07-1.38.16-2.67.26-3.88.1-1.21.14-2.08.05-2.53-.05-.26-.07-.59,0-.95.07-.36.24-.62.42-.79.21-.2.56-.41,1.05-.51.49-.1,1-.19,1.52-.26.52-.07,1.03-.1,1.52-.1.49,0,.89-.03,1.15-.05.52-.04,1.76-.1,3.61-.28,1.85-.18,3.81-.36,5.87-.56,2.06-.2,4.02-.38,5.87-.54,1.85-.16,3.1-.33,3.62-.35.84-.04,1.8.07,2.67.14.87.07,1.21.58,1,1.51-.2.86-.44,2.3-.68,4.29-.25,1.99-.49,4.29-.73,6.88-.25,2.59-.51,5.31-.79,8.14-.28,2.84-.52,5.53-.73,8.08-.21,2.55-.38,4.84-.52,6.85-.14,2.01-.28,3.48-.31,4.3-.01.34-.09.77-.26,1.24-.18.48-.43.8-.68.98-.21.15-.65.29-1.31.38-.67.08-1.14.14-1.42.18-6.5.54-12.97,1.16-19.39,1.83-6.43.67-12.85,1.87-19.27,3.59Z"/>
        <path class="cls-30" d="M88.89,303.83c-.55.28-1.16.43-1.79.46-.63.03-1.27.06-1.89.05-.56,0-1.54-.02-2.94-.04-1.4-.02-2.9-.05-4.51-.11-1.61-.06-3.11-.11-4.51-.15-1.4-.04-2.36-.12-2.83-.19-.88-.12-1.8-.3-2.41-.66-.75-.44-1.19-1.3-1.15-2.17.03-.82.25-1.68.53-2.48.28-.8.59-1.61.94-2.43.21-.51.52-1.43.94-2.74.42-1.31.89-2.79,1.42-4.43.53-1.64,1.08-3.37,1.68-5.2.59-1.82,1.14-3.57,1.63-5.24.49-1.67.93-3.14,1.31-4.41.38-1.27.65-2.2.79-2.77.77-2.75,1.56-5.53,2.36-8.32.8-2.79,1.7-5.58,2.68-8.35.21-.66.66-2,1.36-4.05.7-2.04,1.42-4.21,2.15-6.5.73-2.29,1.43-4.46,2.1-6.49.66-2.03,1.11-3.39,1.31-4.04.29-.93.51-1.86.68-2.76.17-.89.25-1.9.37-2.83.04-.34.12-.7.16-1.02.04-.32.16-.6.37-.83.28-.31.59-.52.95-.63.35-.11.7-.22,1.05-.32,2.38-.4,4.74-.85,7.09-1.34,2.34-.49,4.77-.89,7.09-1.31,1.38-.25,2.77-.49,4.1-.62,1.33-.13,2.7-.34,4.1-.61.21-.02.6-.09,1.16-.22.56-.12,1.17-.23,1.84-.33.66-.1,1.28-.19,1.84-.28.56-.09.95-.14,1.16-.16.77-.07,1.3.05,1.58.38.21.19.42.52.63.99.21.47.4,1,.58,1.58.18.58.33,1.13.47,1.64.14.51.25.91.32,1.18.91,3.28,1.81,6.59,2.68,9.91.88,3.32,1.72,6.68,2.47,10.03.92,4.1,1.96,8.19,3.16,12.19,1.19,4,2.21,8.07,3.05,12.2.28,1.24.53,2.46.74,3.67.21,1.21.49,2.4.84,3.56.14.55.42,1.54.84,2.98.42,1.44.88,2.98,1.37,4.62.49,1.64.97,3.2,1.42,4.67.46,1.47.8,2.45,1,2.92.14.33.28.66.42.96.14.3.24.63.32.97.13.61-.1,1.1-.74,1.43-.63.33-1.31.62-2,.8-1.77.46-3.61.73-5.37.88-1.75.15-3.57.38-5.37.58-.41.04-1.14.15-2.16.35-1.02.2-2.09.42-3.21.66-1.12.24-2.19.48-3.21.72-1.02.24-1.73.39-2.05.51-.41.15-.82.22-1.21.11-.39-.1-.65-.32-.79-.66-.21-.68-.46-2.02-.74-4.03-.28-2.01-.54-4.14-.79-6.39-.25-2.25-.49-4.39-.74-6.4-.25-2.01-.4-3.4-.47-4.16-.56.05-1.75.19-3.57.4-1.82.22-3.75.43-5.78.64-2.03.21-3.96.43-5.78.65-1.82.23-3.01.37-3.57.43-.56,2.73-1,5.44-1.31,8.13-.31,2.7-.72,5.41-1.21,8.13-.14.79-.3,1.59-.47,2.42-.18.82-.47,1.61-.89,2.36-.14.29-.35.58-.63.86-.28.28-.6.51-.94.68ZM97.51,268.19c2.31-.24,4.64-.47,6.99-.67,2.35-.2,4.68-.49,6.99-.86-.28-2.22-.59-4.41-.95-6.59-.35-2.17-.69-4.39-.95-6.59-.15-1.3-.25-2.64-.32-3.97-.07-1.32-.11-2.69-.11-4.09-.21.09-.53.21-.95.36-.42.15-.88.28-1.37.4-.49.12-.95.24-1.37.35-.42.11-.73.18-.95.2-.35.04-.86.16-1.52.37-.67.21-1.1.46-1.31.66-.25.24-.47.8-.58,1.69-.11.89-.19,1.51-.26,1.87-.49,2.86-1.02,5.68-1.58,8.47-.56,2.79-1.16,5.59-1.79,8.39Z"/>
        <path class="cls-30" d="M220.37,291.73c-2.81.46-5.62.71-8.43.73-2.81.02-5.66.17-8.43.34-.35.02-.76.02-1.21,0-.46-.01-.74-.24-.9-.53-.11-.19-.21-.58-.21-1.15s.02-1.14.05-1.74c.03-.6.09-1.18.16-1.74.07-.56.09-1,.11-1.27.03-.81.19-2.29.37-4.33.18-2.04.35-4.35.53-6.92.18-2.57.35-5.29.53-8.18.18-2.88.33-5.63.47-8.23.14-2.6.26-4.9.37-6.91.1-2,.16-3.43.16-4.27-1.83,5.14-3.65,10.3-5.48,15.48-1.83,5.18-3.51,10.41-5.06,15.68-.21.85-.6,1.47-1.16,1.85-.35.23-.76.38-1.21.44-.46.06-.95.13-1.42.13-1.62.02-3.37.02-5.06.19-1.68.17-3.37.31-5.06.41-.49.03-.88-.05-1.16-.24-.49-.25-.88-.75-1.16-1.5-1.83-4.09-3.63-8.15-5.43-12.17-1.79-4.02-3.67-8.03-5.63-12.03.35,6.08.62,12.12.79,18.14.18,6.02.44,12.06.79,18.14.07.56-.07,1-.42,1.34-.35.34-.77.53-1.26.56-.56.04-1.65.15-3.26.33-1.61.18-3.35.36-5.21.53-1.86.17-3.6.32-5.21.44-1.61.12-2.7.21-3.26.25-.28.02-.56,0-.84-.09-.28-.08-.46-.27-.53-.54-.08-.34-.14-.95-.21-1.82-.07-.87-.12-1.8-.16-2.77-.04-.98-.07-1.92-.11-2.83-.04-.91-.05-1.54-.05-1.89v-3.47c0-1.75-.02-3.65-.05-5.68-.04-2.03-.05-3.94-.05-5.73s.02-2.99,0-3.52c-.03-.8-.14-2.37-.21-4.61-.07-2.24-.16-4.79-.26-7.66-.11-2.87-.21-5.93-.32-9.18-.11-3.25-.21-6.33-.32-9.23-.11-2.9-.19-5.45-.26-7.66-.07-2.2-.11-3.76-.11-4.67,0-.35.02-.84.05-1.48.04-.63.25-1.07.47-1.3.28-.3.82-.61,1.63-.71.81-.1,1.42-.16,1.84-.2,2.88-.22,5.72-.37,8.53-.44,2.81-.07,5.72-.06,8.53-.19.75-.03,1.37.15,1.79.61.28.33.56.84.84,1.52,2.46,5.58,4.9,11.19,7.32,16.82,2.42,5.63,5.11,11.13,8.06,16.49.21-.71.63-2,1.26-3.86.63-1.86,1.35-3.97,2.16-6.33.81-2.36,1.67-4.88,2.58-7.56.91-2.68,1.77-5.2,2.58-7.56.81-2.36,1.53-4.47,2.16-6.32.63-1.86,1.07-3.15,1.27-3.85.15-.55.35-1.28.63-2.14.28-.86.7-1.33,1.27-1.43,3.93-.76,7.83-1.39,11.7-1.89,3.86-.49,7.77-.89,11.7-1.18.28-.01.56,0,.84.02.28.02.49.14.63.34.21.27.3.8.26,1.57-.04.77-.05,1.33-.05,1.68-.14,1.41-.26,3.81-.37,7.22-.11,3.41-.21,7.3-.32,11.69-.11,4.39-.21,9.02-.32,13.9-.1,4.88-.19,9.51-.26,13.89-.07,4.39-.14,8.28-.21,11.68-.07,3.4-.11,5.81-.11,7.21,0,1.12.05,2.22.16,3.31.1,1.08.11,2.26-.05,3.42-.06.41-.16.85-.26,1.27-.11.43-.33.78-.69,1.08-.21.15-.49.23-.84.24Z"/>
        <path class="cls-30" d="M238.82,293.49c-.55.07-1.21.13-1.95.11s-1.21-.3-1.42-.85c-.21-.55-.4-1.53-.58-2.93-.18-1.4-.32-2.9-.42-4.51-.11-1.61-.21-3.13-.32-4.56-.11-1.43-.14-2.45-.16-2.99-.03-1.16-.23-3.31-.47-6.35-.25-3.04-.51-6.54-.79-10.49-.28-3.95-.6-8.13-.95-12.54-.35-4.4-.69-8.56-1-12.48-.32-3.91-.6-7.4-.84-10.44-.25-3.04-.44-5.16-.58-6.34,0-.35.02-.74.05-1.16.04-.42.23-.71.58-.86.21-.08.6-.21,1.16-.41.56-.19,1.14-.37,1.74-.53.6-.16,1.18-.3,1.74-.43.56-.12.95-.19,1.16-.2,2.11-.49,4.24-.85,6.38-1.09,2.14-.24,4.29-.44,6.38-.65,4.33-.43,8.7-.82,13.03-1.08,4.32-.26,8.67-.58,13.03-.99.49-.08,1.25-.14,2.27-.18,1.02-.05,2.06-.07,3.11-.08,1.06,0,2.06.05,3.01.19.95.13,1.64.34,2.06.62.56.56.87,1.13.95,1.68.12.83.14,1.7,0,2.58-.14.88-.14,1.77-.1,2.58.02.54.05,1.31.16,2.26.11.95.16,1.91.16,2.89s-.04,1.93-.11,2.84c-.07.91-.26,1.58-.53,2-.21.34-.62.62-1.21.8-.6.18-1.25.29-1.95.33-.7.04-1.41.06-2.11.07-.7,0-1.27.01-1.69.02-.56,0-1.55.03-2.95.08-1.41.05-3.03.1-4.85.17-1.83.06-3.76.14-5.8.25-2.04.1-3.98.21-5.8.32-1.83.11-3.45.19-4.85.26-1.41.07-2.39.14-2.95.23.14,2.31.32,4.62.53,6.93.21,2.31.39,4.62.53,6.93.56-.01,1.07-.08,1.53-.19.46-.12.98-.2,1.53-.3.76-.13,2.2-.34,4.27-.56,2.07-.22,4.29-.41,6.65-.59,2.35-.18,4.59-.33,6.7-.46s3.55-.2,4.33-.21c.7,0,1.02.38.95,1.15-.07.77-.22,1.55-.32,2.21-.24,1.71-.19,3.65-.16,5.47.04,1.82.05,3.65.05,5.47,0,.35-.07.7-.21,1.05-.14.35-.44.58-.74.74-.2.11-.46.21-.74.22-.28,0-.56,0-.84,0-.7,0-2.11.04-4.22.11s-4.38.13-6.8.21c-2.43.08-4.69.16-6.8.23-2.11.08-3.52.16-4.22.25.07,2.31.26,4.61.58,6.88.32,2.27.62,4.56.9,6.87,0,.14.14.21.42.2.77-.02,2.39-.09,4.85-.21,2.46-.12,5.08-.25,7.86-.4,2.78-.15,5.4-.29,7.86-.42,2.46-.13,4.08-.2,4.85-.21.49,0,1.06-.03,1.69-.07.63-.04,1.23-.04,1.79-.01.56.03,1.06.17,1.48.41.42.24.66.62.74,1.1.06.42.11,1.23.11,2.42s-.02,2.44-.05,3.73c-.04,1.3-.07,2.53-.11,3.68-.04,1.16-.05,1.95-.05,2.37v1.16c0,.49-.04,1-.1,1.52-.07.53-.14,1.02-.21,1.47-.07.46-.21.79-.42,1-.42.49-1.12.69-1.9.75-.46.04-.97.09-1.42.06-.46-.03-.93-.05-1.42-.04-.92,0-2.46.02-4.64.05-2.18.02-4.68.04-7.49.05-2.81,0-5.77.04-8.86.1-3.1.06-6.05.14-8.86.25-2.81.1-5.31.19-7.49.25-2.18.06-3.75.13-4.64.24Z"/>
        <path class="cls-30" d="M377.85,292.11c-.35.05-.97.06-1.85.03-.88-.04-1.83-.09-2.85-.17-1.02-.08-1.97-.15-2.85-.22-.88-.07-1.49-.11-1.85-.12-1.41-.19-2.83-.33-4.27-.42-1.44-.09-2.88-.24-4.27-.41-1.81-.22-3.68-.52-5.54-.96-1.86-.44-3.72-.77-5.54-.95-3.08-.31-6.17-.58-9.23-.86-3.06-.28-6.07-.83-9.02-1.65-.84-.23-1.69-.49-2.53-.78-.84-.29-1.55-.8-2.11-1.51-.21-.21-.37-.57-.47-1.06-.1-.49-.21-1.02-.32-1.58-.1-.56-.19-1.11-.26-1.63-.07-.53-.1-.93-.1-1.21-.35-4.21-.56-8.4-.63-12.58-.07-4.17-.1-8.36-.1-12.57v-10.52c-.14-3.23-.26-6.42-.37-9.58-.11-3.16-.02-6.41.05-9.57.02-.89.05-1.89.16-2.94.11-1.05.55-1.85,1.32-2.4.56-.4,1.53-.8,2.9-1.16,1.37-.36,2.83-.69,4.38-.98,1.55-.29,3.04-.5,4.48-.65,1.44-.14,2.51-.28,3.22-.4,4.08-.61,8.17-.91,12.29-.89,4.11.01,8.21-.18,12.29-.6.28-.06.86-.13,1.74-.2.88-.07,1.79-.16,2.74-.27.95-.1,1.86-.21,2.74-.31.88-.11,1.46-.15,1.74-.14.35.01.81.02,1.37,0,.56-.01,1.12.01,1.69.07.56.06,1.07.17,1.53.33.46.16.79.39,1,.67.27.36.49.99.63,1.87.14.88.25,1.82.32,2.8.07.98.12,1.94.16,2.85.04.91.05,1.58.05,2,0,.7.02,1.84.05,3.42.04,1.58.09,3.42.16,5.53.07,2.11.12,4.32.16,6.63.04,2.32.07,4.53.11,6.63s.07,3.97.11,5.58c.04,1.61.05,2.74.05,3.37,0,.56-.03,1.58-.1,3.05-.07,1.47-.14,3.15-.21,5.04-.07,1.89-.14,3.9-.21,6.04-.07,2.14-.14,4.15-.21,6.04-.07,1.89-.14,3.57-.21,5.04-.07,1.47-.11,2.49-.11,3.05,0,.77.02,1.65.05,2.63.04.98.02,1.95-.05,2.89-.07.94-.28,1.76-.63,2.44-.35.68-.88,1.12-1.58,1.3ZM344.31,270.36c.56.15,1.65.37,3.27.66,1.62.29,3.32.56,5.12.83,1.79.26,3.5.51,5.11.74,1.62.23,2.74.39,3.38.48-.14-.78-.23-1.5-.26-2.16-.04-.67-.16-1.38-.26-2.06-.09-.6-.16-1.69-.26-3.16-.11-1.48-.19-3.14-.26-5-.07-1.86-.14-3.85-.21-5.95-.07-2.11-.12-4.11-.16-6-.04-1.89-.07-3.58-.11-5.05-.04-1.47-.04-2.54-.05-3.16-.03-1.51-.09-3.07-.05-4.58.04-1.51.05-3.07.05-4.68,0-.14-.05-.16-.16-.06-.11.1-.23.15-.37.15-.49.05-1.48.18-2.95.38-1.48.2-3.06.42-4.75.65-1.69.23-3.27.45-4.75.66-1.48.21-2.86.29-2.95.4-.94,1.05-.02,8.38-.05,12.52-.04,4.14.02,8.31.16,12.52.07,2.04.12,4.02.16,5.95.04,1.93.16,3.91.37,5.95Z"/>
        <path class="cls-30" d="M436.96,297.34c-.21.17-.56.29-1.05.29-.49,0-1.02-.04-1.58-.12-.56-.08-1.11-.17-1.63-.27-.53-.11-.93-.17-1.21-.19-1.26-.23-2.53-.41-3.79-.53-1.26-.12-2.56-.3-3.9-.53-.35-.02-1.07-.12-2.16-.3-1.09-.18-2.25-.37-3.48-.59-1.23-.22-2.39-.41-3.48-.59-1.09-.17-1.81-.27-2.16-.29-.35-.02-.99-.09-1.9-.22-.91-.12-1.55-.35-1.9-.64-.27-.23-.44-.54-.47-.92-.04-.39-.09-.76-.16-1.11-1.19-4.28-2.37-8.52-3.53-12.72-1.16-4.2-2.55-8.35-4.16-12.43-.35-.86-.9-2.4-1.63-4.61-.74-2.21-1.56-4.75-2.48-7.6-.91-2.85-1.9-5.88-2.95-9.09s-2.04-6.24-2.95-9.09c-.91-2.85-1.74-5.38-2.48-7.59-.74-2.21-1.25-3.74-1.53-4.59-.07-.21-.18-.5-.32-.86-.14-.36-.28-.75-.42-1.18-.14-.43-.25-.82-.32-1.17-.07-.35-.11-.64-.11-.85.14-.55.4-1.02.79-1.38.39-.37.79-.65,1.21-.84.42-.19,1.21-.4,2.37-.62,1.16-.22,2.37-.41,3.64-.56,1.27-.15,2.48-.26,3.64-.34s1.98-.14,2.48-.18c.98-.09,1.99-.19,3-.31,1.02-.12,2.06-.14,3-.2.4-.02,1.05-.04,1.9,0,.84.05,1.44.22,1.79.52.49.45.77,1.01.84,1.68.07.67.18,1.32.32,1.96,1.69,8.3,3.25,16.57,4.69,24.79,1.44,8.22,3.14,16.46,5.11,24.73.14.43.26.91.37,1.44.1.53.37.92.79,1.16.56.39,1.16.55,1.79.49.63-.06,1.26-.07,1.9-.03,1.26-9.03,2.4-18,3.42-26.9,1.02-8.9,2.02-17.91,3-27.03.07-.63.46-.9,1.16-.81.7.09,1.4.19,2.11.31,1.47.25,2.93.46,4.37.64,1.44.18,2.94.33,4.37.54,1.37.21,2.79.5,4.16.75s2.75.5,4.16.75c.35.03.81.1,1.37.22.56.12,1.14.25,1.74.41.59.15,1.12.36,1.58.61.46.25.83.53,1,.82.15.26.17.65.11,1.06-.07.42-.21.86-.42,1.33-.21.47-.42.93-.63,1.37-.21.44-.35.8-.42,1.07-1.05,3.28-2.04,6.56-2.95,9.85-.91,3.29-1.73,6.64-2.42,10-.78,3.85-1.7,7.63-2.79,11.29-1.09,3.67-2.12,7.41-3,11.17-.86,3.69-1.74,7.44-2.69,11.15-.95,3.71-1.91,7.43-2.9,11.14-.07.35-.18.79-.32,1.34-.14.55-.32,1.12-.53,1.7-.21.58-.42,1.13-.63,1.64-.21.51-.49.86-.74,1.05Z"/>
        <path class="cls-30" d="M469.58,300.45c-.55,0-1.21-.02-1.95-.12s-1.21-.44-1.42-1.02c-.21-.58-.4-1.58-.58-3-.17-1.42-.32-2.94-.42-4.56-.11-1.62-.21-3.16-.32-4.6-.11-1.45-.14-2.47-.16-3.01-.03-1.16-.23-3.34-.47-6.41-.25-3.07-.51-6.6-.79-10.59-.28-3.98-.6-8.21-.95-12.65-.35-4.45-.68-8.65-1-12.6-.32-3.95-.6-7.47-.84-10.54-.25-3.07-.44-5.21-.58-6.41,0-.35.02-.73.05-1.15.04-.42.23-.68.58-.79.21-.05.6-.14,1.16-.27.56-.13,1.14-.23,1.74-.32.6-.09,1.18-.16,1.74-.21.56-.05.95-.07,1.16-.05,2.1-.23,4.22-.34,6.36-.31,2.14.02,4.27.08,6.36.13,4.32.1,8.67.24,12.98.51,4.31.27,8.63.47,12.97.6.49-.02,1.24.01,2.26.09,1.01.08,2.05.18,3.1.3s2.05.3,2.99.55c.94.25,1.63.54,2.05.87.56.63.86,1.24.94,1.79.12.84.14,1.72,0,2.58-.14.86-.14,1.75-.1,2.56.02.54.05,1.32.16,2.28.1.96.16,1.93.16,2.91s-.04,1.92-.11,2.83c-.07.9-.26,1.55-.52,1.94-.21.31-.61.54-1.21.65-.6.11-1.24.14-1.94.09-.7-.04-1.4-.11-2.1-.19-.7-.08-1.26-.14-1.68-.19-.56-.06-1.54-.16-2.94-.28-1.4-.12-3.01-.26-4.83-.43-1.82-.16-3.75-.31-5.78-.46-2.03-.14-3.96-.27-5.78-.39-1.82-.12-3.43-.22-4.83-.33-1.4-.1-2.38-.15-2.94-.13.14,2.33.31,4.66.53,6.99.21,2.33.38,4.67.53,6.99.56.06,1.07.05,1.52,0,.45-.06.98-.08,1.52-.11.75-.04,2.19-.08,4.26-.04,2.07.04,4.27.11,6.62.22,2.34.11,4.57.23,6.67.35s3.53.23,4.31.32c.7.08,1.01.5.94,1.26-.07.76-.22,1.52-.31,2.17-.24,1.69-.19,3.62-.16,5.45.04,1.83.05,3.65.05,5.48,0,.35-.07.69-.21,1.03-.14.34-.44.53-.74.65-.2.08-.46.16-.74.13-.28-.03-.56-.06-.84-.09-.7-.08-2.1-.22-4.2-.41s-4.36-.4-6.78-.62c-2.42-.22-4.67-.42-6.78-.59-2.1-.18-3.51-.26-4.21-.26.07,2.32.26,4.64.58,6.95.31,2.31.61,4.64.89,6.98,0,.14.14.22.42.25.77.08,2.38.2,4.83.39,2.45.18,5.06.37,7.83.56,2.77.19,5.37.37,7.83.54,2.45.17,4.06.3,4.83.39.49.06,1.05.1,1.68.14.63.04,1.23.11,1.78.21.56.1,1.05.3,1.47.59.42.29.66.7.73,1.19.06.42.1,1.24.1,2.43s-.02,2.44-.05,3.73c-.03,1.29-.07,2.52-.11,3.67-.04,1.15-.05,1.94-.05,2.36v1.16c0,.49-.03,1-.1,1.51-.07.52-.14,1-.21,1.45-.07.45-.21.76-.42.95-.42.44-1.1.55-1.89.52-.46-.02-.96-.02-1.42-.11-.46-.09-.93-.16-1.42-.21-.91-.1-2.45-.28-4.62-.52-2.17-.24-4.66-.53-7.46-.87-2.8-.34-5.74-.66-8.83-.98-3.08-.32-6.03-.59-8.83-.83-2.8-.24-5.29-.46-7.46-.66-2.17-.2-3.74-.33-4.63-.32Z"/>
        <path class="cls-30" d="M538.47,305.69c-2.1-.13-4.2-.27-6.29-.43-2.1-.16-4.26-.44-6.4-.74-.35-.05-.95-.11-1.78-.22-.84-.1-1.44-.35-1.78-.74-.35-.39-.53-.85-.53-1.38s.04-1.06.11-1.62c.49-5.83.91-11.63,1.26-17.41.35-5.78.59-11.6.73-17.48.14-5.66.3-11.27.47-16.82.17-5.55.4-11.12.68-16.69,0-.28.02-.8.05-1.57.03-.77.09-1.57.16-2.4.07-.83.14-1.61.21-2.34.07-.73.14-1.23.21-1.5.14-.47.42-.77.84-.9.42-.12.91-.17,1.47-.14.56.03,1.15.12,1.78.27.63.15,1.19.25,1.68.31,7.34,1.19,14.63,2.67,21.86,4.42,7.23,1.76,14.54,3.36,21.94,4.8.56.15,1.12.31,1.67.46.56.15,1.12.45,1.67.88.91.63,1.32,1.47,1.46,2.22.04.2.12.58.16,1.08.03.5.07,1.05.1,1.65.04.6.05,1.15.05,1.64v1.05c-.07,3.08-.09,6.11-.05,9.09.04,2.98.19,6.01.47,9.06,0,.42.07,1.2.21,2.35.14,1.14.28,2.39.42,3.74.14,1.35.26,2.6.37,3.74.1,1.14.16,1.92.16,2.34,0,1.26-.4,2.22-1.2,2.87-.8.65-1.8,1.13-2.98,1.45-1.19.31-2.48.49-3.87.53-1.4.04-2.72.04-3.98,0,.35.61.93,1.7,1.73,3.25.8,1.55,1.71,3.35,2.72,5.4,1.01,2.04,2.09,4.22,3.24,6.53,1.15,2.31,2.25,4.49,3.29,6.54,1.05,2.05,1.95,3.87,2.72,5.46.77,1.59,1.34,2.7,1.67,3.31.28.52.57,1.07.89,1.61.31.54.4,1.09.26,1.62-.2.73-.86,1.11-1.93,1.12-1.08,0-2.02-.06-2.77-.16-1.43-.18-2.93-.39-4.39-.71-1.46-.32-2.97-.53-4.39-.7-.41-.05-1.05-.12-1.88-.17-.84-.05-1.71-.14-2.62-.27-.91-.13-1.76-.27-2.57-.42-.8-.15-1.38-.32-1.73-.51-.55-.29-1.1-.84-1.62-1.65-.52-.81-1.03-1.71-1.52-2.69-.49-.98-.93-1.94-1.31-2.87-.38-.93-.68-1.69-.89-2.28-1.12-2.61-2.16-5.21-3.14-7.8-.98-2.59-2.03-5.15-3.14-7.69-.14-.3-.35-.78-.63-1.45-.28-.67-.58-1.34-.89-2.01-.31-.67-.65-1.31-1-1.92-.35-.61-.63-1.03-.84-1.27-.14-.09-.31-.16-.52-.23-.21-.06-.39-.14-.52-.23-.21-.03-.56-.09-1.05-.19-.49-.1-.8-.12-.94-.07.07,3.59.07,7.15,0,10.68-.07,3.53.03,7.1.31,10.72,0,.42.04.99.11,1.7.07.71.12,1.45.16,2.23.04.78.02,1.49-.05,2.15-.07.66-.25,1.14-.52,1.46-.28.31-.73.5-1.36.56-.63.06-1.33.05-2.1-.01-.77-.06-1.54-.17-2.31-.3-.77-.14-1.36-.23-1.78-.28ZM546.54,248.27c0,.42-.02,1.28-.05,2.57-.04,1.29-.07,2.67-.1,4.14-.04,1.47-.07,2.85-.1,4.14-.04,1.29-.05,2.15-.05,2.57.49.06,1.5.18,3.04.35,1.53.17,3.16.37,4.87.61,1.71.23,3.33.46,4.87.67,1.54.21,2.55.32,3.04.32,0-.42.02-1.23.05-2.41.04-1.19.05-2.46.05-3.83v-6.36c-.56-.15-1.57-.36-3.04-.64-1.47-.27-3.06-.55-4.77-.82-1.71-.27-3.32-.54-4.82-.81-1.5-.27-2.5-.44-2.99-.5Z"/>
      </g>
    </g>
    <g>
      <g>
        <g>
          <path class="cls-17" d="M203.76,166.4c-33.98-3.24-2.39,54.56,31.95,37.48l-31.95-37.48Z"/>
          <g class="cls-33">
            <path class="cls-14" d="M199.55,163.15c6.62,20.37,14.49,38.89,26.5,51.25l16.39-5.85-26.94-53.13-15.96,7.73Z"/>
          </g>
          <path class="cls-9" d="M203.76,166.4c-33.98-3.24-2.39,54.56,31.95,37.48l-31.95-37.48Z"/>
        </g>
        <g>
          <path class="cls-17" d="M403.87,120.82c29.35-17.44,25.46,48.31-12.89,47.53l12.89-47.53Z"/>
          <g class="cls-22">
            <path class="cls-14" d="M406.54,116.61c3.42,22.4,2.86,43.56-6.91,61.83l-17.97-3.66,14.5-52.91,10.39-5.26Z"/>
          </g>
          <path class="cls-9" d="M403.87,120.82c29.35-17.44,25.46,48.31-12.89,47.53l12.89-47.53Z"/>
        </g>
        <g>
          <path class="cls-16" d="M374.9,184.83c3.98,19.78,21.87,10.76,43.39,19.44-16.05-11.27-2.87-31.53-31.74-36.32l-11.66,16.87Z"/>
          <g class="cls-25">
            <path class="cls-31" d="M407.62,165.58c-13.66,8.95-18.85,21.96-16,38.83l-28.88-10.2,22.96-35.21,21.93,6.58Z"/>
          </g>
        </g>
        <g>
          <path class="cls-16" d="M236.02,200.4c3.25,12.63,2.55,26.07-2.07,40.31,10.91-3.4,18.69-12.8,25-25.04l-22.92-15.27Z"/>
          <g class="cls-23">
            <path class="cls-31" d="M229.11,204.6c14.6,10.62,25.84,21.03,29.89,31l10.53-25.84-30.99-20.36-9.43,15.2Z"/>
          </g>
        </g>
        <g>
          <path class="cls-17" d="M407.09,93.99c.58,66-28.49,117.21-86.33,129.01-57.83,11.79-116.29-25.97-129.35-82.63-11.78-51.1,14.64-108.54,83.68-124.5,57.51-13.29,131.56,28.14,132,78.12Z"/>
          <g class="cls-24">
            <path class="cls-14" d="M203.18,169.94c29.54-25.86,60.33-48.61,93.35-65.79l40.51,26.72c9.99,6.59,21.64,10.18,33.6,10.36l45.36.67-.59-18.48-115.63-38.96-110.15,73.21,13.55,12.27Z"/>
            <path class="cls-10" d="M385.99,132.95c3.05,15.02,1.82,33.03-.46,50.67,9.73-13.67,18.21-29.6,21.75-45.29l-21.3-5.38Z"/>
            <path class="cls-10" d="M216.21,151.6c.27,21.32,6.89,42.73,19.98,57.88-14.65-10.99-29.14-25.02-39.07-40.89l19.09-16.98Z"/>
            <path class="cls-10" d="M320.01,180.71c.43-3.97,10.35-8.5,16.28-4.58,10.52,6.95,20.15,11.54,26.02,1.47-8.53,18.28-41.9,21.24-42.31,3.11Z"/>
            <path class="cls-10" d="M318.91,182.01c-2.05-3.43-12.95-3.4-16.71,2.64-6.65,10.71-13.48,18.9-23.03,12.21,15.39,13.05,46.94,1.78,39.73-14.86Z"/>
            <g>
              <path class="cls-12" d="M244.78,148.52c8.31,12.19,29.06,4.9,26.65-10.65-9.82-3.35-18.46,2.04-26.65,10.65Z"/>
              <path class="cls-13" d="M270.96,128.77l.73,14.23c-4.26,0-4.88-3.41-8.24-2.29-10.31,3.45-21.33,12.7-24.85,22.29.06-7.89,2.55-16.86,7.21-26.81,1.24-2.64,3.91-4.43,6.89-4.52,5.77-.19,12.54-4.27,18.25-2.9Z"/>
            </g>
            <g>
              <path class="cls-12" d="M328.46,130.73c8.31,12.19,28.24,4.21,25.83-11.33-9.82-3.35-17.63,2.73-25.83,11.33Z"/>
              <path class="cls-13" d="M321.59,121.1l8.25,11.61c3.34-2.64,1.71-5.7,5.04-6.9,10.23-3.69,24.61-3.26,33.32,2.08-4.94-6.15-12.46-11.65-22.28-16.56-2.61-1.3-5.81-1.04-8.21.73-4.64,3.43-12.49,4.43-16.11,9.05Z"/>
            </g>
            <g>
              <ellipse class="cls-14" cx="356.7" cy="152.66" rx="22.85" ry="24.3" transform="translate(7.75 322.28) rotate(-49.09)"/>
              <g>
                <ellipse class="cls-21" cx="354.18" cy="150.47" rx="22.85" ry="24.3" transform="translate(8.53 319.62) rotate(-49.09)"/>
                <g class="cls-29">
                  <path class="cls-32" d="M335.09,165.01l28.93-4.63,14.18-27.24c20.71,27.49-22.4,59.36-43.11,31.88Z"/>
                  <g>
                    <rect class="cls-4" x="351.7" y="128.82" width="5.77" height="22.32" rx="1.5" ry="1.5" transform="translate(699.74 -21.86) rotate(133.34)"/>
                    <rect class="cls-4" x="351.7" y="128.82" width="5.77" height="22.32" rx="1.5" ry="1.5" transform="translate(270.08 -231.75) rotate(55.65)"/>
                  </g>
                </g>
                <ellipse class="cls-7" cx="354.18" cy="150.47" rx="22.85" ry="24.3" transform="translate(8.53 319.62) rotate(-49.09)"/>
              </g>
            </g>
            <g>
              <ellipse class="cls-14" cx="266.77" cy="173.28" rx="24.3" ry="22.85" transform="translate(44.35 400.71) rotate(-78.64)"/>
              <g>
                <ellipse class="cls-21" cx="267.03" cy="170.38" rx="24.3" ry="22.25" transform="translate(-22.2 299.55) rotate(-56.6)"/>
                <g class="cls-27">
                  <path class="cls-32" d="M243.92,175.86l16.93,11.23,32.9-17.12c3.43,34.88-46.4,40.76-49.83,5.88Z"/>
                  <g>
                    <rect class="cls-4" x="256.28" y="150.16" width="5.77" height="22.32" rx="1.5" ry="1.5" transform="translate(454.1 -73.61) rotate(97.78)"/>
                    <rect class="cls-4" x="256.28" y="150.16" width="5.77" height="22.32" rx="1.5" ry="1.5" transform="translate(71.22 -79.24) rotate(20.1)"/>
                  </g>
                </g>
                <ellipse class="cls-7" cx="267.03" cy="170.38" rx="24.3" ry="22.25" transform="translate(-22.2 299.55) rotate(-56.6)"/>
              </g>
            </g>
            <g>
              <path class="cls-15" d="M309.57,217.49c2.16-27.33,27.07-32.45,36.64-6.05-14.08-7.98-28.59-2.76-36.64,6.05Z"/>
              <g class="cls-26">
                <path class="cls-32" d="M345.03,193.96c.11-3.01-8.85-3.77-20-1.71-11.15,2.07-20.27,6.18-20.38,9.19-.11,3.01,8.85,3.77,20,1.71,11.15-2.07,20.27-6.18,20.38-9.19Z"/>
              </g>
            </g>
            <ellipse class="cls-20" cx="204.22" cy="75.33" rx="25.58" ry="21.94" transform="translate(-10.93 42.33) rotate(-11.53)"/>
            <path class="cls-20" d="M192.22,56.4c46.97-81.31,182.54-74.59,224.28,19.4l-224.28-19.4Z"/>
            <path class="cls-2" d="M287.64,97.42c27.36,5.39,44.65,26.95,66.01,33.28,15.81,4.68,30.42,4.76,50.74,8.32l1.06-6.69c-25.45-17.17-78.52-29.22-117.81-34.91Z"/>
            <path class="cls-19" d="M231.68,28.61c80.6-38.17,141.43-18.8,177.76,43.97-44.95-32.46-114.5-56.44-177.76-43.97Z"/>
          </g>
          <path class="cls-9" d="M407.09,93.99c.58,66-28.49,117.21-86.33,129.01-57.83,11.79-116.29-25.97-129.35-82.63-11.78-51.1,14.64-108.54,83.68-124.5,57.51-13.29,131.56,28.14,132,78.12Z"/>
        </g>
        <g>
          <path class="cls-20" d="M213.88,86.11c-16.16-2.91-25.5-.35-27,9.2-5.94,31.32,2.42,54.54,16.3,74.63,20.15-28.83,49.81-48.19,95.64-73.05l-84.94-10.78Z"/>
          <g class="cls-28">
            <path class="cls-2" d="M194.4,162.97c22.57-24.92,55.1-48.32,92.15-71.02l22.35,6.71-105.95,78.59-8.54-14.27Z"/>
            <path class="cls-14" d="M179.09,110.43c33.72-15.14,76.54-5.68,130.62-7.8.09-14.36-59.71-21.3-119.16-28.29l-11.46,36.09Z"/>
          </g>
          <path class="cls-11" d="M213.88,86.11c-16.16-2.91-25.5-.35-27,9.2-5.94,31.32,2.42,54.54,16.3,74.63,20.15-28.83,49.81-48.19,95.64-73.05l-84.94-10.78Z"/>
        </g>
        <path class="cls-34" d="M407.79,91.32l-1.59.07c-.81-18.11-11.89-36.2-31.21-50.94-28.48-21.73-67.62-31.08-99.72-23.8-40.21,9.11-69.71,34.3-80.95,69.11l-.17.77-1.56-.35.2-.88c5.36-16.63,15.1-31.63,28.16-43.37,14.42-12.96,32.57-21.99,53.96-26.84,32.53-7.37,72.19,2.08,101.04,24.09,19.71,15.03,31.01,33.55,31.84,52.14Z"/>
        <path class="cls-18" d="M298.08,59.29c39.16.6,49.11-17.31,96.17-2.72,10.65,11.23,15.12,30.22,12.74,34.78-35.12-2.38-71.73-15.21-108.91-32.06Z"/>
        <path class="cls-4" d="M202.62,61.15c3.16,4.38-9.99,10.28-9.46,16.21,35.28,27.86,80.8.45,209.97,58.01,5.8-13.79,8.99-27.73,3.87-44.01-34.54-24.24-79.54-27.59-116.93-34.87-35.36.59-65.45-9.89-79.66-4.56-4.04,2.87-6.92,5.91-7.79,9.23Z"/>
      </g>
      <path class="cls-15" d="M328.2,208.67c8.23,3.11,9.7,10.73,14.94,14.11,1.44.93,3.39.32,3.99-1.28,3.56-9.53.91-16.97-12.01-24.36-3.96.93-5.59,4.82-7.72,9.6-.34.76.02,1.65.8,1.94Z"/>
    </g>
  </g>
</svg>