<?xml version="1.0" encoding="UTF-8"?>
<svg id="Layer_2" data-name="Layer 2" xmlns="http://www.w3.org/2000/svg" xmlns:xlink="http://www.w3.org/1999/xlink" viewBox="0 0 283.78 450.94">
  <defs>
    <style>
      .cls-1, .cls-2, .cls-3, .cls-4, .cls-5, .cls-6, .cls-7, .cls-8, .cls-9, .cls-10 {
        fill: none;
      }

      .cls-1, .cls-11, .cls-3, .cls-12, .cls-13, .cls-14, .cls-4, .cls-5, .cls-6, .cls-7, .cls-15, .cls-8, .cls-16, .cls-17, .cls-18, .cls-19, .cls-20, .cls-9, .cls-10, .cls-21 {
        stroke-miterlimit: 10;
      }

      .cls-1, .cls-14 {
        stroke-width: 1.8px;
      }

      .cls-1, .cls-14, .cls-15 {
        stroke: #c6c6c6;
      }

      .cls-11, .cls-9, .cls-10, .cls-21 {
        stroke: #c1859b;
      }

      .cls-11, .cls-10 {
        stroke-width: 2.34px;
      }

      .cls-11, .cls-21, .cls-22 {
        fill: #d48ca0;
      }

      .cls-23, .cls-18, .cls-19, .cls-20 {
        fill: #fffdf5;
      }

      .cls-3, .cls-12, .cls-13, .cls-4, .cls-5, .cls-16 {
        stroke: #33271d;
      }

      .cls-3, .cls-16, .cls-17, .cls-9, .cls-21 {
        stroke-width: 1.83px;
      }

      .cls-24 {
        opacity: .75;
      }

      .cls-24, .cls-25 {
        fill: #281e16;
      }

      .cls-26 {
        fill: #ede8d6;
      }

      .cls-12, .cls-13, .cls-16, .cls-27, .cls-17 {
        fill: #3e3023;
      }

      .cls-12, .cls-5 {
        stroke-width: 1.67px;
      }

      .cls-13, .cls-4 {
        stroke-width: 1.69px;
      }

      .cls-28 {
        fill: #a3697b;
      }

      .cls-14, .cls-15, .cls-29 {
        fill: #f9f9f9;
      }

      .cls-6 {
        stroke-width: 1.73px;
      }

      .cls-6, .cls-7, .cls-18, .cls-19, .cls-20 {
        stroke: #ede8d6;
      }

      .cls-7, .cls-18 {
        stroke-width: 1.12px;
      }

      .cls-15 {
        stroke-width: 1.68px;
      }

      .cls-30 {
        clip-path: url(#clippath-10);
      }

      .cls-31 {
        clip-path: url(#clippath-15);
      }

      .cls-32 {
        clip-path: url(#clippath-13);
      }

      .cls-33 {
        clip-path: url(#clippath-14);
      }

      .cls-34 {
        clip-path: url(#clippath-1);
      }

      .cls-35 {
        clip-path: url(#clippath-3);
      }

      .cls-36 {
        clip-path: url(#clippath-4);
      }

      .cls-37 {
        clip-path: url(#clippath-2);
      }

      .cls-38 {
        clip-path: url(#clippath-7);
      }

      .cls-39 {
        clip-path: url(#clippath-6);
      }

      .cls-40 {
        clip-path: url(#clippath-9);
      }

      .cls-41 {
        clip-path: url(#clippath-8);
      }

      .cls-42 {
        clip-path: url(#clippath-5);
      }

      .cls-8 {
        stroke: #a3697b;
        stroke-width: 1.8px;
      }

      .cls-43 {
        fill: #4c392a;
      }

      .cls-44 {
        fill: #191918;
      }

      .cls-17 {
        stroke: #2d221a;
      }

      .cls-45 {
        opacity: .2;
      }

      .cls-45, .cls-46 {
        fill: #20164c;
      }

      .cls-46 {
        opacity: .3;
      }

      .cls-19 {
        stroke-width: 1.78px;
      }

      .cls-20 {
        stroke-width: 1.39px;
      }

      .cls-47 {
        fill: #f3eeff;
        opacity: .15;
      }

      .cls-48 {
        fill: #0c0812;
      }

      .cls-49 {
        fill: #b33c33;
      }

      .cls-50 {
        fill: #e5ddc3;
      }

      .cls-51 {
        clip-path: url(#clippath);
      }
    </style>
    <clipPath id="clippath">
      <path class="cls-21" d="M89.08,394.64c-14.77-2.74-28.86-4.45-38.03,1.33,7.34,6.16,12.48,5.08,15.99,6.26,13.55,2.17,19.37-1.51,22.04-7.59Z"/>
    </clipPath>
    <clipPath id="clippath-1">
      <path class="cls-21" d="M129.92,372.21c-10.34,16.69,4.15,23.06,2.44,27.7,0,9.34-11.38,12.49-32.81,11.76-2.2-.07-4.65-1.04-6.84-1.41-2.1-.36-4.21-.64-6.32-.85-3.55-.35-7.12-.47-10.68-.43-5.66.06-11.37.63-17-.12-2.73-.36-6.43-.89-8.73-2.44,5.16-4.31,11.08-6.92,17.61-8.4,6.92-1.57,14.7-.06,20.2-5.04,1.45-1.31,2.92-2.65,3.93-4.31,2.2-3.62,2.48-8.43,2.08-12.55-.12-1.24-1.31-12.41-1.85-12.54,0,0,37.98,8.62,37.98,8.62Z"/>
    </clipPath>
    <clipPath id="clippath-2">
      <path class="cls-11" d="M151.6,413.21c-19.25.1-37.41,1.34-47.56,10.81,10.72,5.99,16.93,3.4,21.64,4.04,17.59-.52,24.03-6.56,25.92-14.85Z"/>
    </clipPath>
    <clipPath id="clippath-3">
      <path class="cls-11" d="M197.63,375.15c-9.01,23.51,10.76,28.04,9.73,34.29,2.23,11.76-11.33,18.47-38.49,22.7-2.79.43-6.1-.19-8.95-.13-2.73.06-5.45.2-8.16.45-4.55.41-9.07,1.12-13.55,2.03-7.11,1.44-14.16,3.52-21.44,3.94-3.53.2-8.31.43-11.59-.98,5.46-6.67,12.29-11.37,20.15-14.81,8.33-3.64,18.5-3.6,24.23-11.2,1.51-2,3.04-4.03,3.91-6.38,1.9-5.09,1.1-11.21-.4-16.3-.45-1.53-4.63-15.32-5.35-15.34,0,0,49.9,1.73,49.9,1.73Z"/>
    </clipPath>
    <clipPath id="clippath-4">
      <path class="cls-13" d="M225.21,354.47c-4.59,14.08-8.91,29.87-18.61,34.08-9.7,4.21-24.78-3.18-35.77-.31-18,4.69-33.89,18.38-51.44,12.07-7.97-2.87-25.11-14.09-30.76-17.9-2.99-1.27-12.44-10.56-21.84-6.04-9.4,4.52-2.68-7.46-5-9.35-40.18-32.7,31.5-87.2,26.14-121.45l106.79-62.62c17.03,45.95,28.07,84.84,31.23,114.44,4.69,24.17,3.9,42.85-.74,57.09"/>
    </clipPath>
    <clipPath id="clippath-5">
      <path class="cls-18" d="M95.29,301.35c1.87-5.28-2.96-8.88-6.41-13.04-.78-.95,1.13-1.92,2.24-1.39,10.18,4.85,20.08,9.45,28.27,14.32-7.36,1.78-15.44,1.71-24.11.12Z"/>
    </clipPath>
    <clipPath id="clippath-6">
      <path class="cls-12" d="M135.49,298.35c-11.18,1.77-13.2-1.39-37.55.55-4.37.35-8.06,3.29-9.89,7.2-2.91,6.24-7.24,15.29-11.47,22.66,5.84-4.7,11.75-9.39,14.19-14.08,8.34.46,16.8-.85,25.36-3.71-14.3,8.63-26.57,17.25-33.24,28.03,9.2-2.88,16.8-11.69,25.53-12.94-15.91,9.56-12.45,20.33-25.73,38.3,12.78-8.62,16.71-22.41,27.07-27.77,4.22-3.5,9.8-6.22,16.06-8.52,10.77-3.96,7.76,11.54,10.27,22.8.23,1.03-.67-21.17,10.63-29.51,4.65-3.43,26.83-11.86,18.67-7.64-6.09,3.16-3.33,32.57.13,23.83,17.12-43.14,4.08-4.2,6.05-6.66,7.05-8.79,13.26-20.09,16.25-28.74,1.1-3.18,1.45-6.57-.55-9.33-14.03-19.45.96-50.06-19.3-56.72-4.52-2.54-31.67,8.24-29.5,2.59-13.8,27.48-.92,34.7,9.02,52.48,2.65,4.31-1.52,5.79-12.03,7.18Z"/>
    </clipPath>
    <clipPath id="clippath-7">
      <path class="cls-18" d="M108.19,294.45c-12.63,4.95-10.75,13.16-9.91,22.95l-26.95,18.89,13.13-29.94,13.23-14.76,10.49,2.86Z"/>
    </clipPath>
    <clipPath id="clippath-8">
      <path class="cls-18" d="M100.75,316.83c-2.31,7.11-4.64,13.53-1.99,15.49-4.71,5.04-15.51,11.36-24.96,15.16,5.7-11.55,15.9-22.41,26.95-30.65Z"/>
    </clipPath>
    <clipPath id="clippath-9">
      <path class="cls-18" d="M98.04,333.05c1.7,4.54,4.96,7.46,10.21,8.31-.08,16.59-14.5,24.55-31.88,30.73,5.93-16.58,12.38-31.72,21.67-39.04Z"/>
    </clipPath>
    <clipPath id="clippath-10">
      <path class="cls-16" d="M46.17,87.45C27.52,51.73,96.3,4.18,142.49,13.35c19.16-8.86,70.09-2.31,95.39,19.09,25.29,21.4,37.86,67.02,26.51,111.47,1.73,8.01-11.1,13.17-4.99,29.65,1.93,5.2,3.22,10.64,3.22,16.19-.02,65.22-31.6,100.83-47.65,142.45,7.67-37.75,20.24-71.14,8.79-111.63,2.72,22.93,2.06,53.94-5.65,66.18.04-15.35-5.64-47.85-14.59-71.85-9.44,17.99,6.59,50.54-9.41,66.92,0-21.41,1.38-50.27-7.48-76.64,7.54,30.37-5.87,64.97-23.85,100.48,7.19-34.48,20.76-54.64,9.2-81.32-3.43,31.94-13.95,55.51-29.91,72.69,25.51-80.38-81.65-66.7-95.91-209.58Z"/>
    </clipPath>
    <clipPath id="clippath-13">
      <path class="cls-2" d="M46.17,87.45c.07-4.37,2.04-13.18,3.61-17.15.45-1.14,5.82-12.99,7.04-12.67,7.4,1.91,2.75,6.33,11.54,12.75,19.44-17.16,36.41-16.69,17.39,4.55,19.17-2.4,51.43-24.4,59.84-20.85.82.35.82,1.95,0,2.29-3.27,1.34-7.79,10.24-8.59,11.7,11.4.18,41.22,6.88,49.8,15.94,2.44,2.58,26.7,27.8,27.35,31.25,18.21,65.79,25.94,95.37-56.27,139.73-121.85,25.61-118.73-70.27-111.7-167.52Z"/>
    </clipPath>
    <clipPath id="clippath-14">
      <path class="cls-49" d="M31.11,209.13c20.99,3.13,38.85,7.52,61.33-.54,1.82,8.82,2.4,17.05,1.51,24.57-15.43,7.83-53.62,11.21-66.03,4.51-2.56-7.38,4.16-19.05,3.19-28.54Z"/>
    </clipPath>
    <clipPath id="clippath-15">
      <ellipse class="cls-14" cx="111.18" cy="162.79" rx="35.82" ry="35.3"/>
    </clipPath>
  </defs>
  <g id="mini-mini">
    <g>
      <g>
        <g>
          <path class="cls-22" d="M89.08,394.64c-14.77-2.74-28.86-4.45-38.03,1.33,7.34,6.16,12.48,5.08,15.99,6.26,13.55,2.17,19.37-1.51,22.04-7.59Z"/>
          <g class="cls-51">
            <path class="cls-20" d="M76.38,388.7c-6.61,4.66-9.69,11.91-12.1,19.65l-21.58-13c7.26-7.94,19.55-8.62,33.68-6.65Z"/>
          </g>
          <path class="cls-9" d="M89.08,394.64c-14.77-2.74-28.86-4.45-38.03,1.33,7.34,6.16,12.48,5.08,15.99,6.26,13.55,2.17,19.37-1.51,22.04-7.59Z"/>
        </g>
        <g>
          <path class="cls-22" d="M129.92,372.21c-10.34,16.69,4.15,23.06,2.44,27.7,0,9.34-11.38,12.49-32.81,11.76-2.2-.07-4.65-1.04-6.84-1.41-2.1-.36-4.21-.64-6.32-.85-3.55-.35-7.12-.47-10.68-.43-5.66.06-11.37.63-17-.12-2.73-.36-6.43-.89-8.73-2.44,5.16-4.31,11.08-6.92,17.61-8.4,6.92-1.57,14.7-.06,20.2-5.04,1.45-1.31,2.92-2.65,3.93-4.31,2.2-3.62,2.48-8.43,2.08-12.55-.12-1.24-1.31-12.41-1.85-12.54,0,0,37.98,8.62,37.98,8.62Z"/>
          <g class="cls-34">
            <path class="cls-45" d="M140.29,402.93c-22.47-17.24-39.22-20.89-61.92-16.07l2.83-43.63,62.52,21.43-3.44,38.26Z"/>
            <path class="cls-20" d="M79.9,411.92c-6.72-7.44-8.64-14.58-8.01-21.57l-32.74,10.29,11.68,15.86,29.06-4.58Z"/>
          </g>
          <path class="cls-9" d="M129.92,372.21c-10.34,16.69,4.15,23.06,2.44,27.7,0,9.34-11.38,12.49-32.81,11.76-2.2-.07-4.65-1.04-6.84-1.41-2.1-.36-4.21-.64-6.32-.85-3.55-.35-7.12-.47-10.68-.43-5.66.06-11.37.63-17-.12-2.73-.36-6.43-.89-8.73-2.44,5.16-4.31,11.08-6.92,17.61-8.4,6.92-1.57,14.7-.06,20.2-5.04,1.45-1.31,2.92-2.65,3.93-4.31,2.2-3.62,2.48-8.43,2.08-12.55-.12-1.24-1.31-12.41-1.85-12.54,0,0,37.98,8.62,37.98,8.62Z"/>
        </g>
      </g>
      <g>
        <g>
          <path class="cls-22" d="M151.6,413.21c-19.25.1-37.41,1.34-47.56,10.81,10.72,5.99,16.93,3.4,21.64,4.04,17.59-.52,24.03-6.56,25.92-14.85Z"/>
          <g class="cls-37">
            <path class="cls-19" d="M134.17,408.78c-7.21,7.46-9.34,17.33-10.52,27.65l-30.29-11.18c7.24-11.74,22.54-15.56,40.81-16.47Z"/>
          </g>
          <path class="cls-10" d="M151.6,413.21c-19.25.1-37.41,1.34-47.56,10.81,10.72,5.99,16.93,3.4,21.64,4.04,17.59-.52,24.03-6.56,25.92-14.85Z"/>
        </g>
        <g>
          <path class="cls-22" d="M197.63,375.15c-9.01,23.51,10.76,28.04,9.73,34.29,2.23,11.76-11.33,18.47-38.49,22.7-2.79.43-6.1-.19-8.95-.13-2.73.06-5.45.2-8.16.45-4.55.41-9.07,1.12-13.55,2.03-7.11,1.44-14.16,3.52-21.44,3.94-3.53.2-8.31.43-11.59-.98,5.46-6.67,12.29-11.37,20.15-14.81,8.33-3.64,18.5-3.6,24.23-11.2,1.51-2,3.04-4.03,3.91-6.38,1.9-5.09,1.1-11.21-.4-16.3-.45-1.53-4.63-15.32-5.35-15.34,0,0,49.9,1.73,49.9,1.73Z"/>
          <g class="cls-35">
            <path class="cls-45" d="M218.06,411.34c-32.43-16.31-54.41-16.88-81.83-5.36l-6.91-55.61,83.88,11.97,4.87,49Z"/>
            <path class="cls-19" d="M144.19,437.17c-10.25-7.75-14.39-16.29-15.27-25.24l-38.75,20.82,18.52,17.16,35.5-12.75Z"/>
          </g>
          <path class="cls-10" d="M197.63,375.15c-9.01,23.51,10.76,28.04,9.73,34.29,2.23,11.76-11.33,18.47-38.49,22.7-2.79.43-6.1-.19-8.95-.13-2.73.06-5.45.2-8.16.45-4.55.41-9.07,1.12-13.55,2.03-7.11,1.44-14.16,3.52-21.44,3.94-3.53.2-8.31.43-11.59-.98,5.46-6.67,12.29-11.37,20.15-14.81,8.33-3.64,18.5-3.6,24.23-11.2,1.51-2,3.04-4.03,3.91-6.38,1.9-5.09,1.1-11.21-.4-16.3-.45-1.53-4.63-15.32-5.35-15.34,0,0,49.9,1.73,49.9,1.73Z"/>
        </g>
      </g>
      <g>
        <path class="cls-27" d="M225.21,354.47c-4.59,14.08-8.91,29.87-18.61,34.08-9.7,4.21-24.78-3.18-35.77-.31-18,4.69-33.89,18.38-51.44,12.07-7.97-2.87-25.11-14.09-30.76-17.9-2.99-1.27-12.44-10.56-21.84-6.04-9.4,4.52-2.68-7.46-5-9.35-40.18-32.7,31.5-87.2,26.14-121.45l106.79-62.62c17.03,45.95,28.07,84.84,31.23,114.44,4.69,24.17,3.9,42.85-.74,57.09"/>
        <g class="cls-36">
          <path class="cls-43" d="M222.48,214.62c-36.72,30.93-53.11,68.32-60.62,108.54-1.99,27.07,53.08,103.99,56.16,77.23,5.15-44.61,48.23-129.18,4.46-185.77Z"/>
          <path class="cls-43" d="M69.39,213.33c36.72,30.93,53.11,68.32,60.62,108.54,1.99,27.07-101.98,99.05-105.07,72.29-5.15-44.61.67-124.24,44.44-180.83Z"/>
          <path class="cls-27" d="M191.9,262.82c3.82,39.76-.76,76.58-17,109.31,12.8-35.4,17.94-71.8,17-109.31Z"/>
          <path class="cls-27" d="M220.62,327.89c1.68,16.16-15.06,44.78-33.23,50.83,11.22-4.61,33.81-31.16,33.23-50.83Z"/>
          <path class="cls-27" d="M202.62,276.92c9.33,19.26,4.22,66.33-12.91,85.92,10.18-13.2,22.66-61.52,12.91-85.92Z"/>
          <path class="cls-27" d="M200.42,357.44c-9.23,7.43-15.87,15.97-21.24,25.04l21.24-25.04Z"/>
          <path class="cls-27" d="M232.07,328.43c-4.1,25.32-14.48,43.19-34.59,49.47,17.73-7.92,28.34-25.69,34.59-49.47Z"/>
          <path class="cls-27" d="M181.91,252.61c4.06,15.8,2.94,31.08-5.37,45.67,5.05-15.52,6.4-30.7,5.37-45.67Z"/>
          <path class="cls-27" d="M208.02,335c8.77-19.48,10.13-32.8,5.81-53.88,1.29,21.94.91,35.16-5.81,53.88Z"/>
          <path class="cls-27" d="M99.31,362.18c-7.14-19.33-10.24-40.94-10.02-64.38,2.91,22.81,6.23,44.34,10.02,64.38Z"/>
          <path class="cls-27" d="M86.06,356.1c-5.21-13.02-7.28-52.41-3.55-82.79-1.17,25.92.11,66.88,3.55,82.79Z"/>
          <path class="cls-27" d="M89.69,378.96c-7.37-7.29-11.96-20.93-15.26-37.51,5.18,14.93,10.29,28.07,15.26,37.51Z"/>
          <path class="cls-27" d="M78.05,365.55c-12.71-12.78-17.17-35.46-17.86-76.74,4.08,39.15,9.1,61.1,17.86,76.74Z"/>
          <path class="cls-27" d="M112.64,286.53c-3.21-11.8-2.98-24.2.05-37.07-.51,13.03-.56,25.42-.05,37.07Z"/>
          <path class="cls-27" d="M106.18,286.96c-3.94-7.67-5.01-18.94-1.58-35.81-1.32,14.52-.91,26.63,1.58,35.81Z"/>
          <path class="cls-27" d="M102.83,299.52c-5.85-8.92-7.86-23.43-8.08-40.54,2.35,15.93,4.95,30.07,8.08,40.54Z"/>
          <path class="cls-27" d="M78.47,379.61c-15.33-13.58-20.25-23.69-20.27-40.85,3.87,17.29,7.58,27.51,20.27,40.85Z"/>
          <path class="cls-25" d="M183.32,383.52c-29.5-17.26-39.39-43.75-24.34-81.99-10.69,37.95-1.02,64.4,24.34,81.99Z"/>
          <path class="cls-25" d="M152.02,312.43c-11.21,25.73-5.16,43.62,8.86,57.72-12.82-17.52-15.81-36.75-8.86-57.72Z"/>
          <path class="cls-25" d="M142.68,324.74c-5.08,8.31-2.79,19.99,2.4,32.98-2.34-12.12-3.59-23.46-2.4-32.98Z"/>
          <path class="cls-24" d="M132.01,330.47c-3.88,27.46-19.5,38.65-37.58,44.63,15.93-13.72,29.87-27.4,37.58-44.63Z"/>
          <path class="cls-24" d="M132.23,344.06c.45,9.73-7.17,18.86-17.97,27.76,7.88-9.51,14.43-18.83,17.97-27.76Z"/>
          <path class="cls-45" d="M38.32,320.54c17.57,120.07,171.81,111.96,210.85,34.42-56.82,41.96-180.7,27.66-210.85-34.42Z"/>
        </g>
        <path class="cls-4" d="M225.21,354.47c-4.59,14.08-8.91,29.87-18.61,34.08-9.7,4.21-24.78-3.18-35.77-.31-18,4.69-33.89,18.38-51.44,12.07-7.97-2.87-25.11-14.09-30.76-17.9-2.99-1.27-12.44-10.56-21.84-6.04-9.4,4.52-2.68-7.46-5-9.35-40.18-32.7,31.5-87.2,26.14-121.45l106.79-62.62c17.03,45.95,28.07,84.84,31.23,114.44,4.69,24.17,3.9,42.85-.74,57.09"/>
      </g>
      <path class="cls-25" d="M171.4,242.13c20.5,6.74,5.31,37.75,19.5,57.45,2.02,2.8,1.66,6.23.55,9.46-3.04,8.77-9.32,20.22-16.47,29.13-1.99,2.49,11.23-36.97-6.12,6.75-3.51,8.85-6.29-20.95-.12-24.15,8.26-4.28-14.19,4.26-18.9,7.75-11.44,8.46-10.54,30.95-10.77,29.91-2.53-11.4.53-27.11-10.38-23.09-6.34,2.34-11.99,5.09-16.26,8.64-10.48,5.43-11.35,15.92-31.27,23.74,13.45-18.21,14.24-29.42,30.35-39.12,39.49-10.82,69.83-25.74,59.9-86.46Z"/>
      <g>
        <g>
          <path class="cls-23" d="M95.29,301.35c1.87-5.28-2.96-8.88-6.41-13.04-.78-.95,1.13-1.92,2.24-1.39,10.18,4.85,20.08,9.45,28.27,14.32-7.36,1.78-15.44,1.71-24.11.12Z"/>
          <g class="cls-42">
            <path class="cls-50" d="M90.18,294.78c10.75,2.18,15.27-1.2,18.4-5.81l25.51,11.12-35.78,12.82-8.13-18.12Z"/>
          </g>
          <path class="cls-7" d="M95.29,301.35c1.87-5.28-2.96-8.88-6.41-13.04-.78-.95,1.13-1.92,2.24-1.39,10.18,4.85,20.08,9.45,28.27,14.32-7.36,1.78-15.44,1.71-24.11.12Z"/>
        </g>
        <g>
          <path class="cls-27" d="M135.49,298.35c-11.18,1.77-13.2-1.39-37.55.55-4.37.35-8.06,3.29-9.89,7.2-2.91,6.24-7.24,15.29-11.47,22.66,5.84-4.7,11.75-9.39,14.19-14.08,8.34.46,16.8-.85,25.36-3.71-14.3,8.63-26.57,17.25-33.24,28.03,9.2-2.88,16.8-11.69,25.53-12.94-15.91,9.56-12.45,20.33-25.73,38.3,12.78-8.62,16.71-22.41,27.07-27.77,4.22-3.5,9.8-6.22,16.06-8.52,10.77-3.96,7.76,11.54,10.27,22.8.23,1.03-.67-21.17,10.63-29.51,4.65-3.43,26.83-11.86,18.67-7.64-6.09,3.16-3.33,32.57.13,23.83,17.12-43.14,4.08-4.2,6.05-6.66,7.05-8.79,13.26-20.09,16.25-28.74,1.1-3.18,1.45-6.57-.55-9.33-14.03-19.45.96-50.06-19.3-56.72-4.52-2.54-31.67,8.24-29.5,2.59-13.8,27.48-.92,34.7,9.02,52.48,2.65,4.31-1.52,5.79-12.03,7.18Z"/>
          <g class="cls-39">
            <g>
              <path class="cls-23" d="M108.19,294.45c-12.63,4.95-10.75,13.16-9.91,22.95l-26.95,18.89,13.13-29.94,13.23-14.76,10.49,2.86Z"/>
              <g class="cls-38">
                <path class="cls-50" d="M92.2,297.63c1.44,9.17-1.45,14.98-5.18,25.02l19.03-11.46.94-15.06-14.79,1.5Z"/>
              </g>
              <path class="cls-7" d="M108.19,294.45c-12.63,4.95-10.75,13.16-9.91,22.95l-26.95,18.89,13.13-29.94,13.23-14.76,10.49,2.86Z"/>
            </g>
            <g>
              <path class="cls-23" d="M100.75,316.83c-2.31,7.11-4.64,13.53-1.99,15.49-4.71,5.04-15.51,11.36-24.96,15.16,5.7-11.55,15.9-22.41,26.95-30.65Z"/>
              <g class="cls-41">
                <path class="cls-50" d="M94.06,323.05c.52,5.11-.74,10.21-2.79,15.29l10.88-10.08.18-9.31-8.27,4.11Z"/>
              </g>
              <path class="cls-7" d="M100.75,316.83c-2.31,7.11-4.64,13.53-1.99,15.49-4.71,5.04-15.51,11.36-24.96,15.16,5.7-11.55,15.9-22.41,26.95-30.65Z"/>
            </g>
            <g>
              <path class="cls-23" d="M98.04,333.05c1.7,4.54,4.96,7.46,10.21,8.31-.08,16.59-14.5,24.55-31.88,30.73,5.93-16.58,12.38-31.72,21.67-39.04Z"/>
              <g class="cls-40">
                <path class="cls-50" d="M94.9,333.67c5.4,9.07,5.93,19.39,4.23,30.3,7.89-3.38,14.58-9.08,16.5-23.89l-15.56-10.79-5.16,4.38Z"/>
              </g>
              <path class="cls-7" d="M98.04,333.05c1.7,4.54,4.96,7.46,10.21,8.31-.08,16.59-14.5,24.55-31.88,30.73,5.93-16.58,12.38-31.72,21.67-39.04Z"/>
            </g>
            <path class="cls-47" d="M122.64,297.77c40.15,7.9,43.88,1,10.14-38.6l-10.14,38.6Z"/>
          </g>
          <path class="cls-5" d="M135.49,298.35c-11.18,1.77-13.2-1.39-37.55.55-4.37.35-8.06,3.29-9.89,7.2-2.91,6.24-7.24,15.29-11.47,22.66,5.84-4.7,11.75-9.39,14.19-14.08,8.34.46,16.8-.85,25.36-3.71-14.3,8.63-26.57,17.25-33.24,28.03,9.2-2.88,16.8-11.69,25.53-12.94-15.91,9.56-12.45,20.33-25.73,38.3,12.78-8.62,16.71-22.41,27.07-27.77,4.22-3.5,9.8-6.22,16.06-8.52,10.77-3.96,7.76,11.54,10.27,22.8.23,1.03-.67-21.17,10.63-29.51,4.65-3.43,26.83-11.86,18.67-7.64-6.09,3.16-3.33,32.57.13,23.83,17.12-43.14,4.08-4.2,6.05-6.66,7.05-8.79,13.26-20.09,16.25-28.74,1.1-3.18,1.45-6.57-.55-9.33-14.03-19.45.96-50.06-19.3-56.72-4.52-2.54-31.67,8.24-29.5,2.59-13.8,27.48-.92,34.7,9.02,52.48,2.65,4.31-1.52,5.79-12.03,7.18Z"/>
        </g>
        <g>
          <path class="cls-6" d="M99.07,314.58c-2.78.23-5.55.27-8.3.11-2.44,4.68-8.34,9.38-14.19,14.08,4.24-7.37,8.56-16.42,11.47-22.66,1.83-3.91,5.54-6.64,9.89-7.2,1.43-.19,2.78-.33,4.06-.44"/>
          <path class="cls-6" d="M98.48,330.24c-5.01,3.1-10,7.03-15.58,8.77,3.89-6.29,9.69-11.84,16.68-17.09"/>
          <path class="cls-6" d="M106.16,338.97c-7.86,6.35-12.27,17.85-23.46,25.39,9.82-13.29,10.49-22.64,16.61-30.48"/>
          <path class="cls-26" d="M105.47,338.45c.84-.79,2.14-1.05,3.87-.82l-3.69,2.79-.18-1.97Z"/>
          <path class="cls-26" d="M98.52,313.79c1.14-.24,2.39.21,3.77,1.29-1.8.2-3.48.37-4.61.43l.84-1.72Z"/>
          <path class="cls-26" d="M97.58,329.79c.9-.73,2.12-.74,3.83-.38l-3.8,2.36-.02-1.98Z"/>
          <path class="cls-26" d="M99.86,334.53c.84-.8,1.1-1.91.94-3.63-.91.98-1.78,1.95-2.49,2.91l1.56.71Z"/>
          <path class="cls-26" d="M99.52,322.99c1.02-.55,1.57-1.56,1.86-3.25-1.13.71-2.23,1.42-3.19,2.16l1.32,1.09Z"/>
          <path class="cls-26" d="M101.71,299.32c1.17.03,2.31-.63,3.43-1.93l-4.66.36,1.23,1.58Z"/>
        </g>
      </g>
      <g>
        <path class="cls-27" d="M46.17,87.45C27.52,51.73,96.3,4.18,142.49,13.35c19.16-8.86,70.09-2.31,95.39,19.09,25.29,21.4,37.86,67.02,26.51,111.47,1.73,8.01-11.1,13.17-4.99,29.65,1.93,5.2,3.22,10.64,3.22,16.19-.02,65.22-31.6,100.83-47.65,142.45,7.67-37.75,20.24-71.14,8.79-111.63,2.72,22.93,2.06,53.94-5.65,66.18.04-15.35-5.64-47.85-14.59-71.85-9.44,17.99,6.59,50.54-9.41,66.92,0-21.41,1.38-50.27-7.48-76.64,7.54,30.37-5.87,64.97-23.85,100.48,7.19-34.48,20.76-54.64,9.2-81.32-3.43,31.94-13.95,55.51-29.91,72.69,25.51-80.38-81.65-66.7-95.91-209.58Z"/>
        <g class="cls-30">
          <path class="cls-47" d="M180.77,0c118.06,8.59,112.89,87.37,89.74,176.39C262.01,100.46,238.41,36.61,180.77,0Z"/>
          <path class="cls-25" d="M168.74,320.77C7.02,350.92,25.03,187.27,34.35,72.79c.09-5.14,3.88-22.21,5.96-26.88.6-1.35,19.69-9.19,21.31-8.82,9.82,2.25,3.66,7.45,15.32,15,25.8-20.2,48.32-19.65,23.08,5.35,25.44-2.82,68.26-28.73,79.42-24.55,1.09.41,1.09,2.3,0,2.7-4.34,1.58-10.34,12.05-11.4,13.78,15.13.21,56.22,6.97,66.09,18.76,6.18,7.38-35.13,8.18-29.43,10.73,38,16.99,41.95,24.91,19.07,25.12,24.38,49.09-5.98,74.84-17.06,103.3-9.87,25.37-13.05,108.3-37.97,113.47Z"/>
          <path class="cls-47" d="M38.32,84.09c-.52-58.5,29.98-81.86,103.23-73.58-48.2,14.61-81.35,35.57-103.23,73.58Z"/>
          <path class="cls-25" d="M259.96,165.21c36.19,104.35-5.31,146.66-54.08,183.16,27.89-67.23,52.25-132.25,54.08-183.16Z"/>
        </g>
        <path class="cls-3" d="M46.17,87.45C27.52,51.73,96.3,4.18,142.49,13.35c19.16-8.86,70.09-2.31,95.39,19.09,25.29,21.4,37.86,67.02,26.51,111.47,1.73,8.01-11.1,13.17-4.99,29.65,1.93,5.2,3.22,10.64,3.22,16.19-.02,65.22-31.6,100.83-47.65,142.45,7.67-37.75,20.24-71.14,8.79-111.63,2.72,22.93,2.06,53.94-5.65,66.18.04-15.35-5.64-47.85-14.59-71.85-9.44,17.99,6.59,50.54-9.41,66.92,0-21.41,1.38-50.27-7.48-76.64,7.54,30.37-5.87,64.97-23.85,100.48,7.19-34.48,20.76-54.64,9.2-81.32-3.43,31.94-13.95,55.51-29.91,72.69,25.51-80.38-81.65-66.7-95.91-209.58Z"/>
      </g>
      <g>
        <path class="cls-22" d="M148.3,245.93c-121.85,25.61-109.16-61.23-102.13-158.47.07-4.37,2.04-13.18,3.61-17.15.45-1.14,5.82-12.99,7.04-12.67,7.4,1.91,2.75,6.33,11.54,12.75,19.44-17.16,36.41-16.69,17.39,4.55,19.17-2.4,51.43-24.4,59.84-20.85.82.35.82,1.95,0,2.29-3.27,1.34-7.79,10.24-8.59,11.7,11.4.18,42.36,5.92,49.8,15.94,4.65,6.27-26.47,6.95-22.17,9.12,28.63,14.43,31.6,21.16,14.37,21.34,18.37,41.7-4.51,63.57-12.85,87.75-7.44,21.55.94,39.33-17.83,43.72Z"/>
        <path class="cls-8" d="M148.3,245.93c-121.85,25.61-109.16-61.23-102.13-158.47.07-4.37,2.04-13.18,3.61-17.15.45-1.14,5.82-12.99,7.04-12.67,7.4,1.91,2.75,6.33,11.54,12.75,19.44-17.16,36.41-16.69,17.39,4.55,19.17-2.4,51.43-24.4,59.84-20.85.82.35.82,1.95,0,2.29-3.27,1.34-7.79,10.24-8.59,11.7,11.4.18,42.36,5.92,49.8,15.94,4.65,6.27-26.47,6.95-22.17,9.12,28.63,14.43,31.6,21.16,14.37,21.34,18.37,41.7-4.51,63.57-12.85,87.75-7.44,21.55.94,39.33-17.83,43.72Z"/>
      </g>
      <path class="cls-46" d="M69.5,195.4c-9.71-4.91-16.2-5.42-25.38-11.63,1.05,4.9,2.28,10.68,5.53,14.8,3.99,6.39,6.09,8.78,7.99,8.47,4.82-.78,9.78-9.33,11.85-11.65Z"/>
      <path class="cls-17" d="M48.36,219.01c.65-7.14.99-12.48,8.75-13.15,10.98-4.61,21.98-7.69,33.14,1.09,6.28-3.6,7.72,3.58,16.13,4.3,5.18.44,35.75,14.58,36.73,19.69,1.58,8.19,2.27,29.4,4.79,34.62-3.1-2.7-14.98-21.54-16.95-29.84,2.93,14.03-3.21,20.72-4,34.36,1.15-11.79-1.44-21.72-9.41-31.61,1.92,24.26-3.71,41.11-4.11,61.62-1.86-21.29-13.3-34.47-17.68-56.34,2.11,11.21,2.92,20.83,1.86,28.19-.78-7.3-3.27-14.69-8.3-22.2,2.13,16.3.98,28.91-2.87,38.49-1.2-9.16-3.98-30.8-12.73-32.95,3.61,17.28-7.38,32.91-6.46,51.44-5.73-17.68,6.78-39.6-.63-55.86-18.28-11.97-20.14-15.34-18.28-31.84Z"/>
      <path class="cls-28" d="M54.17,143.92c-.13,6.92-1.11,13.77-2.87,20.47-1.64,6.71-3.69,13.33-6.31,19.74l.05-.55c1.67,9.05,5.77,17.26,12.62,23.47,0,0-1.1-.13-1.1-.13,4.95-3.05,9.14-7.11,12.95-11.51-3,5.42-7,10.56-12.63,13.46-3.56-3.37-6.84-7.16-9.16-11.58-2.24-4.19-3.51-8.78-4.49-13.31l-.06-.28.11-.27c5.37-12.64,7.49-26.27,10.9-39.51h0Z"/>
      <g class="cls-32">
        <path class="cls-28" d="M48.21,119.66c.54,1.65,1.09,3.51,1.57,5.2.11.49.21,1.26.3,1.77,0,0,1.21,7.08,1.21,7.08l-.55-.55,18.69,3.14-.75.45c.09-.31.2-.8.33-1.23,1-3.54,3.89-4.98,7.32-5.21-1.54.59-3.13,1.38-4.21,2.63-.22.28-.57.6-.77.88-.79.98-1.08,2.15-1.4,3.36,0,0-.17.55-.17.55l-.58-.1-18.69-3.14-.47-.08c-.27-1.66-1.33-7.74-1.59-9.33-.09-1.75-.22-3.68-.24-5.43h0Z"/>
        <g>
          <path class="cls-49" d="M31.11,209.13c20.99,3.13,38.85,7.52,61.33-.54,1.82,8.82,2.4,17.05,1.51,24.57-15.43,7.83-53.62,11.21-66.03,4.51-2.56-7.38,4.16-19.05,3.19-28.54Z"/>
          <g class="cls-33">
            <path class="cls-15" d="M30.72,208.6c1.31,9.04,4.97,12.76,11.98,16.67,7.99-.05,11.18-5.33,12.9-14.35l-24.88-2.32Z"/>
            <path class="cls-15" d="M56.44,206.2c-1.59,7.5-2.3,13.89-.3,16.85,2.91,3.29,7.54,2.83,14.72,1.44,3.26-3.66,5.96-7.73,6.59-13.3l-21.02-4.99Z"/>
            <path class="cls-15" d="M90.5,207.11c1.76,6.97,4.91,10.92,10.42,9.69,10.79-2.46,17.81-14.98,24.1-29.44-.17,17.82-4.11,30.31-11.49,38.3-3.1,3.35-7.66,5.03-12.17,4.29-4.17-.68-7.41-2.54-10.93-6.55l.08-16.28Z"/>
            <path class="cls-15" d="M73.88,212c1.42,5.61,2.85,11.19,4.96,13.92.36.47.9.79,1.49.87,2.56.35,5.58-.92,9.05-3.84.83-.7,1.42-1.65,1.68-2.7.82-3.41.78-8.02.35-13.16l-17.53,4.92Z"/>
            <path class="cls-46" d="M.17,243.48c36.35-8.46,86.27-12.58,106.35-4.05-42.48,18.81-78.12,20.63-106.35,4.05Z"/>
          </g>
        </g>
        <path class="cls-15" d="M92.01,212.79c2.67,5.22,5.7,5.62,9.84,4.16,8.09-2.9,11.44-10.87,14.95-22.62,1.53,13.77-.35,23.77-5.3,30.62-2.08,2.88-5.44,4.6-8.99,4.45-3.28-.14-9.01-3.23-12.1-6,1.37-3.27,1.95-6.79,1.6-10.6Z"/>
        <ellipse class="cls-45" cx="111.18" cy="167.63" rx="35.82" ry="35.3"/>
        <g>
          <ellipse class="cls-29" cx="111.18" cy="162.79" rx="35.82" ry="35.3"/>
          <g class="cls-31">
            <path class="cls-44" d="M87.95,147.41c-1.64,4.37.46,9.02,4.69,10.39,4.23,1.37,9-1.07,10.64-5.44,1.64-4.37-.46-9.02-4.69-10.39s-9,1.07-10.64,5.44Z"/>
            <path class="cls-46" d="M150.22,173.66l-41.96,14.1-38.62-24.99c-7.77,49.44,72.81,60.32,80.58,10.88Z"/>
          </g>
          <ellipse class="cls-1" cx="111.18" cy="162.79" rx="35.82" ry="35.3"/>
        </g>
        <path class="cls-48" d="M68.21,123.56c2.15-3.79,56.61-29.6,70.87-30.18,4.03,7.14,1.4,18.41,1.22,26.17-.04,1.59-7.61,5.73-7.81,7.34-15.87-.46-35.46,6.73-58.27,12.9l-6.01-16.23Z"/>
        <path class="cls-48" d="M54.17,122.04c-17.27-12.73-38.1-27.3-48.39-29.47C2.31,99.53.47,107.1,0,115.17c-.1,1.65,5.3,5.28,5.32,6.97,10.68,3.86,23.57,8.44,43.7,15.62l5.16-15.71Z"/>
        <path class="cls-28" d="M7.37,81.41c16.79.21,33.51,1.48,50.25,2.17,16.69.61,33.4,1.32,49.91-1.83-2.95,1.13-5.99,2.05-9.07,2.77-5.1,1.13-10.48,1.85-15.69,2.26-25.24,1.71-50.55-1.13-75.41-5.38h0Z"/>
        <path class="cls-28" d="M29.8,94.62c10.1-1.89,20.33-2.95,30.6-3.5,10.26-.47,20.62-.45,30.79,1.12-20.18.08-41.21,1.79-61.39,2.38h0Z"/>
        <path class="cls-28" d="M47.62,106.54c16.19-.14,32.56.7,48.34-3.57-14.08,6.97-33.15,6.37-48.34,3.57h0Z"/>
        <path class="cls-28" d="M48.55,97.52c11.24-3.04,24.56-4.89,35.81-1.07-11.93-1.9-23.91-.08-35.81,1.07h0Z"/>
      </g>
      <path class="cls-16" d="M161.16,9.52c12.77-4.84,49.21,0,65,5.02-12.33,2.63-34.02,3.82-30.64,14.02"/>
    </g>
  </g>
</svg>