<?xml version="1.0" encoding="UTF-8"?>
<svg id="Layer_2" data-name="Layer 2" xmlns="http://www.w3.org/2000/svg" viewBox="0 0 115.52 164.51">
  <defs>
    <style>
      .cls-1 {
        fill: #4b4b4b;
      }
    </style>
  </defs>
  <g id="Layer_9" data-name="Layer 9">
    <g>
      <path class="cls-1" d="M113.69,0c.37.16,1.8,2.19,1.79,3.12l-.16,14.44c-.91,1.36-4.16,1.73-5.9,1.48l-.2,26.3c-.06,7.26-3.9,14.03-9.93,17.72l-28.1,17.24.06,7.48,29.95,18.26c5.28,3.22,7.94,8.3,8.01,14.67l.26,24.82c2.22-.29,5.06.17,5.83,1.39l.23,14.02c.03,1.96-1.21,3.58-3.39,3.58H2.72c-1.13,0-2.74-1.88-2.72-2.92l.2-14.69c.86-1.21,3.58-1.65,5.84-1.37l.26-22.72c.08-7.04,3.5-13.88,9.41-17.51l28.56-17.55-.14-7.7-29.74-18.05c-5.17-3.14-8.01-8.24-8.07-14.56l-.27-28.47c-2.16.31-5.15-.15-5.84-1.4L.03,3.19C.02,2.2,1.46.17,2.2,0h111.49ZM99.24,145.44l-.07-24.88c0-2.32-1.16-4.57-3-5.81l-32.3-19.63c-1.69-1.03-2.89-3.13-2.89-5.06v-12c-.02-1.88,1.11-4.09,2.81-5.12l29.99-18.24c3.31-2.44,5.44-5.84,5.45-10.1v-25.56s-82.94,0-82.94,0l.03,27.77c0,2.95,1.08,5.43,3.62,6.72l32.26,19.66c1.36.83,2.36,3.4,2.36,4.84v12.02c-.02,1.97-1.23,3.97-2.95,5.02l-29.98,18.24c-3.37,2.4-5.33,5.94-5.33,10.22v21.9s82.96,0,82.96,0Z"/>
      <path class="cls-1" d="M89,141.82l-59.99.12-1.4-.7c-1.84-.92,6.29-8.06,16.75-10.32,11.24-2.42,22.79-1.92,33.54,2.06,4.47,1.65,8.5,3.86,11.1,8.85Z"/>
      <path class="cls-1" d="M54.92,70.62l-24.56-13.67c-1.09-.61-2.06-1.61-3.03-2.88,4.12-.06,7.56.22,11.37,1.2,11.7,3.02,23.47,3.3,35.32.78,5.85-1.24,11.02-2.86,17.59-3.32l-30.44,17.68c-1.69.98-4.58,1.13-6.25.2Z"/>
    </g>
  </g>
</svg>