<?xml version="1.0" encoding="UTF-8"?>
<svg id="Layer_2" data-name="Layer 2" xmlns="http://www.w3.org/2000/svg" xmlns:xlink="http://www.w3.org/1999/xlink" viewBox="0 0 217.82 205.89">
  <defs>
    <style>
      .cls-1 {
        fill: #988179;
      }

      .cls-2 {
        fill: #7f665e;
      }

      .cls-3 {
        fill: #a7958d;
      }

      .cls-4, .cls-5, .cls-6 {
        fill: #837e86;
      }

      .cls-4, .cls-7, .cls-8, .cls-9, .cls-10, .cls-11 {
        fill-rule: evenodd;
      }

      .cls-12 {
        fill: #bcb7bb;
      }

      .cls-13 {
        fill: #a79089;
      }

      .cls-14 {
        clip-path: url(#clippath-17);
      }

      .cls-15 {
        clip-path: url(#clippath-19);
      }

      .cls-16 {
        clip-path: url(#clippath-11);
      }

      .cls-17 {
        clip-path: url(#clippath-16);
      }

      .cls-18 {
        clip-path: url(#clippath-18);
      }

      .cls-19 {
        clip-path: url(#clippath-10);
      }

      .cls-20 {
        clip-path: url(#clippath-15);
      }

      .cls-21 {
        clip-path: url(#clippath-13);
      }

      .cls-22 {
        clip-path: url(#clippath-14);
      }

      .cls-23 {
        clip-path: url(#clippath-12);
      }

      .cls-24 {
        clip-path: url(#clippath-20);
      }

      .cls-25 {
        clip-path: url(#clippath-21);
      }

      .cls-26 {
        clip-path: url(#clippath-22);
      }

      .cls-27 {
        clip-path: url(#clippath-23);
      }

      .cls-28 {
        clip-path: url(#clippath-24);
      }

      .cls-29 {
        clip-path: url(#clippath-1);
      }

      .cls-30 {
        clip-path: url(#clippath-3);
      }

      .cls-31 {
        clip-path: url(#clippath-4);
      }

      .cls-32 {
        clip-path: url(#clippath-2);
      }

      .cls-33 {
        clip-path: url(#clippath-7);
      }

      .cls-34 {
        clip-path: url(#clippath-6);
      }

      .cls-35 {
        clip-path: url(#clippath-9);
      }

      .cls-36 {
        clip-path: url(#clippath-8);
      }

      .cls-37 {
        clip-path: url(#clippath-5);
      }

      .cls-38 {
        opacity: .17;
        stroke: #979797;
        stroke-width: .33px;
      }

      .cls-38, .cls-39, .cls-10 {
        fill: none;
      }

      .cls-38, .cls-10 {
        stroke-miterlimit: 10;
      }

      .cls-40, .cls-9 {
        fill: #635d68;
      }

      .cls-39, .cls-6, .cls-41 {
        clip-rule: evenodd;
      }

      .cls-42 {
        fill: #d3cace;
      }

      .cls-7 {
        fill: #d9dadb;
      }

      .cls-43 {
        fill: #544d5b;
      }

      .cls-44 {
        fill: #bcb3b6;
      }

      .cls-8, .cls-41 {
        fill: #e5e1df;
      }

      .cls-45 {
        clip-path: url(#clippath);
      }

      .cls-46 {
        fill: #d2cbce;
      }

      .cls-10 {
        stroke: #999;
        stroke-width: 3px;
      }

      .cls-11 {
        fill: #d5cdcd;
        stroke: rgba(151, 151, 151, .17);
        stroke-width: .34px;
      }
    </style>
    <clipPath id="clippath">
      <path id="Path-2" data-name="Path" class="cls-41" d="M208.72,180.91V15.11c-.35-3.29-1.93-6.36-4.74-9.2-2.81-2.84-6.07-4.3-9.76-4.36H23.88c-3.72.45-6.81,1.9-9.28,4.36-2.47,2.46-4.34,5.52-5.62,9.2v171c1.42,4.99,3.3,8.76,5.62,11.3,2.32,2.54,5.42,4.21,9.28,5.01h142.82c26.19-.27,37.88-8.74,42.02-21.51Z"/>
    </clipPath>
    <clipPath id="clippath-1">
      <path class="cls-6" d="M160.25,37.86l-6.99-5.23h-24.55l-4.21,5.23-2.08,42.06,2.08,2.79-2.08,2.85-.84,22.34,1.93,3.5-1.93,5.31v37.07c8.48,2.77,14.93,4.04,19.34,3.81,4.41-.23,10.25-2.1,17.54-5.6.17-19.58.4-34.28.68-44.08.29-9.8.66-15.63,1.11-17.46-.74-1.17-1.11-2.3-1.11-3.38s.37-2.53,1.11-4.34v-44.85Z"/>
    </clipPath>
    <clipPath id="clippath-2">
      <polygon class="cls-39" points="124.5 82.71 127.07 39.14 124.5 37.74 122.41 79.92 124.5 82.71"/>
    </clipPath>
    <clipPath id="clippath-3">
      <polygon class="cls-39" points="127.07 39.14 130.64 34.84 128.86 32.63 124.5 37.74 127.07 39.14"/>
    </clipPath>
    <clipPath id="clippath-4">
      <polygon class="cls-39" points="130.64 34.84 152.33 34.84 153.25 32.63 128.86 32.63 130.64 34.84"/>
    </clipPath>
    <clipPath id="clippath-5">
      <polygon class="cls-39" points="152.33 34.84 157.95 39.14 160.25 37.86 153.25 32.63 152.33 34.84"/>
    </clipPath>
    <clipPath id="clippath-6">
      <polygon class="cls-39" points="157.95 39.14 159.1 86.59 160.25 82.71 160.25 37.86 157.95 39.14"/>
    </clipPath>
    <clipPath id="clippath-7">
      <path class="cls-39" d="M159.1,87.44c-1.16,11.97-1.92,21.89-2.25,29.76-.34,7.87-.69,17.61-1.07,29.23l2.67-.99c.29-11.15.51-20.56.65-28.24.14-7.68.53-16.6,1.15-26.76l-1.15-3Z"/>
    </clipPath>
    <clipPath id="clippath-8">
      <polygon class="cls-39" points="124.74 82.71 122.41 85.56 121.57 107.9 123.51 111.4 124.74 82.71"/>
    </clipPath>
    <clipPath id="clippath-9">
      <polyline class="cls-39" points="123.51 111.4 123.51 146.42 121.57 151.02 121.57 116.71"/>
    </clipPath>
    <clipPath id="clippath-10">
      <path class="cls-39" d="M123.51,146.42c-.1,2.33.12,3.73.66,4.22.54.49,1.4.8,2.59.92l-2.07,3.16-3.12-.95v-3.14l1.93-4.22Z"/>
    </clipPath>
    <clipPath id="clippath-11">
      <path class="cls-39" d="M126.76,151.56c5.74,1.34,10.31,1.98,13.73,1.92,3.41-.06,8.08-.88,14-2.46v2.74c-4.38,2.29-8.9,3.57-13.58,3.85-4.68.28-10.08-.68-16.22-2.88l2.07-3.16Z"/>
    </clipPath>
    <clipPath id="clippath-12">
      <path class="cls-39" d="M155.77,146.42l2.67-.99v6.55l-3.96,1.78v-2.74c.55-.14.91-.5,1.07-1.08.16-.58.23-1.76.21-3.52Z"/>
    </clipPath>
    <clipPath id="clippath-13">
      <path class="cls-6" d="M100.13,37.86l-6.99-5.23h-24.55l-4.21,5.23-2.08,42.06,2.08,2.79-2.08,2.85-.84,22.34,1.93,3.5-1.93,5.31v37.07c8.48,2.77,14.93,4.04,19.34,3.81,4.41-.23,10.25-2.1,17.54-5.6.17-19.58.4-34.28.68-44.08.29-9.8.66-15.63,1.11-17.46-.74-1.17-1.11-2.3-1.11-3.38s.37-2.53,1.11-4.34v-44.85Z"/>
    </clipPath>
    <clipPath id="clippath-14">
      <polygon class="cls-39" points="64.38 82.71 66.96 39.14 64.38 37.74 62.29 79.92 64.38 82.71"/>
    </clipPath>
    <clipPath id="clippath-15">
      <polygon class="cls-39" points="66.96 39.14 70.52 34.84 68.74 32.63 64.38 37.74 66.96 39.14"/>
    </clipPath>
    <clipPath id="clippath-16">
      <polygon class="cls-39" points="70.52 34.84 92.21 34.84 93.13 32.63 68.74 32.63 70.52 34.84"/>
    </clipPath>
    <clipPath id="clippath-17">
      <polygon class="cls-39" points="92.21 34.84 97.83 39.14 100.13 37.86 93.13 32.63 92.21 34.84"/>
    </clipPath>
    <clipPath id="clippath-18">
      <polygon class="cls-39" points="97.83 39.14 98.98 86.59 100.13 82.71 100.13 37.86 97.83 39.14"/>
    </clipPath>
    <clipPath id="clippath-19">
      <path class="cls-39" d="M98.98,87.44c-1.16,11.97-1.92,21.89-2.25,29.76-.34,7.87-.69,17.61-1.07,29.23l2.67-.99c.29-11.15.51-20.56.65-28.24.14-7.68.53-16.6,1.15-26.76l-1.15-3Z"/>
    </clipPath>
    <clipPath id="clippath-20">
      <polygon class="cls-39" points="64.63 82.71 62.29 85.56 61.45 107.9 63.39 111.4 64.63 82.71"/>
    </clipPath>
    <clipPath id="clippath-21">
      <polyline class="cls-39" points="63.39 111.4 63.39 146.42 61.45 151.02 61.45 116.71"/>
    </clipPath>
    <clipPath id="clippath-22">
      <path class="cls-39" d="M63.39,146.42c-.1,2.33.12,3.73.66,4.22.54.49,1.4.8,2.59.92l-2.07,3.16-3.12-.95v-3.14l1.93-4.22Z"/>
    </clipPath>
    <clipPath id="clippath-23">
      <path class="cls-39" d="M66.64,151.56c5.74,1.34,10.31,1.98,13.73,1.92,3.41-.06,8.08-.88,14-2.46v2.74c-4.38,2.29-8.9,3.57-13.58,3.85-4.68.28-10.08-.68-16.22-2.88l2.07-3.16Z"/>
    </clipPath>
    <clipPath id="clippath-24">
      <path class="cls-39" d="M95.66,146.42l2.67-.99v6.55l-3.96,1.78v-2.74c.55-.14.91-.5,1.07-1.08.16-.58.23-1.76.21-3.52Z"/>
    </clipPath>
  </defs>
  <g id="Layer_9" data-name="Layer 9">
    <g>
      <g>
        <path id="Path" class="cls-8" d="M208.72,180.91V15.11c-.35-3.29-1.93-6.36-4.74-9.2-2.81-2.84-6.07-4.3-9.76-4.36H23.88c-3.72.45-6.81,1.9-9.28,4.36-2.47,2.46-4.34,5.52-5.62,9.2v171c1.42,4.99,3.3,8.76,5.62,11.3,2.32,2.54,5.42,4.21,9.28,5.01h142.82c26.19-.27,37.88-8.74,42.02-21.51Z"/>
        <g class="cls-45">
          <path id="Path-3" data-name="Path" class="cls-4" d="M18.93,190.97l36.7.25s12.5-21.24,12.5-19.42-5.51,13.18-16.54,34.08h-28.42c-4.18-1.13-7.3-2.84-9.35-5.13-2.06-2.28-3.94-6.14-5.67-11.56V14.22c.77-3.5,2.66-6.64,5.67-9.42C16.82,2.03,19.94.55,23.17.35h4.71c-5.84,4.79-9.23,9.42-10.17,13.88-.95,4.46-1.42,12.9-1.42,25.32,7.05,2.68,10.91,4.74,11.59,6.17s-3.19,2.67-11.59,3.71l-.98,99.87c3.88,3.39,5.83,7.02,5.83,10.88,0,2.72-2.3,7.38-3.43,13.91-.32,1.84.91,12.55,1.23,16.88Z"/>
          <path id="Path-4" data-name="Path" class="cls-4" d="M63.71,190.5l-5.89,13.91h109.32c.89,4.38,43.96-10.11,42.37-20.84V13.8c-.5-3.7-2.09-6.83-4.78-9.36-2.69-2.54-5.97-4.02-9.84-4.44,5.69,4.89,8.53,9.05,8.53,12.47s.44,50.09,1.31,140c-.8,7.1-1.51,17.78-4.37,21.84-2.86,4.05-4.93,10.06-9.21,10.14-13.96.32-25.03.92-31.95,1.78-6.93.86-12.68,2.5-17.69,4.27H63.71Z"/>
          <path id="Path-5" data-name="Path" class="cls-7" d="M18.9,38.05c3.05-11.45,6.05-18.83,8.98-22.14,2.93-3.31,7.39-5.94,13.38-7.9h145.95l15.9,12.45c.92-4.98.92-8.6,0-10.86-.92-2.27-3.65-5.35-8.18-9.25H27.88c-5.99,5.24-9.38,9.13-10.17,11.67-.79,2.54-1.27,11.72-1.42,27.53,7.73,2.53,11.59,4.59,11.59,6.17s-3.86,2.82-11.59,3.71l-.98,99.87c4.31,3.91,6.25,7.54,5.83,10.88-.64,5.02-2.75,9.35-3.43,13.91-.45,3.03.78,13.74,1.23,16.88h3.85c-1.28-5.31-1.34-14.67-.61-18.17,1.49-6.31,3.56-9.78,3.29-12.62-.39-4.1-2.57-9.15-6.57-15.16V52.76c8.11-2.21,12.16-4.56,12.16-7.04s-4.05-5.04-12.16-7.68Z"/>
          <path id="Path-6" data-name="Path" class="cls-9" d="M65.9,177.22c.33.99.5,2.92.5,5.79s-.17,4.62-.5,5.26l-8.88,17.62h-5.42l14.3-28.66Z"/>
          <path id="Path-7" data-name="Path" class="cls-11" d="M185.36,182.56c5.1-1.26,8.66-3.34,10.7-6.24,2.04-2.9,3.86-8.51,5.48-16.83l-.98-53.42c-.45,25.19-1.95,44.21-4.51,57.06-2.55,12.85-6.12,19.33-10.7,19.43Z"/>
          <path class="cls-5" d="M39.49,41.77l.63,3.71c-2.83.99-13.5,3.3-14.1,3.71-2.52,1.7,1.34,5.01-1.25,5.56-1.49.31-14.65-9.64-15.67-12.36-1.15-.28-1.83,1.61-2.19,1.85-.55.37-1.41.8-1.88,1.24-1.75-1.2-3.58-2.09-5.01-3.71,8.11-2.49,7.12-11.14,8.78-17.61.4-1.57-.05-1.45,1.88-2.16,3.62,16.4,11.81,23.2,28.83,19.77Z"/>
          <path class="cls-12" d="M211.82,63.37l6,9.9-5.45,17.92c-12.71-5.01-26-12.18-39.51-20.23-5.34,8.39-24.22,16.02-40.1,23.83,19.36-12.15,39.68-24.61,38.42-29.94,18.86,8.94,38.9,19.98,40.64-1.48Z"/>
          <path class="cls-12" d="M96.52,177.54c-6.88,12.4-16.92,12.05-29.44,11.83l29.44-11.83Z"/>
        </g>
      </g>
      <path id="Path-8" data-name="Path" class="cls-10" d="M208.72,180.91V15.11c-.35-3.29-1.93-6.36-4.74-9.2-2.81-2.84-6.07-4.3-9.76-4.36H23.88c-3.72.45-6.81,1.9-9.28,4.36-2.47,2.46-4.34,5.52-5.62,9.2v171c1.42,4.99,3.3,8.76,5.62,11.3,2.32,2.54,5.42,4.21,9.28,5.01h142.82c26.19-.27,37.88-8.74,42.02-21.51Z"/>
    </g>
    <g>
      <g>
        <path class="cls-4" d="M160.25,37.86l-6.99-5.23h-24.55l-4.21,5.23-2.08,42.06,2.08,2.79-2.08,2.85-.84,22.34,1.93,3.5-1.93,5.31v37.07c8.48,2.77,14.93,4.04,19.34,3.81,4.41-.23,10.25-2.1,17.54-5.6.17-19.58.4-34.28.68-44.08.29-9.8.66-15.63,1.11-17.46-.74-1.17-1.11-2.3-1.11-3.38s.37-2.53,1.11-4.34v-44.85Z"/>
        <g class="cls-29">
          <rect class="cls-5" x="120.86" y="32.01" width="40.1" height="126.43"/>
        </g>
      </g>
      <path class="cls-38" d="M160.25,37.86l-6.99-5.23h-24.55l-4.21,5.23-2.08,42.06,2.08,2.79-2.08,2.85-.84,22.34,1.93,3.5-1.93,5.31v37.07c8.48,2.77,14.93,4.04,19.34,3.81,4.41-.23,10.25-2.1,17.54-5.6.17-19.58.4-34.28.68-44.08.29-9.8.66-15.63,1.11-17.47-.74-1.17-1.11-2.3-1.11-3.38s.37-2.53,1.11-4.34v-44.85Z"/>
      <g class="cls-32">
        <rect class="cls-13" x="121.7" y="37.11" width="6.09" height="46.23"/>
      </g>
      <polygon class="cls-12" points="124.5 82.72 127.07 39.14 124.5 37.74 122.41 79.92 124.5 82.72"/>
      <g class="cls-30">
        <rect class="cls-44" x="123.78" y="32" width="7.58" height="7.76"/>
      </g>
      <polygon class="cls-38" points="127.07 39.14 130.64 34.84 128.86 32.63 124.5 37.74 127.07 39.14"/>
      <g class="cls-31">
        <rect class="cls-42" x="128.14" y="32" width="25.83" height="3.46"/>
      </g>
      <polygon class="cls-38" points="130.64 34.84 152.33 34.84 153.25 32.63 128.86 32.63 130.64 34.84"/>
      <g class="cls-37">
        <rect class="cls-46" x="151.61" y="32.01" width="9.35" height="7.76"/>
      </g>
      <polygon class="cls-38" points="152.33 34.84 157.95 39.14 160.25 37.86 153.25 32.63 152.33 34.84"/>
      <g class="cls-34">
        <rect class="cls-3" x="157.23" y="37.24" width="3.73" height="49.98"/>
      </g>
      <polygon class="cls-12" points="157.95 39.14 159.1 86.59 160.25 82.71 160.25 37.86 157.95 39.14"/>
      <g class="cls-33">
        <rect class="cls-3" x="155.06" y="86.81" width="5.9" height="60.24"/>
      </g>
      <path class="cls-12" d="M159.1,87.44c-1.16,11.97-1.92,21.89-2.25,29.76-.34,7.87-.69,17.61-1.07,29.23l2.67-.99c.29-11.15.51-20.56.65-28.24.14-7.68.53-16.6,1.15-26.76l-1.15-3Z"/>
      <g class="cls-36">
        <rect class="cls-13" x="120.86" y="82.09" width="4.6" height="29.94"/>
      </g>
      <polygon class="cls-12" points="124.74 82.71 122.41 85.56 121.57 107.9 123.51 111.4 124.74 82.71"/>
      <g class="cls-35">
        <rect class="cls-13" x="120.86" y="110.77" width="3.37" height="40.88"/>
      </g>
      <polyline class="cls-12" points="123.51 111.4 123.51 146.42 121.57 151.02 121.57 116.71"/>
      <g class="cls-19">
        <rect class="cls-1" x="120.86" y="145.8" width="6.62" height="9.56"/>
      </g>
      <path class="cls-40" d="M123.51,146.42c-.1,2.33.12,3.73.66,4.22s1.4.8,2.59.92l-2.07,3.16-3.12-.95v-3.14l1.93-4.22Z"/>
      <g class="cls-16">
        <rect class="cls-2" x="123.98" y="150.4" width="31.23" height="8.12"/>
      </g>
      <path class="cls-43" d="M126.76,151.56c5.74,1.34,10.31,1.98,13.73,1.92,3.41-.06,8.08-.88,14-2.46v2.74c-4.38,2.29-8.9,3.57-13.58,3.85-4.68.28-10.08-.68-16.22-2.88l2.07-3.16Z"/>
      <g class="cls-23">
        <rect class="cls-3" x="153.77" y="144.8" width="5.39" height="9.58"/>
      </g>
      <path class="cls-40" d="M155.77,146.42l2.67-.99v6.55l-3.96,1.78v-2.74c.55-.14.91-.5,1.07-1.08s.23-1.76.21-3.52Z"/>
    </g>
    <g>
      <g>
        <path class="cls-4" d="M100.13,37.86l-6.99-5.23h-24.55l-4.21,5.23-2.08,42.06,2.08,2.79-2.08,2.85-.84,22.34,1.93,3.5-1.93,5.31v37.07c8.48,2.77,14.93,4.04,19.34,3.81,4.41-.23,10.25-2.1,17.54-5.6.17-19.58.4-34.28.68-44.08.29-9.8.66-15.63,1.11-17.46-.74-1.17-1.11-2.3-1.11-3.38s.37-2.53,1.11-4.34v-44.85Z"/>
        <g class="cls-21">
          <rect class="cls-5" x="60.74" y="32.01" width="40.1" height="126.43"/>
        </g>
      </g>
      <path class="cls-38" d="M100.13,37.86l-6.99-5.23h-24.55l-4.21,5.23-2.08,42.06,2.08,2.79-2.08,2.85-.84,22.34,1.93,3.5-1.93,5.31v37.07c8.48,2.77,14.93,4.04,19.34,3.81,4.41-.23,10.25-2.1,17.54-5.6.17-19.58.4-34.28.68-44.08.29-9.8.66-15.63,1.11-17.47-.74-1.17-1.11-2.3-1.11-3.38s.37-2.53,1.11-4.34v-44.85Z"/>
      <g class="cls-22">
        <rect class="cls-13" x="61.58" y="37.11" width="6.09" height="46.23"/>
      </g>
      <polygon class="cls-12" points="64.38 82.72 66.96 39.14 64.38 37.74 62.29 79.92 64.38 82.72"/>
      <g class="cls-20">
        <rect class="cls-44" x="63.66" y="32" width="7.58" height="7.76"/>
      </g>
      <polygon class="cls-38" points="66.96 39.14 70.52 34.84 68.74 32.63 64.38 37.74 66.96 39.14"/>
      <g class="cls-17">
        <rect class="cls-42" x="68.02" y="32" width="25.83" height="3.46"/>
      </g>
      <polygon class="cls-38" points="70.52 34.84 92.21 34.84 93.13 32.63 68.74 32.63 70.52 34.84"/>
      <g class="cls-14">
        <rect class="cls-46" x="91.49" y="32.01" width="9.35" height="7.76"/>
      </g>
      <polygon class="cls-38" points="92.21 34.84 97.83 39.14 100.13 37.86 93.13 32.63 92.21 34.84"/>
      <g class="cls-18">
        <rect class="cls-3" x="97.11" y="37.24" width="3.73" height="49.98"/>
      </g>
      <polygon class="cls-12" points="97.83 39.14 98.98 86.59 100.13 82.71 100.13 37.86 97.83 39.14"/>
      <g class="cls-15">
        <rect class="cls-3" x="94.94" y="86.81" width="5.9" height="60.24"/>
      </g>
      <path class="cls-12" d="M98.98,87.44c-1.16,11.97-1.92,21.89-2.25,29.76-.34,7.87-.69,17.61-1.07,29.23l2.67-.99c.29-11.15.51-20.56.65-28.24.14-7.68.53-16.6,1.15-26.76l-1.15-3Z"/>
      <g class="cls-24">
        <rect class="cls-13" x="60.74" y="82.09" width="4.6" height="29.94"/>
      </g>
      <polygon class="cls-12" points="64.63 82.71 62.29 85.56 61.45 107.9 63.39 111.4 64.63 82.71"/>
      <g class="cls-25">
        <rect class="cls-13" x="60.74" y="110.77" width="3.37" height="40.88"/>
      </g>
      <polyline class="cls-12" points="63.39 111.4 63.39 146.42 61.45 151.02 61.45 116.71"/>
      <g class="cls-26">
        <rect class="cls-1" x="60.74" y="145.8" width="6.62" height="9.56"/>
      </g>
      <path class="cls-40" d="M63.39,146.42c-.1,2.33.12,3.73.66,4.22s1.4.8,2.59.92l-2.07,3.16-3.12-.95v-3.14l1.93-4.22Z"/>
      <g class="cls-27">
        <rect class="cls-2" x="63.86" y="150.4" width="31.23" height="8.12"/>
      </g>
      <path class="cls-43" d="M66.64,151.56c5.74,1.34,10.31,1.98,13.73,1.92,3.41-.06,8.08-.88,14-2.46v2.74c-4.38,2.29-8.9,3.57-13.58,3.85-4.68.28-10.08-.68-16.22-2.88l2.07-3.16Z"/>
      <g class="cls-28">
        <rect class="cls-3" x="93.65" y="144.8" width="5.39" height="9.58"/>
      </g>
      <path class="cls-40" d="M95.66,146.42l2.67-.99v6.55l-3.96,1.78v-2.74c.55-.14.91-.5,1.07-1.08s.23-1.76.21-3.52Z"/>
    </g>
  </g>
</svg>