<?xml version="1.0" encoding="UTF-8"?>
<svg id="Layer_2" data-name="Layer 2" xmlns="http://www.w3.org/2000/svg" xmlns:xlink="http://www.w3.org/1999/xlink" viewBox="0 0 282.09 205.57">
  <defs>
    <style>
      .cls-1 {
        clip-rule: evenodd;
      }

      .cls-1, .cls-2, .cls-3, .cls-4 {
        fill: #e5e3e1;
      }

      .cls-5 {
        stroke-width: 1.36px;
      }

      .cls-5, .cls-6, .cls-7, .cls-3, .cls-8, .cls-9 {
        fill-rule: evenodd;
      }

      .cls-5, .cls-10 {
        fill: none;
      }

      .cls-5, .cls-10, .cls-4 {
        stroke: #999;
        stroke-miterlimit: 10;
      }

      .cls-6, .cls-11 {
        fill: #bcb7bb;
      }

      .cls-7 {
        fill: #837e86;
      }

      .cls-12 {
        clip-path: url(#clippath-1);
      }

      .cls-13 {
        clip-path: url(#clippath-2);
      }

      .cls-10, .cls-4 {
        stroke-width: 2px;
      }

      .cls-14, .cls-9 {
        fill: #635d68;
      }

      .cls-15, .cls-8 {
        fill: #d9dadb;
      }

      .cls-16 {
        clip-path: url(#clippath);
      }
    </style>
    <clipPath id="clippath">
      <rect class="cls-4" x="233.07" y="2.86" width="8.25" height="117.47"/>
    </clipPath>
    <clipPath id="clippath-1">
      <rect class="cls-4" x="39.06" y="2.86" width="8.25" height="117.47"/>
    </clipPath>
    <clipPath id="clippath-2">
      <path id="Path-2" data-name="Path" class="cls-1" d="M8.29,97.13c-3.14,2.85-5.68,6.33-7.61,10.45v73.95c.62,5.43,2.67,9.58,6.14,12.43,3.47,2.85,9.09,5.75,16.87,8.69l73.64,1.4,7.39-3.72h18.15l9.06,3.72h17.43l4.52-2.7,3.13,1.97,98.85,1.58c7.58-1.35,13.45-4.27,17.6-8.77,4.15-4.5,6.23-9.36,6.23-14.59v-80.13c-1.72-4.07-3.79-6.98-6.23-8.71-2.43-1.74-6.23-3.1-11.39-4.1H25.08c-8.06,2.84-13.65,5.69-16.79,8.54Z"/>
    </clipPath>
  </defs>
  <g id="Layer_9" data-name="Layer 9">
    <g>
      <rect class="cls-2" x="233.07" y="2.86" width="8.25" height="117.47"/>
      <g class="cls-16">
        <rect class="cls-15" x="238.83" width="5.74" height="122.74"/>
        <rect class="cls-11" x="230.2" y="2.86" width="5.74" height="122.74"/>
      </g>
      <rect class="cls-10" x="233.07" y="2.86" width="8.25" height="117.47"/>
    </g>
    <g>
      <rect class="cls-2" x="39.06" y="2.86" width="8.25" height="117.47"/>
      <g class="cls-12">
        <rect class="cls-15" x="44.82" width="5.74" height="122.74"/>
        <rect class="cls-11" x="36.19" y="2.86" width="5.74" height="122.74"/>
      </g>
      <rect class="cls-10" x="39.06" y="2.86" width="8.25" height="117.47"/>
    </g>
    <g>
      <g>
        <path id="Path" class="cls-3" d="M8.29,97.13c-3.14,2.85-5.68,6.33-7.61,10.45v73.95c.62,5.43,2.67,9.58,6.14,12.43,3.47,2.85,9.09,5.75,16.87,8.69l73.64,1.4,7.39-3.72h18.15l9.06,3.72h17.43l4.52-2.7,3.13,1.97,98.85,1.58c7.58-1.35,13.45-4.27,17.6-8.77,4.15-4.5,6.23-9.36,6.23-14.59v-80.13c-1.72-4.07-3.79-6.98-6.23-8.71-2.43-1.74-6.23-3.1-11.39-4.1H25.08c-8.06,2.84-13.65,5.69-16.79,8.54Z"/>
        <g class="cls-13">
          <path id="Path-3" data-name="Path" class="cls-8" d="M260.01,88.59l-15.34,4.39-10.1,3.08h16.58c7.47.44,12.38,1.42,14.73,2.94,2.35,1.52,3.47,4.44,3.36,8.76l4.01,58.87,6.47,4.33v-69.55c2.54-3.24.22-9.59-4.04-10.19,0-1.93-7.97-3.55-15.67-2.62Z"/>
          <path id="Path-4" data-name="Path" class="cls-7" d="M273.25,166.63l6.47,4.33v12.9c-.8,3.16-1.58,5.41-2.33,6.76-1.78,3.21-4.07,6.02-5.92,7.48-1.89,1.49-5.59,3.94-9.8,5.39-1.66.57-3.77,1.04-6.33,1.41l-24.38-.36,7.83-5.68c14.59-.42,23.11-1.75,25.56-3.99,4.83-4.41,7.8-13.82,8.9-28.24Z"/>
          <polygon id="Path-5" data-name="Path" class="cls-8" points="239.47 96.06 30.51 96.67 25.11 88.59 260.01 88.59 239.47 96.06"/>
          <path id="Path-6" data-name="Path" class="cls-8" d="M30.52,96.67c-5.04,2.08-8.69,4.06-10.96,5.96-2.27,1.9-3.88,4.83-4.84,8.79l-14.02-3.84c2.74-5.22,5.7-9.06,8.88-11.52,3.18-2.46,8.36-4.95,15.53-7.47l5.41,8.08Z"/>
          <polygon id="Path-7" data-name="Path" class="cls-6" points="14.72 111.42 14.72 182.31 .7 179.62 .7 107.58 14.72 111.42"/>
          <polygon id="Path-8" data-name="Path" class="cls-9" points="123.02 200.35 131.97 204.05 149.36 204.05 153.88 201.35 123.02 200.35"/>
          <polygon id="Path-9" data-name="Path" class="cls-9" points="153.88 201.35 157.01 203.32 253.07 204.89 246.73 198.7 153.88 201.35"/>
          <path id="Path-10" data-name="Path" class="cls-6" d="M279.72,101.4l-10.56,3.43c1.16,19.97,2.16,35.32,3.01,46.05.85,10.73.63,20.39-.68,28.98l8.23-4.55v-73.9Z"/>
          <polygon id="Path-11" data-name="Path" class="cls-9" points="20.39 197.12 14.12 198.69 23.71 202.65 97.28 204.05 105.35 200.35 20.39 197.12"/>
          <path id="uuid-285a012f-e9b0-445e-8dca-aa969075a991" data-name="Path-2" class="cls-7" d="M14.72,182.31l-14.02-2.69c.01,2.22.14,3.88.39,4.99.47,2.11,1.53,4.6,2.26,5.85,1.31,2.24,4.9,4.99,10.77,8.23l6.27-1.57c-2.63-2.7-4.27-4.92-4.94-6.66-.67-1.74-.91-4.46-.74-8.15Z"/>
          <path id="Path-12" data-name="Path" class="cls-7" d="M278.28,122.38c.88,1.38,1.46,2.26,1.74,2.64.28.38.97,1.23,2.07,2.54l-1.36-1.08c-.7-.43-1.94-.98-3.72-1.65-1.78-.67-3.89-1.39-6.31-2.17l-30.63-22,1.4.32,28.86,20.79c2.94,1.03,4.89,1.58,5.84,1.65.96.07,1.66-.27,2.12-1.04Z"/>
          <path id="Path-13" data-name="Path" class="cls-6" d="M255.63,177.46c-1.02,1.01-1.6,1.86-1.74,2.53-.14.67.38,1.6,1.56,2.8,1.41,1.69,2.5,2.63,3.26,2.83.76.19,1.63-.25,2.61-1.33.95-.98,1.43-1.78,1.43-2.4,0-.62-.48-1.54-1.44-2.75-1.38-.95-2.38-1.52-2.99-1.71-.61-.19-1.51-.18-2.7.04Z"/>
          <path id="Path-14" data-name="Path" class="cls-6" d="M264.83,186.02c-.49-.75-.96-1.16-1.43-1.21-.47-.06-1.33.45-2.56,1.52-1.68,1.3-2.7,2.27-3.06,2.91-.36.64-.27,1.32.28,2.03.48.7.95,1.02,1.43.97.47-.05,1.3-.52,2.49-1.41,1.11-1.21,1.82-2.08,2.13-2.6s.56-1.25.72-2.21Z"/>
          <path id="Path-15" data-name="Path" class="cls-6" d="M255.38,191.52c1.06-1.66,1.63-2.95,1.69-3.89.06-.94-.69-2.04-2.26-3.3-1.92-1.86-3.35-2.81-4.28-2.85-.93-.04-1.9.81-2.9,2.54-.99,1.59-1.43,2.8-1.34,3.63.09.83.79,1.93,2.11,3.27,1.78.87,3.04,1.35,3.79,1.43.75.08,1.82-.2,3.19-.83Z"/>
          <path id="Path-16" data-name="Path" class="cls-6" d="M31.93,101.73c-1.56-.37-2.65-.48-3.26-.33-.61.14-.93.58-.94,1.31.06,1.74.37,2.88.95,3.41.57.53,1.86.89,3.87,1.06,2.09.46,3.49.64,4.2.55.71-.09,1.35-.53,1.91-1.32-.4-1.39-1-2.35-1.78-2.9-.78-.55-2.43-1.14-4.94-1.77Z"/>
          <path id="Path-17" data-name="Path" class="cls-6" d="M27.72,109.22c-.17-.69-.47-1.1-.91-1.24-.44-.14-1.14-.04-2.09.29-2.24.83-3.59,1.46-4.05,1.9-.46.44-.38,1.03.22,1.78.27.91.61,1.46,1.02,1.66.41.2,1.25.2,2.51.02,1.64-.78,2.65-1.42,3.04-1.94s.48-1.34.27-2.47Z"/>
          <path id="Path-18" data-name="Path" class="cls-6" d="M32.17,108.92c-.79-.16-1.38-.07-1.77.28-.39.35-.69,1.04-.91,2.09-.46,2.48-.6,4.03-.42,4.65s.81.83,1.91.62c1.06.17,1.81.1,2.25-.19.43-.29.92-1.07,1.46-2.33.16-1.89.09-3.13-.2-3.73s-1.07-1.06-2.32-1.39Z"/>
          <path class="cls-14" d="M223.98,195.14c.32.73,1.86,3.26,1.88,3.45.07.79-1.52.56-1.14,1.17.22.35,5.33,1.36,6.21,1.12.3.19-.04.63-.03.75.02.17.08.42.06.58.65.16,1.23.38,1.93.4-.99-2.04,1.37-3.27,2.66-4.67.31-.34.37-.23.17-.74-4.83,1.97-8.16,1.45-10.69-2.55l-3.57-5.03-12.51-4.33,10.41,5.04,4.61,4.8Z"/>
          <path class="cls-11" d="M199.14,98.78c.77,5.02,7.17,8.47,14.28,7.7,7.12-.77,12.26-5.47,11.49-10.49l-24.79-.21-.98,3.01Z"/>
          <path class="cls-14" d="M68.31,187.1c-.48.31-2.28,5.83-2.68,6.74-.54,1.23-3.1,3.9-2.21,5.24-3.89.65-9.1,1.7-13.01,1.73-.48,0-1.75-.38-1.84-.38l.13-.18c2.31-1.03,4.2-3.7,6.16-4.85,1.65-.96,3.84-.64,5.13-1.27,1.36-.66,7.08-6.58,7.68-7.83,5.37.32,10.67-1.23,15.94-4-4.66,3.56-9.81,4.96-15.3,4.8Z"/>
          <path class="cls-11" d="M80.19,189.15c-2.07,6.14-7.44,7.01-14.1,8.19l14.1-8.19Z"/>
        </g>
      </g>
      <path id="Path-19" data-name="Path" class="cls-5" d="M8.29,97.13c-3.14,2.85-5.68,6.33-7.61,10.45v73.95c.62,5.43,2.67,9.58,6.14,12.43,3.47,2.85,9.09,5.75,16.87,8.69l73.64,1.4,7.39-3.72h18.15l9.06,3.72h17.43l4.52-2.7,3.13,1.97,98.85,1.58c7.58-1.35,13.45-4.27,17.6-8.77,4.15-4.5,6.23-9.36,6.23-14.59v-80.13c-1.72-4.07-3.79-6.98-6.23-8.71-2.43-1.74-6.23-3.1-11.39-4.1H25.08c-8.06,2.84-13.65,5.69-16.79,8.54Z"/>
    </g>
  </g>
</svg>