<?xml version="1.0" encoding="UTF-8"?>
<svg id="Layer_2" data-name="Layer 2" xmlns="http://www.w3.org/2000/svg" xmlns:xlink="http://www.w3.org/1999/xlink" viewBox="0 0 262.63 397.78">
  <defs>
    <style>
      .cls-1 {
        fill: #891210;
      }

      .cls-2 {
        fill: #b5ab95;
      }

      .cls-2, .cls-3, .cls-4, .cls-5, .cls-6, .cls-7, .cls-8, .cls-9, .cls-10, .cls-11, .cls-12 {
        stroke-miterlimit: 10;
      }

      .cls-2, .cls-6, .cls-12 {
        stroke: #b7b3ab;
        stroke-width: 1.34px;
      }

      .cls-3, .cls-4, .cls-5, .cls-7, .cls-12 {
        fill: none;
      }

      .cls-3, .cls-4, .cls-7, .cls-9, .cls-10, .cls-11 {
        stroke: #e5d4c1;
      }

      .cls-3, .cls-10 {
        stroke-width: 1.84px;
      }

      .cls-4, .cls-9 {
        stroke-width: 1.84px;
      }

      .cls-5, .cls-8 {
        stroke: #c6c6c6;
        stroke-width: 2.04px;
      }

      .cls-13 {
        fill: #8e663f;
      }

      .cls-6, .cls-14 {
        fill: #cdc5b0;
      }

      .cls-7, .cls-11 {
        stroke-width: 1.77px;
      }

      .cls-15 {
        clip-path: url(#clippath-11);
      }

      .cls-16 {
        clip-path: url(#clippath-10);
      }

      .cls-17 {
        fill: #ddd;
      }

      .cls-18 {
        clip-path: url(#clippath-1);
      }

      .cls-19 {
        clip-path: url(#clippath-3);
      }

      .cls-20 {
        clip-path: url(#clippath-4);
      }

      .cls-21 {
        clip-path: url(#clippath-2);
      }

      .cls-22 {
        clip-path: url(#clippath-7);
      }

      .cls-23 {
        clip-path: url(#clippath-6);
      }

      .cls-24 {
        clip-path: url(#clippath-8);
      }

      .cls-25 {
        clip-path: url(#clippath-5);
      }

      .cls-8, .cls-26 {
        fill: #f9f9f9;
      }

      .cls-27, .cls-28 {
        opacity: .2;
      }

      .cls-27, .cls-29 {
        fill: #7f5c36;
      }

      .cls-30, .cls-9, .cls-10, .cls-11 {
        fill: #f9ecdc;
      }

      .cls-31 {
        fill: #e25550;
      }

      .cls-32 {
        fill: #191918;
      }

      .cls-33 {
        fill: #f6f3ff;
        opacity: .3;
      }

      .cls-34 {
        opacity: .1;
      }

      .cls-34, .cls-28 {
        fill: #20164c;
      }

      .cls-35 {
        fill: #0c0812;
      }

      .cls-36 {
        fill: #b33c33;
      }

      .cls-37 {
        clip-path: url(#clippath);
      }
    </style>
    <clipPath id="clippath">
      <path class="cls-10" d="M130.73,296.82c21.25,61.19,53.53,57.68,50.13,73.47-16.1,9.37-11.25,14.96-13.05,21.33-.71,2.5,1.7,4.91,5.1,5.07,30.98,1.45,53.18-6.34,52.52-28.84,1.73-23.58-6.79-44.97-33.34-62.49l-61.36-8.54Z"/>
    </clipPath>
    <clipPath id="clippath-1">
      <path class="cls-10" d="M134.14,296.82c-21.25,61.19-53.53,57.68-50.13,73.47,16.1,9.37,11.25,14.96,13.05,21.33.71,2.5-1.7,4.91-5.1,5.07-30.98,1.45-53.18-6.34-52.52-28.84-1.73-23.58,6.79-44.97,33.34-62.49l61.36-8.54Z"/>
    </clipPath>
    <clipPath id="clippath-2">
      <path class="cls-10" d="M55.71,190.22c-60.96,120.22-42.96,178.92,80.37,178.7,83.69.47,152.8-36.35,63.72-184.9l-144.09,6.2Z"/>
    </clipPath>
    <clipPath id="clippath-3">
      <path class="cls-6" d="M13.63,276.41c63.53,39.16,181.09,24.85,233.81-2.27l.12,26.05c-32.85,17.57-73.86,43.95-78.26,80.21h-66.4c-8-31.87-54.24-57.8-91.81-82.39l2.54-21.6Z"/>
    </clipPath>
    <clipPath id="clippath-4">
      <path class="cls-11" d="M28.71,136.46c-15.45-7.04-8.89-53.44-23.26-60.29-1.19-.57-3.07,1.54-2.79,2.84,3.27,15.5-15.34,95.03,36.42,96.39l-10.36-38.94Z"/>
    </clipPath>
    <clipPath id="clippath-5">
      <path class="cls-11" d="M228.88,131.2c16.18-5.13,15.26-51.98,30.35-57.05,1.25-.42,2.86,1.9,2.43,3.15-5.11,15,3.78,96.19-47.76,91.3l14.98-37.41Z"/>
    </clipPath>
    <clipPath id="clippath-6">
      <path class="cls-9" d="M25.98,87.13c-15.51,55.52,2.78,94,45.14,131,22.87,21.06,89.91,27,123.14-8.96,31.83-42.3,47.82-73.62,42.89-116.11C218.75,24.42,170.75-7.33,102.75,2.75c-9.2,2.72-19.31,7.62-29.87,13.6-9.86,5.58-18.55,13.28-25.35,22.67-9.31,12.84-17.12,31.9-21.55,48.11Z"/>
    </clipPath>
    <clipPath id="clippath-7">
      <circle class="cls-8" cx="187.06" cy="123.36" r="30.56"/>
    </clipPath>
    <clipPath id="clippath-8">
      <circle class="cls-8" cx="81.3" cy="125.16" r="32.48"/>
    </clipPath>
    <clipPath id="clippath-10">
      <path class="cls-10" d="M224,254.23c-3.84,42.2-19.57,40.43-33.4,24.02-1.49-1.76-4.28-1.45-5.31.62-20.11,40.37-38.03,7.92-30.87-14.16,5.14-17.88,23.15-16.6,42.41-1.11,3.05,2.45,7.63,1.27,9.09-2.36,3.95-9.86,6.71-22.37,7.98-38.14-.38-7-1.55-14.05-3.82-21.16,10.89,7.87,18.26,21.13,13.91,52.29Z"/>
    </clipPath>
    <clipPath id="clippath-11">
      <path class="cls-10" d="M33.76,259.05c3.84,42.2,19.57,40.43,33.4,24.02,1.49-1.76,4.28-1.45,5.31.62,20.11,40.37,38.03,7.92,30.87-14.16-5.14-17.88-23.15-16.6-42.41-1.11-3.05,2.45-7.63,1.27-9.09-2.36-3.95-9.86-6.71-22.37-7.98-38.14.38-7,1.55-14.05,3.82-21.16-10.89,7.87-18.26,21.13-13.91,52.29Z"/>
    </clipPath>
  </defs>
  <g id="mini-mini">
    <g>
      <g>
        <path class="cls-30" d="M130.73,296.82c21.25,61.19,53.53,57.68,50.13,73.47-16.1,9.37-11.25,14.96-13.05,21.33-.71,2.5,1.7,4.91,5.1,5.07,30.98,1.45,53.18-6.34,52.52-28.84,1.73-23.58-6.79-44.97-33.34-62.49l-61.36-8.54Z"/>
        <g class="cls-37">
          <path class="cls-34" d="M233.89,374.34c-32.02-6.46-60.94-6.4-83.59,6.9l13.47-36.27,81.26-6.34-11.15,35.7Z"/>
        </g>
        <path class="cls-3" d="M130.73,296.82c21.25,61.19,53.53,57.68,50.13,73.47-16.1,9.37-11.25,14.96-13.05,21.33-.71,2.5,1.7,4.91,5.1,5.07,30.98,1.45,53.18-6.34,52.52-28.84,1.73-23.58-6.79-44.97-33.34-62.49l-61.36-8.54Z"/>
      </g>
      <g>
        <path class="cls-30" d="M134.14,296.82c-21.25,61.19-53.53,57.68-50.13,73.47,16.1,9.37,11.25,14.96,13.05,21.33.71,2.5-1.7,4.91-5.1,5.07-30.98,1.45-53.18-6.34-52.52-28.84-1.73-23.58,6.79-44.97,33.34-62.49l61.36-8.54Z"/>
        <g class="cls-18">
          <path class="cls-34" d="M30.97,374.34c32.02-6.46,60.94-6.4,83.59,6.9l-13.47-36.27-81.26-6.34,11.15,35.7Z"/>
        </g>
        <path class="cls-3" d="M134.14,296.82c-21.25,61.19-53.53,57.68-50.13,73.47,16.1,9.37,11.25,14.96,13.05,21.33.71,2.5-1.7,4.91-5.1,5.07-30.98,1.45-53.18-6.34-52.52-28.84-1.73-23.58,6.79-44.97,33.34-62.49l61.36-8.54Z"/>
      </g>
      <g>
        <path class="cls-30" d="M55.71,190.22c-60.96,120.22-42.96,178.92,80.37,178.7,83.69.47,152.8-36.35,63.72-184.9l-144.09,6.2Z"/>
        <g class="cls-21">
          <path class="cls-34" d="M179.1,371.04c9.94-29.21,44.57-53.27,69.47-63.7l-3.92-11.97-65.55,19.11-26.28,56.55h26.28Z"/>
          <path class="cls-34" d="M93.67,373.61c-14.49-25.69-56.08-52.39-84.48-67.64l4.76-12.71,79.71,20.3,31.96,60.05h-31.96Z"/>
          <g>
            <path class="cls-14" d="M13.63,276.41c63.53,39.16,181.09,24.85,233.81-2.27l.12,26.05c-32.85,17.57-73.86,43.95-78.26,80.21h-66.4c-8-31.87-54.24-57.8-91.81-82.39l2.54-21.6Z"/>
            <g class="cls-19">
              <path class="cls-2" d="M253.95,290.3c-83.2,34-167.57,34.04-253.28,0v-21.6c87.6,32.5,172.32,35.54,253.28,0v21.6Z"/>
            </g>
            <path class="cls-12" d="M13.63,276.41c63.53,39.16,181.09,24.85,233.81-2.27l.12,26.05c-32.85,17.57-73.86,43.95-78.26,80.21h-66.4c-8-31.87-54.24-57.8-91.81-82.39l2.54-21.6Z"/>
          </g>
          <ellipse class="cls-34" cx="128.11" cy="196.53" rx="76.61" ry="48.84"/>
        </g>
        <path class="cls-3" d="M55.71,190.22c-60.96,120.22-42.96,178.92,80.37,178.7,83.69.47,152.8-36.35,63.72-184.9l-144.09,6.2Z"/>
      </g>
      <g>
        <path class="cls-30" d="M28.71,136.46c-15.45-7.04-8.89-53.44-23.26-60.29-1.19-.57-3.07,1.54-2.79,2.84,3.27,15.5-15.34,95.03,36.42,96.39l-10.36-38.94Z"/>
        <g class="cls-20">
          <path class="cls-34" d="M61.03,184l-32.28,4.74c-14.8-27.53-17.8-56.61-12.74-86.76l32.28-4.74,12.74,86.76Z"/>
        </g>
        <path class="cls-7" d="M28.71,136.46c-15.45-7.04-8.89-53.44-23.26-60.29-1.19-.57-3.07,1.54-2.79,2.84,3.27,15.5-15.34,95.03,36.42,96.39l-10.36-38.94Z"/>
      </g>
      <g>
        <path class="cls-30" d="M228.88,131.2c16.18-5.13,15.26-51.98,30.35-57.05,1.25-.42,2.86,1.9,2.43,3.15-5.11,15,3.78,96.19-47.76,91.3l14.98-37.41Z"/>
        <g class="cls-25">
          <path class="cls-34" d="M191.08,174.51l31.47,8.59c18.01-25.54,24.49-54.05,23.1-84.59l-31.47-8.59-23.1,84.59Z"/>
        </g>
        <path class="cls-7" d="M228.88,131.2c16.18-5.13,15.26-51.98,30.35-57.05,1.25-.42,2.86,1.9,2.43,3.15-5.11,15,3.78,96.19-47.76,91.3l14.98-37.41Z"/>
      </g>
      <g>
        <path class="cls-30" d="M25.98,87.13c-15.51,55.52,2.78,94,45.14,131,22.87,21.06,89.91,27,123.14-8.96,31.83-42.3,47.82-73.62,42.89-116.11C218.75,24.42,170.75-7.33,102.75,2.75c-9.2,2.72-19.31,7.62-29.87,13.6-9.86,5.58-18.55,13.28-25.35,22.67-9.31,12.84-17.12,31.9-21.55,48.11Z"/>
        <g class="cls-23">
          <g>
            <path class="cls-28" d="M167.66,83.12c-2.92,19.72,20.56,24.16,38.57,4.12l-38.57-4.12Z"/>
            <path class="cls-35" d="M167.77,87.65c-1.85-20.03,12.07-20.03,41.74.02,1.64,1.1.91,3.51-1.15,3.84-9.83,1.58-22.9-.79-34.9.31-2.9.27-5.45-1.54-5.69-4.17Z"/>
          </g>
          <g>
            <path class="cls-28" d="M100.8,83.68c1.54,21.6-24.21,24.52-42.05,1.36l42.05-1.36Z"/>
            <path class="cls-35" d="M101.96,88.86c3.11-20.51-11.72-21.57-44.49-3.2-1.81,1.01-1.17,3.55,1.01,4.05,10.39,2.38,24.46.95,37.18,3.01,3.08.5,5.9-1.17,6.3-3.86Z"/>
          </g>
          <circle class="cls-28" cx="186.82" cy="127.29" r="31.79"/>
          <ellipse class="cls-28" cx="79.18" cy="128.92" rx="33.91" ry="32.52"/>
          <g>
            <circle class="cls-26" cx="187.06" cy="123.36" r="30.56"/>
            <g class="cls-22">
              <ellipse class="cls-17" cx="184.65" cy="148.59" rx="25.74" ry="14.25"/>
              <circle class="cls-32" cx="172.6" cy="117" r="9.3"/>
            </g>
            <circle class="cls-5" cx="187.06" cy="123.36" r="30.56"/>
          </g>
          <g>
            <circle class="cls-26" cx="81.3" cy="125.16" r="32.48"/>
            <g class="cls-24">
              <ellipse class="cls-17" cx="90.91" cy="150.52" rx="33.51" ry="17.17" transform="translate(-46.47 40.76) rotate(-20.25)"/>
              <circle class="cls-32" cx="94.14" cy="115.9" r="10.81"/>
            </g>
            <circle class="cls-5" cx="81.3" cy="125.16" r="32.48"/>
          </g>
          <g>
            <path class="cls-27" d="M139.51,170.09c-4.6-1.39-9.48-.57-14.54,1.61l-3.15,6.99c3.35,2.46,9.29,4.24,13.52,2.68,5.43-2,8.47-8.17,4.17-11.28Z"/>
            <path class="cls-13" d="M131,118.37c1.3,3.67,2.38,7.42,2.92,11.24.37,6.39.07,12.94-1.05,19.31-1.74,10.27-5.26,20.34-9.68,30.12l-.34-1.04c4.51,2.83,10.48,5.09,15.14.79,2.85-2.23,4.77-6.31,1.53-8.7,3.88,1.85,3.07,6.35.8,9.12-1.58,2.09-4.39,3.62-7.42,3.87-4.71.28-9.36-1.83-12.74-4.01,4.51-9.88,8.62-20,10.37-30.32,1.06-6.3,1.47-12.65.97-18.94-.03-3.67-.13-7.78-.48-11.44h0Z"/>
          </g>
          <ellipse class="cls-31" cx="59.52" cy="188.05" rx="18.51" ry="20.9" transform="translate(-137.16 203.01) rotate(-76.78)"/>
          <path class="cls-31" d="M208.11,202.25c-6.24,8.73-13.59,7.74-18.3-.5-4.72-8.24-18.32-12.2-12.08-20.93,6.24-8.73,20.07-8.43,29.52-4.43,9.46,4,7.1,17.13.86,25.86Z"/>
          <path class="cls-29" d="M157.84,167.12c-1,5.46.85,11.25,1.3,16.8.54,7.5,1.85,13.12,8.37,16.8-2.97-1.21-5.79-3.03-7.91-5.57-6.59-7.8-4.76-19.11-1.76-28.04h0Z"/>
          <path class="cls-29" d="M105.61,175.79c3.49,5.5,5.79,13.17,1.14,18.77-1.51,1.76-7.26,5.19-5.58,3.73,6.92-6.02,5.5-14.48,4.17-22.86l.28.36Z"/>
          <path class="cls-1" d="M109.15,186.24c-5.15,32.23,42.19,45.77,47.54-14.99-10.31,34.91-40.31,37.98-47.54,14.99Z"/>
          <path class="cls-36" d="M132.96,210.95c7.97,6.69,6.64,15.78,11.17,21.6,1.25,1.6,3.66,1.69,4.96.13,7.7-9.25,7.66-18.6-3.88-31.91-4.79-.51-8.13,3.19-12.38,7.7-.67.71-.62,1.85.13,2.48Z"/>
          <path class="cls-34" d="M38.51,48.94c-16.14,72.06,3.02,131.02,40.16,157.04,32.72,22.92,82.5,21.39,145.93,8.48l-102.24,40.1C5.03,234.19-12.62,153.41,38.51,48.94Z"/>
          <path class="cls-28" d="M191.62,164.7c16.5,1.73,27.58-5.23,32.32-22.41-7.95,14.12-18.98,20.98-32.32,22.41Z"/>
          <path class="cls-28" d="M70.93,164.67c-16.19,1.88-27.07-5.7-31.71-24.39,7.8,15.37,18.63,22.84,31.71,24.39Z"/>
        </g>
        <path class="cls-4" d="M25.98,87.13c-15.51,55.52,2.78,94,45.14,131,22.87,21.06,89.91,27,123.14-8.96,31.83-42.3,47.82-73.62,42.89-116.11C218.75,24.42,170.75-7.33,102.75,2.75c-9.2,2.72-19.31,7.62-29.87,13.6-9.86,5.58-18.55,13.28-25.35,22.67-9.31,12.84-17.12,31.9-21.55,48.11Z"/>
      </g>
      <path class="cls-34" d="M226.84,260.52c-3.84,42.2-19.57,40.43-33.4,24.02-1.49-1.76-4.28-1.45-5.31.62-20.11,40.37-38.03,7.92-30.87-14.16,5.14-17.88,23.15-16.6,42.41-1.11,3.05,2.45,7.63,1.27,9.09-2.36,3.95-9.86,6.71-22.37,7.98-38.14-.38-7,.64-11.4-1.62-18.51,9.48,10.97,14.44,22.07,11.72,49.64Z"/>
      <path class="cls-34" d="M33.42,264.87c3.84,42.2,19.57,40.43,33.4,24.02,1.49-1.76,4.28-1.45,5.31.62,20.11,40.37,38.03,7.92,30.87-14.16-5.14-17.88-23.15-16.6-42.41-1.11-3.05,2.45-7.63,1.27-9.09-2.36-3.95-9.86-6.71-22.37-7.98-38.14.38-7,.22-12.47,2.49-19.58-9.48,10.97-15.3,23.14-12.58,50.71Z"/>
      <g>
        <path class="cls-30" d="M224,254.23c-3.84,42.2-19.57,40.43-33.4,24.02-1.49-1.76-4.28-1.45-5.31.62-20.11,40.37-38.03,7.92-30.87-14.16,5.14-17.88,23.15-16.6,42.41-1.11,3.05,2.45,7.63,1.27,9.09-2.36,3.95-9.86,6.71-22.37,7.98-38.14-.38-7-1.55-14.05-3.82-21.16,10.89,7.87,18.26,21.13,13.91,52.29Z"/>
        <g class="cls-16">
          <path class="cls-33" d="M146.7,279.75c18.64-44.71,53.05,10.8,64.49-13.98,7.41-17.1,11.18-39.51,8.65-70.49l-20.09-3.85-17.16,51.78c-28.32-.81-41.88,10.1-35.9,36.53Z"/>
        </g>
        <path class="cls-3" d="M224,254.23c-3.84,42.2-19.57,40.43-33.4,24.02-1.49-1.76-4.28-1.45-5.31.62-20.11,40.37-38.03,7.92-30.87-14.16,5.14-17.88,23.15-16.6,42.41-1.11,3.05,2.45,7.63,1.27,9.09-2.36,3.95-9.86,6.71-22.37,7.98-38.14-.38-7-1.55-14.05-3.82-21.16,10.89,7.87,18.26,21.13,13.91,52.29Z"/>
      </g>
      <g>
        <path class="cls-30" d="M33.76,259.05c3.84,42.2,19.57,40.43,33.4,24.02,1.49-1.76,4.28-1.45,5.31.62,20.11,40.37,38.03,7.92,30.87-14.16-5.14-17.88-23.15-16.6-42.41-1.11-3.05,2.45-7.63,1.27-9.09-2.36-3.95-9.86-6.71-22.37-7.98-38.14.38-7,1.55-14.05,3.82-21.16-10.89,7.87-18.26,21.13-13.91,52.29Z"/>
        <g class="cls-15">
          <path class="cls-33" d="M111.06,284.57c-18.64-44.71-53.05,10.8-64.49-13.98-7.41-17.1-11.18-39.51-8.65-70.49l20.09-3.85,17.16,51.78c28.32-.81,41.88,10.1,35.9,36.53Z"/>
        </g>
        <path class="cls-3" d="M33.76,259.05c3.84,42.2,19.57,40.43,33.4,24.02,1.49-1.76,4.28-1.45,5.31.62,20.11,40.37,38.03,7.92,30.87-14.16-5.14-17.88-23.15-16.6-42.41-1.11-3.05,2.45-7.63,1.27-9.09-2.36-3.95-9.86-6.71-22.37-7.98-38.14.38-7,1.55-14.05,3.82-21.16-10.89,7.87-18.26,21.13-13.91,52.29Z"/>
      </g>
    </g>
  </g>
</svg>