<?xml version="1.0" encoding="UTF-8"?>
<svg id="Layer_2" data-name="Layer 2" xmlns="http://www.w3.org/2000/svg" xmlns:xlink="http://www.w3.org/1999/xlink" viewBox="0 0 205.66 309.83">
  <defs>
    <style>
      .cls-1, .cls-2, .cls-3, .cls-4, .cls-5, .cls-6, .cls-7, .cls-8, .cls-9, .cls-10, .cls-11, .cls-12, .cls-13, .cls-14 {
        stroke-miterlimit: 10;
      }

      .cls-1, .cls-2, .cls-5, .cls-8, .cls-9, .cls-13, .cls-14 {
        fill: none;
      }

      .cls-1, .cls-6 {
        stroke: #c6c6c6;
        stroke-width: .63px;
      }

      .cls-15 {
        fill: #891210;
      }

      .cls-2, .cls-10 {
        stroke: #4b4b4b;
        stroke-width: 5.64px;
      }

      .cls-16, .cls-7 {
        fill: #eeeaf8;
      }

      .cls-3, .cls-4, .cls-7, .cls-8, .cls-9, .cls-12, .cls-13, .cls-14 {
        stroke-width: .94px;
      }

      .cls-3, .cls-4, .cls-17 {
        fill: #231d2d;
      }

      .cls-3, .cls-14 {
        stroke: #191721;
      }

      .cls-4, .cls-8 {
        stroke: #1f1b28;
      }

      .cls-18 {
        fill: #e8d9ff;
        opacity: .1;
      }

      .cls-5, .cls-11 {
        stroke: #898989;
        stroke-width: 1.62px;
      }

      .cls-6, .cls-19 {
        fill: #f9f9f9;
      }

      .cls-7, .cls-13 {
        stroke: #cdcad8;
      }

      .cls-20, .cls-12 {
        fill: #f8fbfe;
      }

      .cls-21 {
        clip-path: url(#clippath-11);
      }

      .cls-22 {
        clip-path: url(#clippath-10);
      }

      .cls-23 {
        clip-path: url(#clippath-13);
      }

      .cls-24 {
        clip-path: url(#clippath-12);
      }

      .cls-25 {
        fill: #ddd;
      }

      .cls-26 {
        clip-path: url(#clippath-1);
      }

      .cls-27 {
        clip-path: url(#clippath-3);
      }

      .cls-28 {
        clip-path: url(#clippath-4);
      }

      .cls-29 {
        clip-path: url(#clippath-2);
      }

      .cls-30 {
        clip-path: url(#clippath-7);
      }

      .cls-31 {
        clip-path: url(#clippath-6);
      }

      .cls-32 {
        clip-path: url(#clippath-9);
      }

      .cls-33 {
        clip-path: url(#clippath-8);
      }

      .cls-34 {
        clip-path: url(#clippath-5);
      }

      .cls-35 {
        fill: #e25550;
      }

      .cls-36 {
        fill: #fff;
      }

      .cls-37 {
        fill: #191918;
      }

      .cls-38 {
        fill: #7e7b86;
      }

      .cls-9, .cls-12 {
        stroke: #d1d1d1;
      }

      .cls-39 {
        fill: #e5e1df;
      }

      .cls-10 {
        fill: #4b4b4b;
      }

      .cls-40 {
        fill: #f0ebff;
      }

      .cls-40, .cls-41 {
        opacity: .2;
      }

      .cls-42, .cls-43, .cls-41 {
        fill: #20164c;
      }

      .cls-42, .cls-44 {
        opacity: .15;
      }

      .cls-43 {
        opacity: .4;
      }

      .cls-45 {
        fill: #bab5bc;
      }

      .cls-11, .cls-46 {
        fill: #a5a5a3;
      }

      .cls-47 {
        fill: #0c0812;
      }

      .cls-48 {
        fill: #b33c33;
      }

      .cls-44 {
        fill: #d7c5ff;
      }

      .cls-49 {
        clip-path: url(#clippath);
      }

      .cls-50 {
        fill: #898989;
      }
    </style>
    <clipPath id="clippath">
      <rect class="cls-11" x="7.88" y="42.95" width="190.65" height="262.38" rx="16.29" ry="16.29"/>
    </clipPath>
    <clipPath id="clippath-1">
      <rect class="cls-39" x="14.02" y="42.95" width="178.37" height="245.48" rx="15.25" ry="15.25"/>
    </clipPath>
    <clipPath id="clippath-2">
      <path class="cls-3" d="M101.12,11.03c-31.92.64-62.3,27.1-62.57,55.19-1.31,21.15,2.88,32.8.43,46.31-.48,33.12,6.88,26.01,11.06,42.33-1.4-8.23-2.71-16.18-3.05-21.19,5.05,11.45,9.58,23.92,7.69,33.54-2.1,10.64,1.29,14.87-.4,20.65,2.8-4.09,4.09-9.3,2.88-16.38,3.88,18.42,10.32,34.06,18.95,47.32-6.68-13.87-10.58-28.99-11.75-45.33,4.03,12.18,8.04,23.49,11.99,30.7h58.28c4.1-10.06,8.04-20.09,7.35-29.29,1.98,6.36,1.59,14.01.77,21.89,3.19-5.85,5.17-11.77,5.18-17.81,3.19,9.95-.23,23.02-1.22,34.32,6.68-23.92,14.51-51.23,10.82-87.53-.07-.69-.13-1.38-.16-2.08-1.64-35.99,6.01-73.44-6.03-91.39-11.15-16.86-27.02-21.24-44.19-21.52,4.06-4.72,14.01-6.51,11.83-7.33-7.28-1.79-12.38,2.65-15.41,8.27-1.78-8.25-7.64-8.29-13.03-6.64-.71.22-.79,1.18-.13,1.53,3.23,1.7,8.54,1.98,10.72,4.44Z"/>
    </clipPath>
    <clipPath id="clippath-3">
      <path class="cls-12" d="M96.17,118.95c1.21,6.59-2.07,11.31-5.86,16.84,13.57,6.38,24.19,7.92,26.01-5.01-3.88-3.51-5.85-7.78-4.79-12.89l-15.35,1.05Z"/>
    </clipPath>
    <clipPath id="clippath-4">
      <path class="cls-12" d="M153.78,75.83c0,17.2-8.11,33.32-24.57,41.22-7.79,3.74-19.19,4.03-30.5,4.77-44.51,2.89-47.1-9.26-52.22-45.99-3.5-25.11,24.02-45.9,53.65-45.9s53.65,20.55,53.65,45.9Z"/>
    </clipPath>
    <clipPath id="clippath-5">
      <circle class="cls-6" cx="118.86" cy="80.14" r="14.54"/>
    </clipPath>
    <clipPath id="clippath-6">
      <circle class="cls-6" cx="73.79" cy="87.01" r="14.86"/>
    </clipPath>
    <clipPath id="clippath-7">
      <path class="cls-12" d="M130.24,237.97l-22.24,2.98c1.44,14.5,15.88,19.76,21.26,28.62-3.22,1.22-.24,6.8-7.63,7.59-.74.08-.46.85-.38,1.6.17,1.66,1.13,3.17,2.66,3.84,7.8,3.41,21.59-2.92,26.14-12.08-.09-2.19-5.68-4.14-7.23-9.77-2.63-9.21-7.05-15.97-12.57-22.78Z"/>
    </clipPath>
    <clipPath id="clippath-8">
      <path class="cls-12" d="M104.16,237.97c-7.49,28.77-18.87,27.12-17.67,34.54,5.67,4.4,3.96,7.03,4.6,10.03.25,1.17-.6,2.31-1.8,2.39-10.92.68-18.74-2.98-18.51-13.56-.61-11.09,2.39-21.14,11.75-29.38l21.62-4.02Z"/>
    </clipPath>
    <clipPath id="clippath-9">
      <path class="cls-4" d="M84.63,45.43c-2.41,27.02,10.57,24.34,12.44,54.07,3.45-24.5-9.64-39.9,6.11-57.24-5.14,11.41,2.48,24.11,2.22,36.82,8.34-18.81,3.44-26.72,9.74-36.24-.9,6.74-.58,11.97,1.09,15.53.04-6.27,1.34-10.64,3.37-14.42-2.28,15.5,14.55,11.8,19.65,35.39-1.2-5.66-1.48-10.84-.82-15.53,7.11,23.62,5.26,44.93,2.55,61.04l5.92-19.29c2.21,10.45,2.3,30.07,2.48,49.3,4.91-24.41,8.51-53.2,4.4-88.73-9.18-32.03-28.1-40-52.13-39.71-22.85.71-35.17,6.9-48.12,21.66-6.89,11.22-13.37,32.42-7.33,61.85,3.48,17.98,8.74,33.36,14.94,47.38,5.18-20.24-7.17-29.28-1.57-47.23-.99,19.32,6.24,23.72,8.84,36.14-7.92-37.42,2.63-26.01-2.74-51.61-4.36-25.24,3.36-23.36,3.62-40.19,1.97,11.98,8.43,6.29,7.45,30.08,2.69-7.15,2.6-17.77,1.33-19.58-1.28-1.81-1.32-8.3,1.62-14.13-.99,7.94,3.36,10.88,4.08,17.1,1.37-6.95-3.28-12.05.88-22.46Z"/>
    </clipPath>
    <clipPath id="clippath-10">
      <path class="cls-7" d="M64.83,164.84c-2.45,18.19,2.22,31.64,7.15,44.31,11.32-6.81,14.14-32.14,10.52-65.15-3.29-4.58-10.05,10.34-17.67,20.84Z"/>
    </clipPath>
    <clipPath id="clippath-11">
      <path class="cls-7" d="M95.65,126.34c-1.64,9.91,14.35,15.29,17.42.61,9.98-1.42,12.52-5.92,21.16,4.16,7.09,7.53,13.08,14,18.43,20.51,1.84,2.24,2.95,4.98,3.21,7.86,1.87,20.36,8.78,27.39,10.17,41-7.7-14.42-18.94-23.93-32.59-30.12-.77,2.43-.39,5.75.36,8.66,3.23,6.96,8.19,13.81,7.87,20.29,24.79,28.85,44.98,48.55,44.98,87.59-10.79-36.65-21.9-22.9-35.25-38.13-44.47,2.24-63.82,40.6-90.65,6.48-8.26,5.89-12.84,15.03-16.56,24.94,1.55-44.05,20.84-55.08,31.18-84.34,5.01-12.23,7.06-23.79,4.8-34.38-6.7-21.38.85-34.51,15.47-35.14Z"/>
    </clipPath>
    <clipPath id="clippath-12">
      <path class="cls-12" d="M148.19,160.68c-9.54-8.52-11.07-1.74-19.09-4.96-1.2-.61-2.75-1.22-3.97-2.47-.78-.81-1.27-1.86-1.48-2.97-2.53-13.06-11.39-5.85-11.91.3-.41,4.81,2.52,8.89,5.48,8.38.82-.14,1.65-.23,2.47-.13,2.87.32,5.28,1.73,6.96,4.85,5.93,11.17,21.97,10.52,23.54,2.7.42-2.1-.39-4.27-1.99-5.7Z"/>
    </clipPath>
    <clipPath id="clippath-13">
      <path class="cls-12" d="M70.45,153.23c-5,4.44-10.29,7.31-9.64,14.41.11,1.19.79,2.27,1.84,2.84,1.73.94,3.89,1.28,6.38.77,1.72-.35,3.24-1.34,4.22-2.79,2.46-3.61,3.94-9.34,5.56-13.6,2.01-3.6,3.14-6.73,2.24-7.58-2.81-1.25-1.5,5.08-3.92,3.6-1-5.5,4.81-5.01,5.36-6.88.6-3.41-2.68-5.86-5.44-4.64-6.29,3.64-9.2,6.32-6.22,11.25.52.86.36,1.95-.38,2.62Z"/>
    </clipPath>
  </defs>
  <g id="Layer_9" data-name="Layer 9">
    <g>
      <g>
        <rect class="cls-46" x="7.88" y="42.95" width="190.65" height="262.38" rx="16.29" ry="16.29"/>
        <g class="cls-49">
          <polygon class="cls-38" points="0 309.83 17.39 277.24 181.59 277.24 205.66 309.83 0 309.83"/>
        </g>
        <rect class="cls-5" x="7.88" y="42.95" width="190.65" height="262.38" rx="16.29" ry="16.29"/>
      </g>
      <g>
        <rect class="cls-39" x="14.02" y="42.95" width="178.37" height="245.48" rx="15.25" ry="15.25"/>
        <g class="cls-26">
          <rect class="cls-45" x="20.38" y="48.44" width="178.37" height="245.48" rx="15.25" ry="15.25"/>
          <path class="cls-40" d="M198.53,135.73c0-76.37-190.65-76.37-190.65,0V35.91s190.65,0,190.65,0v99.83Z"/>
        </g>
      </g>
    </g>
    <g>
      <g>
        <path class="cls-17" d="M101.12,11.03c-31.92.64-62.3,27.1-62.57,55.19-1.31,21.15,2.88,32.8.43,46.31-.48,33.12,6.88,26.01,11.06,42.33-1.4-8.23-2.71-16.18-3.05-21.19,5.05,11.45,9.58,23.92,7.69,33.54-2.1,10.64,1.29,14.87-.4,20.65,2.8-4.09,4.09-9.3,2.88-16.38,3.88,18.42,10.32,34.06,18.95,47.32-6.68-13.87-10.58-28.99-11.75-45.33,4.03,12.18,8.04,23.49,11.99,30.7h58.28c4.1-10.06,8.04-20.09,7.35-29.29,1.98,6.36,1.59,14.01.77,21.89,3.19-5.85,5.17-11.77,5.18-17.81,3.19,9.95-.23,23.02-1.22,34.32,6.68-23.92,14.51-51.23,10.82-87.53-.07-.69-.13-1.38-.16-2.08-1.64-35.99,6.01-73.44-6.03-91.39-11.15-16.86-27.02-21.24-44.19-21.52,4.06-4.72,14.01-6.51,11.83-7.33-7.28-1.79-12.38,2.65-15.41,8.27-1.78-8.25-7.64-8.29-13.03-6.64-.71.22-.79,1.18-.13,1.53,3.23,1.7,8.54,1.98,10.72,4.44Z"/>
        <g class="cls-29">
          <path class="cls-44" d="M110.24,9.59c39.29,9.71,51.74,47.56,50.12,76.98.55-20.03,1.21-52.28-5.59-67-12.72-7.48-28.05-9.86-44.54-9.99Z"/>
          <path class="cls-44" d="M38.98,112.53C19.4,69.04,44.96,11.62,93.08,10.23c-11.94,7.58-34.32,15.56-43.52,34.38-10.34,21.15-6.98,53.58-10.58,67.92Z"/>
          <ellipse class="cls-44" cx="115.91" cy="3.84" rx="7.75" ry="3.84"/>
          <ellipse class="cls-44" cx="91.26" cy="3.95" rx="7.75" ry="3.84"/>
        </g>
        <path class="cls-14" d="M101.12,11.03c-31.92.64-62.3,27.1-62.57,55.19-1.31,21.15,2.88,32.8.43,46.31-.48,33.12,6.88,26.01,11.06,42.33-1.4-8.23-2.71-16.18-3.05-21.19,5.05,11.45,9.58,23.92,7.69,33.54-2.1,10.64,1.29,14.87-.4,20.65,2.8-4.09,4.09-9.3,2.88-16.38,3.88,18.42,10.32,34.06,18.95,47.32-6.68-13.87-10.58-28.99-11.75-45.33,4.03,12.18,8.04,23.49,11.99,30.7h58.28c4.1-10.06,8.04-20.09,7.35-29.29,1.98,6.36,1.59,14.01.77,21.89,3.19-5.85,5.17-11.77,5.18-17.81,3.19,9.95-.23,23.02-1.22,34.32,6.68-23.92,14.51-51.23,10.82-87.53-.07-.69-.13-1.38-.16-2.08-1.64-35.99,6.01-73.44-6.03-91.39-11.15-16.86-27.02-21.24-44.19-21.52,4.06-4.72,14.01-6.51,11.83-7.33-7.28-1.79-12.38,2.65-15.41,8.27-1.78-8.25-7.64-8.29-13.03-6.64-.71.22-.79,1.18-.13,1.53,3.23,1.7,8.54,1.98,10.72,4.44Z"/>
      </g>
      <g>
        <path class="cls-20" d="M96.17,118.95c1.21,6.59-2.07,11.31-5.86,16.84,13.57,6.38,24.19,7.92,26.01-5.01-3.88-3.51-5.85-7.78-4.79-12.89l-15.35,1.05Z"/>
        <g class="cls-27">
          <path class="cls-41" d="M92.01,131.66c8.23-7.38,17.03-6.68,24.99-3.08l-3.05-10.69-20.03.84-1.92,12.92Z"/>
        </g>
        <path class="cls-9" d="M96.17,118.95c1.21,6.59-2.07,11.31-5.86,16.84,13.57,6.38,24.19,7.92,26.01-5.01-3.88-3.51-5.85-7.78-4.79-12.89l-15.35,1.05Z"/>
      </g>
      <g>
        <path class="cls-20" d="M153.78,75.83c0,17.2-8.11,33.32-24.57,41.22-7.79,3.74-19.19,4.03-30.5,4.77-44.51,2.89-47.1-9.26-52.22-45.99-3.5-25.11,24.02-45.9,53.65-45.9s53.65,20.55,53.65,45.9Z"/>
        <g class="cls-28">
          <circle class="cls-41" cx="117.96" cy="82.05" r="14.66"/>
          <circle class="cls-41" cx="73.38" cy="88.09" r="15.32"/>
          <g>
            <circle class="cls-19" cx="118.86" cy="80.14" r="14.54"/>
            <g class="cls-34">
              <ellipse class="cls-37" cx="129.77" cy="80.24" rx="5.48" ry="5.96"/>
              <ellipse class="cls-25" cx="119.28" cy="89.2" rx="14.97" ry="8.7" transform="translate(-2.74 3.78) rotate(-1.8)"/>
              <path class="cls-50" d="M102.13,76.16c9.21-18.86,21.43-15.15,33.63-2.64-13-4.45-25.93-3.54-33.63,2.64Z"/>
            </g>
            <circle class="cls-1" cx="118.86" cy="80.14" r="14.54"/>
          </g>
          <g>
            <circle class="cls-19" cx="73.79" cy="87.01" r="14.86"/>
            <g class="cls-31">
              <ellipse class="cls-37" cx="85.64" cy="86.23" rx="5.6" ry="6.09" transform="translate(-5.04 5.32) rotate(-3.46)"/>
              <ellipse class="cls-25" cx="75.01" cy="95.98" rx="15.3" ry="7.32" transform="translate(-12.82 11.58) rotate(-8.13)"/>
              <path class="cls-50" d="M56.48,83.97c8.24-19.81,20.93-16.78,34.14-4.76-13.54-3.74-26.67-2.02-34.14,4.76Z"/>
            </g>
            <circle class="cls-1" cx="73.79" cy="87.01" r="14.86"/>
          </g>
          <path class="cls-47" d="M103.73,59.46c-.84,2.16-.41,4.18.58,6.14,6.53-7.13,14.29-11.32,23.87-11.16-6.13-3.05-13.46-2.12-21.76,2.09-1.22.62-2.2,1.65-2.7,2.93Z"/>
          <path class="cls-47" d="M80.64,64.7c1.72,1.34,2.26,3.19,2.29,5.27-8.97-2.57-17.66-2.16-25.96,2.68,3.97-5.49,10.8-8.34,19.98-9,1.35-.1,2.68.26,3.69,1.05Z"/>
          <path class="cls-48" d="M104.61,101.4c6.29,2.04,4.35,12.17-3.3,5.16l3.3-5.16Z"/>
          <path class="cls-15" d="M90.26,102.92c1.98,3.01,5.55,5.29,9.08,3.55,1.58-.76,2.7-2.16,3.74-3.55,1.1-1.47,1.92-3.11,2.81-4.76l.15.04c-.06,1.95-.62,3.88-1.64,5.61-1.99,3.49-6.81,5.62-10.45,3.44-1.73-1-2.97-2.57-3.84-4.25l.14-.08h0Z"/>
          <path class="cls-35" d="M149.46,106.97c-2.17,5.28-6.1,5.67-9.55,1.97-3.45-3.7-10.98-4.09-8.82-9.38,2.17-5.28,9.37-6.82,14.76-5.9,5.39.92,5.77,8.01,3.6,13.3Z"/>
          <ellipse class="cls-35" cx="63.14" cy="113.01" rx="11.13" ry="9.86"/>
          <path class="cls-41" d="M46.18,56.12c2.9,48.79,18.49,71.98,93.47,63.69l-75.99,8.52c-19.17-13.64-26.62-36.44-17.48-72.21Z"/>
          <path class="cls-41" d="M104.14,63.49c-.68,6.97,9.88,1.19,21.36-9.37-7.99-.06-15.67,3.64-21.36,9.37Z"/>
          <path class="cls-41" d="M65.39,67.95c4.16,4.95,10.01,5.63,17.54,2.02-4.48-5.39-10.34-6.01-17.54-2.02Z"/>
          <path class="cls-41" d="M83.33,47.93c-1.85,27.06,11.07,24.11,13.55,53.81,2.94-24.57-10.46-39.69,4.93-57.36-4.9,11.51,2.98,24.05,2.98,36.77,7.95-18.98,2.89-26.78,8.99-36.43-.76,6.76.8,10.83,2.54,14.34-.09-6.27-.02-9.51,1.93-13.33-2.7,15.91,14.01,10.82,20.99,33.61-1.32-5.63-2.31-9.44-1.75-14.14,7.6,23.47,6.19,44.81,3.81,60.98l5.52-19.41c2.42,10.4,2.92,30.02,3.5,49.24,4.4-24.5,7.41-53.36,2.57-88.8-6.42-32.96-25.72-40.46-52.94-38.62-22.83,1.18-41.23,8.39-53.88,23.42-6.65,11.36-6.48,31.93.16,61.23,3.85,17.9,9.43,33.17,15.92,47.06,4.76-20.35-7.77-29.13-2.55-47.19-.59,19.34,6.73,23.58,9.58,35.95-8.69-37.25,2.09-26.06-3.8-51.54-4.88-25.15,2.88-23.42,2.79-40.26,2.22,11.94,8.55,6.11,8.07,29.92,2.54-7.21,2.24-17.82.92-19.6-1.31-1.78-1.49-8.27,1.33-14.16-.83,7.96,3.58,10.81,4.43,17.01,1.23-6.98-3.53-11.98.41-22.47Z"/>
        </g>
        <path class="cls-9" d="M153.78,75.83c0,17.2-8.11,33.32-24.57,41.22-7.79,3.74-19.19,4.03-30.5,4.77-44.51,2.89-47.1-9.26-52.22-45.99-3.5-25.11,24.02-45.9,53.65-45.9s53.65,20.55,53.65,45.9Z"/>
      </g>
      <path class="cls-12" d="M153.32,75.66c11.99-3.68,10.21,16.07-6.81,24.92l6.81-24.92Z"/>
      <g>
        <path class="cls-20" d="M130.24,237.97l-22.24,2.98c1.44,14.5,15.88,19.76,21.26,28.62-3.22,1.22-.24,6.8-7.63,7.59-.74.08-.46.85-.38,1.6.17,1.66,1.13,3.17,2.66,3.84,7.8,3.41,21.59-2.92,26.14-12.08-.09-2.19-5.68-4.14-7.23-9.77-2.63-9.21-7.05-15.97-12.57-22.78Z"/>
        <g class="cls-30">
          <path class="cls-41" d="M121.51,267.17c7.29-13.08,17.68-14.33,30.46-6.41l-10.55-15.65-33.42,8.87,13.51,13.19Z"/>
        </g>
        <path class="cls-9" d="M130.24,237.97l-22.24,2.98c1.44,14.5,15.88,19.76,21.26,28.62-3.22,1.22-.24,6.8-7.63,7.59-.74.08-.46.85-.38,1.6.17,1.66,1.13,3.17,2.66,3.84,7.8,3.41,21.59-2.92,26.14-12.08-.09-2.19-5.68-4.14-7.23-9.77-2.63-9.21-7.05-15.97-12.57-22.78Z"/>
      </g>
      <g>
        <path class="cls-20" d="M104.16,237.97c-7.49,28.77-18.87,27.12-17.67,34.54,5.67,4.4,3.96,7.03,4.6,10.03.25,1.17-.6,2.31-1.8,2.39-10.92.68-18.74-2.98-18.51-13.56-.61-11.09,2.39-21.14,11.75-29.38l21.62-4.02Z"/>
        <g class="cls-33">
          <path class="cls-41" d="M67.8,274.41c11.28-3.04,21.48-3.01,29.46,3.25l-4.75-17.05-28.64-2.98,3.93,16.78Z"/>
        </g>
        <path class="cls-9" d="M104.16,237.97c-7.49,28.77-18.87,27.12-17.67,34.54,5.67,4.4,3.96,7.03,4.6,10.03.25,1.17-.6,2.31-1.8,2.39-10.92.68-18.74-2.98-18.51-13.56-.61-11.09,2.39-21.14,11.75-29.38l21.62-4.02Z"/>
      </g>
      <g>
        <path class="cls-17" d="M84.63,45.43c-2.41,27.02,10.57,24.34,12.44,54.07,3.45-24.5-9.64-39.9,6.11-57.24-5.14,11.41,2.48,24.11,2.22,36.82,8.34-18.81,3.44-26.72,9.74-36.24-.9,6.74-.58,11.97,1.09,15.53.04-6.27,1.34-10.64,3.37-14.42-2.28,15.5,14.55,11.8,19.65,35.39-1.2-5.66-1.48-10.84-.82-15.53,7.11,23.62,5.26,44.93,2.55,61.04l5.92-19.29c2.21,10.45,2.3,30.07,2.48,49.3,4.91-24.41,8.51-53.2,4.4-88.73-9.18-32.03-28.1-40-52.13-39.71-22.85.71-35.17,6.9-48.12,21.66-6.89,11.22-13.37,32.42-7.33,61.85,3.48,17.98,8.74,33.36,14.94,47.38,5.18-20.24-7.17-29.28-1.57-47.23-.99,19.32,6.24,23.72,8.84,36.14-7.92-37.42,2.63-26.01-2.74-51.61-4.36-25.24,3.36-23.36,3.62-40.19,1.97,11.98,8.43,6.29,7.45,30.08,2.69-7.15,2.6-17.77,1.33-19.58-1.28-1.81-1.32-8.3,1.62-14.13-.99,7.94,3.36,10.88,4.08,17.1,1.37-6.95-3.28-12.05.88-22.46Z"/>
        <g class="cls-32">
          <path class="cls-18" d="M69.27,54.42c-6.35,15.58-14.49,13.82-6.14,48.74,2.9,10.72-3.02,25.79,5.26,43.06l3.27-81.89-2.39-9.91"/>
          <path class="cls-18" d="M103.18,42.26c-17.54,10.04-8.18,32.3-6.11,57.24l5.37-16.64c-3.05-14.3-5.92-28.56.74-40.6Z"/>
        </g>
        <path class="cls-8" d="M84.63,45.43c-2.41,27.02,10.57,24.34,12.44,54.07,3.45-24.5-9.64-39.9,6.11-57.24-5.14,11.41,2.48,24.11,2.22,36.82,8.34-18.81,3.44-26.72,9.74-36.24-.9,6.74-.58,11.97,1.09,15.53.04-6.27,1.34-10.64,3.37-14.42-2.28,15.5,14.55,11.8,19.65,35.39-1.2-5.66-1.48-10.84-.82-15.53,7.11,23.62,5.26,44.93,2.55,61.04l5.92-19.29c2.21,10.45,2.3,30.07,2.48,49.3,4.91-24.41,8.51-53.2,4.4-88.73-9.18-32.03-28.1-40-52.13-39.71-22.85.71-35.17,6.9-48.12,21.66-6.89,11.22-13.37,32.42-7.33,61.85,3.48,17.98,8.74,33.36,14.94,47.38,5.18-20.24-7.17-29.28-1.57-47.23-.99,19.32,6.24,23.72,8.84,36.14-7.92-37.42,2.63-26.01-2.74-51.61-4.36-25.24,3.36-23.36,3.62-40.19,1.97,11.98,8.43,6.29,7.45,30.08,2.69-7.15,2.6-17.77,1.33-19.58-1.28-1.81-1.32-8.3,1.62-14.13-.99,7.94,3.36,10.88,4.08,17.1,1.37-6.95-3.28-12.05.88-22.46Z"/>
      </g>
      <path class="cls-17" d="M149.37,154.86c5.74-28.97,7.37-59.62,3.79-88.56-4.44-15.09-12.42-29.55-27.83-35.45-7.19-2.88-15.27-3.69-22.99-3.65-12.94.23-26.4,2.63-36.89,10.65-4.07,2.94-8.28,7.17-11.33,10.59-8.41,14.13-10.68,31.32-9.42,47.55,2.05,21.13,8.12,41.81,16.43,61.31-7.81-17.22-13.59-35.42-16.59-54.16-2.8-18.72-1.41-38.94,8.46-55.53,6.93-8.03,15.51-15.04,25.74-18.35,14.4-4.58,32.93-5.27,47.14.21,15.72,6.06,24.15,21,28.51,36.47,3.44,29.66,1.33,59.78-5.01,88.91h0Z"/>
      <g>
        <path class="cls-16" d="M64.83,164.84c-2.45,18.19,2.22,31.64,7.15,44.31,11.32-6.81,14.14-32.14,10.52-65.15-3.29-4.58-10.05,10.34-17.67,20.84Z"/>
        <g class="cls-22">
          <path class="cls-43" d="M59.87,180c12.32-1.15,18.34,19.85,24.79,31.53,1.43-18.45,5.01-60.27.75-70.95-10.88.75-19.45,21.59-25.54,39.42Z"/>
          <path class="cls-41" d="M60.76,172.17c10.93,6.42,17.52-.17,23.1-8.37l6.45-20.82-13.24-3.61-16.3,32.81Z"/>
        </g>
        <path class="cls-13" d="M64.83,164.84c-2.45,18.19,2.22,31.64,7.15,44.31,11.32-6.81,14.14-32.14,10.52-65.15-3.29-4.58-10.05,10.34-17.67,20.84Z"/>
      </g>
      <g>
        <path class="cls-16" d="M95.65,126.34c-1.64,9.91,14.35,15.29,17.42.61,9.98-1.42,12.52-5.92,21.16,4.16,7.09,7.53,13.08,14,18.43,20.51,1.84,2.24,2.95,4.98,3.21,7.86,1.87,20.36,8.78,27.39,10.17,41-7.7-14.42-18.94-23.93-32.59-30.12-.77,2.43-.39,5.75.36,8.66,3.23,6.96,8.19,13.81,7.87,20.29,24.79,28.85,44.98,48.55,44.98,87.59-10.79-36.65-21.9-22.9-35.25-38.13-44.47,2.24-63.82,40.6-90.65,6.48-8.26,5.89-12.84,15.03-16.56,24.94,1.55-44.05,20.84-55.08,31.18-84.34,5.01-12.23,7.06-23.79,4.8-34.38-6.7-21.38.85-34.51,15.47-35.14Z"/>
        <g class="cls-21">
          <path class="cls-41" d="M146.04,169.74c9.98,1.14,5.36-16.49-9.06-33.04,8.33,14.57,10.59,25.07,9.06,33.04Z"/>
          <path class="cls-41" d="M137.1,157.31c-6.44-5.72-9.82-17.95-12.95-30.69,1.66,13.66,3.75,26.34,8.47,33.1l4.48-2.41Z"/>
          <path class="cls-43" d="M133.45,170.38l15.06-.81c3.51,4.51,8.68,15.73,13.28,25.65l-28.35-24.84Z"/>
          <path class="cls-42" d="M116.34,169.93c8.18,7.14,16.23,7.99,17.48-2.61-4.4,4.17-10.42,4.31-17.48,2.61Z"/>
          <path class="cls-42" d="M103.08,171.06c-10.47,9.03-18.29,8.72-18.41-2.01,4.05,4.66,10.64,7.24,18.41,2.01Z"/>
          <path class="cls-41" d="M150.05,218.8c20.4,17.72,28.47,32.13,31.78,45.37-5.83-13.64-16.13-28.66-31.78-45.37Z"/>
          <path class="cls-41" d="M70.71,239.43c14.37,37.17,23.19,28.32,65.32-1.46-29.02,17.66-42.31,30.39-65.32,1.46Z"/>
          <path class="cls-42" d="M81.22,226.4c11.07,34.6,25.49,27.24,41.97-5.76-20.02,34.11-32.36,27.25-41.97,5.76Z"/>
          <path class="cls-41" d="M60.23,257.57c2-9.96,5.47-19.56,10.48-28.78-5.13,14.61-7.81,26.2-7.36,33.94l-3.12-5.16"/>
          <path class="cls-41" d="M77.8,163.93c3.11.81,12.5-25.28,12.08-27.18-3.7,17.4-5.45,26.61-9.75,33.26l-2.33-6.08Z"/>
          <path class="cls-41" d="M96.57,194.5c10.26,6.5,15.32,14.1,12.95,23.26.24-8.88-4.45-16.54-12.95-23.26Z"/>
          <path class="cls-41" d="M117.7,203.81c2.08-6.46,6.03-11.48,11.46-15.37-4.62,4.36-8.5,9.43-11.46,15.37Z"/>
          <path class="cls-41" d="M151.41,248.78l-12.15-28.5c5.79,17.41,34.51,45.1,37.14,44.61-11.61-3.24-24.11-7.58-24.98-16.11Z"/>
          <path class="cls-41" d="M74.5,139.7c22.07-9.15,44.77-10.34,67.87-6.36l-11.88-12.51-46.52,2.08-9.47,16.79Z"/>
          <path class="cls-41" d="M76.94,191.8c-6.22,30.92-26.06,61.94-32.74,95.99l-5.91-11.51,15.58-59.96,23.07-24.52Z"/>
        </g>
        <path class="cls-13" d="M95.65,126.34c-1.64,9.91,14.35,15.29,17.42.61,9.98-1.42,12.52-5.92,21.16,4.16,7.09,7.53,13.08,14,18.43,20.51,1.84,2.24,2.95,4.98,3.21,7.86,1.87,20.36,8.78,27.39,10.17,41-7.7-14.42-18.94-23.93-32.59-30.12-.77,2.43-.39,5.75.36,8.66,3.23,6.96,8.19,13.81,7.87,20.29,24.79,28.85,44.98,48.55,44.98,87.59-10.79-36.65-21.9-22.9-35.25-38.13-44.47,2.24-63.82,40.6-90.65,6.48-8.26,5.89-12.84,15.03-16.56,24.94,1.55-44.05,20.84-55.08,31.18-84.34,5.01-12.23,7.06-23.79,4.8-34.38-6.7-21.38.85-34.51,15.47-35.14Z"/>
      </g>
      <g>
        <path class="cls-20" d="M148.19,160.68c-9.54-8.52-11.07-1.74-19.09-4.96-1.2-.61-2.75-1.22-3.97-2.47-.78-.81-1.27-1.86-1.48-2.97-2.53-13.06-11.39-5.85-11.91.3-.41,4.81,2.52,8.89,5.48,8.38.82-.14,1.65-.23,2.47-.13,2.87.32,5.28,1.73,6.96,4.85,5.93,11.17,21.97,10.52,23.54,2.7.42-2.1-.39-4.27-1.99-5.7Z"/>
        <g class="cls-24">
          <path class="cls-41" d="M122.6,161.19c12.93,8.24,22.47,8.38,27.79-2.82l5.17,16.87-27.74-1.44-5.22-12.6Z"/>
        </g>
        <path class="cls-9" d="M148.19,160.68c-9.54-8.52-11.07-1.74-19.09-4.96-1.2-.61-2.75-1.22-3.97-2.47-.78-.81-1.27-1.86-1.48-2.97-2.53-13.06-11.39-5.85-11.91.3-.41,4.81,2.52,8.89,5.48,8.38.82-.14,1.65-.23,2.47-.13,2.87.32,5.28,1.73,6.96,4.85,5.93,11.17,21.97,10.52,23.54,2.7.42-2.1-.39-4.27-1.99-5.7Z"/>
      </g>
      <g>
        <path class="cls-20" d="M70.45,153.23c-5,4.44-10.29,7.31-9.64,14.41.11,1.19.79,2.27,1.84,2.84,1.73.94,3.89,1.28,6.38.77,1.72-.35,3.24-1.34,4.22-2.79,2.46-3.61,3.94-9.34,5.56-13.6,2.01-3.6,3.14-6.73,2.24-7.58-2.81-1.25-1.5,5.08-3.92,3.6-1-5.5,4.81-5.01,5.36-6.88.6-3.41-2.68-5.86-5.44-4.64-6.29,3.64-9.2,6.32-6.22,11.25.52.86.36,1.95-.38,2.62Z"/>
        <g class="cls-23">
          <path class="cls-41" d="M67.99,153.41c-4.59,14.74-1.02,16.81,11.19,11.35l-11.63,12.11-12.87-9.66,13.31-13.8Z"/>
        </g>
        <path class="cls-9" d="M70.45,153.23c-5,4.44-10.29,7.31-9.64,14.41.11,1.19.79,2.27,1.84,2.84,1.73.94,3.89,1.28,6.38.77,1.72-.35,3.24-1.34,4.22-2.79,2.46-3.61,3.94-9.34,5.56-13.6,2.01-3.6,3.14-6.73,2.24-7.58-2.81-1.25-1.5,5.08-3.92,3.6-1-5.5,4.81-5.01,5.36-6.88.6-3.41-2.68-5.86-5.44-4.64-6.29,3.64-9.2,6.32-6.22,11.25.52.86.36,1.95-.38,2.62Z"/>
      </g>
      <path class="cls-44" d="M110.81,11.14c13.09,3.14,27.54,13.77,28.42,23.38.16,1.78,1.57,3.23,2.03,4.95-1.44-3.26-3.48-6.15-5.71-8.87-3.38-4.05-7.23-7.7-11.36-10.99-4.15-3.29-8.52-6.3-13.38-8.47h0Z"/>
      <path class="cls-44" d="M97.48,12.25c-19.41,4.93-40.72,22.18-41.87,37.96-.21,2.93-2.28,5.29-2.93,8.11,2.08-5.33,5.07-10.06,8.34-14.48,4.96-6.6,10.62-12.54,16.7-17.88,6.11-5.34,12.56-10.21,19.76-13.71h0Z"/>
      <path class="cls-44" d="M99.98,13.11c-13.6,10.71-21.52,20.91-20.28,30.26,3.71-8.96,11.15-19.3,20.28-30.26Z"/>
      <path class="cls-44" d="M106.56,12.25c15.57,11.41,27.65,22.65,23.5,32.78-2.48-7.86-12.39-19.97-23.5-32.78Z"/>
    </g>
    <g>
      <g>
        <path class="cls-10" d="M89.76,278.19c-.1.05-.19.11-.29.18s-.2.12-.32.14c-.1,0-.18-.03-.25-.11s-.2-.21-.39-.41-.38-.42-.57-.66c-.19-.24-.38-.47-.55-.68-.18-.22-.3-.36-.38-.43-1.15-1.43-2.27-2.89-3.37-4.37s-2.28-2.9-3.55-4.26c0,.26-.01.8-.03,1.61-.02.81-.04,1.67-.05,2.58s-.02,1.77-.02,2.58v1.61c0,.14-.02.29-.07.45-.05.15-.13.26-.25.3-.21.07-.58.12-1.11.14-.52.02-1.09.03-1.68.02-.6-.01-1.16-.03-1.7-.05-.54-.02-.93-.03-1.16-.03-.26,0-.55-.02-.86-.05-.31-.03-.45-.2-.43-.48.19-4.2.39-8.38.61-12.54s.44-8.33.68-12.54c.02-.19.04-.45.05-.79.01-.33.1-.55.27-.65.07-.05.16-.07.25-.07h.32c.17,0,.49,0,.97.02.48.01.99.02,1.54.04s1.06.02,1.54.03c.48.01.8.02.97.02.19.02.39.03.59.02s.4,0,.59.05c.24.09.39.24.47.43.02.05.03.14.02.27s-.02.27-.03.41-.03.28-.05.41-.03.23-.03.3c-.14,1.24-.27,2.48-.38,3.71-.11,1.23-.21,2.47-.31,3.71.17-.24.45-.62.84-1.15.39-.52.85-1.12,1.36-1.77.51-.66,1.06-1.34,1.65-2.06.58-.72,1.14-1.39,1.66-2.02s1-1.2,1.43-1.7c.43-.5.75-.86.97-1.08.12-.12.24-.23.38-.34.13-.11.28-.19.45-.23.24-.05.45.01.64.18.62.48,1.25.94,1.88,1.4.63.45,1.2.97,1.7,1.54.19.24.35.49.47.77s.07.52-.14.73c-1.58,1.55-3.09,3.16-4.53,4.82-1.45,1.66-2.91,3.31-4.39,4.96-.05.07-.04.16.03.25.07.09.14.18.22.25.19.22.52.59.98,1.13.47.54,1,1.15,1.61,1.83s1.25,1.4,1.93,2.17c.68.77,1.33,1.49,1.93,2.17.61.68,1.15,1.28,1.63,1.81.48.53.83.9,1.04,1.11.1.12.2.23.31.32.11.1.18.22.23.36.05.17-.02.32-.22.47-.14.14-.46.37-.95.68-.49.31-1.02.63-1.58.97-.56.33-1.09.65-1.58.93-.49.29-.82.49-.98.61Z"/>
        <path class="cls-10" d="M99.22,277.36c-.19.02-.41.03-.66.02-.25-.01-.41-.11-.48-.3-.07-.19-.14-.53-.2-1-.06-.48-.11-.99-.14-1.54-.04-.55-.07-1.07-.11-1.56-.03-.49-.05-.83-.05-1.02-.02-.41-.08-1.13-.16-2.17-.08-1.04-.17-2.23-.27-3.58-.1-1.35-.2-2.78-.32-4.28-.12-1.51-.23-2.93-.34-4.26-.11-1.34-.2-2.52-.29-3.56-.08-1.04-.15-1.76-.2-2.17,0-.12,0-.25.02-.4s.08-.24.2-.29c.07-.02.2-.07.39-.13s.39-.11.59-.16c.2-.05.4-.09.59-.13.19-.04.32-.05.4-.05.72-.14,1.44-.24,2.17-.3.73-.06,1.45-.11,2.17-.16,1.48-.12,2.95-.21,4.42-.27,1.47-.06,2.94-.15,4.42-.27.17-.02.42-.04.77-.05s.7-.02,1.06-.02.7.02,1.02.07c.32.05.56.12.7.22.19.19.3.38.32.57.05.29.05.58,0,.88-.05.3-.06.59-.03.88,0,.19.02.45.05.77.04.32.05.65.05.99s-.01.66-.03.97c-.02.31-.08.54-.18.68-.07.12-.21.21-.41.27-.2.06-.42.09-.66.11-.24.01-.48.02-.72.02h-.57c-.19,0-.52,0-1,.02-.48.01-1.03.02-1.65.03s-1.28.03-1.97.05-1.35.05-1.97.07-1.17.04-1.65.05-.81.03-1,.05c.05.79.11,1.58.18,2.36.07.79.13,1.58.18,2.36.19,0,.36-.02.52-.05.16-.03.33-.06.52-.09.26-.05.75-.1,1.45-.16.7-.06,1.46-.11,2.26-.16.8-.05,1.56-.09,2.27-.13.72-.03,1.2-.05,1.47-.05.24,0,.35.13.32.4-.02.26-.06.51-.11.75-.05.62-.07,1.24-.05,1.86.01.62.02,1.24.02,1.86,0,.12-.02.24-.07.36-.05.12-.13.2-.25.25-.07.05-.16.07-.25.07h-.29c-.24,0-.72,0-1.43.02-.72.01-1.49.02-2.31.03-.82.01-1.59.02-2.31.04s-1.19.03-1.43.05c.02.79.09,1.57.2,2.35.11.78.21,1.56.3,2.35,0,.05.05.07.14.07.26,0,.81-.01,1.65-.04.83-.02,1.72-.05,2.67-.09.94-.03,1.83-.07,2.67-.11.84-.04,1.38-.05,1.65-.05.17,0,.36,0,.57-.02s.42-.01.61,0c.19.01.36.06.5.14s.23.21.25.38c.02.14.04.42.04.82s0,.83-.02,1.27c-.01.44-.02.86-.03,1.25s-.02.66-.02.81v.39c0,.17-.01.34-.04.52-.02.18-.05.35-.07.5s-.07.27-.14.34c-.14.17-.36.25-.64.25-.17.02-.33.03-.48.02s-.32-.02-.48-.02h-1.58c-.74,0-1.59,0-2.54-.02-.96-.01-1.96-.02-3.01-.02s-2.05,0-3.01.02c-.95.01-1.8.02-2.54.02s-1.27.01-1.58.04Z"/>
        <path class="cls-10" d="M128.59,276.68c-.1.02-.25.04-.45.05s-.42.02-.66.02-.46,0-.66-.02c-.2-.01-.35-.02-.45-.02-.17,0-.51,0-1.04-.02-.52-.01-1.09-.02-1.68-.04-.6-.01-1.15-.02-1.67-.03-.51-.01-.85-.02-1.02-.02-.14,0-.24-.06-.29-.18-.05-.12-.07-.26-.07-.43.02-.41.08-1.1.16-2.09.08-.99.17-2.12.25-3.4s.17-2.63.27-4.05c.09-1.42.18-2.77.25-4.05.07-1.28.13-2.4.18-3.38.05-.98.07-1.68.07-2.11-.14.02-.44.05-.88.09-.44.04-.91.08-1.4.14s-.96.11-1.4.14c-.44.04-.73.07-.88.09-.12.02-.24.03-.38.02s-.22-.08-.27-.2c-.05-.19-.09-.54-.14-1.06-.05-.51-.09-1.06-.12-1.63-.04-.57-.07-1.12-.09-1.63-.02-.51-.03-.88-.03-1.09,0-.14.06-.26.2-.36.13-.09.27-.16.41-.18,2.65-.31,5.29-.56,7.93-.75,2.64-.19,5.3-.42,7.97-.68h.27c.08,0,.17.02.27.07.12.05.19.18.2.39.01.22.02.4.02.54,0,.19,0,.53.02,1.02.01.49.02,1.02.02,1.58v1.59c0,.5-.01.85-.04,1.04-.02.12-.09.2-.22.23-.12.03-.24.06-.36.09-.14,0-.42.01-.83.03-.41.02-.84.05-1.31.09-.47.04-.9.07-1.31.09-.41.02-.68.05-.82.07-.05,3.25-.03,6.47.05,9.67.08,3.2.16,6.42.23,9.67,0,.07,0,.15.02.23.01.08,0,.15-.05.2-.02.12-.12.2-.29.25Z"/>
        <path class="cls-10" d="M142.27,276.68c-.88.07-1.77.08-2.65.04-.88-.05-1.77-.07-2.65-.07-.12,0-.23-.01-.34-.04-.11-.02-.21-.08-.3-.18-.14-.14-.22-.35-.22-.61-.26-2.84-.5-5.68-.7-8.51-.2-2.83-.38-5.68-.52-8.54-.05-1.43-.09-2.87-.14-4.3-.05-1.43-.07-2.87-.07-4.3,0-.22.13-.33.4-.36.26-.02.5-.05.72-.07.31-.02.81-.08,1.5-.16s1.43-.16,2.2-.22c.77-.06,1.52-.1,2.22-.13.7-.02,1.2,0,1.49.07.24.07.36.26.36.57-.22,4.35-.4,8.67-.56,12.97-.16,4.3-.22,8.62-.2,12.97.02.19-.01.38-.11.55-.1.18-.24.28-.43.3Z"/>
      </g>
      <g>
        <path class="cls-2" d="M89.76,274.91c-.1.05-.19.11-.29.18s-.2.12-.32.14c-.1,0-.18-.03-.25-.11s-.2-.21-.39-.41-.38-.42-.57-.66c-.19-.24-.38-.47-.55-.68-.18-.22-.3-.36-.38-.43-1.15-1.43-2.27-2.89-3.37-4.37s-2.28-2.9-3.55-4.26c0,.26-.01.8-.03,1.61-.02.81-.04,1.67-.05,2.58s-.02,1.77-.02,2.58v1.61c0,.14-.02.29-.07.45-.05.15-.13.26-.25.3-.21.07-.58.12-1.11.14-.52.02-1.09.03-1.68.02-.6-.01-1.16-.03-1.7-.05-.54-.02-.93-.03-1.16-.03-.26,0-.55-.02-.86-.05-.31-.03-.45-.2-.43-.48.19-4.2.39-8.38.61-12.54s.44-8.33.68-12.54c.02-.19.04-.45.05-.79.01-.33.1-.55.27-.65.07-.05.16-.07.25-.07h.32c.17,0,.49,0,.97.02.48.01.99.02,1.54.04s1.06.02,1.54.03c.48.01.8.02.97.02.19.02.39.03.59.02s.4,0,.59.05c.24.09.39.24.47.43.02.05.03.14.02.27s-.02.27-.03.41-.03.28-.05.41-.03.23-.03.3c-.14,1.24-.27,2.48-.38,3.71-.11,1.23-.21,2.47-.31,3.71.17-.24.45-.62.84-1.15.39-.52.85-1.12,1.36-1.77.51-.66,1.06-1.34,1.65-2.06.58-.72,1.14-1.39,1.66-2.02s1-1.2,1.43-1.7c.43-.5.75-.86.97-1.08.12-.12.24-.23.38-.34.13-.11.28-.19.45-.23.24-.05.45.01.64.18.62.48,1.25.94,1.88,1.4.63.45,1.2.97,1.7,1.54.19.24.35.49.47.77s.07.52-.14.73c-1.58,1.55-3.09,3.16-4.53,4.82-1.45,1.66-2.91,3.31-4.39,4.96-.05.07-.04.16.03.25.07.09.14.18.22.25.19.22.52.59.98,1.13.47.54,1,1.15,1.61,1.83s1.25,1.4,1.93,2.17c.68.77,1.33,1.49,1.93,2.17.61.68,1.15,1.28,1.63,1.81.48.53.83.9,1.04,1.11.1.12.2.23.31.32.11.1.18.22.23.36.05.17-.02.32-.22.47-.14.14-.46.37-.95.68-.49.31-1.02.63-1.58.97-.56.33-1.09.65-1.58.93-.49.29-.82.49-.98.61Z"/>
        <path class="cls-2" d="M99.22,274.09c-.19.02-.41.03-.66.02-.25-.01-.41-.11-.48-.3-.07-.19-.14-.53-.2-1-.06-.48-.11-.99-.14-1.54-.04-.55-.07-1.07-.11-1.56-.03-.49-.05-.83-.05-1.02-.02-.41-.08-1.13-.16-2.17-.08-1.04-.17-2.23-.27-3.58-.1-1.35-.2-2.78-.32-4.28-.12-1.51-.23-2.93-.34-4.26-.11-1.34-.2-2.52-.29-3.56-.08-1.04-.15-1.76-.2-2.17,0-.12,0-.25.02-.4s.08-.24.2-.29c.07-.02.2-.07.39-.13s.39-.11.59-.16c.2-.05.4-.09.59-.13.19-.04.32-.05.4-.05.72-.14,1.44-.24,2.17-.3.73-.06,1.45-.11,2.17-.16,1.48-.12,2.95-.21,4.42-.27,1.47-.06,2.94-.15,4.42-.27.17-.02.42-.04.77-.05s.7-.02,1.06-.02.7.02,1.02.07c.32.05.56.12.7.22.19.19.3.38.32.57.05.29.05.58,0,.88-.05.3-.06.59-.03.88,0,.19.02.45.05.77.04.32.05.65.05.99s-.01.66-.03.97c-.02.31-.08.54-.18.68-.07.12-.21.21-.41.27-.2.06-.42.09-.66.11-.24.01-.48.02-.72.02h-.57c-.19,0-.52,0-1,.02-.48.01-1.03.02-1.65.03s-1.28.03-1.97.05-1.35.05-1.97.07-1.17.04-1.65.05-.81.03-1,.05c.05.79.11,1.58.18,2.36.07.79.13,1.58.18,2.36.19,0,.36-.02.52-.05.16-.03.33-.06.52-.09.26-.05.75-.1,1.45-.16.7-.06,1.46-.11,2.26-.16.8-.05,1.56-.09,2.27-.13.72-.03,1.2-.05,1.47-.05.24,0,.35.13.32.4-.02.26-.06.51-.11.75-.05.62-.07,1.24-.05,1.86.01.62.02,1.24.02,1.86,0,.12-.02.24-.07.36-.05.12-.13.2-.25.25-.07.05-.16.07-.25.07h-.29c-.24,0-.72,0-1.43.02-.72.01-1.49.02-2.31.03-.82.01-1.59.02-2.31.04s-1.19.03-1.43.05c.02.79.09,1.57.2,2.35.11.78.21,1.56.3,2.35,0,.05.05.07.14.07.26,0,.81-.01,1.65-.04.83-.02,1.72-.05,2.67-.09.94-.03,1.83-.07,2.67-.11.84-.04,1.38-.05,1.65-.05.17,0,.36,0,.57-.02s.42-.01.61,0c.19.01.36.06.5.14s.23.21.25.38c.02.14.04.42.04.82s0,.83-.02,1.27c-.01.44-.02.86-.03,1.25s-.02.66-.02.81v.39c0,.17-.01.34-.04.52-.02.18-.05.35-.07.5s-.07.27-.14.34c-.14.17-.36.25-.64.25-.17.02-.33.03-.48.02s-.32-.02-.48-.02h-1.58c-.74,0-1.59,0-2.54-.02-.96-.01-1.96-.02-3.01-.02s-2.05,0-3.01.02c-.95.01-1.8.02-2.54.02s-1.27.01-1.58.04Z"/>
        <path class="cls-2" d="M128.59,273.4c-.1.02-.25.04-.45.05s-.42.02-.66.02-.46,0-.66-.02c-.2-.01-.35-.02-.45-.02-.17,0-.51,0-1.04-.02-.52-.01-1.09-.02-1.68-.04-.6-.01-1.15-.02-1.67-.03-.51-.01-.85-.02-1.02-.02-.14,0-.24-.06-.29-.18-.05-.12-.07-.26-.07-.43.02-.41.08-1.1.16-2.09.08-.99.17-2.12.25-3.4s.17-2.63.27-4.05c.09-1.42.18-2.77.25-4.05.07-1.28.13-2.4.18-3.38.05-.98.07-1.68.07-2.11-.14.02-.44.05-.88.09-.44.04-.91.08-1.4.14s-.96.11-1.4.14c-.44.04-.73.07-.88.09-.12.02-.24.03-.38.02s-.22-.08-.27-.2c-.05-.19-.09-.54-.14-1.06-.05-.51-.09-1.06-.12-1.63-.04-.57-.07-1.12-.09-1.63-.02-.51-.03-.88-.03-1.09,0-.14.06-.26.2-.36.13-.09.27-.16.41-.18,2.65-.31,5.29-.56,7.93-.75,2.64-.19,5.3-.42,7.97-.68h.27c.08,0,.17.02.27.07.12.05.19.18.2.39.01.22.02.4.02.54,0,.19,0,.53.02,1.02.01.49.02,1.02.02,1.58v1.59c0,.5-.01.85-.04,1.04-.02.12-.09.2-.22.23-.12.03-.24.06-.36.09-.14,0-.42.01-.83.03-.41.02-.84.05-1.31.09-.47.04-.9.07-1.31.09-.41.02-.68.05-.82.07-.05,3.25-.03,6.47.05,9.67.08,3.2.16,6.42.23,9.67,0,.07,0,.15.02.23.01.08,0,.15-.05.2-.02.12-.12.2-.29.25Z"/>
        <path class="cls-2" d="M142.27,273.4c-.88.07-1.77.08-2.65.04-.88-.05-1.77-.07-2.65-.07-.12,0-.23-.01-.34-.04-.11-.02-.21-.08-.3-.18-.14-.14-.22-.35-.22-.61-.26-2.84-.5-5.68-.7-8.51-.2-2.83-.38-5.68-.52-8.54-.05-1.43-.09-2.87-.14-4.3-.05-1.43-.07-2.87-.07-4.3,0-.22.13-.33.4-.36.26-.02.5-.05.72-.07.31-.02.81-.08,1.5-.16s1.43-.16,2.2-.22c.77-.06,1.52-.1,2.22-.13.7-.02,1.2,0,1.49.07.24.07.36.26.36.57-.22,4.35-.4,8.67-.56,12.97-.16,4.3-.22,8.62-.2,12.97.02.19-.01.38-.11.55-.1.18-.24.28-.43.3Z"/>
      </g>
      <g>
        <path class="cls-36" d="M89.94,274.93c-.1.05-.19.11-.29.18s-.21.12-.33.15c-.1,0-.18-.04-.25-.11s-.21-.21-.4-.42c-.19-.21-.39-.43-.58-.67s-.38-.47-.56-.69c-.18-.22-.31-.36-.38-.43-1.16-1.45-2.29-2.92-3.4-4.41-1.11-1.49-2.3-2.93-3.58-4.3,0,.27-.01.81-.04,1.63-.02.82-.04,1.69-.05,2.61s-.02,1.79-.02,2.61v1.63c0,.15-.02.3-.07.45-.05.16-.13.26-.25.31-.22.07-.59.12-1.12.15s-1.1.03-1.7.02c-.6-.01-1.18-.03-1.72-.05s-.94-.03-1.17-.03c-.27,0-.56-.02-.87-.05-.31-.04-.46-.2-.43-.49.19-4.24.4-8.46.61-12.66.22-4.2.45-8.42.69-12.66.02-.19.04-.46.05-.8.01-.34.1-.55.27-.65.07-.05.16-.07.25-.07h.33c.17,0,.49,0,.98.02.48.01,1,.02,1.56.04s1.07.02,1.56.04.81.02.98.02c.19.02.39.03.6.02.2-.01.4,0,.6.05.24.1.4.24.47.44.02.05.03.14.02.27-.01.13-.02.27-.04.42s-.03.28-.05.42c-.02.13-.04.23-.04.31-.15,1.25-.27,2.5-.38,3.74-.11,1.24-.21,2.49-.31,3.75.17-.24.45-.63.85-1.16.4-.53.86-1.13,1.38-1.79.52-.66,1.07-1.36,1.66-2.08.59-.72,1.15-1.41,1.68-2.04.53-.64,1.01-1.21,1.45-1.72.43-.51.76-.87.98-1.09.12-.12.25-.23.38-.34.13-.11.28-.19.45-.24.24-.05.46.01.65.18.63.48,1.26.95,1.9,1.41.64.46,1.21.98,1.72,1.56.19.24.35.5.47.78.12.28.07.52-.15.74-1.59,1.57-3.12,3.19-4.58,4.87-1.46,1.68-2.94,3.35-4.43,5.01-.05.07-.03.16.04.25.07.1.15.18.22.25.19.22.52.6.99,1.14s1.01,1.16,1.63,1.84,1.27,1.42,1.95,2.19c.69.77,1.34,1.5,1.95,2.19.61.69,1.16,1.3,1.65,1.83.48.53.83.9,1.05,1.12.1.12.2.23.31.33.11.1.19.22.24.36.05.17-.02.33-.22.47-.14.15-.46.37-.96.69-.49.31-1.02.64-1.59.98-.57.34-1.1.65-1.59.94-.49.29-.83.49-.99.62Z"/>
        <path class="cls-36" d="M99.49,274.1c-.19.02-.42.03-.67.02-.25-.01-.42-.12-.49-.31-.07-.19-.14-.53-.2-1.01-.06-.48-.11-1-.15-1.56-.04-.55-.07-1.08-.11-1.57-.04-.49-.05-.84-.05-1.03-.02-.41-.08-1.14-.16-2.19-.09-1.05-.18-2.26-.27-3.62s-.2-2.8-.33-4.32-.23-2.95-.34-4.3c-.11-1.35-.21-2.55-.29-3.6s-.15-1.78-.2-2.19c0-.12,0-.25.02-.4.01-.15.08-.24.2-.29.07-.02.2-.06.4-.13.19-.06.39-.11.6-.16s.4-.09.6-.13c.19-.03.33-.05.4-.05.72-.14,1.45-.25,2.19-.31.74-.06,1.47-.12,2.19-.16,1.49-.12,2.98-.21,4.47-.27,1.48-.06,2.97-.15,4.47-.27.17-.02.43-.04.78-.05s.71-.02,1.07-.02.7.02,1.03.07c.33.05.56.12.71.22.19.19.3.39.33.58.05.29.05.59,0,.89-.05.3-.06.6-.04.89,0,.19.02.45.05.78.04.33.05.66.05.99s-.01.66-.03.98c-.02.31-.09.54-.18.69-.07.12-.21.21-.42.27s-.43.1-.67.11c-.24.01-.48.02-.72.02h-.58c-.19,0-.53,0-1.01.02s-1.04.02-1.66.03c-.63.01-1.29.03-1.99.05-.7.02-1.36.05-1.99.07-.63.02-1.18.04-1.66.05s-.82.03-1.01.05c.05.8.11,1.59.18,2.39.07.8.13,1.59.18,2.39.19,0,.37-.02.52-.05.16-.04.33-.07.52-.09.27-.05.75-.1,1.47-.16.71-.06,1.47-.11,2.28-.16.81-.05,1.57-.09,2.3-.13.72-.04,1.22-.05,1.48-.05.24,0,.35.13.33.4-.02.27-.06.52-.11.76-.05.63-.07,1.25-.05,1.88.01.63.02,1.25.02,1.88,0,.12-.02.24-.07.36-.05.12-.13.21-.25.25-.07.05-.16.07-.25.07h-.29c-.24,0-.72,0-1.45.02-.72.01-1.5.02-2.33.04s-1.61.02-2.33.03-1.21.03-1.45.05c.02.8.09,1.59.2,2.37.11.78.21,1.57.31,2.37,0,.05.05.07.15.07.27,0,.82-.01,1.66-.04.84-.02,1.74-.05,2.69-.09.95-.04,1.85-.07,2.7-.11.84-.04,1.4-.05,1.66-.05.17,0,.36,0,.58-.02.22-.01.42-.01.61,0,.19.01.36.06.51.15.15.09.23.21.25.38.02.15.03.42.03.83s0,.84-.02,1.29-.02.87-.04,1.27c-.01.4-.02.67-.02.81v.4c0,.17-.01.34-.04.52s-.05.35-.07.51c-.02.16-.07.27-.15.34-.15.17-.36.25-.65.25-.17.02-.33.03-.49.02-.16-.01-.32-.02-.49-.02h-1.59c-.75,0-1.61,0-2.57-.02-.97-.01-1.98-.02-3.04-.02s-2.08,0-3.04.02c-.97.01-1.82.02-2.57.02s-1.28.01-1.59.04Z"/>
        <path class="cls-36" d="M129.16,273.41c-.1.02-.25.04-.45.05-.21.01-.43.02-.67.02s-.47,0-.67-.02c-.2-.01-.36-.02-.45-.02-.17,0-.52,0-1.05-.02-.53-.01-1.1-.02-1.7-.04s-1.16-.02-1.68-.03c-.52-.01-.86-.02-1.03-.02-.15,0-.24-.06-.29-.18-.05-.12-.07-.27-.07-.44.02-.41.08-1.11.16-2.12.09-1,.17-2.15.25-3.44.08-1.29.17-2.65.27-4.09.1-1.43.18-2.8.25-4.09.07-1.29.13-2.43.18-3.42.05-.99.07-1.7.07-2.13-.15.02-.44.06-.89.09-.45.04-.92.09-1.41.15-.49.06-.97.11-1.41.15-.45.03-.74.07-.89.09-.12.02-.25.03-.38.02s-.22-.08-.27-.2c-.05-.19-.1-.55-.15-1.07-.05-.52-.09-1.07-.13-1.65-.04-.58-.07-1.13-.09-1.65s-.04-.89-.04-1.1c0-.15.07-.27.2-.36s.27-.16.42-.18c2.68-.31,5.35-.57,8.01-.76,2.66-.19,5.35-.42,8.05-.69h.27c.08,0,.17.02.27.07.12.05.19.18.2.4s.02.4.02.54c0,.19,0,.54.02,1.03.01.49.02,1.02.02,1.59v1.61c0,.51-.01.86-.04,1.05-.02.12-.1.2-.22.23-.12.04-.24.07-.36.09-.15,0-.42.01-.83.04-.41.02-.85.05-1.32.09-.47.03-.91.07-1.32.09-.41.02-.69.05-.83.07-.05,3.28-.03,6.54.05,9.77.08,3.23.16,6.49.23,9.77,0,.07,0,.15.02.24s0,.15-.05.2c-.02.12-.12.2-.29.25Z"/>
        <path class="cls-36" d="M142.98,273.41c-.89.07-1.78.08-2.68.03-.89-.05-1.79-.07-2.68-.07-.12,0-.23-.01-.34-.04s-.21-.08-.31-.18c-.15-.15-.22-.35-.22-.62-.27-2.87-.5-5.73-.71-8.59-.2-2.86-.38-5.73-.52-8.63-.05-1.45-.1-2.89-.15-4.34-.05-1.45-.07-2.9-.07-4.34,0-.22.13-.34.4-.36.26-.02.51-.05.72-.07.31-.02.82-.08,1.52-.16.7-.08,1.44-.16,2.23-.22.78-.06,1.53-.1,2.24-.13.71-.02,1.21,0,1.5.07.24.07.36.27.36.58-.22,4.39-.4,8.75-.56,13.1-.16,4.34-.22,8.71-.2,13.1.02.19-.01.38-.11.56-.1.18-.24.28-.44.31Z"/>
      </g>
    </g>
  </g>
</svg>