<?xml version="1.0" encoding="UTF-8"?>
<svg id="Layer_2" data-name="Layer 2" xmlns="http://www.w3.org/2000/svg" xmlns:xlink="http://www.w3.org/1999/xlink" viewBox="0 0 217.82 205.89">
  <defs>
    <style>
      .cls-1 {
        fill: #cdc6c0;
        stroke: rgba(201, 206, 204, .17);
        stroke-width: .76px;
      }

      .cls-1, .cls-2, .cls-3, .cls-4, .cls-5, .cls-6, .cls-7, .cls-8 {
        fill-rule: evenodd;
      }

      .cls-2, .cls-9 {
        fill: #bcb7bb;
      }

      .cls-3, .cls-10 {
        fill: #837e86;
      }

      .cls-4 {
        fill: #d9dadb;
      }

      .cls-5, .cls-11 {
        fill: #e5e1df;
      }

      .cls-11 {
        clip-rule: evenodd;
      }

      .cls-12 {
        clip-path: url(#clippath);
      }

      .cls-6 {
        fill: #635d68;
      }

      .cls-7 {
        fill: none;
        stroke: #999;
        stroke-miterlimit: 10;
        stroke-width: 3px;
      }

      .cls-8 {
        fill: #d5cdcd;
        stroke: rgba(151, 151, 151, .17);
        stroke-width: .34px;
      }
    </style>
    <clipPath id="clippath">
      <path id="Path-2" data-name="Path" class="cls-11" d="M208.72,180.91V15.11c-.35-3.29-1.93-6.36-4.74-9.2-2.81-2.84-6.07-4.3-9.76-4.36H23.88c-3.72.45-6.81,1.9-9.28,4.36-2.47,2.46-4.34,5.52-5.62,9.2v171c1.42,4.99,3.3,8.76,5.62,11.3,2.32,2.54,5.42,4.21,9.28,5.01h142.82c26.19-.27,37.88-8.74,42.02-21.51Z"/>
    </clipPath>
  </defs>
  <g id="Layer_9" data-name="Layer 9">
    <g>
      <g>
        <path id="Path" class="cls-5" d="M208.72,180.91V15.11c-.35-3.29-1.93-6.36-4.74-9.2-2.81-2.84-6.07-4.3-9.76-4.36H23.88c-3.72.45-6.81,1.9-9.28,4.36-2.47,2.46-4.34,5.52-5.62,9.2v171c1.42,4.99,3.3,8.76,5.62,11.3,2.32,2.54,5.42,4.21,9.28,5.01h142.82c26.19-.27,37.88-8.74,42.02-21.51Z"/>
        <g class="cls-12">
          <path id="Path-3" data-name="Path" class="cls-3" d="M18.93,190.97l36.7.25s12.5-21.24,12.5-19.42-5.51,13.18-16.54,34.08h-28.42c-4.18-1.13-7.3-2.84-9.35-5.13-2.06-2.28-3.94-6.14-5.67-11.56V14.22c.77-3.5,2.66-6.64,5.67-9.42C16.82,2.03,19.94.55,23.17.35h4.71c-5.84,4.79-9.23,9.42-10.17,13.88-.95,4.46-1.42,12.9-1.42,25.32,7.05,2.68,10.91,4.74,11.59,6.17s-3.19,2.67-11.59,3.71l-.98,99.87c3.88,3.39,5.83,7.02,5.83,10.88,0,2.72-2.3,7.38-3.43,13.91-.32,1.84.91,12.55,1.23,16.88Z"/>
          <path id="Path-4" data-name="Path" class="cls-3" d="M63.71,190.5l-5.89,13.91h109.32c.89,4.38,43.96-10.11,42.37-20.84V13.8c-.5-3.7-2.09-6.83-4.78-9.36-2.69-2.54-5.97-4.02-9.84-4.44,5.69,4.89,8.53,9.05,8.53,12.47s.44,50.09,1.31,140c-.8,7.1-1.51,17.78-4.37,21.84-2.86,4.05-4.93,10.06-9.21,10.14-13.96.32-25.03.92-31.95,1.78-6.93.86-12.68,2.5-17.69,4.27H63.71Z"/>
          <path id="Path-5" data-name="Path" class="cls-4" d="M18.9,38.05c3.05-11.45,6.05-18.83,8.98-22.14,2.93-3.31,7.39-5.94,13.38-7.9h145.95l15.9,12.45c.92-4.98.92-8.6,0-10.86-.92-2.27-3.65-5.35-8.18-9.25H27.88c-5.99,5.24-9.38,9.13-10.17,11.67-.79,2.54-1.27,11.72-1.42,27.53,7.73,2.53,11.59,4.59,11.59,6.17s-3.86,2.82-11.59,3.71l-.98,99.87c4.31,3.91,6.25,7.54,5.83,10.88-.64,5.02-2.75,9.35-3.43,13.91-.45,3.03.78,13.74,1.23,16.88h3.85c-1.28-5.31-1.34-14.67-.61-18.17,1.49-6.31,3.56-9.78,3.29-12.62-.39-4.1-2.57-9.15-6.57-15.16V52.76c8.11-2.21,12.16-4.56,12.16-7.04s-4.05-5.04-12.16-7.68Z"/>
          <path id="Path-6" data-name="Path" class="cls-6" d="M65.9,177.22c.33.99.5,2.92.5,5.79s-.17,4.62-.5,5.26l-8.88,17.62h-5.42l14.3-28.66Z"/>
          <path id="Path-7" data-name="Path" class="cls-8" d="M185.36,182.56c5.1-1.26,8.66-3.34,10.7-6.24,2.04-2.9,3.86-8.51,5.48-16.83l-.98-53.42c-.45,25.19-1.95,44.21-4.51,57.06-2.55,12.85-6.12,19.33-10.7,19.43Z"/>
          <path class="cls-10" d="M39.49,41.77l.63,3.71c-2.83.99-13.5,3.3-14.1,3.71-2.52,1.7,1.34,5.01-1.25,5.56-1.49.31-14.65-9.64-15.67-12.36-1.15-.28-1.83,1.61-2.19,1.85-.55.37-1.41.8-1.88,1.24-1.75-1.2-3.58-2.09-5.01-3.71,8.11-2.49,7.12-11.14,8.78-17.61.4-1.57-.05-1.45,1.88-2.16,3.62,16.4,11.81,23.2,28.83,19.77Z"/>
          <path class="cls-9" d="M211.82,63.37l6,9.9-5.45,17.92c-12.71-5.01-26-12.18-39.51-20.23-5.34,8.39-24.22,16.02-40.1,23.83,19.36-12.15,39.68-24.61,38.42-29.94,18.86,8.94,38.9,19.98,40.64-1.48Z"/>
          <path class="cls-9" d="M96.52,177.54c-6.88,12.4-16.92,12.05-29.44,11.83l29.44-11.83Z"/>
        </g>
      </g>
      <path id="Path-8" data-name="Path" class="cls-7" d="M208.72,180.91V15.11c-.35-3.29-1.93-6.36-4.74-9.2-2.81-2.84-6.07-4.3-9.76-4.36H23.88c-3.72.45-6.81,1.9-9.28,4.36-2.47,2.46-4.34,5.52-5.62,9.2v171c1.42,4.99,3.3,8.76,5.62,11.3,2.32,2.54,5.42,4.21,9.28,5.01h142.82c26.19-.27,37.88-8.74,42.02-21.51Z"/>
    </g>
    <g id="_-Overview" data-name="👋-Overview">
      <g id="Setting-Button">
        <path id="Path-9" data-name="Path" class="cls-3" d="M94.35,22.37h33.4c4.18,14.15,7.54,22.73,10.09,25.75s11.5,3.02,26.84,0l16.4,24.38-12.08,14.55v19.6l12.08,15.56-12.08,25.8-20.63-4.45-15.15,9.86-5.46,19.28h-33.4l-5.61-19.28-13.86-9.86-18.9,4.45-17.96-25.8,15.63-19.43v-10.55l-15.63-19.73,17.96-24.38c16.33,1.95,25.81,1.95,28.42,0s5.93-10.54,9.95-25.75Z"/>
        <polygon id="Path-10" data-name="Path" class="cls-2" points="98.24 25.56 94.38 42.68 128.5 42.68 124.57 25.56 98.24 25.56"/>
        <polygon id="Path-11" data-name="Path" class="cls-2" points="148.29 55.36 162.57 53.01 174.75 71.8 165.35 82.24 148.29 55.36"/>
        <polygon id="Path-12" data-name="Path" class="cls-2" points="163.58 110.34 151.07 138.07 166.54 140.76 174.75 123.73 163.58 110.34"/>
        <polygon id="Path-13" data-name="Path" class="cls-2" points="94.38 154.02 128.5 154.02 125.3 168.5 98.12 168.5 94.38 154.02"/>
        <polygon id="Path-14" data-name="Path" class="cls-2" points="55.24 110.34 72.2 139.33 57.14 143.6 44.09 122.45 55.24 110.34"/>
        <polygon id="Path-15" data-name="Path" class="cls-2" points="44.09 71.92 55.15 84.88 74.32 55.6 58.15 53.01 44.09 71.92"/>
        <path id="Path-16" data-name="Path" class="cls-6" d="M111.44,48.79c-22.8,0-45.93,21.03-45.93,44.41s23.47,47.56,45.93,47.56,46.14-24.97,46.14-47.56-23.34-44.41-46.14-44.41Z"/>
        <path id="Path-17" data-name="Path" class="cls-3" d="M109.55,69.15c17.84,0,27.75,13.99,27.75,27.18s-12.16,27.17-25.86,27.17-27.26-11.69-27.26-24.42,7.53-29.93,25.37-29.93Z"/>
        <path id="Path-18" data-name="Path" class="cls-1" d="M111.44,82.24c-8.53,0-17.06,6.88-17.06,15.29s8.53,17.33,17.06,17.33,17.06-9.43,17.06-17.33-8.53-15.29-17.06-15.29Z"/>
      </g>
    </g>
  </g>
</svg>