<?xml version="1.0" encoding="UTF-8"?>
<svg id="Layer_2" data-name="Layer 2" xmlns="http://www.w3.org/2000/svg" xmlns:xlink="http://www.w3.org/1999/xlink" viewBox="0 0 677.08 370.36">
  <defs>
    <style>
      .cls-1, .cls-2, .cls-3, .cls-4, .cls-5, .cls-6, .cls-7, .cls-8, .cls-9, .cls-10, .cls-11, .cls-12, .cls-13, .cls-14, .cls-15, .cls-16, .cls-17, .cls-18, .cls-19, .cls-20, .cls-21, .cls-22, .cls-23, .cls-24, .cls-25 {
        fill-rule: evenodd;
      }

      .cls-1, .cls-3 {
        fill: #739d34;
      }

      .cls-1, .cls-3, .cls-21, .cls-25 {
        stroke: rgba(151, 151, 151, .16);
      }

      .cls-1, .cls-21 {
        stroke-width: .38px;
      }

      .cls-2 {
        fill: #d9dadb;
      }

      .cls-2, .cls-4, .cls-5, .cls-7, .cls-10, .cls-12, .cls-14, .cls-16, .cls-17, .cls-18, .cls-20 {
        stroke-width: .37px;
      }

      .cls-2, .cls-4, .cls-5, .cls-7, .cls-12, .cls-14, .cls-16, .cls-17 {
        stroke: rgba(0, 0, 0, .17);
      }

      .cls-3 {
        stroke-width: .4px;
      }

      .cls-4 {
        fill: #dedcdb;
      }

      .cls-26 {
        clip-rule: evenodd;
      }

      .cls-26, .cls-13 {
        stroke: #749640;
        stroke-width: 2px;
      }

      .cls-26, .cls-13, .cls-24 {
        stroke-miterlimit: 10;
      }

      .cls-26, .cls-23 {
        fill: #90b858;
      }

      .cls-5 {
        fill: #d9dadc;
      }

      .cls-6, .cls-11, .cls-27 {
        fill: #bcb7bb;
      }

      .cls-7 {
        fill: #dcdcda;
      }

      .cls-8 {
        fill: #20164c;
        opacity: .2;
      }

      .cls-9 {
        fill: #837e86;
      }

      .cls-10 {
        stroke: rgba(151, 151, 151, .17);
      }

      .cls-10, .cls-15, .cls-20 {
        fill: #d2cad0;
      }

      .cls-11 {
        opacity: .5;
      }

      .cls-12 {
        fill: #dbdadd;
      }

      .cls-13, .cls-24 {
        fill: none;
      }

      .cls-28 {
        clip-path: url(#clippath-1);
      }

      .cls-29 {
        clip-path: url(#clippath-2);
      }

      .cls-14 {
        fill: #c7c9c9;
      }

      .cls-15 {
        stroke: rgba(151, 151, 151, .16);
        stroke-miterlimit: 4;
        stroke-width: .37px;
      }

      .cls-30, .cls-22 {
        fill: #635d68;
      }

      .cls-16 {
        fill: #e8eaeb;
      }

      .cls-17 {
        fill: rgba(161, 173, 171, .2);
      }

      .cls-18 {
        fill: #6c8147;
        stroke: rgba(151, 151, 151, .17);
      }

      .cls-19 {
        fill: #e5e3e1;
      }

      .cls-20 {
        stroke: rgba(151, 151, 151, .17);
      }

      .cls-21, .cls-25 {
        fill: #4d611a;
      }

      .cls-31 {
        clip-path: url(#clippath);
      }

      .cls-24 {
        stroke: #999;
        stroke-width: 3px;
      }

      .cls-25 {
        stroke-width: .4px;
      }
    </style>
    <clipPath id="clippath">
      <path id="Path-25" data-name="Path" class="cls-26" d="M170.99,14.33c6.62.8,9.05,3.2,11.75,5.99,1.8,1.85,2.83,4.4,3.09,7.63-.37,3.72-.99,6.28-1.85,7.68-.86,1.4-2.45,2.42-4.76,3.07-10.67.26-18.13.26-22.37,0-9.03-.56-16.74-2.43-22.28-2.08-14.19.87-10.39,2.2-32.66,6.85-22.26,4.65-29.61,1.74-34.63,10.15-5.02,8.41-4.28,18.72-7.14,30.19-1.91,7.65-3.52,12.79-4.85,15.43-1.73,1-3.3,1.6-4.71,1.8-1.41.2-3.08.2-5.02,0-.26,6.41-1.03,10.59-2.31,12.55-1.28,1.96-3.98,3.06-8.09,3.31-4.7-.78-7.75-2.76-9.16-5.93-1.41-3.17-2.21-9.85-2.4-20.02-3.6.78-6.07.78-7.4,0-1.94-1.14-3.35-.32-4.49-6.53-1.47-8.04-.35-14.9,0-20.78.47-7.92.78-14.1,3.34-19.41,4.46-9.26,12.35-13.24,24.86-18.39,12.51-5.15,6.27-4.35,28.67-6.91,22.41-2.56,48.44-.21,51.67-2.27,2.15-1.37,6.39-2.15,12.72-2.33,20.93-.53,33.61-.53,38.02,0Z"/>
    </clipPath>
    <clipPath id="clippath-1">
      <path id="Path-48" data-name="Path" class="cls-26" d="M264.69,28.9c3.11,3.87,8.83,2.85,13.13,2.56,9.55-.65,17.74-.75,26.87,2.05,10.31,3.17,18.12,1.05,28.42-1.76,8.33-2.24,16.78-3.01,25.44-3.24,65.56-1.11,130.84,4.54,196.03,10.7,5.03.49,55.99,7.52,56.57,5.84-5.1,14.73,4.23,24.44,19.87,23.49,7.97-.45,16.31-3.33,23.16,2.46,2.09,1.77,7.06,8.91,4.86,11.85,3.04-4.06,3.97-8.05,1.32-12.76-6.1-7.24-12.78-14.89-12.02-24.96.13-5.08,1.24-10.72.13-15.55-1.1-5.31-5.17-8.96-10.05-11.24-7.05-3.25-14.84-4.29-22.23-6.51-9.67-2.72-19-6.76-28.99-8.37-18.52-2.77-37.04-.1-55.62,1.3-40.02,3.11-79.91-3.45-119.88-3.75-21.39-.16-43.49.97-64.79,2.85-25.39,2.25-51.23,6.94-76.36,11.16-6.3,1.06-10.68,7.88-5.87,13.87Z"/>
    </clipPath>
    <clipPath id="clippath-2">
      <path id="Path-64" data-name="Path" class="cls-26" d="M23.74,180.66c-1.28,1.97-2.06,3.6-2.34,4.87-.28,1.27.5,3.78,2.34,7.52,5.59,5.09,10.5,8.47,14.74,10.15,4.23,1.68,10.42,2.49,18.57,2.43-2.79,5.59-3.48,9.62-2.07,12.1s5.69,4.41,12.83,5.79c.16,26.88,1.39,46,3.71,57.34,2.32,11.34,6.17,17.17,11.57,17.49l3.92,10.22c-.5,25.28-.5,41.32,0,48.14.5,6.82,1.97,11.01,4.41,12.59,1.93.89,2.9-9.82,2.9-32.14s.9-52.46,2.69-90.43c.27-4.73,1.16-8.01,2.67-9.83,1.51-1.82,4.09-2.73,7.73-2.72-1.05,16.71-1.44,27.99-1.18,33.84.27,5.85,1.34,9.51,3.22,10.99,1.54-.22,2.68-3.88,3.42-10.99.75-7.1,1.17-18.38,1.28-33.84,8.53.91,14.05.91,16.57,0,2.52-.91,4.41-3.58,5.66-8.02,1.2-3.81.3-6.62-2.71-8.43-2.24-1.35-8.5-.66-14.62-1.83-2.1-.4-1.1-3.69-9.61-4.13-8.51-.44-13.83.73-18.04-1.42-4.21-2.15-1.89-3.19-4.41-8.86-2.52-5.67-10.57-2.21-15.49-3.88-2.57-.87-4.35-4.15-7.66-5.33-2.02-.72-5.98-1.06-11.87-1.02-3.14.13-6.29-.12-9.45-.74-3.15-.62-6.2-1.68-9.13-3.17l-9.68-6.68Z"/>
    </clipPath>
  </defs>
  <g id="Layer_9" data-name="Layer 9">
    <g>
      <g id="Bar-Start-Copy">
        <polygon id="Path" class="cls-17" points="72.88 19.21 11.14 80.53 1.54 185.72 43.44 244.19 197.39 251.71 236.26 237.99 621.4 241.31 653.31 212.65 675.74 114.35 647.02 48.52 608.72 21.7 325.03 16.87 304.69 25.59 72.88 19.21"/>
        <path id="Path-2" data-name="Path" class="cls-14" d="M72.51,19.58c4.9,11.89,9.75,21.4,14.33,25.97l-57.67,60.16c-7.35-6.4-13.85-14.12-17.93-25.45l61.27-60.68Z"/>
        <path id="Path-3" data-name="Path" class="cls-6" d="M11.24,80.26c3.55,7.61,6.43,12.93,8.67,15.94,2.23,3.02,5.32,6.24,9.26,9.67v77.83l-27.41,2.07,9.49-105.51Z"/>
        <polygon id="Path-4" data-name="Path" class="cls-9" points="1.75 185.77 43.23 243.93 71.34 216.26 29.17 183.71 1.75 185.77"/>
        <polygon id="Path-5" data-name="Path" class="cls-22" points="43.23 243.93 71.34 216.26 594.8 227.02 622.01 240.81 236.26 238.03 197.39 251.71 43.23 243.93"/>
        <path id="Path-6" data-name="Path" class="cls-9" d="M197.35,251.64l-11.91-21.58c-.08-.14.04-.31.2-.29l50.24,8.2c.1.02.11.16.02.19l-38.43,13.53s-.1,0-.12-.05Z"/>
        <polygon id="Path-7" data-name="Path" class="cls-9" points="594.8 227.02 622.01 240.81 653.25 212.76 620.88 212.76 594.8 227.02"/>
        <path id="Path-8" data-name="Path" class="cls-6" d="M620.88,212.76c4.19-14.34,7.84-27.98,10.95-40.92,1.47-6.13,3.24-14.12,5.59-24.58,1.74-7.75,4.94-22.14,9.59-43.19,7.21,1.69,12.52,3.14,15.94,4.34,3.41,1.19,7.65,3.1,12.73,5.7.04.02.06.07.05.11l-22.4,98.47s-.05.08-.1.08h-32.35Z"/>
        <path id="Path-9" data-name="Path" class="cls-2" d="M647.01,104.07c7.23,1.69,12.54,3.13,15.94,4.31,3.4,1.19,7.67,3.09,12.79,5.7l-28.8-65.69c-5.49,3.19-9.53,5.72-12.12,7.6s-6.11,4.83-10.55,8.85c5.38,9.41,9.35,16.33,11.91,20.76,2.56,4.42,6.17,10.58,10.83,18.47Z"/>
        <path id="Path-10" data-name="Path" class="cls-6" d="M608.35,21.72c-7.81,3.52-13.98,6.51-18.48,8.96-4.55,2.48-11.09,6.41-19.62,11.79,12.98,5.71,21.46,9.4,25.45,11.07.8.34,1.83.76,2.54,1.06,1.75.73,3.48,1.4,5.68,2.3,3.9,1.58,8.56,3.4,13.91,5.49,1.35.53,3.49,1.34,6.43,2.45,2.56-2.3,4.42-3.93,5.56-4.89,1.81-1.53,3.47-2.86,4.98-3.96,2.07-1.5,4.7-3.16,7.83-5.05.89-.54,2.32-1.39,4.29-2.55l-38.11-26.62c-.14-.1-.32-.12-.48-.05Z"/>
        <path id="Path-11" data-name="Path" class="cls-2" d="M608.46,21.69c-7.84,3.52-13.95,6.47-18.32,8.85-4.37,2.38-11,6.36-19.88,11.93l-483.42,3.08c-1.18-1.26-2.06-2.28-2.64-3.08-1.66-2.28-3.72-5.73-4.83-7.73-1.68-3.05-3.97-8.11-6.86-15.16l232.18,5.98,20.34-8.7,283.43,4.82Z"/>
        <polygon id="Path-12" data-name="Path" class="cls-16" points="324.84 16.96 348.27 39.83 304.44 25.67 324.84 16.96"/>
        <path id="Path-13" data-name="Path" class="cls-7" d="M29.17,105.71l6.2,5.8v68.99l-6.1,3.25c-.07.03-.14-.01-.14-.09l.05-77.95Z"/>
        <polygon id="Path-14" data-name="Path" class="cls-4" points="35.36 180.53 29.17 183.71 71.4 216.32 35.36 180.53"/>
        <path id="Path-15" data-name="Path" class="cls-12" d="M29.17,105.71l6.2,5.75,54.62-58.97-3.08-6.8c-.03-.06-.11-.08-.16-.03l-57.57,60.05Z"/>
        <polygon id="Path-16" data-name="Path" class="cls-5" points="86.83 45.55 89.98 52.49 570.25 42.47 86.83 45.55"/>
        <path id="Path-17" data-name="Path" class="cls-19" d="M570.25,42.47c12.64,5.6,22.14,9.72,28.51,12.37,6.37,2.65,14.87,6.01,25.51,10.07,5.2,9.11,9.1,15.92,11.7,20.42,2.6,4.5,6.28,10.82,11.03,18.95-7.5,34.15-12.86,57.91-16.09,71.3-3.22,13.38-6.57,25.76-10.04,37.13l-26.08,14.31-523.46-10.81-35.97-35.85v-68.66l54.62-59.18,480.27-10.05Z"/>
        <path id="Path-18" data-name="Path" class="cls-11" d="M71.7,92.79c-2.03,2.61-3.2,4.66-3.5,6.13-.3,1.48.39,3.76,2.05,6.85,2.33,2.59,4.64,3.7,6.95,3.34,2.31-.36,5.5-2.51,9.57-6.45,2.04-3.55,2.46-6.05,1.27-7.51-1.19-1.46-3.59-2.73-7.21-3.82-2.05-.67-3.7-.9-4.95-.7-1.25.2-2.65.91-4.2,2.15Z"/>
        <path id="Path-19" data-name="Path" class="cls-11" d="M59.46,111.27c-4.61-.19-7.76.54-9.44,2.19s-2.67,4.96-2.95,9.91c.37,6.4,1.35,11.17,2.95,14.32,1.6,3.14,4.55,5.14,8.86,6,5.96.25,9.83-.58,11.63-2.49,1.8-1.91,2.87-6.34,3.23-13.31-.65-5.87-1.82-9.82-3.51-11.86-1.69-2.04-5.28-3.62-10.78-4.76Z"/>
        <path id="Path-20" data-name="Path" class="cls-11" d="M85.67,114.56c-2.79,0-4.65.45-5.57,1.38-.93.93-1.18,2.59-.76,4.97,1.15,5.62,2.36,9.08,3.63,10.38,1.27,1.3,3.61,1.47,7.02.51,3.72-.1,6.13-.57,7.25-1.4,1.12-.83,1.9-2.75,2.34-5.75-1.51-4.2-3.07-6.9-4.69-8.07-1.62-1.18-4.69-1.85-9.21-2.03Z"/>
        <path id="Path-21" data-name="Path" class="cls-6" d="M610.86,139.01c-2.87,1.01-4.71,1.77-5.53,2.27-.82.5-1.41,1.91-1.78,4.24.34,2.93.67,4.94,1,6.03.33,1.08,2.3,2.44,5.91,4.05,4.22,1.3,6.82,1.8,7.8,1.52.98-.29,2.19-2.57,3.66-6.86.39-6.4-.07-10.15-1.37-11.25-1.3-1.09-4.53-1.09-9.69,0Z"/>
        <path id="Path-22" data-name="Path" class="cls-6" d="M578.99,122.93c-3.96,3.59-6.58,6.27-7.87,8.02-1.29,1.75-1.15,3.75.42,6,2.37,1.67,4.06,2.91,5.07,3.74s3.37,1.46,7.07,1.91c3.73.75,5.98,1.07,6.77.97.79-.1,1.57-.68,2.36-1.73,1.08-1.91,1.89-3.17,2.43-3.78.54-.61,1.05-1.57,1.52-2.88-.94-8.96-2.25-14.01-3.95-15.13-1.7-1.12-6.31-.16-13.82,2.88Z"/>
        <path id="Path-23" data-name="Path" class="cls-6" d="M590.87,89.45c-.96,6.19-2.62,14.4.32,20.26,1.37,2.72,3.79,4.77,6.34,6.43,3.71,2.41,11.55,8.95,16.4,7,5.11-2.06,5.47-13.76,5.97-18.24.5-4.47.32-9.13-1.53-13.23-3.18-7.05-12.01-11.97-19.72-9.59-2.11.65-4.7,3.1-7.78,7.36Z"/>
      </g>
      <path class="cls-24" d="M675.41,114.08l-.04-.08-24.78-56.8-3.81-8.69-.12-.08-38.11-26.69-.06-.03h-.27s-283.41-4.84-283.41-4.84l-4.98,2.14-1.67.72-13.68,5.87h-.06l-16.92-.47-215.2-5.54-.84.83L11.09,80.38h-.01s-.07.08-.07.08L1.54,185.77l34.75,48.74,6.74,9.4v.02s154.15,7.79,154.15,7.79l.04-.02s.02,0,.03-.01l13.83-4.87,24.66-8.71.3-.11,28.3.24,357.41,2.57.02-.02,31.21-28.02.12-.11,7.65-33.52,14.75-64.86-.09-.2ZM28.94,183.72h.01l.05.04s-.05-.01-.06-.04Z"/>
      <g id="Hiasan-Bar-Start-Kiir-Copy">
        <g>
          <path id="Path-24" data-name="Path" class="cls-23" d="M170.99,14.33c6.62.8,9.05,3.2,11.75,5.99,1.8,1.85,2.83,4.4,3.09,7.63-.37,3.72-.99,6.28-1.85,7.68-.86,1.4-2.45,2.42-4.76,3.07-10.67.26-18.13.26-22.37,0-9.03-.56-16.74-2.43-22.28-2.08-14.19.87-10.39,2.2-32.66,6.85-22.26,4.65-29.61,1.74-34.63,10.15-5.02,8.41-4.28,18.72-7.14,30.19-1.91,7.65-3.52,12.79-4.85,15.43-1.73,1-3.3,1.6-4.71,1.8-1.41.2-3.08.2-5.02,0-.26,6.41-1.03,10.59-2.31,12.55-1.28,1.96-3.98,3.06-8.09,3.31-4.7-.78-7.75-2.76-9.16-5.93-1.41-3.17-2.21-9.85-2.4-20.02-3.6.78-6.07.78-7.4,0-1.94-1.14-3.35-.32-4.49-6.53-1.47-8.04-.35-14.9,0-20.78.47-7.92.78-14.1,3.34-19.41,4.46-9.26,12.35-13.24,24.86-18.39,12.51-5.15,6.27-4.35,28.67-6.91,22.41-2.56,48.44-.21,51.67-2.27,2.15-1.37,6.39-2.15,12.72-2.33,20.93-.53,33.61-.53,38.02,0Z"/>
          <g class="cls-31">
            <path id="Path-26" data-name="Path" class="cls-8" d="M178.96,34.22c1.32,1.75-4.28,3.09-16.79,4-18.77,1.37-20.83-2.28-29.16,0-6.4,1.75-14.68,5.74-20.35,5.74-10.6,0-29.62,4.22-31.71,6.95-.59.77-4.61,4.29-6.48,11.98-1.71,7.03-1.11,17.82-4.76,27.71-1.15,3.12-3.68,6.16-7.59,9.11-3.43,1.6-5.96,2.6-7.58,3.03s-2.96.42-4.04,0c-1.17,9.05-2.35,14.81-3.53,17.26-1.18,2.46-3.6,4.03-7.24,4.71-4.42.51-8.43-.34-12.03-2.55-3.61-2.21-6.2-12.07-7.78-29.58-2.08.03-3.56-.63-4.45-1.99-.89-1.36-1.91-3.19-3.06-5.47,1.16,1.3,2.41,2.05,3.76,2.24,1.35.19,3.58-.05,6.7-.73.21,10.22,1.01,16.9,2.4,20.02,1.39,3.12,4.45,5.1,9.16,5.93,4.15-.44,6.95-1.76,8.4-3.97,1.45-2.21,2.11-6.17,2-11.89,4.17.64,7.05.33,8.63-.91,1.58-1.24,2.98-4.3,4.2-9.18,3.3-19.93,6.26-32.38,8.89-37.34,2.62-4.96,9.19-7.45,19.7-7.47,11.35-1.94,20.93-4,28.75-6.18,7.81-2.18,14.74-3.27,20.79-3.27,4.7.35,8.01.63,9.92.83,4.14.44,7.17,1.02,10.41,1.17,5.49.26,13.1.21,22.81-.15Z"/>
            <path id="Path-27" data-name="Path" class="cls-25" d="M11,50.55c3.8,8.53,12.64,4.44,17.57-.28-1.76,10.72-2.31,18.79-1.63,24.21.57,4.58,4.19,10.5,9.58,8.6s5.54-8.95,5.86-13.73c.25,3.17.15,7.61,1.25,10.39,6.99,5.05,7-9.7,7.25-12.96,3.47,2.05,6.9.12,10.3-5.77,3.39-5.89,4.59-12.01,3.6-18.36,1.84,2.33,5.04,2.52,9.59.57,4.64-1.95,8.42-5.6,11.02-9.93.23.55,1.21,1.21,1.8,1.59,1.01.65,2.18.74,3.34.71,3.55-.11,6.71-1.81,9.32-4.15,1.41,2.06,3.34,2.84,5.81,2.32,2.47-.51,4.65-2.14,6.55-4.89,2.38,1.98,4.86,2.84,7.44,2.57,2.58-.27,4.66-1.41,6.24-3.42h17.17l14.07,1.44c4.44.4,7.67.2,9.67-.59,2-.79,3.79-1.93,5.36-3.4,5.52,6.51,10.14,7.02,15.79.82-1.11,10.41-7.32,12.29-16.8,11.87-7.16.1-14.39.07-21.44-1.38-10.75-1.77-20.71-1.34-31.08,2.14-16.51,4.35-27.16,6.73-31.94,7.14-10.7.92-10.12,1.27-13.12,2.14-7.54,2.18-9.67,12.97-10.83,19.33-1.17,6.36-2.13,14.75-3.55,19.74-1.22,4.28-1.45,9.02-3.2,13.22-2.54,6.1-6.05,5.67-11.75,5.65.05,6.53.38,14.74-6.98,16.7-4.89,1.24-10.98-.81-13.08-5.84-1.32-3.16-2.14-10.46-2.46-21.91-5.27,1.34-8.78,1.02-10.52-.94-2.83-3.19-2.29-9-2.33-12.92-.06-5.63.18-11.23.58-16.84.15-2.19.3-4.37.55-6.56.17-1.56,1.6-5.95,1.01-7.29Z"/>
            <path id="Path-28" data-name="Path" class="cls-1" d="M12.55,46.2c1.07,2.29,2.85,3.78,5.34,4.45,3.73,1.01,9.48-2.02,9.48-.63,0,.9-2.29,2.99-4.79,4.28-1.36.7-2.85.98-3.93,1.11-3.08.37-6.05-1.13-7.03-2.87-.66-1.16-.34-3.27.94-6.34Z"/>
            <path id="Path-29" data-name="Path" class="cls-1" d="M27.87,78.1c.71,1.49,2.96,1.95,6.75,1.37,3.79-.58,6.38-3.2,7.78-7.87.22,2.94-.25,5.56-1.4,7.87s-3.01,3.69-5.56,4.14c-2.07.28-3.62.07-4.66-.64-1.04-.71-2.01-2.33-2.92-4.88Z"/>
            <path id="Path-30" data-name="Path" class="cls-1" d="M42.74,72.94c1.21,3.99,2.42,5.85,3.64,5.58,1.22-.27,2.38-1.56,3.48-3.86-.09,3.62-.88,5.64-2.39,6.07-.87.25-3.07.14-3.6-.91-.54-1.06-.91-3.35-1.12-6.88Z"/>
            <path id="Path-31" data-name="Path" class="cls-1" d="M84.51,34.6c-2.6,3.34-5.74,5.65-9.41,6.93-3.68,1.28-7.14,1.78-10.38,1.5.87.96,1.72,1.49,2.56,1.6,1.98.26,5.12-.45,7.82-1.6,4.42-1.89,7.56-4.7,9.41-8.42Z"/>
            <path id="Path-32" data-name="Path" class="cls-1" d="M85.85,33.64c.65,1.79,2.38,2.51,5.19,2.17,2.81-.35,5.45-1.58,7.93-3.7-1.74,1.2-3.93,1.97-6.56,2.29-2.64.33-4.82.07-6.56-.76Z"/>
            <path id="Path-33" data-name="Path" class="cls-1" d="M100.25,31.99c.78,2.01,2.39,2.76,4.82,2.25,2.43-.52,4.51-1.99,6.25-4.43-1.87,1.5-3.64,2.43-5.32,2.78-1.67.35-3.67.15-6-.6"/>
            <path id="Path-34" data-name="Path" class="cls-1" d="M112.6,29.42c1.99,1.92,4.21,2.81,6.65,2.67,2.44-.14,4.67-1.24,6.68-3.29-2.34.98-4.57,1.54-6.68,1.66s-4.33-.22-6.65-1.04Z"/>
            <path id="Path-35" data-name="Path" class="cls-1" d="M172.94,26.83c1.57,2.27,3.36,3.6,5.38,3.97,1.18.22,4.75.29,6.13-.57.74-.46,1.56-1.65,2.47-3.57-2.18,1.18-4.51,1.72-6.99,1.62-2.48-.1-4.81-.58-6.99-1.45Z"/>
          </g>
          <path id="Path-36" data-name="Path" class="cls-13" d="M170.99,14.33c6.62.8,9.05,3.2,11.75,5.99,1.8,1.85,2.83,4.4,3.09,7.63-.37,3.72-.99,6.28-1.85,7.68-.86,1.4-2.45,2.42-4.76,3.07-10.67.26-18.13.26-22.37,0-9.03-.56-16.74-2.43-22.28-2.08-14.19.87-10.39,2.2-32.66,6.85-22.26,4.65-29.61,1.74-34.63,10.15-5.02,8.41-4.28,18.72-7.14,30.19-1.91,7.65-3.52,12.79-4.85,15.43-1.73,1-3.3,1.6-4.71,1.8-1.41.2-3.08.2-5.02,0-.26,6.41-1.03,10.59-2.31,12.55-1.28,1.96-3.98,3.06-8.09,3.31-4.7-.78-7.75-2.76-9.16-5.93-1.41-3.17-2.21-9.85-2.4-20.02-3.6.78-6.07.78-7.4,0-1.94-1.14-3.35-.32-4.49-6.53-1.47-8.04-.35-14.9,0-20.78.47-7.92.78-14.1,3.34-19.41,4.46-9.26,12.35-13.24,24.86-18.39,12.51-5.15,6.27-4.35,28.67-6.91,22.41-2.56,48.44-.21,51.67-2.27,2.15-1.37,6.39-2.15,12.72-2.33,20.93-.53,33.61-.53,38.02,0Z"/>
        </g>
      </g>
      <g id="Group-4">
        <path id="Path-37" data-name="Path" class="cls-15" d="M97.15,52.51c2.49,22.53,4.19,39.69,5.1,51.49.91,11.8,1.83,28.64,2.76,50.52,6.2-6.24,10.23-13.45,12.1-21.65,2.8-12.29.05-29.87,1.31-37.38.84-5.01,6.5-19.61,16.99-43.8l-38.25.82Z"/>
        <path id="Path-38" data-name="Path" class="cls-6" d="M127.04,52.1c-1.99,6.81-3.66,12.06-5.01,15.76-2.43,6.67-6.49,13.58-7.82,21.44-3.67,21.61-.49,34.99-2.2,47.12-1.14,8.08-3.47,14.12-7,18.1.92-4.03,1.48-12.06,1.69-24.09.21-12.03.1-30.27-.33-54.7,1.29-5.21,2.18-9.17,2.65-11.87.48-2.7.96-6.53,1.46-11.48l16.56-.28Z"/>
        <path id="Path-39" data-name="Path" class="cls-9" d="M97.15,52.51l13.34-.13c-.43,4.91-.96,9.14-1.59,12.7-.63,3.56-1.47,7.11-2.52,10.65.32,25.58.36,44.76.14,57.54-.22,12.78-.72,19.86-1.5,21.24l-2.94-52.05c-.62-7.5-1.26-14.52-1.9-21.08-.65-6.56-1.65-16.18-3.02-28.87Z"/>
      </g>
      <g id="Group-3">
        <path id="Path-40" data-name="Path" class="cls-20" d="M468.19,80.45c2.72-2.83,6.69-4.85,11.9-6.08,5.21-1.22,14.51-2.32,27.91-3.29,12.5,1.09,21.82,2.18,27.95,3.29,6.13,1.11,10.73,2.52,13.8,4.24,10.92-1.05,18.47-1.58,22.66-1.58s7.96.53,11.32,1.58c-2.97,3.06-6.03,5.41-9.17,7.06-3.14,1.64-7.57,3.24-13.28,4.81-24.65-.29-43.03-1.1-55.16-2.4-12.12-1.31-24.76-3.85-37.93-7.63Z"/>
        <path id="Path-41" data-name="Path" class="cls-6" d="M468.19,80.19c9.46-1.47,18.59-2.2,27.37-2.2,4.51,0,8.28.18,11.03.63,5.27.85,8.07,2.23,14.33,2.17,1.42-.01,3.04-.59,5.04-.59,4.58,0,11.77.59,27.67.59,1.49,0,11.52-.72,30.09-2.17-2.83,1.77-6.44,2.93-10.81,3.49-6.17.78-23.1,1.16-27.68,1.46-6.81.45-45.97.23-52.24-1.46-6.14-1.66-14.4-2.3-24.8-1.91Z"/>
        <path id="Path-42" data-name="Path" class="cls-9" d="M468.19,80.45c2.42-2.7,5.93-4.59,10.51-5.67,1.22-.29,2.82-.95,4.75-1.3,6.18-1.15,15.45-2.15,24.13-2.39,3.85-.11,7.58.63,10.89.84,5.58.34,14.62,1.13,21.57,2.85,2.62.65,5.85,1.93,9.69,3.84,10.12-1.15,17.27-1.72,21.43-1.72s8.34.57,12.55,1.72c-1.39.69-2.79,1.13-4.21,1.31-3.07.4-8.44.37-10.83.52-4.05.26-10.36.37-18.94.33-11.07.03-18.61-.08-22.61-.33-3.18-.2-7.22.66-9.9.43-4.33-.37-7.44-1.72-10.64-2.26-4.26-.72-8.34-.61-12.33-.63-6.08-.02-11.25.55-15.55.95-2.96.27-6.47.78-10.51,1.51Z"/>
      </g>
      <g id="Group-2">
        <path id="Path-43" data-name="Path" class="cls-10" d="M550.83,175.35l11.4,6.96c7.39.64,13.32.97,17.8.97s9.9-.32,16.28-.97l6.56,4.07c4.18.62,7.52.93,10.02.93s4.93-.31,7.27-.93l-7.27-6.18c9.7.21,15.89.21,18.56,0,10.72-.86,12.38-2.44,14.38-2.44,2.76,0,.48-.81-6.82-2.42-28.66-.88-50.21-1.32-64.64-1.32s-22.28.44-23.54,1.32Z"/>
        <path id="Path-44" data-name="Path" class="cls-6" d="M550.83,175.42l10.15,3.1h30.24l12.96,4.56h12.37l-3.09-2.54c7.01-.11,12.23-.22,15.67-.34,3.44-.12,5.04-.24,4.78-.36-16.42-1.36-29.41-2.3-38.99-2.81-9.57-.51-24.27-1.05-44.1-1.62Z"/>
        <path id="Path-45" data-name="Path" class="cls-9" d="M550.83,175.42c22.83,1.02,39.32,1.83,49.46,2.42,10.15.59,21.36,1.4,33.62,2.42,2.83-.15,5-.37,6.51-.65,1.52-.28,3.7-.87,6.55-1.77-.6-.45-1.47-.85-2.59-1.2-1.12-.34-2.91-.75-5.37-1.22-20.11-.93-36.05-1.39-47.81-1.39-6.02,0-25.27-.24-32.18,0-4.39.15-7.12.62-8.19,1.39Z"/>
      </g>
      <path class="cls-30" d="M126.67,194.29c-1.75,2.8-9.3,12.14-9.53,12.91-.98,3.21,4.64,3.45,2.79,5.71-1.06,1.3-19.29,1.65-22.06-.02-1.19.55-.45,2.66-.59,3.12-.22.7-.66,1.67-.76,2.37-2.33.16-4.52.64-6.89.21,5.23-7.73-1.64-14.6-4.72-21.37-.75-1.65-1.05-1.23.11-3.17,14.53,11.81,26.3,12.12,38.53-2.55l16.7-18.19,46.3-8.56-39.85,13.09-20.03,16.45Z"/>
      <g>
        <path id="Path-46" data-name="Path" class="cls-8" d="M265.05,28.63c4.18,3.4,7.56,5.71,10.13,6.94,2.7,1.29,5.23,1.74,7.59,1.35,4.81.34,8.02.34,9.62,0,1.61-.34,3.22-1.36,4.84-3.06,2.92,3.48,5.46,5.87,7.63,7.16,2.17,1.29,5.19,2.21,9.07,2.77,5.84.64,10.44.64,13.79,0,3.35-.64,8.12-2.42,14.31-5.34,2.9-2.26,9.15-3.79,18.76-4.59,9.6-.8,21.74-.8,36.42,0,9.61-.57,17.41-.92,23.39-1.04,5.98-.12,15.38-.12,28.19,0,5.58-.34,11.93-.34,19.06,0,10.69.51,12.52,1.87,18.72,2.76,4.14.59,8.74,1.55,13.81,2.88,8.38,2.58,14.6,4.36,18.66,5.34,4.06.97,9.45,2.35,16.17,4.13,4.93-.19,8.77-.19,11.52,0,2.75.19,5.65.64,8.68,1.37,3.59,1.54,6.51,2.62,8.77,3.23s5.6,1.22,10.04,1.84c5.91.96,10.3,1.44,13.14,1.44s6.9-.48,12.17-1.44c1.09,6.54,2.29,11.14,3.62,13.81s3.36,4.81,6.11,6.43c3.34,1.26,5.87,1.9,7.57,1.9s6.64-1.3,14.81-3.89c4.87-1.87,9.15-2.65,12.84-2.35,13.46,1.1,13,11.4,14.05,10.83,2.78-1.49-.3-11.21-7.68-13.89-4.38-1.59-8.98-1.9-13.78-.93l-9.27,1.89c-11.18-4.37-17.37-7.99-18.55-10.86-1.18-2.87-.69-7.77,1.46-14.7-11.87-1.06-20.44-1.73-25.7-2.02-7.89-.43-14.83-1.47-22.06-2.14-10.08-.94-23.74-1.53-40.97-2.88-5.76-.45-15.31-1.37-28.64-2.76-8.69-.87-14.85-1.54-18.46-2.02-7.79-1.04-14.07-2.4-18.83-2.67-27.59-1.58-54.72-.28-71.3-.61-23.86-.47-40.76.26-50.71,2.2-3.91.98-7.4,1.84-10.48,2.58-3.08.74-7.76,1.83-14.04,3.28-2.66-.43-4.58-1.01-5.77-1.71-1.19-.71-2.56-2.09-4.09-4.15-9.92.22-17.28.22-22.06,0-2.26-.1-6.76.18-8.48,0-1.12-.11-2.45-.53-4-1.25-.1-.05-.18.09-.09.16Z"/>
        <g>
          <path id="Path-47" data-name="Path" class="cls-23" d="M264.69,28.9c3.11,3.87,8.83,2.85,13.13,2.56,9.55-.65,17.74-.75,26.87,2.05,10.31,3.17,18.12,1.05,28.42-1.76,8.33-2.24,16.78-3.01,25.44-3.24,65.56-1.11,130.84,4.54,196.03,10.7,5.03.49,55.99,7.52,56.57,5.84-5.1,14.73,4.23,24.44,19.87,23.49,7.97-.45,16.31-3.33,23.16,2.46,2.09,1.77,7.06,8.91,4.86,11.85,3.04-4.06,3.97-8.05,1.32-12.76-6.1-7.24-12.78-14.89-12.02-24.96.13-5.08,1.24-10.72.13-15.55-1.1-5.31-5.17-8.96-10.05-11.24-7.05-3.25-14.84-4.29-22.23-6.51-9.67-2.72-19-6.76-28.99-8.37-18.52-2.77-37.04-.1-55.62,1.3-40.02,3.11-79.91-3.45-119.88-3.75-21.39-.16-43.49.97-64.79,2.85-25.39,2.25-51.23,6.94-76.36,11.16-6.3,1.06-10.68,7.88-5.87,13.87Z"/>
          <g class="cls-28">
            <path id="Path-49" data-name="Path" class="cls-21" d="M625.74,13.98c4.12,4.46,6.7,8.05,7.73,10.77,1.23,3.32,1.28,7.41.81,11.03-.41,4.19-5.11,7.36-8.79,8.8-4.34,1.64-9.52.69-12.72-2.89-1.82-2.03-3.48-5.83-4.98-11.38-6.86.69-12.31.35-16.35-1.01-4.04-1.36-8.69-4.43-13.95-9.2-4.04,2.54-8.16,4.32-12.88,4.55-6.53.15-11.91-2.68-16.93-6.7-4.62,8.02-15.08,6.62-23.09,4.31-2.29-.52-4.46-1.85-6.43-2.97-1.54-.82-3.02.07-4.27,1.01-1.7,1.24-3.7,1.97-5.72,2.58-5.02,1.12-11.88,1.37-16.68-.87-1.9-.88-4-2.84-6.32-5.86-.7,3.71-2.29,5.82-6.12,6.7-4.05.77-7.22-.56-10.58-2.74-3.29,1.43-5.94,2.35-7.94,2.75-2,.4-5.28.67-9.84.8-4.23.37-7.87-.17-10.92-1.64s-6.1-4.14-9.17-8.02h-14.85c-3.48,2.74-7.6,4.27-12.11,3.5-2.5-.51-4.43-1.39-5.99-3.5-1,3-4,4.39-7.08,3.71-2.39-.66-3.48-3.2-5.91-3.71-5.89,3.63-11.35,6.23-18.03,5.83-3.23-.34-6.46-.72-9.67-1.23-3.44-.54-7.29-1.67-11.53-3.37-.88,1.88-2.23,3.18-4.08,3.9-1.44.31-3.48.54-4.92.08-.86-.27-1.49-.94-1.9-2.01-3.05,3.89-5.69,6.55-7.93,7.98-5.37,2.32-11.03,3.61-16.87,3.9-4.92-.24-8.78-3-12.37-6.23-8.79,5.41-15.32,6.37-25.56,4.56-3.07-.93-6.06-2.22-8.97-3.59-.15-.07-.31.07-.27.24.67,2.44,1.35,4.06,2.03,4.84,1.38,1.6,4.02,2.6,6.05,2.52,7.44-.27,14.9-.33,22.35-.48,1.63-.03,3.25-.07,4.88-.1.2,0,1.79-.21,1.91-.04,3.22,5.12,8.3,6.72,13.89,5.54,4.73-.88,9.58-2.1,14.26-3.53,2.39-.75,5.39-2.28,7.89-2.42,38.8-2.15,78.99-2.17,120.57-.08,18.9.95,37.09,4.29,60.12,6.44,10.74,1,18.15.76,37.83,2.3,5.01.39,11.78,1.67,22.25,2.64,6.09.56,17.62,1.42,34.6,2.58-3.39,6.09-3.74,14.52,1.58,19.61,2.54,2.47,6.01,3.53,9.22,4.83,2.38.97,4.85,1.74,7.43,1.84,2.21.08,4.47-.75,6.56-1.41,2.81-.81,5.62-.76,8.51-.59,5.89.3,11.73,2.01,14.17,8.17.92,2.33.56,4.95.18,7.43,1.48-.44,2.52-1.88,2.89-3.42.78-3.2.05-7.14-1.66-9.89-1.33-2.13-3.12-3.9-4.8-5.75-2.38-2.62-4.58-5.45-6.11-8.67-1.91-4.22-2.59-8.98-1.86-13.58,1.03-5.2,3.14-10.48,1.16-15.77-3.36-9.49-14.17-11.64-22.69-13.1Z"/>
            <path id="Path-50" data-name="Path" class="cls-1" d="M607.79,30.3c4.04,6.34,6.78,9.86,8.24,10.56s3.33,1.12,5.64,1.27c2.5-.38,4.4-.8,5.7-1.27,1.3-.47,3.55-1.6,6.74-3.38-1.79,2.36-3.38,4.06-4.78,5.1-1.4,1.04-3.95,2.1-7.67,3.18-1.84-.29-3.13-.56-3.87-.82-2.46-.85-4.1-2.02-5.07-2.81-1.42-1.14-3.06-5.08-4.93-11.83Z"/>
            <path id="Path-51" data-name="Path" class="cls-1" d="M577.43,20.38c5.96,3.11,9.77,4.86,11.42,5.25,1.65.4,3.59,1.08,5.82,2.06,4.45.47,7.24.81,8.36,1.01.87.16,2.27.57,4.2,1.25.41.14.33.75-.1.78-6.37.42-11.09.28-14.14-.44-3.35-.79-8.53-4.09-15.56-9.92Z"/>
            <path id="Path-52" data-name="Path" class="cls-1" d="M547.71,18.12c3.58,2.66,6.39,4.44,8.42,5.36,2.13.96,4.24,1.4,6.33,1.31,3.09-.03,5.57-.31,7.43-.84,1.79-.5,4.26-1.74,7.42-3.7.09-.06.04-.2-.07-.19-3.63.62-6.32,1-8.05,1.12-1.81.13-3.82.15-6.03.06-2.76,0-5.11-.22-7.04-.65-1.83-.41-4.61-1.3-8.34-2.65-.11-.04-.18.11-.08.17Z"/>
            <path id="Path-53" data-name="Path" class="cls-1" d="M517.07,18.36c2.6,1.89,4.79,3.14,6.56,3.76,1.91.66,4.99,1.17,9.25,1.52,5.35.03,8.79-.12,10.32-.45,1.47-.32,2.91-1.94,4.3-4.88.05-.09-.07-.18-.15-.12-3.04,2.37-5.31,3.57-6.81,3.61-1.56.04-3.26.04-5.11,0-4.13-.07-7.17-.29-9.12-.67-1.86-.36-4.91-1.34-9.16-2.94-.11-.04-.17.11-.08.17Z"/>
            <path id="Path-54" data-name="Path" class="cls-1" d="M485.22,16.47c2.14,2.74,4.24,4.66,6.27,5.76,2.12,1.14,4.71,1.64,7.78,1.5,5.73-.39,9.73-.96,12.02-1.73,2.19-.74,3.93-2.01,5.22-3.81.06-.08-.02-.19-.11-.15-3.57,1.21-6.29,2-8.16,2.37-1.92.37-4.91.67-8.97.89-2.64-.5-4.87-1.09-6.71-1.76-1.77-.65-4.18-1.72-7.23-3.22-.09-.05-.18.07-.11.15Z"/>
            <path id="Path-55" data-name="Path" class="cls-1" d="M484.98,16.37c-1.16,1.4-2.2,2.38-3.12,2.92-.97.57-2.4,1.01-4.3,1.33-.55.08-1.5.08-2.85,0-1.28-.08-3.28-.21-5.99-.4-.11,0-.14.14-.05.19,1.77.99,3.22,1.72,4.36,2.2,1.22.51,2.56.74,4.02.72,2.61-.09,4.58-.73,5.93-1.92,1.28-1.13,2.01-2.79,2.17-4.97,0-.1-.11-.14-.17-.07Z"/>
            <path id="Path-56" data-name="Path" class="cls-1" d="M429.99,13.98c2.57,2.1,5.48,3.76,8.74,4.97s6.99,2.04,11.2,2.46c3.94.15,6.96.15,9.06,0,1.95-.14,4.81-.53,8.59-1.17.12-.02.16.15.05.19-3.5,1.41-6.59,2.37-9.27,2.89-2.89.56-5.93.72-9.13.49-4.08.11-7.2-.39-9.36-1.49-2.16-1.11-5.45-3.89-9.88-8.34Z"/>
            <path id="Path-57" data-name="Path" class="cls-1" d="M385.65,14.38c1.29,1.18,2.35,2.1,3.19,2.74.94.72,1.92,1.01,2.95.87,1.86-.04,3.23-.38,4.13-1.05.84-.62,1.4-1.53,1.67-2.73.02-.09-.07-.15-.15-.1-.87.56-1.6.91-2.17,1.03-.62.13-1.67.26-3.17.39-1.27.07-2.36,0-3.27-.21-.8-.18-1.83-.55-3.09-1.1-.1-.04-.18.09-.1.16Z"/>
            <path id="Path-58" data-name="Path" class="cls-1" d="M384.66,13.98c-1.51.87-2.49,1.44-2.93,1.73-2.87,1.87-4.1,2.15-5.83,2.95-2.14.99-4.34,1.54-6.62,1.67-8.15-.79-13.53-1.48-16.16-2.08-2.62-.6-5.19-1.61-7.69-3.04,6.49,1.23,10.9,1.92,13.22,2.05,2.33.13,5.69.39,10.11.76,3.03-.57,5.67-1.1,7.91-1.59,2.24-.49,4.9-1.31,7.99-2.46Z"/>
            <path id="Path-59" data-name="Path" class="cls-1" d="M345.22,15.84c-.34.94-.75,1.64-1.24,2.1-.59.56-1.52,1.04-2.79,1.45-2.49.3-4.14.3-4.95,0-.76-.29-1.32-.97-1.67-2.04-.03-.08.05-.15.12-.12,1.2.48,2.15.71,2.83.71.72,0,1.76-.08,3.13-.24.93-.26,1.82-.51,2.66-.74.67-.18,1.25-.59,1.74-1.21.07-.09.2,0,.16.1Z"/>
            <path id="Path-60" data-name="Path" class="cls-1" d="M297.63,23.12c2.45,2.54,4.91,4.25,7.39,5.15,2.57.93,5.97,1.28,10.22,1.04,4.73-.96,8.42-2.28,11.07-3.98,2.65-1.69,5.39-4.42,8.21-8.18-3.18,2.95-5.92,4.93-8.21,5.95-2.29,1.01-5.98,1.97-11.07,2.87-2.55.13-5.02.02-7.39-.35-2.31-.36-5.68-1.25-10.12-2.66-.1-.03-.17.09-.1.17Z"/>
            <path id="Path-61" data-name="Path" class="cls-1" d="M297.18,23.06c-3.47,3.03-6.03,4.87-7.69,5.51-1.73.67-4.17.87-7.3.59-4.47-.17-8.11-.7-10.91-1.6-2.59-.83-5.31-2.01-8.15-3.54-.1-.06-.05-.21.06-.18,4.3,1.08,7.62,1.79,9.98,2.12,2.49.35,5.32.57,8.49.64,3.39-.31,6.01-.63,7.84-.97,1.73-.32,4.26-1.23,7.59-2.73.1-.05.19.09.1.16Z"/>
          </g>
          <path id="Path-62" data-name="Path" class="cls-13" d="M264.69,28.9c3.11,3.87,8.83,2.85,13.13,2.56,9.55-.65,17.74-.75,26.87,2.05,10.31,3.17,18.12,1.05,28.42-1.76,8.33-2.24,16.78-3.01,25.44-3.24,65.56-1.11,130.84,4.54,196.03,10.7,5.03.49,55.99,7.52,56.57,5.84-5.1,14.73,4.23,24.44,19.87,23.49,7.97-.45,16.31-3.33,23.16,2.46,2.09,1.77,7.06,8.91,4.86,11.85,3.04-4.06,3.97-8.05,1.32-12.76-6.1-7.24-12.78-14.89-12.02-24.96.13-5.08,1.24-10.72.13-15.55-1.1-5.31-5.17-8.96-10.05-11.24-7.05-3.25-14.84-4.29-22.23-6.51-9.67-2.72-19-6.76-28.99-8.37-18.52-2.77-37.04-.1-55.62,1.3-40.02,3.11-79.91-3.45-119.88-3.75-21.39-.16-43.49.97-64.79,2.85-25.39,2.25-51.23,6.94-76.36,11.16-6.3,1.06-10.68,7.88-5.87,13.87Z"/>
        </g>
      </g>
      <path class="cls-27" d="M393.6,51c1.34,12.33,17.77,20.67,36.72,18.62,18.94-2.05,33.21-13.71,31.88-26.05h-65.58l-3.02,7.43Z"/>
      <path class="cls-30" d="M510.7,176.88c-.6,1.5,4.25,19.31,4.82,22.4.77,4.15-.75,15.01,3.45,17.57-7.82,6.96-18,16.78-26.87,22.05-1.09.64-4.6,1.26-4.82,1.38v-.69c3.61-5.93,3.57-15.91,6.2-21.71,2.21-4.88,7.73-6.87,9.65-10.34,2.02-3.65,5.47-27.77,4.82-32.04,12.76-6.22,22.35-17.58,29.89-32.28-4.87,16.11-14.33,26.85-27.14,33.66Z"/>
      <path class="cls-27" d="M129.25,85.36c-1.09.08-4.1-.03-4.67-.43-1.64-1.15,17.19-25.55,14.64-30.71,12.76,8.23,28.9,2.67,44.43,5.36,7.39,5.05-28.18,6.42-31.83,7.69-8.52,2.97-10.08,17.23-22.58,18.1Z"/>
      <path class="cls-27" d="M543.68,190.27c-.1,20.58-13.02,26.99-28.98,35.24l28.98-35.24Z"/>
      <g id="Hiasa-Bar-Start-Bawah-Copy">
        <g>
          <path id="Path-63" data-name="Path" class="cls-23" d="M23.74,180.66c-1.28,1.97-2.06,3.6-2.34,4.87-.28,1.27.5,3.78,2.34,7.52,5.59,5.09,10.5,8.47,14.74,10.15,4.23,1.68,10.42,2.49,18.57,2.43-2.79,5.59-3.48,9.62-2.07,12.1s5.69,4.41,12.83,5.79c.16,26.88,1.39,46,3.71,57.34,2.32,11.34,6.17,17.17,11.57,17.49l3.92,10.22c-.5,25.28-.5,41.32,0,48.14.5,6.82,1.97,11.01,4.41,12.59,1.93.89,2.9-9.82,2.9-32.14s.9-52.46,2.69-90.43c.27-4.73,1.16-8.01,2.67-9.83,1.51-1.82,4.09-2.73,7.73-2.72-1.05,16.71-1.44,27.99-1.18,33.84.27,5.85,1.34,9.51,3.22,10.99,1.54-.22,2.68-3.88,3.42-10.99.75-7.1,1.17-18.38,1.28-33.84,8.53.91,14.05.91,16.57,0,2.52-.91,4.41-3.58,5.66-8.02,1.2-3.81.3-6.62-2.71-8.43-2.24-1.35-8.5-.66-14.62-1.83-2.1-.4-1.1-3.69-9.61-4.13-8.51-.44-13.83.73-18.04-1.42-4.21-2.15-1.89-3.19-4.41-8.86-2.52-5.67-10.57-2.21-15.49-3.88-2.57-.87-4.35-4.15-7.66-5.33-2.02-.72-5.98-1.06-11.87-1.02-3.14.13-6.29-.12-9.45-.74-3.15-.62-6.2-1.68-9.13-3.17l-9.68-6.68Z"/>
          <g class="cls-29">
            <path id="Path-65" data-name="Path" class="cls-25" d="M28.74,188.68c.67,1.73,1.49,3.35,2.82,4.66,2.55,2.51,6.04,3.91,9.27,5.32,4.26,1.87,8.69,3.31,13.01,5.03,1.04.42,2.09.86,2.97,1.55-10.96,1.18-22.85-2.2-30.93-9.89-2.47-2.44-4.59-5.73-4.53-9.3.08-1.77,1.35-3.3,2.12-4.85.7-1.31,2.78,1.22,3.35,1.81,1.14,1.59,1.22,3.87,1.92,5.67Z"/>
            <path id="Path-66" data-name="Path" class="cls-25" d="M57.02,208.32c-.34.68,2.82,4.26,3.3,4.83,3.58,4.37,8.81,7.39,14.61,6.93.17,4.43.51,8.89.51,13.32.3,7.72.59,15.44.89,23.17.08,2.12.16,4.24.24,6.36.09,2.26.69,3.86,1.55,6.06.49,1.25,1.09,2.49,2.01,3.47,1.04,1.1,3.01,2.22,4.48,1.26,1.32-.86,1.42-2.86,1.42-4.26,0-3.65.39-7.61,1.18-11.88.61,2.96,1.04,5.45,1.31,7.48.27,2.03.44,4.18.52,6.43.08,23.15.28,41.19.59,54.12.31,12.93.58,19.6.8,20.01,1.41,16.69,2.33,6.59,2.76-30.31.17-14.18.24-28.36.13-42.54-.09-10.77-.33-21.53-.74-32.29-.09-3.85-.69-7.71-.39-11.54,1.77-4.76,10.51.4,13.51.92,5.03.86,10.14,1.2,15.22,1.55,1.38.09,2.76.19,4.14.28,2.33.16,5.18-.04,7.35.7-.69.81-1.62,1.47-2.52,2.13-1.46.51-3.37.74-5.71.69-2.34-.05-5.66-.4-9.95-1.04-.08,15.16-.51,26.43-1.28,33.79-.77,7.37-1.91,11.02-3.41,10.97-1.82-.26-2.89-3.92-3.21-10.97-.32-7.05.07-18.32,1.17-33.79-2.45.04-4.26.39-5.41,1.04-3.34,1.87-4.32,5.65-4.7,9.16-1.05,9.6-.98,19.33-1.39,28.97-.81,19.2-1.14,32.25-1.27,41.97-.07,5.44-.06,11.68,0,16.7.32,25.5-.72,37.89-3.12,37.15-2.27-1.03-3.74-6.21-4.42-15.53-.68-9.32-.68-24.38,0-45.18-1.39-3.37-2.68-6.77-3.9-10.2-4.42-1.13-6.82-3.6-8.55-7.78-3.11-7.53-4.7-15.7-5.18-23.82-.52-8.75-.98-21.34-1.36-37.95-.05-1.45-.03-3.28-.7-4.4-.86-1.65-3.62-1.99-5.76-2.64-3.15-.69-5.69-2.79-7.01-5.72-.24-1.55.52-4.09,2.28-7.61Z"/>
            <path id="Path-67" data-name="Path" class="cls-1" d="M57.51,207.04c-2.13,4.69,3.66,8.68,6.69,11.44,3.1,2.83,6.68,1.72,10.73,1.59-4.11-2.83-9.3-3.87-12.75-7.6-1.64-1.7-3.08-3.58-4.51-5.45-.04-.06-.13-.05-.16.02Z"/>
            <path id="Path-68" data-name="Path" class="cls-3" d="M77.13,266.07c.98,2.81,1.84,4.8,2.59,5.97.79,1.24,1.77,2.05,2.92,2.42,1.31.12,2.22-.12,2.72-.73.51-.61.85-1.85,1.02-3.73-.88.85-1.59,1.39-2.12,1.62-.53.23-1.08.23-1.63,0-.44-.25-1.05-.78-1.81-1.6-.71-.76-1.88-2.1-3.51-4.03-.07-.09-.23-.02-.19.08Z"/>
            <path id="Path-69" data-name="Path" class="cls-18" d="M114.57,234.25c-2.43,1.79-4.03,3.31-4.79,4.56s-1.27,3.14-1.5,5.69c-.37,4.87-.56,8.51-.56,10.93s.19,5.15.56,8.21c.53,3.38,1.03,5.69,1.5,6.92s1.22,2.19,2.25,2.88c.91-3.83,1.52-8.22,1.84-13.18.32-4.96.56-13.62.7-26Z"/>
          </g>
          <path id="Path-70" data-name="Path" class="cls-13" d="M23.74,180.66c-1.28,1.97-2.06,3.6-2.34,4.87-.28,1.27.5,3.78,2.34,7.52,5.59,5.09,10.5,8.47,14.74,10.15,4.23,1.68,10.42,2.49,18.57,2.43-2.79,5.59-3.48,9.62-2.07,12.1s5.69,4.41,12.83,5.79c.16,26.88,1.39,46,3.71,57.34,2.32,11.34,6.17,17.17,11.57,17.49l3.92,10.22c-.5,25.28-.5,41.32,0,48.14.5,6.82,1.97,11.01,4.41,12.59,1.93.89,2.9-9.82,2.9-32.14s.9-52.46,2.69-90.43c.27-4.73,1.16-8.01,2.67-9.83,1.51-1.82,4.09-2.73,7.73-2.72-1.05,16.71-1.44,27.99-1.18,33.84.27,5.85,1.34,9.51,3.22,10.99,1.54-.22,2.68-3.88,3.42-10.99.75-7.1,1.17-18.38,1.28-33.84,8.53.91,14.05.91,16.57,0,2.52-.91,4.41-3.58,5.66-8.02,1.2-3.81.3-6.62-2.71-8.43-2.24-1.35-8.5-.66-14.62-1.83-2.1-.4-1.1-3.69-9.61-4.13-8.51-.44-13.83.73-18.04-1.42-4.21-2.15-1.89-3.19-4.41-8.86-2.52-5.67-10.57-2.21-15.49-3.88-2.57-.87-4.35-4.15-7.66-5.33-2.02-.72-5.98-1.06-11.87-1.02-3.14.13-6.29-.12-9.45-.74-3.15-.62-6.2-1.68-9.13-3.17l-9.68-6.68Z"/>
        </g>
      </g>
    </g>
  </g>
</svg>