<?xml version="1.0" encoding="UTF-8"?>
<svg id="Layer_2" data-name="Layer 2" xmlns="http://www.w3.org/2000/svg" xmlns:xlink="http://www.w3.org/1999/xlink" viewBox="0 0 276.25 401.74">
  <defs>
    <style>
      .cls-1 {
        fill: #b5ab95;
      }

      .cls-1, .cls-2, .cls-3, .cls-4, .cls-5, .cls-6, .cls-7, .cls-8, .cls-9 {
        stroke-miterlimit: 10;
      }

      .cls-1, .cls-4, .cls-9 {
        stroke: #b7b3ab;
        stroke-width: 1.34px;
      }

      .cls-2, .cls-3, .cls-5, .cls-6, .cls-7, .cls-8 {
        stroke: #e5d4c1;
      }

      .cls-2, .cls-3, .cls-5, .cls-9 {
        fill: none;
      }

      .cls-2, .cls-7 {
        stroke-width: 1.84px;
      }

      .cls-3, .cls-6 {
        stroke-width: 1.84px;
      }

      .cls-4, .cls-10 {
        fill: #cdc5b0;
      }

      .cls-5, .cls-8 {
        stroke-width: 1.77px;
      }

      .cls-11 {
        clip-path: url(#clippath-1);
      }

      .cls-12 {
        clip-path: url(#clippath-3);
      }

      .cls-13 {
        clip-path: url(#clippath-4);
      }

      .cls-14 {
        clip-path: url(#clippath-2);
      }

      .cls-15 {
        clip-path: url(#clippath-6);
      }

      .cls-16 {
        clip-path: url(#clippath-5);
      }

      .cls-17, .cls-6, .cls-7, .cls-8 {
        fill: #f9ecdc;
      }

      .cls-18 {
        opacity: .1;
      }

      .cls-18, .cls-19 {
        fill: #20164c;
      }

      .cls-19 {
        opacity: .15;
      }

      .cls-20 {
        clip-path: url(#clippath);
      }
    </style>
    <clipPath id="clippath">
      <path class="cls-7" d="M58.45,281.79c-5.61,64.53,17.73,70.31,8.17,83.33-18.52,1.97-8.83,13.27-13.08,18.35-1.67,1.99-.46,5.18,2.58,6.71,27.68,13.98,51.12,15.95,59.72-4.85,11.22-20.82,12.18-43.82-4.89-70.66l-52.5-32.88Z"/>
    </clipPath>
    <clipPath id="clippath-1">
      <path class="cls-7" d="M210.15,278.47c7.32,64.36-15.92,69.04-6.02,81.79,18.56,1.48,9.23,14.75,13.61,19.72,1.72,1.95.6,5.16-2.4,6.78-27.3,14.71-50.68,17.3-59.83-3.27-11.76-20.51-13.34-43.48,3.02-70.76l51.62-34.25Z"/>
    </clipPath>
    <clipPath id="clippath-2">
      <path class="cls-7" d="M206.91,190.22c60.96,120.22,42.96,178.92-80.37,178.7-83.69.47-152.8-36.35-63.72-184.9l144.09,6.2Z"/>
    </clipPath>
    <clipPath id="clippath-3">
      <path class="cls-4" d="M248.99,276.41c-63.53,39.16-181.09,24.85-233.81-2.27l-.12,26.05c32.85,17.57,73.86,43.95,78.26,80.21h66.4c8-31.87,54.24-57.8,91.81-82.39l-2.54-21.6Z"/>
    </clipPath>
    <clipPath id="clippath-4">
      <path class="cls-8" d="M233.91,136.46c15.45-7.04,8.89-53.44,23.26-60.29,1.19-.57,3.07,1.54,2.79,2.84-3.27,15.5,15.34,95.03-36.42,96.39l10.36-38.94Z"/>
    </clipPath>
    <clipPath id="clippath-5">
      <path class="cls-8" d="M33.74,131.2c-16.18-5.13-15.26-51.98-30.35-57.05-1.25-.42-2.86,1.9-2.43,3.15,5.11,15-3.78,96.19,47.76,91.3l-14.98-37.41Z"/>
    </clipPath>
    <clipPath id="clippath-6">
      <path class="cls-6" d="M236.64,87.13c15.51,55.52-2.78,94-45.14,131-22.87,21.06-89.91,27-123.14-8.96-31.83-42.3-47.82-73.62-42.89-116.11C43.87,24.42,91.87-7.33,159.87,2.75c9.2,2.72,19.31,7.62,29.87,13.6,9.86,5.58,18.55,13.28,25.35,22.67,9.31,12.84,17.12,31.9,21.55,48.11Z"/>
    </clipPath>
  </defs>
  <g id="mini-mini">
    <g>
      <path class="cls-7" d="M57.91,196.53c-25.94,5.58-29.96,18.3-20.67,35.55l20.67-35.55Z"/>
      <path class="cls-7" d="M211.4,199.03c25.16,8.43,27.74,21.52,16.59,37.63l-16.59-37.63Z"/>
      <g>
        <path class="cls-17" d="M58.45,281.79c-5.61,64.53,17.73,70.31,8.17,83.33-18.52,1.97-8.83,13.27-13.08,18.35-1.67,1.99-.46,5.18,2.58,6.71,27.68,13.98,51.12,15.95,59.72-4.85,11.22-20.82,12.18-43.82-4.89-70.66l-52.5-32.88Z"/>
        <g class="cls-20">
          <path class="cls-18" d="M128.2,381.29c-40.58-.75-62.51-13.94-83.24-10.28l20.58-32.76,80.85,10.36-18.19,32.68Z"/>
        </g>
        <path class="cls-2" d="M58.45,281.79c-5.61,64.53,17.73,70.31,8.17,83.33-18.52,1.97-8.83,13.27-13.08,18.35-1.67,1.99-.46,5.18,2.58,6.71,27.68,13.98,51.12,15.95,59.72-4.85,11.22-20.82,12.18-43.82-4.89-70.66l-52.5-32.88Z"/>
      </g>
      <g>
        <path class="cls-17" d="M210.15,278.47c7.32,64.36-15.92,69.04-6.02,81.79,18.56,1.48,9.23,14.75,13.61,19.72,1.72,1.95.6,5.16-2.4,6.78-27.3,14.71-50.68,17.3-59.83-3.27-11.76-20.51-13.34-43.48,3.02-70.76l51.62-34.25Z"/>
        <g class="cls-11">
          <path class="cls-18" d="M143.35,381.23c30.78-10.93,59.42-14.97,83.72-5l-18.47-33.99-81.34,5.23,16.09,33.76Z"/>
        </g>
        <path class="cls-2" d="M210.15,278.47c7.32,64.36-15.92,69.04-6.02,81.79,18.56,1.48,9.23,14.75,13.61,19.72,1.72,1.95.6,5.16-2.4,6.78-27.3,14.71-50.68,17.3-59.83-3.27-11.76-20.51-13.34-43.48,3.02-70.76l51.62-34.25Z"/>
      </g>
      <g>
        <path class="cls-17" d="M206.91,190.22c60.96,120.22,42.96,178.92-80.37,178.7-83.69.47-152.8-36.35-63.72-184.9l144.09,6.2Z"/>
        <g class="cls-14">
          <path class="cls-18" d="M83.52,371.04c-9.94-29.21-44.57-53.27-69.47-63.7l3.92-11.97,65.55,19.11,26.28,56.55h-26.28Z"/>
          <path class="cls-18" d="M168.96,373.61c14.49-25.69,56.08-52.39,84.48-67.64l-4.76-12.71-79.71,20.3-31.96,60.05h31.96Z"/>
          <g>
            <path class="cls-10" d="M248.99,276.41c-63.53,39.16-181.09,24.85-233.81-2.27l-.12,26.05c32.85,17.57,73.86,43.95,78.26,80.21h66.4c8-31.87,54.24-57.8,91.81-82.39l-2.54-21.6Z"/>
            <g class="cls-12">
              <path class="cls-1" d="M8.68,290.3c83.2,34,167.57,34.04,253.28,0v-21.6c-87.6,32.5-172.32,35.54-253.28,0v21.6Z"/>
            </g>
            <path class="cls-9" d="M248.99,276.41c-63.53,39.16-181.09,24.85-233.81-2.27l-.12,26.05c32.85,17.57,73.86,43.95,78.26,80.21h66.4c8-31.87,54.24-57.8,91.81-82.39l-2.54-21.6Z"/>
          </g>
          <ellipse class="cls-19" cx="134.52" cy="196.53" rx="76.61" ry="48.84"/>
        </g>
        <path class="cls-2" d="M206.91,190.22c60.96,120.22,42.96,178.92-80.37,178.7-83.69.47-152.8-36.35-63.72-184.9l144.09,6.2Z"/>
      </g>
      <g>
        <path class="cls-17" d="M233.91,136.46c15.45-7.04,8.89-53.44,23.26-60.29,1.19-.57,3.07,1.54,2.79,2.84-3.27,15.5,15.34,95.03-36.42,96.39l10.36-38.94Z"/>
        <g class="cls-13">
          <path class="cls-18" d="M201.6,184l32.28,4.74c14.8-27.53,17.8-56.61,12.74-86.76l-32.28-4.74-12.74,86.76Z"/>
        </g>
        <path class="cls-5" d="M233.91,136.46c15.45-7.04,8.89-53.44,23.26-60.29,1.19-.57,3.07,1.54,2.79,2.84-3.27,15.5,15.34,95.03-36.42,96.39l10.36-38.94Z"/>
      </g>
      <g>
        <path class="cls-17" d="M33.74,131.2c-16.18-5.13-15.26-51.98-30.35-57.05-1.25-.42-2.86,1.9-2.43,3.15,5.11,15-3.78,96.19,47.76,91.3l-14.98-37.41Z"/>
        <g class="cls-16">
          <path class="cls-18" d="M71.55,174.51l-31.47,8.59c-18.01-25.54-24.49-54.05-23.1-84.59l31.47-8.59,23.1,84.59Z"/>
        </g>
        <path class="cls-5" d="M33.74,131.2c-16.18-5.13-15.26-51.98-30.35-57.05-1.25-.42-2.86,1.9-2.43,3.15,5.11,15-3.78,96.19,47.76,91.3l-14.98-37.41Z"/>
      </g>
      <g>
        <path class="cls-17" d="M236.64,87.13c15.51,55.52-2.78,94-45.14,131-22.87,21.06-89.91,27-123.14-8.96-31.83-42.3-47.82-73.62-42.89-116.11C43.87,24.42,91.87-7.33,159.87,2.75c9.2,2.72,19.31,7.62,29.87,13.6,9.86,5.58,18.55,13.28,25.35,22.67,9.31,12.84,17.12,31.9,21.55,48.11Z"/>
        <g class="cls-15">
          <path class="cls-18" d="M276.25,120.83c-44.61,65.96-105.54,93.69-154.09,82.66-42.77-9.71-79.13-51.19-116.83-112.09l45.56,112.32c104.62,80.17,181.61,35.21,225.35-82.89Z"/>
        </g>
        <path class="cls-3" d="M236.64,87.13c15.51,55.52-2.78,94-45.14,131-22.87,21.06-89.91,27-123.14-8.96-31.83-42.3-47.82-73.62-42.89-116.11C43.87,24.42,91.87-7.33,159.87,2.75c9.2,2.72,19.31,7.62,29.87,13.6,9.86,5.58,18.55,13.28,25.35,22.67,9.31,12.84,17.12,31.9,21.55,48.11Z"/>
      </g>
    </g>
  </g>
</svg>