<?xml version="1.0" encoding="UTF-8"?>
<svg id="Layer_2" data-name="Layer 2" xmlns="http://www.w3.org/2000/svg" xmlns:xlink="http://www.w3.org/1999/xlink" viewBox="0 0 234.56 470.86">
  <defs>
    <style>
      .cls-1, .cls-2, .cls-3, .cls-4, .cls-5, .cls-6, .cls-7, .cls-8 {
        fill: #f8fbfe;
      }

      .cls-9 {
        clip-path: url(#clippath-1);
      }

      .cls-10 {
        clip-path: url(#clippath-3);
      }

      .cls-11 {
        clip-path: url(#clippath-4);
      }

      .cls-12 {
        clip-path: url(#clippath-2);
      }

      .cls-13 {
        clip-path: url(#clippath-6);
      }

      .cls-14 {
        clip-path: url(#clippath-5);
      }

      .cls-15, .cls-16, .cls-17, .cls-18, .cls-19, .cls-20, .cls-21 {
        fill: none;
      }

      .cls-15, .cls-16, .cls-17, .cls-18, .cls-19, .cls-20, .cls-21, .cls-2, .cls-3, .cls-4, .cls-5, .cls-6, .cls-7, .cls-8 {
        stroke: #d1d1d1;
        stroke-miterlimit: 10;
      }

      .cls-15, .cls-6 {
        stroke-width: 1.45px;
      }

      .cls-16, .cls-2 {
        stroke-width: 1.37px;
      }

      .cls-17, .cls-4 {
        stroke-width: 1.78px;
      }

      .cls-18, .cls-3 {
        stroke-width: 1.8px;
      }

      .cls-19, .cls-7 {
        stroke-width: 1.65px;
      }

      .cls-20, .cls-8 {
        stroke-width: 1.56px;
      }

      .cls-21, .cls-5 {
        stroke-width: 1.48px;
      }

      .cls-22 {
        opacity: .1;
      }

      .cls-22, .cls-23, .cls-24, .cls-25, .cls-26 {
        fill: #20164c;
      }

      .cls-23, .cls-27 {
        opacity: .15;
      }

      .cls-24 {
        opacity: .05;
      }

      .cls-25 {
        opacity: .25;
      }

      .cls-26 {
        opacity: .3;
      }

      .cls-27, .cls-28 {
        fill: #d7c5ff;
      }

      .cls-28 {
        opacity: .2;
      }

      .cls-29 {
        clip-path: url(#clippath);
      }
    </style>
    <clipPath id="clippath">
      <path class="cls-8" d="M61.97,416.42c-15.16,6.04-28.14,12.02-40.13,17.39-2.59,1.16-3.89,2.92-3.4,4.67,1.21,4.36,7.85,9.59,5.2,15.81,18.7-12.68,36.56-25.35,38.33-37.87Z"/>
    </clipPath>
    <clipPath id="clippath-1">
      <path class="cls-5" d="M153.81,409.72c5.22,9.79,25.48,19.13,38.78,27.6,2.72,1.73,3.57,3.77,2.25,5.21-4.31,4.71-9.75,7.46-16.12,8.58-19.8-14.94-34.23-29.34-24.91-41.39Z"/>
    </clipPath>
    <clipPath id="clippath-2">
      <path class="cls-7" d="M155.96,413.06c-.81,17.38,20.64,11.37,30.72,39.25-2.51,3.28-5.99,4.74-12.57,5.35l2.37,2.56c.8.86-.18,1.85-2.13,2.16-23.21,3.69-45.93,4.93-67.65,1.07-2.35,1.44-7.71,1.39-12.63.65-4.75-.71-11.93,3.42-30.9-1.69-10.21,3.94-12-.02-39.75-5.74-3.73-3.02,13.32-15.19,38.57-40.25-11.91-15.63,105.69-22.18,93.98-3.36Z"/>
    </clipPath>
    <clipPath id="clippath-3">
      <path class="cls-2" d="M155.96,413.06c9.12-8.55,22.63-13.68,27.53-21.22,5.86-8.45-5.96-18.14-4.42-29.95-58.91-8.04-98.67-9.77-132.26-.1-9.01,7.76-7.98,21.97-2.64,26.56,4.39,3.34,16.76,10.88,13.35,14.78-3.98,2.38-1.63,4.75,5.42,7.8,21.45-7.94,56.2-3.84,93.02,2.13Z"/>
    </clipPath>
    <clipPath id="clippath-4">
      <path class="cls-3" d="M148.45,258.16c5.74,3.44,12.21,3.5,19.43,8.65,4.43,1.03,8.69,1.47,13.59,1.38,3.77-.07,7.4,1.04,9.84,2.99,8.86,7.07,15.24,14.59,18.48,22.65,1.19,2.96,4.74,16.45,3.49,19.43-10.11,24.06-3.53,29.73-14.65,38.86-4.52,3.71-23,11.96-27.7,13.13-10.77,2.69-10.75,2.24-24.13,7.81-4.31-1.17-6.62-3.45-8.03-5.5-8.47,2.95-17.74,5.33-28.08,6.96-4.67-.32-8.94-2.37-12.85-5.94-.49-.45-1.43-.46-2-.06-.88.61-2.04.97-3.46,1.1-4.83-1.37-6.58-4.08-11.47-3.77-9.69,2.92-14.62-2.12-22.13-.48-10.77,2.34-17.56-6.11-24.34-14.54-4.9-6.09-5.17-12.78-6-19.96-1.54-13.21-7.34-25.47,1.92-50.47,1.57-3.58,24.83-17.84,33.91-22.51,4.92-2.53,11.01-3.83,17.17-3.57,7.77.33,14.25,1.48,19.47,3.44,1.13.42,2.53.32,3.47-.28.99-.62,1.88-1.3,2.72-2.01,12.36,4.47,26.2,5.24,41.36,2.69Z"/>
    </clipPath>
    <clipPath id="clippath-5">
      <path class="cls-4" d="M137.25,269.23c8.1-.08,17.72-3.64,28.04-8.78,19.68-11.72,44.26-30.39,57.81-49.73,2.02-6.49,7.1-33.3,7.17-53.55.05-13.2-3.89-27.61-12-41.28-3.43-5.77-8.53-10.34-14.5-13.4-14.22-7.27-29.78-27.24-59.36-38.99-34.37-9.42-71.35,6.15-114.71,44.87-15.54,21.08-14.23,36.88-19.15,55.44-.81,3.05-.95,6.24-.4,9.34,3.66,20.45,7.52,34.22,5.59,49.26,14.1,30.83,51.43,35.85,91.86,46.62l29.64.18Z"/>
    </clipPath>
    <clipPath id="clippath-6">
      <path class="cls-6" d="M150.37,69.88c7.99-4.49,12.42-1.83,14.85-5.86.83-3.91-8.73-1.44-4.17-8.9,13.97-4.31,19.75-2.44,24.15-5.58,3.8-2.62,2.12-7.79-2.38-16.01,2.46-1.4.26-19.16-1.86-17.68-4.83,3.39-14.19,4.63-19.3-4.42-4.21-.48-10.26,6.57-16.64,6.96-19.18-2.29-33.66-13.95-38.53-10.78-6.51,3.58-8.3,15.18-12.36,17.51-5.23,2.93-7.99-3.55-14.21-1.46-8.37,3.22-19.73,11-22.35,23.14-.34,1.58.41,3.2,1.89,4.03.81.45,1.7.85,2.44,1.19-4.67,3.64-20.76,15.36-7.79,18.44,1.34.35,2.86.76,3.97,1.46,2.64,1.45,2.43,4.76,4.64,6.82.78.74,1.7,1.34,2.62,1.93,1.15-.07,2.31-.41,3.39.13,1.05.52,1.93,1.65,3.19,1.79,38.47,4.22,69.12,3.07,78.48-12.7Z"/>
    </clipPath>
  </defs>
  <g id="mini-mini">
    <g>
      <g>
        <path class="cls-1" d="M61.97,416.42c-15.16,6.04-28.14,12.02-40.13,17.39-2.59,1.16-3.89,2.92-3.4,4.67,1.21,4.36,7.85,9.59,5.2,15.81,18.7-12.68,36.56-25.35,38.33-37.87Z"/>
        <g class="cls-29">
          <path class="cls-25" d="M67.26,410.17c-14.05,16.42-33.49,29.68-61.78,37.76l17.51,11.96c29.85-15.93,48.6-32.33,44.27-49.72Z"/>
        </g>
        <path class="cls-20" d="M61.97,416.42c-15.16,6.04-28.14,12.02-40.13,17.39-2.59,1.16-3.89,2.92-3.4,4.67,1.21,4.36,7.85,9.59,5.2,15.81,18.7-12.68,36.56-25.35,38.33-37.87Z"/>
      </g>
      <g>
        <path class="cls-1" d="M153.81,409.72c5.22,9.79,25.48,19.13,38.78,27.6,2.72,1.73,3.57,3.77,2.25,5.21-4.31,4.71-9.75,7.46-16.12,8.58-19.8-14.94-34.23-29.34-24.91-41.39Z"/>
        <g class="cls-9">
          <path class="cls-25" d="M142.44,402.93c15.07,23.26,48.1,31.86,51.55,50.2l-9.61,2.43c-29.04-19.75-47-37.88-41.94-52.63Z"/>
        </g>
        <path class="cls-21" d="M153.81,409.72c5.22,9.79,25.48,19.13,38.78,27.6,2.72,1.73,3.57,3.77,2.25,5.21-4.31,4.71-9.75,7.46-16.12,8.58-19.8-14.94-34.23-29.34-24.91-41.39Z"/>
      </g>
      <g>
        <path class="cls-1" d="M155.96,413.06c-.81,17.38,20.64,11.37,30.72,39.25-2.51,3.28-5.99,4.74-12.57,5.35l2.37,2.56c.8.86-.18,1.85-2.13,2.16-23.21,3.69-45.93,4.93-67.65,1.07-2.35,1.44-7.71,1.39-12.63.65-4.75-.71-11.93,3.42-30.9-1.69-10.21,3.94-12-.02-39.75-5.74-3.73-3.02,13.32-15.19,38.57-40.25-11.91-15.63,105.69-22.18,93.98-3.36Z"/>
        <g class="cls-12">
          <path class="cls-23" d="M45.04,450.33c22.68-10.34,38.07-22.5,42.98-37.27-13.75,22.8-48.25,27.01-42.98,37.27Z"/>
          <path class="cls-23" d="M53.9,445.82c37.39-9.37,71-22.49,65.57-30.81-12.59,10.03-33.15,20.91-65.57,30.81Z"/>
          <path class="cls-24" d="M151.11,421.45c-11.25,11.69-24.8,25.53-36.33,23.08,14.76-7.27,27.35-14.89,36.33-23.08Z"/>
          <path class="cls-23" d="M146.95,403.03c.9,5.78-3.03,11.98-11.61,19.19,6.21-1.98,12.06-5.55,17.75-9.82l-6.14-9.37Z"/>
          <path class="cls-23" d="M57.05,463.83c10.04-2.41,19.84-7.36,29.35-13.94-.38,7.64-4.79,13.55-10.07,20.96l-19.28-7.02Z"/>
          <path class="cls-23" d="M106.1,465.31c2.23-4.38.23-11.39-2.47-20.8,8.01,9.71,15.23,17.37,17.42,23.07l-14.95-2.27Z"/>
          <path class="cls-23" d="M176.64,461.1c-5.79-6.43-13.4-14.12-22.53-19.99,14.6,5.84,22.75,12.94,31.79,18.44l-9.27,1.55Z"/>
          <path class="cls-23" d="M160.26,414.71c-40-6.16-79.51-2.73-118.73,6.61l-10-8.86c46.77-12.84,91.85-17.21,133.73-5.49l-5,7.74Z"/>
          <path class="cls-23" d="M156.49,413.53c-38.95-7.39-78.9-5.21-119.47,2.89l-8.61-9.15c48.63-11.35,94.28-14.31,134.25-1.3l-6.18,7.56Z"/>
        </g>
        <path class="cls-19" d="M155.96,413.06c-.81,17.38,20.64,11.37,30.72,39.25-2.51,3.28-5.99,4.74-12.57,5.35l2.37,2.56c.8.86-.18,1.85-2.13,2.16-23.21,3.69-45.93,4.93-67.65,1.07-2.35,1.44-7.71,1.39-12.63.65-4.75-.71-11.93,3.42-30.9-1.69-10.21,3.94-12-.02-39.75-5.74-3.73-3.02,13.32-15.19,38.57-40.25-11.91-15.63,105.69-22.18,93.98-3.36Z"/>
      </g>
      <g>
        <path class="cls-1" d="M155.96,413.06c9.12-8.55,22.63-13.68,27.53-21.22,5.86-8.45-5.96-18.14-4.42-29.95-58.91-8.04-98.67-9.77-132.26-.1-9.01,7.76-7.98,21.97-2.64,26.56,4.39,3.34,16.76,10.88,13.35,14.78-3.98,2.38-1.63,4.75,5.42,7.8,21.45-7.94,56.2-3.84,93.02,2.13Z"/>
        <g class="cls-10">
          <path class="cls-23" d="M154.62,409.31c-22.71-10.94-37.29-23.45-40.19-38.24,11.1,23.02,47.49,28.22,40.19,38.24Z"/>
          <path class="cls-23" d="M131.04,399.97c-40.08-9.28-73.96-22.13-67.22-30.48,12.6,10.54,32.85,21.47,67.22,30.48Z"/>
          <path class="cls-24" d="M86.81,388.28c-18.41-3.63-31.32-9.25-36.29-17.77,8.34,7.02,20.9,12.81,36.29,17.77Z"/>
          <path class="cls-23" d="M138.8,410.28c-66.19-10.13-94.04-21.44-90.3-30.89,18.55,14.42,51,23.88,90.3,30.89Z"/>
          <path class="cls-24" d="M108.16,410.01c-19.56-2.76-39.36-5.5-43.33-9.26-5.06-2.35-11.55-6.84-18.14-11.47,5.77,5.2,12.79,11,12.29,13.16,10.5,2.97,29.88,5.27,49.18,7.57Z"/>
          <path class="cls-23" d="M166.7,374.89c-12.76,8.37-15.76,17.67-10.28,27.78.67-9.78,3.61-19.13,10.28-27.78Z"/>
          <path class="cls-23" d="M192.96,381.53c-25.49,10.31-30.03,24.07-41.52,37.22l43.96-27.44-2.44-9.78Z"/>
          <path class="cls-27" d="M33.91,372.05c-4.61,12.01,6.7,18.53,20.33,28.74-17.08-5.49-33.25-11-38.11-16.89l17.78-11.85Z"/>
          <path class="cls-27" d="M181.17,367.1c1.11,18.57-7.92,31.77-17.45,42.11l31.68-17.89-14.23-24.22Z"/>
          <path class="cls-23" d="M41.33,360.07l154.82-2.04-9.38,13c-1.44,2.08-4.78,3.74-9.09,4.49-9.87,1.74-23.19,2.54-35.45,6.14-3.95-.76-6.06-2.22-7.36-3.55-7.77,1.9-16.26,3.44-25.74,4.49-4.28-.21-8.19-1.53-11.78-3.83-.45-.29-1.31-.3-1.84-.04-.81.39-1.87.63-3.17.71-4.42-.89-6.03-2.63-10.52-2.43-8.88,1.88-17.1,1.99-23.62,3.61-15.2,3.77-21.16-9.46-27.73-16.19l10.84-4.36Z"/>
          <path class="cls-23" d="M37.62,366.58c6.57,6.73,4.04,8.66,19.24,4.88,6.52-1.62,16.1,3.62,24.98,1.74,4.49-.2,6.09,1.55,10.52,2.43,1.31-.08,2.37-.31,3.17-.71.53-.26,1.39-.25,1.84.04,3.59,2.3,7.5,3.62,11.78,3.83,9.48-1.05,17.97-2.59,25.74-4.49,1.29,1.33,3.41,2.79,7.36,3.55,12.26-3.59,25.57-4.4,35.45-6.14,4.3-.76,7.65-2.41,9.09-4.49l9.38-13-150.77,1.99-7.76,10.37Z"/>
        </g>
        <path class="cls-16" d="M155.96,413.06c9.12-8.55,22.63-13.68,27.53-21.22,5.86-8.45-5.96-18.14-4.42-29.95-58.91-8.04-98.67-9.77-132.26-.1-9.01,7.76-7.98,21.97-2.64,26.56,4.39,3.34,16.76,10.88,13.35,14.78-3.98,2.38-1.63,4.75,5.42,7.8,21.45-7.94,56.2-3.84,93.02,2.13Z"/>
      </g>
      <g>
        <path class="cls-1" d="M148.45,258.16c5.74,3.44,12.21,3.5,19.43,8.65,4.43,1.03,8.69,1.47,13.59,1.38,3.77-.07,7.4,1.04,9.84,2.99,8.86,7.07,15.24,14.59,18.48,22.65,1.19,2.96,4.74,16.45,3.49,19.43-10.11,24.06-3.53,29.73-14.65,38.86-4.52,3.71-23,11.96-27.7,13.13-10.77,2.69-10.75,2.24-24.13,7.81-4.31-1.17-6.62-3.45-8.03-5.5-8.47,2.95-17.74,5.33-28.08,6.96-4.67-.32-8.94-2.37-12.85-5.94-.49-.45-1.43-.46-2-.06-.88.61-2.04.97-3.46,1.1-4.83-1.37-6.58-4.08-11.47-3.77-9.69,2.92-14.62-2.12-22.13-.48-10.77,2.34-17.56-6.11-24.34-14.54-4.9-6.09-5.17-12.78-6-19.96-1.54-13.21-7.34-25.47,1.92-50.47,1.57-3.58,24.83-17.84,33.91-22.51,4.92-2.53,11.01-3.83,17.17-3.57,7.77.33,14.25,1.48,19.47,3.44,1.13.42,2.53.32,3.47-.28.99-.62,1.88-1.3,2.72-2.01,12.36,4.47,26.2,5.24,41.36,2.69Z"/>
        <g class="cls-11">
          <path class="cls-23" d="M96.83,261.34c-7.19,1.53-16.08,1.9-21.71,4.11l-26.03,38.65,30.44-35.15c3.26-2.8,11.92-4.54,17.3-7.61Z"/>
          <path class="cls-23" d="M123.22,267.47c-4.07-.07-8.13.1-12.03,2.8-10.64,16.16-19.82,37.41-31.02,59.74,15.33-20.56,29.24-40.55,34.14-56.97.36-3.27,4.58-4.45,8.9-5.57Z"/>
          <path class="cls-24" d="M98.49,295.68c-17.21,21.21-34.28,39.71-50.82,47.75,13.57-10.83,31.94-28.91,50.82-47.75Z"/>
          <path class="cls-24" d="M56.86,304.92c-13.07,13.91-18.43,26.72-19.15,38.86,4.37-12.63,10.9-25.61,19.15-38.86Z"/>
          <path class="cls-23" d="M95.85,368.53c23.27,4.48,27.9-9.88,37.8-32.26.38,11.61.77,23.03,1.75,27.7-.49,1.79,2.64,4.8,6.11,7.92l-26.23,7.17-19.42-10.53Z"/>
          <path class="cls-23" d="M133.65,331.77c-6.32-.94-7-13.8.19-32.95l-.19,32.95Z"/>
          <path class="cls-23" d="M149.19,352.02c.13-30.95,1.29-66.92-4.13-70.47.58,27.99,1.69,53,4.13,70.47Z"/>
          <path class="cls-23" d="M134.57,264.32c5.29,4.52,11,8.2,16.65,10.56,9.31,19.8,13.12,34.87,10.02,44.02-3.2-13.71-10.38-28.09-13.72-42.89-5.44-2.28-9.4-6.69-12.95-11.7Z"/>
          <path class="cls-23" d="M178.06,265.74c-14.02-8.64-29.19-11.07-45.52-7.28,22.22,8.69,36.87,10.65,45.52,7.28Z"/>
          <path class="cls-23" d="M119.77,256.44c-6.18,3.75-13.12,4.38-21.19.34l4.53-6.13,16.65,5.79Z"/>
          <path class="cls-23" d="M214.01,310.19c-18.41,41.41-69.37,52.58-80.05,64.34l32.2,3.02,38.49-12.58,9.37-54.78Z"/>
          <path class="cls-23" d="M87.21,373.39c-41.28-4.93-55.56-37.68-63.01-70.25-13.54,16.81-.06,37.66-3.12,56.72l25.16,16.85,40.97-3.33Z"/>
          <path class="cls-28" d="M224.32,308c-33.01-36.82-131.9-51.65-194.6-33.5l30.72-29.68,136.19,17.16,27.69,46.02Z"/>
          <path class="cls-27" d="M105.71,340.83c-3.43-18.32,8.6-42.3,10.49-61.29-12.74,25-23.65,48.22-44.04,73.33,22.21-17.98,22.61-23.37,33.55-12.04Z"/>
          <path class="cls-27" d="M158.81,281.72c14.68,19.88,26.14,38.82,5.67,48.38,5.16-12.91.55-30.28-5.67-48.38Z"/>
          <path class="cls-23" d="M82.02,368.87c5.89-4.27,8.22-12.97,10.18-22.14-6.88,9.85-14.88,18.74-25.9,25.03l15.73-2.89Z"/>
        </g>
        <path class="cls-18" d="M148.45,258.16c5.74,3.44,12.21,3.5,19.43,8.65,4.43,1.03,8.69,1.47,13.59,1.38,3.77-.07,7.4,1.04,9.84,2.99,8.86,7.07,15.24,14.59,18.48,22.65,1.19,2.96,4.74,16.45,3.49,19.43-10.11,24.06-3.53,29.73-14.65,38.86-4.52,3.71-23,11.96-27.7,13.13-10.77,2.69-10.75,2.24-24.13,7.81-4.31-1.17-6.62-3.45-8.03-5.5-8.47,2.95-17.74,5.33-28.08,6.96-4.67-.32-8.94-2.37-12.85-5.94-.49-.45-1.43-.46-2-.06-.88.61-2.04.97-3.46,1.1-4.83-1.37-6.58-4.08-11.47-3.77-9.69,2.92-14.62-2.12-22.13-.48-10.77,2.34-17.56-6.11-24.34-14.54-4.9-6.09-5.17-12.78-6-19.96-1.54-13.21-7.34-25.47,1.92-50.47,1.57-3.58,24.83-17.84,33.91-22.51,4.92-2.53,11.01-3.83,17.17-3.57,7.77.33,14.25,1.48,19.47,3.44,1.13.42,2.53.32,3.47-.28.99-.62,1.88-1.3,2.72-2.01,12.36,4.47,26.2,5.24,41.36,2.69Z"/>
      </g>
      <g>
        <path class="cls-1" d="M137.25,269.23c8.1-.08,17.72-3.64,28.04-8.78,19.68-11.72,44.26-30.39,57.81-49.73,2.02-6.49,7.1-33.3,7.17-53.55.05-13.2-3.89-27.61-12-41.28-3.43-5.77-8.53-10.34-14.5-13.4-14.22-7.27-29.78-27.24-59.36-38.99-34.37-9.42-71.35,6.15-114.71,44.87-15.54,21.08-14.23,36.88-19.15,55.44-.81,3.05-.95,6.24-.4,9.34,3.66,20.45,7.52,34.22,5.59,49.26,14.1,30.83,51.43,35.85,91.86,46.62l29.64.18Z"/>
        <g class="cls-14">
          <path class="cls-23" d="M227.36,200.4c3.64-9.39,4.25-24.25,1.35-45.46-6.57-28.5-25.97-42.22-45.2-56.15,18.95,17.32,35.98,35.24,39.65,57.27,3.58,17.54,4.37,32.15,4.21,44.34Z"/>
          <path class="cls-23" d="M11.41,223.24c-.57-28.07,1.21-55.84,7.48-68.83,10.19-18.12,27.78-36.63,47.29-55.25-20.15,15.23-39.1,30.63-47.82,47.5-6.25,9.38-12.31,25.82-18.37,42.47l11.41,34.1Z"/>
          <path class="cls-22" d="M234.56,275.96H.81v-110.93c45.26,94.73,199.35,117.87,233.75,0v110.93Z"/>
          <path class="cls-27" d="M202.86,95.12c-78.16-28.06-134.51-19.6-176.7,18.43,8.34-19.42,21-38.99,66.3-59.73l64.29-7.02,46.11,48.33Z"/>
          <path class="cls-23" d="M46.09,234.93c-6.56-5.63-11.62-11.64-13.27-18.48,1.43-8.89-7.27-27.16-14.41-43.98,3.91,19.81,7.92,39.78,5.57,48.25,7.2,8.54,14.61,12.32,22.11,14.21Z"/>
        </g>
        <path class="cls-17" d="M137.25,269.23c8.1-.08,17.72-3.64,28.04-8.78,19.68-11.72,44.26-30.39,57.81-49.73,2.02-6.49,7.1-33.3,7.17-53.55.05-13.2-3.89-27.61-12-41.28-3.43-5.77-8.53-10.34-14.5-13.4-14.22-7.27-29.78-27.24-59.36-38.99-34.37-9.42-71.35,6.15-114.71,44.87-15.54,21.08-14.23,36.88-19.15,55.44-.81,3.05-.95,6.24-.4,9.34,3.66,20.45,7.52,34.22,5.59,49.26,14.1,30.83,51.43,35.85,91.86,46.62l29.64.18Z"/>
      </g>
      <g>
        <path class="cls-1" d="M150.37,69.88c7.99-4.49,12.42-1.83,14.85-5.86.83-3.91-8.73-1.44-4.17-8.9,13.97-4.31,19.75-2.44,24.15-5.58,3.8-2.62,2.12-7.79-2.38-16.01,2.46-1.4.26-19.16-1.86-17.68-4.83,3.39-14.19,4.63-19.3-4.42-4.21-.48-10.26,6.57-16.64,6.96-19.18-2.29-33.66-13.95-38.53-10.78-6.51,3.58-8.3,15.18-12.36,17.51-5.23,2.93-7.99-3.55-14.21-1.46-8.37,3.22-19.73,11-22.35,23.14-.34,1.58.41,3.2,1.89,4.03.81.45,1.7.85,2.44,1.19-4.67,3.64-20.76,15.36-7.79,18.44,1.34.35,2.86.76,3.97,1.46,2.64,1.45,2.43,4.76,4.64,6.82.78.74,1.7,1.34,2.62,1.93,1.15-.07,2.31-.41,3.39.13,1.05.52,1.93,1.65,3.19,1.79,38.47,4.22,69.12,3.07,78.48-12.7Z"/>
        <g class="cls-13">
          <path class="cls-23" d="M124.05,85.67c9.96-2.87,17.48-19.11,23.35-24.67,6.15-4.78,11.95-7,17.27-5.82,9.98,13.48-10.67,28.92-25.33,27.58l-15.29,2.91Z"/>
          <path class="cls-23" d="M188.45,25.42c-13.31,1.01-37.12,18.48-38.45,24.98,7.76-6.64,29.91-20.96,40.21-17.33l-1.75-7.64Z"/>
          <path class="cls-23" d="M151.39,14.67c-9.99,9.97-16.04,19.2-20.92,30.98,1.92-12.13,5.86-24.34,9.95-34.93l10.97,3.95Z"/>
          <path class="cls-23" d="M103.38,4.65c-5.91,15.82-2.6,31.92,6.2,50.12-8.7-13.35-16.84-22.86-20.34-33.86l14.14-16.26Z"/>
          <path class="cls-26" d="M80.45,70.07c-3.5-8.75-13.14-16.89-26.19-21.89l-8.41,9.28c13.62-1.92,24.51,3.29,34.6,12.61Z"/>
          <path class="cls-26" d="M84.3,85.67c-8.49-4.62-17.3-15.86-27.63-13.81l2.18,15.8c7.9-6.15,16.48-1.08,25.45-1.99Z"/>
          <path class="cls-27" d="M53.18,78.32c.29-3.6,4.61-8.67,12.46-15.04-.76-.39-1.67-.85-2.5-1.38-1.52-.95-2.33-2.76-2.04-4.49,2.24-13.29,13.45-21.51,21.79-24.81,6.21-2.12,9.22,5.09,14.4,2.02,4.03-2.43,5.45-15.15,11.9-18.9,4.81-3.35,19.83,9.91,39.27,12.99,6.43-.23,12.3-7.82,16.57-7.16,5.46,10.11,14.87,9.02,19.63,5.44,1.17-.88,7.18,2.31,7.76,7.81l-5-22.69-27.42-8.2L106.64,0l-56.52,42.08-8.85,29.02,11.92,7.22Z"/>
        </g>
        <path class="cls-15" d="M150.37,69.88c7.99-4.49,12.42-1.83,14.85-5.86.83-3.91-8.73-1.44-4.17-8.9,13.97-4.31,19.75-2.44,24.15-5.58,3.8-2.62,2.12-7.79-2.38-16.01,2.46-1.4.26-19.16-1.86-17.68-4.83,3.39-14.19,4.63-19.3-4.42-4.21-.48-10.26,6.57-16.64,6.96-19.18-2.29-33.66-13.95-38.53-10.78-6.51,3.58-8.3,15.18-12.36,17.51-5.23,2.93-7.99-3.55-14.21-1.46-8.37,3.22-19.73,11-22.35,23.14-.34,1.58.41,3.2,1.89,4.03.81.45,1.7.85,2.44,1.19-4.67,3.64-20.76,15.36-7.79,18.44,1.34.35,2.86.76,3.97,1.46,2.64,1.45,2.43,4.76,4.64,6.82.78.74,1.7,1.34,2.62,1.93,1.15-.07,2.31-.41,3.39.13,1.05.52,1.93,1.65,3.19,1.79,38.47,4.22,69.12,3.07,78.48-12.7Z"/>
      </g>
    </g>
  </g>
</svg>