<?xml version="1.0" encoding="UTF-8"?>
<svg id="Layer_2" data-name="Layer 2" xmlns="http://www.w3.org/2000/svg" xmlns:xlink="http://www.w3.org/1999/xlink" viewBox="0 0 517.32 264.01">
  <defs>
    <style>
      .cls-1, .cls-2 {
        fill: #e5e3e1;
      }

      .cls-1, .cls-3 {
        clip-rule: evenodd;
      }

      .cls-4, .cls-5, .cls-2, .cls-6, .cls-7, .cls-8 {
        fill-rule: evenodd;
      }

      .cls-4, .cls-9 {
        fill: #bcb7bb;
      }

      .cls-5, .cls-3 {
        fill: #837e86;
      }

      .cls-10 {
        clip-path: url(#clippath-1);
      }

      .cls-11, .cls-7 {
        fill: #635d68;
      }

      .cls-6 {
        fill: #d9dadb;
      }

      .cls-12 {
        clip-path: url(#clippath);
      }

      .cls-8 {
        fill: none;
        stroke: #999;
        stroke-miterlimit: 10;
        stroke-width: 2.75px;
      }
    </style>
    <clipPath id="clippath">
      <path id="Path-2" data-name="Path" class="cls-1" d="M15.34,20.56c-5.75,6.4-10.41,14.22-13.96,23.48v166.12c1.14,12.21,4.89,21.51,11.25,27.92,6.36,6.4,16.67,12.91,30.93,19.52l135.02,3.14,13.55-8.36h33.29l16.62,8.36h31.95l8.29-6.07,5.74,4.43,181.24,3.54c13.9-3.02,24.66-9.59,32.27-19.71,7.61-10.11,11.42-21.04,11.42-32.77V30.15c-3.15-9.15-6.96-15.68-11.42-19.57-4.46-3.9-11.43-6.97-20.89-9.2H46.12c-14.77,6.39-25.03,12.78-30.79,19.18Z"/>
    </clipPath>
    <clipPath id="clippath-1">
      <path id="Path-13" data-name="Path" class="cls-3" d="M84.34,52.66c13.51-.79,352.47-1.58,361.33-.79,8.87.79,17.57,32.18,17.57,79.12s-5.52,75.41-17.57,79.12c-12.04,3.72-359.47,5.17-371.16,0-11.69-5.17-17.58-39.56-17.58-79.12s13.89-77.54,27.41-78.33Z"/>
    </clipPath>
  </defs>
  <g id="Layer_9" data-name="Layer 9">
    <g>
      <g>
        <path id="Path" class="cls-2" d="M15.34,20.56c-5.75,6.4-10.41,14.22-13.96,23.48v166.12c1.14,12.21,4.89,21.51,11.25,27.92,6.36,6.4,16.67,12.91,30.93,19.52l135.02,3.14,13.55-8.36h33.29l16.62,8.36h31.95l8.29-6.07,5.74,4.43,181.24,3.54c13.9-3.02,24.66-9.59,32.27-19.71,7.61-10.11,11.42-21.04,11.42-32.77V30.15c-3.15-9.15-6.96-15.68-11.42-19.57-4.46-3.9-11.43-6.97-20.89-9.2H46.12c-14.77,6.39-25.03,12.78-30.79,19.18Z"/>
        <g class="cls-12">
          <path id="Path-3" data-name="Path" class="cls-6" d="M476.85,1.38l-28.13,9.86-18.51,6.92h30.39c13.69.99,22.69,3.2,27,6.61,4.31,3.41,6.36,9.97,6.16,19.67l7.36,132.24,11.86,9.72V30.15c4.65-7.27.4-21.53-7.41-22.9-.02-4.33-14.62-7.97-28.72-5.88Z"/>
          <path id="Path-4" data-name="Path" class="cls-5" d="M501.11,176.67l11.86,9.72v28.98c-1.47,7.1-2.9,12.16-4.27,15.19-3.27,7.2-7.46,13.52-10.85,16.8-3.47,3.36-10.24,8.86-17.97,12.1-3.05,1.28-6.92,2.34-11.6,3.17l-44.69-.82,14.36-12.76c26.74-.94,42.36-3.93,46.85-8.95,8.86-9.91,14.29-31.05,16.31-63.43Z"/>
          <polygon id="Path-5" data-name="Path" class="cls-6" points="439.18 18.16 56.08 19.52 46.17 1.38 476.85 1.38 439.18 18.16"/>
          <path id="Path-6" data-name="Path" class="cls-6" d="M56.08,19.52c-9.24,4.66-15.93,9.13-20.09,13.4s-7.11,10.85-8.88,19.74L1.41,44.04c5.03-11.72,10.45-20.35,16.28-25.88,5.83-5.53,15.32-11.12,28.47-16.78l9.91,18.14Z"/>
          <polygon id="Path-7" data-name="Path" class="cls-4" points="27.12 52.66 27.12 211.9 1.41 205.85 1.41 44.04 27.12 52.66"/>
          <polygon id="Path-8" data-name="Path" class="cls-7" points="225.68 252.42 242.08 260.73 273.98 260.73 282.26 254.66 225.68 252.42"/>
          <polygon id="Path-9" data-name="Path" class="cls-7" points="282.26 254.66 288 259.09 464.12 262.63 452.49 248.72 282.26 254.66"/>
          <path id="Path-10" data-name="Path" class="cls-4" d="M512.98,30.15l-19.37,7.71c2.12,44.85,3.96,79.33,5.52,103.43,1.56,24.1,1.15,45.8-1.24,65.11l15.08-10.23V30.15Z"/>
          <polygon id="Path-11" data-name="Path" class="cls-7" points="37.52 245.16 26.02 248.69 43.6 257.59 178.48 260.73 193.29 252.42 37.52 245.16"/>
          <g>
            <path id="Path-12" data-name="Path" class="cls-5" d="M84.34,52.66c13.51-.79,352.47-1.58,361.33-.79,8.87.79,17.57,32.18,17.57,79.12s-5.52,75.41-17.57,79.12c-12.04,3.72-359.47,5.17-371.16,0-11.69-5.17-17.58-39.56-17.58-79.12s13.89-77.54,27.41-78.33Z"/>
            <g class="cls-10">
              <path id="Path-14" data-name="Path" class="cls-7" d="M483.53,173.13c11.64-15.02-35.99-36.69-35.99-36.69-40.9-19.55-321.33-32.97-373.37,3.19-7.29,4.12-17.43,11.85-29.44,17.81.12-17.91.74-33.47,1.85-46.69,1.66-19.82,12.99-57.99,27.59-59.12,14.6-1.13,381.51-6.86,390.77-1.6,9.26,5.27,15.18,26.77,17.19,60.71,1.34,22.63,1.8,43.42,1.39,62.38Z"/>
            </g>
          </g>
          <path id="uuid-46429fec-7e0f-4151-a3d1-4f78a512e772" data-name="Path-2" class="cls-5" d="M27.12,211.9l-25.7-6.04c.02,4.98.26,8.72.71,11.22.85,4.75,2.81,10.32,4.15,13.14,2.39,5.04,8.98,11.2,19.74,18.48l11.5-3.53c-4.82-6.06-7.83-11.04-9.06-14.95-1.22-3.91-1.67-10.01-1.35-18.32Z"/>
          <path id="Path-15" data-name="Path" class="cls-5" d="M510.34,77.29c1.62,3.1,2.68,5.07,3.19,5.92.51.85,1.77,2.75,3.79,5.71l-2.5-2.43c-1.28-.97-3.55-2.21-6.82-3.71-3.27-1.5-7.13-3.12-11.57-4.87l-56.16-49.41,2.56.72,52.91,46.7c5.39,2.31,8.96,3.55,10.71,3.71,1.76.17,3.05-.61,3.88-2.33Z"/>
          <path id="Path-16" data-name="Path" class="cls-4" d="M466.39,201.01c-2.14,2.28-3.36,4.17-3.64,5.67s.81,3.6,3.27,6.29c2.96,3.8,5.24,5.92,6.85,6.35,1.6.44,3.43-.56,5.48-2.99,2-2.2,2.99-4,2.99-5.39,0-1.4-1.01-3.46-3.02-6.18-2.9-2.13-4.99-3.41-6.27-3.83-1.28-.43-3.17-.4-5.65.08Z"/>
          <path id="Path-17" data-name="Path" class="cls-4" d="M485.68,220.22c-1.02-1.69-2.02-2.6-3.01-2.73-.99-.12-2.78,1.01-5.37,3.4-3.52,2.92-5.66,5.1-6.42,6.55-.76,1.44-.56,2.96.6,4.56,1,1.57,2,2.3,2.99,2.18.99-.12,2.73-1.18,5.22-3.17,2.32-2.72,3.81-4.67,4.47-5.83s1.17-2.82,1.52-4.96Z"/>
          <path id="Path-18" data-name="Path" class="cls-4" d="M465.84,232.59c2.23-3.72,3.42-6.63,3.55-8.74.13-2.11-1.45-4.58-4.74-7.42-4.03-4.18-7.02-6.31-8.98-6.41-1.96-.09-3.99,1.81-6.09,5.71-2.07,3.57-3.01,6.29-2.81,8.16.19,1.87,1.67,4.33,4.42,7.35,3.73,1.96,6.38,3.03,7.96,3.2,1.58.17,3.81-.44,6.69-1.86Z"/>
          <path id="Path-19" data-name="Path" class="cls-4" d="M59.84,31.44c-3.1-.93-5.26-1.26-6.46-.98-1.21.28-1.8,1.25-1.8,2.91.21,3.96.89,6.57,2.06,7.82s3.73,2.14,7.71,2.66c4.15,1.17,6.93,1.68,8.34,1.52,1.4-.16,2.64-1.12,3.7-2.88-.87-3.18-2.1-5.41-3.68-6.7-1.58-1.29-4.87-2.74-9.86-4.36Z"/>
          <path id="Path-20" data-name="Path" class="cls-4" d="M51.93,48.17c-.37-1.58-.99-2.54-1.86-2.88-.87-.34-2.25-.17-4.12.52-4.39,1.73-7.03,3.07-7.9,4.04-.88.96-.7,2.32.53,4.07.58,2.08,1.28,3.36,2.1,3.83.82.47,2.48.55,4.96.22,3.2-1.66,5.16-3.06,5.9-4.2s.87-3.01.41-5.59Z"/>
          <path id="Path-21" data-name="Path" class="cls-4" d="M60.72,47.78c-1.57-.42-2.73-.24-3.48.51-.75.76-1.32,2.32-1.68,4.68-.77,5.59-.97,9.11-.58,10.54.38,1.44,1.66,1.94,3.81,1.53,2.11.45,3.59.35,4.43-.28.84-.64,1.76-2.37,2.76-5.2.21-4.28.02-7.1-.6-8.48s-2.17-2.48-4.66-3.31Z"/>
          <path class="cls-11" d="M410.77,240.72c.58,1.65,3.41,7.33,3.45,7.76.14,1.77-2.79,1.25-2.1,2.63.4.79,9.77,3.06,11.39,2.52.55.42-.07,1.43-.05,1.68.03.39.15.94.12,1.31,1.19.35,2.26.85,3.53.9-1.82-4.59,2.52-7.35,4.88-10.49.58-.76.68-.51.31-1.65-8.85,4.43-14.97,3.25-19.6-5.73l-6.54-11.3-22.93-9.72,19.08,11.32,8.46,10.79Z"/>
          <path class="cls-9" d="M348.68,21.1c1.23,11.32,16.31,18.97,33.7,17.08,17.38-1.88,30.48-12.58,29.26-23.9h-60.18l-2.77,6.82Z"/>
          <path class="cls-11" d="M125.38,222.67c-.89.69-4.18,13.09-4.91,15.15-.98,2.77-5.68,8.77-4.06,11.77-7.13,1.46-16.68,3.81-23.85,3.89-.88,0-3.21-.85-3.38-.85l.24-.41c4.24-2.31,7.7-8.32,11.3-10.89,3.03-2.16,7.04-1.44,9.41-2.85,2.49-1.49,12.98-14.79,14.08-17.58,9.84.71,19.57-2.77,29.23-8.98-8.55,7.99-17.98,11.15-28.06,10.77Z"/>
          <path class="cls-9" d="M147.15,227.27c-3.8,13.79-13.63,15.75-25.84,18.39l25.84-18.39Z"/>
        </g>
      </g>
      <path id="Path-22" data-name="Path" class="cls-8" d="M15.34,20.56c-5.75,6.4-10.41,14.22-13.96,23.48v166.12c1.14,12.21,4.89,21.51,11.25,27.92,6.36,6.4,16.67,12.91,30.93,19.52l135.02,3.14,13.55-8.36h33.29l16.62,8.36h31.95l8.29-6.07,5.74,4.43,181.24,3.54c13.9-3.02,24.66-9.59,32.27-19.71,7.61-10.11,11.42-21.04,11.42-32.77V30.15c-3.15-9.15-6.96-15.68-11.42-19.57-4.46-3.9-11.43-6.97-20.89-9.2H46.12c-14.77,6.39-25.03,12.78-30.79,19.18Z"/>
    </g>
  </g>
</svg>