<?xml version="1.0" encoding="UTF-8"?>
<svg id="Layer_2" data-name="Layer 2" xmlns="http://www.w3.org/2000/svg" xmlns:xlink="http://www.w3.org/1999/xlink" viewBox="0 0 271.74 421.66">
  <defs>
    <style>
      .cls-1, .cls-2, .cls-3, .cls-4, .cls-5, .cls-6, .cls-7, .cls-8, .cls-9, .cls-10, .cls-11, .cls-12 {
        stroke-miterlimit: 10;
      }

      .cls-1, .cls-6 {
        stroke: #c6c6c6;
        stroke-width: 1.03px;
      }

      .cls-1, .cls-7, .cls-8, .cls-9, .cls-10, .cls-12 {
        fill: none;
      }

      .cls-13 {
        fill: #891210;
      }

      .cls-14, .cls-4, .cls-5 {
        fill: #eeeaf8;
      }

      .cls-2, .cls-15 {
        fill: #231d2d;
      }

      .cls-2, .cls-12 {
        stroke: #191721;
        stroke-width: 1.79px;
      }

      .cls-3, .cls-16, .cls-11 {
        fill: #f8fbfe;
      }

      .cls-3, .cls-7, .cls-10, .cls-11 {
        stroke: #d1d1d1;
      }

      .cls-3, .cls-10 {
        stroke-width: 1.91px;
      }

      .cls-4, .cls-5, .cls-8, .cls-9 {
        stroke: #cdcad8;
      }

      .cls-4, .cls-9 {
        stroke-width: 1.89px;
      }

      .cls-5, .cls-8 {
        stroke-width: 1.84px;
      }

      .cls-6, .cls-17 {
        fill: #f9f9f9;
      }

      .cls-18 {
        fill: #ddd;
      }

      .cls-19 {
        clip-path: url(#clippath-1);
      }

      .cls-20 {
        clip-path: url(#clippath-3);
      }

      .cls-21 {
        clip-path: url(#clippath-4);
      }

      .cls-22 {
        clip-path: url(#clippath-7);
      }

      .cls-23 {
        clip-path: url(#clippath-6);
      }

      .cls-24 {
        clip-path: url(#clippath-5);
      }

      .cls-25 {
        fill: #e25550;
      }

      .cls-26 {
        fill: #191918;
      }

      .cls-7, .cls-11 {
        stroke-width: 1.79px;
      }

      .cls-27, .cls-28, .cls-29 {
        fill: #20164c;
      }

      .cls-27, .cls-30 {
        opacity: .15;
      }

      .cls-28 {
        opacity: .4;
      }

      .cls-29 {
        opacity: .2;
      }

      .cls-31 {
        fill: #0c0812;
      }

      .cls-32 {
        fill: #b33c33;
      }

      .cls-30 {
        fill: #d7c5ff;
      }

      .cls-33 {
        fill: #d1d1d1;
      }

      .cls-34 {
        clip-path: url(#clippath);
      }

      .cls-35 {
        fill: #898989;
      }
    </style>
    <clipPath id="clippath">
      <path class="cls-3" d="M161.55,331.02l-36.66-15.48c-16.2,29.69-1.51,53.8-4.75,76.26-6.3-.7-8.95,13.04-20.89,7.52-1.2-.56-1.74,1.22-2.59,2.77-1.86,3.41-2.34,7.27-.92,10.04,7.22,14.13,50.33,9.4,68.64-4.13,2.63-4.36-7.23-7.25-2.41-19.75,7.77-20.51-.88-38.65-.43-57.23Z"/>
    </clipPath>
    <clipPath id="clippath-1">
      <path class="cls-5" d="M183.05,210.65c27.08,25.81,31.55,64.63,47.26,100.33,11.28,25.63,16.94,49.1,11.07,71.92-43.7-43-54.24,10.62-110.31,0-15.49-3.53-31.6-11.07-48.06-20.78-22.62,10.41-25.53.89-35.65-6.52-10.91-5.04-23.59,5.99-26.77,25.47-8.86-25.78,31.78-98.74,44.66-159.17l117.8-11.26Z"/>
    </clipPath>
    <clipPath id="clippath-3">
      <path class="cls-4" d="M168.22,262.74c-4.27,23.68-10.08,46.32-6.67,68.29-8.03,19.88-16.48,33.89-31.28,45.87,19.96-38.78,14.3-53.37-6-65.67-1.92,2.73-4.39,2.25-8.71,1.06-43.55-11.96-4.69-40.68,39.65-64.92l13.01,15.37Z"/>
    </clipPath>
    <clipPath id="clippath-4">
      <path class="cls-11" d="M44.83,89.19c-20.92,115.95-8.69,186.79,133.95,145.72,10.18-2.93,12.68-17.64,18.75-30.59C249.14,46.05,103.08,36.58,44.83,89.19Z"/>
    </clipPath>
    <clipPath id="clippath-5">
      <ellipse class="cls-6" cx="103.29" cy="170.54" rx="21.95" ry="25.74"/>
    </clipPath>
    <clipPath id="clippath-6">
      <ellipse class="cls-6" cx="30.45" cy="168.76" rx="21.95" ry="25.74"/>
    </clipPath>
    <clipPath id="clippath-7">
      <path class="cls-2" d="M120.6,30.39c-97.48,3.98-110.97,113.17-80.9,126.15,5.83-22.14,9.82-42.57,21.02-49.12-2.77,27.45,10.56,28.04.15,77.99,18.69-41.71,9.27-53.7,27.33-80.11-3.39,21.55,24.14,26.03,25.31,68.2.24-11.39,3.38-48.16,9.48-61.24,6.41,29.5,6.48,61.79,3.13,92.16,10.82-25.92,17.14-70.46,9.68-98.91,12.72,21.11,14.82,43.24,10,66.13,8.41-21.36,21.21-17.57,18.45-42.61,30.77,89.3-40.34,96.55-43.85,158.89,31.44-37.37,70.93-9.16,70.53-62.09,22.73,51.33-.59,83.2,18.77,114.95-11.27-37.73,30.78-73.45,33.43-136.36,11.96-108.98-26.36-167.67-104.85-174.48,4.8-3.09,16.57-2.81,17.67-4.48,3.29-5-16.56-5.95-25.32,4.59,18.75-24.4-4.64-28.82-8.19-18.86-1.94,5.45.2,9.59-1.86,19.21Z"/>
    </clipPath>
  </defs>
  <g id="mini-mini">
    <g>
      <g>
        <path class="cls-16" d="M161.55,331.02l-36.66-15.48c-16.2,29.69-1.51,53.8-4.75,76.26-6.3-.7-8.95,13.04-20.89,7.52-1.2-.56-1.74,1.22-2.59,2.77-1.86,3.41-2.34,7.27-.92,10.04,7.22,14.13,50.33,9.4,68.64-4.13,2.63-4.36-7.23-7.25-2.41-19.75,7.77-20.51-.88-38.65-.43-57.23Z"/>
        <g class="cls-34">
          <path class="cls-29" d="M103.73,395.52c29.47-9.78,61.83-1.11,69.1,18.74l1.21-31.16c-11.7,5.17-44.27-9.36-69.57-20.09l-.74,32.52Z"/>
        </g>
        <path class="cls-10" d="M161.55,331.02l-36.66-15.48c-16.2,29.69-1.51,53.8-4.75,76.26-6.3-.7-8.95,13.04-20.89,7.52-1.2-.56-1.74,1.22-2.59,2.77-1.86,3.41-2.34,7.27-.92,10.04,7.22,14.13,50.33,9.4,68.64-4.13,2.63-4.36-7.23-7.25-2.41-19.75,7.77-20.51-.88-38.65-.43-57.23Z"/>
      </g>
      <g>
        <path class="cls-14" d="M183.05,210.65c27.08,25.81,31.55,64.63,47.26,100.33,11.28,25.63,16.94,49.1,11.07,71.92-43.7-43-54.24,10.62-110.31,0-15.49-3.53-31.6-11.07-48.06-20.78-22.62,10.41-25.53.89-35.65-6.52-10.91-5.04-23.59,5.99-26.77,25.47-8.86-25.78,31.78-98.74,44.66-159.17l117.8-11.26Z"/>
        <g class="cls-19">
          <path class="cls-29" d="M14.31,372.35c12.52-36.1,5.77-35.93,52.44-15.48-33.25-9.57-32.31-9.82-52.44,15.48Z"/>
          <ellipse class="cls-29" cx="149.83" cy="238.44" rx="32.58" ry="99.32" transform="translate(-107.1 353.71) rotate(-82.02)"/>
          <path class="cls-27" d="M68.33,285.58c11.04,25.87,28.87,36.94,43.74,13.59-14.96,4.77-29.17-1.66-43.74-13.59Z"/>
          <path class="cls-28" d="M130.27,376.89c1.78-19.24-2.48-34.87-15.24-45.42l33.77-19.34c4.87,24.57-1.23,46.18-18.53,64.76Z"/>
          <path class="cls-29" d="M221.97,261.56c6.12,90.05-31.99,109.01-94.4,129.94l144.17,2.76-49.76-132.71Z"/>
          <path class="cls-29" d="M148.13,349.44l13.22-79.19c.92,28.2,2.42,54.78,7.11,72.43-7.54,12.32-17.57,19.92-29.13,24.63l8.81-17.87Z"/>
        </g>
        <path class="cls-8" d="M183.05,210.65c27.08,25.81,31.55,64.63,47.26,100.33,11.28,25.63,16.94,49.1,11.07,71.92-43.7-43-54.24,10.62-110.31,0-15.49-3.53-31.6-11.07-48.06-20.78-22.62,10.41-25.53.89-35.65-6.52-10.91-5.04-23.59,5.99-26.77,25.47-8.86-25.78,31.78-98.74,44.66-159.17l117.8-11.26Z"/>
      </g>
      <g>
        <path class="cls-16" d="M117.33,303.43c16.33,1.22,22.34,9.45,21.43,21.69-.92,12.24-14.73,18.98-31.06,17.75-16.33-1.22-27.14-3.34-26.23-15.58s19.53-25.08,35.86-23.86Z"/>
        <path class="cls-7" d="M117.33,303.43c16.33,1.22,22.34,9.45,21.43,21.69-.92,12.24-14.73,18.98-31.06,17.75-16.33-1.22-27.14-3.34-26.23-15.58s19.53-25.08,35.86-23.86Z"/>
      </g>
      <g>
        <path class="cls-14" d="M168.22,262.74c-4.27,23.68-10.08,46.32-6.67,68.29-8.03,19.88-16.48,33.89-31.28,45.87,19.96-38.78,14.3-53.37-6-65.67-1.92,2.73-4.39,2.25-8.71,1.06-43.55-11.96-4.69-40.68,39.65-64.92l13.01,15.37Z"/>
        <g class="cls-20">
          <path class="cls-27" d="M126.86,315.68c-2-5.57-6.25-12.1-12.27-19.4,24.84,15.17,39.08,27.1,28,44.96l-15.73-25.57Z"/>
          <path class="cls-27" d="M140.54,304.93c11.26-6.5,14.02-18.05,12.26-40.8-2.86,19.93-5.35,33.7-12.26,40.8Z"/>
          <path class="cls-27" d="M118.82,293.14c12.59-3.24,25.96-10.03,30.36-32.42-8.1,18.43-31.63,18.32-30.36,32.42Z"/>
          <path class="cls-27" d="M161.91,306.22c-3.93-11.58-3.29-26.69-.16-43.73l.16,43.73Z"/>
        </g>
        <path class="cls-9" d="M168.22,262.74c-4.27,23.68-10.08,46.32-6.67,68.29-8.03,19.88-16.48,33.89-31.28,45.87,19.96-38.78,14.3-53.37-6-65.67-1.92,2.73-4.39,2.25-8.71,1.06-43.55-11.96-4.69-40.68,39.65-64.92l13.01,15.37Z"/>
      </g>
      <g>
        <path class="cls-16" d="M44.83,89.19c-20.92,115.95-8.69,186.79,133.95,145.72,10.18-2.93,12.68-17.64,18.75-30.59C249.14,46.05,103.08,36.58,44.83,89.19Z"/>
        <g class="cls-21">
          <g>
            <path class="cls-29" d="M83.58,139.83c-9.79,10.54,17.11,15.72,51.57,14.3-14.93-11.22-33.87-15.81-51.57-14.3Z"/>
            <path class="cls-31" d="M87.74,132.62c-4.22,2.39-5.87,6.33-6.4,10.93,20.98-2.65,40.67,1.25,58.46,14.84-7.79-13.57-22.69-22.23-43.42-26.85-3.05-.68-6.15-.34-8.64,1.07Z"/>
          </g>
          <g>
            <ellipse class="cls-29" cx="101.94" cy="173.91" rx="22.12" ry="25.94"/>
            <g>
              <ellipse class="cls-17" cx="103.29" cy="170.54" rx="21.95" ry="25.74"/>
              <g class="cls-24">
                <ellipse class="cls-26" cx="88.08" cy="172.32" rx="8.27" ry="10.54"/>
                <ellipse class="cls-18" cx="97.89" cy="192.42" rx="16.7" ry="23.99" transform="translate(-106.2 262.81) rotate(-82.07)"/>
                <path class="cls-35" d="M78.04,163.48c13.91-33.38,32.34-26.82,50.76-4.67-19.63-7.88-39.13-6.27-50.76,4.67Z"/>
              </g>
              <ellipse class="cls-1" cx="103.29" cy="170.54" rx="21.95" ry="25.74"/>
            </g>
          </g>
          <g>
            <ellipse class="cls-29" cx="29.1" cy="172.12" rx="22.12" ry="25.94"/>
            <g>
              <ellipse class="cls-17" cx="30.45" cy="168.76" rx="21.95" ry="25.74"/>
              <g class="cls-23">
                <ellipse class="cls-26" cx="15.25" cy="170.54" rx="8.27" ry="10.54"/>
                <ellipse class="cls-18" cx="25.06" cy="190.63" rx="16.7" ry="23.99" transform="translate(-167.21 189.13) rotate(-82.07)"/>
                <path class="cls-35" d="M2.96,153.98c22.85-28.03,38.65-16.48,49.98,10-16.57-13.15-35.72-17.17-49.98-10Z"/>
              </g>
              <ellipse class="cls-1" cx="30.45" cy="168.76" rx="21.95" ry="25.74"/>
            </g>
          </g>
          <path class="cls-13" d="M45.83,213.65c6.43,6.52,17.97,11.46,29.41,7.7,5.12-1.64,8.74-4.69,12.13-7.69,3.57-3.19,6.23-6.74,9.1-10.32,0,0,.5.09.5.09-.19,4.22-2.01,8.41-5.3,12.16-6.45,7.56-22.05,12.19-33.84,7.46-5.6-2.17-9.64-5.57-12.44-9.22l.44-.18h0Z"/>
          <path class="cls-32" d="M89.5,215.45c11.05,12.35-5.95,31.84-13.65,7l13.65-7Z"/>
          <g>
            <path class="cls-29" d="M18.39,135.89c6.25,11.36,17.47,14.96,33.67,10.81-6.71-12.35-17.98-15.85-33.67-10.81Z"/>
            <path class="cls-31" d="M49.62,135.45c2.86,3.31,3.2,7.16,2.44,11.25-16.61-8.55-33.86-11.13-52.06-4.86,9.95-9.24,24.48-12.17,42.77-9.89,2.69.33,5.16,1.56,6.85,3.51Z"/>
          </g>
          <path class="cls-25" d="M147.14,240.44c-8.45,10.89-17.83,9.25-23.47-1.57-5.64-10.81-22.9-16.59-14.45-27.48,8.45-10.89,26.18-9.81,38.12-4.19,11.94,5.62,8.25,22.35-.2,33.24Z"/>
          <path class="cls-29" d="M178.59,169.21c-7.7,12.61-14.27,22.36-25.97,30.06,4.5,7.12,5.58,16.24,5.65,25.95,14.99-18.42,22.44-37.07,20.32-56Z"/>
          <path class="cls-29" d="M195.87,89.85c17.16,96.41-2.37,148.88-152.32,167.77l152.03-18.93c30.97-35.54,34.82-83.44.29-148.84Z"/>
          <path class="cls-29" d="M116.35,30.39c-88.1,5.94-98.68,102.47-80.9,126.15,5.83-22.14,9.82-42.57,21.02-49.12-2.77,27.45,10.56,28.04.15,77.99,18.69-41.71,9.27-53.7,27.33-80.11-3.39,21.55,24.14,26.03,25.31,68.2.24-11.39,3.38-48.16,9.48-61.24,6.41,29.5,6.48,61.79,3.13,92.16,10.82-25.92,17.14-70.46,9.68-98.91,12.72,21.11,14.82,43.24,10,66.13,6.54-21.93,14.86-19.5,18.45-42.61,30.77,89.3-40.34,96.55-43.85,158.89,31.44-37.37,70.93-9.16,70.53-62.09,22.73,51.33-.59,83.2,18.77,114.95-11.27-37.73,30.78-73.45,33.43-136.36,11.96-108.98-26.36-167.67-104.85-174.48,4.8-3.09,16.57-2.81,17.67-4.48,3.29-5-16.56-5.95-25.32,4.59,18.75-24.4-4.64-28.82-8.19-18.86-1.94,5.45.2,9.59-1.86,19.21Z"/>
        </g>
        <path class="cls-7" d="M44.83,89.19c-20.92,115.95-8.69,186.79,133.95,145.72,10.18-2.93,12.68-17.64,18.75-30.59C249.14,46.05,103.08,36.58,44.83,89.19Z"/>
      </g>
      <g>
        <path class="cls-15" d="M120.6,30.39c-97.48,3.98-110.97,113.17-80.9,126.15,5.83-22.14,9.82-42.57,21.02-49.12-2.77,27.45,10.56,28.04.15,77.99,18.69-41.71,9.27-53.7,27.33-80.11-3.39,21.55,24.14,26.03,25.31,68.2.24-11.39,3.38-48.16,9.48-61.24,6.41,29.5,6.48,61.79,3.13,92.16,10.82-25.92,17.14-70.46,9.68-98.91,12.72,21.11,14.82,43.24,10,66.13,8.41-21.36,21.21-17.57,18.45-42.61,30.77,89.3-40.34,96.55-43.85,158.89,31.44-37.37,70.93-9.16,70.53-62.09,22.73,51.33-.59,83.2,18.77,114.95-11.27-37.73,30.78-73.45,33.43-136.36,11.96-108.98-26.36-167.67-104.85-174.48,4.8-3.09,16.57-2.81,17.67-4.48,3.29-5-16.56-5.95-25.32,4.59,18.75-24.4-4.64-28.82-8.19-18.86-1.94,5.45.2,9.59-1.86,19.21Z"/>
        <g class="cls-22">
          <path class="cls-30" d="M164.78,29.57c106.32,42.68,128.62,121.56,74.9,233.2,18.47-129.76-15.25-197.01-74.9-233.2Z"/>
          <path class="cls-30" d="M210.65,275.15c34.38-55.37,30.03-117.46,7.03-153.56,17.73,54.68,18.03,114.83-7.03,153.56Z"/>
          <ellipse class="cls-30" cx="129.03" cy="8" rx="13.33" ry="8"/>
          <ellipse class="cls-30" cx="152.82" cy="22.22" rx="10.23" ry="4.44"/>
          <path class="cls-30" d="M145.83,44.62c26.15,3.65,56.38,21.7,59.92,40.3.66,3.45,3.68,6.02,4.9,9.3-3.43-6.1-7.96-11.37-12.83-16.24-7.37-7.28-15.58-13.68-24.26-19.33-8.72-5.65-17.83-10.69-27.74-14.02h0Z"/>
          <path class="cls-30" d="M140.07,46.89c23.61,29.61,29.14,49.41,16.08,66.46-.66-16.16-1.62-36.49-16.08-66.46Z"/>
          <path class="cls-30" d="M112.34,34.42c-38.26.03-82.49,33.94-87.09,68.77-.76,5.72-5.18,10.05-6.83,15.5,4.79-10.17,11.27-19.03,18.27-27.25,10.61-12.27,22.49-23.15,35.11-32.8,12.68-9.65,25.97-18.32,40.54-24.21h0Z"/>
          <path class="cls-30" d="M117.12,36.44c-28.07,19.17-44.95,38.08-43.77,56.58,8.46-17.06,24.43-36.32,43.77-56.58Z"/>
        </g>
        <path class="cls-12" d="M120.6,30.39c-97.48,3.98-110.97,113.17-80.9,126.15,5.83-22.14,9.82-42.57,21.02-49.12-2.77,27.45,10.56,28.04.15,77.99,18.69-41.71,9.27-53.7,27.33-80.11-3.39,21.55,24.14,26.03,25.31,68.2.24-11.39,3.38-48.16,9.48-61.24,6.41,29.5,6.48,61.79,3.13,92.16,10.82-25.92,17.14-70.46,9.68-98.91,12.72,21.11,14.82,43.24,10,66.13,8.41-21.36,21.21-17.57,18.45-42.61,30.77,89.3-40.34,96.55-43.85,158.89,31.44-37.37,70.93-9.16,70.53-62.09,22.73,51.33-.59,83.2,18.77,114.95-11.27-37.73,30.78-73.45,33.43-136.36,11.96-108.98-26.36-167.67-104.85-174.48,4.8-3.09,16.57-2.81,17.67-4.48,3.29-5-16.56-5.95-25.32,4.59,18.75-24.4-4.64-28.82-8.19-18.86-1.94,5.45.2,9.59-1.86,19.21Z"/>
      </g>
      <g>
        <path class="cls-16" d="M151.76,200.57c57.02-37.67,14.82-77.8.21-37.07"/>
        <path class="cls-33" d="M151.76,200.57c9.64-7.23,18.89-15.43,24.4-26.23,3.4-6.71,5.3-15.52,1.07-22.17-3.11-5.22-9.78-6.21-14.72-2.91-5.07,3.33-8.1,8.75-10.53,14.23,2.24-7.14,6.39-15.15,14.07-17.49,10.6-2.67,16.77,8.04,15.64,17.35-2.05,16.8-16.28,29-29.92,37.22h0Z"/>
      </g>
    </g>
  </g>
</svg>