<?xml version="1.0" encoding="UTF-8"?>
<svg id="Layer_2" data-name="Layer 2" xmlns="http://www.w3.org/2000/svg" xmlns:xlink="http://www.w3.org/1999/xlink" viewBox="0 0 81.01 79.5">
  <defs>
    <style>
      .cls-1 {
        fill: none;
      }

      .cls-1, .cls-2, .cls-3, .cls-4, .cls-5 {
        fill-rule: evenodd;
      }

      .cls-1, .cls-6 {
        stroke: #635d68;
        stroke-width: 2.75px;
      }

      .cls-2, .cls-7 {
        fill: #bcb7bb;
      }

      .cls-3, .cls-8 {
        fill: #837e86;
      }

      .cls-4, .cls-6 {
        fill: #d9dadb;
      }

      .cls-9 {
        clip-path: url(#clippath);
      }

      .cls-5 {
        fill: #635d68;
      }

      .cls-6 {
        clip-rule: evenodd;
      }
    </style>
    <clipPath id="clippath">
      <path class="cls-6" d="M28.87,2.22c-8.66,2.92-14.59,6.54-17.76,10.86-4.77,6.48-6.58,10.66-6.58,23.52s2.13,19.63,6.58,26.12c2.97,4.33,8.89,8.1,17.76,11.33h22.67c.71,0,4.07-1.88,10.1-5.63,9.05-5.63,16.84-19.35,16.84-30.21s-2.58-17.46-7.23-25.13c-3.1-5.11-8.34-8.73-15.7-10.86h-26.69Z"/>
    </clipPath>
  </defs>
  <g id="Layer_9" data-name="Layer 9">
    <g>
      <path id="Path" class="cls-5" d="M28.87,7.67c-8.66,2.92-14.59,6.54-17.76,10.86-4.77,6.48-6.58,10.66-6.58,23.52s2.13,19.63,6.58,26.12c2.97,4.33,8.89,8.1,17.76,11.33h22.67c.71,0,4.07-1.88,10.1-5.63,9.05-5.63,16.84-19.35,16.84-30.21s-2.58-17.46-7.23-25.13c-3.1-5.11-8.34-8.73-15.7-10.86h-26.69Z"/>
      <g id="Bola-Slide">
        <g>
          <path class="cls-4" d="M28.87,2.22c-8.66,2.92-14.59,6.54-17.76,10.86-4.77,6.48-6.58,10.66-6.58,23.52s2.13,19.63,6.58,26.12c2.97,4.33,8.89,8.1,17.76,11.33h22.67c.71,0,4.07-1.88,10.1-5.63,9.05-5.63,16.84-19.35,16.84-30.21s-2.58-17.46-7.23-25.13c-3.1-5.11-8.34-8.73-15.7-10.86h-26.69Z"/>
          <g class="cls-9">
            <path id="Path-2" data-name="Path" class="cls-2" d="M43.27,1.65c-13.28,6.18-22.17,11.61-26.68,16.28-4.51,4.67-9.2,14.05-14.07,28.12-.05-8.8-3.51-15.23-2.23-18.88C2.87,19.77,10.78,9.57,14.2,7.41,18.29,4.83,24.8-1.64,32.8.39c.93.24,4.07,1.86,6.24,1.27h4.23Z"/>
            <path id="Path-3" data-name="Path" class="cls-3" d="M48.99,75.23c11-12.61,19.02-17.98,21.39-21.82,2.37-3.84,4.04-14.91,7.71-27.52,0,5.6,3.32,12.69,2.88,18.4-1.29,16.97-8.33,29.92-25.13,31.96-1.75.21-5.84-1.15-6.84-1.02Z"/>
            <path class="cls-8" d="M60.1,45.1c.14.56-2.48,6.58-2.85,7.64-.49,1.42-.51,5.32-2.11,6.01,2.4,2.85,5.48,6.83,8.34,9.14.35.28,1.56.68,1.63.73l.04-.24c-.97-2.27-.44-5.79-1.07-7.96-.53-1.83-2.37-2.81-2.87-4.13-.53-1.39-.51-10.06-.06-11.53-4.17-2.84-6.97-7.33-8.88-12.9.89,5.92,3.67,10.19,7.83,13.24Z"/>
            <path class="cls-7" d="M46.93,51.2c.04,7.33,4.63,9.61,10.32,12.54l-10.32-12.54Z"/>
          </g>
          <path class="cls-1" d="M28.87,2.22c-8.66,2.92-14.59,6.54-17.76,10.86-4.77,6.48-6.58,10.66-6.58,23.52s2.13,19.63,6.58,26.12c2.97,4.33,8.89,8.1,17.76,11.33h22.67c.71,0,4.07-1.88,10.1-5.63,9.05-5.63,16.84-19.35,16.84-30.21s-2.58-17.46-7.23-25.13c-3.1-5.11-8.34-8.73-15.7-10.86h-26.69Z"/>
        </g>
        <path id="Path-4" data-name="Path" class="cls-2" d="M61.98,19.23c.97-.97,1.6-1.74,1.89-2.33.3-.59.26-1.35-.12-2.28-.37-1.33-.77-2.05-1.2-2.15-.43-.1-1.12.36-2.08,1.38-.91.93-1.46,1.66-1.66,2.2-.19.54-.17,1.28.06,2.24.58.7,1.04,1.1,1.37,1.21s.91.02,1.73-.27Z"/>
        <path id="Path-5" data-name="Path" class="cls-2" d="M66.38,18.25c-.98.98-1.57,1.79-1.77,2.43-.2.64.09,1.53.89,2.66.92,1.6,1.69,2.49,2.29,2.67.6.18,1.37-.25,2.32-1.3.92-.94,1.41-1.71,1.5-2.31.08-.59-.18-1.47-.8-2.62-1-.89-1.74-1.43-2.21-1.6-.48-.18-1.21-.16-2.21.06Z"/>
        <path id="Path-6" data-name="Path" class="cls-2" d="M65.24,29.51c.8-.56,1.22-1.09,1.24-1.58.03-.49-.6-1.34-1.87-2.54-1.57-1.64-2.72-2.62-3.46-2.95-.74-.32-1.49-.17-2.24.45-.74.55-1.07,1.07-.97,1.56.09.49.68,1.31,1.75,2.47,1.43,1.05,2.44,1.72,3.04,2.01s1.43.48,2.51.58Z"/>
      </g>
    </g>
  </g>
</svg>