<?xml version="1.0" encoding="UTF-8"?>
<svg id="Layer_2" data-name="Layer 2" xmlns="http://www.w3.org/2000/svg" xmlns:xlink="http://www.w3.org/1999/xlink" viewBox="0 0 315.22 435.06">
  <defs>
    <style>
      .cls-1, .cls-2, .cls-3 {
        fill: #fffdf5;
      }

      .cls-4, .cls-5, .cls-6, .cls-7, .cls-8, .cls-9, .cls-10, .cls-11, .cls-12, .cls-13, .cls-14, .cls-15, .cls-2, .cls-3, .cls-16, .cls-17 {
        stroke-miterlimit: 10;
      }

      .cls-4, .cls-5, .cls-6, .cls-7, .cls-8, .cls-9, .cls-10, .cls-15 {
        stroke: #33271d;
      }

      .cls-4, .cls-8, .cls-9, .cls-10, .cls-11, .cls-12, .cls-13, .cls-14, .cls-16 {
        fill: none;
      }

      .cls-4, .cls-15, .cls-16, .cls-17 {
        stroke-width: 1.83px;
      }

      .cls-18 {
        fill: #ede8d6;
      }

      .cls-5, .cls-6, .cls-7, .cls-15, .cls-19 {
        fill: #3e3023;
      }

      .cls-5, .cls-8 {
        stroke-width: 1.81px;
      }

      .cls-6, .cls-10 {
        stroke-width: 1.67px;
      }

      .cls-7, .cls-9 {
        stroke-width: 1.66px;
      }

      .cls-20 {
        opacity: .55;
      }

      .cls-20, .cls-21 {
        fill: #281e16;
      }

      .cls-11 {
        stroke-width: 1.73px;
      }

      .cls-11, .cls-12, .cls-13, .cls-14, .cls-2, .cls-3 {
        stroke: #ede8d6;
      }

      .cls-12 {
        stroke-width: 1.71px;
      }

      .cls-13, .cls-3 {
        stroke-width: 1.1px;
      }

      .cls-14, .cls-2 {
        stroke-width: 1.12px;
      }

      .cls-22 {
        clip-path: url(#clippath-11);
      }

      .cls-23 {
        clip-path: url(#clippath-10);
      }

      .cls-24 {
        clip-path: url(#clippath-13);
      }

      .cls-25 {
        clip-path: url(#clippath-12);
      }

      .cls-26 {
        clip-path: url(#clippath-1);
      }

      .cls-27 {
        clip-path: url(#clippath-3);
      }

      .cls-28 {
        clip-path: url(#clippath-4);
      }

      .cls-29 {
        clip-path: url(#clippath-2);
      }

      .cls-30 {
        clip-path: url(#clippath-7);
      }

      .cls-31 {
        clip-path: url(#clippath-6);
      }

      .cls-32 {
        clip-path: url(#clippath-9);
      }

      .cls-33 {
        clip-path: url(#clippath-8);
      }

      .cls-34 {
        clip-path: url(#clippath-5);
      }

      .cls-35 {
        fill: #4c392a;
      }

      .cls-36 {
        fill: #20164c;
      }

      .cls-36, .cls-37 {
        opacity: .15;
      }

      .cls-16, .cls-17 {
        stroke: #c1859b;
      }

      .cls-37 {
        fill: #f3eeff;
      }

      .cls-38 {
        fill: #e5ddc3;
      }

      .cls-17, .cls-39 {
        fill: #d48ca0;
      }

      .cls-40 {
        clip-path: url(#clippath);
      }
    </style>
    <clipPath id="clippath">
      <path class="cls-17" d="M73.72,309.61c-5.54,63.73,17.51,69.44,8.07,82.3-18.29,1.94-18.83,14.09-23.03,19.1-1.65,1.97,9.66,4.13,12.66,5.65,27.34,13.81,50.49,15.76,58.98-4.79,11.08-20.56,12.03-43.27-4.83-69.78l-51.86-32.47Z"/>
    </clipPath>
    <clipPath id="clippath-1">
      <path class="cls-17" d="M239.59,319.29c7.23,63.56-9.86,60.13-.09,72.73,18.34,1.46,24.26,19.16,28.59,24.07,1.7,1.92-14.55.51-17.51,2.1-26.96,14.53-50.06,17.09-59.09-3.23-11.62-20.26-13.17-42.94,2.98-69.89l45.12-25.78Z"/>
    </clipPath>
    <clipPath id="clippath-2">
      <path class="cls-2" d="M126.22,327.66c.86-5.53,6.83-6.4,11.85-8.42,1.14-.46-.08-2.23-1.31-2.29-11.27-.58-22.16-1.24-31.68-.86,5.63,5.07,12.77,8.85,21.14,11.58Z"/>
    </clipPath>
    <clipPath id="clippath-3">
      <path class="cls-6" d="M118.03,252.01c-.78,6-2.53,9.2-7.71,9.29-22.53-10.12-40.11,1.65-60.97,15.09-2.87,1.85-5.06,4.58-4.92,7.95.9,21.96,42.94,44.21,52.27,67.43,6.56,9.64,3.46,23.64,10.59,37.3-3.13-22.11,5.04-29.95-4.4-45.92,7.09,5.26,9.58,16.63,16.3,23.54-.74-12.65-7.43-26.07-15.9-40.47,6.17,6.58,12.98,11.77,20.54,15.33-.09,5.28,2.88,12.22,5.78,19.13-.22-8.5.28-18.52.69-25.39.26-4.31-1.72-8.48-5.27-11.04-20.08-14.49-26.44-8.06-34.1-14.11-13.42-10.12-7.6-21.15-18.04-24.05,32.3,8.92,44.2-3.36,45.13-34.1Z"/>
    </clipPath>
    <clipPath id="clippath-4">
      <path class="cls-2" d="M118.16,315.45c8.75,10.36,3.19,16.69-2.21,24.9l14.71,29.44,2.7-32.58-4.61-19.28-10.59-2.48Z"/>
    </clipPath>
    <clipPath id="clippath-5">
      <path class="cls-2" d="M114.05,338.68c-1.35,7.35-2.36,14.1-5.62,14.57,1.75,6.67,8.24,17.37,14.73,25.21.48-12.87-3.33-27.28-9.12-39.79Z"/>
    </clipPath>
    <clipPath id="clippath-6">
      <path class="cls-2" d="M108.71,354.23c-3.66,3.18-7.91,4.2-12.93,2.46-7.83,14.63,1.07,28.49,13.41,42.19,2.68-17.41,4.2-33.79-.48-44.65Z"/>
    </clipPath>
    <clipPath id="clippath-7">
      <path class="cls-3" d="M222.96,308.02c-9.31,3.54-18.29,7.25-25.08,12.11-11.42-2.9-12.35-16.97-25.49-14.81-.35.06-.57-.36-.31-.59,8.24-7.39,23.72,3.93,50.88,3.28Z"/>
    </clipPath>
    <clipPath id="clippath-8">
      <path class="cls-7" d="M204.34,254.09c5.77,15.25,25.57,4.44,35.03,7.92,7.37,4.79,15.87,5.51,19.82,12.09,20.25,10.32,25.27,21.85,12.95,30.78-26.03,22.82-60,39.96-65.38,88.77-4.08-13.67.98-25.59-.91-36.05-1.04-5.77,1.02-11.27,3.59-18.16-8.86,7.69-15.08,18.18-17.93,32.22-1.67-11.33,0-23.36,10.09-40.67-5.71,3.94-9.43,9.07-13.91,14.59-2.32,6.57-6.03,11.61-8.12,15.95-.91-9.96,6.16-23.2,15.62-39.54,1.08-1.87,2.57-3.5,4.39-4.71,12.77-8.52,27.22-12.86,42.47-15.26,7.26-3.07-2.71-11.52.14-17.19-27.73,4.07-45.1,3.17-37.87-30.74Z"/>
    </clipPath>
    <clipPath id="clippath-9">
      <path class="cls-3" d="M192.95,320.64c-1.05,9.99,1.44,14.21,3.59,16.51l-17.75,34.51-3.22-22.13,17.38-28.89Z"/>
    </clipPath>
    <clipPath id="clippath-10">
      <path class="cls-3" d="M195.75,338.68c2.04,3.25,4.64,6.3,7.92,9.1l-13.42,38.56c-3.53-17.39-4.21-33.97,5.5-47.65Z"/>
    </clipPath>
    <clipPath id="clippath-11">
      <path class="cls-3" d="M223.89,353.74c-7.5.27-14.12-1.3-19.42-5.73-2.61,3.77-3.03,9.64-2.13,16.78-4.54,10.02,1.39,23.99,5.77,37.38,3.09-16.77,7.61-33.14,15.78-48.44Z"/>
    </clipPath>
    <clipPath id="clippath-12">
      <path class="cls-5" d="M203.43,241.64l.71,12.93c16.82,4.09,25.73,7.75,33.07,12.21,8.98,5.46,12.98,16.48,9.33,26.34-1.79,4.84-2.08,8.34-2.36,13.79,1.11,33.86,29.69,22.28,11.27,54.3-4.87,5.56,4.05,7.45.17,13.61-3.2,5.55-6.83,10.15-11.17,13.13-10.87-3.33-21.79.28-28.66-2.99-1.49,7.15-5.63,14.16-12.35,21.02-4.21.25-9.27-.58-14.99-2.25-2.19,2.42-4.61,4.26-7.35,5.24-17.24-1.16-30.25-5.04-35.35-14.04l-5.19.62c-64.49,20.59-40.2-16.3-65.09-15.55-13.91,2.34-30.56-27.69-23.91-38.17,1.35-19.68,16.7-25.97,16.62-36.97l-2.33-10.86c-3.58-16.7,7.24-33.1,24-36.38l13.18-2.58c8.51-3.45,11.44-8.91,8.49-16.47l91.92,3.04Z"/>
    </clipPath>
    <clipPath id="clippath-13">
      <path class="cls-15" d="M283.13,147.4c12.06,45.06,6.87,93.4-.94,127.68-.58,2.55-4.8-21.46-5.65-18.98-6.39,18.62-8.25,33.48-12.42,42.32-6.29-18.87-14.15-11.27-21.39,2.71-5.06,24.81-16.55,42.58-30.47,57.69,3.18-25.27,5.88-34.39,2.26-59.68-11.92,21.4-22.94,27.12-31.09,49.21.46-22.25,1.52-43.83,7.44-60.1-14.06,12.31-21.12,35.75-24.65,64.84-8.17-15.36-8.68-36.6-4.04-61.78l-27.4,44.43c4.68-15.29,5.67-35.11,4.63-57.42-.55,24.54-19.88,33.32-35.95,54.57,3.3-30.8,14.48-57.53,9.25-84.3-6.25,28.69-21.13,52.31-39.16,74.08l11.42-62.47c-17.5,19.87-11.78,25.88-13.05,43.93-7.86-4.3-22.19-91.15-24.44-77.98-1.62,9.49.81,33.66,1.1,34.04-1.2-.53-32.28-20.54-6.54-75.34-5.47,7.54-15.64,29.24-20.97,34.56,6.43-42.17-9.75-113.3,36.76-170C86,6.9,164.35-8.41,204.02,6.91c-8.52.97-16.5,2.03-20.16,3.8,14.47-.5,28.99,2.93,43.55,10.86,37.1,4.5,71.51,43.08,76.88,89.15-2.95-3.77-6.4-12.67-10.77-15.28,7.33,23.65,6.2,48.76.5,66.78-3.72-5.17-8.1-14.35-10.88-14.81Z"/>
    </clipPath>
  </defs>
  <g id="mini-mini">
    <g>
      <g>
        <path class="cls-39" d="M73.72,309.61c-5.54,63.73,17.51,69.44,8.07,82.3-18.29,1.94-18.83,14.09-23.03,19.1-1.65,1.97,9.66,4.13,12.66,5.65,27.34,13.81,50.49,15.76,58.98-4.79,11.08-20.56,12.03-43.27-4.83-69.78l-51.86-32.47Z"/>
        <g class="cls-40">
          <path class="cls-36" d="M142.61,407.89c-40.08-.74-61.73-13.76-82.21-10.15l20.33-32.35,79.85,10.23-17.97,32.27Z"/>
        </g>
        <path class="cls-16" d="M73.72,309.61c-5.54,63.73,17.51,69.44,8.07,82.3-18.29,1.94-18.83,14.09-23.03,19.1-1.65,1.97,9.66,4.13,12.66,5.65,27.34,13.81,50.49,15.76,58.98-4.79,11.08-20.56,12.03-43.27-4.83-69.78l-51.86-32.47Z"/>
      </g>
      <g>
        <path class="cls-39" d="M239.59,319.29c7.23,63.56-9.86,60.13-.09,72.73,18.34,1.46,24.26,19.16,28.59,24.07,1.7,1.92-14.55.51-17.51,2.1-26.96,14.53-50.06,17.09-59.09-3.23-11.62-20.26-13.17-42.94,2.98-69.89l45.12-25.78Z"/>
        <g class="cls-26">
          <path class="cls-36" d="M179.47,412.73c30.4-10.79,58.69-14.78,82.69-4.94l-18.25-33.57-80.34,5.17,15.89,33.34Z"/>
        </g>
        <path class="cls-16" d="M239.59,319.29c7.23,63.56-9.86,60.13-.09,72.73,18.34,1.46,24.26,19.16,28.59,24.07,1.7,1.92-14.55.51-17.51,2.1-26.96,14.53-50.06,17.09-59.09-3.23-11.62-20.26-13.17-42.94,2.98-69.89l45.12-25.78Z"/>
      </g>
      <g>
        <g>
          <path class="cls-1" d="M126.22,327.66c.86-5.53,6.83-6.4,11.85-8.42,1.14-.46-.08-2.23-1.31-2.29-11.27-.58-22.16-1.24-31.68-.86,5.63,5.07,12.77,8.85,21.14,11.58Z"/>
          <g class="cls-29">
            <path class="cls-38" d="M133.84,324.32c-10.49-3.2-12.86-8.32-13.42-13.87l-27.73-2.36,25.37,28.3,15.78-12.07Z"/>
          </g>
          <path class="cls-14" d="M126.22,327.66c.86-5.53,6.83-6.4,11.85-8.42,1.14-.46-.08-2.23-1.31-2.29-11.27-.58-22.16-1.24-31.68-.86,5.63,5.07,12.77,8.85,21.14,11.58Z"/>
        </g>
        <g>
          <path class="cls-19" d="M118.03,252.01c-.78,6-2.53,9.2-7.71,9.29-22.53-10.12-40.11,1.65-60.97,15.09-2.87,1.85-5.06,4.58-4.92,7.95.9,21.96,42.94,44.21,52.27,67.43,6.56,9.64,3.46,23.64,10.59,37.3-3.13-22.11,5.04-29.95-4.4-45.92,7.09,5.26,9.58,16.63,16.3,23.54-.74-12.65-7.43-26.07-15.9-40.47,6.17,6.58,12.98,11.77,20.54,15.33-.09,5.28,2.88,12.22,5.78,19.13-.22-8.5.28-18.52.69-25.39.26-4.31-1.72-8.48-5.27-11.04-20.08-14.49-26.44-8.06-34.1-14.11-13.42-10.12-7.6-21.15-18.04-24.05,32.3,8.92,44.2-3.36,45.13-34.1Z"/>
          <g class="cls-27">
            <g>
              <path class="cls-1" d="M118.16,315.45c8.75,10.36,3.19,16.69-2.21,24.9l14.71,29.44,2.7-32.58-4.61-19.28-10.59-2.48Z"/>
              <g class="cls-28">
                <path class="cls-38" d="M130.71,325.86c-5.63,7.37-5.86,13.86-7.35,24.47l-11.28-19.13,6.34-13.69,12.29,8.36Z"/>
              </g>
              <path class="cls-14" d="M118.16,315.45c8.75,10.36,3.19,16.69-2.21,24.9l14.71,29.44,2.7-32.58-4.61-19.28-10.59-2.48Z"/>
            </g>
            <g>
              <path class="cls-1" d="M114.05,338.68c-1.35,7.35-2.36,14.1-5.62,14.57,1.75,6.67,8.24,17.37,14.73,25.21.48-12.87-3.33-27.28-9.12-39.79Z"/>
              <g class="cls-34">
                <path class="cls-38" d="M116.97,347.33c-2.89,4.25-4.21,9.33-4.82,14.77l-4.77-14.04,4.27-8.28,5.32,7.55Z"/>
              </g>
              <path class="cls-14" d="M114.05,338.68c-1.35,7.35-2.36,14.1-5.62,14.57,1.75,6.67,8.24,17.37,14.73,25.21.48-12.87-3.33-27.28-9.12-39.79Z"/>
            </g>
            <g>
              <path class="cls-1" d="M108.71,354.23c-3.66,3.18-7.91,4.2-12.93,2.46-7.83,14.63,1.07,28.49,13.41,42.19,2.68-17.41,4.2-33.79-.48-44.65Z"/>
              <g class="cls-31">
                <path class="cls-38" d="M111.18,356.28c-9.07,5.4-14.44,14.24-18.14,24.64-5.33-6.73-8.5-14.92-3.14-28.86l18.82-2.08,2.45,6.31Z"/>
              </g>
              <path class="cls-14" d="M108.71,354.23c-3.66,3.18-7.91,4.2-12.93,2.46-7.83,14.63,1.07,28.49,13.41,42.19,2.68-17.41,4.2-33.79-.48-44.65Z"/>
            </g>
          </g>
          <path class="cls-10" d="M118.03,252.01c-.78,6-2.53,9.2-7.71,9.29-22.53-10.12-40.11,1.65-60.97,15.09-2.87,1.85-5.06,4.58-4.92,7.95.9,21.96,42.94,44.21,52.27,67.43,6.56,9.64,3.46,23.64,10.59,37.3-3.13-22.11,5.04-29.95-4.4-45.92,7.09,5.26,9.58,16.63,16.3,23.54-.74-12.65-7.43-26.07-15.9-40.47,6.17,6.58,12.98,11.77,20.54,15.33-.09,5.28,2.88,12.22,5.78,19.13-.22-8.5.28-18.52.69-25.39.26-4.31-1.72-8.48-5.27-11.04-20.08-14.49-26.44-8.06-34.1-14.11-13.42-10.12-7.6-21.15-18.04-24.05,32.3,8.92,44.2-3.36,45.13-34.1Z"/>
        </g>
        <g>
          <path class="cls-11" d="M116.6,337.5c2.34,1.52,4.75,2.87,7.25,4.05-.09,5.28,2.88,12.22,5.78,19.13-.22-8.5.28-18.52.69-25.39.26-4.31-1.72-8.48-5.27-11.04-1.17-.84-2.29-1.61-3.36-2.32"/>
          <path class="cls-11" d="M109.67,351.56c2.93,5.11,5.45,10.94,9.53,15.13-.43-7.38-2.89-15.02-6.54-22.97"/>
          <path class="cls-11" d="M98.76,355.58c3.9,9.32,2.3,21.54,8.55,33.49-2.31-16.36,1.55-24.9-.1-34.71"/>
          <path class="cls-18" d="M99.61,355.45c-.36-1.1-1.38-1.94-3.02-2.56l1.92,4.21,1.1-1.65Z"/>
          <path class="cls-18" d="M117.46,337.07c-.89-.76-2.21-.96-3.93-.66,1.49,1.03,2.88,1.98,3.85,2.57l.08-1.91Z"/>
          <path class="cls-18" d="M110.67,351.59c-.45-1.07-1.51-1.66-3.19-2.15l2.22,3.88.96-1.73Z"/>
          <path class="cls-18" d="M106.41,354.67c-.36-1.1-.06-2.2.9-3.64.33,1.29.63,2.56.81,3.75l-1.71-.11Z"/>
          <path class="cls-18" d="M112.2,344.68c-.64-.97-.64-2.12-.09-3.75.66,1.16,1.29,2.31,1.77,3.42l-1.68.33Z"/>
          <path class="cls-18" d="M121.54,322.83c-1.05-.53-1.73-1.65-2.1-3.33l3.93,2.53-1.83.8Z"/>
        </g>
      </g>
      <g>
        <g>
          <path class="cls-1" d="M222.96,308.02c-9.31,3.54-18.29,7.25-25.08,12.11-11.42-2.9-12.35-16.97-25.49-14.81-.35.06-.57-.36-.31-.59,8.24-7.39,23.72,3.93,50.88,3.28Z"/>
          <g class="cls-30">
            <path class="cls-38" d="M213.77,304.78c-19.89,15.53-30.24-2.26-39.27,3.76l24.73,18.25,25.7-15.21-11.16-6.8Z"/>
          </g>
          <path class="cls-13" d="M222.96,308.02c-9.31,3.54-18.29,7.25-25.08,12.11-11.42-2.9-12.35-16.97-25.49-14.81-.35.06-.57-.36-.31-.59,8.24-7.39,23.72,3.93,50.88,3.28Z"/>
        </g>
        <g>
          <path class="cls-19" d="M204.34,254.09c5.77,15.25,25.57,4.44,35.03,7.92,7.37,4.79,15.87,5.51,19.82,12.09,20.25,10.32,25.27,21.85,12.95,30.78-26.03,22.82-60,39.96-65.38,88.77-4.08-13.67.98-25.59-.91-36.05-1.04-5.77,1.02-11.27,3.59-18.16-8.86,7.69-15.08,18.18-17.93,32.22-1.67-11.33,0-23.36,10.09-40.67-5.71,3.94-9.43,9.07-13.91,14.59-2.32,6.57-6.03,11.61-8.12,15.95-.91-9.96,6.16-23.2,15.62-39.54,1.08-1.87,2.57-3.5,4.39-4.71,12.77-8.52,27.22-12.86,42.47-15.26,7.26-3.07-2.71-11.52.14-17.19-27.73,4.07-45.1,3.17-37.87-30.74Z"/>
          <g class="cls-33">
            <g>
              <path class="cls-1" d="M192.95,320.64c-1.05,9.99,1.44,14.21,3.59,16.51l-17.75,34.51-3.22-22.13,17.38-28.89Z"/>
              <g class="cls-32">
                <path class="cls-38" d="M180.52,332.34c8.09-2.05,12.56,5.19,17.63,16.47l2.93-7.75c-1.51-19.97-6.17-29.67-16.2-21.86l-4.36,13.14Z"/>
              </g>
              <path class="cls-13" d="M192.95,320.64c-1.05,9.99,1.44,14.21,3.59,16.51l-17.75,34.51-3.22-22.13,17.38-28.89Z"/>
            </g>
            <g>
              <path class="cls-1" d="M195.75,338.68c2.04,3.25,4.64,6.3,7.92,9.1l-13.42,38.56c-3.53-17.39-4.21-33.97,5.5-47.65Z"/>
              <g class="cls-23">
                <path class="cls-38" d="M185.06,332.69c9.29,12.94,17.79,22.47,20.7,34.1l3.56-11.36-21.53-32.74-2.72,9.99Z"/>
              </g>
              <path class="cls-13" d="M195.75,338.68c2.04,3.25,4.64,6.3,7.92,9.1l-13.42,38.56c-3.53-17.39-4.21-33.97,5.5-47.65Z"/>
            </g>
            <g>
              <path class="cls-1" d="M223.89,353.74c-7.5.27-14.12-1.3-19.42-5.73-2.61,3.77-3.03,9.64-2.13,16.78-4.54,10.02,1.39,23.99,5.77,37.38,3.09-16.77,7.61-33.14,15.78-48.44Z"/>
              <g class="cls-22">
                <path class="cls-38" d="M184.25,340.5c14.34,6.39,27.85,16.55,38.39,32.13l9.48-12.45-40.39-30.56-7.47,10.89Z"/>
              </g>
              <path class="cls-13" d="M223.89,353.74c-7.5.27-14.12-1.3-19.42-5.73-2.61,3.77-3.03,9.64-2.13,16.78-4.54,10.02,1.39,23.99,5.77,37.38,3.09-16.77,7.61-33.14,15.78-48.44Z"/>
            </g>
            <path class="cls-37" d="M214.78,252.48c6.51,14.68,39.89,18.18,51.77,32.94,1.76,2.18,2.8,4.55,3.24,7.29,1.59,10.05-9.08,16.35-15.16,28.48l41.87-27.38-37.81-30.88-43.91-10.46Z"/>
          </g>
          <path class="cls-9" d="M204.34,254.09c5.77,15.25,25.57,4.44,35.03,7.92,7.37,4.79,15.87,5.51,19.82,12.09,20.25,10.32,25.27,21.85,12.95,30.78-26.03,22.82-60,39.96-65.38,88.77-4.08-13.67.98-25.59-.91-36.05-1.04-5.77,1.02-11.27,3.59-18.16-8.86,7.69-15.08,18.18-17.93,32.22-1.67-11.33,0-23.36,10.09-40.67-5.71,3.94-9.43,9.07-13.91,14.59-2.32,6.57-6.03,11.61-8.12,15.95-.91-9.96,6.16-23.2,15.62-39.54,1.08-1.87,2.57-3.5,4.39-4.71,12.77-8.52,27.22-12.86,42.47-15.26,7.26-3.07-2.71-11.52.14-17.19-27.73,4.07-45.1,3.17-37.87-30.74Z"/>
        </g>
        <g>
          <path class="cls-12" d="M192.79,326.19c-8.22,14.42-14.03,26.24-13.21,35.34,2.09-4.34,5.8-9.38,8.12-15.95,2.8-3.45,5.31-6.74,8.18-9.69"/>
          <path class="cls-12" d="M202.59,346.64c-5.25,6.7-9.03,14.95-11.08,25.03-1.35-9.2-.51-18.86,5.26-31.44"/>
          <path class="cls-12" d="M220.64,353.51c-6.96,10.72-12.06,23.61-13.89,40.14-4.08-13.67.98-25.59-.91-36.05-.48-2.67-.3-5.29.3-8.02"/>
          <path class="cls-18" d="M193.47,326.65c.67-.93.74-2.21.26-3.83l-2.26,3.98,2-.15Z"/>
          <path class="cls-18" d="M197.4,340.86c.59-.99.48-2-.15-3.57-.72,1.45-1.34,2.77-1.81,3.86l1.96-.3Z"/>
          <path class="cls-18" d="M194.8,335.77c.75-1.14,1.84-1.25,3.5-1.29-.81,1.05-1.65,1.76-2.48,2.64l-1.02-1.35Z"/>
          <path class="cls-18" d="M207,349.78c.38-1.08.17-2.33-.76-3.75-.5,1.64-.9,3.15-1.12,4.44l1.88-.69Z"/>
          <path class="cls-18" d="M219.83,353.3c.46-1.28,1.66-1.55,3.27-1.95-.54,1.2-1.55,2.29-1.99,2.94l-1.28-.99Z"/>
          <path class="cls-18" d="M201.88,346.17c.76-1.14,1.59-1.29,3.25-1.31-.82,1.04-1.41,1.81-2.25,2.67l-1-1.36Z"/>
        </g>
      </g>
      <g>
        <path class="cls-19" d="M203.43,241.64l.71,12.93c16.82,4.09,25.73,7.75,33.07,12.21,8.98,5.46,12.98,16.48,9.33,26.34-1.79,4.84-2.08,8.34-2.36,13.79,1.11,33.86,29.69,22.28,11.27,54.3-4.87,5.56,4.05,7.45.17,13.61-3.2,5.55-6.83,10.15-11.17,13.13-10.87-3.33-21.79.28-28.66-2.99-1.49,7.15-5.63,14.16-12.35,21.02-4.21.25-9.27-.58-14.99-2.25-2.19,2.42-4.61,4.26-7.35,5.24-17.24-1.16-30.25-5.04-35.35-14.04l-5.19.62c-64.49,20.59-40.2-16.3-65.09-15.55-13.91,2.34-30.56-27.69-23.91-38.17,1.35-19.68,16.7-25.97,16.62-36.97l-2.33-10.86c-3.58-16.7,7.24-33.1,24-36.38l13.18-2.58c8.51-3.45,11.44-8.91,8.49-16.47l91.92,3.04Z"/>
        <g class="cls-25">
          <path class="cls-35" d="M200.46,279.93c-6.41-12.56-24.61-8.44-29.98-12.56-7.56,4.49-16.17,6.17-27.72,0-4.02,2.29-9.23,5.09-20.84,1.31-2.65,4.18-10.81,6.82-12.26,12.54-3.49,1.93-8.98.59-10.75,3.18,7.69,25.52-13.27,32.67-20.74,49.6-10.05,22.78-7.12,48.5,43.53,58,16.67,3.13,34.4,2.78,50.9-.72,47.53-10.09,66.96-35.38,45.1-66.26-8.14-11.49-6.52-28.54-17.25-45.09Z"/>
          <path class="cls-21" d="M250.5,318.07c-12.79,8.42-1.09,31.53-8.52,39.2-51.91,55.98-72.73,19.61-95.31,59.04l52.94,18.75,64.84-15.4,16.86-69.42-30.81-32.18Z"/>
          <path class="cls-21" d="M97.95,391.2c-29.57-14.43-39.48-36.58-24.4-68.54-10.71,31.73-1.02,53.84,24.4,68.54Z"/>
          <path class="cls-21" d="M66.57,331.77c-11.23,21.51-5.18,36.46,8.88,48.25-12.85-14.64-15.85-30.72-8.88-48.25Z"/>
          <path class="cls-21" d="M57.21,342.06c-5.09,6.95-2.8,16.71,2.4,27.58-2.34-10.14-3.6-19.61-2.4-27.58Z"/>
          <path class="cls-21" d="M236.95,339.44c.51,21.46-9.34,39.35-43.56,48.85,26.48-8.86,39.51-26.8,43.56-48.85Z"/>
          <path class="cls-21" d="M242.89,369.64c-26.52,19.06-51.24,30.93-77.76,25.44,25.64,3.21,50.74-9.34,77.76-25.44Z"/>
          <path class="cls-21" d="M231.32,351.58c6.16-19.06-11.62-30.35-10.07-55.21-8.49,25.64,12.02,29.1,10.07,55.21Z"/>
          <path class="cls-19" d="M180.3,279.93c.75,37.58-8.35,71.77-31.13,101.25,18.89-32.24,28.62-65.99,31.13-101.25Z"/>
          <path class="cls-19" d="M208.66,343.12c.46,15.28-22.52,40.86-45.05,45.17,14-3.48,43.85-26.68,45.05-45.17Z"/>
          <path class="cls-19" d="M191.87,293.96c9.39,18.77-1.34,62.54-23.93,79.62,13.57-11.61,33.33-55.99,23.93-79.62Z"/>
          <path class="cls-19" d="M181.4,369.32c-11.87,6.28-20.71,13.78-28.08,21.88l28.08-21.88Z"/>
          <path class="cls-19" d="M222.42,344.5c-7.41,23.44-21.67,39.42-46.56,43.8,22.18-6.09,36.7-21.96,46.56-43.8Z"/>
          <path class="cls-19" d="M147.76,371.41c-10.01-17.32-15.95-37.2-18.54-59.15,5.89,21.02,12.05,40.81,18.54,59.15Z"/>
          <path class="cls-19" d="M132.79,367.13c-7.17-11.63-14.16-48.24-13.83-77.04,1.88,24.36,8.22,62.53,13.83,77.04Z"/>
          <path class="cls-19" d="M139.46,388.12c-8.79-6.04-15.37-18.31-20.91-33.47,7.37,13.42,14.44,25.17,20.91,33.47Z"/>
          <path class="cls-19" d="M120.55,376.3c-12.81-12.77-16.03-34.34-13.9-73.15,1.66,37.01,5.54,57.93,13.9,73.15Z"/>
          <path class="cls-19" d="M169.23,269.59c3.37,15.12.54,29.38-10.92,42.43,7.61-14.18,10.71-28.32,10.92-42.43Z"/>
          <path class="cls-19" d="M152.9,299.27c-4.87-10.7-6.13-22.32-4.43-34.67,1.03,12.24,2.48,23.83,4.43,34.67Z"/>
          <path class="cls-19" d="M146.02,300.35c-5.16-6.76-7.66-17.18-6.03-33.31.35,13.72,2.25,25,6.03,33.31Z"/>
          <path class="cls-19" d="M143.94,312.45c-7.36-7.72-11.27-21.08-13.58-37.06,4.45,14.65,8.95,27.6,13.58,37.06Z"/>
          <path class="cls-19" d="M127.49,389.91c-18.09-11.08-24.6-20.01-26.7-36.06,6.24,15.76,11.46,24.92,26.7,36.06Z"/>
          <path class="cls-19" d="M192.75,348.84c12.47-17.61,15.41-30.01,12.25-50.1-.58,20.68-2.31,33.05-12.25,50.1Z"/>
          <path class="cls-19" d="M106.69,380.42c-14.89-10.35-23.42-22.36-26.02-35.92,5.53,13.8,14.24,25.76,26.02,35.92Z"/>
          <path class="cls-19" d="M120.52,389.91c-18.91-4.39-33.57-10.79-39.85-21.15,9.37,10.2,23.57,16.51,39.85,21.15Z"/>
          <path class="cls-21" d="M123.53,244.47c-6.93,11.88-18.48,18.28-38.54,18.14,18.7,2.15,31.41-3.5,38.54-18.14Z"/>
          <path class="cls-21" d="M128.08,247.05c-2.52,9.39-7.42,17.21-19.01,20.66,9.53-3.26,14.66-11.51,19.01-20.66Z"/>
          <path class="cls-21" d="M191.56,244.64c10.54,18.88,28.58,29.17,60.29,29.24-29.62,3.12-49.52-6-60.29-29.24Z"/>
          <path class="cls-21" d="M190.27,254.32c7.71,13.02,10.62,28.02,26.26,34.88-11.61-7.26-15.46-22.56-26.26-34.88Z"/>
        </g>
        <path class="cls-8" d="M203.43,241.64l.71,12.93c16.82,4.09,25.73,7.75,33.07,12.21,8.98,5.46,12.98,16.48,9.33,26.34-1.79,4.84-2.08,8.34-2.36,13.79,1.11,33.86,29.69,22.28,11.27,54.3-4.87,5.56,4.05,7.45.17,13.61-3.2,5.55-6.83,10.15-11.17,13.13-10.87-3.33-21.79.28-28.66-2.99-1.49,7.15-5.63,14.16-12.35,21.02-4.21.25-9.27-.58-14.99-2.25-2.19,2.42-4.61,4.26-7.35,5.24-17.24-1.16-30.25-5.04-35.35-14.04l-5.19.62c-64.49,20.59-40.2-16.3-65.09-15.55-13.91,2.34-30.56-27.69-23.91-38.17,1.35-19.68,16.7-25.97,16.62-36.97l-2.33-10.86c-3.58-16.7,7.24-33.1,24-36.38l13.18-2.58c8.51-3.45,11.44-8.91,8.49-16.47l91.92,3.04Z"/>
      </g>
      <g>
        <path class="cls-19" d="M283.13,147.4c12.06,45.06,6.87,93.4-.94,127.68-.58,2.55-4.8-21.46-5.65-18.98-6.39,18.62-8.25,33.48-12.42,42.32-6.29-18.87-14.15-11.27-21.39,2.71-5.06,24.81-16.55,42.58-30.47,57.69,3.18-25.27,5.88-34.39,2.26-59.68-11.92,21.4-22.94,27.12-31.09,49.21.46-22.25,1.52-43.83,7.44-60.1-14.06,12.31-21.12,35.75-24.65,64.84-8.17-15.36-8.68-36.6-4.04-61.78l-27.4,44.43c4.68-15.29,5.67-35.11,4.63-57.42-.55,24.54-19.88,33.32-35.95,54.57,3.3-30.8,14.48-57.53,9.25-84.3-6.25,28.69-21.13,52.31-39.16,74.08l11.42-62.47c-17.5,19.87-11.78,25.88-13.05,43.93-7.86-4.3-22.19-91.15-24.44-77.98-1.62,9.49.81,33.66,1.1,34.04-1.2-.53-32.28-20.54-6.54-75.34-5.47,7.54-15.64,29.24-20.97,34.56,6.43-42.17-9.75-113.3,36.76-170C86,6.9,164.35-8.41,204.02,6.91c-8.52.97-16.5,2.03-20.16,3.8,14.47-.5,28.99,2.93,43.55,10.86,37.1,4.5,71.51,43.08,76.88,89.15-2.95-3.77-6.4-12.67-10.77-15.28,7.33,23.65,6.2,48.76.5,66.78-3.72-5.17-8.1-14.35-10.88-14.81Z"/>
        <g class="cls-24">
          <path class="cls-21" d="M305.24,204.82c-4.79-24.65-16.58-37.21-23.21-58.1,6.98,49.21-4.88,92.44-9.66,147.11,3.55-12.68,10.38,1.58,16.83-10.72,11.16-21.28,21.37-68.54,12.76-87.03"/>
          <path class="cls-37" d="M301.38,116.02c-12.21-40.72-37.64-71.61-78.69-98.54l57.91,11.49,34.43,70.2c1.33,23.73-4.49,25.44-13.65,16.85Z"/>
          <path class="cls-37" d="M41.16,186.41c-.5,62.25,5.05,80.79,26.27,104.55l-43.13-34.15c-5.72-26.26-1.93-37.91,16.85-70.41Z"/>
          <path class="cls-37" d="M100.79,0C-1.37,35.52-22.62,116.55,22.38,233.21,29.79,128.23,50.42,46.34,100.79,0Z"/>
          <path class="cls-20" d="M276.07,153.42c11.35,44.96,6.47,93.2-.89,127.42-.55,2.55-4.52-21.41-5.32-18.94-6.02,18.58-7.77,33.41-11.7,42.23-5.93-18.83-13.32-11.24-20.14,2.7-4.76,24.76-15.58,42.49-28.68,57.57,2.99-25.21,5.53-34.32,2.13-59.55-11.22,21.35-21.59,27.07-29.27,49.11.43-22.2,1.43-43.74,7.01-59.98-13.23,12.28-19.89,35.68-23.2,64.7-7.69-15.33-8.17-36.52-3.8-61.65l-25.79,44.34c4.41-15.26,5.34-35.04,4.36-57.3-.52,24.48-18.72,33.25-33.84,54.45,3.11-30.73,13.64-57.41,8.71-84.12-5.88,28.63-19.89,52.2-36.86,73.92l17.87-77.87c-16.48,19.83-23.85,27.95-25.04,45.96-7.4-4.29-15.25-77.55-17.37-64.41-1.53,9.47.76,33.59,1.03,33.97-1.13-.53-30.39-20.49-6.16-75.18-5.15,7.53-14.72,29.18-19.74,34.49,6.06-42.08-9.18-113.06,34.61-169.64C90.49,13.21,174.87-7.15,212.21,8.14c-8.02.97-22.7,5.34-26.15,7.1,13.63-.5,30.45.38,44.16,8.29,34.93,4.49,60.71,47.3,65.76,93.27-2.77-3.76-6.02-12.64-10.14-15.25,6.9,23.6,5.84,48.66.47,66.64-3.5-5.16-7.63-14.32-10.25-14.78Z"/>
          <path class="cls-15" d="M138.22,13.79c-27.99,9.28-61.82,47.2-67.54,84.09-1.06,6.85-4.53,12.13-6.16,18.68,4.26-12.27,9.61-22.99,15.27-32.98,8.56-14.9,17.9-28.16,27.66-39.97,9.81-11.81,19.95-22.46,30.77-29.81h0Z"/>
          <path class="cls-15" d="M197.7,20.02c41.09,21.63,70.55,82.17,71.2,143.09.12,11.39,1.25,33.33,1.42,44.37-2.07-21.03-6.24-39.91-11.11-57.68-7.43-26.55-8.91-46.38-19.13-68.3-10.29-21.93-29.12-46.42-42.38-61.48h0Z"/>
          <path class="cls-15" d="M187.99,28.08c23.38,44.28,35.38,85.33,29.03,121.17-3.9-35.38-14.88-76.9-29.03-121.17Z"/>
          <path class="cls-15" d="M149.11,15.88c-30.01,44.42-52.92,88.17-42.78,127.53,3.8-30.57,22.11-77.7,42.78-127.53Z"/>
        </g>
        <path class="cls-4" d="M283.13,147.4c12.06,45.06,6.87,93.4-.94,127.68-.58,2.55-4.8-21.46-5.65-18.98-6.39,18.62-8.25,33.48-12.42,42.32-6.29-18.87-14.15-11.27-21.39,2.71-5.06,24.81-16.55,42.58-30.47,57.69,3.18-25.27,5.88-34.39,2.26-59.68-11.92,21.4-22.94,27.12-31.09,49.21.46-22.25,1.52-43.83,7.44-60.1-14.06,12.31-21.12,35.75-24.65,64.84-8.17-15.36-8.68-36.6-4.04-61.78l-27.4,44.43c4.68-15.29,5.67-35.11,4.63-57.42-.55,24.54-19.88,33.32-35.95,54.57,3.3-30.8,14.48-57.53,9.25-84.3-6.25,28.69-21.13,52.31-39.16,74.08l11.42-62.47c-17.5,19.87-11.78,25.88-13.05,43.93-7.86-4.3-22.19-91.15-24.44-77.98-1.62,9.49.81,33.66,1.1,34.04-1.2-.53-32.28-20.54-6.54-75.34-5.47,7.54-15.64,29.24-20.97,34.56,6.43-42.17-9.75-113.3,36.76-170C86,6.9,164.35-8.41,204.02,6.91c-8.52.97-16.5,2.03-20.16,3.8,14.47-.5,28.99,2.93,43.55,10.86,37.1,4.5,71.51,43.08,76.88,89.15-2.95-3.77-6.4-12.67-10.77-15.28,7.33,23.65,6.2,48.76.5,66.78-3.72-5.17-8.1-14.35-10.88-14.81Z"/>
      </g>
    </g>
  </g>
</svg>