<?xml version="1.0" encoding="UTF-8"?>
<svg id="Layer_2" data-name="Layer 2" xmlns="http://www.w3.org/2000/svg" xmlns:xlink="http://www.w3.org/1999/xlink" viewBox="0 0 272.17 421.12">
  <defs>
    <style>
      .cls-1, .cls-2 {
        fill: #eeeaf8;
      }

      .cls-3, .cls-2, .cls-4, .cls-5, .cls-6, .cls-7 {
        stroke-miterlimit: 10;
      }

      .cls-3, .cls-8 {
        fill: #231d2d;
      }

      .cls-3, .cls-7 {
        stroke: #191721;
        stroke-width: 1.78px;
      }

      .cls-2, .cls-5 {
        stroke: #cdcad8;
        stroke-width: 1.86px;
      }

      .cls-9, .cls-6 {
        fill: #f8fbfe;
      }

      .cls-10 {
        clip-path: url(#clippath-1);
      }

      .cls-11 {
        clip-path: url(#clippath-3);
      }

      .cls-12 {
        clip-path: url(#clippath-2);
      }

      .cls-13, .cls-14 {
        fill: #20164c;
      }

      .cls-13, .cls-15 {
        opacity: .15;
      }

      .cls-14 {
        opacity: .2;
      }

      .cls-4, .cls-5, .cls-7 {
        fill: none;
      }

      .cls-4, .cls-6 {
        stroke: #d1d1d1;
        stroke-width: 2.14px;
      }

      .cls-15 {
        fill: #d7c5ff;
      }

      .cls-16 {
        clip-path: url(#clippath);
      }
    </style>
    <clipPath id="clippath">
      <path class="cls-6" d="M66.83,305.2c-9.2,59.01,11.91,65.79,2.3,77.16-17.16.65-8.95,11.65-13.18,16.06-1.66,1.73-.75,4.74,1.95,6.34,24.59,14.6,46.03,17.87,55.24-.73,11.62-18.45,13.95-39.54-.08-65.3l-46.24-33.53Z"/>
    </clipPath>
    <clipPath id="clippath-1">
      <path class="cls-6" d="M206.59,311.64c2.71,59.66-18.96,62.51-10.66,74.87,16.99,2.52,7.57,14.15,11.29,18.99,1.46,1.9.23,4.79-2.63,6.09-26.04,11.83-47.7,12.74-54.83-6.75-9.54-19.61-9.55-40.83,7.2-64.91l49.63-28.28Z"/>
    </clipPath>
    <clipPath id="clippath-2">
      <path class="cls-2" d="M3.58,398.61c10.55-4.55,32.23-17.95,58.52-19.4,67.18,38.08,120.99-20.77,192.22,20.63-28.69-16.67.53-24.97-1.08-38.8-2.71-23.26-9.47-48.97-50.44-124.67l-141.67-1.09c-19.11,35.3-19.18,45.88-23.01,82.59-7.79,38.93-31.58,45.33-34.55,80.76Z"/>
    </clipPath>
    <clipPath id="clippath-3">
      <path class="cls-3" d="M179.71,271.46c-6.13,15.63-7.38,31.58-5.27,47.75-16.93-18.69-21.99-47.49-19.92-82.36-12.03,9.32-17.75,34.61-18.91,40.93-3.46,17.13,10.15,53.75,3.8,88.07-14.79-48.89-61.21-59.59-72.47-118.16,1.55,41.11-3.3,47.31-10.79,78.04-3.82,11.84-3.06,26.09-1.47,40.78-6.15-10.9-9.94-21.93-9.96-33.17-2.75,13.64-3.4,27.08-2.56,40.38l-12.37-43.5c-4.24-18.5-3.09-18.75-4.48-37.65-1.65-22.39-10.05-31.33-9.14-53.67.87-21.19-7.7-48.62-8.54-69.8-.75-18.99,9.71-39.39,11.1-58.38,3.16-16.39,7.14-23,16.75-40.29,21.45-31.41,54.66-49.82,87.69-50.35-7.81-8.78-26.96-12.12-22.77-13.66,14.01-3.33,23.82,4.93,29.65,15.41,3.43-15.36,14.69-15.44,25.06-12.37,1.36.4,1.51,2.2.25,2.84-6.21,3.16-16.44,3.69-20.62,8.26,61.42,1.19,125.5,62.42,126.02,114.73,2.51,39.39-1.87,46.15,2.85,71.31.92,61.69-22.53,51.45-30.58,81.85,2.7-15.32,5.22-30.13,5.87-39.46-9.72,21.33-18.44,44.55-14.79,62.46,4.03,19.82-2.48,27.7.77,38.46-5.38-7.61-7.88-17.31-5.54-30.5-7.46,34.31-9.35,29.27-25.96,53.96,3.67-36.09,2.57-70.94-13.67-101.9Z"/>
    </clipPath>
  </defs>
  <g id="mini-mini">
    <g>
      <g>
        <path class="cls-9" d="M66.83,305.2c-9.2,59.01,11.91,65.79,2.3,77.16-17.16.65-8.95,11.65-13.18,16.06-1.66,1.73-.75,4.74,1.95,6.34,24.59,14.6,46.03,17.87,55.24-.73,11.62-18.45,13.95-39.54-.08-65.3l-46.24-33.53Z"/>
        <g class="cls-16">
          <path class="cls-14" d="M124.53,404.54c-37.29-3.23-56.63-16.73-75.93-14.66l20.99-28.85,73.72,14.59-18.78,28.92Z"/>
        </g>
        <path class="cls-4" d="M66.83,305.2c-9.2,59.01,11.91,65.79,2.3,77.16-17.16.65-8.95,11.65-13.18,16.06-1.66,1.73-.75,4.74,1.95,6.34,24.59,14.6,46.03,17.87,55.24-.73,11.62-18.45,13.95-39.54-.08-65.3l-46.24-33.53Z"/>
      </g>
      <g>
        <path class="cls-9" d="M206.59,311.64c2.71,59.66-18.96,62.51-10.66,74.87,16.99,2.52,7.57,14.15,11.29,18.99,1.46,1.9.23,4.79-2.63,6.09-26.04,11.83-47.7,12.74-54.83-6.75-9.54-19.61-9.55-40.83,7.2-64.91l49.63-28.28Z"/>
        <g class="cls-10">
          <path class="cls-14" d="M138.55,404.29c29-8.13,55.6-10.05,77.33.64l-14.87-32.43-75.15-.27,12.69,32.06Z"/>
        </g>
        <path class="cls-4" d="M206.59,311.64c2.71,59.66-18.96,62.51-10.66,74.87,16.99,2.52,7.57,14.15,11.29,18.99,1.46,1.9.23,4.79-2.63,6.09-26.04,11.83-47.7,12.74-54.83-6.75-9.54-19.61-9.55-40.83,7.2-64.91l49.63-28.28Z"/>
      </g>
      <g>
        <path class="cls-1" d="M3.58,398.61c10.55-4.55,32.23-17.95,58.52-19.4,67.18,38.08,120.99-20.77,192.22,20.63-28.69-16.67.53-24.97-1.08-38.8-2.71-23.26-9.47-48.97-50.44-124.67l-141.67-1.09c-19.11,35.3-19.18,45.88-23.01,82.59-7.79,38.93-31.58,45.33-34.55,80.76Z"/>
        <g class="cls-12">
          <path class="cls-14" d="M237.58,387.77c-9.25-21.28-24.21-29.97-105.8.86,75.36-18.55,93.38-5.92,105.8-.86Z"/>
          <path class="cls-13" d="M99.8,389.68c-20.02-43.01-59.9-30.05-93.37,5.54,21.94-21.71,38.83-21.26,54.63-20.11,14.8,1.08,28.87,1.76,38.74,14.57Z"/>
          <path class="cls-14" d="M179.71,288.34c-6.13,15.63-7.38,31.58-5.27,47.75-16.93-18.69-21.99-47.49-19.92-82.36-12.03,9.32-17.75,34.61-18.91,40.93-3.46,17.13,10.15,53.75,3.8,88.07-14.79-48.89-61.21-59.59-72.47-118.16,1.55,41.11-3.3,47.31-10.79,78.04-3.82,11.84-3.06,26.09-1.47,40.78-6.15-10.9-9.94-21.93-9.96-33.17-2.75,13.64-3.4,27.08-2.56,40.38l-12.37-43.5c-4.24-18.5-3.09-18.75-4.48-37.65-1.65-22.39-10.05-31.33-9.14-53.67.87-21.19-7.7-48.62-8.54-69.8-.75-18.99,9.71-39.39,11.1-58.38,3.16-16.39,7.14-23,16.75-40.29,21.45-31.41,54.66-49.82,87.69-50.35-7.81-8.78-26.96-12.12-22.77-13.66,14.01-3.33,23.82,4.93,29.65,15.41,3.43-15.36,14.69-15.44,25.06-12.37,1.36.4,1.51,2.2.25,2.84-6.21,3.16-16.44,3.69-20.62,8.26,61.42,1.19,125.5,62.42,126.02,114.73,2.51,39.39-1.87,46.15,2.85,71.31.92,61.69-22.53,51.45-30.58,81.85,2.7-15.32,5.22-30.13,5.87-39.46-9.72,21.33-18.44,44.55-14.79,62.46,4.03,19.82-2.48,27.7.77,38.46-5.38-7.61-7.88-17.31-5.54-30.5-7.46,34.31-9.35,29.27-25.96,53.96,3.67-36.09,2.57-70.94-13.67-101.9Z"/>
        </g>
        <path class="cls-5" d="M3.58,398.61c10.55-4.55,32.23-17.95,58.52-19.4,67.18,38.08,120.99-20.77,192.22,20.63-28.69-16.67.53-24.97-1.08-38.8-2.71-23.26-9.47-48.97-50.44-124.67l-141.67-1.09c-19.11,35.3-19.18,45.88-23.01,82.59-7.79,38.93-31.58,45.33-34.55,80.76Z"/>
      </g>
      <g>
        <path class="cls-8" d="M179.71,271.46c-6.13,15.63-7.38,31.58-5.27,47.75-16.93-18.69-21.99-47.49-19.92-82.36-12.03,9.32-17.75,34.61-18.91,40.93-3.46,17.13,10.15,53.75,3.8,88.07-14.79-48.89-61.21-59.59-72.47-118.16,1.55,41.11-3.3,47.31-10.79,78.04-3.82,11.84-3.06,26.09-1.47,40.78-6.15-10.9-9.94-21.93-9.96-33.17-2.75,13.64-3.4,27.08-2.56,40.38l-12.37-43.5c-4.24-18.5-3.09-18.75-4.48-37.65-1.65-22.39-10.05-31.33-9.14-53.67.87-21.19-7.7-48.62-8.54-69.8-.75-18.99,9.71-39.39,11.1-58.38,3.16-16.39,7.14-23,16.75-40.29,21.45-31.41,54.66-49.82,87.69-50.35-7.81-8.78-26.96-12.12-22.77-13.66,14.01-3.33,23.82,4.93,29.65,15.41,3.43-15.36,14.69-15.44,25.06-12.37,1.36.4,1.51,2.2.25,2.84-6.21,3.16-16.44,3.69-20.62,8.26,61.42,1.19,125.5,62.42,126.02,114.73,2.51,39.39-1.87,46.15,2.85,71.31.92,61.69-22.53,51.45-30.58,81.85,2.7-15.32,5.22-30.13,5.87-39.46-9.72,21.33-18.44,44.55-14.79,62.46,4.03,19.82-2.48,27.7.77,38.46-5.38-7.61-7.88-17.31-5.54-30.5-7.46,34.31-9.35,29.27-25.96,53.96,3.67-36.09,2.57-70.94-13.67-101.9Z"/>
        <g class="cls-11">
          <path class="cls-15" d="M118.56,17.87C44.52,34.25,10.96,152.94,3.61,206.59-10.58,160.78,20.76,63.88,33.71,36.47c24.23-13.93,53.44-18.37,84.85-18.6Z"/>
          <path class="cls-15" d="M260.32,194.13c37.31-81-17.39-172.5-109.06-175.08,22.75,14.12,65.38,28.98,82.91,64.02,19.7,39.39,19.29,84.34,26.15,111.05Z"/>
          <ellipse class="cls-15" cx="107.75" cy="7.15" rx="14.77" ry="7.15"/>
          <ellipse class="cls-15" cx="154.73" cy="7.36" rx="14.77" ry="7.15"/>
          <path class="cls-15" d="M107.44,32.28c-25.67,13.69-54.01,60.11-55.74,102.05-.32,7.78-3.08,14.1-3.98,21.62,2.82-14.22,6.82-26.86,11.2-38.7,6.64-17.68,14.18-33.62,22.27-47.98,8.13-14.37,16.71-27.48,26.25-36.99h0Z"/>
          <path class="cls-15" d="M157.69,34.17c41.22,19.34,75.31,83.57,82.05,151.63,1.26,12.73,4.54,37.13,5.81,49.47-4.09-23.28-9.94-43.9-16.36-63.21-9.73-28.82-13.13-50.82-25.04-74.14-11.98-23.31-32.34-48.48-46.46-63.75h0Z"/>
          <path class="cls-15" d="M149.27,44.34c26.67,46.76,42.2,91.26,39.77,132.1-7.27-39.11-21.87-84.25-39.77-132.1Z"/>
          <path class="cls-15" d="M118.01,33.33c-24.06,53.23-41.43,104.88-27.84,147.7.54-34.64,13.21-89.53,27.84-147.7Z"/>
        </g>
        <path class="cls-7" d="M179.71,271.46c-6.13,15.63-7.38,31.58-5.27,47.75-16.93-18.69-21.99-47.49-19.92-82.36-12.03,9.32-17.75,34.61-18.91,40.93-3.46,17.13,10.15,53.75,3.8,88.07-14.79-48.89-61.21-59.59-72.47-118.16,1.55,41.11-3.3,47.31-10.79,78.04-3.82,11.84-3.06,26.09-1.47,40.78-6.15-10.9-9.94-21.93-9.96-33.17-2.75,13.64-3.4,27.08-2.56,40.38l-12.37-43.5c-4.24-18.5-3.09-18.75-4.48-37.65-1.65-22.39-10.05-31.33-9.14-53.67.87-21.19-7.7-48.62-8.54-69.8-.75-18.99,9.71-39.39,11.1-58.38,3.16-16.39,7.14-23,16.75-40.29,21.45-31.41,54.66-49.82,87.69-50.35-7.81-8.78-26.96-12.12-22.77-13.66,14.01-3.33,23.82,4.93,29.65,15.41,3.43-15.36,14.69-15.44,25.06-12.37,1.36.4,1.51,2.2.25,2.84-6.21,3.16-16.44,3.69-20.62,8.26,61.42,1.19,125.5,62.42,126.02,114.73,2.51,39.39-1.87,46.15,2.85,71.31.92,61.69-22.53,51.45-30.58,81.85,2.7-15.32,5.22-30.13,5.87-39.46-9.72,21.33-18.44,44.55-14.79,62.46,4.03,19.82-2.48,27.7.77,38.46-5.38-7.61-7.88-17.31-5.54-30.5-7.46,34.31-9.35,29.27-25.96,53.96,3.67-36.09,2.57-70.94-13.67-101.9Z"/>
      </g>
    </g>
  </g>
</svg>