<?xml version="1.0" encoding="UTF-8"?>
<svg width="90.05" height="88.08" id="Layer_2" data-name="Layer 2" xmlns="http://www.w3.org/2000/svg" viewBox="0 0 311.8 304.96">
  <defs>
    <style>
      .cls-1 {
        fill: #a5a5a3;
        stroke: #898989;
        stroke-width: 3.89px;
      }

      .cls-1, .cls-2 {
        stroke-miterlimit: 10;
      }

      .cls-3, .cls-2 {
        fill: #655f0d;
      }

      .cls-2 {
        stroke: #4f480b;
        stroke-width: 2.1px;
      }

      .cls-4 {
        fill: #787709;
      }

      .cls-5 {
        fill: #f8fbfe;
      }

      .cls-6 {
        fill: #4d4314;
      }

      .cls-7 {
        fill: #7e7b86;
      }

      .cls-8 {
        fill: #706e7a;
      }

      .cls-9 {
        fill: #e5e1df;
      }

      .cls-10 {
        fill: #bab5bc;
      }

      .cls-11 {
        fill: #5c5968;
      }
    </style>
  </defs>
  <g id="tiles">
    <g>
      <rect class="cls-1" x="5.53" y="30.5" width="272.52" height="272.52" rx="18.13" ry="18.13"/>
      <path class="cls-9" d="M257.46,279.5c-59.49-9.61-115.67,22.77-219.69,0-5.76,0-10.43-4.67-10.43-10.43-3.54-84.69,13.05-177.61,0-219.69,0-5.76,4.67-10.43,10.43-10.43h86.28c15.07,5.85,27.62,17.22,39.3,30.51l-15.73-30.51h93.28c14.91,0,26.99,12.08,26.99,26.99v203.13c0,5.76-4.67,10.43-10.43,10.43Z"/>
      <path class="cls-7" d="M70.98,269.48c4.84,5.46-2.76,18.92-2.07,22.05.09.41-.04.94,0,1.38-.81.79-1.49,1.16-2.07,2.41.93,1.55,12.46-8.79,14.82-9.99,13.39-6.85,45.86-7.38,54.44,7.58l7.92-13.09c-.47,5.9-7.69,11.41-6.89,17.23-10.85,11.58-15.04,5.62-27.22,5.51-12.2-.11-23.46.92-35.83,0-2.94-.22-9-3.39-9.65-3.45-5.46-.48-30.24,3.01-32.73,2.07l2.76-9.65c.55-.88.8-1.25,1.38-2.07,1.15,1.78,1.7.93,3.1,0,6.28-4.15,22.16-20.15,28.25-21.36,3.29-.65,3.59,1.37,3.79,1.38Z"/>
      <path class="cls-7" d="M262.54,291.51c-11.45,3.06-45.26,5.11-58.23,5.51-2.52.08-5.06-.06-7.58,0-.96-.84.16-1.27.34-2.07,5.71-1.8,9.93-6.37,15.16-8.96,18.37-9.09,35.7-8.25,55.47-10.34,1.56-.16,5.81-.49,6.55-2.07,1.42.2,2.32.24,3.79,0-3.76,6.05-8.29,15.99-15.5,17.92Z"/>
      <path class="cls-7" d="M13.09,146.13c-1.45,3.67-2.86,7.46-4.13,10.68-1.35,3.39-1.84,7.34-3.45,10.68-.38-.25-1.82,2.61-2.76-2.41-3.42-18.23,1.28-38.11-.69-56.51.16-.74,6-8.47,6.89-9.3.51-.48,1.46-.97,2.07-1.38l-1.03,44.1,3.79-42.38c1.96,2.06,14.15,10.07,14.47,11.71.62,3.16-17.73,27.39-15.16,34.8Z"/>
      <path class="cls-11" d="M214.99,232.25c.78,1.42,4.25,19.31,4.82,22.4.77,4.15-.75,15.01,3.45,17.57-7.82,6.96-18,16.78-26.87,22.05-1.09.64-4.6,1.26-4.82,1.38v-.69c3.61-5.93,3.57-15.91,6.2-21.71,2.21-4.88,7.73-6.87,9.65-10.34,2.02-3.65,5.47-27.77,4.82-32.04.55.35,2.65,1.18,2.76,1.38Z"/>
      <path class="cls-7" d="M158.49,281.19c9.02-1.32,28.09,1.14,26.53,13.78l5.86-2.76h.69v.69c-17.84,9.22-30.89,12.09-50.99,6.55,2.56-6.33,2.74-9.94,8.27-14.13,2.53-1.92,6.38-3.66,9.65-4.13Z"/>
      <path class="cls-7" d="M28.25,204.7l-2.07-.69c-.08-5.14-6.03-16.84-8.27-22.74,6.81-14.82,3.41-33.35,7.58-49.27-4.7,10.32-15.85,25.19-13.09,36.18-2.76-.94-3.39,3.52-3.45,5.51-2.07-3.01-.37-4.17-3.45-6.2,1.61-3.34,2.1-7.29,3.45-10.68,1.28-3.22,2.69-7.01,4.13-10.68,4.72-11.98,10.48-23.33,18.61-33.42-4.32,30.69-3.46,61.16-3.45,91.99Z"/>
      <path class="cls-7" d="M12.4,35.19c-.22,10.79.49,27.48,2.76,37.9-2.12.8-1.63.66-2.07,2.41-1.82,7.21-.74,16.86-9.65,19.64-.08-.09-1.71.11-2.07-1.03-.65-14.35-.87-28.72-1.38-43.07,3.98-6.93,6.35-15.73,11.03-21.71l1.38,5.86Z"/>
      <path class="cls-11" d="M46.86,95.14l.69,4.13c-3.12,1.1-14.84,3.68-15.5,4.13-2.77,1.9,1.47,5.59-1.38,6.2-1.64.35-16.1-10.75-17.23-13.78-1.27-.31-2.01,1.8-2.41,2.07-.61.41-1.55.9-2.07,1.38-1.92-1.33-3.93-2.33-5.51-4.13,8.91-2.77,7.83-12.43,9.65-19.64.44-1.76-.06-1.61,2.07-2.41,3.98,18.29,12.98,25.88,31.7,22.05Z"/>
      <path class="cls-11" d="M12.4,168.18c1.12,4.48,3.88,8.79,5.51,13.09,2.24,5.9,8.19,17.6,8.27,22.74.01.72-2.42.75,0,3.1l-2.07-.34c-1.02-2.71-7.38-6.48-8.96-9.99-.72-1.6-5.14-18.09-5.51-20.33-.15-.9-.69-2.61-.69-2.76.05-2,.69-6.45,3.45-5.51Z"/>
      <g>
        <path class="cls-7" d="M8.27,176.45c2.57,5.73,2.59,14.18,4.82,19.64,2.25,5.5,9.63,9.13,10.34,13.09,1.67,9.38-7.32,25.52-4.82,35.49-1.84,9.81-4.25,21.04-4.13,30.66,1.55-6.53,1.91-13.47,3.45-19.98,2.7-11.45,9.85-28.12,11.03-38.93,1.66,9.2,1.68,18.64,2.76,27.91.58,4.99,4.36,12.41,3.45,17.23-.58,3.04-14.26,19.87-15.85,24.81,6.55-1.44,8.07-10.25,11.03-14.47.96-1.37,7.96-10.48,8.61-10.68,8.64-.26,17.24.31,25.84.69-.3,1.19-1.74,1.61-2.76,2.07-13.43.8-24.68,13.95-29.63,25.5-5.72,5.09-14.03,5.91-21.36,5.17-.61-26.08-5.59-53.64-.69-79.24l-1.38-.69c-5.39,15.87-6.18-16.59-6.2-19.98s-1.29-20.74,5.51-18.26Z"/>
        <path class="cls-9" d="M9.65,176.45c.37,2.24,4.79,18.73,5.51,20.33,1.58,3.52,7.94,7.28,8.96,9.99,3.01,8.01-3.79,28.71-5.51,37.9-2.5-9.97,6.5-26.11,4.82-35.49-.71-3.96-8.08-7.6-10.34-13.09-2.24-5.46-2.25-13.91-4.82-19.64.3.11.94-.06,1.38,0Z"/>
        <path class="cls-5" d="M62.02,263.96c-4.2,1.89-6.45,2.85-10.34,5.51-10.15,6.95-12.01,13.5-19.29,19.98,4.95-11.54,16.2-24.7,29.63-25.5Z"/>
        <path class="cls-11" d="M13.44,276.37c1.66,1.15-.12,10.67-1.38,10.34l1.38-10.34Z"/>
      </g>
      <path class="cls-8" d="M89.58,272.23c-8.33,3-14.32,13.5-20.67,19.29-.69-3.13,6.91-16.59,2.07-22.05,5.25.16,10.97.13,16.19.69,1.86.2,2.73-.7,2.41,2.07Z"/>
      <path class="cls-8" d="M195.01,276.37c-1.28,5.3-3.05,10.5-4.13,15.85l-5.86,2.76c1.56-12.64-17.51-15.1-26.53-13.78,11.17-3.92,24.82-8.13,36.52-4.82Z"/>
      <path class="cls-7" d="M17.92,181.27c-1.63-4.3-4.39-8.61-5.51-13.09-2.76-10.98,8.39-25.86,13.09-36.18-4.17,15.92-.77,34.45-7.58,49.27Z"/>
      <path class="cls-10" d="M218.03,45.68c1.1-.05,4.09.29,4.65.93,1.6,1.83-18.16,37.63-15.82,45.59-12.43-13.19-28.77-5.72-44.19-10.7-7.19-8.06,28.41-8.06,32.1-9.77,8.63-4,10.74-25.46,23.26-26.05Z"/>
      <path class="cls-10" d="M86.92,246.43c.47.99,1.32,3.88.95,4.65-1.07,2.18-41.73-2.12-48.15,3.14,7.33-16.58-5.91-28.74-7.31-44.88,4.64-9.76,18.46,23.05,21.47,25.78,7.03,6.4,27.63,0,33.04,11.31Z"/>
      <circle class="cls-10" cx="56.96" cy="60.64" r="22.46"/>
      <circle class="cls-10" cx="117.18" cy="65.38" r="8.73"/>
      <circle class="cls-10" cx="98.76" cy="89.19" r="8.73"/>
      <path class="cls-10" d="M247.97,245.64c-.1,20.58-13.02,26.99-28.98,35.24l28.98-35.24Z"/>
      <path class="cls-10" d="M173.37,84.75c6.89,1.38,17.98-1.56,22.79,4.19,3.13,3.73,10.64,33.49,4.19,33.96-5.57-8.1-3.72-27.23-12.1-32.56-3.92-2.49-12.13-1.36-14.89-5.58Z"/>
      <path class="cls-5" d="M255.31,62.36c1.29.26,3.7-.38,4.65,0,4.03,1.6,4.66,37.06,5.58,43.73-2.85-3.62-5.3-10.98-6.05-15.35-1.53-8.99,2.12-23.04-5.58-26.98l1.4-1.4Z"/>
      <path class="cls-10" d="M223.61,144.3c7.96,1.2,16.2,9.52,22.33.93,4.82,16.82-14.95,2.55-22.33-.93Z"/>
      <g>
        <path class="cls-2" d="M112.85,32.27c-.06.43-2.7,4.75-3.34,7.09-.33,1.23-2.71,10.42-.84,11.26-4.11,1.35-6.53,5.27-8.76,5.85-4.12,1.04-9.99-1.52-13.35-.84-.31.06-2.73,2.93-4.17,3.33-9.93,2.74-8.11-4.21-12.52-6.67-2.93-1.64-9.21-.81-12.52-3.34-.43-.33-.56-4.84-2.51-5-2.28-.19-2.04,4.9-5.84,5.84-4.13,1.02-7.73-1.79-9.18-1.67-1.94.16-5.71,3.97-11.68,2.51-3.25-.8-5.17-5.82-6.67-6.67-2.8-1.6-6.54-1.99-10.01-4.18-1.96-1.22-5.07-6.07-6.26-6.67.05-.39,1.57-1.61,1.67-1.67,1.99-1.04,3.67-.37,5.01-2.09l-5.43-6.25h25.87l-1.67-8.34c5.92.44,19.83,11.71,24.19,10.01,3.26-2.75-5.54-6.58.42-5.43-.56-2.1-1.71-4-1.66-6.25l-2.92-11.68c4.91,1.1,9.73,3,14.59,4.18,3.78.9,7.77,1.52,11.26,3.33l.83-6.67c4.93,3.3,15.4,11.79,16.69,2.51,2.23,1.61,7.28,11.99,8.34,12.51.86.43,4.22-.43,5,0,5.58,3.02,6.27,9.05,5.43,15.02Z"/>
        <path class="cls-6" d="M65.31,5.57v.83c-1.02-.07-3.63-.28-4.17.42-1.32,3.68,2.89,3.56,4.17,5.42.53.77,3.48,5.08,2.09,5.84-1.73-1.53-5.56-2.75-7.09-4.17s-6.36-14.96-6.67-.83l-2.92-11.68c4.92,1.1,9.74,3.01,14.6,4.17Z"/>
        <path class="cls-4" d="M97.85,13.08c1.38,1.6,8.47,13.77,8.34,14.6-.19,1.24-5.95,4.27-5.84,5.01.03.21,3.42,1.65,3.34,2.5-.11,1.15-9.31,4.29-9.18,5.84.08,1,3.76,1.42,3.34,3.34-.97,4.37-16.09,1.85-19.61.42-.81-.33-14.48-8.73-14.6-9.59-.28-1.97,2.95-.79,3.34-2.5.05-.22-1.68-1.4-1.67-1.67.6-10.43-2.46-7.99-6.26-15.43-.77-1.5-1-3.21,1.25-1.67,1.53,1.42,5.36,2.65,7.09,4.17,1.4-.76-1.55-5.07-2.09-5.84,4.41-2.94,16.5,10.06,19.19,3.75.11-.25-3.88-2.76.42-3.75.83,1.51,8.61,6.66,9.18,6.67,1.16.02,1.55-4.38,5.42-2.09-1.21-.87-1.24-2.65-1.67-3.75Z"/>
        <path class="cls-3" d="M65.31,6.41c1.83.13,13.03,5.02,13.77,5.01,3.15-.06,2.14-3.9,4.17-4.17.55-.07,8.35,5.56,10.01,5.01,1.88-.62,1.16-7.96,4.59.83.43,1.1.46,2.89,1.67,3.75-3.87-2.3-4.26,2.11-5.42,2.09-.57-.01-8.35-5.16-9.18-6.67-4.3.99-.31,3.5-.42,3.75-2.69,6.31-14.78-6.69-19.19-3.75-1.28-1.86-5.5-1.75-4.17-5.42.54-.7,3.16-.49,4.17-.42Z"/>
        <path class="cls-4" d="M20.75,26.43c.84-.73,18.45,4.79,20.02,8.34l-.42-4.59c.74-3.72,8.79,3.28,8.34,4.17-5.13,1.92-7.53,7.38-13.77,7.09l.83-5.01c-5.44,4.64-12.26,1.82-17.94-1.25,1.23-1.45,2.57-8.46,2.92-8.76Z"/>
      </g>
      <g>
        <path class="cls-2" d="M309.96,269.44c-3.58-.84-3.91,1.61-4.66,1.79-5.28,1.32-10.11.8-15.07-1.44l.36,13.27-5.02-2.15-1.08,11.11-6.09-2.86c-.42-2.91-2.71-6.82-4.31-9.32-.36-1.56-1.42-6.63-2.14-7.53-1.22-1.5-7.01-1.97-7.9-7.17-1.42-8.32,5.12-4.35,2.87-12.55-.56-2.06-3.29-6.85-2.87-8.96.39-1.91,6.21-3.67,8.61-5.38,2.44-1.74.26-4.19,5.02-4.31.21,0,.52-.05.72,0,1.15-1.2,2.39-2.41,3.58-3.58.8-.79,7.63-7.67,8.25-7.18,1.58,2.32-1.62,12.47,0,13.63.83.59,17.07.63,19.72,3.94l-15.06,6.46c1.97.81,8.71,9.64,8.61,10.75-.24,2.57-4.55-1.17-5.02,1.44-.13.75,10.55,7.99,11.48,10.04Z"/>
        <path class="cls-4" d="M277.22,238.88c.22,0,.52-.05.72,0,.64.17,2.42.85,2.15,1.79l-3.59,2.15.36,1.79c11.96-8.4,5.95.11,14.7,1.08.79,2.57-3.23,2.44-2.87,4.3.12.61,5.91,6.06,5.74,6.45-.62,1.39-2.41-.44-2.51-.36-3.62,3.09,3.32,5.07,1.79,8.96-2.04,5.2-7.33-5.95-8.61-5.02.76,18.5-4.06,6.09-6.1,6.1-1.61,0-3.62,6.53-4.66-5.38l5.02,1.43c-3.44-2.42-2.61-5.35-3.23-8.96-6.66,9.67-2.7-12.35,1.08-14.34Z"/>
      </g>
    </g>
  </g>
</svg>