<?xml version="1.0" encoding="UTF-8"?>
<svg id="Layer_2" data-name="Layer 2" xmlns="http://www.w3.org/2000/svg" xmlns:xlink="http://www.w3.org/1999/xlink" viewBox="0 0 269.65 428.56">
  <defs>
    <style>
      .cls-1, .cls-2, .cls-3, .cls-4, .cls-5, .cls-6, .cls-7, .cls-8, .cls-9, .cls-10, .cls-11, .cls-12, .cls-13, .cls-14, .cls-15 {
        stroke-miterlimit: 10;
      }

      .cls-1, .cls-2, .cls-6, .cls-9, .cls-10, .cls-11, .cls-15 {
        fill: none;
      }

      .cls-1, .cls-2, .cls-7, .cls-8 {
        stroke: #c6c6c6;
      }

      .cls-1, .cls-8 {
        stroke-width: 1.05px;
      }

      .cls-2, .cls-7 {
        stroke-width: 1.1px;
      }

      .cls-16 {
        fill: #891210;
      }

      .cls-17, .cls-5 {
        fill: #eeeaf8;
      }

      .cls-3, .cls-18, .cls-13 {
        fill: #231d2d;
      }

      .cls-3, .cls-15 {
        stroke: #191721;
        stroke-width: 1.78px;
      }

      .cls-4 {
        stroke-width: 1.85px;
      }

      .cls-4, .cls-19, .cls-12, .cls-14 {
        fill: #f8fbfe;
      }

      .cls-4, .cls-9, .cls-10, .cls-12, .cls-14 {
        stroke: #d1d1d1;
      }

      .cls-5, .cls-11 {
        stroke: #cdcad8;
        stroke-width: 1.86px;
      }

      .cls-20 {
        fill: #e8d9ff;
        opacity: .1;
      }

      .cls-6, .cls-13 {
        stroke: #1f1b28;
        stroke-width: 1.88px;
      }

      .cls-7, .cls-8, .cls-21 {
        fill: #f9f9f9;
      }

      .cls-22 {
        clip-path: url(#clippath-10);
      }

      .cls-23 {
        fill: #ddd;
      }

      .cls-24 {
        clip-path: url(#clippath-1);
      }

      .cls-25 {
        clip-path: url(#clippath-3);
      }

      .cls-26 {
        clip-path: url(#clippath-4);
      }

      .cls-27 {
        clip-path: url(#clippath-2);
      }

      .cls-28 {
        clip-path: url(#clippath-7);
      }

      .cls-29 {
        clip-path: url(#clippath-6);
      }

      .cls-30 {
        clip-path: url(#clippath-9);
      }

      .cls-31 {
        clip-path: url(#clippath-8);
      }

      .cls-32 {
        clip-path: url(#clippath-5);
      }

      .cls-33 {
        fill: #e25550;
      }

      .cls-34 {
        fill: #191918;
      }

      .cls-9, .cls-12 {
        stroke-width: 1.77px;
      }

      .cls-35, .cls-36, .cls-37 {
        fill: #20164c;
      }

      .cls-35, .cls-38 {
        opacity: .15;
      }

      .cls-36 {
        opacity: .4;
      }

      .cls-37 {
        opacity: .2;
      }

      .cls-10, .cls-14 {
        stroke-width: 2.14px;
      }

      .cls-39 {
        fill: #0c0812;
      }

      .cls-40 {
        fill: #b33c33;
      }

      .cls-38 {
        fill: #d7c5ff;
      }

      .cls-41 {
        clip-path: url(#clippath);
      }

      .cls-42 {
        fill: #898989;
      }
    </style>
    <clipPath id="clippath">
      <path class="cls-3" d="M227.46,333.33c-.02,11.24-3.81,22.27-9.96,33.17,1.58-14.69,2.34-28.94-1.47-40.78-42.95-28.73-94.55-22.19-149.34-2.62,2.26,30.42,9.75,58.59,22.61,84.42-16.61-24.69-28.99-53.81-36.45-88.13,2.34,13.19-.16,22.89-5.54,30.5,3.24-10.76-3.26-18.65.77-38.46,3.65-17.91-5.07-41.13-14.79-62.46.64,9.33,3.17,24.14,5.87,39.46-8.05-30.4-31.5-20.16-30.58-81.85,4.72-25.16.33-31.92,2.85-71.31.52-52.31,64.6-113.54,126.02-114.73-4.19-4.57-14.41-5.1-20.62-8.26-1.26-.64-1.11-2.44.25-2.84,10.37-3.07,21.63-2.99,25.06,12.37,5.83-10.48,15.64-18.74,29.65-15.41,4.19,1.54-14.96,4.88-22.77,13.66,33.03.53,63.57,8.68,85.02,40.09.45.64.88,1.3,1.29,1.96,7.98,12.77,17.06,33.96,18.13,48.59,1.39,18.99,11.85,39.39,11.1,58.38-.84,21.18-9.4,48.6-8.54,69.8.91,22.34-7.49,31.28-9.14,53.67-1.39,18.91-.24,19.16-4.48,37.65l-12.37,43.5c.85-13.29.2-26.73-2.56-40.38Z"/>
    </clipPath>
    <clipPath id="clippath-1">
      <path class="cls-14" d="M124.05,329.53c19.6,56.41,49.36,53.19,46.22,67.74-14.84,8.64-10.37,13.79-12.03,19.67-.65,2.3,1.57,4.53,4.7,4.68,28.56,1.34,49.03-5.84,48.43-26.59,1.59-21.74-6.26-41.46-30.74-57.61l-56.57-7.88Z"/>
    </clipPath>
    <clipPath id="clippath-2">
      <path class="cls-14" d="M164.04,329.53c-19.6,56.41-49.36,53.19-46.22,67.74,14.84,8.64,10.37,13.79,12.03,19.67.65,2.3-1.57,4.53-4.7,4.68-28.56,1.34-49.03-5.84-48.43-26.59-1.59-21.74,6.26-41.46,30.74-57.61l56.57-7.88Z"/>
    </clipPath>
    <clipPath id="clippath-3">
      <path class="cls-5" d="M268.59,398.61c-10.55-4.55-32.23-17.95-58.52-19.4-67.18,38.08-107.19-20.65-195,44.59,54.3-70.5,2.2-121.34,68.23-186.15l127.74-2.38c19.11,35.3,19.18,45.88,23.01,82.59,7.79,38.93,31.58,45.33,34.55,80.76Z"/>
    </clipPath>
    <clipPath id="clippath-4">
      <path class="cls-12" d="M112.17,254.2c25.41,46.28,38.09,44.55,57.36-1.6l-57.36,1.6Z"/>
    </clipPath>
    <clipPath id="clippath-5">
      <path class="cls-12" d="M235.79,170.41c0,33.32-14.81,64.55-44.86,79.84-14.23,7.24-34.98,8.97-55.68,9.23-61.78.79-86-17.94-95.34-89.08-6.39-48.63,43.85-88.91,97.94-88.91s97.94,39.8,97.94,88.91Z"/>
    </clipPath>
    <clipPath id="clippath-6">
      <circle class="cls-7" cx="182.86" cy="168.38" r="25.45"/>
    </clipPath>
    <clipPath id="clippath-7">
      <circle class="cls-8" cx="93.86" cy="170.14" r="24.8"/>
    </clipPath>
    <clipPath id="clippath-8">
      <path class="cls-5" d="M198.68,305.2c-2.92,26.63,22.95,45.03,22.27,75.29,4.83-28.41,21.19-52.79,18.67-70.19l-40.94-5.1Z"/>
    </clipPath>
    <clipPath id="clippath-9">
      <path class="cls-5" d="M42.53,319.52c5.27,23.37,17.93,44.55,10.4,73.89,12.16-17.37,22.71-41.85,30.46-78.59l-40.86,4.7Z"/>
    </clipPath>
    <clipPath id="clippath-10">
      <path class="cls-13" d="M106.45,92.89c-4.82,53.59,21.14,48.27,24.89,107.25,6.9-48.6-19.28-79.14,12.22-113.54-10.28,22.63,4.96,47.82,4.44,73.03,16.69-37.31,6.89-52.99,19.49-71.88-1.8,13.37-1.16,23.75,2.18,30.8.08-12.44,2.68-21.1,6.74-28.6-4.57,30.74,29.11,23.4,39.32,70.2-2.4-11.23-2.96-21.5-1.64-30.8,14.23,46.85,10.52,89.11,5.1,121.08,5.62-11.44,10.11-23.77,11.84-38.27,4.41,20.73-5.57,64.51-5.2,102.65,15.73-38.07,27.2-110.38,18.97-180.85-18.38-63.54-56.23-79.34-104.31-78.76-45.72,1.41-70.36,13.69-96.29,42.97-13.78,22.26-26.76,64.31-14.68,122.68,6.97,35.65,17.49,66.17,29.9,93.97,10.37-40.15-14.34-58.08-3.15-93.69-1.97,38.32,12.49,47.04,17.68,71.68-15.84-74.22,5.27-51.6-5.48-102.36-8.72-50.07,6.73-46.33,7.24-79.72,3.94,23.77,16.86,12.47,14.91,59.65,5.38-14.19,5.21-35.25,2.66-38.84-2.55-3.59-2.65-16.46,3.24-28.03-1.98,15.75,6.72,21.58,8.17,33.92,2.75-13.79-6.57-23.91,1.76-44.55Z"/>
    </clipPath>
  </defs>
  <g id="mini-mini">
    <g>
      <g>
        <path class="cls-18" d="M227.46,333.33c-.02,11.24-3.81,22.27-9.96,33.17,1.58-14.69,2.34-28.94-1.47-40.78-42.95-28.73-94.55-22.19-149.34-2.62,2.26,30.42,9.75,58.59,22.61,84.42-16.61-24.69-28.99-53.81-36.45-88.13,2.34,13.19-.16,22.89-5.54,30.5,3.24-10.76-3.26-18.65.77-38.46,3.65-17.91-5.07-41.13-14.79-62.46.64,9.33,3.17,24.14,5.87,39.46-8.05-30.4-31.5-20.16-30.58-81.85,4.72-25.16.33-31.92,2.85-71.31.52-52.31,64.6-113.54,126.02-114.73-4.19-4.57-14.41-5.1-20.62-8.26-1.26-.64-1.11-2.44.25-2.84,10.37-3.07,21.63-2.99,25.06,12.37,5.83-10.48,15.64-18.74,29.65-15.41,4.19,1.54-14.96,4.88-22.77,13.66,33.03.53,63.57,8.68,85.02,40.09.45.64.88,1.3,1.29,1.96,7.98,12.77,17.06,33.96,18.13,48.59,1.39,18.99,11.85,39.39,11.1,58.38-.84,21.18-9.4,48.6-8.54,69.8.91,22.34-7.49,31.28-9.14,53.67-1.39,18.91-.24,19.16-4.48,37.65l-12.37,43.5c.85-13.29.2-26.73-2.56-40.38Z"/>
        <g class="cls-41">
          <path class="cls-38" d="M153.61,17.87c70.63,19.38,100.06,89.73,110.97,140.24,14.19-45.81-13.17-94.23-26.12-121.64-24.23-13.93-53.44-18.37-84.85-18.6Z"/>
          <path class="cls-38" d="M11.85,194.13C-25.45,113.13,29.24,21.64,120.91,19.06c-22.75,14.12-65.38,28.98-82.91,64.02-19.7,39.39-19.29,84.34-26.15,111.05Z"/>
          <ellipse class="cls-38" cx="164.42" cy="7.15" rx="14.77" ry="7.15"/>
          <ellipse class="cls-38" cx="117.44" cy="7.36" rx="14.77" ry="7.15"/>
        </g>
        <path class="cls-15" d="M227.46,333.33c-.02,11.24-3.81,22.27-9.96,33.17,1.58-14.69,2.34-28.94-1.47-40.78-42.95-28.73-94.55-22.19-149.34-2.62,2.26,30.42,9.75,58.59,22.61,84.42-16.61-24.69-28.99-53.81-36.45-88.13,2.34,13.19-.16,22.89-5.54,30.5,3.24-10.76-3.26-18.65.77-38.46,3.65-17.91-5.07-41.13-14.79-62.46.64,9.33,3.17,24.14,5.87,39.46-8.05-30.4-31.5-20.16-30.58-81.85,4.72-25.16.33-31.92,2.85-71.31.52-52.31,64.6-113.54,126.02-114.73-4.19-4.57-14.41-5.1-20.62-8.26-1.26-.64-1.11-2.44.25-2.84,10.37-3.07,21.63-2.99,25.06,12.37,5.83-10.48,15.64-18.74,29.65-15.41,4.19,1.54-14.96,4.88-22.77,13.66,33.03.53,63.57,8.68,85.02,40.09.45.64.88,1.3,1.29,1.96,7.98,12.77,17.06,33.96,18.13,48.59,1.39,18.99,11.85,39.39,11.1,58.38-.84,21.18-9.4,48.6-8.54,69.8.91,22.34-7.49,31.28-9.14,53.67-1.39,18.91-.24,19.16-4.48,37.65l-12.37,43.5c.85-13.29.2-26.73-2.56-40.38Z"/>
      </g>
      <g>
        <path class="cls-19" d="M124.05,329.53c19.6,56.41,49.36,53.19,46.22,67.74-14.84,8.64-10.37,13.79-12.03,19.67-.65,2.3,1.57,4.53,4.7,4.68,28.56,1.34,49.03-5.84,48.43-26.59,1.59-21.74-6.26-41.46-30.74-57.61l-56.57-7.88Z"/>
        <g class="cls-24">
          <path class="cls-37" d="M219.17,401.01c-29.52-5.96-56.19-5.9-77.07,6.37l12.42-33.44,74.93-5.84-10.28,32.92Z"/>
        </g>
        <path class="cls-10" d="M124.05,329.53c19.6,56.41,49.36,53.19,46.22,67.74-14.84,8.64-10.37,13.79-12.03,19.67-.65,2.3,1.57,4.53,4.7,4.68,28.56,1.34,49.03-5.84,48.43-26.59,1.59-21.74-6.26-41.46-30.74-57.61l-56.57-7.88Z"/>
      </g>
      <g>
        <path class="cls-19" d="M164.04,329.53c-19.6,56.41-49.36,53.19-46.22,67.74,14.84,8.64,10.37,13.79,12.03,19.67.65,2.3-1.57,4.53-4.7,4.68-28.56,1.34-49.03-5.84-48.43-26.59-1.59-21.74,6.26-41.46,30.74-57.61l56.57-7.88Z"/>
        <g class="cls-27">
          <path class="cls-37" d="M68.92,401.01c29.52-5.96,56.19-5.9,77.07,6.37l-12.42-33.44-74.93-5.84,10.28,32.92Z"/>
        </g>
        <path class="cls-10" d="M164.04,329.53c-19.6,56.41-49.36,53.19-46.22,67.74,14.84,8.64,10.37,13.79,12.03,19.67.65,2.3-1.57,4.53-4.7,4.68-28.56,1.34-49.03-5.84-48.43-26.59-1.59-21.74,6.26-41.46,30.74-57.61l56.57-7.88Z"/>
      </g>
      <g>
        <path class="cls-17" d="M268.59,398.61c-10.55-4.55-32.23-17.95-58.52-19.4-67.18,38.08-107.19-20.65-195,44.59,54.3-70.5,2.2-121.34,68.23-186.15l127.74-2.38c19.11,35.3,19.18,45.88,23.01,82.59,7.79,38.93,31.58,45.33,34.55,80.76Z"/>
        <g class="cls-25">
          <path class="cls-37" d="M216.18,325.5c-13.85-12.3-21.11-38.6-27.85-65.99,3.57,29.38,8.07,56.64,18.22,71.17l9.63-5.18Z"/>
          <path class="cls-35" d="M159.03,321.58c20.95,18.29,41.59,20.49,44.8-6.69-11.27,10.68-26.7,11.06-44.8,6.69Z"/>
          <path class="cls-35" d="M125.05,324.47c-26.84,23.15-46.89,22.34-47.17-5.14,10.37,11.94,27.26,18.56,47.17,5.14Z"/>
          <path class="cls-37" d="M39.36,407.63c26.59-40.16,12.26-39.97,111.38-17.22-70.62-10.65-68.62-10.93-111.38,17.22Z"/>
          <path class="cls-35" d="M172.37,389.68c29.24-32.23,63.55-25.79,93.37,5.54-21.94-21.71-38.83-21.26-54.63-20.11-14.8,1.08-28.87,1.76-38.74,14.57Z"/>
          <path class="cls-37" d="M76.48,314.6c6.07.47,14.8-51.37,13.37-54.78-1.04,33.72-1.19,51.49-6.98,65.33l-6.39-10.55Z"/>
          <path class="cls-37" d="M140.11,334.37c3.71,23.81-6.93,43.04-23.27,48.52,10.8-9.65,21.3-28.24,23.27-48.52Z"/>
          <path class="cls-37" d="M169.54,382.83c-12.99-4.89-19.63-15.91-20.83-32.3,5.09,11.92,11.91,22.76,20.83,32.3Z"/>
          <ellipse class="cls-37" cx="137.58" cy="243.69" rx="98.21" ry="32.21"/>
        </g>
        <path class="cls-11" d="M268.59,398.61c-10.55-4.55-32.23-17.95-58.52-19.4-67.18,38.08-107.19-20.65-195,44.59,54.3-70.5,2.2-121.34,68.23-186.15l127.74-2.38c19.11,35.3,19.18,45.88,23.01,82.59,7.79,38.93,31.58,45.33,34.55,80.76Z"/>
      </g>
      <g>
        <path class="cls-19" d="M112.17,254.2c25.41,46.28,38.09,44.55,57.36-1.6l-57.36,1.6Z"/>
        <g class="cls-26">
          <path class="cls-37" d="M112.17,270.33c26.53-7.31,50.53-8.15,57.36,7.45l13.38-45.7-85.63,7.06,14.89,31.19Z"/>
        </g>
        <path class="cls-9" d="M112.17,254.2c25.41,46.28,38.09,44.55,57.36-1.6l-57.36,1.6Z"/>
      </g>
      <g>
        <path class="cls-19" d="M235.79,170.41c0,33.32-14.81,64.55-44.86,79.84-14.23,7.24-34.98,8.97-55.68,9.23-61.78.79-86-17.94-95.34-89.08-6.39-48.63,43.85-88.91,97.94-88.91s97.94,39.8,97.94,88.91Z"/>
        <g class="cls-32">
          <path class="cls-37" d="M159.4,145.92c-6.31,12.37,17.36,9.36,46.19-1.8-14.69-5.91-31.52-4.64-46.19,1.8Z"/>
          <path class="cls-37" d="M82.24,141.6c6.18,11.23,17.28,14.8,33.3,10.69-6.63-12.21-17.78-15.68-33.3-10.69Z"/>
          <g>
            <circle class="cls-37" cx="181.29" cy="171.71" r="25.65"/>
            <g>
              <circle class="cls-21" cx="182.86" cy="168.38" r="25.45"/>
              <g class="cls-29">
                <ellipse class="cls-34" cx="201.95" cy="168.55" rx="9.59" ry="10.43"/>
                <ellipse class="cls-23" cx="183.6" cy="184.22" rx="26.2" ry="15.22" transform="translate(-5.68 5.85) rotate(-1.8)"/>
                <path class="cls-42" d="M153.59,161.4c16.12-33.01,37.5-26.52,58.85-4.62-22.76-7.79-45.37-6.2-58.85,4.62Z"/>
              </g>
              <circle class="cls-2" cx="182.86" cy="168.38" r="25.45"/>
            </g>
          </g>
          <g>
            <circle class="cls-37" cx="93.17" cy="171.95" r="25.56"/>
            <g>
              <circle class="cls-21" cx="93.86" cy="170.14" r="24.8"/>
              <g class="cls-28">
                <ellipse class="cls-34" cx="113.64" cy="168.85" rx="9.34" ry="10.16" transform="translate(-9.97 7.16) rotate(-3.46)"/>
                <ellipse class="cls-23" cx="95.9" cy="185.12" rx="25.53" ry="12.21" transform="translate(-25.22 15.43) rotate(-8.13)"/>
                <path class="cls-42" d="M64.98,165.07c13.74-33.05,34.92-28,56.97-7.95-22.59-6.24-44.5-3.37-56.97,7.95Z"/>
              </g>
              <circle class="cls-1" cx="93.86" cy="170.14" r="24.8"/>
            </g>
          </g>
          <path class="cls-39" d="M161.58,138.19c-3.12,3.38-3.78,7.42-3.38,11.75,17.22-8.41,34.56-10.51,52.1-3.27-9.1-10.08-23.27-13.67-41.63-11.92-2.7.26-5.25,1.46-7.09,3.45Z"/>
          <path class="cls-39" d="M113.13,141.17c2.83,3.27,3.16,7.08,2.41,11.12-16.43-8.46-33.49-11.01-51.48-4.81,9.84-9.14,24.2-12.03,42.29-9.78,2.66.33,5.1,1.54,6.77,3.47Z"/>
          <path class="cls-40" d="M152.39,219.48c15.6,5.05,10.78,30.17-8.17,12.78l8.17-12.78Z"/>
          <path class="cls-16" d="M116.84,223.24c4.92,7.45,13.74,13.1,22.49,8.81,3.91-1.88,6.69-5.36,9.28-8.79,2.73-3.65,4.77-7.7,6.96-11.8,0,0,.38.1.38.1-.15,4.82-1.54,9.62-4.05,13.9-4.93,8.64-16.86,13.93-25.88,8.53-4.28-2.48-7.37-6.37-9.52-10.54l.34-.2h0Z"/>
          <path class="cls-33" d="M221.06,238.64c-8.35,10.77-17.64,9.14-23.21-1.55-5.57-10.69-22.64-16.41-14.29-27.18,8.35-10.77,25.89-9.7,37.7-4.15,11.8,5.55,8.16,22.1-.19,32.87Z"/>
          <ellipse class="cls-33" cx="60.8" cy="219.48" rx="22.04" ry="19.53" transform="translate(-102.07 60.29) rotate(-30.17)"/>
          <path class="cls-37" d="M113.93,94.9c-7.78,53.17,18.19,49.31,18.58,108.35,9.55-48.09-14.61-80,18.47-112.55-11.44,22,2.21,47.97.28,73.08,18.59-36.27,9.79-52.46,23.31-70.59-2.53,13.24-.06,21.51,2.84,28.72.78-12.4,1.41-18.79,5.85-26.04-7.76,31.02,26.03,23.51,36.34,69.59-1.74-11.33-3.13-18.99-1.3-28.19,11.43,47.52,5.39,89.45-1.77,121.03l13.86-37.51c3.2,20.92,1.2,59.74-.58,97.8,12.43-47.73,22.77-104.28,18.6-175.02-7.65-66.08-44.64-83.83-98.69-84.36-45.28-1.14-82.72,10.3-110,38.05-14.87,21.43-17.67,62.08-9.01,120.97,4.88,35.94,13.57,66.96,24.28,95.38,12.51-39.46-10.91-58.72,2.15-93.61-4.1,38.11,9.7,47.61,13.45,72.47-11.49-74.9,8.11-51.16.34-102.39-5.81-50.42,9.25-45.83,11.64-79.1,2.56,23.92,15.97,13.38,11.39,60.32,6.12-13.85,7.13-34.86,4.81-38.58s-1.69-16.56,4.77-27.77c-2.85,15.6,5.43,21.89,6.17,34.28,3.49-13.6-5.15-24.21,4.24-44.33Z"/>
          <path class="cls-37" d="M43.51,132.58c12.94,95.97,47.15,139.49,194.07,112.03l-148.88,28.05c-39.89-24.12-57.97-68.07-45.19-140.08Z"/>
        </g>
        <path class="cls-9" d="M235.79,170.41c0,33.32-14.81,64.55-44.86,79.84-14.23,7.24-34.98,8.97-55.68,9.23-61.78.79-86-17.94-95.34-89.08-6.39-48.63,43.85-88.91,97.94-88.91s97.94,39.8,97.94,88.91Z"/>
      </g>
      <path class="cls-4" d="M243.66,139.85c23.42-7.49,20.4,31.28-12.78,49.03l12.78-49.03Z"/>
      <g>
        <path class="cls-17" d="M198.68,305.2c-2.92,26.63,22.95,45.03,22.27,75.29,4.83-28.41,21.19-52.79,18.67-70.19l-40.94-5.1Z"/>
        <g class="cls-31">
          <rect class="cls-36" x="191.46" y="292.49" width="60.34" height="103.19"/>
        </g>
        <path class="cls-11" d="M198.68,305.2c-2.92,26.63,22.95,45.03,22.27,75.29,4.83-28.41,21.19-52.79,18.67-70.19l-40.94-5.1Z"/>
      </g>
      <g>
        <path class="cls-17" d="M42.53,319.52c5.27,23.37,17.93,44.55,10.4,73.89,12.16-17.37,22.71-41.85,30.46-78.59l-40.86,4.7Z"/>
        <g class="cls-30">
          <rect class="cls-36" x="31.52" y="301.36" width="66.79" height="118.93"/>
        </g>
        <path class="cls-11" d="M42.53,319.52c5.27,23.37,17.93,44.55,10.4,73.89,12.16-17.37,22.71-41.85,30.46-78.59l-40.86,4.7Z"/>
      </g>
      <path class="cls-12" d="M42.53,316.68c0,11.66,7.91,16.37,20.43,16.37s20.43-9.45,20.43-21.11-1.33-19.45-13.85-19.45-27.01,12.53-27.01,24.19Z"/>
      <path class="cls-12" d="M239.62,310.3c0,12.55-7.92,17.62-20.47,17.62s-20.47-10.17-20.47-22.72,1.33-20.93,13.88-20.93,27.07,13.49,27.07,26.04Z"/>
      <g>
        <path class="cls-18" d="M106.45,92.89c-4.82,53.59,21.14,48.27,24.89,107.25,6.9-48.6-19.28-79.14,12.22-113.54-10.28,22.63,4.96,47.82,4.44,73.03,16.69-37.31,6.89-52.99,19.49-71.88-1.8,13.37-1.16,23.75,2.18,30.8.08-12.44,2.68-21.1,6.74-28.6-4.57,30.74,29.11,23.4,39.32,70.2-2.4-11.23-2.96-21.5-1.64-30.8,14.23,46.85,10.52,89.11,5.1,121.08,5.62-11.44,10.11-23.77,11.84-38.27,4.41,20.73-5.57,64.51-5.2,102.65,15.73-38.07,27.2-110.38,18.97-180.85-18.38-63.54-56.23-79.34-104.31-78.76-45.72,1.41-70.36,13.69-96.29,42.97-13.78,22.26-26.76,64.31-14.68,122.68,6.97,35.65,17.49,66.17,29.9,93.97,10.37-40.15-14.34-58.08-3.15-93.69-1.97,38.32,12.49,47.04,17.68,71.68-15.84-74.22,5.27-51.6-5.48-102.36-8.72-50.07,6.73-46.33,7.24-79.72,3.94,23.77,16.86,12.47,14.91,59.65,5.38-14.19,5.21-35.25,2.66-38.84-2.55-3.59-2.65-16.46,3.24-28.03-1.98,15.75,6.72,21.58,8.17,33.92,2.75-13.79-6.57-23.91,1.76-44.55Z"/>
        <g class="cls-22">
          <path class="cls-20" d="M75.72,110.73c-12.71,30.9-28.99,27.41-12.28,96.67,5.79,21.26-6.04,51.15,10.52,85.42l6.55-162.43-4.79-19.65"/>
          <path class="cls-20" d="M143.56,86.61c-35.1,19.91-16.37,64.06-12.22,113.54l10.75-33c-6.1-28.36-11.85-56.65,1.47-80.53Z"/>
        </g>
        <path class="cls-6" d="M106.45,92.89c-4.82,53.59,21.14,48.27,24.89,107.25,6.9-48.6-19.28-79.14,12.22-113.54-10.28,22.63,4.96,47.82,4.44,73.03,16.69-37.31,6.89-52.99,19.49-71.88-1.8,13.37-1.16,23.75,2.18,30.8.08-12.44,2.68-21.1,6.74-28.6-4.57,30.74,29.11,23.4,39.32,70.2-2.4-11.23-2.96-21.5-1.64-30.8,14.23,46.85,10.52,89.11,5.1,121.08,5.62-11.44,10.11-23.77,11.84-38.27,4.41,20.73-5.57,64.51-5.2,102.65,15.73-38.07,27.2-110.38,18.97-180.85-18.38-63.54-56.23-79.34-104.31-78.76-45.72,1.41-70.36,13.69-96.29,42.97-13.78,22.26-26.76,64.31-14.68,122.68,6.97,35.65,17.49,66.17,29.9,93.97,10.37-40.15-14.34-58.08-3.15-93.69-1.97,38.32,12.49,47.04,17.68,71.68-15.84-74.22,5.27-51.6-5.48-102.36-8.72-50.07,6.73-46.33,7.24-79.72,3.94,23.77,16.86,12.47,14.91,59.65,5.38-14.19,5.21-35.25,2.66-38.84-2.55-3.59-2.65-16.46,3.24-28.03-1.98,15.75,6.72,21.58,8.17,33.92,2.75-13.79-6.57-23.91,1.76-44.55Z"/>
      </g>
      <path class="cls-18" d="M230.37,303.34c5.47-28.07,11.36-56.14,14.04-84.64,2.94-28.07,2.54-58.07-.82-85.27-15.55-52.71-46.39-77.66-101.96-76.69-41.09.78-69.29,11.07-96.27,41.68-21.65,35.86-23.09,80.49-14.94,120.7.66,3.37,2.09,10.25,2.86,13.61,6.04,27.18,14.98,53.65,26.14,79.16-12.77-27.34-22.68-56.12-29.22-85.61-10.02-42.67-10.47-90.73,12.83-129.33,27.34-31.72,57.34-42.62,98.57-43.29,56.58-.86,89.01,25.1,104.41,79.06,3.3,28.59,3.18,57.56,0,86.14-3.16,28.51-9.46,56.51-15.63,84.47h0Z"/>
      <path class="cls-38" d="M153.37,30.89c25.67,6.15,54.01,27.01,55.74,45.85.32,3.5,3.08,6.34,3.98,9.71-2.82-6.39-6.82-12.07-11.2-17.39-6.64-7.94-14.18-15.11-22.27-21.56-8.13-6.45-16.71-12.35-26.25-16.62h0Z"/>
      <path class="cls-38" d="M127.22,33.08c-38.07,9.68-79.86,43.49-82.11,74.44-.42,5.74-4.48,10.36-5.75,15.91,4.09-10.46,9.94-19.73,16.36-28.4,9.73-12.95,20.84-24.6,32.75-35.07,11.98-10.47,24.64-20.02,38.75-26.88h0Z"/>
      <path class="cls-38" d="M132.12,34.77c-26.67,21.01-42.2,41-39.77,59.35,7.27-17.57,21.87-37.85,39.77-59.35Z"/>
      <path class="cls-38" d="M145.03,33.08c30.53,22.38,54.22,44.42,46.09,64.28-4.87-15.41-24.3-39.17-46.09-64.28Z"/>
    </g>
  </g>
</svg>