<?xml version="1.0" encoding="UTF-8"?>
<svg id="Layer_2" data-name="Layer 2" xmlns="http://www.w3.org/2000/svg" xmlns:xlink="http://www.w3.org/1999/xlink" viewBox="0 0 114.87 218.55">
  <defs>
    <style>
      .cls-1, .cls-2, .cls-3, .cls-4, .cls-5, .cls-6, .cls-7, .cls-8, .cls-9, .cls-10, .cls-11, .cls-12 {
        stroke-miterlimit: 10;
      }

      .cls-1, .cls-2, .cls-5, .cls-8, .cls-9, .cls-12 {
        stroke-width: .49px;
      }

      .cls-1, .cls-3, .cls-4, .cls-6, .cls-8, .cls-12 {
        fill: none;
      }

      .cls-1, .cls-5 {
        stroke: #c6c6c6;
      }

      .cls-2, .cls-13 {
        fill: #e5e1df;
      }

      .cls-2, .cls-12 {
        stroke: #c9c5c3;
      }

      .cls-3, .cls-4, .cls-10, .cls-11 {
        stroke: #898989;
      }

      .cls-3, .cls-10 {
        stroke-width: .91px;
      }

      .cls-4, .cls-11 {
        stroke-width: .49px;
      }

      .cls-5, .cls-14 {
        fill: #f9f9f9;
      }

      .cls-15, .cls-9 {
        fill: #f8fbfe;
      }

      .cls-16 {
        clip-path: url(#clippath-11);
      }

      .cls-17 {
        clip-path: url(#clippath-10);
      }

      .cls-18 {
        clip-path: url(#clippath-15);
      }

      .cls-19 {
        clip-path: url(#clippath-13);
      }

      .cls-20 {
        clip-path: url(#clippath-14);
      }

      .cls-21 {
        clip-path: url(#clippath-12);
      }

      .cls-22 {
        clip-path: url(#clippath-1);
      }

      .cls-23 {
        clip-path: url(#clippath-3);
      }

      .cls-24 {
        clip-path: url(#clippath-4);
      }

      .cls-25 {
        clip-path: url(#clippath-2);
      }

      .cls-26 {
        clip-path: url(#clippath-7);
      }

      .cls-27 {
        clip-path: url(#clippath-6);
      }

      .cls-28 {
        clip-path: url(#clippath-9);
      }

      .cls-29 {
        clip-path: url(#clippath-8);
      }

      .cls-30 {
        clip-path: url(#clippath-5);
      }

      .cls-6, .cls-7 {
        stroke: #4b4b4b;
        stroke-width: 3.15px;
      }

      .cls-7 {
        fill: #4b4b4b;
      }

      .cls-31 {
        fill: #fff;
      }

      .cls-32 {
        fill: #191918;
      }

      .cls-33 {
        fill: #7e7b86;
      }

      .cls-8, .cls-9 {
        stroke: #d1d1d1;
      }

      .cls-34 {
        fill: #f0ebff;
      }

      .cls-34, .cls-35, .cls-36 {
        opacity: .2;
      }

      .cls-37, .cls-38, .cls-39, .cls-40, .cls-35, .cls-41 {
        fill: #20164c;
      }

      .cls-37, .cls-42 {
        opacity: .15;
      }

      .cls-38 {
        opacity: .05;
      }

      .cls-39 {
        opacity: .4;
      }

      .cls-40 {
        opacity: .25;
      }

      .cls-41 {
        opacity: .3;
      }

      .cls-43 {
        fill: #bab5bc;
      }

      .cls-10, .cls-11, .cls-44 {
        fill: #a5a5a3;
      }

      .cls-45 {
        fill: #0c0812;
      }

      .cls-46 {
        fill: #b33c33;
      }

      .cls-42, .cls-36 {
        fill: #d7c5ff;
      }

      .cls-47 {
        clip-path: url(#clippath);
      }
    </style>
    <clipPath id="clippath">
      <rect class="cls-10" x="4.4" y="31.46" width="106.48" height="146.54" rx="9.1" ry="9.1"/>
    </clipPath>
    <clipPath id="clippath-1">
      <rect class="cls-13" x="7.83" y="31.46" width="99.62" height="137.1" rx="8.51" ry="8.51"/>
    </clipPath>
    <clipPath id="clippath-2">
      <rect class="cls-11" x="4.4" y="174.26" width="106.48" height="43.54" rx="4.96" ry="4.96"/>
    </clipPath>
    <clipPath id="clippath-3">
      <rect class="cls-13" x="7.83" y="174.26" width="99.62" height="40.73" rx="4.64" ry="4.64"/>
    </clipPath>
    <clipPath id="clippath-4">
      <path class="cls-9" d="M72.28,144.55c3.44,2.66,6.39,5.29,9.11,7.64.59.51.88,1.28.77,2.05-.27,1.92-1.78,4.22-1.18,6.95-4.25-5.58-8.3-11.15-8.71-16.65Z"/>
    </clipPath>
    <clipPath id="clippath-5">
      <path class="cls-9" d="M55.29,142.27c-1.61,4.19-6.49,6.54-9.81,9.21-.68.55-.96,1.44-.74,2.29.71,2.75,1.77,4.67,3.11,5.9,5.05-5.11,8.9-10.55,7.45-17.4Z"/>
    </clipPath>
    <clipPath id="clippath-6">
      <path class="cls-9" d="M55.29,142.27c-2.19,9.73-6.75,6.48-8.04,18.28.5,1.46,1.2,2.11,2.52,2.38l-.47,1.14c-.16.38.04.82.43.96,4.66,1.64,9.22,2.2,13.57.48.47.64,1.55.62,2.53.29.95-.32,2.39,1.52,6.2-.75,2.05,1.76,5.66,1.6,11.23-.95.75-1.35-5.92-8.37-10.99-19.54,2.39-6.97-19.33-10.67-16.98-2.28Z"/>
    </clipPath>
    <clipPath id="clippath-7">
      <path class="cls-9" d="M49.94,113.74c.36,6.58-2.38,11.99-1.02,16.7,1.13,4.2,4.26,7.06,6.37,11.83-.4-3.68,14.77-2.86,16.98,2.28,2.42-3.01,7.99-1.51,6.34-8.12-.49-1.95,7.14-7.48,6.94-10.26-.11-2.5-1.86-6.52-3.95-10.85-7.78-5.39-18.02-6.07-31.66-1.59Z"/>
    </clipPath>
    <clipPath id="clippath-8">
      <path class="cls-2" d="M52.78,77.91c-13.34-1.53-26.03-14.99-26.03-25.91,0-12.75,10.96-22.33,25.36-22.33s29.63,8.9,26.08,28.02c-.87,4.7-.42,9.85-3.24,12.2l-9.98,8.52c-3.94,1.77-7.09,1.78-9.47,0l-2.72-.51Z"/>
    </clipPath>
    <clipPath id="clippath-9">
      <path class="cls-46" d="M51.84,66.74c5.32,12.67,13.49,10.12,11.62-3.85-1.89,7.08-7.29,7.81-11.62,3.85Z"/>
    </clipPath>
    <clipPath id="clippath-10">
      <ellipse class="cls-5" cx="66.77" cy="48.52" rx="6.72" ry="8.71" transform="translate(-11.51 74.66) rotate(-54.47)"/>
    </clipPath>
    <clipPath id="clippath-11">
      <ellipse class="cls-5" cx="42.09" cy="55.9" rx="8.71" ry="6.72" transform="translate(-26.8 68.14) rotate(-63.1)"/>
    </clipPath>
    <clipPath id="clippath-12">
      <path class="cls-9" d="M55.63,79.31c-1.3,1.14-2.76,1.16-4.39,2.88-1,.34-1.96.49-3.07.46-.85-.02-1.67.35-2.22.99-2,2.35-3.44,4.85-4.18,7.53-.27.98-.22,2.03.15,2.98,2.27,5.81.8,10.88,3.1,17.87.35,1.07,1.18,1.93,2.24,2.32,2.43.89,5.71,1.31,8.73,3.16.97-.39,1.49-1.15,1.81-1.83,1.91.98,4.01,1.77,6.34,2.31,1.05-.11,2.02-.79,2.9-1.97.11-.15.32-.15.45-.02.2.2.46.32.78.36,1.09-.46,1.49-1.35,2.59-1.25,2.19.97,4.21,1.03,5.82,1.86,5.99,3.11,11.24-4.67,9.42-10.65-1.7-6.53-5.66-14.39-6.86-23.19-.35-1.19-2.57-2.34-4.62-3.89-1.11-.84-2.49-1.27-3.88-1.19-1.75.11-3.22.49-4.4,1.14-.25.14-.57.11-.78-.09s-.42-.43-.61-.67c-2.79,1.49-5.92,1.74-9.34.89Z"/>
    </clipPath>
    <clipPath id="clippath-13">
      <path class="cls-9" d="M35,27.65c-2.97-.72-4.08.61-5.27-.5-.67-1.23,2.58-1.34.38-3.39-4.83-.07-6.44,1.12-8.15.5-1.46-.5-1.48-2.4-.93-5.58-.92-.23-2.09-6.38-1.27-6.09,1.87.66,4.93.16,5.58-3.37,1.27-.57,3.9,1.19,5.94.69,5.77-2.65,9.09-7.96,10.94-7.38,2.41.56,4.19,4.26,5.7,4.64,1.94.47,2.13-1.97,4.3-1.88,2.96.26,7.33,1.74,9.42,5.54.27.49.21,1.11-.17,1.53-.21.23-.44.45-.64.64,6.31,2.47,7.56,4.62,2.32,6.37,1,1.39,1.28,2.65,1.11,3.53-.05.26-.27.44-.53.46-1.47.08-1.99.29-2.83.85l-25.91,3.45Z"/>
    </clipPath>
    <clipPath id="clippath-14">
      <path class="cls-9" d="M33.01,42.22c-.46.38-.89.79-1.28,1.24-3.69,4.3-3.99,7.9-.39,14.5,3.61,5.23,6.21,8.07,7.11,12.68,1.9,2.76,12.04,3.8,17.05,7.77-2.14.65-4.98.5-8.13,0-6.16-1.47-14.2-4.37-19.37-8.35-1.07-1.55-4.63-8.2-6.32-13.55-1.1-3.48-1.25-7.61-.24-11.89.43-1.81,1.4-3.43,2.72-4.74,3.15-3.1,5.61-9.65,12.45-15.2,8.3-5.33,19.35-4.27,33.99,2.37,5.85,4.28,6.81,8.56,9.64,13.05.47.74.77,1.57.88,2.43.72,5.7.84,9.65,2.59,13.47-1.17,9.3-8.96,16.21-18.74,22.39-.27-4.77,8.38-4.86,10.35-17.43.26-1.69.3-3.4.15-5.1-.36-5.63-.76-10.93-1.38-14.75-3.61-3.24-7.31-5.77-11.12-7.52-4.03-1.12-8.22-1.58-12.54-1.5-5.3.87-11.06,4.93-17.42,10.11Z"/>
    </clipPath>
    <clipPath id="clippath-15">
      <path class="cls-9" d="M55.5,78.42c-.59,2.97,8.11,3.31,9.47,0-1.97-1.53-3.7,2.36-9.47,0Z"/>
    </clipPath>
  </defs>
  <g id="Layer_9" data-name="Layer 9">
    <g>
      <g>
        <rect class="cls-44" x="4.4" y="31.46" width="106.48" height="146.54" rx="9.1" ry="9.1"/>
        <g class="cls-47">
          <polygon class="cls-33" points="0 180.52 9.71 162.32 101.42 162.32 114.87 180.52 0 180.52"/>
        </g>
        <rect class="cls-3" x="4.4" y="31.46" width="106.48" height="146.54" rx="9.1" ry="9.1"/>
      </g>
      <g>
        <rect class="cls-13" x="7.83" y="31.46" width="99.62" height="137.1" rx="8.51" ry="8.51"/>
        <g class="cls-22">
          <rect class="cls-43" x="11.38" y="34.53" width="99.62" height="137.1" rx="8.51" ry="8.51"/>
          <path class="cls-34" d="M110.88,83.28c0-42.65-106.48-42.65-106.48,0V27.53s106.48,0,106.48,0v55.76Z"/>
        </g>
      </g>
    </g>
    <g>
      <rect class="cls-44" x="4.4" y="174.26" width="106.48" height="43.54" rx="4.96" ry="4.96"/>
      <g class="cls-25">
        <polygon class="cls-33" points="0 218.55 9.71 213.14 101.42 213.14 114.87 218.55 0 218.55"/>
      </g>
      <rect class="cls-4" x="4.4" y="174.26" width="106.48" height="43.54" rx="4.96" ry="4.96"/>
    </g>
    <g>
      <rect class="cls-13" x="7.83" y="174.26" width="99.62" height="40.73" rx="4.64" ry="4.64"/>
      <g class="cls-23">
        <rect class="cls-43" x="11.38" y="175.17" width="99.62" height="40.73" rx="4.64" ry="4.64"/>
        <path class="cls-34" d="M110.88,189.66c0-12.67-106.48-12.67-106.48,0v-16.57s106.48,0,106.48,0v16.57Z"/>
      </g>
    </g>
    <g>
      <g>
        <path class="cls-15" d="M72.28,144.55c3.44,2.66,6.39,5.29,9.11,7.64.59.51.88,1.28.77,2.05-.27,1.92-1.78,4.22-1.18,6.95-4.25-5.58-8.3-11.15-8.71-16.65Z"/>
        <g class="cls-24">
          <path class="cls-40" d="M71.07,141.81c3.19,7.22,7.61,13.05,14.03,16.6l-3.98,5.26c-6.78-7-11.04-14.21-10.05-21.86Z"/>
        </g>
        <path class="cls-8" d="M72.28,144.55c3.44,2.66,6.39,5.29,9.11,7.64.59.51.88,1.28.77,2.05-.27,1.92-1.78,4.22-1.18,6.95-4.25-5.58-8.3-11.15-8.71-16.65Z"/>
      </g>
      <g>
        <path class="cls-15" d="M55.29,142.27c-1.61,4.19-6.49,6.54-9.81,9.21-.68.55-.96,1.44-.74,2.29.71,2.75,1.77,4.67,3.11,5.9,5.05-5.11,8.9-10.55,7.45-17.4Z"/>
        <g class="cls-30">
          <path class="cls-40" d="M58.11,140.2c-4.42,9.66-12.05,10.28-13.7,18.8l1.98,2.21c7.3-6.46,12.11-13.32,11.72-21.01Z"/>
        </g>
        <path class="cls-8" d="M55.29,142.27c-1.61,4.19-6.49,6.54-9.81,9.21-.68.55-.96,1.44-.74,2.29.71,2.75,1.77,4.67,3.11,5.9,5.05-5.11,8.9-10.55,7.45-17.4Z"/>
      </g>
      <g>
        <path class="cls-15" d="M55.29,142.27c-2.19,9.73-6.75,6.48-8.04,18.28.5,1.46,1.2,2.11,2.52,2.38l-.47,1.14c-.16.38.04.82.43.96,4.66,1.64,9.22,2.2,13.57.48.47.64,1.55.62,2.53.29.95-.32,2.39,1.52,6.2-.75,2.05,1.76,5.66,1.6,11.23-.95.75-1.35-5.92-8.37-10.99-19.54,2.39-6.97-19.33-10.67-16.98-2.28Z"/>
        <g class="cls-27">
          <path class="cls-37" d="M75.67,159.66c-4.55-4.61-7.64-10.03-8.62-16.61,2.76,10.16,9.68,12.03,8.62,16.61Z"/>
          <path class="cls-37" d="M72.37,157.63c-7.5-4.17-14.25-10.02-13.16-13.73,2.53,4.47,6.65,9.32,13.16,13.73Z"/>
          <path class="cls-38" d="M54.39,146.79c2.26,5.21,4.98,11.37,7.29,10.29-2.96-3.24-5.49-6.63-7.29-10.29Z"/>
          <path class="cls-37" d="M55.23,138.59c-.18,2.58.61,5.34,2.33,8.55-1.25-.88-2.42-2.47-3.56-4.38l1.23-4.17Z"/>
          <path class="cls-37" d="M72.8,165.77c-2.39-1.66-4.61-4.3-6.68-7.57-.25,3.04.59,5.69,1.57,8.98l5.11-1.41Z"/>
          <path class="cls-37" d="M63.42,166.34c-.45-1.95-.05-5.07.5-9.27-1.61,4.33-3.05,7.74-3.5,10.28l3-1.01Z"/>
          <path class="cls-37" d="M49.57,163.75c1.29-2.59,2.96-5.65,4.9-7.84-3.03,1.93-4.8,4.71-6.72,6.74l1.82,1.11Z"/>
          <path class="cls-37" d="M52.56,143.79c8.03-2.74,15.95-1.22,23.82,2.95l2.01-3.95c-9.38-5.72-18.43-7.67-26.83-2.44l1,3.45Z"/>
          <path class="cls-37" d="M53.31,143.26c7.82-3.29,15.83-2.32,23.97,1.29l1.73-4.08c-9.76-5.06-18.92-6.37-26.94-.58l1.24,3.37Z"/>
        </g>
        <path class="cls-8" d="M55.29,142.27c-2.19,9.73-6.75,6.48-8.04,18.28.5,1.46,1.2,2.11,2.52,2.38l-.47,1.14c-.16.38.04.82.43.96,4.66,1.64,9.22,2.2,13.57.48.47.64,1.55.62,2.53.29.95-.32,2.39,1.52,6.2-.75,2.05,1.76,5.66,1.6,11.23-.95.75-1.35-5.92-8.37-10.99-19.54,2.39-6.97-19.33-10.67-16.98-2.28Z"/>
      </g>
      <g>
        <path class="cls-15" d="M49.94,113.74c.36,6.58-2.38,11.99-1.02,16.7,1.13,4.2,4.26,7.06,6.37,11.83-.4-3.68,14.77-2.86,16.98,2.28,2.42-3.01,7.99-1.51,6.34-8.12-.49-1.95,7.14-7.48,6.94-10.26-.11-2.5-1.86-6.52-3.95-10.85-7.78-5.39-18.02-6.07-31.66-1.59Z"/>
        <g class="cls-26">
          <path class="cls-37" d="M55.6,140.18c5.26-6.1,8.63-13.07,9.3-21.32-2.57,12.83-10.99,15.73-9.3,21.32Z"/>
          <path class="cls-37" d="M61.06,134.97c9.28-5.17,17.12-12.34,15.56-16.99-2.92,5.88-7.61,11.97-15.56,16.99Z"/>
          <path class="cls-38" d="M71.3,128.45c4.26-2.02,7.25-5.16,8.4-9.91-1.93,3.91-4.84,7.14-8.4,9.91Z"/>
          <path class="cls-37" d="M59.26,140.72c15.32-5.65,21.77-11.95,20.9-17.22-4.29,8.04-11.81,13.31-20.9,17.22Z"/>
          <path class="cls-38" d="M65.85,142.27c4.53-1.54,9.11-3.06,10.03-5.16,1.17-1.31,2.67-3.81,4.2-6.39-1.34,2.9-2.96,6.13-2.85,7.33-2.43,1.66-6.92,2.94-11.38,4.22Z"/>
          <path class="cls-37" d="M52.81,120.99c2.96,4.67,3.65,9.85,2.38,15.48-.16-5.45-.84-10.67-2.38-15.48Z"/>
          <path class="cls-37" d="M46.73,124.69c5.9,5.75,6.95,13.42,9.61,20.75l-10.18-15.3.56-5.45Z"/>
          <path class="cls-37" d="M44.97,116.64c.35,1.07,1.18,1.93,2.24,2.32,2.43.89,5.71,1.31,8.73,3.16.97-.39,1.49-1.15,1.81-1.83,1.91.98,4.01,1.77,6.34,2.31,1.05-.11,2.02-.79,2.9-1.97.11-.15.32-.15.45-.02.2.2.46.32.78.36,1.09-.46,1.49-1.35,2.59-1.25,2.19.97,4.21,1.03,5.82,1.86,3.74,1.95,7.2-.37,8.82-3.83l2.71-6.55-45.51-1.25,2.31,6.7Z"/>
          <path class="cls-37" d="M45.09,113.63c.35,1.07,1.18,1.93,2.24,2.32,2.43.89,5.71,1.31,8.73,3.16.97-.39,1.49-1.15,1.81-1.83,1.91.98,4.01,1.77,6.34,2.31,1.05-.11,2.02-.79,2.9-1.97.11-.15.32-.15.45-.02.2.2.46.32.78.36,1.09-.46,1.49-1.35,2.59-1.25,2.19.97,4.21,1.03,5.82,1.86,3.74,1.95,7.2-.37,8.82-3.83l2.71-6.55-45.51-1.25,2.31,6.7Z"/>
          <path class="cls-42" d="M83.55,119.41c1.07,6.7-1.55,10.33-4.71,16.02,3.96-3.06,7.7-6.13,8.82-9.42l-4.12-6.6Z"/>
          <path class="cls-42" d="M49.46,116.65c-.26,10.35,1.83,17.71,4.04,23.47l-7.33-9.97,3.29-13.5Z"/>
        </g>
        <path class="cls-8" d="M49.94,113.74c.36,6.58-2.38,11.99-1.02,16.7,1.13,4.2,4.26,7.06,6.37,11.83-.4-3.68,14.77-2.86,16.98,2.28,2.42-3.01,7.99-1.51,6.34-8.12-.49-1.95,7.14-7.48,6.94-10.26-.11-2.5-1.86-6.52-3.95-10.85-7.78-5.39-18.02-6.07-31.66-1.59Z"/>
      </g>
      <g>
        <path class="cls-13" d="M52.78,77.91c-13.34-1.53-26.03-14.99-26.03-25.91,0-12.75,10.96-22.33,25.36-22.33s29.63,8.9,26.08,28.02c-.87,4.7-.42,9.85-3.24,12.2l-9.98,8.52c-3.94,1.77-7.09,1.78-9.47,0l-2.72-.51Z"/>
        <g class="cls-29">
          <path class="cls-35" d="M32.55,60.77c-3.75-6.6-3.43-10.2.4-14.5.4-.45.85-.87,1.32-1.24,6.61-5.18,12.59-9.23,18.1-10.11,4.48-.07,8.84.38,13.02,1.5,3.95,1.75,7.8,4.28,11.55,7.52.39,2.36.71,5.28.97,8.49v-14.56l-12.77-7.16-15-1.04-15.86,6.24-7.52,12.19c-1.18,5.05,2.8,8.72,5.78,12.66Z"/>
          <path class="cls-35" d="M58.68,39.06c4.65,2.21,7.24,1.75,8.42-.53-3.48-2.01-6.21-1.59-8.42.53Z"/>
          <path class="cls-35" d="M37.15,45.35c5.15.25,7.35-1.17,7.57-3.73-3.98-.51-6.34.92-7.57,3.73Z"/>
          <g>
            <path class="cls-46" d="M51.84,66.74c5.32,12.67,13.49,10.12,11.62-3.85-1.89,7.08-7.29,7.81-11.62,3.85Z"/>
            <g class="cls-28">
              <ellipse class="cls-41" cx="59.34" cy="73.9" rx="2.73" ry="6.36" transform="translate(-28.31 109.93) rotate(-73.58)"/>
            </g>
          </g>
          <path class="cls-45" d="M60.19,36.41c-.96.64-1.36,1.58-1.53,2.65,4.15-.68,6.98-.86,11,.77.17.07.3-.15.18-.27-1.88-1.81-3.99-2.44-7.73-3.57-.64-.19-1.35.05-1.91.42Z"/>
          <path class="cls-45" d="M43.16,39.21c1.14.16,1.71,1.67,1.52,2.51-4.02,1.23-5.85,2.08-8.74,5.32-.12.13-.34,0-.28-.16.88-2.46,1.37-3.89,4.33-6.44.53-.46,2.58-1.31,3.16-1.23Z"/>
          <ellipse class="cls-39" cx="66.45" cy="49.68" rx="7.1" ry="9.11" transform="translate(-12.6 74.89) rotate(-54.47)"/>
          <ellipse class="cls-39" cx="41.6" cy="56.85" rx="9.11" ry="7.1" transform="translate(-27.85 68.62) rotate(-63.42)"/>
          <g>
            <ellipse class="cls-14" cx="66.77" cy="48.52" rx="6.72" ry="8.71" transform="translate(-11.51 74.66) rotate(-54.47)"/>
            <g class="cls-17">
              <ellipse class="cls-32" cx="71.38" cy="45.36" rx="2.6" ry="3.07" transform="translate(11.3 104.88) rotate(-77.17)"/>
              <path class="cls-35" d="M64.35,53.5c3.82,2.66,7.03,2.39,9.24-2.8-2.66,4.03-5.78,4.64-9.24,2.8Z"/>
            </g>
            <ellipse class="cls-1" cx="66.77" cy="48.52" rx="6.72" ry="8.71" transform="translate(-11.51 74.66) rotate(-54.47)"/>
          </g>
          <g>
            <ellipse class="cls-14" cx="42.09" cy="55.9" rx="8.71" ry="6.72" transform="translate(-26.8 68.14) rotate(-63.1)"/>
            <g class="cls-16">
              <ellipse class="cls-32" cx="37.03" cy="53.91" rx="2.9" ry="3.37" transform="translate(-20.93 84.22) rotate(-83.12)"/>
              <path class="cls-35" d="M46.68,59.33c-2.15,4.13-5.13,5.38-9.48,1.79,4.22,2.34,7.27,1.44,9.48-1.79Z"/>
            </g>
            <ellipse class="cls-1" cx="42.09" cy="55.9" rx="8.71" ry="6.72" transform="translate(-26.8 68.14) rotate(-63.1)"/>
          </g>
          <g>
            <ellipse class="cls-35" cx="59.34" cy="60.36" rx="1.18" ry="1.03"/>
            <ellipse class="cls-31" cx="59.25" cy="59.9" rx="1.18" ry="1.03"/>
          </g>
          <g>
            <ellipse class="cls-35" cx="54.78" cy="61.39" rx="1.22" ry="1.33"/>
            <ellipse class="cls-31" cx="54.78" cy="60.98" rx="1.22" ry="1.33"/>
          </g>
          <path class="cls-37" d="M34.95,65.37c8.39,7.52,20.34,8.15,26.22,14.39l-6.49,1.74c-10.99-.6-19.24-5.12-19.73-16.13Z"/>
        </g>
        <path class="cls-12" d="M52.78,77.91c-13.34-1.53-26.03-14.99-26.03-25.91,0-12.75,10.96-22.33,25.36-22.33s29.63,8.9,26.08,28.02c-.87,4.7-.42,9.85-3.24,12.2l-9.98,8.52c-3.94,1.77-7.09,1.78-9.47,0l-2.72-.51Z"/>
      </g>
      <g>
        <path class="cls-15" d="M55.63,79.31c-1.3,1.14-2.76,1.16-4.39,2.88-1,.34-1.96.49-3.07.46-.85-.02-1.67.35-2.22.99-2,2.35-3.44,4.85-4.18,7.53-.27.98-.22,2.03.15,2.98,2.27,5.81.8,10.88,3.1,17.87.35,1.07,1.18,1.93,2.24,2.32,2.43.89,5.71,1.31,8.73,3.16.97-.39,1.49-1.15,1.81-1.83,1.91.98,4.01,1.77,6.34,2.31,1.05-.11,2.02-.79,2.9-1.97.11-.15.32-.15.45-.02.2.2.46.32.78.36,1.09-.46,1.49-1.35,2.59-1.25,2.19.97,4.21,1.03,5.82,1.86,5.99,3.11,11.24-4.67,9.42-10.65-1.7-6.53-5.66-14.39-6.86-23.19-.35-1.19-2.57-2.34-4.62-3.89-1.11-.84-2.49-1.27-3.88-1.19-1.75.11-3.22.49-4.4,1.14-.25.14-.57.11-.78-.09s-.42-.43-.61-.67c-2.79,1.49-5.92,1.74-9.34.89Z"/>
        <g class="cls-21">
          <path class="cls-37" d="M67.29,80.37c1.62.51,3.63.63,4.9,1.37l5.88,12.84-6.88-11.68c-.74-.93-2.69-1.51-3.91-2.53Z"/>
          <path class="cls-37" d="M41.92,88.36c.58,3.53,6.7,17.23,9.32,19.29-2.21-.94-9.05-11.62-10.21-16.04l.89-3.25Z"/>
          <path class="cls-37" d="M61.33,82.41c.92-.02,1.84.03,2.72.93,2.4,5.37,4.48,12.43,7.01,19.85-3.46-6.83-6.6-13.47-7.71-18.93-.08-1.09-1.03-1.48-2.01-1.85Z"/>
          <path class="cls-38" d="M66.91,91.78c3.89,7.05,7.74,13.2,11.48,15.87-3.06-3.6-7.21-9.61-11.48-15.87Z"/>
          <path class="cls-38" d="M76.32,94.85c2.95,4.62,4.16,8.88,4.33,12.91-.99-4.2-2.46-8.51-4.33-12.91Z"/>
          <path class="cls-37" d="M67.51,115.99c-5.26,1.49-6.3-3.28-8.54-10.72-.09,3.86-.17,7.65-.39,9.21.11.6-.6,1.6-1.38,2.63l5.92,2.38,4.39-3.5Z"/>
          <path class="cls-37" d="M58.97,103.77c1.43-.31,1.58-4.59-.04-10.95l.04,10.95Z"/>
          <path class="cls-37" d="M55.46,110.5c-.03-10.29-.29-22.24.93-23.42-.13,9.3-.38,17.61-.93,23.42Z"/>
          <path class="cls-37" d="M58.76,81.36c-1.2,1.5-2.48,2.72-3.76,3.51-2.1,6.58-2.96,11.59-2.26,14.63.72-4.55,2.34-9.34,3.1-14.25,1.23-.76,2.12-2.22,2.93-3.89Z"/>
          <path class="cls-37" d="M48.94,81.83c3.17-2.87,6.59-3.68,10.28-2.42-5.02,2.89-8.33,3.54-10.28,2.42Z"/>
          <path class="cls-37" d="M62.11,78.74c1.4,1.25,2.96,1.46,4.79.11l-1.02-2.04-3.76,1.92Z"/>
          <path class="cls-37" d="M43.19,99.51c3.85,13.97,13.11,14.7,15.71,18.48l-7.27,1-8.69-4.18.25-15.3Z"/>
          <path class="cls-37" d="M73.47,116.3c11.33.75,11.24-7.5,10.2-20.07,3.06,5.59,4.49,11.69,5.18,18.02l-5.68,5.6-9.7-3.55Z"/>
          <path class="cls-36" d="M38.49,95.88c7.45-12.23,29.79-17.16,43.95-11.13l-6.94-9.86-30.76,5.7-6.26,15.29Z"/>
          <path class="cls-42" d="M65.28,106.78c.77-6.09-1.94-14.06-2.37-20.37,2.88,8.31,5.34,16.02,9.95,24.37-5.02-5.98-5.11-7.77-7.58-4Z"/>
          <path class="cls-42" d="M53.29,87.14c-3.31,6.61-5.9,12.9-1.28,16.08-1.17-4.29-.12-10.06,1.28-16.08Z"/>
          <path class="cls-37" d="M70.63,116.1c-1.33-1.42-1.86-4.31-2.3-7.36,1.55,3.27,3.36,6.23,5.85,8.32l-3.55-.96Z"/>
        </g>
        <path class="cls-8" d="M55.63,79.31c-1.3,1.14-2.76,1.16-4.39,2.88-1,.34-1.96.49-3.07.46-.85-.02-1.67.35-2.22.99-2,2.35-3.44,4.85-4.18,7.53-.27.98-.22,2.03.15,2.98,2.27,5.81.8,10.88,3.1,17.87.35,1.07,1.18,1.93,2.24,2.32,2.43.89,5.71,1.31,8.73,3.16.97-.39,1.49-1.15,1.81-1.83,1.91.98,4.01,1.77,6.34,2.31,1.05-.11,2.02-.79,2.9-1.97.11-.15.32-.15.45-.02.2.2.46.32.78.36,1.09-.46,1.49-1.35,2.59-1.25,2.19.97,4.21,1.03,5.82,1.86,5.99,3.11,11.24-4.67,9.42-10.65-1.7-6.53-5.66-14.39-6.86-23.19-.35-1.19-2.57-2.34-4.62-3.89-1.11-.84-2.49-1.27-3.88-1.19-1.75.11-3.22.49-4.4,1.14-.25.14-.57.11-.78-.09s-.42-.43-.61-.67c-2.79,1.49-5.92,1.74-9.34.89Z"/>
      </g>
      <g>
        <path class="cls-15" d="M35,27.65c-2.97-.72-4.08.61-5.27-.5-.67-1.23,2.58-1.34.38-3.39-4.83-.07-6.44,1.12-8.15.5-1.46-.5-1.48-2.4-.93-5.58-.92-.23-2.09-6.38-1.27-6.09,1.87.66,4.93.16,5.58-3.37,1.27-.57,3.9,1.19,5.94.69,5.77-2.65,9.09-7.96,10.94-7.38,2.41.56,4.19,4.26,5.7,4.64,1.94.47,2.13-1.97,4.3-1.88,2.96.26,7.33,1.74,9.42,5.54.27.49.21,1.11-.17,1.53-.21.23-.44.45-.64.64,6.31,2.47,7.56,4.62,2.32,6.37,1,1.39,1.28,2.65,1.11,3.53-.05.26-.27.44-.53.46-1.47.08-1.99.29-2.83.85l-25.91,3.45Z"/>
        <g class="cls-19">
          <path class="cls-37" d="M44.41,22.88c-3.42.02-6.61.43-9.4,1.5-2.43-1-4.48-1.17-6.02-.25-1.72,5.48,2.97,5.21,7.42,3.32l8-4.58Z"/>
          <path class="cls-37" d="M18.42,16.52c4.27-.97,13.56,2.54,14.66,4.58-3.12-1.46-11.56-4.08-14.41-1.85l-.25-2.73Z"/>
          <path class="cls-37" d="M28.91,9.29c4.17,2.35,7.03,4.84,9.79,8.3-1.87-3.86-4.38-7.56-6.77-10.7l-3.02,2.4Z"/>
          <path class="cls-37" d="M42.9,1.24c3.51,4.71,4.15,10.41,3.3,17.36,1.33-5.32,2.88-9.29,2.83-13.31l-6.13-4.05Z"/>
          <path class="cls-41" d="M56.92,20.86c.18-3.27,2.35-6.93,5.91-9.88l3.61,2.28c-4.47.69-7.33,3.5-9.52,7.61Z"/>
          <path class="cls-41" d="M56.34,22.99c2.18-2.38,4.77-3.54,8.22-3.87l.97,5.5c-2.1-.78-5.55-1.23-9.19-1.63Z"/>
          <path class="cls-42" d="M66.33,20.94c-.47-1.17-2.35-2.45-5.48-3.8.2-.2.43-.45.64-.71.38-.47.44-1.15.17-1.7-2.09-4.22-6.46-5.87-9.42-6.16-2.17-.1-2.36,2.61-4.3,2.09-1.52-.42-3.29-4.53-5.7-5.15-1.86-.65-5.18,5.26-10.94,8.19-2.04.55-4.67-1.41-5.94-.77-.65,3.91-3.71,4.47-5.58,3.74-.46-.18-2.01,1.48-1.61,3.37l-.81-8.07,7.73-5.43L41.39,0l22.11,8.52,5.81,8.83-2.98,3.58Z"/>
        </g>
        <path class="cls-8" d="M35,27.65c-2.97-.72-4.08.61-5.27-.5-.67-1.23,2.58-1.34.38-3.39-4.83-.07-6.44,1.12-8.15.5-1.46-.5-1.48-2.4-.93-5.58-.92-.23-2.09-6.38-1.27-6.09,1.87.66,4.93.16,5.58-3.37,1.27-.57,3.9,1.19,5.94.69,5.77-2.65,9.09-7.96,10.94-7.38,2.41.56,4.19,4.26,5.7,4.64,1.94.47,2.13-1.97,4.3-1.88,2.96.26,7.33,1.74,9.42,5.54.27.49.21,1.11-.17,1.53-.21.23-.44.45-.64.64,6.31,2.47,7.56,4.62,2.32,6.37,1,1.39,1.28,2.65,1.11,3.53-.05.26-.27.44-.53.46-1.47.08-1.99.29-2.83.85l-25.91,3.45Z"/>
      </g>
      <g>
        <path class="cls-15" d="M33.01,42.22c-.46.38-.89.79-1.28,1.24-3.69,4.3-3.99,7.9-.39,14.5,3.61,5.23,6.21,8.07,7.11,12.68,1.9,2.76,12.04,3.8,17.05,7.77-2.14.65-4.98.5-8.13,0-6.16-1.47-14.2-4.37-19.37-8.35-1.07-1.55-4.63-8.2-6.32-13.55-1.1-3.48-1.25-7.61-.24-11.89.43-1.81,1.4-3.43,2.72-4.74,3.15-3.1,5.61-9.65,12.45-15.2,8.3-5.33,19.35-4.27,33.99,2.37,5.85,4.28,6.81,8.56,9.64,13.05.47.74.77,1.57.88,2.43.72,5.7.84,9.65,2.59,13.47-1.17,9.3-8.96,16.21-18.74,22.39-.27-4.77,8.38-4.86,10.35-17.43.26-1.69.3-3.4.15-5.1-.36-5.63-.76-10.93-1.38-14.75-3.61-3.24-7.31-5.77-11.12-7.52-4.03-1.12-8.22-1.58-12.54-1.5-5.3.87-11.06,4.93-17.42,10.11Z"/>
        <g class="cls-20">
          <path class="cls-37" d="M36.69,70.65c-3.09-.44-5.89-4.89-8.36-13.85,3.11,6.03,5.95,10.87,8.36,13.85Z"/>
          <path class="cls-37" d="M26.03,67.69c-1.74-2.18-3.13-6.05-4.11-11.89-.62-8.07,3.37-13.29,7.29-18.56-3.57,6.14-6.59,12.28-5.74,18.4.51,4.93,1.5,8.85,2.55,12.05Z"/>
          <path class="cls-37" d="M84.93,55.88c-2.17-7.46-4.93-14.64-7.66-17.55-4.19-3.94-10.36-7.38-17.05-10.68,6.58,2.36,12.85,4.86,16.55,8.59,2.43,1.96,5.38,5.8,8.36,9.7l-.2,9.95Z"/>
          <path class="cls-37" d="M79.49,61.73c.75-2.06,1.18-4.04.89-5.85-1.05-1.96-1.01-7.25-1.13-12.04,1,5.14,1.99,10.32,3.18,12.08-.61,2.82-1.69,4.53-2.94,5.81Z"/>
          <path class="cls-37" d="M65.51,72.52c2.98-.12,9.23-4.08,12.77-9.04-1.03,3.27-5.17,7.04-7.56,8.43,3.15-.75,6.45-3.13,9.81-6.21l-15.27,14.79-1.95-4.57,2.19-3.4Z"/>
          <path class="cls-37" d="M54.5,76.42c-2.22.88-7.45-.78-12.48-2.27,2.93,1.27,6.27,2.92,7.84,2.9-2.29.76-5.46.3-8.85-.47l9.16,3.48,7.17-1.05-2.85-2.58Z"/>
          <path class="cls-37" d="M74.09,41.14c3.18,9.55,3.76,17.14.03,21.47l-.03-21.47Z"/>
          <path class="cls-42" d="M84.67,47.27c-2.79,13.56-12.37,22.34-22.43,30.78l1.8,2.72,21.72-15.2-1.09-18.31Z"/>
          <path class="cls-42" d="M22.41,60.88c9.42,10.47,22.17,13.32,35.15,15.63l-.13,3.3-26.46-2.33c-4.79-4.42-7.14-10.24-8.56-16.6Z"/>
          <path class="cls-42" d="M25.08,35.27c18.32-13.87,32.61-13.69,46.89-7.14-3.81-4.44-8.76-8.56-22.44-10.29l-17.55,3.46-6.9,13.97Z"/>
        </g>
        <path class="cls-8" d="M33.01,42.22c-.46.38-.89.79-1.28,1.24-3.69,4.3-3.99,7.9-.39,14.5,3.61,5.23,6.21,8.07,7.11,12.68,1.9,2.76,12.04,3.8,17.05,7.77-2.14.65-4.98.5-8.13,0-6.16-1.47-14.2-4.37-19.37-8.35-1.07-1.55-4.63-8.2-6.32-13.55-1.1-3.48-1.25-7.61-.24-11.89.43-1.81,1.4-3.43,2.72-4.74,3.15-3.1,5.61-9.65,12.45-15.2,8.3-5.33,19.35-4.27,33.99,2.37,5.85,4.28,6.81,8.56,9.64,13.05.47.74.77,1.57.88,2.43.72,5.7.84,9.65,2.59,13.47-1.17,9.3-8.96,16.21-18.74,22.39-.27-4.77,8.38-4.86,10.35-17.43.26-1.69.3-3.4.15-5.1-.36-5.63-.76-10.93-1.38-14.75-3.61-3.24-7.31-5.77-11.12-7.52-4.03-1.12-8.22-1.58-12.54-1.5-5.3.87-11.06,4.93-17.42,10.11Z"/>
      </g>
      <g>
        <path class="cls-15" d="M55.5,78.42c-.59,2.97,8.11,3.31,9.47,0-1.97-1.53-3.7,2.36-9.47,0Z"/>
        <g class="cls-18">
          <rect class="cls-40" x="54.54" y="76.57" width="11.91" height="5.68"/>
        </g>
        <path class="cls-8" d="M55.5,78.42c-.59,2.97,8.11,3.31,9.47,0-1.97-1.53-3.7,2.36-9.47,0Z"/>
      </g>
    </g>
    <g>
      <g>
        <path class="cls-7" d="M39.88,162.19s-.05,0-.06.02c-.01.01-.03.02-.06.02-.08.01-.13-.03-.15-.12-.02-.09-.03-.19-.03-.28-.13-2.15-.26-4.28-.37-6.41-.11-2.13-.19-4.26-.23-6.41v-.93c0-.11,0-.19.02-.23,0-.09.03-.17.08-.22.05-.05.11-.08.18-.09.07,0,.13-.02.2-.03,1.53-.17,3.07-.33,4.6-.46,1.53-.13,3.07-.26,4.6-.38.15-.01.29-.02.44-.02s.28.04.4.12c.07.04.11.1.14.19s.04.17.04.25v3.14c0,.76.01,1.51.04,2.26.03.75.06,1.5.1,2.26,0,.15-.03.32-.08.53-.05.21-.15.34-.28.41-.05.03-.14.04-.25.05s-.24,0-.37,0h-.62c-.11.01-.29.02-.55.03-.26,0-.56.02-.91.04-.35.02-.71.04-1.1.05-.39.01-.75.03-1.1.05-.35.02-.65.04-.91.05-.26.01-.44.02-.55.02.03.55.05,1.09.06,1.62.01.53.03,1.07.04,1.62v.5c0,.24,0,.49,0,.75s.02.51.03.74.03.4.06.49c.05.17-.01.27-.19.3-.18.03-.36.04-.53.04h-.51c-.26,0-.54,0-.83,0-.29,0-.57,0-.84,0h-.52ZM43.06,150.11c.01.44.02.88.03,1.32,0,.44.02.88.05,1.32.11-.01.31-.03.62-.05.31-.02.64-.04.99-.07.35-.03.68-.05.99-.07.31-.02.51-.03.62-.03,0-.08,0-.25-.02-.51s-.03-.54-.04-.83c-.01-.29-.03-.57-.04-.83-.01-.26-.02-.43-.02-.51-.11,0-.31,0-.61.03-.3.02-.62.05-.97.08-.35.03-.67.07-.98.1s-.51.05-.62.05Z"/>
        <path class="cls-7" d="M61.16,162.23c-.07.01-.18.02-.35.02s-.35,0-.54,0c-.19,0-.37-.01-.54-.02-.17,0-.28,0-.35,0-.27-.03-.54-.04-.81-.05-.27,0-.54-.02-.81-.05-.35-.03-.7-.08-1.05-.15-.35-.07-.7-.12-1.05-.15-.59-.04-1.17-.08-1.75-.12s-1.15-.13-1.71-.28c-.16-.04-.32-.09-.48-.14-.16-.05-.29-.15-.4-.28-.04-.04-.07-.11-.09-.2-.02-.09-.04-.19-.06-.3-.02-.11-.04-.21-.05-.31-.01-.1-.02-.18-.02-.23-.07-.8-.11-1.6-.12-2.39-.01-.79-.02-1.59-.02-2.39v-2c-.03-.61-.05-1.22-.07-1.82-.02-.6-.02-1.21,0-1.82,0-.17,0-.36.03-.56.02-.2.1-.35.25-.46.11-.08.29-.16.55-.23s.54-.14.83-.2c.29-.06.58-.11.85-.14.27-.03.48-.06.61-.09.77-.13,1.55-.21,2.33-.23.78-.02,1.56-.08,2.33-.19.05-.01.16-.03.33-.05.17-.02.34-.04.52-.07.18-.03.35-.05.52-.08.17-.03.28-.04.33-.04.07,0,.15,0,.26,0,.11,0,.21,0,.32,0,.11,0,.2.02.29.05.09.03.15.07.19.12.05.07.09.18.12.35.03.17.05.34.06.53.01.19.02.37.03.54,0,.17,0,.3,0,.38,0,.13,0,.35.01.65,0,.3.02.65.03,1.05.01.4.02.82.03,1.26,0,.44.01.86.02,1.26,0,.4.01.75.02,1.06,0,.31,0,.52,0,.64,0,.11,0,.3-.02.58-.01.28-.03.6-.04.96-.01.36-.03.74-.04,1.15-.01.41-.03.79-.04,1.15-.01.36-.03.68-.04.96-.01.28-.02.47-.02.58,0,.15,0,.31,0,.5,0,.19,0,.37,0,.55-.01.18-.05.34-.12.47-.07.13-.17.22-.3.26ZM54.8,158.31c.11.03.31.06.62.11s.63.09.97.13.66.08.97.11.52.06.64.07c-.03-.15-.04-.28-.05-.41,0-.13-.02-.26-.05-.39-.01-.12-.03-.32-.05-.6-.02-.28-.04-.6-.05-.95-.01-.35-.03-.73-.04-1.13-.01-.4-.02-.78-.03-1.14,0-.36-.01-.68-.02-.96,0-.28,0-.48,0-.6-.01-.29-.02-.58-.01-.87s.01-.58.01-.89c0-.03-.01-.03-.03,0-.02.02-.04.03-.07.03-.09.01-.28.04-.56.09-.28.05-.58.1-.9.15-.32.05-.62.1-.9.15-.28.05-.47.08-.56.09,0,.8,0,1.59,0,2.38s0,1.58.03,2.38c.01.39.02.76.03,1.13,0,.37.03.74.07,1.13Z"/>
        <path class="cls-7" d="M72.23,162.43c-.07.04-.14.06-.22.05s-.15-.02-.22-.03c-1.29-.27-2.59-.45-3.9-.56-1.31-.11-2.62-.25-3.94-.42-.11-.01-.2-.06-.28-.14s-.13-.17-.16-.28c-.01-.05-.03-.16-.04-.32s-.02-.33-.03-.5c0-.17-.01-.34-.02-.5s0-.27,0-.32c-.07-1.16-.11-2.31-.12-3.46-.01-1.15-.03-2.31-.04-3.48-.03-1.01-.03-2.03,0-3.06v-.25c0-.11,0-.23,0-.35,0-.12.02-.24.04-.35.02-.11.04-.19.07-.23.05-.08.12-.13.21-.16.09-.03.18-.05.27-.08.61-.15,1.23-.26,1.86-.34s1.26-.14,1.89-.19,1.27-.09,1.91-.14c.64-.05,1.27-.11,1.9-.19.08-.01.17-.03.27-.05.1-.02.2-.03.29-.04.09,0,.17,0,.23.03.06.03.1.08.13.16.24.92.4,1.85.48,2.8.01.08.02.21.01.4,0,.19-.03.31-.07.38-.05.08-.13.13-.23.16-.1.03-.2.05-.29.08-.13.03-.4.06-.79.1s-.81.08-1.25.11-.86.06-1.25.09c-.39.03-.66.05-.79.06-.04,0-.1,0-.18.02s-.17.02-.26.03c-.09,0-.18.02-.25.04-.07.02-.13.04-.17.07-.08.05-.13.14-.15.25-.02.11-.04.22-.05.33,0,.09,0,.29.02.58.01.29.03.6.05.93.02.33.04.64.06.93.02.29.03.49.03.58v1.14c0,.24,0,.47,0,.68,0,.21.02.36.05.44.03.09.12.17.27.22.15.05.27.09.35.12.41.12.83.21,1.25.27.42.06.85.11,1.28.15.43.04.86.08,1.29.12s.85.1,1.28.18c.12.03.19.1.2.21.01.11,0,.23-.04.35-.04.09-.1.29-.17.58-.07.29-.14.6-.21.93-.07.33-.13.64-.2.94-.07.3-.11.5-.14.59-.05.17-.13.29-.24.34Z"/>
        <path class="cls-7" d="M78.29,162.27c-.49.04-.99.05-1.48.02-.49-.03-.99-.04-1.48-.04-.07,0-.13,0-.19-.02-.06-.01-.12-.05-.17-.1-.08-.08-.12-.19-.12-.34-.15-1.59-.28-3.17-.39-4.75-.11-1.58-.21-3.17-.29-4.77-.03-.8-.05-1.6-.08-2.4-.03-.8-.04-1.6-.04-2.4,0-.12.07-.19.22-.2.15-.01.28-.03.4-.04.17-.01.45-.04.84-.09s.8-.09,1.23-.12.85-.06,1.24-.07c.39-.01.67,0,.83.04.13.04.2.15.2.32-.12,2.43-.22,4.84-.31,7.24-.09,2.4-.12,4.81-.11,7.24.01.11,0,.21-.06.31-.05.1-.13.16-.24.17Z"/>
      </g>
      <g>
        <path class="cls-6" d="M39.96,160.36s-.05,0-.06.02c-.01.01-.03.02-.06.02-.08.01-.13-.03-.15-.12-.02-.09-.03-.19-.03-.28-.13-2.15-.26-4.28-.37-6.41-.11-2.13-.19-4.26-.23-6.41v-.93c0-.11,0-.19.02-.23,0-.09.03-.17.08-.22.05-.05.11-.08.18-.09.07,0,.13-.02.2-.03,1.53-.17,3.07-.33,4.6-.46,1.53-.13,3.07-.26,4.6-.38.15-.01.29-.02.44-.02s.28.04.4.12c.07.04.11.1.14.19s.04.17.04.25v3.14c0,.76.01,1.51.04,2.26.03.75.06,1.5.1,2.26,0,.15-.03.32-.08.53-.05.21-.15.34-.28.41-.05.03-.14.04-.25.05-.11,0-.24,0-.37,0h-.62c-.11.01-.29.02-.55.03-.26,0-.56.02-.91.04-.35.02-.71.04-1.1.05-.39.01-.75.03-1.1.05-.35.02-.65.04-.91.05-.26.01-.44.02-.55.02.03.55.05,1.09.06,1.62.01.53.03,1.07.04,1.62v.5c0,.24,0,.49,0,.75s.02.51.03.74.03.4.06.49c.05.17-.01.27-.19.3-.18.03-.36.04-.53.04h-.51c-.26,0-.54,0-.83,0-.29,0-.57,0-.84,0h-.52ZM43.14,148.28c.01.44.02.88.03,1.32s.02.88.05,1.32c.11-.01.31-.03.62-.05.31-.02.64-.04.99-.07.35-.03.68-.05.99-.07.31-.02.51-.03.62-.03,0-.08,0-.25-.02-.51s-.03-.54-.04-.83c-.01-.29-.03-.57-.04-.83s-.02-.43-.02-.51c-.11,0-.31,0-.61.03-.3.02-.62.05-.97.08-.35.03-.67.07-.98.1-.31.03-.51.05-.62.05Z"/>
        <path class="cls-6" d="M61.32,160.4c-.07.01-.18.02-.35.02s-.35,0-.54,0c-.19,0-.37-.01-.54-.02-.17,0-.28,0-.35,0-.27-.03-.54-.04-.81-.05-.27,0-.54-.02-.81-.05-.35-.03-.7-.08-1.05-.15-.35-.07-.7-.12-1.05-.15-.59-.04-1.17-.08-1.75-.12s-1.15-.13-1.71-.28c-.16-.04-.32-.09-.48-.14-.16-.05-.29-.15-.4-.28-.04-.04-.07-.11-.09-.2-.02-.09-.04-.19-.06-.3-.02-.11-.04-.21-.05-.31-.01-.1-.02-.18-.02-.23-.07-.8-.11-1.6-.12-2.39-.01-.79-.02-1.59-.02-2.39v-2c-.03-.61-.05-1.22-.07-1.82-.02-.6-.02-1.21,0-1.82,0-.17,0-.36.03-.56.02-.2.1-.35.25-.46.11-.08.29-.16.55-.23s.54-.14.83-.2c.29-.06.58-.11.85-.14.27-.03.48-.06.61-.09.77-.13,1.55-.21,2.33-.23.78-.02,1.56-.08,2.33-.19.05-.01.16-.03.33-.05.17-.02.34-.04.52-.07.18-.03.35-.05.52-.08.17-.03.28-.04.33-.04.07,0,.15,0,.26,0,.11,0,.21,0,.32,0,.11,0,.2.02.29.05.09.03.15.07.19.12.05.07.09.18.12.35.03.17.05.34.06.53.01.19.02.37.03.54,0,.17,0,.3,0,.38,0,.13,0,.35.01.65,0,.3.02.65.03,1.05.01.4.02.82.03,1.26,0,.44.01.86.02,1.26,0,.4.01.75.02,1.06,0,.31,0,.52,0,.64,0,.11,0,.3-.02.58-.01.28-.03.6-.04.96-.01.36-.03.74-.04,1.15-.01.41-.03.79-.04,1.15-.01.36-.03.68-.04.96-.01.28-.02.47-.02.58,0,.15,0,.31.01.5,0,.19,0,.37-.01.55-.01.18-.05.34-.12.47-.07.13-.17.22-.3.26ZM54.96,156.48c.11.03.31.06.62.11s.63.09.97.13.66.08.97.11.52.06.64.07c-.03-.15-.04-.28-.05-.41,0-.13-.02-.26-.05-.39-.01-.12-.03-.32-.05-.6-.02-.28-.04-.6-.05-.95-.01-.35-.03-.73-.04-1.13-.01-.4-.02-.78-.03-1.14,0-.36-.01-.68-.02-.96,0-.28,0-.48,0-.6-.01-.29-.02-.58-.01-.87s.01-.58.01-.89c0-.03-.01-.03-.03,0-.02.02-.04.03-.07.03-.09.01-.28.04-.56.09-.28.05-.58.1-.9.15-.32.05-.62.1-.9.15-.28.05-.47.08-.56.09,0,.8,0,1.59,0,2.38s0,1.58.03,2.38c.01.39.02.76.03,1.13,0,.37.03.74.07,1.13Z"/>
        <path class="cls-6" d="M72.55,160.6c-.07.04-.14.06-.22.05s-.15-.02-.22-.03c-1.29-.27-2.59-.45-3.9-.56-1.31-.11-2.62-.25-3.94-.42-.11-.01-.2-.06-.28-.14s-.13-.17-.16-.28c-.01-.05-.03-.16-.04-.32s-.02-.33-.03-.5c0-.17-.01-.34-.02-.5s0-.27,0-.32c-.07-1.16-.11-2.31-.12-3.46-.01-1.15-.03-2.31-.04-3.48-.03-1.01-.03-2.03,0-3.06v-.25c0-.11,0-.23,0-.35,0-.12.02-.24.04-.35.02-.11.04-.19.07-.23.05-.08.12-.13.21-.16.09-.03.18-.05.27-.08.61-.15,1.23-.26,1.86-.34s1.26-.14,1.89-.19,1.27-.09,1.91-.14c.64-.05,1.27-.11,1.9-.19.08-.01.17-.03.27-.05.1-.02.2-.03.29-.04.09,0,.17,0,.23.03.06.03.1.08.13.16.24.92.4,1.85.48,2.8.01.08.02.21.01.4,0,.19-.03.31-.07.38-.05.08-.13.13-.23.16-.1.03-.2.05-.29.08-.13.03-.4.06-.79.1s-.81.08-1.25.11-.86.06-1.25.09c-.39.03-.66.05-.79.06-.04,0-.1,0-.18.02s-.17.02-.26.03c-.09,0-.18.02-.25.04-.07.02-.13.04-.17.07-.08.05-.13.14-.15.25-.02.11-.04.22-.05.33,0,.09,0,.29.02.58.01.29.03.6.05.93.02.33.04.64.06.93.02.29.03.49.03.58v1.14c0,.24,0,.47,0,.68,0,.21.02.36.05.44.03.09.12.17.27.22.15.05.27.09.35.12.41.12.83.21,1.25.27.42.06.85.11,1.28.15s.86.08,1.29.12c.43.04.85.1,1.28.18.12.03.19.1.2.21.01.11,0,.23-.04.35-.04.09-.1.29-.17.58-.07.29-.14.6-.21.93-.07.33-.13.64-.2.94-.07.3-.11.5-.14.59-.05.17-.13.29-.24.34Z"/>
        <path class="cls-6" d="M78.67,160.44c-.49.04-.99.05-1.48.02-.49-.03-.99-.04-1.48-.04-.07,0-.13,0-.19-.02-.06-.01-.12-.05-.17-.1-.08-.08-.12-.19-.12-.34-.15-1.59-.28-3.17-.39-4.75-.11-1.58-.21-3.17-.29-4.77-.03-.8-.05-1.6-.08-2.4-.03-.8-.04-1.6-.04-2.4,0-.12.07-.19.22-.2.15-.01.28-.03.4-.04.17-.01.45-.04.84-.09s.8-.09,1.23-.12c.43-.03.85-.06,1.24-.07.39-.01.67,0,.83.04.13.04.2.15.2.32-.12,2.43-.22,4.84-.31,7.24-.09,2.4-.12,4.81-.11,7.24.01.11,0,.21-.06.31-.05.1-.13.16-.24.17Z"/>
      </g>
      <g>
        <path class="cls-31" d="M39.98,160.36s-.05,0-.06.02c-.01.01-.03.02-.06.02-.08.01-.13-.03-.15-.12s-.03-.19-.03-.28c-.13-2.17-.26-4.33-.37-6.48s-.19-4.31-.23-6.48v-.94c0-.11,0-.19.02-.23,0-.09.03-.17.08-.22.05-.05.11-.08.18-.09s.13-.02.2-.03c1.55-.17,3.1-.33,4.65-.46,1.55-.13,3.1-.26,4.65-.38.15-.01.3-.02.45-.02s.28.04.4.12c.07.04.11.1.14.19.03.09.04.17.04.25v3.17c0,.77.01,1.53.04,2.28.03.75.06,1.52.1,2.28,0,.15-.03.33-.08.54-.05.21-.15.35-.28.42-.05.03-.14.04-.25.05-.11,0-.24.01-.37.01h-.63c-.11.01-.29.02-.56.03s-.57.02-.92.04c-.35.02-.72.04-1.11.05s-.76.03-1.11.05c-.35.02-.66.04-.92.05-.26.01-.45.02-.56.02.03.55.05,1.1.06,1.64.01.54.03,1.08.04,1.64v.5c0,.24,0,.5,0,.76s.02.51.03.75c.01.24.03.4.06.5.05.18,0,.28-.19.3-.18.03-.36.04-.54.04h-.51c-.26,0-.54,0-.84,0s-.58.01-.85.01h-.53ZM43.19,148.16c.01.44.02.89.03,1.33,0,.45.02.89.05,1.33.11-.01.32-.03.63-.05.31-.02.64-.04,1-.07.36-.03.69-.05,1-.07.31-.02.52-.03.63-.03,0-.08,0-.25-.02-.51s-.03-.54-.04-.84c-.01-.3-.03-.58-.04-.84-.01-.26-.02-.43-.02-.51-.11,0-.31,0-.62.03-.3.02-.63.05-.98.08-.35.03-.68.07-.99.1-.31.03-.52.05-.63.05Z"/>
        <path class="cls-31" d="M61.55,160.4c-.07.01-.19.02-.35.02s-.35,0-.55,0c-.2,0-.38-.01-.54-.02-.17,0-.29,0-.35,0-.27-.03-.54-.04-.82-.05-.28,0-.55-.02-.82-.05-.35-.03-.7-.08-1.06-.15-.36-.07-.71-.12-1.06-.15-.59-.04-1.18-.08-1.77-.12-.59-.04-1.16-.13-1.73-.28-.16-.04-.32-.09-.49-.14-.16-.05-.3-.15-.4-.28-.04-.04-.07-.11-.09-.2-.02-.09-.04-.2-.06-.3-.02-.11-.04-.21-.05-.31-.01-.1-.02-.18-.02-.23-.07-.81-.11-1.61-.12-2.42-.01-.8-.02-1.61-.02-2.42v-2.02c-.03-.62-.05-1.23-.07-1.84-.02-.61-.02-1.22,0-1.84,0-.17,0-.36.03-.57.02-.2.1-.36.25-.46.11-.08.29-.16.56-.23s.54-.14.84-.2.58-.11.86-.14c.28-.03.48-.06.62-.09.78-.13,1.57-.21,2.35-.23s1.57-.08,2.35-.19c.05-.01.17-.03.33-.05.17-.02.34-.04.53-.07.18-.03.36-.05.53-.08.17-.03.28-.04.33-.04.07,0,.16,0,.26,0s.22,0,.32,0,.21.02.29.05c.09.03.15.07.19.12.05.07.09.18.12.35.03.17.05.35.06.54s.02.37.03.55c0,.17,0,.3,0,.38,0,.13,0,.35.01.66s.02.66.03,1.06c.01.4.02.83.03,1.27s.01.87.02,1.27c0,.4.01.76.02,1.07s.01.53.01.65c0,.11,0,.3-.02.59-.01.28-.03.61-.04.97-.01.36-.03.75-.04,1.16s-.03.8-.04,1.16c-.01.36-.03.69-.04.97-.01.28-.02.48-.02.59,0,.15,0,.32,0,.5s0,.37,0,.56c-.01.18-.05.34-.12.47-.07.13-.17.22-.3.26ZM55.13,156.44c.11.03.32.06.63.11.31.05.64.09.98.13.34.04.67.08.98.11.31.03.53.06.65.07-.03-.15-.04-.29-.05-.41s-.02-.26-.05-.39c-.01-.12-.03-.32-.05-.61s-.04-.6-.05-.96c-.01-.36-.03-.74-.04-1.14-.01-.4-.02-.79-.03-1.15,0-.36-.01-.69-.02-.97,0-.28,0-.49,0-.61-.01-.3-.02-.59-.01-.88,0-.29.01-.59.01-.9,0-.03-.01-.03-.03,0-.02.02-.04.03-.07.03-.09.01-.28.04-.57.09-.28.05-.59.1-.91.15-.32.05-.63.1-.91.15-.28.05-.47.08-.57.09,0,.81,0,1.61,0,2.4s0,1.6.03,2.4c.01.39.02.77.03,1.14s.03.75.07,1.14Z"/>
        <path class="cls-31" d="M72.89,160.6c-.07.04-.14.06-.22.05-.08,0-.16-.02-.22-.03-1.31-.27-2.62-.46-3.94-.57-1.32-.11-2.65-.25-3.98-.42-.11-.01-.2-.06-.28-.14s-.13-.17-.16-.28c-.01-.05-.03-.16-.04-.32-.01-.16-.02-.33-.03-.5,0-.17-.01-.34-.02-.5,0-.16,0-.27,0-.32-.07-1.17-.11-2.34-.12-3.5-.01-1.16-.03-2.33-.04-3.52-.03-1.02-.03-2.05,0-3.09v-.25c0-.11,0-.23.01-.35,0-.12.02-.24.04-.35s.04-.19.07-.23c.05-.08.12-.13.21-.16.09-.03.18-.05.27-.08.62-.15,1.25-.26,1.88-.34s1.27-.14,1.91-.19c.64-.05,1.28-.09,1.93-.14.65-.05,1.29-.11,1.92-.19.08-.01.17-.03.27-.05.1-.02.2-.03.29-.04.09,0,.17,0,.23.03s.1.08.13.16c.24.93.4,1.87.48,2.83.01.08.02.22.01.4,0,.19-.03.32-.07.38-.05.08-.13.13-.23.16-.1.03-.2.05-.29.08-.13.03-.4.06-.8.1-.4.04-.82.08-1.26.11-.44.03-.87.06-1.26.09-.4.03-.66.05-.8.06-.04,0-.1,0-.18.02-.08.01-.17.02-.26.03-.09,0-.18.02-.25.04-.07.02-.13.04-.17.07-.08.05-.13.14-.15.25-.02.11-.04.23-.05.33,0,.09,0,.29.02.59.01.3.03.61.05.94.02.33.04.64.06.94.02.3.03.49.03.59v1.15c0,.24,0,.47.01.69,0,.22.02.36.05.45.03.09.12.17.27.22.15.05.27.09.35.12.42.12.84.21,1.26.27.42.06.86.11,1.29.15.44.04.87.08,1.3.12.43.04.86.1,1.29.18.12.03.19.1.2.21.01.12,0,.23-.04.35-.04.09-.1.29-.17.59-.07.3-.15.61-.21.94s-.13.65-.2.95-.11.5-.14.6c-.05.17-.13.29-.24.34Z"/>
        <path class="cls-31" d="M79.07,160.44c-.5.04-1,.05-1.5.02-.5-.03-1-.04-1.5-.04-.07,0-.13,0-.19-.02s-.12-.05-.17-.1c-.08-.08-.12-.2-.12-.34-.15-1.6-.28-3.2-.39-4.8-.11-1.6-.21-3.2-.29-4.82-.03-.81-.05-1.62-.08-2.42-.03-.81-.04-1.62-.04-2.42,0-.12.07-.19.22-.2.15-.01.28-.03.4-.04.18-.01.46-.04.85-.09.39-.05.81-.09,1.24-.12.44-.03.86-.06,1.25-.07.4-.01.68,0,.84.04.13.04.2.15.2.32-.12,2.45-.23,4.89-.31,7.31-.09,2.42-.12,4.86-.11,7.31.01.11,0,.21-.06.31-.05.1-.13.16-.24.17Z"/>
      </g>
    </g>
  </g>
</svg>