<?xml version="1.0" encoding="UTF-8"?>
<svg width="80.95" height="79.83" id="Layer_2" data-name="Layer 2" xmlns="http://www.w3.org/2000/svg" viewBox="0 0 280.28 276.4">
  <defs>
    <style>
      .cls-1 {
        fill: #a5a5a3;
        stroke: #898989;
        stroke-miterlimit: 10;
        stroke-width: 3.89px;
      }

      .cls-2 {
        fill: #f8fbfe;
      }

      .cls-3 {
        fill: #7e7b86;
      }

      .cls-4 {
        fill: #706e7a;
      }

      .cls-5 {
        fill: #e5e1df;
      }

      .cls-6 {
        fill: #bab5bc;
      }

      .cls-7 {
        fill: #5c5968;
      }
    </style>
  </defs>
  <g id="tiles">
    <g>
      <rect class="cls-1" x="5.82" y="1.94" width="272.52" height="272.52" rx="18.13" ry="18.13"/>
      <path class="cls-5" d="M257.75,250.94c-59.49-9.61-115.67,22.77-219.69,0-5.76,0-10.43-4.67-10.43-10.43-3.54-84.69,13.05-177.61,0-219.69,0-5.76,4.67-10.43,10.43-10.43h86.28c15.07,5.85,27.62,17.22,39.3,30.51l-15.73-30.51h93.28c14.91,0,26.99,12.08,26.99,26.99v203.13c0,5.76-4.67,10.43-10.43,10.43Z"/>
      <path class="cls-3" d="M71.27,240.92c4.84,5.46-2.76,18.92-2.07,22.05.09.41-.04.94,0,1.38-.81.79-1.49,1.16-2.07,2.41.93,1.55,12.46-8.79,14.82-9.99,13.39-6.85,45.86-7.38,54.44,7.58l7.92-13.09c-.47,5.9-7.69,11.41-6.89,17.23-10.85,11.58-15.04,5.62-27.22,5.51-12.2-.11-23.46.92-35.83,0-2.94-.22-9-3.39-9.65-3.45-5.46-.48-30.24,3.01-32.73,2.07l2.76-9.65c.55-.88.8-1.25,1.38-2.07,1.15,1.78,1.7.93,3.1,0,6.28-4.15,22.16-20.15,28.25-21.36,3.29-.65,3.59,1.37,3.79,1.38Z"/>
      <path class="cls-3" d="M262.83,262.96c-11.45,3.06-45.26,5.11-58.23,5.51-2.52.08-5.06-.06-7.58,0-.96-.84.16-1.27.34-2.07,5.71-1.8,9.93-6.37,15.16-8.96,18.37-9.09,35.7-8.25,55.47-10.34,1.56-.16,5.81-.49,6.55-2.07,1.42.2,2.32.24,3.79,0-3.76,6.05-8.29,15.99-15.5,17.92Z"/>
      <path class="cls-3" d="M13.38,117.57c-1.45,3.67-2.86,7.46-4.13,10.68-1.35,3.39-1.84,7.34-3.45,10.68-.38-.25-1.82,2.61-2.76-2.41-3.42-18.23,1.28-38.11-.69-56.51.16-.74,6-8.47,6.89-9.3.51-.48,1.46-.97,2.07-1.38l-1.03,44.1,3.79-42.38c1.96,2.06,14.15,10.07,14.47,11.71.62,3.16-17.73,27.39-15.16,34.8Z"/>
      <circle class="cls-6" cx="42.52" cy="206.98" r="22.46"/>
      <path class="cls-6" d="M24.1,16.89c1.34,12.33,17.77,20.67,36.72,18.62,18.94-2.05,33.21-13.71,31.88-26.05H27.12l-3.02,7.43Z"/>
      <path class="cls-7" d="M215.29,203.7c-.6,1.5,4.25,19.31,4.82,22.4.77,4.15-.75,15.01,3.45,17.57-7.82,6.96-18,16.78-26.87,22.05-1.09.64-4.6,1.26-4.82,1.38v-.69c3.61-5.93,3.57-15.91,6.2-21.71,2.21-4.88,7.73-6.87,9.65-10.34,2.02-3.65,5.47-27.77,4.82-32.04,12.76-6.22,22.35-17.58,29.89-32.28-4.87,16.11-14.33,26.85-27.14,33.66Z"/>
      <path class="cls-3" d="M158.78,252.64c9.02-1.32,28.09,1.14,26.53,13.78l5.86-2.76h.69v.69c-17.84,9.22-30.89,12.09-50.99,6.55,2.56-6.33,2.74-9.94,8.27-14.13,2.53-1.92,6.38-3.66,9.65-4.13Z"/>
      <path class="cls-3" d="M28.54,176.15l-2.07-.69c-.08-5.14-6.03-16.84-8.27-22.74,6.81-14.82,3.41-33.35,7.58-49.27-4.7,10.32-15.85,25.19-13.09,36.18-2.76-.94-3.39,3.52-3.45,5.51-2.07-3.01-.37-4.17-3.45-6.2,1.61-3.34,2.1-7.29,3.45-10.68,1.28-3.22,2.69-7.01,4.13-10.68,4.72-11.98,10.48-23.33,18.61-33.42-4.32,30.69-3.46,61.16-3.45,91.99Z"/>
      <path class="cls-3" d="M12.4,9.39c-.22,10.79.49,27.48,2.76,37.9-2.12.8-1.63.66-2.07,2.41-1.82,7.21-.74,16.86-9.65,19.64-.08-.09-1.71.11-2.07-1.03-.65-14.35-.87-28.72-1.38-43.07C3.98,18.3,6.35,9.51,11.03,3.53l1.38,5.86Z"/>
      <path class="cls-7" d="M47.84,70.72c-3.11,1.1-14.84,3.68-15.5,4.13-2.77,1.9,1.47,5.59-1.38,6.2-1.64.35-16.1-10.75-17.23-13.78-1.27-.31-2.01,1.8-2.41,2.07-.61.41-1.55.9-2.07,1.38-1.92-1.33-3.93-2.33-5.51-4.13,8.91-2.77,7.83-12.43,9.65-19.64.44-1.76-.06-1.61,2.07-2.41,3.98,18.29,12.98,25.88,31.7,22.05l24.4-3.79,41.51,22.21-39.31-14.64-25.92.35Z"/>
      <path class="cls-7" d="M12.69,139.63c1.12,4.48,3.88,8.79,5.51,13.09,2.24,5.9,8.19,17.6,8.27,22.74.01.72-2.42.75,0,3.1l-2.07-.34c-1.02-2.71-7.38-6.48-8.96-9.99-.72-1.6-5.14-18.09-5.51-20.33-.15-.9-.69-2.61-.69-2.76.05-2,.69-6.45,3.45-5.51Z"/>
      <g>
        <path class="cls-3" d="M8.56,147.89c2.57,5.73,2.59,14.18,4.82,19.64s9.63,9.13,10.34,13.09c1.67,9.38-7.32,25.52-4.82,35.49-1.84,9.81-4.25,21.04-4.13,30.66,1.55-6.53,1.91-13.47,3.45-19.98,2.7-11.45,9.85-28.12,11.03-38.93,1.66,9.2,1.68,18.64,2.76,27.91.58,4.99,4.36,12.41,3.45,17.23-.58,3.04-14.26,19.87-15.85,24.81,6.55-1.44,8.07-10.25,11.03-14.47.96-1.37,7.96-10.48,8.61-10.68,8.64-.26,17.24.31,25.84.69-.3,1.19-1.74,1.61-2.76,2.07-13.43.8-24.68,13.95-29.63,25.5-5.72,5.09-14.03,5.91-21.36,5.17-.61-26.08-5.59-53.64-.69-79.24l-1.38-.69c-5.39,15.87-6.18-16.59-6.2-19.98-.02-3.47-1.29-20.74,5.51-18.26Z"/>
        <path class="cls-5" d="M9.94,147.89c.37,2.24,4.79,18.73,5.51,20.33,1.58,3.52,7.94,7.28,8.96,9.99,3.01,8.01-3.79,28.71-5.51,37.9-2.5-9.97,6.5-26.11,4.82-35.49-.71-3.96-8.08-7.6-10.34-13.09s-2.25-13.91-4.82-19.64c.3.11.94-.06,1.38,0Z"/>
        <path class="cls-2" d="M62.31,235.41c-4.2,1.89-6.45,2.85-10.34,5.51-10.15,6.95-12.01,13.5-19.29,19.98,4.95-11.54,16.2-24.7,29.63-25.5Z"/>
        <path class="cls-7" d="M13.73,247.81c1.66,1.15-.12,10.67-1.38,10.34l1.38-10.34Z"/>
      </g>
      <path class="cls-4" d="M89.87,243.68c-8.33,3-14.32,13.5-20.67,19.29-.69-3.13,6.91-16.59,2.07-22.05,5.25.16,10.97.13,16.19.69,1.86.2,2.73-.7,2.41,2.07Z"/>
      <path class="cls-4" d="M195.3,247.81c-1.28,5.3-3.05,10.5-4.13,15.85l-5.86,2.76c1.56-12.64-17.51-15.1-26.53-13.78,11.17-3.92,24.82-8.13,36.52-4.82Z"/>
      <path class="cls-3" d="M18.21,152.72c-1.63-4.3-4.39-8.61-5.51-13.09-2.76-10.98,8.39-25.86,13.09-36.18-4.17,15.92-.77,34.45-7.58,49.27Z"/>
      <path class="cls-6" d="M56.75,102.41c-1.08-.17-3.99-.94-4.46-1.47-1.35-1.48,22.46-21.07,21.12-26.67,10.6,10.87,27.57,9.05,42.12,15.14,6.08,6.57-28.91-.03-32.74.39-8.97,1-13.67,14.54-26.05,12.6Z"/>
      <path class="cls-6" d="M248.26,217.09c-.1,20.58-13.02,26.99-28.98,35.24l28.98-35.24Z"/>
      <path class="cls-6" d="M261.74,25.46c-6.89,1.38-17.98-1.56-22.79,4.19-3.13,3.73-10.64,33.49-4.19,33.96,5.57-8.1,3.72-27.23,12.1-32.56,3.92-2.49,12.13-1.36,14.89-5.58Z"/>
      <path class="cls-2" d="M255.6,33.8c1.29.26,3.7-.38,4.65,0,4.03,1.6,4.66,37.06,5.58,43.73-2.85-3.62-5.3-10.98-6.05-15.35-1.53-8.99,2.12-23.04-5.58-26.98l1.4-1.4Z"/>
      <path class="cls-6" d="M223.9,115.75c7.96,1.2,16.2,9.52,22.33.93,4.82,16.82-14.95,2.55-22.33-.93Z"/>
      <circle class="cls-6" cx="102.75" cy="202.45" r="8.73"/>
      <circle class="cls-6" cx="88.2" cy="228.79" r="8.73"/>
    </g>
  </g>
</svg>