<?xml version="1.0" encoding="UTF-8"?>
<svg id="Layer_2" data-name="Layer 2" xmlns="http://www.w3.org/2000/svg" xmlns:xlink="http://www.w3.org/1999/xlink" viewBox="0 0 493.34 150.13">
  <defs>
    <style>
      .cls-1, .cls-2, .cls-3, .cls-4, .cls-5, .cls-6, .cls-7 {
        clip-rule: evenodd;
      }

      .cls-1, .cls-8 {
        fill: #e5e3e1;
      }

      .cls-9 {
        opacity: .17;
      }

      .cls-9, .cls-10, .cls-4, .cls-11, .cls-12 {
        fill: none;
      }

      .cls-9, .cls-10, .cls-11, .cls-12 {
        stroke-miterlimit: 10;
      }

      .cls-9, .cls-11, .cls-12 {
        stroke: #979797;
      }

      .cls-9, .cls-12 {
        stroke-width: .43px;
      }

      .cls-13 {
        fill: #a19898;
      }

      .cls-2, .cls-14, .cls-15 {
        fill: #635d68;
      }

      .cls-16, .cls-3, .cls-17 {
        fill: #bcb7bb;
      }

      .cls-16, .cls-18, .cls-8, .cls-19, .cls-20, .cls-15 {
        fill-rule: evenodd;
      }

      .cls-21 {
        fill: #8f8083;
      }

      .cls-18, .cls-22, .cls-6 {
        fill: #837e86;
      }

      .cls-10 {
        stroke: #999;
        stroke-width: 3.81px;
      }

      .cls-23 {
        fill: #cec3c1;
      }

      .cls-24 {
        fill: #a39897;
      }

      .cls-25 {
        clip-path: url(#clippath-11);
      }

      .cls-26 {
        clip-path: url(#clippath-16);
      }

      .cls-27 {
        clip-path: url(#clippath-18);
      }

      .cls-28 {
        clip-path: url(#clippath-10);
      }

      .cls-29 {
        clip-path: url(#clippath-13);
      }

      .cls-30 {
        clip-path: url(#clippath-14);
      }

      .cls-31 {
        clip-path: url(#clippath-12);
      }

      .cls-32 {
        clip-path: url(#clippath-1);
      }

      .cls-33 {
        clip-path: url(#clippath-3);
      }

      .cls-34 {
        clip-path: url(#clippath-4);
      }

      .cls-35 {
        clip-path: url(#clippath-2);
      }

      .cls-36 {
        clip-path: url(#clippath-7);
      }

      .cls-37 {
        clip-path: url(#clippath-6);
      }

      .cls-38 {
        clip-path: url(#clippath-9);
      }

      .cls-39 {
        clip-path: url(#clippath-8);
      }

      .cls-40 {
        clip-path: url(#clippath-5);
      }

      .cls-41 {
        fill: #b4a7a6;
      }

      .cls-42, .cls-19, .cls-7 {
        fill: #d9dadb;
      }

      .cls-43 {
        fill: #d1c7c6;
      }

      .cls-44, .cls-5, .cls-20 {
        fill: #4a4351;
      }

      .cls-11 {
        stroke-width: .48px;
      }

      .cls-11, .cls-12 {
        opacity: .17;
      }

      .cls-45 {
        clip-path: url(#clippath);
      }
    </style>
    <clipPath id="clippath">
      <path class="cls-1" d="M45.64,1.91C16.71,16.26,2.24,40.65,2.24,75.07s14.46,58.81,43.39,73.16h269.51l6.93-4.35,25.83,4.35h95.36c32.12-11.99,48.17-35.93,48.17-71.81S475.37,15.7,443.26,1.91h-64.52l-11.6,2.7-5.65-2.7h-208.11l-4.2,4.83-12.02-4.83H45.64Z"/>
    </clipPath>
    <clipPath id="clippath-1">
      <polygon class="cls-3" points="66.89 1.91 75.2 15.26 138.54 15.26 136.43 1.91 66.89 1.91"/>
    </clipPath>
    <clipPath id="clippath-2">
      <polygon class="cls-4" points="136.43 1.91 140.58 15.26 151.75 17.27 148.45 5.71 136.43 1.91"/>
    </clipPath>
    <clipPath id="clippath-3">
      <polygon class="cls-4" points="152.65 1.91 159.11 15.26 353.53 15.26 360.66 1.91 152.65 1.91"/>
    </clipPath>
    <clipPath id="clippath-4">
      <polygon class="cls-4" points="360.66 1.91 353.52 15.26 358.4 17.96 366.31 4.03 360.66 1.91"/>
    </clipPath>
    <clipPath id="clippath-5">
      <path class="cls-3" d="M377.91,1.91l-6.46,13.35h65.58c5.92,0,10.53.9,13.81,2.71l8.06-8.98c-3.42-1.59-6.1-2.8-8.06-3.64-1.95-.84-4.75-1.99-8.39-3.44h-64.54Z"/>
    </clipPath>
    <clipPath id="clippath-6">
      <path class="cls-3" d="M66.89,1.91v13.34c-19.13,2.52-32.51,7.93-40.14,16.23-7.63,8.3-12.09,19.27-13.39,32.93l-11.25,5.64c-.79-8.32-1.01-14.25-.66-17.79.96-9.73,5.17-17.82,8.55-24.23C15.24,18.12,26.86,9.41,44.87,1.91h22.03Z"/>
    </clipPath>
    <clipPath id="clippath-7">
      <path class="cls-4" d="M429.61,14.12c10.51.52,19.21,4.55,26.1,12.09,7.62,8.34,14.67,18.31,17.85,30.71,2.09,8.13,2.04,18.98,1.07,25.22-2.28,14.68-10.75,31.7-24.96,41.5-5.48,3.78-15.62,7.06-30.42,9.81h19.31c16.45-10.05,26.82-18.95,31.11-26.69.93-1.68,2.35-4.06,3.07-5.97,1.53-4.09,2.04-8.02,2.96-12.25,4.3-19.97,1.3-37.71-9.01-53.2-2.77-3.87-4.83-6.63-6.18-8.29-1.35-1.66-3.13-3.63-5.35-5.91l7.33-14.2-1.98-1.28-8.38,12.11c-2.87-1.51-5.12-2.47-6.75-2.88-1.62-.41-6.88-.67-15.77-.78Z"/>
    </clipPath>
    <clipPath id="clippath-8">
      <path class="cls-6" d="M3.03,94.41l12.48-5.98c1.46,6.96,4.51,13.78,9.15,20.47,4.65,6.68,9.92,11.85,15.84,15.49l-8.96,15.58c-9.91-8.4-16.46-15.14-19.64-20.23-3.18-5.09-6.14-13.53-8.86-25.33Z"/>
    </clipPath>
    <clipPath id="clippath-9">
      <path class="cls-2" d="M40.49,124.38l-8.96,15.58c3.19,2.26,5.78,3.93,7.76,5.02,1.98,1.09,4.06,1.98,6.22,2.68h269.44l-6.43-15.23H57.97c-4.05-.99-7.09-1.95-9.13-2.89-2.04-.94-4.82-2.65-8.35-5.15Z"/>
    </clipPath>
    <clipPath id="clippath-10">
      <polygon class="cls-5" points="308.52 132.43 317.97 129.19 321.88 143.67 314.96 147.66 308.52 132.43"/>
    </clipPath>
    <clipPath id="clippath-11">
      <polygon class="cls-6" points="317.97 129.19 321.88 143.67 349.62 147.66 345.04 131.98 317.97 129.19"/>
    </clipPath>
    <clipPath id="clippath-12">
      <polygon class="cls-2" points="344.65 132.04 349.24 147.72 442.73 147.72 447.61 145.96 438.08 132.04 344.65 132.04"/>
    </clipPath>
    <clipPath id="clippath-13">
      <path class="cls-6" d="M437.81,132.56l9.53,13.91c9.28-4.26,15.88-7.96,19.8-11.09,10.17-8.13,13.08-13.5,16.76-20.49,4.24-8.05,6.75-20.35,6.75-33.85,0-4.93-.86-11.76-2.59-20.48l-13.32,9.18c.33,14.38-1.03,25.91-4.08,34.58-3.04,8.67-13.99,18.08-32.85,28.23Z"/>
    </clipPath>
    <clipPath id="clippath-14">
      <path class="cls-4" d="M464.6,31.98l8.59-9.9c3.53,4.29,5.95,7.59,7.28,9.9,1.33,2.3,2.75,5.7,4.29,10.19l-11.56,7.31c-.93-3.79-2.05-6.98-3.36-9.55-1.31-2.58-3.06-5.23-5.23-7.95Z"/>
    </clipPath>
    <clipPath id="clippath-16">
      <path class="cls-7" d="M460.18,11.07l-6.42,10.09c2.62,2.37,4.56,4.2,5.81,5.49,1.25,1.29,2.68,2.91,4.28,4.87l9.02-10.36c-2.69-2.77-4.76-4.73-6.2-5.88-1.44-1.15-3.61-2.55-6.49-4.21Z"/>
    </clipPath>
    <clipPath id="clippath-18">
      <path class="cls-4" d="M2.37,70.04v1.39l12.48-5.12c1.68-15.83,6.26-27.13,13.75-33.88,7.49-6.75,19.95-11.63,37.36-14.63h85.79l-11.17-2.55-4.16-13.34,2.11,13.34h-63.34l-8.31-13.34v13.34c-18.18,2.1-31.56,7.51-40.14,16.23-8.58,8.72-12.88,19.82-12.88,33.3l-11.51,5.27Z"/>
    </clipPath>
  </defs>
  <g id="Layer_9" data-name="Layer 9">
    <g>
      <g>
        <path class="cls-8" d="M45.64,1.91C16.71,16.26,2.24,40.65,2.24,75.07s14.46,58.81,43.39,73.16h269.51l6.93-4.35,25.83,4.35h95.36c32.12-11.99,48.17-35.93,48.17-71.81S475.37,15.7,443.26,1.91h-64.52l-11.6,2.7-5.65-2.7h-208.11l-4.2,4.83-12.02-4.83H45.64Z"/>
        <g class="cls-45">
          <g>
            <polygon class="cls-16" points="66.89 1.91 75.2 15.26 138.54 15.26 136.43 1.91 66.89 1.91"/>
            <g class="cls-32">
              <rect class="cls-17" x="65.78" y=".76" width="73.86" height="15.64"/>
            </g>
          </g>
          <polygon class="cls-12" points="66.89 1.91 75.2 15.26 138.54 15.26 136.43 1.91 66.89 1.91"/>
          <g class="cls-35">
            <rect class="cls-24" x="135.32" y=".76" width="17.55" height="17.65"/>
          </g>
          <polygon class="cls-22" points="136.43 1.91 140.58 15.26 151.75 17.27 148.45 5.71 136.43 1.91"/>
          <g class="cls-33">
            <rect class="cls-41" x="151.54" y=".76" width="210.23" height="15.64"/>
          </g>
          <polygon class="cls-17" points="152.65 1.91 159.11 15.26 353.53 15.26 360.66 1.91 152.65 1.91"/>
          <g class="cls-34">
            <rect class="cls-13" x="352.41" y=".76" width="15.01" height="18.35"/>
          </g>
          <polygon class="cls-22" points="360.66 1.91 353.52 15.26 358.4 17.96 366.31 4.03 360.66 1.91"/>
          <g>
            <path class="cls-16" d="M377.91,1.91l-6.46,13.35h65.58c5.92,0,10.53.9,13.81,2.71l8.06-8.98c-3.42-1.59-6.1-2.8-8.06-3.64-1.95-.84-4.75-1.99-8.39-3.44h-64.54Z"/>
            <g class="cls-40">
              <rect class="cls-17" x="370.34" y=".76" width="89.67" height="18.35"/>
            </g>
          </g>
          <path class="cls-12" d="M377.91,1.91l-6.46,13.35h65.58c5.92,0,10.53.9,13.81,2.71l8.06-8.98c-3.42-1.59-6.1-2.8-8.06-3.64-1.95-.84-4.75-1.99-8.39-3.44h-64.54Z"/>
          <g>
            <path class="cls-16" d="M66.89,1.91v13.34c-19.13,2.52-32.51,7.93-40.14,16.23-7.63,8.3-12.09,19.27-13.39,32.93l-11.25,5.64c-.79-8.32-1.01-14.25-.66-17.79.96-9.73,5.17-17.82,8.55-24.23C15.24,18.12,26.86,9.41,44.87,1.91h22.03Z"/>
            <g class="cls-37">
              <rect class="cls-17" y=".76" width="68" height="70.42"/>
            </g>
          </g>
          <path class="cls-12" d="M66.89,1.91v13.34c-19.13,2.52-32.51,7.93-40.14,16.23-7.63,8.3-12.09,19.27-13.39,32.93l-11.25,5.64c-.79-8.32-1.01-14.25-.66-17.79.96-9.73,5.17-17.82,8.55-24.23C15.24,18.12,26.86,9.41,44.87,1.91h22.03Z"/>
          <g class="cls-36">
            <rect class="cls-23" x="418.09" y="4.13" width="63.06" height="130.88"/>
          </g>
          <g>
            <path class="cls-18" d="M3.03,94.41l12.48-5.98c1.46,6.96,4.51,13.78,9.15,20.47,4.65,6.68,9.92,11.85,15.84,15.49l-8.96,15.58c-9.91-8.4-16.46-15.14-19.64-20.23-3.18-5.09-6.14-13.53-8.86-25.33Z"/>
            <g class="cls-39">
              <rect class="cls-22" x="1.92" y="87.09" width="39.69" height="54.21"/>
            </g>
          </g>
          <g>
            <path class="cls-15" d="M40.49,124.38l-8.96,15.58c3.19,2.26,5.78,3.93,7.76,5.02,1.98,1.09,4.06,1.98,6.22,2.68h269.44l-6.43-15.23H57.97c-4.05-.99-7.09-1.95-9.13-2.89-2.04-.94-4.82-2.65-8.35-5.15Z"/>
            <g class="cls-38">
              <rect class="cls-14" x="30.42" y="123.05" width="285.64" height="25.95"/>
            </g>
          </g>
          <g>
            <polygon class="cls-20" points="308.52 132.43 317.97 129.19 321.88 143.67 314.96 147.66 308.52 132.43"/>
            <g class="cls-28">
              <rect class="cls-44" x="307.41" y="127.86" width="15.58" height="21.14"/>
            </g>
          </g>
          <g>
            <polygon class="cls-18" points="317.97 129.19 321.88 143.67 349.62 147.66 345.04 131.98 317.97 129.19"/>
            <g class="cls-25">
              <rect class="cls-22" x="316.86" y="127.86" width="33.87" height="21.14"/>
            </g>
          </g>
          <g>
            <polygon class="cls-15" points="344.65 132.04 349.24 147.72 442.73 147.72 447.61 145.96 438.08 132.04 344.65 132.04"/>
            <g class="cls-31">
              <rect class="cls-14" x="343.54" y="130.7" width="105.18" height="18.35"/>
            </g>
          </g>
          <g>
            <path class="cls-18" d="M437.81,132.56l9.53,13.91c9.28-4.26,15.88-7.96,19.8-11.09,10.17-8.13,13.08-13.5,16.76-20.49,4.24-8.05,6.75-20.35,6.75-33.85,0-4.93-.86-11.76-2.59-20.48l-13.32,9.18c.33,14.38-1.03,25.91-4.08,34.58-3.04,8.67-13.99,18.08-32.85,28.23Z"/>
            <g class="cls-29">
              <rect class="cls-22" x="436.7" y="59.24" width="55.06" height="88.57"/>
            </g>
          </g>
          <path class="cls-11" d="M437.81,131.17l9.53,15.15c9.28-4.64,15.88-8.66,19.79-12.07,10.17-8.85,13.08-14.7,16.76-22.31,4.24-8.76,6.75-22.16,6.75-36.85,0-5.37-.86-12.8-2.59-22.29l-13.32,10c.33,15.66-1.03,28.21-4.08,37.65-3.04,9.44-13.99,19.69-32.85,30.73Z"/>
          <g class="cls-30">
            <rect class="cls-21" x="463.63" y="21.02" width="22.08" height="29.53"/>
          </g>
          <path class="cls-17" d="M463.85,31.51l9.02-10.36c3.7,4.49,6.24,7.95,7.63,10.36,1.39,2.41,2.89,5.96,4.5,10.66l-12.13,7.65c-.97-3.97-2.15-7.3-3.53-10-1.38-2.69-3.21-5.47-5.49-8.32Z"/>
          <g>
            <path class="cls-19" d="M460.18,11.07l-6.42,10.09c2.62,2.37,4.56,4.2,5.81,5.49,1.25,1.29,2.68,2.91,4.28,4.87l9.02-10.36c-2.69-2.77-4.76-4.73-6.2-5.88-1.44-1.15-3.61-2.55-6.49-4.21Z"/>
            <g class="cls-26">
              <rect class="cls-42" x="452.75" y="9.96" width="21.13" height="22.67"/>
            </g>
          </g>
          <g class="cls-27">
            <rect class="cls-43" x="1.26" y=".76" width="151.6" height="71.82"/>
          </g>
          <path class="cls-9" d="M2.37,70.04v1.39l12.48-5.12c1.68-15.83,6.26-27.13,13.75-33.88,7.49-6.75,19.95-11.63,37.36-14.63h85.79l-11.17-2.55-4.16-13.34,2.11,13.34h-63.34l-8.31-13.34v13.34c-18.18,2.1-31.56,7.51-40.14,16.23-8.58,8.72-12.88,19.82-12.88,33.3l-11.51,5.27Z"/>
          <path id="Path" class="cls-16" d="M44.51,31.25c-2.51-.78-4.25-1.05-5.22-.81-.97.24-1.46,1.04-1.45,2.43.17,3.3.72,5.47,1.66,6.51.94,1.04,3.02,1.78,6.23,2.22,3.36.98,5.6,1.4,6.74,1.27,1.13-.13,2.13-.93,2.99-2.4-.71-2.65-1.7-4.51-2.98-5.59-1.28-1.08-3.93-2.29-7.97-3.63Z"/>
          <path id="Path-2" data-name="Path" class="cls-16" d="M38.11,56.9c-.3-1.67-.8-2.69-1.51-3.05-.71-.37-1.82-.18-3.33.55-3.55,1.83-5.68,3.25-6.39,4.27-.71,1.02-.57,2.46.43,4.3.47,2.2,1.03,3.56,1.7,4.06.67.5,2,.58,4.01.23,2.58-1.75,4.17-3.24,4.77-4.45s.7-3.18.33-5.92Z"/>
          <path id="Path-3" data-name="Path" class="cls-16" d="M45.22,56.49c-1.27-.44-2.2-.26-2.81.54-.61.8-1.06,2.46-1.36,4.96-.62,5.92-.78,9.64-.47,11.16.31,1.52,1.34,2.06,3.08,1.62,1.71.48,2.9.38,3.58-.3.68-.68,1.42-2.51,2.23-5.5.17-4.53.01-7.52-.48-8.97-.5-1.46-1.75-2.62-3.77-3.5Z"/>
          <path class="cls-14" d="M409.21,120.94c.45,1.54,2.64,6.84,2.67,7.23.11,1.65-2.16,1.17-1.62,2.45.31.74,7.57,2.85,8.83,2.35.43.39-.06,1.33-.04,1.57.03.36.11.87.09,1.22.92.32,1.75.79,2.74.84-1.41-4.28,1.95-6.85,3.78-9.78.45-.71.53-.48.24-1.54-6.86,4.13-11.59,3.03-15.19-5.34l-5.07-10.54-17.76-9.06,14.78,10.55,6.55,10.06Z"/>
          <path class="cls-14" d="M64.68,109.48c-.64.6-2.99,11.28-3.52,13.05-.7,2.38-4.07,7.55-2.9,10.14-5.11,1.26-11.94,3.29-17.08,3.35-.63,0-2.3-.73-2.42-.74l.17-.36c3.03-1.99,5.51-7.17,8.09-9.38,2.17-1.86,5.04-1.24,6.73-2.46,1.78-1.28,9.29-12.74,10.08-15.15,7.05.61,14.01-2.39,20.93-7.74-6.12,6.88-12.87,9.61-20.09,9.28Z"/>
        </g>
      </g>
      <path class="cls-10" d="M45.64,1.91C16.71,16.26,2.24,40.65,2.24,75.07s14.46,58.81,43.39,73.16h269.51l6.93-4.35,25.83,4.35h95.36c32.12-11.99,48.17-35.93,48.17-71.81S475.37,15.7,443.26,1.91h-64.52l-11.6,2.7-5.65-2.7h-208.11l-4.2,4.83-12.02-4.83H45.64Z"/>
    </g>
  </g>
</svg>