<?xml version="1.0" encoding="UTF-8"?>
<svg width="80.1" height="90.8" id="Layer_2" data-name="Layer 2" xmlns="http://www.w3.org/2000/svg" viewBox="0 0 277.34 314.41">
  <defs>
    <style>
      .cls-1 {
        fill: #a5a5a3;
        stroke: #898989;
        stroke-width: 3.89px;
      }

      .cls-1, .cls-2 {
        stroke-miterlimit: 10;
      }

      .cls-3, .cls-2 {
        fill: #655f0d;
      }

      .cls-2 {
        stroke: #4f480b;
        stroke-width: 2.1px;
      }

      .cls-4 {
        fill: #787709;
      }

      .cls-5 {
        fill: #f8fbfe;
      }

      .cls-6 {
        fill: #4d4314;
      }

      .cls-7 {
        fill: #7e7b86;
      }

      .cls-8 {
        fill: #706e7a;
      }

      .cls-9 {
        fill: #e5e1df;
      }

      .cls-10 {
        fill: #bab5bc;
      }

      .cls-11 {
        fill: #5c5968;
      }
    </style>
  </defs>
  <g id="tiles">
    <g>
      <rect class="cls-1" x="2.88" y="39.95" width="272.52" height="272.52" rx="18.13" ry="18.13"/>
      <path class="cls-9" d="M254.81,288.96c-59.49-9.61-115.67,22.77-219.69,0-5.76,0-10.43-4.67-10.43-10.43-3.54-84.69,13.05-177.61,0-219.69,0-5.76,4.67-10.43,10.43-10.43h86.28c15.07,5.85,27.62,17.22,39.3,30.51l-15.73-30.51h93.28c14.91,0,26.99,12.08,26.99,26.99v203.13c0,5.76-4.67,10.43-10.43,10.43Z"/>
      <path class="cls-7" d="M68.32,278.93c4.84,5.46-2.76,18.92-2.07,22.05.09.41-.04.94,0,1.38-.81.79-1.49,1.16-2.07,2.41.93,1.55,12.46-8.79,14.82-9.99,13.39-6.85,45.86-7.38,54.44,7.58l7.92-13.09c-.47,5.9-7.69,11.41-6.89,17.23-10.85,11.58-15.04,5.62-27.22,5.51-12.2-.11-23.46.92-35.83,0-2.94-.22-9-3.39-9.65-3.45-5.46-.48-30.24,3.01-32.73,2.07l2.76-9.65c.55-.88.8-1.25,1.38-2.07,1.15,1.78,1.7.93,3.1,0,6.28-4.15,22.16-20.15,28.25-21.36,3.29-.65,3.59,1.37,3.79,1.38Z"/>
      <path class="cls-7" d="M259.89,300.97c-11.45,3.06-45.26,5.11-58.23,5.51-2.52.08-5.06-.06-7.58,0-.96-.84.16-1.27.34-2.07,5.71-1.8,9.93-6.37,15.16-8.96,18.37-9.09,35.7-8.25,55.47-10.34,1.56-.16,5.81-.49,6.55-2.07,1.42.2,2.32.24,3.79,0-3.76,6.05-8.29,15.99-15.5,17.92Z"/>
      <path class="cls-7" d="M12.15,154.6c-1.45,3.67-2.86,7.46-4.13,10.68-1.35,3.39-1.84,7.34-3.45,10.68-.38-.25-1.82,2.61-2.76-2.41-3.42-18.23,1.28-38.11-.69-56.51.16-.74,6-8.47,6.89-9.3.51-.48,1.46-.97,2.07-1.38l-1.03,44.1,3.79-42.38c1.96,2.06,14.15,10.07,14.47,11.71.62,3.16-17.73,27.39-15.16,34.8Z"/>
      <path class="cls-11" d="M212.34,241.71c.78,1.42,4.25,19.31,4.82,22.4.77,4.15-.75,15.01,3.45,17.57-7.82,6.96-18,16.78-26.87,22.05-1.09.64-4.6,1.26-4.82,1.38v-.69c3.61-5.93,3.57-15.91,6.2-21.71,2.21-4.88,7.73-6.87,9.65-10.34,2.02-3.65,5.47-27.77,4.82-32.04.55.35,2.65,1.18,2.76,1.38Z"/>
      <path class="cls-7" d="M155.84,290.65c9.02-1.32,28.09,1.14,26.53,13.78l5.86-2.76h.69v.69c-17.84,9.22-30.89,12.09-50.99,6.55,2.56-6.33,2.74-9.94,8.27-14.13,2.53-1.92,6.38-3.66,9.65-4.13Z"/>
      <path class="cls-7" d="M25.6,214.16l-2.07-.69c-.08-5.14-6.03-16.84-8.27-22.74,6.81-14.82,3.41-33.35,7.58-49.27-4.7,10.32-15.85,25.19-13.09,36.18-2.76-.94-3.39,3.52-3.45,5.51-2.07-3.01-.37-4.17-3.45-6.2,1.61-3.34,2.1-7.29,3.45-10.68,1.28-3.22,2.69-7.01,4.13-10.68,4.72-11.98,10.48-23.33,18.61-33.42-4.32,30.69-3.46,61.16-3.45,91.99Z"/>
      <circle class="cls-10" cx="36.39" cy="166.09" r="22.46"/>
      <path class="cls-11" d="M44.21,104.59l.69,4.13c-3.12,1.1-14.84,3.68-15.5,4.13-2.77,1.9,1.47,5.59-1.38,6.2-1.64.35-16.1-10.75-17.23-13.78-1.27-.31-2.01,1.8-2.41,2.07-.61.41-1.55.9-2.07,1.38-1.92-1.33-3.93-2.33-5.51-4.13,8.91-2.77,7.83-12.43,9.65-19.64.44-1.76-.06-1.61,2.07-2.41,3.98,18.29,12.98,25.88,31.7,22.05Z"/>
      <path class="cls-11" d="M9.75,177.64c1.12,4.48,3.88,8.79,5.51,13.09,2.24,5.9,8.19,17.6,8.27,22.74.01.72-2.42.75,0,3.1l-2.07-.34c-1.02-2.71-7.38-6.48-8.96-9.99-.72-1.6-5.14-18.09-5.51-20.33-.15-.9-.69-2.61-.69-2.76.05-2,.69-6.45,3.45-5.51Z"/>
      <g>
        <path class="cls-7" d="M5.62,185.91c2.57,5.73,2.59,14.18,4.82,19.64,2.25,5.5,9.63,9.13,10.34,13.09,1.67,9.38-7.32,25.52-4.82,35.49-1.84,9.81-4.25,21.04-4.13,30.66,1.55-6.53,1.91-13.47,3.45-19.98,2.7-11.45,9.85-28.12,11.03-38.93,1.66,9.2,1.68,18.64,2.76,27.91.58,4.99,4.36,12.41,3.45,17.23-.58,3.04-14.26,19.87-15.85,24.81,6.55-1.44,8.07-10.25,11.03-14.47.96-1.37,7.96-10.48,8.61-10.68,8.64-.26,17.24.31,25.84.69-.3,1.19-1.74,1.61-2.76,2.07-13.43.8-24.68,13.95-29.63,25.5-5.72,5.09-14.03,5.91-21.36,5.17-.61-26.08-5.59-53.64-.69-79.24l-1.38-.69C.92,240.02.12,207.56.11,204.17c-.02-3.47-1.29-20.74,5.51-18.26Z"/>
        <path class="cls-9" d="M7,185.91c.37,2.24,4.79,18.73,5.51,20.33,1.58,3.52,7.94,7.28,8.96,9.99,3.01,8.01-3.79,28.71-5.51,37.9-2.5-9.97,6.5-26.11,4.82-35.49-.71-3.96-8.08-7.6-10.34-13.09-2.24-5.46-2.25-13.91-4.82-19.64.3.11.94-.06,1.38,0Z"/>
        <path class="cls-5" d="M59.37,273.42c-4.2,1.89-6.45,2.85-10.34,5.51-10.15,6.95-12.01,13.5-19.29,19.98,4.95-11.54,16.2-24.7,29.63-25.5Z"/>
        <path class="cls-11" d="M10.79,285.82c1.66,1.15-.12,10.67-1.38,10.34l1.38-10.34Z"/>
      </g>
      <path class="cls-8" d="M86.93,281.69c-8.33,3-14.32,13.5-20.67,19.29-.69-3.13,6.91-16.59,2.07-22.05,5.25.16,10.97.13,16.19.69,1.86.2,2.73-.7,2.41,2.07Z"/>
      <path class="cls-8" d="M192.36,285.82c-1.28,5.3-3.05,10.5-4.13,15.85l-5.86,2.76c1.56-12.64-17.51-15.1-26.53-13.78,11.17-3.92,24.82-8.13,36.52-4.82Z"/>
      <path class="cls-7" d="M15.27,190.73c-1.63-4.3-4.39-8.61-5.51-13.09-2.76-10.98,8.39-25.86,13.09-36.18-4.17,15.92-.77,34.45-7.58,49.27Z"/>
      <path class="cls-10" d="M215.38,55.13c1.1-.05,4.09.29,4.65.93,1.6,1.83-18.16,37.63-15.82,45.59-12.43-13.19-28.77-5.72-44.19-10.7-7.19-8.06,28.41-8.06,32.1-9.77,8.63-4,10.74-25.46,23.26-26.05Z"/>
      <path class="cls-10" d="M84.27,255.89c.47.99,1.32,3.88.95,4.65-1.07,2.18-41.73-2.12-48.15,3.14,7.33-16.58-5.91-28.74-7.31-44.88,4.64-9.76,18.46,23.05,21.47,25.78,7.03,6.4,27.63,0,33.04,11.31Z"/>
      <circle class="cls-10" cx="93.99" cy="148.43" r="8.73"/>
      <circle class="cls-10" cx="47.7" cy="75.04" r="8.73"/>
      <path class="cls-10" d="M245.32,255.1c-.1,20.58-13.02,26.99-28.98,35.24l28.98-35.24Z"/>
      <path class="cls-10" d="M170.72,94.21c6.89,1.38,17.98-1.56,22.79,4.19,3.13,3.73,10.64,33.49,4.19,33.96-5.57-8.1-3.72-27.23-12.1-32.56-3.92-2.49-12.13-1.36-14.89-5.58Z"/>
      <path class="cls-5" d="M252.66,71.81c1.29.26,3.7-.38,4.65,0,4.03,1.6,4.66,37.06,5.58,43.73-2.85-3.62-5.3-10.98-6.05-15.35-1.53-8.99,2.12-23.04-5.58-26.98l1.4-1.4Z"/>
      <path class="cls-10" d="M220.96,153.76c7.96,1.2,16.2,9.52,22.33.93,4.82,16.82-14.95,2.55-22.33-.93Z"/>
      <g>
        <path class="cls-2" d="M124.49,32.27c-.06.43-2.7,4.75-3.34,7.09-.33,1.23-2.71,10.42-.84,11.26-4.11,1.35-6.53,5.27-8.76,5.85-4.12,1.04-9.99-1.52-13.35-.84-.31.06-2.73,2.93-4.17,3.33-9.93,2.74-8.11-4.21-12.52-6.67-2.93-1.64-9.21-.81-12.52-3.34-.43-.33-.56-4.84-2.51-5-2.28-.19-2.04,4.9-5.84,5.84-4.13,1.02-7.73-1.79-9.18-1.67-1.94.16-5.71,3.97-11.68,2.51-3.25-.8-5.17-5.82-6.67-6.67-2.8-1.6-6.54-1.99-10.01-4.18-1.96-1.22-5.07-6.07-6.26-6.67.05-.39,1.57-1.61,1.67-1.67,1.99-1.04,3.67-.37,5.01-2.09l-5.43-6.25h25.87l-1.67-8.34c5.92.44,19.83,11.71,24.19,10.01,3.26-2.75-5.54-6.58.42-5.43-.56-2.1-1.71-4-1.66-6.25l-2.92-11.68c4.91,1.1,9.73,3,14.59,4.18,3.78.9,7.77,1.52,11.26,3.33l.83-6.67c4.93,3.3,15.4,11.79,16.69,2.51,2.23,1.61,7.28,11.99,8.34,12.51.86.43,4.22-.43,5,0,5.58,3.02,6.27,9.05,5.43,15.02Z"/>
        <path class="cls-6" d="M76.94,5.57v.83c-1.02-.07-3.63-.28-4.17.42-1.32,3.68,2.89,3.56,4.17,5.42.53.77,3.48,5.08,2.09,5.84-1.73-1.53-5.56-2.75-7.09-4.17-1.47-1.36-6.36-14.96-6.67-.83l-2.92-11.68c4.92,1.1,9.74,3.01,14.6,4.17Z"/>
        <path class="cls-4" d="M109.48,13.08c1.38,1.6,8.47,13.77,8.34,14.6-.19,1.24-5.95,4.27-5.84,5.01.03.21,3.42,1.65,3.34,2.5-.11,1.15-9.31,4.29-9.18,5.84.08,1,3.76,1.42,3.34,3.34-.97,4.37-16.09,1.85-19.61.42-.81-.33-14.48-8.73-14.6-9.59-.28-1.97,2.95-.79,3.34-2.5.05-.22-1.68-1.4-1.67-1.67.6-10.43-2.46-7.99-6.26-15.43-.77-1.5-1-3.21,1.25-1.67,1.53,1.42,5.36,2.65,7.09,4.17,1.4-.76-1.55-5.07-2.09-5.84,4.41-2.94,16.5,10.06,19.19,3.75.11-.25-3.88-2.76.42-3.75.83,1.51,8.61,6.66,9.18,6.67,1.16.02,1.55-4.38,5.42-2.09-1.21-.87-1.24-2.65-1.67-3.75Z"/>
        <path class="cls-3" d="M76.94,6.41c1.83.13,13.03,5.02,13.77,5.01,3.15-.06,2.14-3.9,4.17-4.17.55-.07,8.35,5.56,10.01,5.01,1.88-.62,1.16-7.96,4.59.83.43,1.1.46,2.89,1.67,3.75-3.87-2.3-4.26,2.11-5.42,2.09-.57-.01-8.35-5.16-9.18-6.67-4.3.99-.31,3.5-.42,3.75-2.69,6.31-14.78-6.69-19.19-3.75-1.28-1.86-5.5-1.75-4.17-5.42.54-.7,3.16-.49,4.17-.42Z"/>
        <path class="cls-4" d="M32.39,26.43c.84-.73,18.45,4.79,20.02,8.34l-.42-4.59c.74-3.72,8.79,3.28,8.34,4.17-5.13,1.92-7.53,7.38-13.77,7.09l.83-5.01c-5.44,4.64-12.26,1.82-17.94-1.25,1.23-1.45,2.57-8.46,2.92-8.76Z"/>
      </g>
      <g>
        <path class="cls-2" d="M232.42,9.07c-.78,3.59,1.67,3.88,1.87,4.63,1.41,5.26.98,10.09-1.18,15.09l13.26-.59-2.07,5.05,11.13.89-2.76,6.14c-2.91.47-6.77,2.83-9.25,4.47-1.55.39-6.61,1.53-7.49,2.27-1.48,1.25-1.85,7.04-7.03,8.02-8.3,1.56-4.44-5.04-12.6-2.66-2.05.6-6.8,3.41-8.91,3.02-1.92-.36-3.78-6.15-5.52-8.51-1.78-2.41-4.19-.19-4.39-4.95-.01-.21-.06-.52-.01-.72-1.22-1.13-2.45-2.35-3.64-3.52-.8-.79-7.8-7.5-7.32-8.12,2.29-1.62,12.49,1.41,13.63-.23.58-.84.34-17.08,3.6-19.79l6.72,14.94c.78-1.98,9.49-8.87,10.6-8.79,2.58.2-1.09,4.57,1.52,5,.75.12,7.81-10.68,9.84-11.65Z"/>
        <path class="cls-4" d="M202.42,42.33c0-.22-.06-.52-.01-.72.16-.64.81-2.44,1.76-2.18l2.21,3.55,1.79-.39c-8.6-11.82.01-5.95.82-14.72,2.56-.84,2.49,3.19,4.35,2.79.6-.13,5.96-6.02,6.35-5.85,1.4.59-.4,2.42-.32,2.52,3.15,3.57,5.01-3.41,8.93-1.95,5.23,1.95-5.82,7.44-4.87,8.69,18.49-1.08,6.16,3.95,6.2,5.99.03,1.61,6.59,3.5-5.3,4.75l1.35-5.04c-2.36,3.48-5.3,2.7-8.91,3.38,9.78,6.49-12.3,2.91-14.36-.83Z"/>
      </g>
      <path class="cls-10" d="M267.76,166.09l7.64,15.47-10.16,26.07c-18.09-8.96-36.75-21.22-55.64-34.81-8.84,11.89-37.51,21.04-61.77,30.8,29.91-15.83,61.25-32.02,60.03-40.11,26.65,15.55,54.78,34.37,59.9,2.58Z"/>
    </g>
  </g>
</svg>