<?xml version="1.0" encoding="UTF-8"?>
<svg id="Layer_2" data-name="Layer 2" xmlns="http://www.w3.org/2000/svg" xmlns:xlink="http://www.w3.org/1999/xlink" viewBox="0 0 306.5 74.44">
  <defs>
    <style>
      .cls-1 {
        opacity: .17;
      }

      .cls-1, .cls-2, .cls-3, .cls-4 {
        fill: none;
      }

      .cls-1, .cls-2, .cls-4 {
        stroke-miterlimit: 10;
      }

      .cls-1, .cls-4 {
        stroke: #979797;
        stroke-width: .26px;
      }

      .cls-5, .cls-6, .cls-7, .cls-3, .cls-8, .cls-9, .cls-10 {
        clip-rule: evenodd;
      }

      .cls-5, .cls-11 {
        fill: #e5e3e1;
      }

      .cls-12 {
        fill: #a19898;
      }

      .cls-6, .cls-13, .cls-14 {
        fill: #635d68;
      }

      .cls-15, .cls-7, .cls-16 {
        fill: #bcb7bb;
      }

      .cls-15, .cls-17, .cls-11, .cls-18, .cls-19, .cls-14 {
        fill-rule: evenodd;
      }

      .cls-20 {
        fill: #8f8083;
      }

      .cls-17, .cls-21, .cls-9 {
        fill: #837e86;
      }

      .cls-22 {
        fill: #cec3c1;
      }

      .cls-23 {
        fill: #a39897;
      }

      .cls-24 {
        clip-path: url(#clippath-17);
      }

      .cls-25 {
        clip-path: url(#clippath-11);
      }

      .cls-26 {
        clip-path: url(#clippath-18);
      }

      .cls-27 {
        clip-path: url(#clippath-10);
      }

      .cls-28 {
        clip-path: url(#clippath-15);
      }

      .cls-29 {
        clip-path: url(#clippath-13);
      }

      .cls-30 {
        clip-path: url(#clippath-12);
      }

      .cls-31 {
        clip-path: url(#clippath-1);
      }

      .cls-32 {
        clip-path: url(#clippath-3);
      }

      .cls-33 {
        clip-path: url(#clippath-4);
      }

      .cls-34 {
        clip-path: url(#clippath-2);
      }

      .cls-35 {
        clip-path: url(#clippath-7);
      }

      .cls-36 {
        clip-path: url(#clippath-6);
      }

      .cls-37 {
        clip-path: url(#clippath-9);
      }

      .cls-38 {
        clip-path: url(#clippath-8);
      }

      .cls-39 {
        clip-path: url(#clippath-5);
      }

      .cls-2 {
        stroke: #999;
        stroke-width: 2.07px;
      }

      .cls-40 {
        fill: #b4a7a6;
      }

      .cls-41, .cls-18, .cls-10 {
        fill: #d9dadb;
      }

      .cls-42 {
        fill: #d1c7c6;
      }

      .cls-43, .cls-8, .cls-19 {
        fill: #4a4351;
      }

      .cls-4 {
        opacity: .17;
      }

      .cls-44 {
        fill: #4b4b4b;
      }

      .cls-45 {
        clip-path: url(#clippath);
      }
    </style>
    <clipPath id="clippath">
      <path class="cls-5" d="M28.04,3.92C10.04,10.73,1.04,22.31,1.04,38.66s9,27.93,27.01,34.74h167.72l4.31-2.06,16.08,2.06h59.34c19.99-5.7,29.98-17.06,29.98-34.1s-9.99-28.84-29.98-35.39h-40.15l-7.22,1.28-3.51-1.28H95.09l-2.61,2.3-7.48-2.3H28.04Z"/>
    </clipPath>
    <clipPath id="clippath-1">
      <polygon class="cls-7" points="41.81 3.79 46.98 11.85 86.39 11.85 85.08 3.79 41.81 3.79"/>
    </clipPath>
    <clipPath id="clippath-2">
      <polygon class="cls-3" points="85.08 3.79 87.66 11.85 94.61 13.06 92.56 6.09 85.08 3.79"/>
    </clipPath>
    <clipPath id="clippath-3">
      <polygon class="cls-3" points="95.17 3.79 99.19 11.85 220.18 11.85 224.62 3.79 95.17 3.79"/>
    </clipPath>
    <clipPath id="clippath-4">
      <polygon class="cls-3" points="224.62 3.79 220.18 11.85 223.22 13.48 228.14 5.08 224.62 3.79"/>
    </clipPath>
    <clipPath id="clippath-5">
      <path class="cls-7" d="M235.36,3.79l-4.02,8.06h40.81c3.69,0,6.55.54,8.6,1.63l5.01-5.42c-2.13-.96-3.8-1.69-5.01-2.2-1.22-.51-2.96-1.2-5.22-2.08h-40.17Z"/>
    </clipPath>
    <clipPath id="clippath-6">
      <path class="cls-7" d="M41.81,3.79v8.05c-11.9,1.52-20.23,4.78-24.98,9.79-4.75,5.01-7.53,11.63-8.33,19.87l-7,3.4c-.49-5.02-.63-8.6-.41-10.73.6-5.87,3.22-10.75,5.32-14.62,3.25-5.98,10.48-11.23,21.69-15.76h13.71Z"/>
    </clipPath>
    <clipPath id="clippath-7">
      <path class="cls-9" d="M1.65,45.75l7.77-3.09c.91,3.6,2.81,7.13,5.7,10.58,2.89,3.46,6.18,6.13,9.85,8.01l-5.58,8.06c-6.17-4.34-10.24-7.83-12.23-10.46-1.98-2.63-3.82-7-5.52-13.1Z"/>
    </clipPath>
    <clipPath id="clippath-8">
      <path class="cls-6" d="M24.97,61.25l-5.57,8.06c1.99,1.17,3.6,2.03,4.83,2.6,1.23.56,2.52,1.03,3.87,1.38h167.67l-4-7.88H35.84c-2.52-.51-4.41-1.01-5.68-1.5-1.27-.49-3-1.37-5.19-2.66Z"/>
    </clipPath>
    <clipPath id="clippath-9">
      <polygon class="cls-8" points="191.77 65.4 197.65 63.73 200.08 71.22 195.77 73.28 191.77 65.4"/>
    </clipPath>
    <clipPath id="clippath-10">
      <polygon class="cls-9" points="197.65 63.73 200.08 71.22 217.34 73.28 214.49 65.18 197.65 63.73"/>
    </clipPath>
    <clipPath id="clippath-11">
      <polygon class="cls-6" points="214.49 65.18 217.34 73.28 275.52 73.28 278.56 72.37 272.63 65.18 214.49 65.18"/>
    </clipPath>
    <clipPath id="clippath-12">
      <path class="cls-9" d="M272.63,65.18l5.93,7.19c5.77-2.2,9.88-4.11,12.32-5.73,6.33-4.2,8.14-6.98,10.43-10.59,2.64-4.16,4.2-10.52,4.2-17.5,0-2.55-.54-6.08-1.61-10.59l-8.29,4.75c.2,7.44-.64,13.4-2.54,17.88-1.89,4.48-8.71,9.35-20.44,14.6Z"/>
    </clipPath>
    <clipPath id="clippath-13">
      <path class="cls-3" d="M289.45,21.33l6.16-6.43c2.53,2.79,4.27,4.93,5.22,6.43.95,1.5,1.97,3.7,3.07,6.62l-8.29,4.75c-.67-2.46-1.47-4.53-2.41-6.21-.94-1.67-2.19-3.4-3.75-5.17Z"/>
    </clipPath>
    <clipPath id="clippath-15">
      <path class="cls-10" d="M286.94,8.64l-4.38,6.26c1.79,1.47,3.11,2.61,3.97,3.41s1.83,1.81,2.93,3.02l6.16-6.43c-1.84-1.72-3.25-2.94-4.23-3.65-.98-.71-2.46-1.58-4.44-2.61Z"/>
    </clipPath>
    <clipPath id="clippath-17">
      <path class="cls-3" d="M1.65,44.9v.84l7.77-3.09c1.04-9.55,3.9-16.37,8.56-20.44,4.66-4.07,12.41-7.02,23.25-8.83h53.39l-6.95-1.54-2.59-8.05,1.31,8.05h-39.42l-5.17-8.05v8.05c-11.31,1.27-19.64,4.53-24.98,9.79-5.34,5.26-8.01,11.96-8.01,20.09l-7.16,3.18Z"/>
    </clipPath>
    <clipPath id="clippath-18">
      <path class="cls-3" d="M267.28,11.84c6.29.23,11.49,2.03,15.61,5.4,4.56,3.73,8.77,8.18,10.68,13.72,1.25,3.63,1.22,8.48.64,11.27-1.36,6.56-6.43,14.16-14.93,18.55-3.28,1.69-9.34,3.15-18.2,4.39h11.55c9.84-4.49,16.05-8.47,18.61-11.93.56-.75,1.4-1.81,1.84-2.67.92-1.83,1.22-3.58,1.77-5.48,2.57-8.93.78-16.85-5.39-23.77-1.66-1.73-2.89-2.96-3.7-3.71-.81-.74-1.87-1.62-3.2-2.64l4.38-6.35-1.19-.57-5.01,5.41c-1.72-.67-3.06-1.1-4.04-1.29-.97-.18-4.11-.3-9.43-.35Z"/>
    </clipPath>
  </defs>
  <g id="Layer_9" data-name="Layer 9">
    <g>
      <g>
        <g>
          <path class="cls-11" d="M28.04,3.92C10.04,10.73,1.04,22.31,1.04,38.66s9,27.93,27.01,34.74h167.72l4.31-2.06,16.08,2.06h59.34c19.99-5.7,29.98-17.06,29.98-34.1s-9.99-28.84-29.98-35.39h-40.15l-7.22,1.28-3.51-1.28H95.09l-2.61,2.3-7.48-2.3H28.04Z"/>
          <g class="cls-45">
            <path class="cls-18" d="M64.3.48c-.91.3-1.65.58-2.22.83-.1.04-.18.09-.27.13-.02.01-.04.02-.06.04-.8.44-1.57.98-2.27,1.61h-.01c1.12-1.19,2.73-2.05,4.85-2.6Z"/>
            <path class="cls-15" d="M65.88,0l-.03.15c-.55.09-1.06.2-1.55.33.48-.15,1.01-.32,1.58-.48Z"/>
            <g>
              <polygon class="cls-15" points="41.81 3.79 46.98 11.85 86.39 11.85 85.08 3.79 41.81 3.79"/>
              <g class="cls-31">
                <rect class="cls-16" x="41.12" y="3.1" width="45.97" height="9.44"/>
              </g>
            </g>
            <polygon class="cls-4" points="41.81 3.79 46.98 11.85 86.39 11.85 85.08 3.79 41.81 3.79"/>
            <g class="cls-34">
              <rect class="cls-23" x="84.39" y="3.1" width="10.92" height="10.65"/>
            </g>
            <polygon class="cls-21" points="85.08 3.79 87.66 11.85 94.61 13.06 92.56 6.09 85.08 3.79"/>
            <g class="cls-32">
              <rect class="cls-40" x="94.48" y="3.1" width="130.83" height="9.44"/>
            </g>
            <polygon class="cls-16" points="95.17 3.79 99.19 11.85 220.18 11.85 224.62 3.79 95.17 3.79"/>
            <g class="cls-33">
              <rect class="cls-12" x="219.49" y="3.1" width="9.34" height="11.07"/>
            </g>
            <polygon class="cls-21" points="224.62 3.79 220.18 11.85 223.22 13.48 228.14 5.08 224.62 3.79"/>
            <g>
              <path class="cls-15" d="M235.36,3.79l-4.02,8.06h40.81c3.69,0,6.55.54,8.6,1.63l5.01-5.42c-2.13-.96-3.8-1.69-5.01-2.2-1.22-.51-2.96-1.2-5.22-2.08h-40.17Z"/>
              <g class="cls-39">
                <rect class="cls-16" x="230.64" y="3.1" width="55.8" height="11.07"/>
              </g>
            </g>
            <path class="cls-4" d="M235.36,3.79l-4.02,8.06h40.81c3.69,0,6.55.54,8.6,1.63l5.01-5.42c-2.13-.96-3.8-1.69-5.01-2.2-1.22-.51-2.96-1.2-5.22-2.08h-40.17Z"/>
            <g>
              <path class="cls-15" d="M41.81,3.79v8.05c-11.9,1.52-20.23,4.78-24.98,9.79-4.75,5.01-7.53,11.63-8.33,19.87l-7,3.4c-.49-5.02-.63-8.6-.41-10.73.6-5.87,3.22-10.75,5.32-14.62,3.25-5.98,10.48-11.23,21.69-15.76h13.71Z"/>
              <g class="cls-36">
                <rect class="cls-16" x=".18" y="3.1" width="42.32" height="42.49"/>
              </g>
            </g>
            <path class="cls-4" d="M41.81,3.79v8.05c-11.9,1.52-20.23,4.78-24.98,9.79-4.75,5.01-7.53,11.63-8.33,19.87l-7,3.4c-.49-5.02-.63-8.6-.41-10.73.6-5.87,3.22-10.75,5.32-14.62,3.25-5.98,10.48-11.23,21.69-15.76h13.71Z"/>
            <g>
              <path class="cls-17" d="M1.65,45.75l7.77-3.09c.91,3.6,2.81,7.13,5.7,10.58,2.89,3.46,6.18,6.13,9.85,8.01l-5.58,8.06c-6.17-4.34-10.24-7.83-12.23-10.46-1.98-2.63-3.82-7-5.52-13.1Z"/>
              <g class="cls-35">
                <rect class="cls-21" x=".96" y="41.96" width="24.7" height="28.03"/>
              </g>
            </g>
            <path class="cls-4" d="M1.65,45.75l7.77-3.09c.91,3.6,2.81,7.13,5.7,10.58,2.89,3.46,6.18,6.13,9.85,8.01l-5.58,8.06c-6.17-4.34-10.24-7.83-12.23-10.46-1.98-2.63-3.82-7-5.52-13.1Z"/>
            <g>
              <path class="cls-14" d="M24.97,61.25l-5.57,8.06c1.99,1.17,3.6,2.03,4.83,2.6,1.23.56,2.52,1.03,3.87,1.38h167.67l-4-7.88H35.84c-2.52-.51-4.41-1.01-5.68-1.5-1.27-.49-3-1.37-5.19-2.66Z"/>
              <g class="cls-38">
                <rect class="cls-13" x="18.7" y="60.56" width="177.76" height="13.42"/>
              </g>
            </g>
            <path class="cls-4" d="M24.97,61.25l-5.57,8.06c1.99,1.17,3.6,2.03,4.83,2.6,1.23.56,2.52,1.03,3.87,1.38h167.67l-4-7.88H35.84c-2.52-.51-4.41-1.01-5.68-1.5-1.27-.49-3-1.37-5.19-2.66Z"/>
            <g>
              <polygon class="cls-19" points="191.77 65.4 197.65 63.73 200.08 71.22 195.77 73.28 191.77 65.4"/>
              <g class="cls-37">
                <rect class="cls-43" x="191.08" y="63.04" width="9.69" height="10.93"/>
              </g>
            </g>
            <polygon class="cls-4" points="191.77 65.4 197.65 63.73 200.08 71.22 195.77 73.28 191.77 65.4"/>
            <g>
              <polygon class="cls-17" points="197.65 63.73 200.08 71.22 217.34 73.28 214.49 65.18 197.65 63.73"/>
              <g class="cls-27">
                <rect class="cls-21" x="196.95" y="63.04" width="21.08" height="10.93"/>
              </g>
            </g>
            <polygon class="cls-4" points="197.65 63.73 200.08 71.22 217.34 73.28 214.49 65.18 197.65 63.73"/>
            <g>
              <polygon class="cls-14" points="214.49 65.18 217.34 73.28 275.52 73.28 278.56 72.37 272.63 65.18 214.49 65.18"/>
              <g class="cls-25">
                <rect class="cls-13" x="213.8" y="64.49" width="65.46" height="9.49"/>
              </g>
            </g>
            <polygon class="cls-4" points="214.49 65.18 217.34 73.28 275.52 73.28 278.56 72.37 272.63 65.18 214.49 65.18"/>
            <g>
              <path class="cls-17" d="M272.63,65.18l5.93,7.19c5.77-2.2,9.88-4.11,12.32-5.73,6.33-4.2,8.14-6.98,10.43-10.59,2.64-4.16,4.2-10.52,4.2-17.5,0-2.55-.54-6.08-1.61-10.59l-8.29,4.75c.2,7.44-.64,13.4-2.54,17.88-1.89,4.48-8.71,9.35-20.44,14.6Z"/>
              <g class="cls-30">
                <rect class="cls-21" x="271.94" y="27.27" width="34.26" height="45.8"/>
              </g>
            </g>
            <path class="cls-4" d="M272.63,65.18l5.93,7.19c5.77-2.2,9.88-4.11,12.32-5.73,6.33-4.2,8.14-6.98,10.43-10.59,2.64-4.16,4.2-10.52,4.2-17.5,0-2.55-.54-6.08-1.61-10.59l-8.29,4.75c.2,7.44-.64,13.4-2.54,17.88-1.89,4.48-8.71,9.35-20.44,14.6Z"/>
            <g class="cls-29">
              <rect class="cls-20" x="288.76" y="14.21" width="15.83" height="19.19"/>
            </g>
            <path class="cls-16" d="M289.45,21.33l6.16-6.43c2.53,2.79,4.27,4.93,5.22,6.43.95,1.5,1.97,3.7,3.07,6.62l-8.29,4.75c-.67-2.46-1.47-4.53-2.41-6.21-.94-1.67-2.19-3.4-3.75-5.17Z"/>
            <g>
              <path class="cls-18" d="M286.94,8.64l-4.38,6.26c1.79,1.47,3.11,2.61,3.97,3.41s1.83,1.81,2.93,3.02l6.16-6.43c-1.84-1.72-3.25-2.94-4.23-3.65-.98-.71-2.46-1.58-4.44-2.61Z"/>
              <g class="cls-28">
                <rect class="cls-41" x="281.87" y="7.95" width="14.44" height="14.08"/>
              </g>
            </g>
            <g class="cls-24">
              <rect class="cls-42" x=".96" y="3.1" width="94.34" height="43.33"/>
            </g>
            <path class="cls-1" d="M1.65,44.9v.84l7.77-3.09c1.04-9.55,3.9-16.37,8.56-20.44,4.66-4.07,12.41-7.02,23.25-8.83h53.39l-6.95-1.54-2.59-8.05,1.31,8.05h-39.42l-5.17-8.05v8.05c-11.31,1.27-19.64,4.53-24.98,9.79-5.34,5.26-8.01,11.96-8.01,20.09l-7.16,3.18Z"/>
            <g class="cls-26">
              <rect class="cls-22" x="260.39" y="7.38" width="37.72" height="58.49"/>
            </g>
            <path id="Path" class="cls-15" d="M27.88,21.5c-1.56-.47-2.64-.63-3.25-.49-.61.14-.91.63-.9,1.46.1,1.99.45,3.3,1.03,3.93s1.88,1.07,3.88,1.34c2.09.59,3.49.85,4.19.77.71-.08,1.33-.56,1.86-1.45-.44-1.6-1.06-2.72-1.85-3.37-.79-.65-2.45-1.38-4.96-2.19Z"/>
            <path id="Path-2" data-name="Path" class="cls-15" d="M23.9,29.91c-.19-.79-.5-1.28-.94-1.45-.44-.17-1.13-.09-2.07.26-2.21.87-3.53,1.55-3.97,2.03-.44.48-.35,1.17.26,2.04.29,1.05.64,1.69,1.06,1.93.41.24,1.24.27,2.49.11,1.61-.83,2.6-1.54,2.97-2.11.37-.57.44-1.51.2-2.81Z"/>
            <path id="Path-3" data-name="Path" class="cls-15" d="M28.32,29.72c-.79-.21-1.37-.12-1.75.26-.38.38-.66,1.17-.85,2.35-.39,2.81-.49,4.58-.29,5.3s.83.98,1.92.77c1.06.23,1.81.18,2.23-.14.42-.32.88-1.19,1.39-2.61.11-2.15,0-3.57-.3-4.26s-1.09-1.25-2.34-1.66Z"/>
            <path class="cls-13" d="M254.83,59.17c.28.79,1.65,3.53,1.66,3.74.07.85-1.35.6-1.01,1.27.19.38,4.71,1.48,5.49,1.21.27.2-.03.69-.02.81.02.19.07.45.06.63.57.17,1.09.41,1.7.43-.88-2.21,1.21-3.54,2.35-5.06.28-.37.33-.25.15-.8-4.27,2.14-7.21,1.57-9.45-2.76l-3.15-5.45-11.05-4.68,9.2,5.46,4.08,5.2Z"/>
            <path class="cls-13" d="M40.02,53.54c-.4.31-1.86,5.83-2.19,6.75-.44,1.23-2.53,3.91-1.81,5.24-3.18.65-7.43,1.7-10.63,1.73-.39,0-1.43-.38-1.51-.38l.11-.18c1.89-1.03,3.43-3.71,5.03-4.85,1.35-.96,3.14-.64,4.19-1.27,1.11-.66,5.78-6.59,6.27-7.83,4.38.32,8.72-1.24,13.02-4-3.81,3.56-8.01,4.97-12.5,4.8Z"/>
          </g>
        </g>
        <path class="cls-2" d="M28.04,3.92C10.04,10.73,1.04,22.31,1.04,38.66s9,27.93,27.01,34.74h167.72l4.31-2.06,16.08,2.06h59.34c19.99-5.7,29.98-17.06,29.98-34.1s-9.99-28.84-29.98-35.39h-40.15l-7.22,1.28-3.51-1.28H95.09l-2.61,2.3-7.48-2.3H28.04Z"/>
      </g>
      <g>
        <path class="cls-44" d="M30.41,48.46c-.19.04-.33.04-.43,0-.12-.04-.21-.15-.27-.35s-.12-.34-.16-.46c-.12-.52-.21-1.03-.29-1.54-.08-.51-.16-1.02-.26-1.54-.04-.11-.07-.23-.1-.34-.03-.12-.02-.23.01-.34.04-.1.12-.17.25-.22.12-.05.23-.08.33-.1.15-.04.42-.09.79-.16s.8-.15,1.29-.24c.49-.1,1-.19,1.54-.29.54-.1,1.05-.19,1.54-.27.49-.09.92-.16,1.29-.23.37-.07.64-.12.79-.16,0-.08-.01-.22-.04-.43s-.06-.44-.1-.68c-.04-.24-.07-.46-.1-.68-.03-.21-.04-.34-.04-.4-.12-.1-.23-.18-.35-.24-.11-.07-.24-.13-.37-.19-.15-.06-.44-.16-.85-.32-.41-.15-.86-.31-1.34-.47s-.93-.32-1.35-.46c-.42-.14-.71-.25-.86-.3-.08-.02-.21-.07-.42-.14-.2-.08-.41-.16-.63-.24-.22-.09-.43-.17-.62-.24-.19-.08-.33-.14-.4-.2-.12-.08-.2-.18-.26-.32s-.08-.27-.06-.4c.02-.27.06-.66.12-1.18s.12-1.1.19-1.74c.07-.64.15-1.32.24-2.03s.19-1.38.29-2.01c.1-.63.2-1.2.3-1.7.1-.5.22-.87.33-1.12.08-.23.25-.34.52-.34,1.74,0,3.47.05,5.17.16s3.43.16,5.18.16c.1,0,.2,0,.3-.01.1,0,.21,0,.3.04.08.04.12.12.14.26.02.13.03.25.03.34,0,.12-.01.35-.03.69-.02.34-.04.71-.07,1.09-.03.38-.05.75-.07,1.09-.02.35-.03.58-.03.69,0,.08,0,.15.01.23,0,.08,0,.14-.01.2-.08.21-.26.32-.56.32s-.55,0-.76-.03c-.92-.04-1.84-.09-2.77-.16s-1.85-.12-2.77-.16c-.1.46-.18.92-.26,1.38-.08.46-.15.93-.23,1.41-.02.04,0,.07.07.09.07.02.12.04.16.06,1.09.52,2.21.97,3.35,1.37,1.14.39,2.26.84,3.35,1.34.1.04.18.08.26.13.08.05.14.12.2.22.04.06.06.12.07.2,0,.08.01.15.01.23-.1,1.3-.14,2.6-.14,3.88s.02,2.57.06,3.85c.02.1.02.2.01.3-.01.11-.05.21-.13.3-.08.1-.18.17-.3.22-.12.05-.25.09-.39.13-3.51.77-7.06,1.46-10.67,2.07Z"/>
        <path class="cls-44" d="M52.95,48.15c-.08.02-.2.03-.36.04s-.34.01-.53.01-.37,0-.53-.01c-.16,0-.28-.01-.36-.01-.13,0-.41,0-.83-.01-.42-.01-.87-.02-1.35-.03-.48,0-.92-.02-1.34-.03-.41,0-.69-.01-.82-.01-.11,0-.19-.05-.23-.14-.04-.1-.06-.21-.06-.35.02-.33.06-.89.13-1.68.07-.79.13-1.71.2-2.73.07-1.02.14-2.11.21-3.25.08-1.14.14-2.22.2-3.25.06-1.03.11-1.93.14-2.72.04-.79.06-1.35.06-1.7-.12.02-.35.04-.71.07-.35.03-.73.07-1.12.11-.39.05-.77.09-1.12.12-.35.03-.59.05-.7.07-.1.02-.2.02-.3.01-.11,0-.18-.06-.22-.16-.04-.15-.08-.44-.12-.85-.04-.41-.07-.85-.1-1.31-.03-.46-.05-.9-.07-1.31-.02-.41-.03-.7-.03-.88,0-.12.05-.21.16-.29.1-.08.22-.12.33-.14,2.13-.25,4.25-.45,6.37-.6,2.12-.15,4.25-.33,6.4-.55h.22c.07,0,.14.02.21.06.1.04.15.14.16.32,0,.17.01.32.01.43,0,.15,0,.43.01.82,0,.39.01.82.01,1.27v1.28c0,.4,0,.68-.03.83-.02.1-.08.16-.17.19-.1.03-.19.05-.29.07-.12,0-.34,0-.66.03-.33.02-.68.04-1.05.07-.37.03-.72.05-1.05.07-.33.02-.55.04-.66.06-.04,2.61-.02,5.19.04,7.76.07,2.57.13,5.16.19,7.76,0,.06,0,.12.01.19,0,.07,0,.12-.04.16-.02.1-.1.16-.23.2Z"/>
        <path class="cls-44" d="M61.11,48.64c-.15.06-.32.08-.49.07-.17,0-.34-.02-.52-.04-.15-.02-.42-.05-.81-.1-.38-.05-.79-.11-1.24-.17-.44-.07-.85-.13-1.24-.19-.38-.06-.64-.11-.78-.14-.25-.06-.47-.14-.66-.26-.21-.17-.32-.38-.32-.63.02-.23.07-.45.14-.66.08-.21.16-.42.26-.63.06-.13.14-.37.26-.72.11-.34.24-.73.39-1.16.14-.43.3-.89.46-1.37.16-.48.31-.94.45-1.38.13-.44.25-.83.36-1.16.11-.33.18-.58.22-.73.21-.73.43-1.46.65-2.2.22-.74.46-1.47.73-2.2.06-.17.18-.53.37-1.06.19-.54.39-1.11.59-1.71s.39-1.17.57-1.71c.18-.54.3-.89.36-1.06.08-.25.14-.49.19-.73.05-.24.08-.49.1-.76.02-.1.03-.19.04-.27,0-.09.04-.16.1-.21.08-.08.16-.12.26-.14.1-.02.19-.04.29-.06.65-.04,1.3-.09,1.94-.16.64-.07,1.29-.12,1.94-.16.38-.04.76-.06,1.12-.06s.74-.02,1.12-.06c.06,0,.16,0,.32-.03.15-.02.32-.03.5-.04.18,0,.35-.02.5-.03s.26-.01.32-.01c.21,0,.35.05.43.14.06.06.12.15.17.29.06.13.11.28.16.45.05.16.09.32.13.46.04.14.07.25.09.33.25.92.49,1.84.73,2.77.24.93.46,1.86.68,2.8.25,1.15.54,2.29.86,3.41.33,1.12.6,2.26.83,3.41.08.35.14.69.2,1.02.06.34.13.67.23.99.04.15.12.43.23.83s.24.83.37,1.29c.13.46.26.9.39,1.31.12.41.22.69.27.82.04.1.08.19.11.27.04.09.07.18.09.27.04.17-.03.3-.2.37-.17.08-.36.13-.55.17-.5.08-.99.12-1.47.12s-.97,0-1.47.03c-.11,0-.31.01-.59.04-.28.03-.57.06-.88.1s-.6.08-.88.12c-.28.04-.46.07-.56.09-.12.04-.23.04-.33,0-.11-.04-.18-.11-.21-.2-.06-.19-.12-.56-.2-1.12-.08-.56-.15-1.14-.22-1.77-.07-.62-.13-1.21-.2-1.77-.07-.56-.11-.94-.13-1.15-.15,0-.48,0-.98.01-.5,0-1.03.01-1.58.01s-1.08,0-1.58.01c-.5,0-.82.01-.98.01-.15.73-.27,1.46-.36,2.19s-.2,1.46-.33,2.18c-.04.21-.08.43-.13.65-.05.22-.13.43-.24.62-.04.08-.1.15-.17.21-.08.07-.16.12-.26.16ZM63.47,39.15c.63,0,1.27,0,1.91.01.64,0,1.28,0,1.91-.04-.08-.61-.16-1.22-.26-1.83-.1-.6-.18-1.21-.26-1.83-.04-.36-.07-.73-.09-1.09-.02-.36-.03-.74-.03-1.12-.06.02-.14.04-.26.07-.12.03-.24.05-.37.07-.13.02-.26.04-.37.06-.11.02-.2.03-.26.03-.1,0-.24.02-.42.06-.18.04-.3.09-.36.14-.08.06-.13.21-.16.45-.03.24-.05.41-.07.5-.13.77-.28,1.52-.43,2.27-.15.75-.32,1.5-.49,2.24Z"/>
        <path class="cls-44" d="M80.78,48.06c-.58.04-1.15.07-1.73.1-.58.03-1.16.03-1.75.01h-.49c-.23,0-.39-.05-.49-.14s-.14-.22-.14-.36,0-.29.03-.45c.13-1.61.25-3.21.34-4.8.1-1.59.16-3.19.2-4.8.04-1.55.08-3.09.13-4.61.05-1.52.11-3.05.19-4.59,0-.08,0-.22.01-.43,0-.21.02-.43.04-.66.02-.23.04-.45.06-.65.02-.2.04-.34.06-.42.04-.13.12-.22.23-.27.12-.05.25-.08.4-.09s.32,0,.49.01c.17.02.33.03.46.03,2.01.08,4.01.22,5.99.43s3.99.36,6.02.46c.15.02.31.04.46.06.15.02.31.08.46.17.25.13.38.32.4.55.02.06.03.15.04.29,0,.13.02.28.03.45,0,.16.01.31.01.45v.29c-.02.84-.02,1.67-.01,2.49s.05,1.63.13,2.46c0,.12.02.33.06.63.04.31.08.64.12,1.01.04.36.07.7.1,1.01.03.31.04.52.04.63,0,.34-.11.62-.33.83s-.49.38-.82.52-.68.23-1.06.3c-.38.07-.75.12-1.09.16.1.15.25.43.47.82.22.39.47.85.75,1.37.28.52.58,1.07.89,1.65s.62,1.14.91,1.65c.29.52.54.98.75,1.38s.36.68.46.83c.08.13.16.27.24.4s.11.28.07.43c-.06.21-.24.34-.53.39s-.55.07-.76.07c-.4.02-.8.01-1.21-.01-.4-.03-.8-.03-1.21-.01-.12,0-.29,0-.52.03-.23.02-.47.03-.72.03s-.48,0-.7-.01c-.22,0-.38-.03-.47-.07-.15-.06-.3-.19-.45-.39-.14-.2-.28-.43-.42-.68-.13-.25-.25-.49-.36-.73-.11-.24-.19-.44-.24-.59-.31-.67-.59-1.34-.86-2.01s-.56-1.33-.86-1.98c-.04-.08-.1-.2-.17-.37-.08-.17-.16-.34-.24-.52-.09-.17-.18-.33-.27-.49-.1-.15-.17-.26-.23-.32-.04-.02-.09-.03-.14-.04s-.11-.02-.14-.04c-.06,0-.15,0-.29-.01s-.22,0-.26.01c.02.98.02,1.95,0,2.92-.02.97,0,1.94.09,2.92,0,.12,0,.27.03.46.02.19.03.39.04.6s0,.41-.01.59c-.02.18-.07.32-.14.42s-.2.16-.37.2c-.17.04-.36.06-.58.07s-.42,0-.63,0-.37-.01-.49-.01ZM82.99,32.08c0,.12,0,.35-.01.7,0,.36-.02.73-.03,1.14s-.02.78-.03,1.14-.01.59-.01.7c.13,0,.41,0,.83-.01.42,0,.87-.01,1.34-.01h1.34c.42,0,.7,0,.83-.03,0-.11,0-.33.01-.66,0-.33.01-.68.01-1.05v-1.74c-.15-.02-.43-.04-.83-.06-.4-.02-.84-.03-1.31-.04-.47,0-.91-.02-1.32-.04-.41-.02-.69-.03-.82-.03Z"/>
        <path class="cls-44" d="M104.21,48.15c-.08.02-.2.03-.36.04s-.34.01-.53.01-.37,0-.53-.01c-.16,0-.28-.01-.36-.01-.13,0-.41,0-.83-.01-.42-.01-.87-.02-1.35-.03-.48,0-.92-.02-1.34-.03-.41,0-.69-.01-.82-.01-.11,0-.19-.05-.23-.14-.04-.1-.06-.21-.06-.35.02-.33.06-.89.13-1.68.07-.79.13-1.71.2-2.73.07-1.02.14-2.11.21-3.25.08-1.14.14-2.22.2-3.25.06-1.03.11-1.93.14-2.72.04-.79.06-1.35.06-1.7-.12.02-.35.04-.71.07-.35.03-.73.07-1.12.11-.39.05-.77.09-1.12.12-.35.03-.59.05-.7.07-.1.02-.2.02-.3.01-.11,0-.18-.06-.22-.16-.04-.15-.08-.44-.12-.85-.04-.41-.07-.85-.1-1.31-.03-.46-.05-.9-.07-1.31-.02-.41-.03-.7-.03-.88,0-.12.05-.21.16-.29.1-.08.22-.12.33-.14,2.13-.25,4.25-.45,6.37-.6,2.12-.15,4.25-.33,6.4-.55h.22c.07,0,.14.02.21.06.1.04.15.14.16.32,0,.17.01.32.01.43,0,.15,0,.43.01.82,0,.39.01.82.01,1.27v1.28c0,.4,0,.68-.03.83-.02.1-.08.16-.17.19-.1.03-.19.05-.29.07-.12,0-.34,0-.66.03-.33.02-.68.04-1.05.07-.37.03-.72.05-1.05.07-.33.02-.55.04-.66.06-.04,2.61-.02,5.19.04,7.76.07,2.57.13,5.16.19,7.76,0,.06,0,.12.01.19,0,.07,0,.12-.04.16-.02.1-.1.16-.23.2Z"/>
        <path class="cls-44" d="M127.18,48.06c-.17,0-.46.01-.85.04-.39.03-.84.06-1.35.09-.51.03-1.04.05-1.6.07-.56.02-1.09.04-1.6.07-.51.03-.96.05-1.35.06s-.68,0-.85-.01c-.08,0-.2,0-.37-.03-.17-.02-.29-.05-.34-.09-.06-.04-.09-.09-.1-.16,0-.07-.02-.14-.04-.22-.04-.46-.09-1.24-.14-2.33-.06-1.09-.12-2.35-.2-3.77-.08-1.42-.15-2.91-.23-4.49-.08-1.57-.15-3.07-.22-4.49-.07-1.42-.12-2.67-.17-3.77-.05-1.09-.07-1.87-.07-2.33,0-.1.03-.18.1-.24.07-.07.15-.09.24-.07,1.21.04,2.42.11,3.62.22,1.21.11,2.42.26,3.62.47.98.15,1.94.34,2.89.58.95.23,1.88.52,2.8.86.08.04.16.11.26.22.1.11.19.22.27.34.09.12.16.25.23.37.07.12.12.22.16.3.25.44.48.89.69,1.34.21.45.44.9.69,1.34.04.08.07.21.1.4.03.19.04.33.04.43-.02.13-.03.37-.03.71s0,.71-.01,1.14c0,.42-.02.88-.03,1.37,0,.49-.02.94-.03,1.37,0,.42-.02.8-.03,1.14,0,.34-.01.57-.01.7v.53c0,.26,0,.53-.01.82,0,.29-.02.56-.03.8,0,.25-.02.42-.04.52-.02.06-.05.14-.1.25s-.11.21-.17.33-.13.23-.19.33-.1.19-.12.24c-.27.48-.55.96-.83,1.44-.29.48-.57.96-.83,1.44-.04.06-.1.15-.17.29-.08.13-.15.26-.23.39-.08.12-.16.24-.24.36s-.16.18-.22.2c-.11.06-.31.11-.58.16s-.55.09-.85.13c-.3.04-.58.07-.86.09-.28.02-.48.04-.62.06ZM122.84,31.96c.15,1.74.27,3.49.36,5.23.09,1.74.18,3.5.27,5.26.48-.04.95-.06,1.42-.06s.94-.02,1.42-.06h.3c.14,0,.23-.03.27-.09.06-.06.15-.17.27-.33.12-.16.25-.33.39-.5.13-.17.25-.34.36-.5.1-.16.18-.29.21-.39.1-.23.13-.47.12-.73-.02-.26-.02-.52,0-.79.02-.71,0-1.42-.03-2.13-.04-.71-.11-1.42-.2-2.13-.02-.04-.06-.11-.13-.22s-.11-.18-.13-.22c-.19-.33-.37-.64-.55-.95-.17-.31-.36-.61-.58-.92-.13-.02-.38-.06-.75-.12s-.75-.12-1.15-.17c-.4-.06-.79-.1-1.15-.14-.36-.04-.61-.06-.75-.06Z"/>
        <path class="cls-44" d="M137.5,48.69c-.15.02-.33.02-.53.01s-.33-.09-.39-.24c-.06-.15-.11-.42-.16-.81-.05-.38-.09-.79-.12-1.24-.03-.44-.06-.86-.09-1.25-.03-.39-.04-.67-.04-.82-.02-.33-.06-.91-.13-1.74-.07-.83-.14-1.79-.22-2.88-.08-1.08-.16-2.23-.26-3.44-.1-1.21-.19-2.35-.27-3.42-.09-1.07-.16-2.03-.23-2.86-.07-.83-.12-1.41-.16-1.74,0-.1,0-.2.01-.32,0-.12.06-.19.16-.23.06-.02.16-.05.32-.1.15-.05.31-.09.47-.13s.32-.07.47-.1c.15-.03.26-.04.32-.04.58-.12,1.15-.2,1.74-.25.58-.05,1.16-.09,1.74-.13,1.19-.1,2.37-.17,3.55-.22s2.36-.12,3.55-.22c.13-.02.34-.03.62-.04.28,0,.56-.01.85-.01s.56.02.82.06c.26.04.45.1.56.17.15.15.24.31.26.46.04.23.04.46,0,.7-.04.24-.05.47-.03.71,0,.15.01.36.04.62s.04.52.04.79,0,.53-.03.78c-.02.25-.07.43-.14.55-.06.1-.17.17-.33.22-.16.05-.34.08-.53.09s-.38.01-.57.01h-.46c-.15,0-.42,0-.8.01s-.82.02-1.32.03c-.5.01-1.03.02-1.58.04-.56.02-1.08.04-1.58.06-.5.02-.94.03-1.32.04s-.65.02-.8.04c.04.63.09,1.26.14,1.9s.11,1.26.14,1.9c.15,0,.29-.01.42-.04.12-.03.26-.05.42-.07.21-.04.6-.08,1.16-.13s1.17-.09,1.81-.13c.64-.04,1.25-.07,1.83-.1.57-.03.97-.04,1.18-.04.19,0,.28.11.26.32-.02.21-.05.41-.09.6-.04.5-.05,1-.04,1.5,0,.5.01,1,.01,1.5,0,.1-.02.19-.06.29-.04.1-.11.16-.2.2-.06.04-.12.06-.2.06h-.23c-.19,0-.58,0-1.15.01-.58,0-1.19.02-1.85.03-.66,0-1.28.02-1.85.03s-.96.02-1.15.04c.02.63.07,1.26.16,1.88.09.62.17,1.25.24,1.88,0,.04.04.06.12.06.21,0,.65,0,1.32-.03.67-.02,1.38-.04,2.14-.07.76-.03,1.47-.06,2.14-.09.67-.03,1.11-.04,1.32-.04.13,0,.29,0,.46-.01.17,0,.33,0,.49,0,.15,0,.29.05.4.12s.18.17.2.3c.02.12.03.34.03.66s0,.67-.01,1.02c0,.36-.02.69-.03,1.01s-.01.53-.01.65v.32c0,.13-.01.27-.03.42-.02.14-.04.28-.06.4-.02.12-.06.22-.11.27-.12.13-.29.2-.52.2-.13.02-.26.02-.39.01s-.25-.01-.39-.01h-1.27c-.59,0-1.27,0-2.04-.01s-1.57-.01-2.42-.01-1.65,0-2.42.01-1.45.01-2.04.01-1.02,0-1.26.03Z"/>
        <path class="cls-44" d="M157.51,48.64c-.1.1-.26.16-.5.19-.24.03-.49.04-.76.04s-.53,0-.78-.03c-.25-.02-.44-.03-.57-.03-.15,0-.36,0-.62.01-.26,0-.52.01-.79.01s-.52-.02-.76-.06c-.24-.04-.42-.11-.53-.2-.1-.1-.15-.21-.17-.36-.02-.14-.03-.29-.03-.45.15-2.84.28-5.66.37-8.47.1-2.81.23-5.63.4-8.47.04-.44.03-.87-.01-1.28s-.06-.84-.04-1.28c.02-.29.07-.58.16-.89s.24-.57.47-.78c.13-.11.3-.18.5-.2.2-.02.4-.03.59-.03,1.88.1,3.75.13,5.62.1,1.87-.03,3.73.06,5.59.27.13.02.26.06.39.12.12.06.21.13.24.23.06.13.08.27.06.42-.02.14-.04.28-.06.42-.06.5-.1,1-.12,1.49-.02.5-.05,1-.09,1.5-.04.27-.09.56-.16.88-.07.32-.24.49-.5.53-.15.02-.31.02-.46.01-.15,0-.31-.02-.46-.04-.13,0-.35,0-.66-.01s-.66-.02-1.05-.04c-.39-.02-.82-.03-1.27-.04-.45,0-.87-.02-1.26-.04-.39-.02-.75-.03-1.06-.04s-.53-.01-.65-.01c-.1.92-.15,1.84-.17,2.76.94-.04,1.87-.03,2.8.01.93.05,1.86.09,2.8.13.1,0,.23,0,.4.01.17.01.29.04.34.1.1.1.14.27.13.53s-.01.46-.01.59c-.06.46-.09.92-.09,1.38v.42c0,.18,0,.37-.03.57-.02.2-.05.39-.09.56-.04.17-.09.3-.14.37-.1.1-.21.14-.33.13-.12,0-.24-.01-.36-.01-.17,0-.53,0-1.06-.03-.54-.02-1.11-.03-1.73-.04-.61,0-1.19-.02-1.74-.03s-.91-.01-1.08-.01c-.02.23-.05.69-.1,1.37s-.1,1.4-.14,2.16-.09,1.48-.13,2.16c-.04.68-.06,1.14-.06,1.37,0,.13,0,.3.01.5s0,.4,0,.6c0,.2-.03.39-.07.56-.04.17-.11.3-.2.37Z"/>
        <path class="cls-44" d="M169.87,48.69c-.15.02-.33.02-.53.01s-.33-.09-.39-.24c-.06-.15-.11-.42-.16-.81-.05-.38-.09-.79-.12-1.24-.03-.44-.06-.86-.09-1.25-.03-.39-.04-.67-.04-.82-.02-.33-.06-.91-.13-1.74-.07-.83-.14-1.79-.22-2.88-.08-1.08-.16-2.23-.26-3.44-.1-1.21-.19-2.35-.27-3.42-.09-1.07-.16-2.03-.23-2.86-.07-.83-.12-1.41-.16-1.74,0-.1,0-.2.01-.32,0-.12.06-.19.16-.23.06-.02.16-.05.32-.1.15-.05.31-.09.47-.13s.32-.07.47-.1c.15-.03.26-.04.32-.04.58-.12,1.15-.2,1.74-.25.58-.05,1.16-.09,1.74-.13,1.19-.1,2.37-.17,3.55-.22s2.36-.12,3.55-.22c.13-.02.34-.03.62-.04.28,0,.56-.01.85-.01s.56.02.82.06c.26.04.45.1.56.17.15.15.24.31.26.46.04.23.04.46,0,.7-.04.24-.05.47-.03.71,0,.15.01.36.04.62s.04.52.04.79,0,.53-.03.78c-.02.25-.07.43-.14.55-.06.1-.17.17-.33.22-.16.05-.34.08-.53.09s-.38.01-.57.01h-.46c-.15,0-.42,0-.8.01s-.82.02-1.32.03c-.5.01-1.03.02-1.58.04-.56.02-1.08.04-1.58.06-.5.02-.94.03-1.32.04s-.65.02-.8.04c.04.63.09,1.26.14,1.9s.11,1.26.14,1.9c.15,0,.29-.01.42-.04.12-.03.26-.05.42-.07.21-.04.6-.08,1.16-.13s1.17-.09,1.81-.13c.64-.04,1.25-.07,1.83-.1.57-.03.97-.04,1.18-.04.19,0,.28.11.26.32-.02.21-.05.41-.09.6-.04.5-.05,1-.04,1.5,0,.5.01,1,.01,1.5,0,.1-.02.19-.06.29-.04.1-.11.16-.2.2-.06.04-.12.06-.2.06h-.23c-.19,0-.58,0-1.15.01-.58,0-1.19.02-1.85.03-.66,0-1.28.02-1.85.03s-.96.02-1.15.04c.02.63.07,1.26.16,1.88.09.62.17,1.25.24,1.88,0,.04.04.06.12.06.21,0,.65,0,1.32-.03.67-.02,1.38-.04,2.14-.07.76-.03,1.47-.06,2.14-.09.67-.03,1.11-.04,1.32-.04.13,0,.29,0,.46-.01.17,0,.33,0,.49,0,.15,0,.29.05.4.12s.18.17.2.3c.02.12.03.34.03.66s0,.67-.01,1.02c0,.36-.02.69-.03,1.01s-.01.53-.01.65v.32c0,.13-.01.27-.03.42-.02.14-.04.28-.06.4-.02.12-.06.22-.11.27-.12.13-.29.2-.52.2-.13.02-.26.02-.39.01s-.25-.01-.39-.01h-1.27c-.59,0-1.27,0-2.04-.01s-1.57-.01-2.42-.01-1.65,0-2.42.01-1.45.01-2.04.01-1.02,0-1.26.03Z"/>
        <path class="cls-44" d="M188.21,48.26c-.42.04-.84.07-1.25.09-.41.02-.83.02-1.25,0-.15,0-.3-.01-.43-.04-.13-.03-.24-.09-.32-.19-.06-.08-.1-.22-.11-.43-.02-.21-.04-.36-.06-.46-.1-1.3-.12-2.6-.06-3.88.06-1.28.08-2.57.06-3.85,0-.23,0-.63-.01-1.19s-.02-1.22-.03-1.96c-.01-.74-.02-1.52-.04-2.36-.02-.83-.03-1.62-.04-2.36,0-.74-.02-1.39-.03-1.96,0-.57-.01-.96-.01-1.19,0-.19.12-.31.37-.36.25-.05.48-.09.69-.13.92-.21,1.84-.37,2.76-.47.92-.11,1.84-.25,2.76-.42.15-.04.33-.06.55-.07s.34.06.4.22c.65,1.5,1.34,2.96,2.07,4.4.77,1.55,1.54,3.09,2.33,4.61.79,1.52,1.57,3.05,2.36,4.59.02-.86.09-1.71.2-2.53.12-.82.21-1.66.29-2.5.1-.92.17-1.84.23-2.76s.1-1.84.14-2.76c.04-.42.06-.84.07-1.25,0-.41.03-.84.07-1.28.02-.08.04-.22.07-.42.03-.2.06-.34.1-.42.04-.06.12-.1.24-.13.12-.03.23-.04.33-.04.38.04.76.08,1.12.12.36.04.74.07,1.12.09.31,0,.61,0,.91-.03.3-.02.6-.02.91,0,.31,0,.56.05.75.14.19.1.32.25.37.46.06.21.05.45-.03.72-.02.13-.07.4-.14.81-.08.4-.15.83-.23,1.28-.08.45-.15.88-.22,1.28-.07.4-.11.67-.13.8-.04.31-.09.83-.16,1.58-.07.75-.15,1.61-.24,2.59s-.19,2.01-.29,3.1c-.1,1.09-.19,2.13-.27,3.11s-.17,1.84-.24,2.59c-.08.75-.13,1.27-.17,1.58-.04.15-.08.3-.12.43-.04.13-.11.25-.2.35-.13.11-.35.19-.65.23-.3.04-.62.06-.96.06s-.68-.01-1.01-.04c-.33-.03-.57-.04-.75-.04-.33,0-.65.03-.98.1-.33.07-.65.09-.98.07-.15-.02-.3-.04-.43-.06-.13-.02-.26-.07-.37-.14-.17-.1-.33-.22-.46-.39-.13-.16-.25-.33-.35-.5-1.04-1.73-1.99-3.47-2.86-5.25s-1.85-3.49-2.95-5.16c0,1.55.07,3.11.2,4.67.13,1.56.29,3.12.46,4.67,0,.06.01.17.04.33.03.16.05.34.07.53.02.19.04.37.06.55s.03.29.03.34c0,.1-.02.18-.06.26-.04.08-.1.13-.17.17-.12.06-.32.1-.6.12-.29.02-.59.03-.91.03s-.62,0-.92-.01c-.3,0-.51-.01-.65-.01Z"/>
        <path class="cls-44" d="M216.73,48.06c-.17,0-.46.01-.85.04-.39.03-.84.06-1.35.09-.51.03-1.04.05-1.6.07-.56.02-1.09.04-1.6.07-.51.03-.96.05-1.35.06s-.68,0-.85-.01c-.08,0-.2,0-.37-.03-.17-.02-.29-.05-.34-.09-.06-.04-.09-.09-.1-.16,0-.07-.02-.14-.04-.22-.04-.46-.09-1.24-.14-2.33-.06-1.09-.12-2.35-.2-3.77-.08-1.42-.15-2.91-.23-4.49-.08-1.57-.15-3.07-.22-4.49-.07-1.42-.12-2.67-.17-3.77-.05-1.09-.07-1.87-.07-2.33,0-.1.03-.18.1-.24.07-.07.15-.09.24-.07,1.21.04,2.42.11,3.62.22,1.21.11,2.42.26,3.62.47.98.15,1.94.34,2.89.58.95.23,1.88.52,2.8.86.08.04.16.11.26.22.1.11.19.22.27.34.09.12.16.25.23.37.07.12.12.22.16.3.25.44.48.89.69,1.34.21.45.44.9.69,1.34.04.08.07.21.1.4.03.19.04.33.04.43-.02.13-.03.37-.03.71s0,.71-.01,1.14c0,.42-.02.88-.03,1.37,0,.49-.02.94-.03,1.37,0,.42-.02.8-.03,1.14,0,.34-.01.57-.01.7v.53c0,.26,0,.53-.01.82,0,.29-.02.56-.03.8,0,.25-.02.42-.04.52-.02.06-.05.14-.1.25s-.11.21-.17.33-.13.23-.19.33-.1.19-.12.24c-.27.48-.55.96-.83,1.44-.29.48-.57.96-.83,1.44-.04.06-.1.15-.17.29-.08.13-.15.26-.23.39-.08.12-.16.24-.24.36s-.16.18-.22.2c-.11.06-.31.11-.58.16s-.55.09-.85.13c-.3.04-.58.07-.86.09-.28.02-.48.04-.62.06ZM212.39,31.96c.15,1.74.27,3.49.36,5.23.09,1.74.18,3.5.27,5.26.48-.04.95-.06,1.42-.06s.94-.02,1.42-.06h.3c.14,0,.23-.03.27-.09.06-.06.15-.17.27-.33.12-.16.25-.33.39-.5.13-.17.25-.34.36-.5.1-.16.18-.29.21-.39.1-.23.13-.47.12-.73-.02-.26-.02-.52,0-.79.02-.71,0-1.42-.03-2.13-.04-.71-.11-1.42-.2-2.13-.02-.04-.06-.11-.13-.22s-.11-.18-.13-.22c-.19-.33-.37-.64-.55-.95-.17-.31-.36-.61-.58-.92-.13-.02-.38-.06-.75-.12s-.75-.12-1.15-.17c-.4-.06-.79-.1-1.15-.14-.36-.04-.61-.06-.75-.06Z"/>
        <path class="cls-44" d="M230.76,48.15c-.71.06-1.42.07-2.13.03-.71-.04-1.42-.06-2.13-.06-.1,0-.19,0-.27-.03-.09-.02-.17-.07-.25-.14-.11-.12-.17-.28-.17-.49-.21-2.28-.4-4.56-.56-6.83-.16-2.27-.3-4.56-.42-6.86-.04-1.15-.08-2.3-.12-3.45-.04-1.15-.06-2.3-.06-3.45,0-.17.11-.27.32-.29.21-.02.4-.04.58-.06.25-.02.65-.06,1.21-.13.56-.07,1.15-.12,1.77-.17.62-.05,1.22-.08,1.78-.1s.96,0,1.19.06c.19.06.29.21.29.46-.17,3.49-.32,6.96-.45,10.41-.12,3.45-.18,6.92-.16,10.41.02.15,0,.3-.09.45-.08.14-.19.22-.35.24Z"/>
        <path class="cls-44" d="M237.52,48.26c-.42.04-.84.07-1.25.09-.41.02-.83.02-1.25,0-.15,0-.3-.01-.43-.04-.13-.03-.24-.09-.32-.19-.06-.08-.1-.22-.11-.43-.02-.21-.04-.36-.06-.46-.1-1.3-.12-2.6-.06-3.88.06-1.28.08-2.57.06-3.85,0-.23,0-.63-.01-1.19s-.02-1.22-.03-1.96c-.01-.74-.02-1.52-.04-2.36-.02-.83-.03-1.62-.04-2.36,0-.74-.02-1.39-.03-1.96,0-.57-.01-.96-.01-1.19,0-.19.12-.31.37-.36.25-.05.48-.09.69-.13.92-.21,1.84-.37,2.76-.47.92-.11,1.84-.25,2.76-.42.15-.04.33-.06.55-.07s.34.06.4.22c.65,1.5,1.34,2.96,2.07,4.4.77,1.55,1.54,3.09,2.33,4.61.79,1.52,1.57,3.05,2.36,4.59.02-.86.09-1.71.2-2.53.12-.82.21-1.66.29-2.5.1-.92.17-1.84.23-2.76s.1-1.84.14-2.76c.04-.42.06-.84.07-1.25,0-.41.03-.84.07-1.28.02-.08.04-.22.07-.42.03-.2.06-.34.1-.42.04-.06.12-.1.24-.13.12-.03.23-.04.33-.04.38.04.76.08,1.12.12.36.04.74.07,1.12.09.31,0,.61,0,.91-.03.3-.02.6-.02.91,0,.31,0,.56.05.75.14.19.1.32.25.37.46.06.21.05.45-.03.72-.02.13-.07.4-.14.81-.08.4-.15.83-.23,1.28-.08.45-.15.88-.22,1.28-.07.4-.11.67-.13.8-.04.31-.09.83-.16,1.58-.07.75-.15,1.61-.24,2.59s-.19,2.01-.29,3.1c-.1,1.09-.19,2.13-.27,3.11s-.17,1.84-.24,2.59c-.08.75-.13,1.27-.17,1.58-.04.15-.08.3-.12.43-.04.13-.11.25-.2.35-.13.11-.35.19-.65.23-.3.04-.62.06-.96.06s-.68-.01-1.01-.04c-.33-.03-.57-.04-.75-.04-.33,0-.65.03-.98.1-.33.07-.65.09-.98.07-.15-.02-.3-.04-.43-.06-.13-.02-.26-.07-.37-.14-.17-.1-.33-.22-.46-.39-.13-.16-.25-.33-.35-.5-1.04-1.73-1.99-3.47-2.86-5.25s-1.85-3.49-2.95-5.16c0,1.55.07,3.11.2,4.67.13,1.56.29,3.12.46,4.67,0,.06.01.17.04.33.03.16.05.34.07.53.02.19.04.37.06.55s.03.29.03.34c0,.1-.02.18-.06.26-.04.08-.1.13-.17.17-.12.06-.32.1-.6.12-.29.02-.59.03-.91.03s-.62,0-.92-.01c-.3,0-.51-.01-.65-.01Z"/>
        <path class="cls-44" d="M259.69,48.03c-.08,0-.2.01-.36.04-.16.03-.34.05-.53.07-.19.02-.37.04-.53.06-.16.02-.28.02-.36,0-.15-.04-.27-.17-.34-.4-.08-.23-.13-.42-.17-.58-.31-1.67-.51-3.35-.6-5.05s-.12-3.4-.06-5.1c.06-1.71.17-3.41.33-5.12.16-1.71.34-3.4.53-5.09.04-.23.13-.43.27-.6s.34-.24.59-.2c2.24.31,4.47.63,6.68.98,2.21.34,4.45.64,6.71.89.15.02.25.08.3.17.05.1.07.22.07.36s-.02.3-.06.46c-.04.16-.07.31-.09.45-.1.65-.19,1.3-.27,1.95-.09.65-.18,1.3-.27,1.96-.04.21-.17.31-.4.29-.23-.02-.45-.05-.66-.09-.17-.04-.46-.09-.88-.14-.41-.06-.89-.13-1.44-.22-.55-.09-1.12-.17-1.71-.26-.59-.09-1.16-.17-1.71-.24-.55-.08-1.03-.14-1.44-.2s-.7-.1-.88-.12c-.19,1.69-.32,3.38-.37,5.08s-.07,3.39-.03,5.07c.17,0,.5.01.98.04.48.03.99.05,1.54.07.55.02,1.06.03,1.54.04s.81.01.98.01c.04-.38.07-.76.09-1.12.02-.36.04-.74.06-1.12h-2.29c-.2,0-.33-.07-.39-.2-.06-.12-.08-.34-.07-.68,0-.33.02-.69.04-1.06.02-.37.04-.72.07-1.05.03-.33.03-.56.01-.69-.02-.08-.02-.16,0-.26.02-.1.06-.16.12-.2.06-.06.15-.09.29-.1.13,0,.27-.01.42-.01s.28,0,.42.03c.13.02.24.03.32.03.15.02.48.04.99.06.51.02,1.04.04,1.61.06.57.02,1.1.04,1.61.06.51.02.84.03.99.03.25.04.49.08.73.13.24.05.33.2.27.45-.06.23-.12.61-.19,1.15-.07.54-.13,1.16-.2,1.85-.07.7-.14,1.43-.22,2.2-.08.77-.14,1.5-.2,2.19-.06.69-.11,1.31-.14,1.85-.04.55-.07.93-.09,1.16,0,.1-.02.21-.07.33-.05.12-.11.21-.19.24-.06.04-.18.06-.36.06h-.39c-1.78-.08-3.56-.14-5.32-.2-1.76-.06-3.53.02-5.29.23Z"/>
        <path class="cls-44" d="M275.84,41.79c-.1,0-.18-.03-.24-.1s-.1-.15-.1-.25c-.21-1.74-.41-3.47-.59-5.17-.18-1.71-.36-3.43-.53-5.17-.02-.1-.04-.29-.07-.58-.03-.29-.06-.59-.09-.92-.03-.33-.05-.63-.07-.92-.02-.29-.04-.48-.06-.58-.02-.15,0-.3.06-.45.06-.14.16-.23.32-.27,1.04-.15,2.06-.29,3.06-.42,1.01-.12,2.03-.22,3.06-.27h.24c.09,0,.16.03.22.09.15.12.23.27.23.47s-.01.4-.03.59c-.02.29-.05.77-.09,1.45-.04.68-.09,1.47-.14,2.36-.06.89-.12,1.84-.19,2.83-.07,1-.13,1.94-.19,2.83-.06.89-.11,1.68-.16,2.37-.05.69-.09,1.17-.13,1.44-.02.08-.04.15-.06.23-.02.08-.05.14-.09.2-.08.08-.17.12-.29.12h-2.7c-.23.02-.46.04-.69.06-.23.02-.46.04-.69.06ZM280.21,48.29c-.8.04-1.59.02-2.36-.04-.77-.07-1.55-.1-2.36-.1-.1,0-.18-.04-.24-.12-.07-.08-.11-.16-.13-.26-.04-.59-.08-1.18-.11-1.77-.04-.58-.07-1.17-.09-1.77,0-.1.02-.19.07-.29s.12-.16.22-.2c.8-.13,1.6-.22,2.4-.25.79-.03,1.6-.09,2.4-.19.1-.02.23-.03.4-.04.17,0,.3.01.37.07.04.04.06.08.07.12,0,.04.02.09.04.14v.85c0,.41,0,.85-.01,1.31s-.02.9-.03,1.32c0,.42-.02.71-.04.86-.04.12-.08.19-.11.23-.04.04-.12.07-.23.09-.12.02-.2.03-.26.03Z"/>
      </g>
    </g>
  </g>
</svg>